<svg width="16" height="16" viewBox="0 0 16 16" fill="none" xmlns="http://www.w3.org/2000/svg">
<path d="M5.24573 1.21216C5.40472 1.43794 5.35058 1.74986 5.1248 1.90885C3.83862 2.81458 3 4.3094 3 6.00004C3 6.47359 3.06569 6.93097 3.18816 7.36396C3.26331 7.62968 3.10883 7.90601 2.84311 7.98117C2.57739 8.05632 2.30106 7.90184 2.22591 7.63612C2.07864 7.11545 2 6.56652 2 6.00004C2 3.97037 3.00828 2.17624 4.54904 1.09123C4.77482 0.932241 5.08674 0.986381 5.24573 1.21216Z" fill="#2D50E6"/>
<path d="M10.7543 1.21216C10.9133 0.986381 11.2252 0.932241 11.451 1.09123C12.9917 2.17624 14 3.97037 14 6.00004C14 6.56652 13.9214 7.11545 13.7741 7.63612C13.6989 7.90184 13.4226 8.05632 13.1569 7.98117C12.8912 7.90601 12.7367 7.62968 12.8118 7.36396C12.9343 6.93097 13 6.47359 13 6.00004C13 4.3094 12.1614 2.81458 10.8752 1.90885C10.6494 1.74986 10.5953 1.43794 10.7543 1.21216Z" fill="#2D50E6"/>
<path fill-rule="evenodd" clip-rule="evenodd" d="M4 6.00004C4 3.7909 5.79086 2.00004 8 2.00004C10.2091 2.00004 12 3.7909 12 6.00004V10C12 10.5523 11.5523 11 11 11H5C4.44772 11 4 10.5523 4 10V6.00004ZM8 3.00004C7.72386 3.00004 7.5 3.2239 7.5 3.50004C7.5 3.77618 7.72386 4.00004 8 4.00004C9.10457 4.00004 10 4.89547 10 6.00004C10 6.27618 10.2239 6.50004 10.5 6.50004C10.7761 6.50004 11 6.27618 11 6.00004C11 4.34319 9.65685 3.00004 8 3.00004Z" fill="#2D50E6"/>
<path d="M4 12C2.89543 12 2 12.8955 2 14C2 14.5523 2.44772 15 3 15H13C13.5523 15 14 14.5523 14 14C14 12.8955 13.1046 12 12 12H4Z" fill="#2D50E6"/>
</svg>
