<svg width="16" height="16" viewBox="0 0 16 16" fill="none" xmlns="http://www.w3.org/2000/svg">
<path d="M11 7C11 8.65685 9.65685 10 8 10C6.34315 10 5 8.65685 5 7C5 5.34315 6.34315 4 8 4C9.65685 4 11 5.34315 11 7Z" fill="#2D50E6"/>
<path fill-rule="evenodd" clip-rule="evenodd" d="M14 7L13.9999 7.03671C13.9834 11.256 11.1221 14.7057 7.49988 14.9985C7.22463 15.0207 6.99996 14.795 6.99996 14.5182L6.99997 12.917C4.16227 12.4409 2 9.97298 2 7C2 3.68629 4.68629 1 8 1C11.3137 1 14 3.68629 14 7ZM13 7C13 9.76142 10.7614 12 8 12C5.23858 12 3 9.76142 3 7C3 4.23858 5.23858 2 8 2C10.7614 2 13 4.23858 13 7Z" fill="#2D50E6"/>
</svg>
