<svg width="16" height="16" viewBox="0 0 16 16" fill="none" xmlns="http://www.w3.org/2000/svg">
<path d="M2.29289 7.29289C2.10536 7.48043 2 7.73478 2 8C2 8.26522 2.10536 8.51957 2.29289 8.70711L6.29289 12.7071C6.68342 13.0976 7.31658 13.0976 7.70711 12.7071C8.09763 12.3166 8.09763 11.6834 7.70711 11.2929L5.41421 9H13C13.5523 9 14 8.55228 14 8C14 7.44772 13.5523 7 13 7H5.41421L7.70711 4.70711C8.09763 4.31658 8.09763 3.68342 7.70711 3.29289C7.31658 2.90237 6.68342 2.90237 6.29289 3.29289L2.29289 7.29289Z" fill="#2D50E6"/>
</svg>
