<svg width="16" height="16" viewBox="0 0 16 16" fill="none" xmlns="http://www.w3.org/2000/svg">
<path d="M14.7071 8.70711C14.8946 8.51957 15 8.26522 15 8C15 7.73478 14.8946 7.48043 14.7071 7.29289L9.70711 2.29289C9.31658 1.90237 8.68342 1.90237 8.29289 2.29289C7.90237 2.68342 7.90237 3.31658 8.29289 3.70711L11.5858 7H2C1.44772 7 1 7.44772 1 8C1 8.55228 1.44771 9 2 9H11.5858L8.29289 12.2929C7.90237 12.6834 7.90237 13.3166 8.29289 13.7071C8.68342 14.0976 9.31658 14.0976 9.70711 13.7071L14.7071 8.70711Z" fill="#2D50E6"/>
</svg>
