<svg width="16" height="16" viewBox="0 0 16 16" fill="none" xmlns="http://www.w3.org/2000/svg">
<path d="M0 8C0 7.73478 0.105356 7.48043 0.292892 7.29289L4.29289 3.29289C4.68342 2.90237 5.31658 2.90237 5.70711 3.29289C6.09763 3.68342 6.09763 4.31658 5.70711 4.70711L3.41421 7H12.5858L10.2929 4.70711C9.90237 4.31658 9.90237 3.68342 10.2929 3.29289C10.6834 2.90237 11.3166 2.90237 11.7071 3.29289L15.7071 7.29289C15.8946 7.48043 16 7.73478 16 8C16 8.26522 15.8946 8.51957 15.7071 8.70711L11.7071 12.7071C11.3166 13.0976 10.6834 13.0976 10.2929 12.7071C9.90237 12.3166 9.90237 11.6834 10.2929 11.2929L12.5858 9H3.41421L5.70711 11.2929C6.09763 11.6834 6.09763 12.3166 5.70711 12.7071C5.31658 13.0976 4.68342 13.0976 4.29289 12.7071L0.292892 8.70711C0.105356 8.51957 0 8.26522 0 8Z" fill="#2D50E6"/>
</svg>
