<svg width="16" height="16" viewBox="0 0 16 16" fill="none" xmlns="http://www.w3.org/2000/svg">
<path d="M7.29289 1.29289C7.48043 1.10536 7.73478 1 8 1C8.26522 1 8.51957 1.10536 8.70711 1.29289L13.7071 6.29289C14.0976 6.68342 14.0976 7.31658 13.7071 7.70711C13.3166 8.09763 12.6834 8.09763 12.2929 7.70711L9 4.41421V14C9 14.5523 8.55228 15 8 15C7.44772 15 7 14.5523 7 14V4.41421L3.70711 7.70711C3.31658 8.09763 2.68342 8.09763 2.29289 7.70711C1.90237 7.31658 1.90237 6.68342 2.29289 6.29289L7.29289 1.29289Z" fill="#2D50E6"/>
</svg>
