<svg width="16" height="16" viewBox="0 0 16 16" fill="none" xmlns="http://www.w3.org/2000/svg">
<path d="M7.29289 2.29289C7.48043 2.10536 7.73478 2 8 2C8.26522 2 8.51957 2.10536 8.70711 2.29289L12.7071 6.29289C13.0976 6.68342 13.0976 7.31658 12.7071 7.70711C12.3166 8.09763 11.6834 8.09763 11.2929 7.70711L9 5.41421V13C9 13.5523 8.55228 14 8 14C7.44772 14 7 13.5523 7 13V5.41421L4.70711 7.70711C4.31658 8.09763 3.68342 8.09763 3.29289 7.70711C2.90237 7.31658 2.90237 6.68342 3.29289 6.29289L7.29289 2.29289Z" fill="#2D50E6"/>
</svg>
