<svg width="16" height="16" viewBox="0 0 16 16" fill="none" xmlns="http://www.w3.org/2000/svg">
<path d="M13.7071 8.70711C13.8946 8.51957 14 8.26522 14 8C14 7.73478 13.8946 7.48043 13.7071 7.29289L9.70711 3.29289C9.31658 2.90237 8.68342 2.90237 8.29289 3.29289C7.90237 3.68342 7.90237 4.31658 8.29289 4.70711L10.5858 7H3C2.44772 7 2 7.44772 2 8C2 8.55228 2.44771 9 3 9H10.5858L8.29289 11.2929C7.90237 11.6834 7.90237 12.3166 8.29289 12.7071C8.68342 13.0976 9.31658 13.0976 9.70711 12.7071L13.7071 8.70711Z" fill="#2D50E6"/>
</svg>
