<svg width="16" height="16" viewBox="0 0 16 16" fill="none" xmlns="http://www.w3.org/2000/svg">
<path d="M8.5 2.5C8.5 2.22386 8.27614 2 8 2C7.72386 2 7.5 2.22386 7.5 2.5C7.5 2.79416 7.27362 3.03625 6.98365 3.08572C4.39198 3.52791 2.36712 5.63221 2.04483 8.26284C2.01897 8.47394 1.89553 8.6617 1.77268 8.84857C1.63598 9.0565 1.5 9.26334 1.5 9.5C1.5 9.77614 1.72386 10 2 10H7.5V11H3.70711C3.25435 11 2.82014 11.1799 2.5 11.5L2.32038 11.6796C2.11524 11.8848 1.83702 12 1.54692 12H1.5C1.22386 12 1 12.2239 1 12.5C1 12.7761 1.22386 13 1.5 13H14.5C14.7761 13 15 12.7761 15 12.5C15 12.2239 14.7761 12 14.5 12H14.4531C14.163 12 13.8848 11.8848 13.6796 11.6796L13.5 11.5C13.1799 11.1799 12.7456 11 12.2929 11H8.5V10H14C14.2761 10 14.5 9.77614 14.5 9.5C14.5 9.26334 14.364 9.0565 14.2273 8.84857C14.1045 8.6617 13.981 8.47394 13.9552 8.26284C13.6329 5.63221 11.608 3.52791 9.01635 3.08572C8.72638 3.03625 8.5 2.79416 8.5 2.5Z" fill="#2D50E6"/>
</svg>
