<svg width="16" height="16" viewBox="0 0 16 16" fill="none" xmlns="http://www.w3.org/2000/svg">
<path d="M13.1213 2.87868C11.9497 1.70711 10.0502 1.70711 8.87863 2.87868L8.87212 2.88519L2.50689 9.02001C2.50131 9.02538 2.49564 9.0306 2.48989 9.03567C1.82923 9.72073 1.83679 10.8117 2.51256 11.4875C3.19598 12.1709 4.30402 12.1709 4.98744 11.4875L4.99335 11.4815L11.4585 5.43485L11.4603 5.4331C11.6909 5.18813 11.6864 4.80257 11.4469 4.56306C11.2028 4.31898 10.8071 4.31898 10.563 4.56306L10.5573 4.56875L3.84198 10.8648C3.64053 11.0536 3.32411 11.0434 3.13524 10.842C2.94637 10.6405 2.95657 10.3241 3.15802 10.1352L9.86214 3.84976C10.4972 3.22135 11.5215 3.22342 12.154 3.85595C12.7886 4.49055 12.7886 5.51944 12.154 6.15405C12.1438 6.16428 12.1332 6.17398 12.1223 6.18315L5.68833 12.2008C4.6139 13.2685 2.87733 13.2664 1.80546 12.1946C0.731515 11.1206 0.731515 9.37941 1.80546 8.30547C1.81644 8.29449 1.8278 8.28413 1.8395 8.27438L8.1749 2.1682C9.73727 0.609477 12.2674 0.6106 13.8284 2.17157C15.3903 3.73348 15.3905 6.26573 13.8289 7.82787L6.85482 14.8523C6.66026 15.0482 6.34368 15.0494 6.14772 14.8548C5.95176 14.6603 5.95062 14.3437 6.14518 14.1477L13.12 7.12259L13.1213 7.12132C14.2928 5.94975 14.2928 4.05025 13.1213 2.87868Z" fill="#2D50E6"/>
</svg>
