<svg width="16" height="16" viewBox="0 0 16 16" fill="none" xmlns="http://www.w3.org/2000/svg">
<path d="M2 2.4971V13.5C2 13.7761 2.22386 14 2.5 14H13.5029C13.9483 14 14.1714 13.4614 13.8564 13.1464L13.2618 12.5518C12.9176 12.832 12.4784 13 12 13C11.201 13 10.5114 12.5314 10.191 11.8541C10.1508 11.769 10.1121 11.6826 10.0732 11.596C9.91073 11.2336 9.74695 10.8683 9.46854 10.5898L5.45337 6.57467C5.40331 6.5259 5.35706 6.47402 5.31481 6.41952C5.11749 6.16556 5 5.8465 5 5.49999C5 5.48581 5.00001 5.47158 5.00001 5.4573C5.00028 4.9102 5.00058 4.29057 4.61654 3.90653L2.85355 2.14354C2.53857 1.82856 2 2.05164 2 2.4971Z" fill="#2D50E6"/>
<path d="M8.5 3.99999C8.77614 3.99999 9 3.77613 9 3.49999C9 3.22385 8.77614 2.99999 8.5 2.99999C8.22386 2.99999 8 3.22385 8 3.49999C8 3.77613 8.22386 3.99999 8.5 3.99999Z" fill="#2D50E6"/>
<path d="M10.5 4.99999C10.7761 4.99999 11 4.77613 11 4.49999C11 4.22385 10.7761 3.99999 10.5 3.99999C10.2239 3.99999 10 4.22385 10 4.49999C10 4.77613 10.2239 4.99999 10.5 4.99999Z" fill="#2D50E6"/>
<path d="M6.01325 5.38537C6.02646 5.32902 6.04956 5.27451 6.08254 5.22462C6.11539 5.17471 6.15636 5.13206 6.2029 5.09775C6.3233 5.00859 6.47466 4.98042 6.61462 5.01324C6.64244 5.01976 6.66982 5.02869 6.6964 5.04004L9.18805 6.03669C9.65236 6.22242 10.1711 6.14953 10.6884 6.07685C10.9621 6.03839 11.2354 5.99999 11.5 5.99999C12.1544 5.99999 12.7109 6.41906 12.9159 7.00348C12.9436 7.00117 12.9717 6.99999 13 6.99999C13.5523 6.99999 14 7.44771 14 7.99999C14 8.25548 13.9042 8.48859 13.7465 8.66535C13.9066 8.90396 14 9.19107 14 9.49999C14 10.1544 13.5809 10.7109 12.9965 10.9159C12.9988 10.9436 13 10.9717 13 11C13 11.5523 12.5523 12 12 12C11.4477 12 11 11.5523 11 11C11 10.8379 10.9633 10.6704 10.8486 10.5557L6.15459 5.86169C6.1337 5.84172 6.11471 5.82009 6.09775 5.79709C6.00859 5.67669 5.98043 5.52533 6.01325 5.38537Z" fill="#2D50E6"/>
</svg>
