<svg width="16" height="16" viewBox="0 0 16 16" fill="none" xmlns="http://www.w3.org/2000/svg">
<path d="M9 1C9 1.05652 8.99531 1.11194 8.9863 1.1659C10.1586 1.57385 11 2.68867 11 4H12C12.5523 4 13 4.44772 13 5C13 5.55228 12.5523 6 12 6V14C12 14.5523 11.5523 15 11 15H5C4.44772 15 4 14.5523 4 14V12H7.5C7.77614 12 8 11.7761 8 11.5C8 11.2239 7.77614 11 7.5 11H4V10H7.5C7.77614 10 8 9.77614 8 9.5C8 9.22386 7.77614 9 7.5 9H4V8H7.5C7.77614 8 8 7.77614 8 7.5C8 7.22386 7.77614 7 7.5 7H4V6C3.44772 6 3 5.55228 3 5C3 4.44772 3.44772 4 4 4H5C5 2.68867 5.84136 1.57385 7.0137 1.1659C7.00469 1.11194 7 1.05652 7 1C7 0.447715 7.44772 0 8 0C8.55229 0 9 0.447715 9 1Z" fill="#2D50E6"/>
</svg>
