<svg width="16" height="16" viewBox="0 0 16 16" fill="none" xmlns="http://www.w3.org/2000/svg">
<path fill-rule="evenodd" clip-rule="evenodd" d="M6.0083 2.18347C6.00293 2.12305 6 2.06185 6 2C6 0.895432 6.89551 0 8 0C9.10449 0 10 0.895432 10 2C10 2.13659 9.98633 2.26997 9.96045 2.39887C11.7476 3.16122 13 4.93432 13 7V9C13.5522 9 14 9.44772 14 10V12.5C14 12.7761 13.7764 13 13.5 13H13C13 14.1046 12.1045 15 11 15H5C3.89551 15 3 14.1046 3 13H2.5C2.22363 13 2 12.7761 2 12.5V10C2 9.44772 2.44775 9 3 9V7C3 4.93432 4.25244 3.16122 6.03955 2.39887C6.03418 2.37305 6.0293 2.34706 6.02539 2.3209C6.01807 2.27558 6.0127 2.22975 6.0083 2.18347ZM7.00488 2.09904C7.32666 2.03409 7.65918 2 8 2C8.34082 2 8.67334 2.03409 8.99512 2.09904C8.99854 2.06646 9 2.03342 9 2C9 1.44772 8.55225 1 8 1C7.44775 1 7 1.44772 7 2L7.00049 2.02696L7.00146 2.04916L7.00342 2.07526L7.00488 2.09904ZM4.5 8C4.22363 8 4 7.77615 4 7.5V7C4 4.79086 5.79102 3 8 3C10.209 3 12 4.79086 12 7V7.5C12 7.77615 11.7764 8 11.5 8H4.5ZM6 9H7V11.5C7 11.7761 6.77637 12 6.5 12C6.22363 12 6 11.7761 6 11.5V9ZM10 9H9V11.5C9 11.7761 9.22363 12 9.5 12C9.77637 12 10 11.7761 10 11.5V9Z" fill="#2D50E6"/>
</svg>
