<svg width="16" height="16" viewBox="0 0 16 16" fill="none" xmlns="http://www.w3.org/2000/svg">
<path fill-rule="evenodd" clip-rule="evenodd" d="M8.5 6.7122C8.5 6.25592 8.82902 5.87692 9.19475 5.60408C9.68351 5.23945 10 4.65668 10 4H11.7931C11.1236 5.89669 10.0884 8.83855 10.0884 8.83855C10.0308 9.04924 10 9.27102 10 9.5C10 10.8807 11.1193 12 12.5 12C13.8807 12 15 10.8807 15 9.5C15 9.27102 14.9692 9.04924 14.9116 8.83856C14.9116 8.83856 13.6008 5.11347 12.9753 3.34425L12.9737 3.33964C12.9636 3.30974 12.9507 3.28111 12.9354 3.25405C12.9289 3.24255 12.922 3.23135 12.9146 3.22045C12.8248 3.08744 12.6726 3 12.5 3H9.73244C9.38663 2.4022 8.74028 2 8 2C7.25972 2 6.61337 2.4022 6.26756 3H3.5C3.27824 3 3.09021 3.14436 3.02474 3.34423C2.3992 5.11345 1.08844 8.83855 1.08844 8.83855C1.03078 9.04924 1 9.27102 1 9.5C1 10.8807 2.11929 12 3.5 12C4.88071 12 6 10.8807 6 9.5C6 9.27102 5.96922 9.04924 5.91156 8.83856C5.91156 8.83856 4.8764 5.89669 4.2069 4H6C6 4.65668 6.31649 5.23945 6.80525 5.60408C7.17098 5.87692 7.5 6.25592 7.5 6.7122V13C7.5 13.5523 7.05228 14 6.5 14H5.5C5.22386 14 5 14.2239 5 14.5C5 14.7761 5.22386 15 5.5 15H10.5C10.7761 15 11 14.7761 11 14.5C11 14.2239 10.7761 14 10.5 14H9.5C8.94772 14 8.5 13.5523 8.5 13V6.7122ZM3.49975 5.00061C3.4797 5.04973 2.25 8.06527 2.25 8.75C2.25 9.44036 2.80964 10 3.5 10C4.19036 10 4.75 9.44036 4.75 8.75C4.75 8.06527 3.5198 5.04973 3.49975 5.00061ZM12.4998 5.00061C12.4797 5.04973 11.25 8.06527 11.25 8.75C11.25 9.44036 11.8096 10 12.5 10C13.1904 10 13.75 9.44036 13.75 8.75C13.75 8.06527 12.5198 5.04973 12.4998 5.00061Z" fill="#2D50E6"/>
</svg>
