<svg width="16" height="16" viewBox="0 0 16 16" fill="none" xmlns="http://www.w3.org/2000/svg">
<path d="M1 4.5C1 4.22386 1.22386 4 1.5 4C1.77614 4 2 4.22386 2 4.5V11.5C2 11.7761 1.77614 12 1.5 12C1.22386 12 1 11.7761 1 11.5V4.5Z" fill="#2D50E6"/>
<path d="M3 4.5C3 4.22386 3.22386 4 3.5 4H4.5C4.77614 4 5 4.22386 5 4.5V8.5C5 8.77614 4.77614 9 4.5 9H3.5C3.22386 9 3 8.77614 3 8.5V4.5Z" fill="#2D50E6"/>
<path d="M3.5 12C3.22386 12 3 11.7761 3 11.5V10.5C3 10.2239 3.22386 10 3.5 10H4.5C4.77614 10 5 10.2239 5 10.5V11.5C5 11.7761 4.77614 12 4.5 12H3.5Z" fill="#2D50E6"/>
<path d="M8 4.5C8 4.22386 8.22386 4 8.5 4H9.5C9.77614 4 10 4.22386 10 4.5V11.5C10 11.7761 9.77614 12 9.5 12H8.5C8.22386 12 8 11.7761 8 11.5V4.5Z" fill="#2D50E6"/>
<path d="M6.5 4C6.22386 4 6 4.22386 6 4.5V11.5C6 11.7761 6.22386 12 6.5 12C6.77614 12 7 11.7761 7 11.5V4.5C7 4.22386 6.77614 4 6.5 4Z" fill="#2D50E6"/>
<path d="M11 7.5C11 7.22386 11.2239 7 11.5 7H12.5C12.7761 7 13 7.22386 13 7.5V11.5C13 11.7761 12.7761 12 12.5 12H11.5C11.2239 12 11 11.7761 11 11.5V7.5Z" fill="#2D50E6"/>
<path d="M11.5 6C11.2239 6 11 5.77614 11 5.5V4.5C11 4.22386 11.2239 4 11.5 4H12.5C12.7761 4 13 4.22386 13 4.5V5.5C13 5.77614 12.7761 6 12.5 6H11.5Z" fill="#2D50E6"/>
<path d="M14 4.5C14 4.22386 14.2239 4 14.5 4C14.7761 4 15 4.22386 15 4.5V9.5C15 9.77614 14.7761 10 14.5 10C14.2239 10 14 9.77614 14 9.5V4.5Z" fill="#2D50E6"/>
<path d="M14.5 12C14.2239 12 14 11.7761 14 11.5C14 11.2239 14.2239 11 14.5 11C14.7761 11 15 11.2239 15 11.5C15 11.7761 14.7761 12 14.5 12Z" fill="#2D50E6"/>
</svg>
