<svg width="16" height="16" viewBox="0 0 16 16" fill="none" xmlns="http://www.w3.org/2000/svg">
<path d="M1 3.5C1 3.22386 1.22386 3 1.5 3C1.77614 3 2 3.22386 2 3.5V12.5C2 12.7761 1.77614 13 1.5 13C1.22386 13 1 12.7761 1 12.5V3.5Z" fill="#2D50E6"/>
<path d="M3 3.5C3 3.22386 3.22386 3 3.5 3H4.5C4.77614 3 5 3.22386 5 3.5V8.5C5 8.77614 4.77614 9 4.5 9H3.5C3.22386 9 3 8.77614 3 8.5V3.5Z" fill="#2D50E6"/>
<path d="M3.5 13C3.22386 13 3 12.7761 3 12.5V10.5C3 10.2239 3.22386 10 3.5 10H4.5C4.77614 10 5 10.2239 5 10.5V12.5C5 12.7761 4.77614 13 4.5 13H3.5Z" fill="#2D50E6"/>
<path d="M8 3.5C8 3.22386 8.22386 3 8.5 3H9.5C9.77614 3 10 3.22386 10 3.5V12.5C10 12.7761 9.77614 13 9.5 13H8.5C8.22386 13 8 12.7761 8 12.5V3.5Z" fill="#2D50E6"/>
<path d="M6.5 3C6.22386 3 6 3.22386 6 3.5V12.5C6 12.7761 6.22386 13 6.5 13C6.77614 13 7 12.7761 7 12.5V3.5C7 3.22386 6.77614 3 6.5 3Z" fill="#2D50E6"/>
<path d="M11 7.5C11 7.22386 11.2239 7 11.5 7H12.5C12.7761 7 13 7.22386 13 7.5V12.5C13 12.7761 12.7761 13 12.5 13H11.5C11.2239 13 11 12.7761 11 12.5V7.5Z" fill="#2D50E6"/>
<path d="M11.5 6C11.2239 6 11 5.77614 11 5.5V3.5C11 3.22386 11.2239 3 11.5 3H12.5C12.7761 3 13 3.22386 13 3.5V5.5C13 5.77614 12.7761 6 12.5 6H11.5Z" fill="#2D50E6"/>
<path d="M14 3.5C14 3.22386 14.2239 3 14.5 3C14.7761 3 15 3.22386 15 3.5V10.5C15 10.7761 14.7761 11 14.5 11C14.2239 11 14 10.7761 14 10.5V3.5Z" fill="#2D50E6"/>
<path d="M14.5 13C14.2239 13 14 12.7761 14 12.5C14 12.2239 14.2239 12 14.5 12C14.7761 12 15 12.2239 15 12.5C15 12.7761 14.7761 13 14.5 13Z" fill="#2D50E6"/>
</svg>
