<svg width="16" height="16" viewBox="0 0 16 16" fill="none" xmlns="http://www.w3.org/2000/svg">
<path d="M5.4348 1.03012C5.69429 0.936199 5.98121 1.06925 6.07566 1.3273L6.08167 1.34373C9.58292 0.347758 13.3131 2.20228 14.5778 5.6579C14.2945 4.88374 13.2233 4.56073 12.1854 4.93642C11.1474 5.31211 10.5357 6.24424 10.819 7.0184C10.5648 6.32384 9.33786 6.115 7.96386 6.48636L10.0373 12.1514C10.4156 12.0696 10.8246 12.0166 11.25 12.0166C12.2153 12.0166 13.0966 12.2896 13.7253 12.5528C14.042 12.6854 14.3009 12.8182 14.4819 12.9187C14.5726 12.9691 14.6442 13.0115 14.6942 13.0421C14.7192 13.0574 14.7388 13.0698 14.7527 13.0787L14.7694 13.0894L14.7745 13.0927L14.7762 13.0938L14.7771 13.0944L14.5 13.5083C14.7773 13.0946 14.7771 13.0944 14.7771 13.0944C15.0069 13.2468 15.0692 13.5556 14.916 13.7841C14.763 14.0124 14.453 14.0742 14.2233 13.9225L14.2219 13.9215L14.2127 13.9156C14.2038 13.91 14.1895 13.9009 14.1701 13.889C14.1312 13.8652 14.0719 13.83 13.9946 13.7871C13.8397 13.7011 13.6142 13.5853 13.3372 13.4693C12.7784 13.2354 12.0346 13.0111 11.25 13.0111C10.4653 13.0111 9.72157 13.2354 9.16276 13.4693C8.88575 13.5853 8.66024 13.7011 8.50538 13.7871C8.42809 13.83 8.36879 13.8652 8.3299 13.889C8.31046 13.9009 8.29616 13.91 8.28729 13.9156L8.27811 13.9215L8.27713 13.9222L8.27618 13.9228L8.27447 13.9239L8.2694 13.9272L8.25274 13.938C8.23879 13.9469 8.21916 13.9592 8.19416 13.9745C8.14418 14.0051 8.07262 14.0475 7.98194 14.0979C7.80087 14.1984 7.542 14.3312 7.22526 14.4638C6.59657 14.727 5.71534 15 4.74998 15C3.78462 15 2.90339 14.727 2.2747 14.4638C1.95796 14.3312 1.69909 14.1984 1.51802 14.0979C1.42734 14.0475 1.35578 14.0051 1.3058 13.9745C1.2808 13.9592 1.26117 13.9469 1.24722 13.938L1.23056 13.9272L1.22549 13.9239L1.22378 13.9228L1.22287 13.9222C0.993102 13.7699 0.930778 13.461 1.08395 13.2325C1.23699 13.0042 1.54698 12.9424 1.77668 13.0942L1.77811 13.0951L1.78729 13.101C1.79616 13.1067 1.81046 13.1157 1.8299 13.1276C1.86879 13.1514 1.92809 13.1866 2.00538 13.2295C2.16024 13.3155 2.38575 13.4313 2.66276 13.5473C3.22157 13.7813 3.96534 14.0055 4.74998 14.0055C5.37024 14.0055 5.96496 13.8654 6.46296 13.6911C6.59494 13.6449 6.72013 13.5963 6.8372 13.5473C7.11421 13.4313 7.33972 13.3155 7.49458 13.2295C7.57187 13.1866 7.63117 13.1514 7.67006 13.1276C7.6895 13.1157 7.7038 13.1067 7.71267 13.101L7.72185 13.0951L7.72287 13.0944L7.72378 13.0938L7.72549 13.0927L7.73056 13.0894L7.74722 13.0787C7.76117 13.0698 7.7808 13.0574 7.8058 13.0421C7.85578 13.0115 7.92734 12.9691 8.01802 12.9187C8.19909 12.8182 8.45796 12.6854 8.7747 12.5528C8.8697 12.513 8.97047 12.473 9.07643 12.4338L7.02417 6.82649C5.73159 7.4203 4.92667 8.3646 5.18087 9.05915C4.89754 8.285 3.82641 7.96198 2.78846 8.33767C1.7505 8.71337 1.13876 9.6455 1.4221 10.4197C0.157355 6.96404 1.8161 3.15899 5.14198 1.68386L5.13596 1.66743C5.04152 1.40938 5.17531 1.12404 5.4348 1.03012Z" fill="#2D50E6"/>
</svg>
