<svg width="16" height="16" viewBox="0 0 16 16" fill="none" xmlns="http://www.w3.org/2000/svg">
<path d="M7.5 11C7.22386 11 7 11.2239 7 11.5C7 11.7761 7.22386 12 7.5 12H8.5C8.77614 12 9 11.7761 9 11.5C9 11.2239 8.77614 11 8.5 11H7.5Z" fill="#2D50E6"/>
<path fill-rule="evenodd" clip-rule="evenodd" d="M1 5.5C1 6.49335 1.41382 7.39005 2.07848 8.0271C2.02684 8.34376 2 8.66875 2 9C2 12.3137 4.68629 15 8 15C11.3137 15 14 12.3137 14 9C14 8.66875 13.9732 8.34376 13.9215 8.0271C14.5862 7.39005 15 6.49335 15 5.5C15 3.567 13.433 2 11.5 2C10.5066 2 9.60995 2.41382 8.9729 3.07848C8.65624 3.02684 8.33125 3 8 3C7.66875 3 7.34376 3.02684 7.0271 3.07848C6.39005 2.41382 5.49335 2 4.5 2C2.567 2 1 3.567 1 5.5ZM4.5 4C3.67157 4 3 4.67157 3 5.5C3 5.77614 2.77614 6 2.5 6C2.22386 6 2 5.77614 2 5.5C2 4.11929 3.11929 3 4.5 3C4.77614 3 5 3.22386 5 3.5C5 3.77614 4.77614 4 4.5 4ZM13 5.5C13 4.67157 12.3284 4 11.5 4C11.2239 4 11 3.77614 11 3.5C11 3.22386 11.2239 3 11.5 3C12.8807 3 14 4.11929 14 5.5C14 5.77614 13.7761 6 13.5 6C13.2239 6 13 5.77614 13 5.5ZM7 7.5C7 8.32843 6.55228 9 6 9C5.44772 9 5 8.32843 5 7.5C5 6.67157 5.44772 6 6 6C6.55228 6 7 6.67157 7 7.5ZM10 9C10.5523 9 11 8.32843 11 7.5C11 6.67157 10.5523 6 10 6C9.44771 6 9 6.67157 9 7.5C9 8.32843 9.44771 9 10 9ZM11 12C11 13 9.65685 13.5 8 13.5C6.34315 13.5 5 13 5 12C5 11 6.34315 10 8 10C9.65685 10 11 11 11 12Z" fill="#2D50E6"/>
</svg>
