<svg width="16" height="16" viewBox="0 0 16 16" fill="none" xmlns="http://www.w3.org/2000/svg">
<path d="M13.8536 2.85355C14.0488 2.65829 14.0488 2.34171 13.8536 2.14645C13.6583 1.95118 13.3417 1.95118 13.1464 2.14645L10.9981 4.29479C10.6327 3.90876 10.1741 3.5818 9.59012 3.32854C9.39821 3.2453 9.1985 3.17668 8.99238 3.12406C8.99741 3.08342 9 3.04201 9 3C9 2.44772 8.55228 2 8 2C7.44772 2 7 2.44772 7 3C7 3.04201 7.00259 3.08342 7.00762 3.12406C6.8015 3.17668 6.60179 3.2453 6.40988 3.32854C4.08907 4.33506 3.74832 6.50544 3.36894 8.92194C3.28468 9.45859 3.19852 10.0074 3.08835 10.5583C3.03698 10.8151 2.81145 11 2.54951 11H2.5C2.22386 11 2 11.2239 2 11.5C2 11.7761 2.22386 12 2.5 12H3.29289L2.14645 13.1464C1.95118 13.3417 1.95118 13.6583 2.14645 13.8536C2.34171 14.0488 2.65829 14.0488 2.85355 13.8536L13.8536 2.85355Z" fill="#2D50E6"/>
<path d="M13.5 12H6.12143L12.0296 6.09188C12.3211 6.94792 12.4727 7.91352 12.6311 8.92198C12.7153 9.45862 12.8015 10.0074 12.9117 10.5583C12.963 10.8151 13.1885 11 13.4505 11H13.5C13.7761 11 14 11.2239 14 11.5C14 11.7761 13.7761 12 13.5 12Z" fill="#2D50E6"/>
<path d="M6 13C6 14.1046 6.89543 15 8 15C9.10457 15 10 14.1046 10 13H6Z" fill="#2D50E6"/>
</svg>
