<svg width="16" height="16" viewBox="0 0 16 16" fill="none" xmlns="http://www.w3.org/2000/svg">
<path d="M2.29289 13H2C1.44772 13 1 12.5523 1 12V11.6767C1 11.3029 1.30295 11 1.67665 11C1.88114 11 2.0738 10.9073 2.17564 10.73C2.46251 10.2305 3 9.02449 3 7C3 4.40733 4.9733 2.27555 7.5 2.02469V1.5C7.5 1.22386 7.72386 1 8 1C8.27614 1 8.5 1.22386 8.5 1.5V2.02469C9.75373 2.14916 10.8712 2.73673 11.679 3.61392L14.1464 1.14645C14.3417 0.951184 14.6583 0.951184 14.8536 1.14645C15.0488 1.34171 15.0488 1.65829 14.8536 1.85355L12.2851 4.42205C12.2851 4.42207 12.285 4.42202 12.2851 4.42205L1.85355 14.8536C1.65829 15.0488 1.34171 15.0488 1.14645 14.8536C0.951184 14.6583 0.951184 14.3417 1.14645 14.1464L2.29289 13Z" fill="#2D50E6"/>
<path d="M5.12144 13L12.7342 5.38724C12.9065 5.89323 13 6.4357 13 7C13 9.0245 13.5375 10.2305 13.8244 10.73C13.9262 10.9073 14.1189 11 14.3233 11C14.6971 11 15 11.3029 15 11.6767V12C15 12.5523 14.5523 13 14 13H5.12144Z" fill="#2D50E6"/>
<path d="M6.26758 14C6.61341 14.5978 7.25977 15 8 15C8.74023 15 9.38659 14.5978 9.73242 14H6.26758Z" fill="#2D50E6"/>
</svg>
