<svg width="16" height="16" viewBox="0 0 16 16" fill="none" xmlns="http://www.w3.org/2000/svg">
<path fill-rule="evenodd" clip-rule="evenodd" d="M5.16667 5.00001H4.5C4.22386 5.00001 4 4.77615 4 4.50001C4 4.22387 4.22386 4.00001 4.5 4.00001H5.48841C5.49602 3.99983 5.50361 3.99983 5.51118 4.00001H6.5C6.77614 4.00001 7 4.22387 7 4.50001C7 4.77615 6.77614 5.00001 6.5 5.00001H6.25L6.66667 6.00001H9.69098L9.19098 5.00001H8.5C8.22386 5.00001 8 4.77615 8 4.50001C8 4.22387 8.22386 4.00001 8.5 4.00001H9.5C9.68939 4.00001 9.86252 4.10701 9.94721 4.2764L11.8515 8.08494C12.0583 8.02955 12.2757 8.00001 12.5 8.00001C13.8807 8.00001 15 9.1193 15 10.5C15 11.8807 13.8807 13 12.5 13C11.1193 13 10 11.8807 10 10.5C10 9.70144 10.3744 8.99032 10.9573 8.53263L10.4515 7.52102L8.42712 10.76C8.37577 10.8445 8.299 10.9146 8.20208 10.9574L8.19231 10.9615C8.18633 10.964 8.18034 10.9664 8.17433 10.9686C8.11333 10.9914 8.0505 11.0014 7.98884 11H5.94999C5.71836 12.1411 4.70948 13 3.5 13C2.11929 13 1 11.8807 1 10.5C1 9.1193 2.11929 8.00001 3.5 8.00001C3.80768 8.00001 4.10237 8.05559 4.37459 8.15726L5.576 6.23501C5.59591 6.20315 5.6191 6.17401 5.64497 6.14793L5.16667 5.00001ZM11 10.5C11 10.0956 11.1601 9.72848 11.4203 9.4587L12.0528 10.7236C12.1763 10.9706 12.4766 11.0707 12.7236 10.9472C12.9706 10.8237 13.0707 10.5234 12.9472 10.2764L12.3147 9.01134C12.3754 9.00386 12.4373 9.00001 12.5 9.00001C13.3284 9.00001 14 9.67158 14 10.5C14 11.3284 13.3284 12 12.5 12C11.6716 12 11 11.3284 11 10.5ZM6.11085 7.26605L5.22223 8.68784C5.5863 9.03396 5.84619 9.48864 5.94999 10H7.25L6.11085 7.26605ZM8.08915 9.41397L7.08333 7.00001H9.59788L8.08915 9.41397ZM4.91465 10C4.85854 9.84128 4.77648 9.69481 4.67356 9.56571L4.40212 10H4.91465ZM3.076 10.235L3.82571 9.03547C3.72085 9.01225 3.61185 9.00001 3.5 9.00001C2.67157 9.00001 2 9.67158 2 10.5C2 11.3284 2.67157 12 3.5 12C4.15311 12 4.70873 11.5826 4.91465 11H3.5C3.31824 11 3.15079 10.9014 3.06268 10.7424C2.97457 10.5834 2.97967 10.3891 3.076 10.235Z" fill="#2D50E6"/>
</svg>
