<svg width="16" height="16" viewBox="0 0 16 16" fill="none" xmlns="http://www.w3.org/2000/svg">
<g clip-path="url(#clip0_598_115)">
<path fill-rule="evenodd" clip-rule="evenodd" d="M13.6874 0.110623C13.6058 -0.0368744 13.3942 -0.0368743 13.3126 0.110623L12.6363 1.33398C12.6067 1.3874 12.5559 1.42569 12.4964 1.43925L11.1668 1.74257C11.01 1.77835 10.947 1.96803 11.0511 2.09082L11.5666 2.69855C11.4661 2.72751 11.3729 2.75979 11.2862 2.79547C11.0314 2.90039 10.8238 3.03865 10.6613 3.21628C10.4986 3.39416 10.4015 3.58948 10.3382 3.77939C10.2772 3.96226 10.2447 4.15074 10.2185 4.31086L10.2082 4.3742C10.1848 4.51827 10.164 4.64671 10.1315 4.77971C10.0797 4.99141 10.0003 5.20446 9.84041 5.42198L9.26777 4.84934C9.0725 4.65408 8.75592 4.65408 8.56066 4.84934L7.99579 5.41421C7.38444 5.14777 6.70948 5 6 5C3.23858 5 1 7.23858 1 10C1 12.7614 3.23858 15 6 15C8.76142 15 11 12.7614 11 10C11 9.42059 10.9014 8.86419 10.7202 8.34667L11.3891 7.67777C11.5843 7.4825 11.5843 7.16592 11.3891 6.97066L10.5528 6.13433C10.8669 5.75209 11.0169 5.36897 11.1029 5.01716C11.1455 4.84272 11.173 4.67268 11.1958 4.53122L11.2054 4.47235C11.2319 4.31019 11.254 4.19399 11.2868 4.09561C11.3173 4.00427 11.3529 3.94178 11.3992 3.89114C11.4458 3.84026 11.5233 3.7793 11.6669 3.72015C11.7539 3.68436 11.8603 3.65107 11.9908 3.62177L11.881 4.76447C11.8651 4.92953 12.0341 5.04949 12.1843 4.97978L13.4099 4.41077C13.4671 4.38425 13.5329 4.38425 13.5901 4.41077L14.8157 4.97978C14.9659 5.04949 15.1349 4.92953 15.119 4.76447L14.9814 3.33214C14.9758 3.27437 14.9938 3.21681 15.0313 3.17259L15.9489 2.09082C16.053 1.96803 15.99 1.77835 15.8332 1.74257L14.5036 1.43925C14.4441 1.42569 14.3933 1.3874 14.3637 1.33398L13.6874 0.110623ZM3 10C3 8.34315 4.34315 7 6 7C6.27614 7 6.5 6.77614 6.5 6.5C6.5 6.22386 6.27614 6 6 6C3.79086 6 2 7.79086 2 10C2 10.2761 2.22386 10.5 2.5 10.5C2.77614 10.5 3 10.2761 3 10Z" fill="#2D50E6"/>
</g>
<defs>
<clipPath id="clip0_598_115">
<rect width="16" height="16" fill="white"/>
</clipPath>
</defs>
</svg>
