<svg width="16" height="16" viewBox="0 0 16 16" fill="none" xmlns="http://www.w3.org/2000/svg">
<g clip-path="url(#clip0_2847_80)">
<path d="M15.1899 8.16877C15.1899 7.67029 15.1495 7.16911 15.0633 6.67871H8.14648V9.50255H12.1074C11.943 10.4133 11.4149 11.2189 10.6416 11.7309V13.5632H13.0047C14.3923 12.286 15.1899 10.3998 15.1899 8.16877Z" fill="#4285F4"/>
<path d="M8.14641 15.3334C10.1242 15.3334 11.7921 14.684 13.0073 13.5631L10.6442 11.7309C9.98676 12.1782 9.13799 12.4314 8.14911 12.4314C6.23601 12.4314 4.61392 11.1408 4.03191 9.40552H1.59338V11.2944C2.83824 13.7706 5.37377 15.3334 8.14641 15.3334Z" fill="#34A853"/>
<path d="M4.02924 9.4055C3.72207 8.49476 3.72207 7.50857 4.02924 6.59783V4.70898H1.59341C0.553335 6.78106 0.553335 9.22227 1.59341 11.2943L4.02924 9.4055Z" fill="#FBBC04"/>
<path d="M8.14641 3.56922C9.19188 3.55305 10.2023 3.94645 10.9595 4.66858L13.0531 2.57495C11.7274 1.33009 9.96789 0.645686 8.14641 0.667242C5.37377 0.667242 2.83824 2.23005 1.59338 4.70899L4.02921 6.59784C4.60853 4.85989 6.23332 3.56922 8.14641 3.56922Z" fill="#EA4335"/>
</g>
<defs>
<clipPath id="clip0_2847_80">
<rect width="16" height="16" fill="white"/>
</clipPath>
</defs>
</svg>
