<svg width="16" height="16" viewBox="0 0 16 16" fill="none" xmlns="http://www.w3.org/2000/svg">
<path d="M13.795 11.4298C13.5746 11.9422 13.3136 12.4139 13.0113 12.8475C12.5992 13.4387 12.2617 13.8479 12.0017 14.0751C11.5986 14.4481 11.1666 14.6392 10.7041 14.65C10.3721 14.65 9.97166 14.555 9.50555 14.3621C9.03791 14.1702 8.60815 14.0751 8.21519 14.0751C7.80307 14.0751 7.36107 14.1702 6.88831 14.3621C6.41481 14.555 6.03338 14.6555 5.74174 14.6654C5.29822 14.6844 4.85613 14.488 4.41485 14.0751C4.13321 13.828 3.78092 13.4043 3.3589 12.8041C2.90611 12.1631 2.53385 11.4198 2.24222 10.5724C1.92989 9.65717 1.77332 8.77085 1.77332 7.91279C1.77332 6.92988 1.98442 6.08214 2.40725 5.37173C2.73955 4.80111 3.18164 4.35098 3.73494 4.02054C4.28825 3.6901 4.88609 3.52171 5.52992 3.51093C5.88221 3.51093 6.34418 3.62057 6.91827 3.83603C7.49074 4.05223 7.85832 4.16186 8.01948 4.16186C8.13997 4.16186 8.54831 4.03367 9.24055 3.77809C9.89517 3.54108 10.4477 3.44294 10.9003 3.4816C12.1268 3.58119 13.0482 4.06762 13.661 4.94397C12.5641 5.61264 12.0215 6.54919 12.0323 7.75065C12.0422 8.68648 12.3796 9.46524 13.0428 10.0836C13.3433 10.3706 13.679 10.5924 14.0524 10.7499C13.9714 10.9862 13.8859 11.2125 13.795 11.4298ZM10.9822 0.293417C10.9822 1.02692 10.7158 1.71179 10.1849 2.34569C9.54424 3.09928 8.76931 3.53474 7.92896 3.46603C7.91825 3.37803 7.91204 3.28542 7.91204 3.18809C7.91204 2.48393 8.21672 1.73034 8.75779 1.11418C9.02792 0.802208 9.37147 0.542806 9.78809 0.335876C10.2038 0.132034 10.597 0.0193044 10.9669 0C10.9777 0.0980576 10.9822 0.196121 10.9822 0.293407V0.293417Z" fill="black"/>
</svg>
