<svg width="16" height="16" viewBox="0 0 16 16" fill="none" xmlns="http://www.w3.org/2000/svg">
<g clip-path="url(#clip0_2847_89)">
<path fill-rule="evenodd" clip-rule="evenodd" d="M9.62403 3.53133C7.94894 3.53133 6.85413 4.54654 6.85413 6.38446V8.00008H4.99215V10.1199H6.85413V15.2443C3.34832 14.6942 0.666626 11.6604 0.666626 8.00008C0.666626 3.94999 3.94987 0.666748 7.99996 0.666748C12.05 0.666748 15.3333 3.94999 15.3333 8.00008C15.3333 11.6604 12.6516 14.6942 9.14579 15.2443V10.1199H10.8545L11.1796 8.00008H9.14579V6.62447C9.14579 6.04453 9.42989 5.47925 10.3409 5.47925H11.2656V3.67456C11.2656 3.67456 10.4264 3.53133 9.62403 3.53133Z" fill="#1778F2"/>
</g>
<defs>
<clipPath id="clip0_2847_89">
<rect width="16" height="16" fill="white"/>
</clipPath>
</defs>
</svg>
