<svg width="16" height="16" viewBox="0 0 16 16" fill="none" xmlns="http://www.w3.org/2000/svg">
<path fill-rule="evenodd" clip-rule="evenodd" d="M11.5194 5.41664C14.4572 5.41664 15 7.3528 15 9.87138V15H12.0992V10.4522C12.0992 9.36788 12.0807 7.97278 10.592 7.97278C9.08205 7.97278 8.85167 9.15451 8.85167 10.3749V15H5.95409V5.64852H8.73486V6.92714H8.77506C9.16191 6.19176 10.1084 5.41664 11.5194 5.41664ZM4.13448 5.64852V15H1.23037V5.64852H4.13448ZM2.68324 1C3.61124 1 4.3643 1.75498 4.3643 2.68523C4.3643 3.61602 3.61124 4.371 2.68324 4.371C1.75142 4.371 1 3.61602 1 2.68523C1 1.75498 1.75142 1 2.68324 1Z" fill="white"/>
</svg>
