<svg width="16" height="16" viewBox="0 0 16 16" fill="none" xmlns="http://www.w3.org/2000/svg">
<path fill-rule="evenodd" clip-rule="evenodd" d="M11.2073 9.38955C11.0331 9.30284 10.1768 8.88351 10.0172 8.82563C9.8575 8.76778 9.74138 8.73888 9.62527 8.91235C9.50916 9.08589 9.17538 9.47634 9.07374 9.59207C8.97217 9.70769 8.87056 9.72223 8.69642 9.63544C8.52221 9.54866 7.96099 9.36564 7.29572 8.77504C6.77792 8.31543 6.42837 7.74781 6.32677 7.57424C6.22519 7.40073 6.31597 7.30693 6.40317 7.22047C6.48152 7.1428 6.57734 7.018 6.66441 6.91681C6.75152 6.81558 6.78053 6.74324 6.83859 6.62764C6.89664 6.51192 6.86763 6.41069 6.82408 6.32394C6.78053 6.23719 6.43219 5.38393 6.28706 5.03682C6.14568 4.69889 6.00209 4.74467 5.89516 4.73928C5.79369 4.73425 5.67744 4.73319 5.56136 4.73319C5.44524 4.73319 5.25653 4.77657 5.0969 4.95007C4.93723 5.12364 4.48728 5.543 4.48728 6.39619C4.48728 7.24941 5.11141 8.07363 5.19851 8.18932C5.28558 8.30505 6.42667 10.0559 8.1739 10.8067C8.58946 10.9853 8.91391 11.092 9.16683 11.1718C9.58409 11.3038 9.96379 11.2852 10.2639 11.2406C10.5985 11.1908 11.2944 10.8212 11.4395 10.4163C11.5846 10.0114 11.5846 9.66435 11.5411 9.59207C11.4976 9.51975 11.3815 9.47634 11.2073 9.38955ZM8.02928 13.7081H8.02694C6.98732 13.7077 5.96763 13.4297 5.07805 12.9043L4.86651 12.7794L2.67367 13.3518L3.25895 11.2241L3.12121 11.0059C2.54124 10.0879 2.23495 9.02684 2.23538 7.93731C2.23665 4.75814 4.83576 2.17166 8.03159 2.17166C9.57911 2.17219 11.0338 2.77277 12.1277 3.86267C13.2216 4.95253 13.8236 6.40128 13.8231 7.94194C13.8218 11.1214 11.2227 13.7081 8.02928 13.7081ZM12.9602 3.03449C11.6442 1.72319 9.89396 1.00073 8.02921 1C4.18703 1 1.05996 4.11188 1.05842 7.93685C1.05792 9.15957 1.37889 10.353 1.98891 11.4051L1 15L4.69528 14.0353C5.71344 14.588 6.85978 14.8793 8.02644 14.8797H8.02928H8.02931C11.8711 14.8797 14.9985 11.7675 15 7.9424C15.0007 6.08877 14.2763 4.34576 12.9602 3.03449Z" fill="white"/>
</svg>
