<svg width="16" height="16" viewBox="0 0 16 16" fill="none" xmlns="http://www.w3.org/2000/svg">
<path fill-rule="evenodd" clip-rule="evenodd" d="M5.00517 2.5C5.00517 1.67157 5.67639 1 6.50439 1H9.50284C10.3308 1 11.0021 1.67157 11.0021 2.5V3H13.001C14.036 3 14.8873 3.787 14.9897 4.79551C14.9965 4.86275 15 4.93096 15 5V11C15 12.1046 14.1046 13 13 13H3C1.89543 13 1 12.1046 1 11V5C1 3.89543 1.89543 3 3 3H5.00517V2.5ZM6.00465 3H10.0026V2.5C10.0026 2.22386 9.77884 2 9.50284 2H6.50439C6.22839 2 6.00465 2.22386 6.00465 2.5V3Z" fill="#2D50E6"/>
</svg>
