<svg width="16" height="16" viewBox="0 0 16 16" fill="none" xmlns="http://www.w3.org/2000/svg">
<path fill-rule="evenodd" clip-rule="evenodd" d="M3 2C3 1.44772 3.44772 1 4 1H12C12.5523 1 13 1.44772 13 2V14C13 14.5523 12.5523 15 12 15H4C3.44772 15 3 14.5523 3 14V2ZM4 2.5C4 2.22386 4.22386 2 4.5 2H7C7.27614 2 7.5 2.22386 7.5 2.5V7C7.5 7.27614 7.27614 7.5 7 7.5H4.5C4.22386 7.5 4 7.27614 4 7V2.5ZM9 2C8.72386 2 8.5 2.22386 8.5 2.5V7C8.5 7.27614 8.72386 7.5 9 7.5H11.5C11.7761 7.5 12 7.27614 12 7V2.5C12 2.22386 11.7761 2 11.5 2H9ZM4 9C4 8.72386 4.22386 8.5 4.5 8.5H7C7.27614 8.5 7.5 8.72386 7.5 9V13.5C7.5 13.7761 7.27614 14 7 14H4.5C4.22386 14 4 13.7761 4 13.5V9ZM8.5 9C8.5 8.93836 8.51116 8.87932 8.53156 8.8248L9.15592 9.13698L8.5 9.79289V9ZM8.5 13.3486V10.309L10.1559 11.137L9.61144 11.6815L8.5 13.3486ZM11.5 14H10.2071L9.6434 13.4363L10.0777 12.7848L10.7929 13.5H12C12 13.7761 11.7761 14 11.5 14ZM12 12.5H11.2071L10.7071 12L11.8441 10.863L9.84408 9.86302L10.8441 8.86302L10.118 8.5H11.5C11.7761 8.5 12 8.72386 12 9V12.5Z" fill="#2D50E6"/>
</svg>
