<svg width="16" height="16" viewBox="0 0 16 16" fill="none" xmlns="http://www.w3.org/2000/svg">
<path d="M13 3C13 1.89543 12.1046 1 11 1C9.89543 1 9 1.89543 9 3C9 3.18021 9.02383 3.35485 9.06852 3.52094C9.2077 4.03825 9.22764 4.65104 8.84884 5.02984L8 5.87868V8H10.1213L10.9702 7.15116C11.349 6.77236 11.9618 6.7923 12.4791 6.93148C12.6452 6.97617 12.8198 7 13 7C14.1046 7 15 6.10457 15 5C15 3.89543 14.1046 3 13 3Z" fill="#2D50E6"/>
<path d="M9.12132 9H7V6.87868L5.02984 8.84884C4.65104 9.22764 4.03825 9.2077 3.52094 9.06852C3.35485 9.02383 3.18021 9 3 9C1.89543 9 1 9.89543 1 11C1 12.1046 1.89543 13 3 13C3 14.1046 3.89543 15 5 15C6.10457 15 7 14.1046 7 13C7 12.8198 6.97617 12.6452 6.93148 12.4791C6.7923 11.9618 6.77236 11.349 7.15116 10.9702L9.12132 9Z" fill="#2D50E6"/>
</svg>
