<svg width="16" height="16" viewBox="0 0 16 16" fill="none" xmlns="http://www.w3.org/2000/svg">
<path fill-rule="evenodd" clip-rule="evenodd" d="M2.01479 4.46739C1.92246 3.94378 2.27208 3.44447 2.79568 3.35215L10.3802 2.01479C10.9038 1.92246 11.4031 2.27208 11.4955 2.79568L12.6218 9.18366C12.2697 9.06457 11.8924 9 11.5 9C11.2078 9 10.9239 9.03588 10.6526 9.10339L10.5188 8.3444C10.4726 8.0826 10.223 7.90779 9.96115 7.95395L9.01308 8.12112C8.75128 8.16728 8.57647 8.41694 8.62263 8.67874L8.7898 9.62681C8.81865 9.79042 8.92698 9.92006 9.06808 9.98302L9.0502 10.0004C9.03349 10.0001 9.01676 10 9 10C8.53057 10 8.08563 10.1083 7.68957 10.3009C7.44799 10.17 7.18227 10.0775 6.90088 10.0321C6.90023 10.0086 6.89786 9.98493 6.89366 9.96115L6.72649 9.01308C6.68033 8.75128 6.43068 8.57647 6.16888 8.62263L5.22081 8.7898C4.95901 8.83596 4.7842 9.08562 4.83036 9.34742L4.99753 10.2955C5.00794 10.3546 5.02872 10.4092 5.05765 10.4579C4.81832 10.6273 4.61016 10.8377 4.44332 11.0787C4.39243 11.0935 4.34237 11.1102 4.29323 11.1288C4.04356 11.0452 3.77662 11 3.5 11C3.38829 11 3.27829 11.0073 3.17046 11.0215L2.01479 4.46739ZM4.55213 4.99753C4.29033 5.04369 4.11552 5.29335 4.16168 5.55515L4.32885 6.50322C4.37501 6.76502 4.62467 6.93983 4.88647 6.89366L5.83454 6.72649C6.09634 6.68033 6.27115 6.43068 6.22498 6.16888L6.05781 5.22081C6.01165 4.95901 5.762 4.7842 5.5002 4.83036L4.55213 4.99753ZM7.95395 4.88647C7.90779 4.62467 8.0826 4.37501 8.3444 4.32885L9.29247 4.16168C9.55427 4.11552 9.80392 4.29033 9.85009 4.55213L10.0173 5.5002C10.0634 5.762 9.88861 6.01165 9.62681 6.05781L8.67874 6.22498C8.41694 6.27115 8.16728 6.09634 8.12112 5.83454L7.95395 4.88647Z" fill="#2D50E6"/>
<path d="M13.0006 14C13.3151 14 13.6233 13.8573 13.7585 13.5734C13.9133 13.2482 14 12.8842 14 12.5C14 11.1193 12.8807 10 11.5 10C10.6584 10 9.91389 10.4159 9.46083 11.0534C9.31289 11.0185 9.1586 11 9 11C8.47677 11 8.00047 11.2009 7.64405 11.5298C7.3689 11.2057 6.95847 11 6.5 11C5.84559 11 5.28905 11.4191 5.08412 12.0035C5.05639 12.0012 5.02833 12 5 12C4.74451 12 4.5114 12.0958 4.33464 12.2535C4.09603 12.0934 3.80892 12 3.5 12C2.67157 12 2 12.6716 2 13.5C2 13.8054 2.28965 13.9997 2.59504 13.9994C4.96179 13.997 7.32855 13.998 9.69531 13.999C10.7971 13.9994 11.8989 13.9999 13.0006 14Z" fill="#2D50E6"/>
</svg>
