<svg width="16" height="16" viewBox="0 0 16 16" fill="none" xmlns="http://www.w3.org/2000/svg">
<path fill-rule="evenodd" clip-rule="evenodd" d="M10.6341 14.4875C11.4768 14.1458 12.2665 13.6332 12.95 12.9497C13.6334 12.2663 14.146 11.4766 14.4877 10.6339C14.8181 9.82088 15 8.93167 15 8C15 7.06833 14.818 6.17917 14.4876 5.36614C14.1459 4.52341 13.6334 3.73372 12.95 3.05025C12.2665 2.36678 11.4768 1.85419 10.6341 1.51248C9.82102 1.18201 8.93177 1 8 1C7.01395 1 6.07552 1.20388 5.22457 1.57178C4.55646 1.86003 3.92412 2.25726 3.35458 2.76348C3.13796 2.95578 2.93336 3.16132 2.74205 3.37883C2.27886 3.90484 1.90805 4.48376 1.62961 5.09447C1.2253 5.97949 1 6.96343 1 8C1 9.03723 1.22559 10.0218 1.63039 10.9072C1.90831 11.5164 2.27816 12.0939 2.73994 12.6188C2.9326 12.838 3.13875 13.0451 3.35709 13.2387C3.92506 13.7431 4.5554 14.1391 5.22132 14.4268C6.07314 14.7956 7.0127 15 8 15C8.93177 15 9.82102 14.818 10.6341 14.4875ZM13.0963 10.1701C13.3445 10.2528 13.6168 10.1309 13.6988 9.88244C13.8942 9.29039 14 8.65755 14 8C14 7.34245 13.8942 6.70961 13.6988 6.11756C13.6167 5.86914 13.3445 5.74716 13.0963 5.82989L12.1615 6.1415C11.8784 6.23587 11.7432 6.55551 11.8296 6.84115C11.9404 7.20796 12 7.59702 12 8C12 8.40298 11.9404 8.79204 11.8296 9.15885C11.7432 9.44449 11.8784 9.76413 12.1615 9.85849L13.0963 10.1701ZM9.88272 13.6987C10.1311 13.6167 10.2531 13.3444 10.1704 13.0962L9.85875 12.1614C9.76439 11.8783 9.44472 11.7431 9.15907 11.8295C8.7922 11.9404 8.40306 12 8 12C7.59706 12 7.20804 11.9404 6.84126 11.8296C6.55562 11.7433 6.23599 11.8784 6.14163 12.1615L5.83002 13.0964C5.74729 13.3445 5.86927 13.6168 6.1177 13.6988C6.70971 13.8942 7.3425 14 8 14C8.65765 14 9.29059 13.8942 9.88272 13.6987ZM2.90372 10.1702C2.65554 10.253 2.3833 10.131 2.30128 9.88258C2.10579 9.29049 2 8.6576 2 8C2 7.3424 2.10579 6.70951 2.30128 6.11742C2.3833 5.869 2.65554 5.74704 2.90373 5.82976L3.83855 6.14137C4.12165 6.23574 4.25681 6.55539 4.17048 6.84104C4.0596 7.20788 4 7.59698 4 8C4 8.40302 4.0596 8.79212 4.17047 9.15896C4.25681 9.44461 4.12165 9.76426 3.83855 9.85862L2.90372 10.1702ZM5.85745 10.0999C5.32705 9.55876 5 8.81758 5 8C5 7.18235 5.32711 6.44109 5.85761 5.89996L5.89996 5.8576C6.44109 5.32711 7.18235 5 8 5C9.65685 5 11 6.34315 11 8C11 9.65685 9.65685 11 8 11C7.18243 11 6.44124 10.673 5.90012 10.1425L5.85745 10.0999ZM6.14163 3.83847C6.23599 4.12156 6.55562 4.25672 6.84126 4.17041C7.20804 4.05958 7.59706 4 8 4C8.40306 4 8.7922 4.05961 9.15907 4.17051C9.44472 4.25685 9.76439 4.12169 9.85875 3.83859L10.1704 2.90377C10.2531 2.65559 10.1311 2.38335 9.88272 2.30133C9.29059 2.10581 8.65765 2 8 2C7.3425 2 6.70971 2.10576 6.1177 2.30119C5.86927 2.3832 5.74729 2.65545 5.83002 2.90364L6.14163 3.83847Z" fill="#2D50E6"/>
</svg>
