<svg width="16" height="16" viewBox="0 0 16 16" fill="none" xmlns="http://www.w3.org/2000/svg">
<path d="M6.25 2C5.55964 2 5 2.55964 5 3.25V10C5.55228 10 6 10.4477 6 11V13C6 13.5523 5.55228 14 5 14V14.5C5 14.7761 4.77614 15 4.5 15C4.22386 15 4 14.7761 4 14.5V14C3.44772 14 3 13.5523 3 13V11C3 10.4477 3.44772 10 4 10V3.25C4 2.00736 5.00736 1 6.25 1C7.49264 1 8.5 2.00736 8.5 3.25V12.75C8.5 13.4404 9.05964 14 9.75 14C10.4404 14 11 13.4404 11 12.75V6C10.4477 6 10 5.55228 10 5V3C10 2.44772 10.4477 2 11 2V1.5C11 1.22386 11.2239 1 11.5 1C11.7761 1 12 1.22386 12 1.5V2C12.5523 2 13 2.44772 13 3V5C13 5.55228 12.5523 6 12 6V12.75C12 13.9926 10.9926 15 9.75 15C8.50736 15 7.5 13.9926 7.5 12.75V3.25C7.5 2.55964 6.94036 2 6.25 2Z" fill="#2D50E6"/>
</svg>
