<svg width="16" height="16" viewBox="0 0 16 16" fill="none" xmlns="http://www.w3.org/2000/svg">
<path fill-rule="evenodd" clip-rule="evenodd" d="M5 1C3.89543 1 3 1.89543 3 3V13C3 14.1046 3.89543 15 5 15H11C12.1046 15 13 14.1046 13 13V3C13 1.89543 12.1046 1 11 1H5ZM5 2C4.44772 2 4 2.44772 4 3V4C4 4.55228 4.44772 5 5 5H11C11.5523 5 12 4.55228 12 4V3C12 2.44772 11.5523 2 11 2H5ZM5 6C4.44772 6 4 6.44772 4 7C4 7.55228 4.44772 8 5 8C5.55228 8 6 7.55228 6 7C6 6.44772 5.55228 6 5 6ZM4 10C4 9.44772 4.44772 9 5 9C5.55228 9 6 9.44772 6 10C6 10.5523 5.55228 11 5 11C4.44772 11 4 10.5523 4 10ZM5 12C4.44772 12 4 12.4477 4 13C4 13.5523 4.44772 14 5 14C5.55228 14 6 13.5523 6 13C6 12.4477 5.55228 12 5 12ZM7 7C7 6.44772 7.44772 6 8 6C8.55228 6 9 6.44772 9 7C9 7.55228 8.55228 8 8 8C7.44772 8 7 7.55228 7 7ZM8 9C7.44772 9 7 9.44772 7 10C7 10.5523 7.44772 11 8 11C8.55228 11 9 10.5523 9 10C9 9.44772 8.55228 9 8 9ZM7 13C7 12.4477 7.44772 12 8 12C8.55228 12 9 12.4477 9 13C9 13.5523 8.55228 14 8 14C7.44772 14 7 13.5523 7 13ZM11 6C10.4477 6 10 6.44772 10 7C10 7.55228 10.4477 8 11 8C11.5523 8 12 7.55228 12 7C12 6.44772 11.5523 6 11 6ZM10 10C10 9.44772 10.4477 9 11 9C11.5523 9 12 9.44772 12 10V13C12 13.5523 11.5523 14 11 14C10.4477 14 10 13.5523 10 13V10Z" fill="#2D50E6"/>
</svg>
