<svg width="16" height="16" viewBox="0 0 16 16" fill="none" xmlns="http://www.w3.org/2000/svg">
<path d="M5.5 0C5.22386 0 5 0.223858 5 0.5V3.5C5 3.77614 5.22386 4 5.5 4C5.77614 4 6 3.77614 6 3.5V0.5C6 0.223858 5.77614 0 5.5 0Z" fill="#2D50E6"/>
<path d="M10.5 0C10.2239 0 10 0.223858 10 0.5V3.5C10 3.77614 10.2239 4 10.5 4C10.7761 4 11 3.77614 11 3.5V0.5C11 0.223858 10.7761 0 10.5 0Z" fill="#2D50E6"/>
<path d="M6.5 8C6.5 8.55229 6.05228 9 5.5 9C4.94772 9 4.5 8.55229 4.5 8C4.5 7.44772 4.94772 7 5.5 7C6.05228 7 6.5 7.44772 6.5 8Z" fill="#2D50E6"/>
<path fill-rule="evenodd" clip-rule="evenodd" d="M2 4C2 2.89543 2.89543 2 4 2V3.5C4 4.32843 4.67157 5 5.5 5C6.32843 5 7 4.32843 7 3.5V2H9V3.5C9 4.32843 9.67157 5 10.5 5C11.3284 5 12 4.32843 12 3.5V2C13.1046 2 14 2.89543 14 4V12C14 13.1046 13.1046 14 12 14H4C2.89543 14 2 13.1046 2 12V4ZM3.5 6V12C3.5 12.2761 3.72386 12.5 4 12.5H12C12.2761 12.5 12.5 12.2761 12.5 12V6H3.5Z" fill="#2D50E6"/>
</svg>
