<svg width="16" height="16" viewBox="0 0 16 16" fill="none" xmlns="http://www.w3.org/2000/svg">
<path d="M1 1.5C1 1.22386 1.22386 1 1.5 1H3C3.24061 1 3.44709 1.17137 3.49144 1.40786L3.78996 3H14.5C14.6733 3 14.8342 3.08973 14.9253 3.23713C15.0164 3.38454 15.0247 3.56861 14.9472 3.72361L11.9472 9.72361C11.8625 9.893 11.6894 10 11.5 10H4.5C4.22386 10 4 10.2239 4 10.5C4 10.7761 4.22386 11 4.5 11H12.5C12.7761 11 13 11.2239 13 11.5C13 11.7761 12.7761 12 12.5 12H4.5C3.67157 12 3 11.3284 3 10.5C3 9.87743 3.37928 9.34345 3.91938 9.11651L2.58504 2H1.5C1.22386 2 1 1.77614 1 1.5Z" fill="#2D50E6"/>
<path d="M6 14C6 14.5523 5.55228 15 5 15C4.44772 15 4 14.5523 4 14C4 13.4477 4.44772 13 5 13C5.55228 13 6 13.4477 6 14Z" fill="#2D50E6"/>
<path d="M11 15C11.5523 15 12 14.5523 12 14C12 13.4477 11.5523 13 11 13C10.4477 13 10 13.4477 10 14C10 14.5523 10.4477 15 11 15Z" fill="#2D50E6"/>
</svg>
