<svg width="16" height="16" viewBox="0 0 16 16" fill="none" xmlns="http://www.w3.org/2000/svg">
<path d="M1 4.5C1 4.77614 1.22733 5.00641 1.49494 4.93829C2.20183 4.75833 2.75833 4.20183 2.93829 3.49494C3.00641 3.22733 2.77614 3 2.5 3H2C1.44772 3 1 3.44772 1 4V4.5Z" fill="#2D50E6"/>
<path d="M8 10C9.10457 10 10 9.10457 10 8C10 6.89543 9.10457 6 8 6C6.89543 6 6 6.89543 6 8C6 9.10457 6.89543 10 8 10Z" fill="#2D50E6"/>
<path fill-rule="evenodd" clip-rule="evenodd" d="M1 6.5C1 6.22386 1.22554 6.00437 1.49791 5.95887C2.75585 5.74875 3.74875 4.75585 3.95887 3.49791C4.00437 3.22554 4.22386 3 4.5 3H11.5C11.7761 3 11.9956 3.22554 12.0411 3.49791C12.2513 4.75585 13.2442 5.74875 14.5021 5.95887C14.7745 6.00437 15 6.22386 15 6.5V9.5C15 9.77614 14.7745 9.99563 14.5021 10.0411C13.2442 10.2513 12.2513 11.2442 12.0411 12.5021C11.9956 12.7745 11.7761 13 11.5 13H4.5C4.22386 13 4.00437 12.7745 3.95887 12.5021C3.74875 11.2442 2.75585 10.2513 1.49791 10.0411C1.22554 9.99563 1 9.77614 1 9.5V6.5ZM11 8C11 9.65685 9.65685 11 8 11C6.34315 11 5 9.65685 5 8C5 6.34315 6.34315 5 8 5C9.65685 5 11 6.34315 11 8Z" fill="#2D50E6"/>
<path d="M15 4V4.5C15 4.77614 14.7727 5.00641 14.5051 4.93829C13.7982 4.75833 13.2417 4.20183 13.0617 3.49494C12.9936 3.22733 13.2239 3 13.5 3H14C14.5523 3 15 3.44772 15 4Z" fill="#2D50E6"/>
<path d="M2.5 13C2.77614 13 3.00641 12.7727 2.93829 12.5051C2.75833 11.7982 2.20183 11.2417 1.49494 11.0617C1.22733 10.9936 1 11.2239 1 11.5V12C1 12.5523 1.44772 13 2 13H2.5Z" fill="#2D50E6"/>
<path d="M15 11.5C15 11.2239 14.7727 10.9936 14.5051 11.0617C13.7982 11.2417 13.2417 11.7982 13.0617 12.5051C12.9936 12.7727 13.2239 13 13.5 13H14C14.5523 13 15 12.5523 15 12V11.5Z" fill="#2D50E6"/>
</svg>
