<svg width="16" height="16" viewBox="0 0 16 16" fill="none" xmlns="http://www.w3.org/2000/svg">
<path fill-rule="evenodd" clip-rule="evenodd" d="M2.55285 1.2764C2.63781 1.10699 2.81067 1 3.00012 1L3.01379 1.00009L3.04162 1.00067L3.13781 1.00467C3.21887 1.00909 3.33361 1.01782 3.47424 1.03488C3.75549 1.06894 4.14465 1.13672 4.58459 1.27213C5.14772 1.44534 5.80426 1.73275 6.4224 2.20959C6.92513 2.07293 7.45411 2 8.00012 2C8.54613 2 9.07511 2.07293 9.57784 2.20959C10.196 1.73275 10.8525 1.44534 11.4156 1.27213C11.8556 1.13672 12.2447 1.06894 12.526 1.03488C12.6666 1.01782 12.7814 1.00909 12.8624 1.00467L12.9586 1.00067L12.9864 1.00009L13.0001 1C13.1896 1 13.3624 1.10699 13.4474 1.2764L13.4571 1.29663L13.4772 1.34012C13.4938 1.37668 13.5162 1.42828 13.5426 1.49399C13.5948 1.62531 13.6632 1.81335 13.7311 2.05014C13.8658 2.52316 14.0001 3.19489 14.0001 4C14.0001 4.80511 13.8658 5.47684 13.7311 5.94986C13.7172 5.99837 13.7032 6.04484 13.6894 6.08919C13.8909 6.68938 14.0001 7.33194 14.0001 8C14.0001 8.0367 13.9998 8.07332 13.9991 8.10986L10.3789 9.01493C10.111 9.0819 9.94807 9.35337 10.015 9.62127C10.082 9.88916 10.3535 10.052 10.6214 9.98507L13.8863 9.16883C13.7117 10.0532 13.3428 10.8677 12.8259 11.5661L10.6214 11.0149C10.3535 10.948 10.082 11.1108 10.015 11.3787C9.94807 11.6466 10.111 11.9181 10.3789 11.9851L12.0707 12.408C11.0011 13.3962 9.57113 14 8.00012 14C6.42911 14 4.99911 13.3962 3.92954 12.408L5.62139 11.9851C5.88928 11.9181 6.05216 11.6466 5.98519 11.3787C5.91822 11.1108 5.64675 10.948 5.37885 11.0149L3.17436 11.5661C2.65745 10.8677 2.28851 10.0532 2.1139 9.16883L5.37885 9.98507C5.64675 10.052 5.91822 9.88916 5.98519 9.62127C6.05216 9.35337 5.88928 9.0819 5.62139 9.01493L2.0011 8.10986C2.00045 8.07332 2.00012 8.0367 2.00012 8C2.00012 7.33194 2.1093 6.68938 2.3108 6.08919C2.29699 6.04484 2.28307 5.99837 2.26916 5.94986C2.1344 5.47684 2.00012 4.80511 2.00012 4C2.00012 3.19489 2.1344 2.52316 2.26916 2.05014C2.33703 1.81335 2.40539 1.62531 2.45764 1.49399C2.484 1.42828 2.50647 1.37668 2.52307 1.34012L2.54309 1.29663L2.55285 1.2764ZM10.7195 2.65022C11.6263 3.11206 12.4 3.79764 12.9679 4.63422C12.9881 4.43629 13.0001 4.22421 13.0001 4C13.0001 3.30511 12.8844 2.72684 12.7692 2.32486C12.7364 2.20929 12.7037 2.10864 12.6739 2.02435L12.6461 2.02762C12.5255 2.04227 12.3795 2.06454 12.2155 2.09833C12.0607 2.13019 11.8903 2.17227 11.7096 2.22787C11.3963 2.32428 11.0571 2.45978 10.7195 2.65022ZM5.28069 2.65022C4.37396 3.11206 3.60027 3.79763 3.03236 4.63422C3.01217 4.43629 3.00012 4.22421 3.00012 4C3.00012 3.30511 3.11584 2.72684 3.23108 2.32486C3.26379 2.20929 3.2965 2.10864 3.32629 2.02435L3.35412 2.02762C3.47473 2.04227 3.62072 2.06454 3.78479 2.09833C3.93957 2.13019 4.10998 2.17227 4.29065 2.22787C4.60394 2.32428 4.94316 2.45978 5.28069 2.65022ZM8.00012 10.5C8.5524 10.5 9.00012 9.78968 9.00012 9.37574C9.00012 8.99541 8.62214 8.99762 8.13236 9.00048C8.08909 9.00074 8.04495 9.00099 8.00012 9.00099C7.95529 9.00099 7.91115 9.00074 7.86788 9.00048C7.3781 8.99762 7.00012 8.99541 7.00012 9.37574C7.00012 9.78968 7.44783 10.5 8.00012 10.5ZM6.55464 6.44536C7.01412 6.90484 7.13828 7.52564 6.83196 7.83196C6.52564 8.13828 5.90484 8.01412 5.44536 7.55464C4.98588 7.09516 4.86172 6.47436 5.16804 6.16804C5.47436 5.86172 6.09516 5.98588 6.55464 6.44536ZM9.16804 7.83196C8.86172 7.52564 8.98588 6.90484 9.44536 6.44536C9.90484 5.98588 10.5256 5.86172 10.832 6.16804C11.1383 6.47436 11.0141 7.09516 10.5546 7.55464C10.0952 8.01412 9.47436 8.13828 9.16804 7.83196Z" fill="#2D50E6"/>
<path d="M2.0011 8.10986L1.62139 8.01493C1.35349 7.94795 1.08202 8.11083 1.01505 8.37873C0.948072 8.64663 1.11095 8.9181 1.37885 8.98507L2.1139 9.16883C2.0461 8.82546 2.0076 8.47157 2.0011 8.10986Z" fill="#2D50E6"/>
<path d="M3.17436 11.5661L1.37885 12.0149C1.11095 12.0819 0.948072 12.3534 1.01505 12.6213C1.08202 12.8892 1.35349 13.052 1.62139 12.9851L3.92954 12.408C3.65233 12.1519 3.39933 11.87 3.17436 11.5661Z" fill="#2D50E6"/>
<path d="M12.0707 12.408L14.3789 12.9851C14.6467 13.052 14.9182 12.8892 14.9852 12.6213C15.0522 12.3534 14.8893 12.0819 14.6214 12.0149L12.8259 11.5661C12.6009 11.87 12.3479 12.1519 12.0707 12.408Z" fill="#2D50E6"/>
<path d="M13.8863 9.16883L14.6214 8.98507C14.8893 8.9181 15.0522 8.64663 14.9852 8.37873C14.9182 8.11083 14.6467 7.94795 14.3789 8.01493L13.9991 8.10986C13.9926 8.47157 13.9541 8.82546 13.8863 9.16883Z" fill="#2D50E6"/>
</svg>
