<svg width="16" height="16" viewBox="0 0 16 16" fill="none" xmlns="http://www.w3.org/2000/svg">
<path fill-rule="evenodd" clip-rule="evenodd" d="M7.80611 1.03911C7.95068 0.97827 8.11707 0.988411 8.25436 1.06954L13.7544 4.31954C13.7734 4.33078 13.7915 4.34318 13.8086 4.35661C13.9285 4.45062 14 4.59528 14 4.75V11.25C14 11.4268 13.9066 11.5905 13.7544 11.6805L8.25436 14.9305C8.09746 15.0232 7.90254 15.0232 7.74564 14.9305L2.24564 11.6805C2.0934 11.5905 2 11.4268 2 11.25V4.75C2 4.57317 2.0934 4.40949 2.24564 4.31954L7.74564 1.06954C7.76525 1.05795 7.78545 1.04781 7.80611 1.03911ZM3 5.62622V10.3738L7.01716 8L3 5.62622ZM8.98284 8L13 10.3738V5.62622L8.98284 8ZM8 13.9192L3.48284 11.25L8 8.58077L12.5172 11.25L8 13.9192Z" fill="#2D50E6"/>
</svg>
