<svg width="16" height="16" viewBox="0 0 16 16" fill="none" xmlns="http://www.w3.org/2000/svg">
<path d="M8 1C7.5478 1.00001 7.1061 1.05449 6.68149 1.15729C6.4131 1.22227 6.27314 1.50841 6.36164 1.76998L6.68133 2.71482C6.76961 2.9757 7.05208 3.11237 7.32284 3.06195C7.54109 3.0213 7.76712 3.00001 8 3C8.2329 3 8.45899 3.0213 8.67725 3.06195C8.94801 3.11237 9.23049 2.9757 9.31876 2.71482L9.63845 1.76998C9.72695 1.50841 9.58699 1.22227 9.3186 1.15729C8.89396 1.05448 8.45223 1 8 1Z" fill="#2D50E6"/>
<path d="M4.03164 6.94104C4.06273 6.66601 3.89296 6.39943 3.62224 6.34182L2.64772 6.13443C2.37895 6.07723 2.11246 6.2475 2.07252 6.51937C2.02454 6.84596 2.00009 7.17417 2.00009 7.5C2.00009 7.77614 2.22395 8 2.50009 8H3.50009C3.77623 8 4.00009 7.77614 4.00009 7.5C4.00009 7.31223 4.01077 7.12557 4.03164 6.94104Z" fill="#2D50E6"/>
<path d="M3.5 9C3.77614 9 4 9.22386 4 9.5V10.5C4 10.7761 3.77614 11 3.5 11H2.5C2.22386 11 2 10.7761 2 10.5V9.5C2 9.22386 2.22386 9 2.5 9H3.5Z" fill="#2D50E6"/>
<path d="M3.50009 12C3.77623 12 4.00009 12.2239 4.00009 12.5L4 13.5C4 13.7761 3.77614 14 3.5 14H2.5C2.22386 14 2 13.7761 2 13.5L2.00009 12.5C2.00009 12.2239 2.22395 12 2.50009 12H3.50009Z" fill="#2D50E6"/>
<path d="M5.43615 4.03944C5.63613 3.84997 5.68663 3.53987 5.52416 3.3174L4.93613 2.51219C4.77327 2.28919 4.45892 2.23896 4.25015 2.4197C4.01708 2.62148 3.8009 2.83961 3.60228 3.07123C3.32186 3.40541 3.07574 3.76845 2.86593 4.15145C2.73342 4.39333 2.84489 4.69079 3.09542 4.80612L3.99638 5.22085C4.24737 5.33638 4.54213 5.22468 4.68325 4.98713C4.89245 4.63498 5.14543 4.31489 5.43615 4.03944Z" fill="#2D50E6"/>
<path d="M12.3778 6.34182C12.1071 6.39943 11.9374 6.66601 11.9685 6.94104C11.9893 7.12557 12 7.31223 12 7.5C12 7.77614 12.2239 8 12.5 8H13.5C13.7761 8 14 7.77614 14 7.5C14 7.17417 13.9756 6.84596 13.9276 6.51937C13.8876 6.2475 13.6211 6.07723 13.3524 6.13443L12.3778 6.34182Z" fill="#2D50E6"/>
<path d="M12.0001 9.5C12.0001 9.22386 12.224 9 12.5001 9H13.5001C13.7762 9 14.0001 9.22386 14.0001 9.5V10.5C14.0001 10.7761 13.7762 11 13.5001 11H12.5001C12.224 11 12.0001 10.7761 12.0001 10.5V9.5Z" fill="#2D50E6"/>
<path d="M12 12.5C12 12.2239 12.2239 12 12.5 12H13.5C13.7761 12 14 12.2239 14 12.5L14.0001 13.5C14.0001 13.7761 13.7762 14 13.5001 14H12.5001C12.224 14 12.0001 13.7761 12.0001 13.5L12 12.5Z" fill="#2D50E6"/>
<path d="M10.4759 3.3174C10.3135 3.53987 10.364 3.84997 10.5639 4.03944C10.8547 4.31489 11.1076 4.63498 11.3168 4.98713C11.458 5.22468 11.7527 5.33638 12.0037 5.22085L12.9047 4.80612C13.1552 4.69079 13.2667 4.39333 13.1342 4.15145C12.9243 3.76845 12.6782 3.40541 12.3978 3.07123C12.1992 2.83961 11.983 2.62148 11.7499 2.4197C11.5412 2.23896 11.2268 2.28919 11.064 2.51219L10.4759 3.3174Z" fill="#2D50E6"/>
<path fill-rule="evenodd" clip-rule="evenodd" d="M5 7.5C5 5.567 6.34315 4 8 4C9.65685 4 11 5.567 11 7.5V14H5V7.5ZM9.5 10C9.77614 10 10 9.77614 10 9.5C10 9.22386 9.77614 9 9.5 9C9.22386 9 9 9.22386 9 9.5C9 9.77614 9.22386 10 9.5 10Z" fill="#2D50E6"/>
</svg>
