<svg width="16" height="16" viewBox="0 0 16 16" fill="none" xmlns="http://www.w3.org/2000/svg">
<path d="M13.5157 7.50818C13.7922 7.50818 14.0184 7.28325 13.9974 7.00756C13.7418 3.64711 10.9341 1 7.50818 1C3.91381 1 1 3.91381 1 7.50818C1 10.9341 3.64711 13.7418 7.00756 13.9974C7.28325 14.0184 7.50818 13.7922 7.50818 13.5157V8.00881C7.50818 7.73232 7.73232 7.50818 8.00881 7.50818H13.5157Z" fill="#2D50E6"/>
<path d="M14.9987 9.01006C15.0196 8.73437 14.7935 8.50944 14.517 8.50944H9.01028C8.73379 8.50944 8.50965 8.73415 8.50965 9.01064L8.50947 14.5175C8.50945 14.794 8.73439 15.0196 9.0101 14.9986C12.2053 14.7556 14.7556 12.2053 14.9987 9.01006Z" fill="#2D50E6"/>
</svg>
