<svg width="16" height="16" viewBox="0 0 16 16" fill="none" xmlns="http://www.w3.org/2000/svg">
<g clip-path="url(#clip0)">
<path d="M10.2929 11.2929C9.90237 11.6834 9.90237 12.3166 10.2929 12.7071C10.6834 13.0976 11.3166 13.0976 11.7071 12.7071L15.7071 8.70711C16.0976 8.31658 16.0976 7.68342 15.7071 7.29289L11.7071 3.29289C11.3166 2.90237 10.6834 2.90237 10.2929 3.29289C9.90237 3.68342 9.90237 4.31658 10.2929 4.70711L13.5858 8L10.2929 11.2929Z" fill="#2D50E6"/>
<path d="M5.70711 4.70711C6.09763 4.31658 6.09763 3.68342 5.70711 3.29289C5.31658 2.90237 4.68342 2.90237 4.29289 3.29289L0.292893 7.29289C-0.0976311 7.68342 -0.0976311 8.31658 0.292893 8.70711L4.29289 12.7071C4.68342 13.0976 5.31658 13.0976 5.70711 12.7071C6.09763 12.3166 6.09763 11.6834 5.70711 11.2929L2.41421 8L5.70711 4.70711Z" fill="#2D50E6"/>
</g>
<defs>
<clipPath id="clip0">
<rect width="16" height="16" fill="white"/>
</clipPath>
</defs>
</svg>
