<svg width="16" height="16" viewBox="0 0 16 16" fill="none" xmlns="http://www.w3.org/2000/svg">
<path fill-rule="evenodd" clip-rule="evenodd" d="M8 15C11.866 15 15 11.866 15 8C15 4.13401 11.866 1 8 1C4.13401 1 1 4.13401 1 8C1 11.866 4.13401 15 8 15ZM8 3.5C8 3.22386 7.77614 3 7.5 3C7.22386 3 7 3.22386 7 3.5V8C7 8.11354 7.03864 8.22369 7.10957 8.31235L9.10957 10.8123C9.28207 11.028 9.59672 11.0629 9.81235 10.8904C10.028 10.7179 10.0629 10.4033 9.89043 10.1877L8 7.82461V3.5Z" fill="#2D50E6"/>
</svg>
