<svg width="16" height="16" viewBox="0 0 16 16" fill="none" xmlns="http://www.w3.org/2000/svg">
<path d="M11.5607 5.85356L14.7071 2.70711C15.0976 2.31658 15.0976 1.68342 14.7071 1.29289C14.3166 0.902369 13.6834 0.902369 13.2929 1.29289L10.1464 4.43934L8.85355 3.14645C8.71055 3.00345 8.49549 2.96067 8.30865 3.03806C8.12182 3.11545 7.99999 3.29777 7.99999 3.5V4.39544L7.99998 4.4V7.4L7.99999 7.40459V7.5C7.99999 7.77614 8.22385 8 8.49999 8H12.5C12.7022 8 12.8845 7.87818 12.9619 7.69134C13.0393 7.5045 12.9965 7.28944 12.8535 7.14645L11.5607 5.85356Z" fill="#2D50E6"/>
<path d="M3.49999 8C3.29776 8 3.11545 8.12182 3.03805 8.30866C2.96066 8.49549 3.00344 8.71055 3.14644 8.85355L4.43934 10.1464L1.29289 13.2929C0.902369 13.6834 0.902369 14.3166 1.29289 14.7071C1.68342 15.0976 2.31658 15.0976 2.70711 14.7071L5.85355 11.5607L7.14644 12.8536C7.28944 12.9966 7.5045 13.0393 7.69134 12.9619C7.87817 12.8845 7.99999 12.7022 7.99999 12.5V11.6046L8.00001 11.6V8.6L7.99999 8.59535V8.5C7.99999 8.22386 7.77614 8 7.49999 8H3.49999Z" fill="#2D50E6"/>
</svg>
