<svg width="16" height="16" viewBox="0 0 16 16" fill="none" xmlns="http://www.w3.org/2000/svg">
<path d="M8.5 8C8.5 8.27614 8.27614 8.5 8 8.5C7.72386 8.5 7.5 8.27614 7.5 8C7.5 7.72386 7.72386 7.5 8 7.5C8.27614 7.5 8.5 7.72386 8.5 8Z" fill="#2D50E6"/>
<path fill-rule="evenodd" clip-rule="evenodd" d="M8 15C11.866 15 15 11.866 15 8C15 4.13401 11.866 1 8 1C4.13401 1 1 4.13401 1 8C1 11.866 4.13401 15 8 15ZM11.8536 4.14645C12.0114 4.3043 12.0455 4.54767 11.9371 4.74282L9.50647 9.11794C9.41578 9.28118 9.28119 9.41577 9.11795 9.50646L4.74283 11.9371C4.54769 12.0455 4.30431 12.0114 4.14646 11.8536C3.9886 11.6957 3.95452 11.4523 4.06293 11.2572L6.49356 6.88206C6.58425 6.71882 6.71883 6.58423 6.88207 6.49354L11.2572 4.06292C11.4523 3.95451 11.6957 3.98859 11.8536 4.14645Z" fill="#2D50E6"/>
</svg>
