<svg width="16" height="16" viewBox="0 0 16 16" fill="none" xmlns="http://www.w3.org/2000/svg">
<path fill-rule="evenodd" clip-rule="evenodd" d="M2.99999 2C2.44776 2 2.00007 2.44732 2.00003 2.99955C2.00001 3.29382 2 3.63553 2 4V13C2 13.5523 2.4474 14 2.99969 14C3.29393 14 3.63558 14 4 14H12C12.3644 14 12.7061 14 13.0003 14C13.5526 14 14 13.5523 14 13V4C14 3.63558 14 3.29393 14 2.99969C14 2.4474 13.5523 2 13 2H2.99999ZM3.85355 3.14645C3.65829 2.95118 3.34171 2.95118 3.14645 3.14645C2.95118 3.34171 2.95118 3.65829 3.14645 3.85355L4.79289 5.5L3.14645 7.14645C2.95118 7.34171 2.95118 7.65829 3.14645 7.85355C3.34171 8.04882 3.65829 8.04882 3.85355 7.85355L5.85355 5.85355C6.04882 5.65829 6.04882 5.34171 5.85355 5.14645L3.85355 3.14645Z" fill="#2D50E6"/>
</svg>
