<svg width="16" height="16" viewBox="0 0 16 16" fill="none" xmlns="http://www.w3.org/2000/svg">
<path d="M8 1C6.89543 1 6 1.89543 6 3V3.5C6 3.77614 6.22386 4 6.5 4C6.77614 4 7 3.77614 7 3.5V3C7 2.44772 7.44772 2 8 2H13C13.5523 2 14 2.44772 14 3V8C14 8.55228 13.5523 9 13 9H12.5C12.2239 9 12 9.22386 12 9.5C12 9.77614 12.2239 10 12.5 10H13C14.1046 10 15 9.10457 15 8V3C15 1.89543 14.1046 1 13 1H8Z" fill="#2D50E6"/>
<path d="M1 7C1 5.89543 1.89543 5 3 5H9C10.1046 5 11 5.89543 11 7V13C11 14.1046 10.1046 15 9 15H3C1.89543 15 1 14.1046 1 13V7Z" fill="#2D50E6"/>
</svg>
