<svg width="16" height="16" viewBox="0 0 16 16" fill="none" xmlns="http://www.w3.org/2000/svg">
<path d="M2.55639 6.03257L3.04116 3.44714C3.30721 2.02822 4.54613 1 5.98978 1H10.0102C11.4539 1 12.6928 2.02822 12.9588 3.44713L13.4436 6.03257C13.2989 6.01112 13.1507 6 13 6C11.863 6 10.8753 6.63289 10.3673 7.56085C10.2719 7.73504 10.1684 7.86635 10.0789 7.94311C10.0324 7.98294 10.0047 7.99616 9.99386 8H6.00614C5.99528 7.99616 5.96755 7.98294 5.92111 7.94311C5.83161 7.86635 5.72805 7.73504 5.6327 7.56085C5.12472 6.63289 4.13699 6 3 6C2.84928 6 2.70115 6.01112 2.55639 6.03257Z" fill="#2D50E6"/>
<path d="M13.6449 7.10626C13.4426 7.03737 13.2257 7 13 7C12.2429 7 11.5841 7.42067 11.2445 8.04103C10.9793 8.52548 10.5523 9 10 9H6C5.44772 9 5.02072 8.52548 4.75553 8.04103C4.71308 7.96348 4.66564 7.88906 4.61365 7.81819C4.24969 7.32208 3.66246 7 3 7C2.77435 7 2.55742 7.03737 2.35508 7.10626C1.56694 7.37458 1 8.12108 1 9C1 9.6444 1.30476 10.2176 1.77801 10.5834C1.90903 10.6847 2 10.8344 2 11C2 12.3062 2.83481 13.4175 4 13.8293V14.5C4 14.7761 4.22386 15 4.5 15C4.77614 15 5 14.7761 5 14.5V14H11V14.5C11 14.7761 11.2239 15 11.5 15C11.7761 15 12 14.7761 12 14.5V13.8293C13.1652 13.4175 14 12.3062 14 11C14 10.8344 14.091 10.6847 14.222 10.5834C14.6952 10.2176 15 9.6444 15 9C15 8.12108 14.4331 7.37458 13.6449 7.10626Z" fill="#2D50E6"/>
</svg>
