<svg width="16" height="16" viewBox="0 0 16 16" fill="none" xmlns="http://www.w3.org/2000/svg">
<g clip-path="url(#clip0_4502_99)">
<circle cx="8" cy="8" r="8" fill="#2D50E6"/>
<path d="M1.65303 11.736C2.04903 12 2.81703 12.18 3.45303 12.18C6.09303 12.18 7.43703 10.5 7.43703 7.68C7.43703 5.196 5.98503 4.044 4.36503 4.044C2.73303 4.044 1.43703 5.148 1.43703 6.756C1.43703 8.412 2.72103 9.372 4.12503 9.372C5.04903 9.372 5.73303 8.976 6.02103 8.472C5.94903 9.936 5.07303 10.92 3.44103 10.92C2.92503 10.92 2.34903 10.752 2.04903 10.56L1.65303 11.736ZM5.82903 6.708C5.82903 7.596 5.12103 8.16 4.34103 8.16C3.53703 8.16 2.85303 7.62 2.85303 6.708C2.85303 5.832 3.54903 5.268 4.34103 5.268C5.12103 5.268 5.82903 5.844 5.82903 6.708ZM8.696 11.736C9.092 12 9.86 12.18 10.496 12.18C13.136 12.18 14.48 10.5 14.48 7.68C14.48 5.196 13.028 4.044 11.408 4.044C9.776 4.044 8.48 5.148 8.48 6.756C8.48 8.412 9.764 9.372 11.168 9.372C12.092 9.372 12.776 8.976 13.064 8.472C12.992 9.936 12.116 10.92 10.484 10.92C9.968 10.92 9.392 10.752 9.092 10.56L8.696 11.736ZM12.872 6.708C12.872 7.596 12.164 8.16 11.384 8.16C10.58 8.16 9.896 7.62 9.896 6.708C9.896 5.832 10.592 5.268 11.384 5.268C12.164 5.268 12.872 5.844 12.872 6.708Z" fill="white"/>
</g>
<defs>
<clipPath id="clip0_4502_99">
<rect width="16" height="16" fill="white"/>
</clipPath>
</defs>
</svg>
