<svg width="16" height="16" viewBox="0 0 16 16" fill="none" xmlns="http://www.w3.org/2000/svg">
<path fill-rule="evenodd" clip-rule="evenodd" d="M11.7071 1.29289C11.3166 0.902369 10.6834 0.902369 10.2929 1.29289C9.90237 1.68342 9.90237 2.31658 10.2929 2.70711L10.4393 2.85355L7.56376 5.72913C7.23444 6.05846 6.98631 6.45993 6.83903 6.90177L6.28694 8.55805C6.13966 8.99988 5.89153 9.40136 5.56221 9.73069L2.5 12.7929L1.85355 12.1464C1.65829 11.9512 1.34171 11.9512 1.14645 12.1464C0.951184 12.3417 0.951184 12.6583 1.14645 12.8536L3.14645 14.8536C3.34171 15.0488 3.65829 15.0488 3.85355 14.8536C4.04882 14.6583 4.04882 14.3417 3.85355 14.1464L3.20711 13.5L6.26931 10.4378C6.59864 10.1085 7.00012 9.86034 7.44195 9.71306L9.09823 9.16097C9.54007 9.01369 9.94154 8.76556 10.2709 8.43624L13.1464 5.56066L13.2929 5.70711C13.6834 6.09763 14.3166 6.09763 14.7071 5.70711C15.0976 5.31658 15.0976 4.68342 14.7071 4.29289L11.7071 1.29289ZM12.4393 4.85355L11.1464 3.56066L9.20711 5.5L10.5 6.79289L12.4393 4.85355ZM7.93702 6.77009L8.5 6.20711L9.79289 7.5L9.22991 8.06298L8.04952 8.45645C7.73681 8.56068 7.43932 8.26319 7.54355 7.95048L7.93702 6.77009Z" fill="#2D50E6"/>
</svg>
