<svg width="16" height="16" viewBox="0 0 16 16" fill="none" xmlns="http://www.w3.org/2000/svg">
<path d="M8 6C10.7614 6 13 4.88071 13 3.5C13 2.11929 10.7614 1 8 1C5.23858 1 3 2.11929 3 3.5C3 4.88071 5.23858 6 8 6Z" fill="#2D50E6"/>
<path d="M11.9827 6.16221C10.9118 6.69768 9.50229 7.00002 8 7.00002C6.49771 7.00002 5.08819 6.69768 4.01725 6.16221C3.66323 5.9852 3.30983 5.76187 3 5.4917V6.50002C3 7.88073 5.23858 9.00002 8 9.00002C10.7614 9.00002 13 7.88073 13 6.50002V5.4917C12.6902 5.76187 12.3368 5.9852 11.9827 6.16221Z" fill="#2D50E6"/>
<path d="M8 10C9.50229 10 10.9118 9.69768 11.9827 9.16221C12.3368 8.9852 12.6902 8.76187 13 8.4917V9.50002C13 10.8807 10.7614 12 8 12C5.23858 12 3 10.8807 3 9.50002V8.4917C3.30983 8.76187 3.66323 8.9852 4.01725 9.16221C5.08819 9.69768 6.49771 10 8 10Z" fill="#2D50E6"/>
<path d="M11.9827 12.1622C10.9118 12.6977 9.50229 13 8 13C6.49771 13 5.08819 12.6977 4.01725 12.1622C3.66323 11.9852 3.30983 11.7619 3 11.4917V12.5C3 13.8807 5.23858 15 8 15C10.7614 15 13 13.8807 13 12.5V11.4917C12.6902 11.7619 12.3368 11.9852 11.9827 12.1622Z" fill="#2D50E6"/>
</svg>
