<svg width="16" height="16" viewBox="0 0 16 16" fill="none" xmlns="http://www.w3.org/2000/svg">
<path d="M9 1.4971V3.99999C9 4.55227 9.44772 4.99999 10 4.99999H12.5029C12.9483 4.99999 13.1714 4.46142 12.8564 4.14644L9.85355 1.14354C9.53857 0.82856 9 1.05164 9 1.4971Z" fill="#2D50E6"/>
<path fill-rule="evenodd" clip-rule="evenodd" d="M3 1.99999C3 1.4477 3.44772 0.999989 4 0.999989H7C7.55228 0.999989 8 1.4477 8 1.99999V4.49999C8 5.32842 8.67157 5.99999 9.5 5.99999H12C12.5523 5.99999 13 6.4477 13 6.99999V14C13 14.5523 12.5523 15 12 15H4C3.44772 15 3 14.5523 3 14V1.99999ZM4 7.49999C4 7.22385 4.22386 6.99999 4.5 6.99999H7.5C7.77614 6.99999 8 7.22385 8 7.49999C8 7.77613 7.77614 7.99999 7.5 7.99999H4.5C4.22386 7.99999 4 7.77613 4 7.49999ZM4.5 8.99999C4.22386 8.99999 4 9.22385 4 9.49999C4 9.77613 4.22386 9.99999 4.5 9.99999H11.5C11.7761 9.99999 12 9.77613 12 9.49999C12 9.22385 11.7761 8.99999 11.5 8.99999H4.5ZM4 11.5C4 11.2238 4.22386 11 4.5 11H11.5C11.7761 11 12 11.2238 12 11.5C12 11.7761 11.7761 12 11.5 12H4.5C4.22386 12 4 11.7761 4 11.5Z" fill="#2D50E6"/>
</svg>
