<svg width="16" height="16" viewBox="0 0 16 16" fill="none" xmlns="http://www.w3.org/2000/svg">
<path fill-rule="evenodd" clip-rule="evenodd" d="M5 1C4.44772 1 4 1.44772 4 2V15H12V2C12 1.44772 11.5523 1 11 1H5ZM10.5 9C10.7761 9 11 8.77614 11 8.5C11 8.22386 10.7761 8 10.5 8C10.2239 8 10 8.22386 10 8.5C10 8.77614 10.2239 9 10.5 9Z" fill="#2D50E6"/>
<path d="M13.2764 3.55279C13.5234 3.42929 13.8237 3.5294 13.9472 3.77639L14.9472 5.77639C15.0176 5.91716 15.0176 6.08284 14.9472 6.22361L14.059 8L14.9472 9.77639C15.0176 9.91716 15.0176 10.0828 14.9472 10.2236L13.9472 12.2236C13.8237 12.4706 13.5234 12.5707 13.2764 12.4472C13.0294 12.3237 12.9293 12.0234 13.0528 11.7764L13.941 10L13.0528 8.22361C12.9824 8.08284 12.9824 7.91716 13.0528 7.77639L13.941 6L13.0528 4.22361C12.9293 3.97662 13.0294 3.67628 13.2764 3.55279Z" fill="#2D50E6"/>
<path d="M2.05279 3.77639C2.17628 3.5294 2.47662 3.42929 2.72361 3.55279C2.9706 3.67628 3.07071 3.97662 2.94721 4.22361L2.05902 6L2.94721 7.77639C3.0176 7.91716 3.0176 8.08284 2.94721 8.22361L2.05902 10L2.94721 11.7764C3.07071 12.0234 2.9706 12.3237 2.72361 12.4472C2.47662 12.5707 2.17628 12.4706 2.05279 12.2236L1.05279 10.2236C0.982405 10.0828 0.982405 9.91716 1.05279 9.77639L1.94098 8L1.05279 6.22361C0.982405 6.08284 0.982405 5.91716 1.05279 5.77639L2.05279 3.77639Z" fill="#2D50E6"/>
</svg>
