<svg width="16" height="16" viewBox="0 0 16 16" fill="none" xmlns="http://www.w3.org/2000/svg">
<path d="M9.5 2.5C9.5 3.32843 8.82843 4 8 4C7.17157 4 6.5 3.32843 6.5 2.5C6.5 1.67157 7.17157 1 8 1C8.82843 1 9.5 1.67157 9.5 2.5Z" fill="#2D50E6"/>
<path d="M9.5 13.5C9.5 14.3284 8.82843 15 8 15C7.17157 15 6.5 14.3284 6.5 13.5C6.5 12.6716 7.17157 12 8 12C8.82843 12 9.5 12.6716 9.5 13.5Z" fill="#2D50E6"/>
<path d="M8 9.5C8.82843 9.5 9.5 8.82843 9.5 8C9.5 7.17157 8.82843 6.5 8 6.5C7.17157 6.5 6.5 7.17157 6.5 8C6.5 8.82843 7.17157 9.5 8 9.5Z" fill="#2D50E6"/>
</svg>
