<svg width="16" height="16" viewBox="0 0 16 16" fill="none" xmlns="http://www.w3.org/2000/svg">
<path fill-rule="evenodd" clip-rule="evenodd" d="M15 8C15 11.866 11.866 15 8 15C4.13401 15 1 11.866 1 8C1 4.13401 4.13401 1 8 1C11.866 1 15 4.13401 15 8ZM5.77253 4.98753C5.42351 4.85462 5.08043 4.81818 4.81831 4.81818H4.18195C4.13702 4.81818 4.09318 4.81353 4.05088 4.80467C3.6348 4.71756 3.72804 4.1619 4.03473 3.86753C5.06382 2.87979 6.46108 2.27273 8.00013 2.27273C10.8437 2.27273 13.2033 4.34506 13.6509 7.06185C13.7355 7.57518 13.1478 8.11356 12.9152 7.64823L12.5634 6.94468C12.4968 6.81144 12.3606 6.72727 12.2116 6.72727C11.9944 6.72727 11.8183 6.90336 11.8183 7.12057V7.60671C11.8183 7.82392 11.6422 8 11.425 8C11.276 8 11.1399 7.91583 11.0732 7.78259L10.7215 7.07905C10.6137 6.86346 10.3933 6.72727 10.1523 6.72727H9.66615C9.42511 6.72727 9.20477 6.86346 9.09697 7.07905L8.81238 7.64823C8.71382 7.84535 8.52117 7.97608 8.30464 7.99704C8.0811 7.99148 7.86176 7.97553 7.67944 7.92995C7.42599 7.86659 7.369 7.53699 7.34745 7.27663C7.30117 6.71759 7.15705 6.26245 6.93313 5.90098C6.65539 5.45267 6.26801 5.16994 5.84355 5.01259C5.81998 5.00385 5.7963 4.9955 5.77253 4.98753ZM4.5175 5.90061C4.3104 5.7236 4.03154 5.61139 3.78921 5.73589C3.70389 5.77972 3.62085 5.82849 3.5405 5.88205L3.36763 5.9973C2.68829 6.45019 2.27836 7.21051 2.27273 8.02623C2.27287 8.05867 2.27329 8.09105 2.27397 8.12337C2.29817 8.86731 2.65848 9.56208 3.25624 10.0104L4.09513 10.6396C4.56282 10.9903 4.89552 11.4914 5.03731 12.0586L5.25148 12.597C5.3279 12.9028 5.53133 13.15 5.79699 13.2883C5.86546 13.3168 5.93461 13.3441 6.0044 13.37C6.09622 13.3956 6.19259 13.4091 6.29152 13.4091C6.8836 13.4091 7.36358 13.2473 7.36358 12.6552V11.2569C7.36358 11.0159 7.49976 10.7955 7.71535 10.6877L8.06712 10.5119C8.41596 10.3374 8.6363 9.98092 8.6363 9.59091C8.6363 9.33654 8.54257 9.09641 8.38059 8.91176C8.26938 8.78498 8.12353 8.6931 7.9596 8.65348C7.81303 8.61805 7.63598 8.57504 7.5251 8.54732C7.34162 8.50145 7.14574 8.42486 6.99169 8.28622C6.82626 8.13733 6.72727 7.9325 6.72727 7.68182C6.72727 7.27318 6.67521 6.94045 6.58884 6.6704C6.50257 6.40068 6.20462 6.2972 5.92234 6.31966C5.46881 6.35573 4.94755 6.26816 4.5175 5.90061Z" fill="#2D50E6"/>
</svg>
