<svg width="16" height="16" viewBox="0 0 16 16" fill="none" xmlns="http://www.w3.org/2000/svg">
<path fill-rule="evenodd" clip-rule="evenodd" d="M5.29381 13.3671C4.86048 13.7336 4.36035 14.0146 3.81924 14.1934C3.26501 14.3767 2.5738 14.6048 1.99929 14.7934L1.92395 14.8181C1.91453 14.8212 1.90514 14.8242 1.89579 14.8273L1.83172 14.8483C1.68111 14.8977 1.54119 14.9434 1.4172 14.9838C1.16983 15.0643 0.935606 14.8301 1.01616 14.5827C1.05654 14.4587 1.10228 14.3188 1.15163 14.1682L1.20658 14.0006C1.39513 13.4261 1.62324 12.735 1.80643 12.1808C1.80643 12.1808 1.80643 12.1808 1.80643 12.1808C1.82002 12.1397 1.8342 12.0988 1.84895 12.0582C2.07032 11.4489 2.42257 10.8954 2.88131 10.4358L11.7411 1.55913C12.4867 0.813623 13.6954 0.813623 14.4409 1.55913C15.1864 2.30464 15.1864 3.51334 14.4409 4.25885L5.56414 13.1186C5.4773 13.2053 5.3871 13.2882 5.29381 13.3671ZM10.8588 3.85872L12.1413 5.1412L13.7338 3.55174C14.0883 3.19673 14.0886 2.62108 13.7338 2.26624C13.3788 1.9113 12.8034 1.91125 12.4484 2.26609L10.8588 3.85872Z" fill="#2D50E6"/>
</svg>
