<svg width="16" height="16" viewBox="0 0 16 16" fill="none" xmlns="http://www.w3.org/2000/svg">
<path d="M8.20953 1.04602C8.07658 0.98466 7.92342 0.98466 7.79047 1.04602L1.29047 4.04602C1.1134 4.12775 1 4.30497 1 4.5C1 4.69503 1.1134 4.87225 1.29047 4.95398L7.79047 7.95398C7.92342 8.01534 8.07658 8.01534 8.20953 7.95398L14.7095 4.95398C14.8866 4.87225 15 4.69503 15 4.5C15 4.30497 14.8866 4.12775 14.7095 4.04602L8.20953 1.04602Z" fill="#2D50E6"/>
<path d="M1.23052 6.32883C1.37415 6.23694 1.55471 6.22457 1.70953 6.29602L7.37141 8.9092C7.77025 9.09328 8.22974 9.09328 8.62859 8.9092L14.2905 6.29602C14.4453 6.22457 14.6258 6.23694 14.7695 6.32883C14.9131 6.42073 15 6.57949 15 6.75V12C15 12.5523 14.5584 13 14.0061 13C11.4604 13 4.71508 13 1.99687 13C1.44459 13 1 12.5523 1 12V6.75C1 6.57949 1.08689 6.42073 1.23052 6.32883Z" fill="#2D50E6"/>
</svg>
