<svg width="16" height="16" viewBox="0 0 16 16" fill="none" xmlns="http://www.w3.org/2000/svg">
<g clip-path="url(#clip0_163_35)">
<path fill-rule="evenodd" clip-rule="evenodd" d="M13 1C13 1.30562 12.8629 1.57921 12.6469 1.76264L13.4919 8.41056C13.7636 8.36116 14.0239 8.54136 14.0733 8.81305L14.6739 12.1164C15.4469 12.393 16 13.1319 16 14C16 15.1046 15.1046 16 14 16C12.8954 16 12 15.1046 12 14C12 13.3888 12.2742 12.8416 12.7063 12.4747L12.6367 12.0919L12.6362 12.0891C12.5728 11.7512 12.1935 11.5802 11.9429 11.8163C11.3624 12.3634 11 13.1394 11 14C11 14.8284 10.3284 15.5 9.5 15.5H3.32291C2.97035 15.8112 2.50722 16 2 16C0.895431 16 0 15.1046 0 14C0 12.8954 0.895431 12 2 12C2.93192 12 3.71497 12.6374 3.93699 13.5H10.0309C10.1881 12.2395 10.9318 11.1612 11.9802 10.5467C12.176 10.4319 12.2936 10.2127 12.2544 9.98947L12.2539 9.98657L12.1056 9.17082C12.0747 9.00101 12.1335 8.83566 12.2483 8.72346C12.3172 8.65615 12.4062 8.60797 12.5081 8.58944L11.663 1.94181C11.2765 1.80351 11 1.43405 11 1C11 0.447715 11.4477 0 12 0C12.5523 0 13 0.447715 13 1ZM2 15C2.55228 15 3 14.5523 3 14C3 13.4477 2.55228 13 2 13C1.44772 13 1 13.4477 1 14C1 14.5523 1.44772 15 2 15ZM14 15C14.5523 15 15 14.5523 15 14C15 13.4477 14.5523 13 14 13C13.4477 13 13 13.4477 13 14C13 14.5523 13.4477 15 14 15Z" fill="#2D50E6"/>
</g>
<defs>
<clipPath id="clip0_163_35">
<rect width="16" height="16" fill="white"/>
</clipPath>
</defs>
</svg>
