<svg width="16" height="16" viewBox="0 0 16 16" fill="none" xmlns="http://www.w3.org/2000/svg">
<path d="M7.80891 2.10684C7.6584 1.98859 7.45359 1.96663 7.28143 2.05031C7.10928 2.13398 7 2.30859 7 2.5V5.01643C5.83431 5.09438 4.87142 5.44571 4.08535 5.98651C3.19397 6.59977 2.5565 7.43813 2.10345 8.33757C1.20331 10.1246 1 12.2139 1 13.5C1 13.7452 1.17785 13.9543 1.41991 13.9935C1.66197 14.0328 1.89679 13.8908 1.97434 13.6581C2.21653 12.9315 3.5483 11.1678 7 11.0112V13.5C7 13.6914 7.10928 13.866 7.28143 13.9497C7.45359 14.0334 7.6584 14.0114 7.80891 13.8932L14.8089 8.39316C14.9296 8.29837 15 8.15343 15 8C15 7.84657 14.9296 7.70164 14.8089 7.60684L7.80891 2.10684Z" fill="#2D50E6"/>
</svg>
