<svg width="16" height="16" viewBox="0 0 16 16" fill="none" xmlns="http://www.w3.org/2000/svg">
<path fill-rule="evenodd" clip-rule="evenodd" d="M15 1.70711C15.1952 1.51184 15.1952 1.19526 15 1C14.8047 0.804738 14.4881 0.804738 14.2929 1L10.9806 4.31221C10.6646 4.14674 10.3376 3.99912 10.002 3.87661C9.40068 3.65707 8.77172 3.51816 8.12873 3.50166C8.08586 3.50056 8.04294 3.5 7.99996 3.5C7.99996 3.5 7.99995 3.5 7.99996 3.5C7.62525 3.5 7.25496 3.54228 6.89178 3.61863C4.34952 4.15311 2.1549 6.35749 1.2205 7.42094C0.925829 7.75632 0.925829 8.24369 1.2205 8.57906C1.66488 9.08481 2.39428 9.8486 3.31055 10.5681C3.5699 10.7718 3.84422 10.9719 4.13129 11.1616L0.999962 14.2929C0.8047 14.4882 0.8047 14.8047 0.999962 15C1.19522 15.1953 1.51181 15.1953 1.70707 15L15 1.70711ZM5.91418 9.37868L9.37867 5.91419C9.07661 5.71414 8.72858 5.57794 8.35381 5.52485C8.23822 5.50847 8.12008 5.5 7.99997 5.5C7.73208 5.5 7.47403 5.54214 7.23209 5.62014C6.22707 5.94418 5.49999 6.88718 5.49999 8C5.49999 8.50954 5.65242 8.98347 5.91418 9.37868Z" fill="#2D50E6"/>
<path d="M7.64614 10.4752C7.76173 10.4915 7.87986 10.5 7.99997 10.5C9.38068 10.5 10.5 9.38071 10.5 8C10.5 7.87989 10.4915 7.76176 10.4751 7.64617L12.6894 5.43191C13.6056 6.15141 14.335 6.91519 14.7794 7.42094C15.0741 7.75631 15.0741 8.24369 14.7794 8.57907C13.7115 9.79444 10.9976 12.5 7.99994 12.5C7.31217 12.5 6.63934 12.3576 5.99789 12.1234L7.64614 10.4752Z" fill="#2D50E6"/>
</svg>
