<svg width="16" height="16" viewBox="0 0 16 16" fill="none" xmlns="http://www.w3.org/2000/svg">
<path fill-rule="evenodd" clip-rule="evenodd" d="M14.8536 1.85355C15.0488 1.65829 15.0488 1.34171 14.8536 1.14645C14.6583 0.951184 14.3417 0.951184 14.1464 1.14645L10.6844 4.60845C9.85302 4.25161 8.93895 4 8 4C6.4925 4 5.10067 4.59841 3.98551 5.26751C2.87138 5.93598 1.94409 6.73083 1.36241 7.22943L1.34921 7.24074C1.11891 7.43814 0.990656 7.7294 1.00053 8.03256C1.01041 8.33572 1.15735 8.61801 1.4 8.8C1.5496 8.9122 1.7226 9.04794 1.91476 9.19872C2.48955 9.64973 3.23583 10.2353 4.04035 10.7279C4.14779 10.7936 4.25775 10.8588 4.37013 10.9228L1.14645 14.1464C0.951184 14.3417 0.951184 14.6583 1.14645 14.8536C1.34171 15.0488 1.65829 15.0488 1.85355 14.8536L5.31035 11.3968C5.31038 11.3968 5.31033 11.3967 5.31035 11.3968L6.2618 10.4454C6.26178 10.4454 6.26182 10.4454 6.2618 10.4454L7.74098 8.96613C7.74101 8.96614 7.74095 8.96612 7.74098 8.96613L8.96613 7.74109C8.96612 7.74106 8.96614 7.74112 8.96613 7.74109L10.4454 6.26173C10.4454 6.26175 10.4454 6.26171 10.4454 6.26173L11.6327 5.07448C11.6327 5.07447 11.6328 5.07449 11.6327 5.07448L14.8536 1.85355ZM9.73827 5.55463C9.24786 5.2054 8.64792 5 8 5C6.34315 5 5 6.34315 5 8C5 8.64792 5.2054 9.24786 5.55463 9.73827C7.07128 8.22161 8.23397 7.05892 9.73827 5.55463Z" fill="#2D50E6"/>
<path d="M7.22303 10.8984L6.35241 11.769C6.87491 11.9132 7.42593 12 8 12C9.51346 12 10.8667 11.397 11.9597 10.7279C12.7642 10.2353 13.5104 9.64974 14.0852 9.19873C14.2774 9.04795 14.4504 8.9122 14.6 8.8C14.8427 8.61801 14.9896 8.33572 14.9995 8.03256C15.0093 7.7294 14.8811 7.43814 14.6508 7.24074C14.1563 6.81687 13.4075 6.19214 12.5144 5.60707L10.8984 7.22303C10.9647 7.47084 11 7.73129 11 8C11 9.65685 9.65685 11 8 11C7.73129 11 7.47084 10.9647 7.22303 10.8984Z" fill="#2D50E6"/>
</svg>
