<svg width="16" height="16" viewBox="0 0 16 16" fill="none" xmlns="http://www.w3.org/2000/svg">
<path d="M14.8536 1.85355C15.0488 1.65829 15.0488 1.34171 14.8536 1.14645C14.6583 0.951184 14.3417 0.951184 14.1464 1.14645L10.0935 5.19944C7.34315 3.23591 8.6256 1 8.6256 1C5.63982 2.6881 4.76969 5.38236 5.50103 8.63875C4.56366 8.00219 4.21732 7.41999 4.2512 6.0925C2.98303 7.42373 2.99536 9.0402 3.0008 9.75347C3.0011 9.79218 3.00137 9.82828 3.00142 9.86148L3.00147 9.90755C3.00147 10.3876 3.16689 11.2575 3.40242 11.8905L1.14645 14.1464C0.951184 14.3417 0.951184 14.6583 1.14645 14.8536C1.34171 15.0488 1.65829 15.0488 1.85355 14.8536L14.8536 1.85355Z" fill="#2D50E6"/>
<path d="M4.53948 13.5821L11.6713 6.45022C12.496 7.35828 13 8.57296 13 9.90755C13 12.72 10.7618 15 8.00073 15C6.65736 15 5.43775 14.4603 4.53948 13.5821Z" fill="#2D50E6"/>
</svg>
