<svg width="16" height="16" viewBox="0 0 16 16" fill="none" xmlns="http://www.w3.org/2000/svg">
<path fill-rule="evenodd" clip-rule="evenodd" d="M7.74564 1.06954C7.90254 0.976821 8.09746 0.976821 8.25436 1.06954L13.7544 4.31954C13.9066 4.40949 14 4.57317 14 4.75V11.25C14 11.4268 13.9066 11.5905 13.7544 11.6805L8.25436 14.9305C8.09746 15.0232 7.90254 15.0232 7.74564 14.9305L2.24564 11.6805C2.0934 11.5905 2 11.4268 2 11.25V4.75C2 4.57317 2.0934 4.40949 2.24564 4.31954L7.74564 1.06954ZM3 5.03532V10.3738L7.5 7.71468V2.37622L3 5.03532ZM13 5.03532V10.3738L8.5 7.71468V2.37622L13 5.03532Z" fill="#2D50E6"/>
</svg>
