<svg width="16" height="16" viewBox="0 0 16 16" fill="none" xmlns="http://www.w3.org/2000/svg">
<path d="M1.21124 6.09237L7.41564 1.18155C7.76238 0.93505 8.22712 0.934914 8.574 1.18121L14.7863 6.0922C15.1835 6.37423 14.984 6.99989 14.4969 6.99989H14C13.4477 6.99989 13 7.4476 13 7.99989V10.7878C12.5525 10.3812 11.9059 9.99989 11 9.99989C10.3877 9.99989 9.89394 10.174 9.5 10.4125V8.99988C9.5 8.4476 9.05228 7.99988 8.5 7.99988L7.5 7.99989C6.94772 7.99989 6.5 8.4476 6.5 8.99989V10.4125C6.10606 10.174 5.61227 9.99989 5 9.99989C4.09405 9.99989 3.4475 10.3812 3 10.7878V7.99989C3 7.4476 2.55228 6.99989 2 6.99989H1.50095C1.01396 6.99989 0.814328 6.37454 1.21124 6.09237Z" fill="#2D50E6"/>
<path d="M2.49506 13.9386C3.18156 13.76 3.57923 13.2286 3.87022 12.8397L3.9 12.7999C4.29413 12.2744 4.53046 11.9999 5 11.9999C5.46954 11.9999 5.70587 12.2744 6.1 12.7999L6.12978 12.8397C6.48457 13.3138 6.99793 13.9999 8 13.9999C9.00207 13.9999 9.51543 13.3138 9.87022 12.8397L9.9 12.7999C10.2941 12.2744 10.5305 11.9999 11 11.9999C11.4695 11.9999 11.7059 12.2744 12.1 12.7999L12.1298 12.8397C12.4208 13.2286 12.8184 13.76 13.5049 13.9386C13.7722 14.0081 14 13.776 14 13.4999C14 13.2237 13.7586 13.0162 13.5242 12.8701C13.3166 12.7407 13.1368 12.5156 12.9 12.1999L12.8702 12.1601C12.5154 11.686 12.0021 10.9999 11 10.9999C9.99793 10.9999 9.48457 11.686 9.12978 12.1601L9.1 12.1999C8.70587 12.7254 8.46954 12.9999 8 12.9999C7.53046 12.9999 7.29413 12.7254 6.9 12.1999L6.87022 12.1601C6.51543 11.686 6.00207 10.9999 5 10.9999C3.99793 10.9999 3.48457 11.686 3.12978 12.1601L3.1 12.1999C2.86322 12.5156 2.6834 12.7407 2.47575 12.8701C2.2414 13.0162 2 13.2237 2 13.4999C2 13.776 2.22781 14.0081 2.49506 13.9386Z" fill="#2D50E6"/>
</svg>
