<svg width="16" height="16" viewBox="0 0 16 16" fill="none" xmlns="http://www.w3.org/2000/svg">
<path d="M7.41564 1.18497L1.21124 6.09579C0.814328 6.37796 1.01396 7.0033 1.50095 7.0033H2C2.55228 7.0033 3 7.45102 3 8.0033V14.0033H4V8.00331C4 6.89874 4.89511 6.0033 5.99968 6.0033C7.29704 6.00331 8.70296 6.0033 10.0003 6.0033C11.1049 6.0033 12 6.89872 12 8.00329C12 10.1977 12 13.4801 12 14.0033H13V8.0033C13 7.45102 13.4477 7.0033 14 7.0033H14.4969C14.984 7.0033 15.1835 6.37765 14.7863 6.09562L8.574 1.18463C8.22712 0.938332 7.76238 0.938468 7.41564 1.18497Z" fill="#2D50E6"/>
<path fill-rule="evenodd" clip-rule="evenodd" d="M5 8C5 7.44771 5.44772 7 6 7H10C10.5523 7 11 7.44771 11 8V14H5V8ZM6 8.5C6 8.22386 6.22386 8 6.5 8H9.5C9.77614 8 10 8.22386 10 8.5C10 8.77614 9.77614 9 9.5 9H6.5C6.22386 9 6 8.77614 6 8.5ZM6.5 10C6.22386 10 6 10.2239 6 10.5C6 10.7761 6.22386 11 6.5 11H9.5C9.77614 11 10 10.7761 10 10.5C10 10.2239 9.77614 10 9.5 10H6.5ZM6.5 12C6.22386 12 6 12.2239 6 12.5C6 12.7761 6.22386 13 6.5 13H9.5C9.77614 13 10 12.7761 10 12.5C10 12.2239 9.77614 12 9.5 12H6.5Z" fill="#2D50E6"/>
</svg>
