<svg width="16" height="16" viewBox="0 0 16 16" fill="none" xmlns="http://www.w3.org/2000/svg">
<path d="M11 4C12.1046 4 13 3.10457 13 2C13 0.89543 12.1046 0 11 0C9.89543 0 9 0.89543 9 2V3.50002C9 3.77616 9.2235 4 9.49964 4H11Z" fill="#2D50E6"/>
<path d="M1 6C1 5.44772 1.44772 5 2 5H6.5C6.77614 5 7 5.22386 7 5.5V13.5C7 13.7761 6.77614 14 6.5 14H3C2.44772 14 2 13.5523 2 13L2 7C1.44772 7 1 6.55228 1 6Z" fill="#2D50E6"/>
<path d="M9 13.5C9 13.7761 9.22386 14 9.5 14H13C13.5523 14 14 13.5523 14 13V7C14.5523 7 15 6.55228 15 6C15 5.44772 14.5523 5 14 5H9.5C9.22386 5 9 5.22386 9 5.5V13.5Z" fill="#2D50E6"/>
<path d="M3 2C3 3.10457 3.89543 4 5 4H6.50036C6.7765 4 7 3.77616 7 3.50002V2C7 0.89543 6.10457 0 5 0C3.89543 0 3 0.89543 3 2Z" fill="#2D50E6"/>
</svg>
