<svg width="16" height="16" viewBox="0 0 16 16" fill="none" xmlns="http://www.w3.org/2000/svg">
<path fill-rule="evenodd" clip-rule="evenodd" d="M8 15C11.866 15 15 11.866 15 8C15 4.13401 11.866 1 8 1C4.13401 1 1 4.13401 1 8C1 11.866 4.13401 15 8 15ZM6 8C6.55228 8 7 7.32843 7 6.5C7 5.67157 6.55228 5 6 5C5.44772 5 5 5.67157 5 6.5C5 7.32843 5.44772 8 6 8ZM11 6.5C11 7.32843 10.5523 8 10 8C9.44771 8 9 7.32843 9 6.5C9 5.67157 9.44771 5 10 5C10.5523 5 11 5.67157 11 6.5ZM5.26147 10.2038C6.0987 10.7175 7.0262 11 8 11C8.9738 11 9.9013 10.7175 10.7385 10.2038C10.9739 10.0594 11.2818 10.1332 11.4262 10.3685C11.5706 10.6039 11.4968 10.9118 11.2615 11.0562C10.2802 11.6582 9.1734 12 8 12C6.8266 12 5.71981 11.6582 4.73853 11.0562C4.50315 10.9118 4.42941 10.6039 4.57382 10.3685C4.71823 10.1332 5.0261 10.0594 5.26147 10.2038Z" fill="#2D50E6"/>
</svg>
