<svg width="16" height="16" viewBox="0 0 16 16" fill="none" xmlns="http://www.w3.org/2000/svg">
<path fill-rule="evenodd" clip-rule="evenodd" d="M14 3C14 4.30622 13.1652 5.41746 12 5.82929V11.5C12 13.9853 9.98528 16 7.5 16C5.01472 16 3 13.9853 3 11.5V5L7 11H5V11.5C5 12.8807 6.11929 14 7.5 14C8.88071 14 10 12.8807 10 11.5V5.82929C8.83481 5.41746 8 4.30622 8 3C8 1.34315 9.34315 0 11 0C12.6569 0 14 1.34315 14 3ZM11 4C11.5523 4 12 3.55228 12 3C12 2.44772 11.5523 2 11 2C10.4477 2 10 2.44772 10 3C10 3.55228 10.4477 4 11 4Z" fill="#2D50E6"/>
</svg>
