<svg width="16" height="16" viewBox="0 0 16 16" fill="none" xmlns="http://www.w3.org/2000/svg">
<path d="M2 2.5C2 2.22386 1.77614 2 1.5 2C1.22386 2 1 2.22386 1 2.5V8.35907C1 8.77592 1.13025 9.18234 1.37253 9.52155L2.62808 11.2793C2.24782 11.5514 2 11.9968 2 12.5C2 13.3284 2.67157 14 3.5 14C4.32843 14 5 13.3284 5 12.5C5 12.1528 4.88207 11.8332 4.68408 11.579L5.66703 10.8145C7.03925 9.74725 8.96122 9.74762 10.3334 10.8149C10.7647 11.1503 11.1359 11.439 11.3159 11.579C11.1179 11.8332 11 12.1528 11 12.5C11 13.3284 11.6716 14 12.5 14C13.3284 14 14 13.3284 14 12.5C14 11.9968 13.7522 11.5514 13.3719 11.2793L14.6275 9.52155C14.8698 9.18234 15 8.77592 15 8.35907V4.5C15 4.22386 14.7761 4 14.5 4C14.2239 4 14 4.22386 14 4.5V6.00001H6.93676C6.49159 6.00001 6.06942 5.80228 5.78443 5.46029L3.88412 3.17992C3.70734 2.96778 3.39206 2.93912 3.17992 3.1159C2.96778 3.29268 2.93912 3.60797 3.1159 3.8201L5.01621 6.10047C5.48951 6.66844 6.18983 6.99767 6.92888 7H2.5C2.22386 7 2 6.77614 2 6.5V2.5Z" fill="#2D50E6"/>
</svg>
