<svg width="16" height="16" viewBox="0 0 16 16" fill="none" xmlns="http://www.w3.org/2000/svg">
<path fill-rule="evenodd" clip-rule="evenodd" d="M3 1.5C3 1.22386 3.22386 1 3.5 1H12.5C12.7761 1 13 1.22386 13 1.5C13 1.77614 12.7761 2 12.5 2C12.2239 2 12 2.22386 12 2.5V5C12 6.19469 11.4762 7.26706 10.6458 8C11.4762 8.73295 12 9.80531 12 11V13.5C12 13.7761 12.2239 14 12.5 14C12.7761 14 13 14.2239 13 14.5C13 14.7761 12.7761 15 12.5 15H3.5C3.22386 15 3 14.7761 3 14.5C3 14.2239 3.22386 14 3.5 14C3.77614 14 4 13.7761 4 13.5V11C4 9.80531 4.52376 8.73295 5.35418 8C4.52376 7.26706 4 6.19469 4 5V2.5C4 2.22386 3.77614 2 3.5 2C3.22386 2 3 1.77614 3 1.5ZM10.8293 6C10.9398 5.68722 11 5.35064 11 5C11 3.34315 9.65685 2 8 2C6.34315 2 5 3.34315 5 5C5 5.35064 5.06015 5.68722 5.17071 6C5.17071 6 6.5 6 7 6C7.5 6 8 6.5 8 6.5C8 6.5 8.5 6 9 6C9.5 6 10.8293 6 10.8293 6ZM10.8293 10C10.4175 8.83481 9.30622 8 8 8C6.69378 8 5.58254 8.83481 5.17071 10C5.17071 10 6.5 10 7 10C7.5 10 8 9.5 8 9.5C8 9.5 8.5 10 9 10C9.5 10 10.8293 10 10.8293 10Z" fill="#2D50E6"/>
</svg>
