<svg width="16" height="16" viewBox="0 0 16 16" fill="none" xmlns="http://www.w3.org/2000/svg">
<path fill-rule="evenodd" clip-rule="evenodd" d="M3 3C1.89543 3 1 3.89543 1 5V11C1 12.1046 1.89543 13 3 13H13C14.1046 13 15 12.1046 15 11V5C15 3.89543 14.1046 3 13 3H3ZM3 4C2.44772 4 2 4.44772 2 5V11C2 11.5523 2.44772 12 3 12H7C7.55228 12 8 11.5523 8 11V5C8 4.44772 7.55228 4 7 4H3ZM9 4.5C9 4.22386 9.22386 4 9.5 4H12.5C12.7761 4 13 4.22386 13 4.5C13 4.77614 12.7761 5 12.5 5H9.5C9.22386 5 9 4.77614 9 4.5ZM9.5 6C9.22386 6 9 6.22386 9 6.5C9 6.77614 9.22386 7 9.5 7H13.5C13.7761 7 14 6.77614 14 6.5C14 6.22386 13.7761 6 13.5 6H9.5ZM9 8.5C9 8.22386 9.22386 8 9.5 8H13.5C13.7761 8 14 8.22386 14 8.5C14 8.77614 13.7761 9 13.5 9H9.5C9.22386 9 9 8.77614 9 8.5ZM9.5 10C9.22386 10 9 10.2239 9 10.5C9 10.7761 9.22386 11 9.5 11H11.5C11.7761 11 12 10.7761 12 10.5C12 10.2239 11.7761 10 11.5 10H9.5Z" fill="#2D50E6"/>
</svg>
