<svg width="16" height="16" viewBox="0 0 16 16" fill="none" xmlns="http://www.w3.org/2000/svg">
<path fill-rule="evenodd" clip-rule="evenodd" d="M3.00004 3C1.89547 3 1.00003 3.89542 1.00003 4.99999L1 11C0.999995 12.1046 1.89542 13 3 13H13C14.1046 13 15 12.1046 15 11V5.00003C15 3.89547 14.1046 3.00004 13 3.00003L3.00004 3ZM12 4.00004C11.637 4.00004 11.3191 4.1935 11.1439 4.48296C11.0526 4.63384 11 4.8108 11 5.00004C11 5.55233 11.4478 6.00004 12 6.00004C12.4538 6.00004 12.837 5.69777 12.9593 5.28359C12.9858 5.1937 13 5.09853 13 5.00004C13 4.51306 12.6519 4.10737 12.191 4.01825C12.1292 4.0063 12.0653 4.00004 12 4.00004ZM2.00004 11V10.1655C2.00004 10.0581 2.03467 9.95347 2.09879 9.86722L5.56432 5.20608C5.77405 4.924 6.20169 4.94066 6.38882 5.23821L8.61274 8.77424C8.79947 9.07114 9.22589 9.08852 9.43617 8.80781L10.6382 7.20307C10.8261 6.95222 11.1958 6.9341 11.4074 7.16537L13.869 9.85676C13.9533 9.94893 14 10.0693 14 10.1942V11C14 11.5523 13.5523 12 13 12H3.00004C2.44775 12 2.00004 11.5523 2.00004 11Z" fill="#2D50E6"/>
</svg>
