<svg width="16" height="16" viewBox="0 0 16 16" fill="none" xmlns="http://www.w3.org/2000/svg">
<path d="M8 6C8.55229 6 9 5.55228 9 5C9 4.44772 8.55229 4 8 4C7.44772 4 7 4.44772 7 5C7 5.55228 7.44772 6 8 6Z" fill="#2D50E6"/>
<path d="M10 11C10 12.1046 9.10457 13 8 13C6.89543 13 6 12.1046 6 11C6 9.89543 6.89543 9 8 9C9.10457 9 10 9.89543 10 11Z" fill="#2D50E6"/>
<path fill-rule="evenodd" clip-rule="evenodd" d="M4 5C4 2.79086 5.79086 1 8 1C10.2091 1 12 2.79086 12 5V11C12 13.2091 10.2091 15 8 15C5.79086 15 4 13.2091 4 11V5ZM6.5 4.5C6.5 3.94772 6.94772 3.5 7.5 3.5H8.5C9.05229 3.5 9.5 3.94772 9.5 4.5V5.5C9.5 6.05228 9.05228 6.5 8.5 6.5H7.5C6.94772 6.5 6.5 6.05228 6.5 5.5V4.5ZM7.5 8.5C6.39543 8.5 5.5 9.39543 5.5 10.5V11.5C5.5 12.6046 6.39543 13.5 7.5 13.5H8.5C9.60457 13.5 10.5 12.6046 10.5 11.5V10.5C10.5 9.39543 9.60457 8.5 8.5 8.5H7.5Z" fill="#2D50E6"/>
</svg>
