<svg width="16" height="16" viewBox="0 0 16 16" fill="none" xmlns="http://www.w3.org/2000/svg">
<path fill-rule="evenodd" clip-rule="evenodd" d="M14.7071 1.29289C15.0976 1.68342 15.0976 2.31658 14.7071 2.70711L13.9142 3.5L14.7071 4.29289C15.0976 4.68342 15.0976 5.31658 14.7071 5.70711C14.3166 6.09763 13.6834 6.09763 13.2929 5.70711L13.25 5.66421L12.6642 6.25L12.7071 6.29289C13.0976 6.68342 13.0976 7.31658 12.7071 7.70711C12.3166 8.09763 11.6834 8.09763 11.2929 7.70711L10.5 6.91421L7.57931 9.83489C7.84763 10.3301 8 10.8972 8 11.5C8 13.433 6.433 15 4.5 15C2.567 15 1 13.433 1 11.5C1 9.567 2.567 8 4.5 8C5.10275 8 5.66992 8.15237 6.16509 8.42068L13.2929 1.29289C13.6834 0.902369 14.3166 0.902369 14.7071 1.29289ZM6 11.5C6 12.3284 5.32843 13 4.5 13C3.67157 13 3 12.3284 3 11.5C3 10.6716 3.67157 10 4.5 10C5.32843 10 6 10.6716 6 11.5Z" fill="#2D50E6"/>
</svg>
