<svg width="16" height="16" viewBox="0 0 16 16" fill="none" xmlns="http://www.w3.org/2000/svg">
<path d="M8 12C9.10457 12 10 10.5 10 8.5C10 6 8.5 3 8 3C7.5 3 6 6 6 8.5C6 10.5 6.89543 12 8 12Z" fill="#2D50E6"/>
<path d="M14 11.5C14 11.3774 13.751 11.1748 13.3481 10.9578C13.2661 11.0481 13.1821 11.1362 13.0967 11.2217C12.2739 12.0442 11.3276 12.6248 10.407 12.8704C10.1355 12.9426 9.84888 12.989 9.56055 12.9976C9.61401 12.9993 9.66772 13 9.72217 13C11.6667 13 14 11.875 14 11.5Z" fill="#2D50E6"/>
<path d="M2.90332 11.2217C2.81787 11.1362 2.73389 11.0483 2.65186 10.958C2.24902 11.175 2 11.3774 2 11.5C2 11.875 4.33325 13 6.27783 13C6.33228 13 6.38599 12.9993 6.43945 12.9976C6.15112 12.989 5.8645 12.9426 5.59302 12.8704C4.67236 12.6248 3.72607 12.0442 2.90332 11.2217Z" fill="#2D50E6"/>
<path d="M5.53578 11.8038C4.90538 11.5713 4.23163 11.1356 3.61034 10.5144C1.7954 8.69945 0.706533 5.43261 1.06957 5.06957C1.23771 4.90143 2.02875 5.04474 3.00994 5.42738C3.08114 6.9799 3.5317 8.67487 4.25312 10.0418C4.58337 10.6675 5.01149 11.2961 5.53578 11.8038Z" fill="#2D50E6"/>
<path d="M10.4642 11.8038C10.9885 11.2961 11.4166 10.6675 11.7469 10.0418C12.4683 8.67487 12.9189 6.97989 12.9901 5.42737C13.9712 5.04473 14.7623 4.90143 14.9304 5.06957C15.2934 5.43261 14.2046 8.69945 12.3896 10.5144C11.7684 11.1356 11.0946 11.5713 10.4642 11.8038Z" fill="#2D50E6"/>
<path d="M11 8.5C11 7.19112 10.6449 5.81058 10.2245 4.71435C10.9776 4.19272 11.6025 3.91575 11.7898 4.02276C12.207 4.2611 12.0431 7.30996 10.9359 9.47398C10.9783 9.15904 11 8.83297 11 8.5Z" fill="#2D50E6"/>
<path d="M5 8.5C5 8.83295 5.02166 9.159 5.06405 9.47393C3.95689 7.30992 3.793 4.2611 4.21021 4.02276C4.39754 3.91575 5.02245 4.19272 5.7755 4.71434C5.3551 5.81057 5 7.19111 5 8.5Z" fill="#2D50E6"/>
<path d="M8 14C8.27614 14 8.5 13.7761 8.5 13.5C8.5 13.2239 8.27614 13 8 13C7.72386 13 7.5 13.2239 7.5 13.5C7.5 13.7761 7.72386 14 8 14Z" fill="#2D50E6"/>
</svg>
