<svg width="16" height="16" viewBox="0 0 16 16" fill="none" xmlns="http://www.w3.org/2000/svg">
<path d="M1 6.99692C1 5.89192 1.89543 4.99615 3 4.99615H5.22919C5.72528 4.99615 6.20366 4.8117 6.57144 4.47864L9.16444 2.13036C9.48587 1.83927 10 2.06743 10 2.50118V13.5037C10 13.9378 9.48501 14.1658 9.16378 13.8739L6.57203 11.5183C6.29337 11.2651 5.97683 11.1254 5.63671 11.0562C5.31795 10.9914 5.07642 11.3043 5.15532 11.62L5.83641 14.3454C5.9195 14.6779 5.66811 15 5.32548 15C5.12601 15 4.94365 14.8873 4.85444 14.7088L3.27639 11.5515C3.107 11.2125 2.75244 11.0193 2.39158 10.9042C1.58451 10.6467 1 9.89046 1 8.99769V6.99692Z" fill="#2D50E6"/>
<path d="M11.0548 2.86745C11.1805 2.62148 11.4817 2.52401 11.7276 2.64975C13.6691 3.64261 15 5.66404 15 7.9973C15 10.3306 13.6691 12.352 11.7276 13.3449C11.4817 13.4706 11.1805 13.3731 11.0548 13.1272C10.9291 12.8812 11.0265 12.5798 11.2724 12.4541C12.8926 11.6256 14 9.94037 14 7.9973C14 6.05423 12.8926 4.36904 11.2724 3.5405C11.0265 3.41476 10.9291 3.11342 11.0548 2.86745Z" fill="#2D50E6"/>
<path d="M11.7861 5.12596C11.4712 4.82034 11 5.08045 11 5.51918V10.4695C11 10.9083 11.4712 11.1684 11.7861 10.8627C12.5348 10.1363 13 9.11961 13 7.99435C13 6.8691 12.5348 5.85243 11.7861 5.12596Z" fill="#2D50E6"/>
</svg>
