<svg width="16" height="16" viewBox="0 0 16 16" fill="none" xmlns="http://www.w3.org/2000/svg">
<path d="M1.5 3C1.22386 3 1 3.22386 1 3.5V4.5C1 4.77614 1.22386 5 1.5 5H14.5C14.7761 5 15 4.77614 15 4.5V3.5C15 3.22386 14.7761 3 14.5 3H1.5Z" fill="#2D50E6"/>
<path d="M1 7.5C1 7.22386 1.22386 7 1.5 7H14.5C14.7761 7 15 7.22386 15 7.5V8.5C15 8.77614 14.7761 9 14.5 9H1.5C1.22386 9 1 8.77614 1 8.5V7.5Z" fill="#2D50E6"/>
<path d="M1 11.5C1 11.2239 1.22386 11 1.5 11H14.5C14.7761 11 15 11.2239 15 11.5V12.5C15 12.7761 14.7761 13 14.5 13H1.5C1.22386 13 1 12.7761 1 12.5V11.5Z" fill="#2D50E6"/>
</svg>
