<svg width="16" height="16" viewBox="0 0 16 16" fill="none" xmlns="http://www.w3.org/2000/svg">
<path d="M5.5 4C5.22386 4 4.99563 3.77446 5.04113 3.50209C5.2783 2.08221 6.51277 1 8 1C9.48723 1 10.7217 2.08221 10.9589 3.50209C11.0044 3.77446 10.7761 4 10.5 4H9.5C9.22386 4 9 4.22386 9 4.5C9 4.77614 9.22386 5 9.5 5H10.5C10.7761 5 11 5.22386 11 5.5C11 5.77614 10.7761 6 10.5 6H9.5C9.22386 6 9 6.22386 9 6.5C9 6.77614 9.22386 7 9.5 7H10.5C10.7761 7 11.0044 7.22554 10.9589 7.49791C10.7217 8.91779 9.48723 10 8 10C6.51277 10 5.2783 8.91779 5.04113 7.49791C4.99563 7.22554 5.22386 7 5.5 7H6.5C6.77614 7 7 6.77614 7 6.5C7 6.22386 6.77614 6 6.5 6H5.5C5.22386 6 5 5.77614 5 5.5C5 5.22386 5.22386 5 5.5 5H6.5C6.77614 5 7 4.77614 7 4.5C7 4.22386 6.77614 4 6.5 4H5.5Z" fill="#2D50E6"/>
<path d="M3.5 6C3.77614 6 4 6.22386 4 6.5V7C4 9.20914 5.79086 11 8 11C10.2091 11 12 9.20914 12 7V6.5C12 6.22386 12.2239 6 12.5 6C12.7761 6 13 6.22386 13 6.5V7C13 9.43727 11.2561 11.4672 8.94807 11.9102C8.69566 11.9587 8.5 12.1711 8.5 12.4281V13.5C8.5 13.7761 8.72386 14 9 14H10.5C10.7761 14 11 14.2239 11 14.5C11 14.7761 10.7761 15 10.5 15H5.5C5.22386 15 5 14.7761 5 14.5C5 14.2239 5.22386 14 5.5 14H7C7.27614 14 7.5 13.7761 7.5 13.5V12.4281C7.5 12.1711 7.30434 11.9587 7.05193 11.9102C4.74387 11.4672 3 9.43727 3 7V6.5C3 6.22386 3.22386 6 3.5 6Z" fill="#2D50E6"/>
</svg>
