<svg width="16" height="16" viewBox="0 0 16 16" fill="none" xmlns="http://www.w3.org/2000/svg">
<g clip-path="url(#clip0_2621_66)">
<path fill-rule="evenodd" clip-rule="evenodd" d="M2.67513 7.84818C2.6129 7.58305 2.45331 7.3524 2.24512 7.17684C1.48377 6.53481 1.00013 5.57389 1.00013 4.5C1.00013 2.567 2.56713 1 4.50013 1C5.77882 1 6.89736 1.68571 7.50808 2.70948C7.61226 2.88411 7.79678 3 8.00013 3C8.20347 3 8.38799 2.88411 8.49217 2.70948C9.10289 1.68571 10.2214 1 11.5001 1C13.4331 1 15.0001 2.567 15.0001 4.5C15.0001 5.5742 14.5162 6.53538 13.7545 7.17741C13.5462 7.35291 13.3866 7.5835 13.3243 7.8486C13.1103 8.75941 12.7476 9.73998 12.2905 10.6742C13 10.5696 13.8063 10.6587 14.6971 11.0404C14.9509 11.1492 15.0685 11.4431 14.9597 11.697C14.8509 11.9508 14.557 12.0684 14.3032 11.9596C13.1717 11.4747 12.2813 11.5881 11.6023 11.9271C11.5854 11.9546 11.5685 11.982 11.5515 12.0092C12.3282 12.0803 13.1493 12.4421 13.8537 13.1464C14.0489 13.3417 14.0489 13.6583 13.8537 13.8536C13.6584 14.0488 13.3418 14.0488 13.1466 13.8536C12.4902 13.1971 11.7512 12.966 11.1529 12.9992C11.0391 13.0056 10.9318 13.021 10.8315 13.0443L10.7995 13.0852C10.9534 13.1516 11.1073 13.2312 11.2574 13.3213C11.9495 13.7365 12.6755 14.445 12.9745 15.3419C13.0618 15.6039 12.9202 15.887 12.6582 15.9743C12.3963 16.0617 12.1131 15.9201 12.0258 15.6581C11.8247 15.055 11.3007 14.5134 10.7429 14.1787C10.4944 14.0297 10.263 13.9363 10.0808 13.8948C9.38885 14.5758 8.66881 14.9998 7.99874 14.9998C7.32881 14.9998 6.60908 14.576 5.91747 13.8953C5.73559 13.937 5.50492 14.0302 5.25738 14.1787C4.69954 14.5134 4.17551 15.055 3.97447 15.6581C3.88715 15.9201 3.60399 16.0617 3.34201 15.9743C3.08004 15.887 2.93846 15.6039 3.02579 15.3419C3.32474 14.445 4.05072 13.7365 4.74288 13.3213C4.89242 13.2315 5.04581 13.1521 5.19913 13.0859L5.16605 13.0437C5.06651 13.0207 4.96012 13.0055 4.84739 12.9992C4.24901 12.966 3.51009 13.1971 2.85368 13.8536C2.65842 14.0488 2.34184 14.0488 2.14657 13.8536C1.95131 13.6583 1.95131 13.3417 2.14657 13.1464C2.85042 12.4426 3.67086 12.0809 4.44703 12.0094C4.4297 11.9816 4.41245 11.9538 4.39526 11.9258C3.71661 11.5878 2.82708 11.4753 1.69709 11.9596C1.44327 12.0684 1.14933 11.9508 1.04056 11.697C0.931778 11.4431 1.04935 11.1492 1.30317 11.0404C2.19327 10.659 2.99904 10.5698 3.70815 10.674C3.25128 9.73967 2.88888 8.75903 2.67513 7.84818ZM13.6613 5.75753C13.4537 6.1136 12.975 5.90802 12.8588 5.51252C12.5245 4.37362 11.6265 3.47569 10.4876 3.1413C10.0921 3.02518 9.88654 2.54646 10.2426 2.33883C10.612 2.12341 11.0417 2 11.5001 2C12.8809 2 14.0001 3.11929 14.0001 4.5C14.0001 4.95847 13.8767 5.38811 13.6613 5.75753ZM3.20024 5.51252C3.08413 5.90802 2.6054 6.1136 2.39777 5.75753C2.18235 5.38811 2.05894 4.95847 2.05894 4.5C2.05894 3.11929 3.17823 2 4.55894 2C5.01741 2 5.44706 2.12341 5.81647 2.33883C6.17254 2.54646 5.96696 3.02518 5.57146 3.1413C4.43256 3.47569 3.53463 4.37362 3.20024 5.51252ZM6 10C6.55228 10 7 9.32843 7 8.5C7 7.67157 6.55228 7 6 7C5.44772 7 5 7.67157 5 8.5C5 9.32843 5.44772 10 6 10ZM11 8.5C11 9.32843 10.5523 10 10 10C9.44771 10 9 9.32843 9 8.5C9 7.67157 9.44771 7 10 7C10.5523 7 11 7.67157 11 8.5ZM7.03542 13.4826C7.16866 13.7383 7.44145 14 8 14C8.55855 14 8.83134 13.7383 8.96458 13.4826C9.09445 13.2334 8.84737 13 8.54589 13H7.45411C7.15263 13 6.90555 13.2334 7.03542 13.4826Z" fill="#2D50E6"/>
</g>
<defs>
<clipPath id="clip0_2621_66">
<rect width="16" height="16" fill="white"/>
</clipPath>
</defs>
</svg>
