<svg width="16" height="16" viewBox="0 0 16 16" fill="none" xmlns="http://www.w3.org/2000/svg">
<path d="M13 5C14.1046 5 15 4.10457 15 3C15 1.89543 14.1046 1 13 1C11.8954 1 11 1.89543 11 3C11 4.10457 11.8954 5 13 5Z" fill="#2D50E6"/>
<path d="M14 7.27778C14 6.7215 14 6.24519 13.9868 5.83393C13.6777 5.94153 13.3457 6 13 6L12.9911 5.99999C12.9999 6.36091 13 6.78601 13 7.3V8.7C13 9.54833 12.9996 10.1545 12.9608 10.6297C12.9224 11.099 12.8491 11.3963 12.7275 11.635C12.4878 12.1054 12.1054 12.4878 11.635 12.7275C11.3963 12.8491 11.099 12.9224 10.6297 12.9608C10.1545 12.9996 9.54833 13 8.7 13H7.3C6.45167 13 5.84549 12.9996 5.37032 12.9608C4.90099 12.9224 4.60366 12.8491 4.36502 12.7275C3.89462 12.4878 3.51217 12.1054 3.27248 11.635C3.15089 11.3963 3.07756 11.099 3.03921 10.6297C3.00039 10.1545 3 9.54833 3 8.7V7.3C3 6.45167 3.00039 5.8455 3.03921 5.37032C3.07756 4.90099 3.15089 4.60366 3.27248 4.36502C3.51217 3.89462 3.89462 3.51217 4.36502 3.27248C4.60366 3.15089 4.90099 3.07756 5.37032 3.03921C5.84549 3.00039 6.45167 3 7.3 3H8.7C9.21399 3 9.63909 3.00014 10 3.00889L10 3C10 2.6543 10.0585 2.32225 10.1661 2.01321C9.75481 2 9.27849 2 8.72221 2H7.27779C6.45652 2 5.80954 1.99999 5.28889 2.04253C4.75771 2.08593 4.31413 2.17609 3.91103 2.38148C3.25247 2.71703 2.71703 3.25247 2.38148 3.91103C2.17609 4.31413 2.08593 4.75771 2.04253 5.28889C1.99999 5.80954 2 6.45652 2 7.27779V8.72221C2 9.54348 1.99999 10.1905 2.04253 10.7111C2.08593 11.2423 2.17609 11.6859 2.38148 12.089C2.71703 12.7475 3.25247 13.283 3.91103 13.6185C4.31413 13.8239 4.75771 13.9141 5.28889 13.9575C5.80954 14 6.45651 14 7.27778 14H8.72222C9.54349 14 10.1905 14 10.7111 13.9575C11.2423 13.9141 11.6859 13.8239 12.089 13.6185C12.7475 13.283 13.283 12.7475 13.6185 12.089C13.8239 11.6859 13.9141 11.2423 13.9575 10.7111C14 10.1905 14 9.54349 14 8.72222V7.27778Z" fill="#2D50E6"/>
</svg>
