<svg width="16" height="16" viewBox="0 0 16 16" fill="none" xmlns="http://www.w3.org/2000/svg">
<path fill-rule="evenodd" clip-rule="evenodd" d="M8.85355 1.14645C8.65829 0.951184 8.34171 0.951184 8.14645 1.14645L7.79174 1.50115C6.17721 1.51902 4.70128 1.7441 3.59925 2.11144C3.02724 2.30211 2.52826 2.54017 2.16202 2.8288C1.80142 3.11299 1.5 3.50499 1.5 4C1.5 4.49501 1.80142 4.88701 2.16202 5.1712C2.49697 5.43516 2.94293 5.65683 3.45425 5.83864L1.14645 8.14645C0.951184 8.34171 0.951184 8.65829 1.14645 8.85355L7.14645 14.8536C7.34171 15.0488 7.65829 15.0488 7.85355 14.8536L14.8536 7.85355C15.0488 7.65829 15.0488 7.34171 14.8536 7.14645L8.85355 1.14645ZM5.40924 5.29787L8.5 2.20711L13.7929 7.5L12.8658 8.4271C12.5022 8.33474 12.2512 8.16737 12.0001 8C11.6251 7.75 11.2501 7.5 10.5001 7.5C9.75011 7.5 9.3751 7.75 9.0001 8C8.6251 8.25 8.2501 8.5 7.5001 8.5C6.7501 8.5 6.3751 8.25 6.0001 8C5.6251 7.75 5.2501 7.5 4.5001 7.5C3.7501 7.5 3.3751 7.75 3.0001 8C2.80086 8.13283 2.6016 8.26567 2.34611 8.361L4.55624 6.15086C5.55339 6.3735 6.73798 6.5 8 6.5C8.27614 6.5 8.5 6.27614 8.5 6C8.5 5.72386 8.27614 5.5 8 5.5C7.06184 5.5 6.18215 5.42626 5.40924 5.29787ZM6.748 2.54489L4.25011 5.04279C4.13413 5.00989 4.02249 4.97554 3.91547 4.93987C3.4017 4.76861 3.02199 4.57571 2.781 4.38578C2.53437 4.19142 2.5 4.05728 2.5 4C2.5 3.94272 2.53437 3.80858 2.781 3.61422C3.02199 3.42429 3.4017 3.23139 3.91547 3.06013C4.66533 2.81018 5.64211 2.62555 6.748 2.54489Z" fill="#2D50E6"/>
<path d="M15 13C15.5523 13 16 12.5523 16 12C16 11.6203 15.5274 10.0897 15.232 9.16996C15.1586 8.94151 14.8414 8.94151 14.768 9.16996C14.4726 10.0897 14 11.6203 14 12C14 12.5523 14.4477 13 15 13Z" fill="#2D50E6"/>
</svg>
