<svg width="16" height="16" viewBox="0 0 16 16" fill="none" xmlns="http://www.w3.org/2000/svg">
<path fill-rule="evenodd" clip-rule="evenodd" d="M7.7 1.1C7.87778 0.966667 8.12222 0.966667 8.3 1.1L10.8333 3H14C14.5523 3 15 3.44772 15 4V12C15 12.5523 14.5523 13 14 13H2C1.44772 13 1 12.5523 1 12V4C1 3.44772 1.44772 3 2 3H5.16667L7.7 1.1ZM11.1439 4.48292C11.3191 4.19346 11.637 4 12 4C12.0653 4 12.1291 4.00626 12.1909 4.01821C12.6519 4.10733 13 4.51301 13 5C13 5.09849 12.9858 5.19365 12.9592 5.28355C12.837 5.69773 12.4538 6 12 6C11.4477 6 11 5.55228 11 5C11 4.81076 11.0526 4.6338 11.1439 4.48292ZM8 2.125L9.16667 3H6.83333L8 2.125ZM2 10.1655V11C2 11.5523 2.44772 12 3 12H13C13.5523 12 14 11.5523 14 11V10.1942C14 10.0693 13.9532 9.94889 13.8689 9.85672L11.4073 7.16533C11.1958 6.93406 10.8261 6.95218 10.6382 7.20302L9.43613 8.80776C9.22586 9.08848 8.79943 9.0711 8.6127 8.7742L6.38878 5.23817C6.20165 4.94062 5.77401 4.92396 5.56429 5.20604L2.09875 9.86718C2.03463 9.95343 2 10.058 2 10.1655Z" fill="#2D50E6"/>
</svg>
