<svg width="16" height="16" viewBox="0 0 16 16" fill="none" xmlns="http://www.w3.org/2000/svg">
<path d="M7 2.5C7 3.32843 6.32843 5 5.5 5C4.67157 5 4 3.32843 4 2.5C4 1.67157 4.67157 1 5.5 1C6.32843 1 7 1.67157 7 2.5Z" fill="#2D50E6"/>
<path d="M4 6.5C4 7.32843 3.32843 9 2.5 9C1.67157 9 1 7.32843 1 6.5C1 5.67157 1.67157 5 2.5 5C3.32843 5 4 5.67157 4 6.5Z" fill="#2D50E6"/>
<path d="M10.5 5C11.3284 5 12 3.32843 12 2.5C12 1.67157 11.3284 1 10.5 1C9.67157 1 9 1.67157 9 2.5C9 3.32843 9.67157 5 10.5 5Z" fill="#2D50E6"/>
<path d="M15 6.5C15 7.32843 14.3284 9 13.5 9C12.6716 9 12 7.32843 12 6.5C12 5.67157 12.6716 5 13.5 5C14.3284 5 15 5.67157 15 6.5Z" fill="#2D50E6"/>
<path d="M11 8C11 8.10021 11.0608 8.19113 11.1533 8.22968C12.2377 8.68164 13 9.7518 13 11C13 12.6569 11.6569 14 10 14C9.55203 14 9.127 13.9018 8.74524 13.7258C8.28252 13.5124 7.71748 13.5124 7.25476 13.7258C6.87301 13.9018 6.44797 14 6 14C4.34315 14 3 12.6569 3 11C3 9.7518 3.76229 8.68164 4.84674 8.22968C4.93923 8.19113 5 8.10021 5 8C5 6.34315 6.34315 5 8 5C9.65685 5 11 6.34315 11 8Z" fill="#2D50E6"/>
</svg>
