<svg width="16" height="16" viewBox="0 0 16 16" fill="none" xmlns="http://www.w3.org/2000/svg">
<path d="M13.5 7.5C13.7761 7.5 14.002 7.27536 13.9811 7.00001C13.7257 3.64378 10.9216 1 7.5 1C3.91015 1 1 3.91015 1 7.5C1 10.9216 3.64378 13.7257 7.00001 13.9811C7.27536 14.002 7.5 13.7761 7.5 13.5V8C7.5 7.72386 7.72386 7.5 8 7.5H13.5Z" fill="#2D50E6"/>
<path d="M14.9811 8.99999C15.002 8.72464 14.7761 8.5 14.5 8.5H9.00021C8.72407 8.5 8.50021 8.72443 8.50021 9.00057L8.50003 14.5005C8.50002 14.7767 8.72467 15.002 9.00003 14.9811C12.1912 14.7383 14.7383 12.1912 14.9811 8.99999Z" fill="#2D50E6"/>
</svg>
