<svg width="16" height="16" viewBox="0 0 16 16" fill="none" xmlns="http://www.w3.org/2000/svg">
<g clip-path="url(#clip0_1430_343)">
<path d="M7.73792 0.161922C7.84512 -0.0539739 8.15488 -0.0539742 8.26208 0.161922L8.96272 1.57291C9.00529 1.65864 9.08758 1.71806 9.18277 1.73181L10.7494 1.95807C10.9892 1.99269 11.0849 2.28549 10.9114 2.45354L9.77777 3.55184C9.70888 3.61857 9.67745 3.71472 9.69371 3.80895L9.96133 5.35977C10.0023 5.59707 9.75169 5.77802 9.53728 5.66599L8.136 4.93379C8.05086 4.8893 7.94914 4.8893 7.864 4.93379L6.46272 5.66599C6.24831 5.77802 5.99772 5.59707 6.03867 5.35977L6.30629 3.80895C6.32255 3.71472 6.29112 3.61857 6.22223 3.55184L5.08858 2.45354C4.91512 2.28549 5.01084 1.99269 5.25055 1.95807L6.81723 1.73181C6.91242 1.71806 6.99471 1.65864 7.03728 1.57291L7.73792 0.161922Z" fill="#2D50E6"/>
<path fill-rule="evenodd" clip-rule="evenodd" d="M5 8C5 7.44771 5.44772 7 6 7H10C10.5523 7 11 7.44771 11 8V10H15C15.5523 10 16 10.4477 16 11V15H0V10C0 9.44771 0.447715 9 1 9H5V8ZM8 10C8.55229 10 9 9.55229 9 9C9 8.44771 8.55229 8 8 8C7.44772 8 7 8.44771 7 9C7 9.55229 7.44772 10 8 10ZM4 11C4 11.5523 3.55228 12 3 12C2.44772 12 2 11.5523 2 11C2 10.4477 2.44772 10 3 10C3.55228 10 4 10.4477 4 11ZM13 13C13.5523 13 14 12.5523 14 12C14 11.4477 13.5523 11 13 11C12.4477 11 12 11.4477 12 12C12 12.5523 12.4477 13 13 13Z" fill="#2D50E6"/>
</g>
<defs>
<clipPath id="clip0_1430_343">
<rect width="16" height="16" fill="white"/>
</clipPath>
</defs>
</svg>
