<svg width="16" height="16" viewBox="0 0 16 16" fill="none" xmlns="http://www.w3.org/2000/svg">
<path fill-rule="evenodd" clip-rule="evenodd" d="M14.8536 1.85355C15.0488 1.65829 15.0488 1.34171 14.8536 1.14645C14.6583 0.951184 14.3417 0.951184 14.1464 1.14645L11.1328 4.16011L8.29412 2.09563C8.11879 1.96812 7.88128 1.96812 7.70595 2.09563L2.20595 6.09563C2.03081 6.22301 1.95757 6.44867 2.02454 6.65462C2.09153 6.86057 2.28347 7 2.50003 7H4.00003V11.2929L1.14645 14.1464C0.951184 14.3417 0.951184 14.6583 1.14645 14.8536C1.34171 15.0488 1.65829 15.0488 1.85355 14.8536L14.8536 1.85355ZM7.00003 8.29286V7H6.00003V9.29286L7.00003 8.29286ZM8.00003 6C8.55233 6 9.00003 5.55228 9.00003 5C9.00003 4.44771 8.55233 4 8.00003 4C7.44774 4 7.00003 4.44771 7.00003 5C7.00003 5.55228 7.44774 6 8.00003 6Z" fill="#2D50E6"/>
<path d="M7.00003 12H6.12143L4.12143 14H14C14 13.4477 13.5523 13 13 13C13 12.4477 12.5523 12 12 12V7H13.5C13.7166 7 13.9086 6.86057 13.9755 6.65462C14.0425 6.44867 13.9693 6.22301 13.7941 6.09563L12.7704 5.35108L10 8.12139V12H9.00003V9.12139L7.00003 11.1214V12Z" fill="#2D50E6"/>
</svg>
