<svg width="16" height="16" viewBox="0 0 16 16" fill="none" xmlns="http://www.w3.org/2000/svg">
<path d="M8.19109 2.10684C8.3416 1.98859 8.54641 1.96663 8.71857 2.05031C8.89072 2.13398 9 2.30859 9 2.5V5.01643C10.1657 5.09438 11.1286 5.44571 11.9146 5.98651C12.806 6.59977 13.4435 7.43813 13.8966 8.33757C14.7967 10.1246 15 12.2139 15 13.5C15 13.7452 14.8222 13.9543 14.5801 13.9935C14.338 14.0328 14.1032 13.8908 14.0257 13.6581C13.7835 12.9315 12.4517 11.1678 9 11.0112V13.5C9 13.6914 8.89072 13.866 8.71857 13.9497C8.54641 14.0334 8.3416 14.0114 8.19109 13.8932L1.19109 8.39316C1.07044 8.29837 1 8.15343 1 8C1 7.84657 1.07044 7.70164 1.19109 7.60684L8.19109 2.10684Z" fill="#2D50E6"/>
</svg>
