<svg width="16" height="16" viewBox="0 0 16 16" fill="none" xmlns="http://www.w3.org/2000/svg">
<path d="M2 0.5C2 0.223858 1.77614 0 1.5 0C1.22386 0 1 0.223858 1 0.5V4.5C1 4.77614 1.22386 5 1.5 5C1.77614 5 2 4.77614 2 4.5V3H14V4.5C14 4.77614 14.2239 5 14.5 5C14.7761 5 15 4.77614 15 4.5V0.5C15 0.223858 14.7761 0 14.5 0C14.2239 0 14 0.223858 14 0.5V2H2V0.5Z" fill="#2D50E6"/>
<path d="M1 7C1 6.44775 1.44775 6 2 6H2.5V7.5C2.5 7.77614 2.72386 8 3 8C3.27614 8 3.5 7.77614 3.5 7.5V6H5V9.5C5 9.77614 5.22386 10 5.5 10C5.77614 10 6 9.77614 6 9.5V6H7.5V7.5C7.5 7.77614 7.72386 8 8 8C8.27614 8 8.5 7.77614 8.5 7.5V6H10V9.5C10 9.77614 10.2239 10 10.5 10C10.7761 10 11 9.77614 11 9.5V6H12.5V7.5C12.5 7.77614 12.7239 8 13 8C13.2761 8 13.5 7.77614 13.5 7.5V6H14C14.5522 6 15 6.44775 15 7V13C15 13.5522 14.5522 14 14 14H2C1.44775 14 1 13.5522 1 13V7Z" fill="#2D50E6"/>
</svg>
