<svg width="16" height="16" viewBox="0 0 16 16" fill="none" xmlns="http://www.w3.org/2000/svg">
<path fill-rule="evenodd" clip-rule="evenodd" d="M8 15C11.866 15 15 11.866 15 8C15 4.13401 11.866 1 8 1C4.13401 1 1 4.13401 1 8C1 11.866 4.13401 15 8 15ZM6 8C6.55228 8 7 7.32843 7 6.5C7 5.67157 6.55228 5 6 5C5.44772 5 5 5.67157 5 6.5C5 7.32843 5.44772 8 6 8ZM11 6.5C11 7.32843 10.5523 8 10 8C9.44771 8 9 7.32843 9 6.5C9 5.67157 9.44771 5 10 5C10.5523 5 11 5.67157 11 6.5ZM5.26062 11.7928C6.09792 11.2814 7.02572 11 8 11C8.97428 11 9.90208 11.2814 10.7394 11.7928C10.975 11.9367 11.2828 11.8624 11.4267 11.6267C11.5706 11.3911 11.4963 11.0833 11.2606 10.9394C10.2794 10.3401 9.17291 10 8 10C6.82709 10 5.72059 10.3401 4.73938 10.9394C4.50372 11.0833 4.42936 11.3911 4.5733 11.6267C4.71723 11.8624 5.02496 11.9367 5.26062 11.7928Z" fill="#2D50E6"/>
</svg>
