<svg width="16" height="16" viewBox="0 0 16 16" fill="none" xmlns="http://www.w3.org/2000/svg">
<path fill-rule="evenodd" clip-rule="evenodd" d="M14.5608 1.43934C15.1466 2.02513 15.1466 2.97487 14.5608 3.56066L9.05845 9.06298L8 8L7.06 8.94C6.47458 9.52542 6.47458 10.4746 7.06 11.06L4.62116 13.4996C4.41824 13.7026 4.19281 13.8694 3.95292 14H8.5C8.77614 14 9 14.2239 9 14.5C9 14.7761 8.77614 15 8.5 15H1.5C1.22386 15 1 14.7761 1 14.5C1 14.3056 1.11091 14.1372 1.27291 14.0544C0.993844 13.917 0.732204 13.7322 0.5 13.5L12.4395 1.43934C13.0252 0.853553 13.975 0.853553 14.5608 1.43934ZM5.35355 10.6464C5.54882 10.8417 5.54882 11.1583 5.35355 11.3536L3.35355 13.3536C3.15829 13.5488 2.84171 13.5488 2.64645 13.3536C2.45118 13.1583 2.45118 12.8417 2.64645 12.6464L4.64645 10.6464C4.84171 10.4512 5.15829 10.4512 5.35355 10.6464Z" fill="#2D50E6"/>
<path d="M11 14.5C11 14.7761 10.7761 15 10.5 15C10.2239 15 10 14.7761 10 14.5C10 14.2239 10.2239 14 10.5 14C10.7761 14 11 14.2239 11 14.5Z" fill="#2D50E6"/>
<path d="M12.5 15C12.7761 15 13 14.7761 13 14.5C13 14.2239 12.7761 14 12.5 14C12.2239 14 12 14.2239 12 14.5C12 14.7761 12.2239 15 12.5 15Z" fill="#2D50E6"/>
<path d="M15 14.5C15 14.7761 14.7761 15 14.5 15C14.2239 15 14 14.7761 14 14.5C14 14.2239 14.2239 14 14.5 14C14.7761 14 15 14.2239 15 14.5Z" fill="#2D50E6"/>
</svg>
