<svg width="16" height="16" viewBox="0 0 16 16" fill="none" xmlns="http://www.w3.org/2000/svg">
<path d="M3.48455 3.04887C4.58505 1.79228 6.19972 1 8.00004 1C9.80105 1 11.4163 1.79289 12.5168 3.05033C12.6987 3.25813 13.0146 3.27915 13.2224 3.09728C13.4301 2.91541 13.4512 2.59953 13.2693 2.39173C11.987 0.926558 10.1014 0 8.00004 0C5.89949 0 4.01458 0.925841 2.73226 2.39003C2.55033 2.59777 2.57125 2.91366 2.77899 3.09559C2.98672 3.27753 3.30261 3.25661 3.48455 3.04887Z" fill="#2D50E6"/>
<path d="M8.00006 3C6.80017 3 5.72412 3.5277 4.99022 4.36536C4.80824 4.57306 4.49235 4.59391 4.28465 4.41194C4.07695 4.22996 4.05609 3.91407 4.23807 3.70636C5.15378 2.66119 6.50001 2 8.00006 2C9.50025 2 10.8466 2.66132 11.7623 3.70667C11.9443 3.91438 11.9234 4.23028 11.7157 4.41224C11.508 4.59419 11.1921 4.57331 11.0101 4.3656C10.2762 3.5278 9.20007 3 8.00006 3Z" fill="#2D50E6"/>
<path d="M5 7C5 5.34315 6.34315 4 8 4C9.65685 4 11 5.34315 11 7V12C11 13.6569 9.65685 15 8 15C6.34315 15 5 13.6569 5 12V7Z" fill="#2D50E6"/>
</svg>
