<svg width="16" height="16" viewBox="0 0 16 16" fill="none" xmlns="http://www.w3.org/2000/svg">
<path d="M0 1.5C0 1.22386 0.223858 1 0.5 1H2.5C2.71522 1 2.90628 1.13771 2.97434 1.34189L3.52705 3H14.5C14.6569 3 14.8047 3.07365 14.8992 3.1989C14.9937 3.32416 15.0239 3.4865 14.9808 3.63736L12.9808 10.6374C12.9194 10.852 12.7232 11 12.5 11H5.5C5.28478 11 5.09372 10.8623 5.02566 10.6581L2.13962 2H0.5C0.223858 2 0 1.77614 0 1.5Z" fill="#2D50E6"/>
<path d="M7 13.5C7 14.3284 6.32843 15 5.5 15C4.67157 15 4 14.3284 4 13.5C4 12.6716 4.67157 12 5.5 12C6.32843 12 7 12.6716 7 13.5Z" fill="#2D50E6"/>
<path d="M12.5 15C13.3284 15 14 14.3284 14 13.5C14 12.6716 13.3284 12 12.5 12C11.6716 12 11 12.6716 11 13.5C11 14.3284 11.6716 15 12.5 15Z" fill="#2D50E6"/>
</svg>
