<svg width="16" height="16" viewBox="0 0 16 16" fill="none" xmlns="http://www.w3.org/2000/svg">
<path d="M12 4C12 3.44772 12.4477 3 13 3H14C14.5523 3 15 3.44772 15 4V12C15 12.5523 14.5523 13 14 13H13C12.4477 13 12 12.5523 12 12V4Z" fill="#2C2302"/>
<path d="M6.5 7C6.5 6.44772 6.94772 6 7.5 6H8.5C9.05229 6 9.5 6.44772 9.5 7V12C9.5 12.5523 9.05228 13 8.5 13H7.5C6.94772 13 6.5 12.5523 6.5 12V7Z" fill="#2C2302"/>
<path d="M2 9C1.44772 9 1 9.44771 1 10V12C1 12.5523 1.44772 13 2 13H3C3.55228 13 4 12.5523 4 12V10C4 9.44771 3.55228 9 3 9H2Z" fill="#2C2302"/>
</svg>
