<svg width="16" height="16" viewBox="0 0 16 16" fill="none" xmlns="http://www.w3.org/2000/svg">
<path d="M8.26169 1.07382C8.18559 1.027 8.09599 1 8.00008 1C7.90418 1 7.81459 1.027 7.73849 1.07381L5.80784 2.21464C5.5701 2.35512 5.49126 2.66173 5.63174 2.89947C5.77223 3.13721 6.07883 3.21605 6.31657 3.07557L7.50008 2.37622V3.5C7.50008 3.77614 7.72394 4 8.00008 4C8.27622 4 8.50008 3.77614 8.50008 3.5V2.37622L9.68359 3.07557C9.92132 3.21605 10.2279 3.13721 10.3684 2.89947C10.5089 2.66173 10.4301 2.35512 10.1923 2.21464L8.26169 1.07382Z" fill="#2D50E6"/>
<path d="M4.77221 3.40738C4.91269 3.64511 4.83385 3.95172 4.59611 4.0922L3.48292 4.75L4.59664 5.40811C4.83438 5.54859 4.91322 5.8552 4.77274 6.09293C4.63225 6.33067 4.32565 6.40951 4.08791 6.26903L3.00008 5.62622V7C3.00008 7.27614 2.77622 7.5 2.50008 7.5C2.22394 7.5 2.00008 7.27614 2.00008 7V4.7584C1.99849 4.66907 2.02083 4.5782 2.06962 4.49564L2.07086 4.49354C2.11693 4.41641 2.18056 4.35616 2.25361 4.31487L4.08738 3.23128C4.32512 3.0908 4.63173 3.16964 4.77221 3.40738Z" fill="#2D50E6"/>
<path d="M11.2308 3.40909C11.3713 3.17135 11.6779 3.09251 11.9157 3.23299L13.7466 4.31488C13.8187 4.35568 13.8817 4.41501 13.9277 4.49084L13.9331 4.49997C13.9801 4.58137 14.0016 4.67062 14.0001 4.75838V7C14.0001 7.27614 13.7762 7.5 13.5001 7.5C13.2239 7.5 13.0001 7.27614 13.0001 7V5.62622L11.914 6.26802C11.6762 6.4085 11.3696 6.32966 11.2291 6.09192C11.0887 5.85419 11.1675 5.54758 11.4052 5.4071L12.5172 4.75L11.4069 4.09392C11.1692 3.95343 11.0904 3.64683 11.2308 3.40909Z" fill="#2D50E6"/>
<path d="M2.50008 8.5C2.77622 8.5 3.00008 8.72386 3.00008 9V10.3738L4.08672 9.73167C4.32446 9.59119 4.63107 9.67003 4.77155 9.90777C4.91203 10.1455 4.83319 10.4521 4.59545 10.5926L3.48292 11.25L4.59878 11.9094C4.83652 12.0499 4.91536 12.3565 4.77488 12.5942C4.6344 12.8319 4.32779 12.9108 4.09005 12.7703L2.2537 11.6852C2.17995 11.6435 2.1158 11.5825 2.06962 11.5044C2.02083 11.4218 1.99849 11.3309 2.00008 11.2416V9C2.00008 8.72386 2.22394 8.5 2.50008 8.5Z" fill="#2D50E6"/>
<path d="M13.5001 8.5C13.7762 8.5 14.0001 8.72386 14.0001 9V11.2416C14.0017 11.3309 13.9793 11.4218 13.9305 11.5044C13.8844 11.5825 13.8202 11.6435 13.7465 11.6852L11.9105 12.77C11.6728 12.9105 11.3662 12.8317 11.2257 12.5939C11.0852 12.3562 11.1641 12.0496 11.4018 11.9091L12.5172 11.25L11.4064 10.5936C11.1687 10.4531 11.0898 10.1465 11.2303 9.90878C11.3708 9.67104 11.6774 9.5922 11.9151 9.73268L13.0001 10.3738V9C13.0001 8.72386 13.2239 8.5 13.5001 8.5Z" fill="#2D50E6"/>
<path d="M10.3691 13.1001C10.5096 13.3379 10.4307 13.6445 10.193 13.785L8.25444 14.9305C8.09754 15.0232 7.90262 15.0232 7.74571 14.9305L5.80923 13.7862C5.57149 13.6457 5.49265 13.3391 5.63313 13.1013C5.77361 12.8636 6.08022 12.7848 6.31796 12.9253L7.50008 13.6238V12.5C7.50008 12.2239 7.72394 12 8.00008 12C8.27622 12 8.50008 12.2239 8.50008 12.5V13.6238L9.68424 12.924C9.92198 12.7836 10.2286 12.8624 10.3691 13.1001Z" fill="#2D50E6"/>
<path d="M5.62766 6.59812C5.76815 6.36038 6.07475 6.28154 6.31249 6.42202L8.00008 7.41923L9.68766 6.42202C9.9254 6.28154 10.232 6.36038 10.3725 6.59812C10.513 6.83586 10.4341 7.14247 10.1964 7.28295L8.50008 8.28532V10C8.50008 10.2761 8.27622 10.5 8.00008 10.5C7.72394 10.5 7.50008 10.2761 7.50008 10V8.28532L5.80376 7.28295C5.56603 7.14247 5.48718 6.83586 5.62766 6.59812Z" fill="#2D50E6"/>
</svg>
