<svg width="16" height="16" viewBox="0 0 16 16" fill="none" xmlns="http://www.w3.org/2000/svg">
<path fill-rule="evenodd" clip-rule="evenodd" d="M3 3C3 1.89543 3.89543 1 5 1H11C12.1046 1 13 1.89543 13 3V13C13 14.1046 12.1046 15 11 15H5C3.89543 15 3 14.1046 3 13V3ZM7 12.5C7 12.2239 7.22386 12 7.5 12H8.5C8.77614 12 9 12.2239 9 12.5C9 12.7761 8.77614 13 8.5 13H7.5C7.22386 13 7 12.7761 7 12.5ZM6 3C5.44772 3 5 3.44772 5 4V9C5 9.55228 5.44772 10 6 10H10C10.5523 10 11 9.55229 11 9V4C11 3.44772 10.5523 3 10 3H6Z" fill="#2D50E6"/>
</svg>
