<svg width="16" height="16" viewBox="0 0 16 16" fill="none" xmlns="http://www.w3.org/2000/svg">
<path fill-rule="evenodd" clip-rule="evenodd" d="M8 15C11.866 15 15 11.866 15 8C15 4.134 11.866 1 8 1C4.13403 1 1 4.134 1 8C1 11.866 4.13403 15 8 15ZM8 13.5C11.0376 13.5 13.5 11.0376 13.5 8C13.5 4.96243 11.0376 2.5 8 2.5C4.9624 2.5 2.5 4.96243 2.5 8C2.5 11.0376 4.9624 13.5 8 13.5Z" fill="#2D50E6"/>
<path fill-rule="evenodd" clip-rule="evenodd" d="M5 7.25C5.41421 7.25 5.75 7.58579 5.75 8C5.75 9.24264 6.75736 10.25 8 10.25C9.24264 10.25 10.25 9.24264 10.25 8C10.25 7.58579 10.5858 7.25 11 7.25C11.4142 7.25 11.75 7.58579 11.75 8C11.75 10.0711 10.0711 11.75 8 11.75C5.92893 11.75 4.25 10.0711 4.25 8C4.25 7.58579 4.58579 7.25 5 7.25Z" fill="#2D50E6"/>
</svg>
