<svg width="16" height="16" viewBox="0 0 16 16" fill="none" xmlns="http://www.w3.org/2000/svg">
<path d="M8.5 1.5C8.5 1.22386 8.27614 1 8 1C7.72386 1 7.5 1.22386 7.5 1.5V3.79289L5.85355 2.14645C5.65829 1.95118 5.34171 1.95118 5.14645 2.14645C4.95118 2.34171 4.95118 2.65829 5.14645 2.85355L7.5 5.20711V7.5H5.20711L2.85355 5.14645C2.65829 4.95118 2.34171 4.95118 2.14645 5.14645C1.95118 5.34171 1.95118 5.65829 2.14645 5.85355L3.79289 7.5H1.5C1.22386 7.5 1 7.72386 1 8C1 8.27614 1.22386 8.5 1.5 8.5H3.79289L2.14645 10.1464C1.95118 10.3417 1.95118 10.6583 2.14645 10.8536C2.34171 11.0488 2.65829 11.0488 2.85355 10.8536L5.20711 8.5H7.5V10.7929L5.14645 13.1464C4.95118 13.3417 4.95118 13.6583 5.14645 13.8536C5.34171 14.0488 5.65829 14.0488 5.85355 13.8536L7.5 12.2071V14.5C7.5 14.7761 7.72386 15 8 15C8.27614 15 8.5 14.7761 8.5 14.5V12.2071L10.1464 13.8536C10.3417 14.0488 10.6583 14.0488 10.8536 13.8536C11.0488 13.6583 11.0488 13.3417 10.8536 13.1464L8.5 10.7929V8.5H10.7929L13.1464 10.8536C13.3417 11.0488 13.6583 11.0488 13.8536 10.8536C14.0488 10.6583 14.0488 10.3417 13.8536 10.1464L12.2071 8.5H14.5C14.7761 8.5 15 8.27614 15 8C15 7.72386 14.7761 7.5 14.5 7.5H12.2071L13.8536 5.85355C14.0488 5.65829 14.0488 5.34171 13.8536 5.14645C13.6583 4.95118 13.3417 4.95118 13.1464 5.14645L10.7929 7.5H8.5V5.20711L10.8536 2.85355C11.0488 2.65829 11.0488 2.34171 10.8536 2.14645C10.6583 1.95118 10.3417 1.95118 10.1464 2.14645L8.5 3.79289V1.5Z" fill="#2D50E6"/>
</svg>
