<svg width="16" height="16" viewBox="0 0 16 16" fill="none" xmlns="http://www.w3.org/2000/svg">
<path d="M14.8536 1.85355C15.0488 1.65829 15.0488 1.34171 14.8536 1.14645C14.6583 0.951184 14.3417 0.951184 14.1464 1.14645L9 6.29289V2.50599C9 2.07242 8.48587 1.84434 8.16444 2.13532L5.57144 4.48269C5.20366 4.81563 4.72528 5 4.22919 5H4C2.89543 5 2 5.89543 2 7V9C2 10.1046 2.89543 11 4 11H4.22715C4.24875 11 4.27032 11.0003 4.29185 11.001L1.14645 14.1464C0.951184 14.3417 0.951184 14.6583 1.14645 14.8536C1.34171 15.0488 1.65829 15.0488 1.85355 14.8536L14.8536 1.85355Z" fill="#2D50E6"/>
<path d="M8.16378 13.8743L6.11151 12.0098L9 9.12132V13.5042C9 13.9382 8.48501 14.1662 8.16378 13.8743Z" fill="#2D50E6"/>
<path d="M10 8.12132V10.4713C10 10.9098 10.4712 11.1698 10.7861 10.8643C11.5348 10.1381 12 9.12187 12 7.99705C12 7.4437 11.8874 6.91663 11.6839 6.43743L10 8.12132Z" fill="#2D50E6"/>
<path d="M13 8C13 7.16568 12.7957 6.37893 12.4341 5.68717L13.1692 4.9521C13.697 5.84521 14 6.88712 14 8C14 10.3324 12.6691 12.353 10.7276 13.3455C10.4817 13.4712 10.1805 13.3738 10.0548 13.1279C9.92911 12.882 10.0265 12.5808 10.2724 12.4551C11.8926 11.6269 13 9.94232 13 8Z" fill="#2D50E6"/>
</svg>
