<svg width="16" height="16" viewBox="0 0 16 16" fill="none" xmlns="http://www.w3.org/2000/svg">
<path d="M2 7.00012C2 5.89555 2.89543 5.00012 4 5.00012H4.22919C4.72528 5.00012 5.20366 4.81575 5.57144 4.48281L8.16444 2.13544C8.48587 1.84446 9 2.07254 9 2.50611V13.5044C9 13.9384 8.48501 14.1663 8.16378 13.8744L5.57203 11.5198C5.20394 11.1854 4.72447 11.0001 4.22715 11.0001H4C2.89543 11.0001 2 10.1047 2 9.00012V7.00012Z" fill="#2D50E6"/>
<path d="M10.0548 2.87224C10.1805 2.62636 10.4817 2.52893 10.7276 2.65462C12.6691 3.64711 14 5.66775 14 8.00012C14 10.3325 12.6691 12.3531 10.7276 13.3456C10.4817 13.4713 10.1805 13.3739 10.0548 13.128C9.92911 12.8821 10.0265 12.5809 10.2724 12.4552C11.8926 11.627 13 9.94244 13 8.00012C13 6.0578 11.8926 4.37326 10.2724 3.54503C10.0265 3.41934 9.92911 3.11812 10.0548 2.87224Z" fill="#2D50E6"/>
<path d="M10 5.52296C10 5.08439 10.4712 4.82438 10.7861 5.12989C11.5348 5.85607 12 6.87235 12 7.99717C12 9.12199 11.5348 10.1383 10.7861 10.8645C10.4712 11.17 10 10.91 10 10.4714V5.52296Z" fill="#2D50E6"/>
</svg>
