<svg width="16" height="16" viewBox="0 0 16 16" fill="none" xmlns="http://www.w3.org/2000/svg">
<path fill-rule="evenodd" clip-rule="evenodd" d="M16 10C16 5.58172 12.4183 2 8 2C3.58172 2 0 5.58172 0 10C0 12 3 14 8 14C13 14 16 12 16 10ZM3 7.5C3 7.77614 2.77614 8 2.5 8C2.22386 8 2 7.77614 2 7.5C2 7.22386 2.22386 7 2.5 7C2.77614 7 3 7.22386 3 7.5ZM13.5 8C13.2239 8 13 7.77614 13 7.5C13 7.22386 13.2239 7 13.5 7C13.7761 7 14 7.22386 14 7.5C14 7.77614 13.7761 8 13.5 8ZM5 5C5 5.27614 4.77614 5.5 4.5 5.5C4.22386 5.5 4 5.27614 4 5C4 4.72386 4.22386 4.5 4.5 4.5C4.77614 4.5 5 4.72386 5 5ZM8 4.5C8.27614 4.5 8.5 4.27614 8.5 4C8.5 3.72386 8.27614 3.5 8 3.5C7.72386 3.5 7.5 3.72386 7.5 4C7.5 4.27614 7.72386 4.5 8 4.5ZM11 5C11 5.27614 11.2239 5.5 11.5 5.5C11.7761 5.5 12 5.27614 12 5C12 4.72386 11.7761 4.5 11.5 4.5C11.2239 4.5 11 4.72386 11 5ZM7 10C7 9.44772 7.44772 9 8 9C10.5523 9 14 9.44772 14 10C14 10.5523 10.5523 11 8 11C7.44772 11 7 10.5523 7 10Z" fill="#2D50E6"/>
</svg>
