<svg width="16" height="16" viewBox="0 0 16 16" fill="none" xmlns="http://www.w3.org/2000/svg">
<path d="M7.38848 1.3693C7.63862 0.876902 8.36138 0.876901 8.61152 1.3693L10.2463 4.58733C10.3457 4.78286 10.5377 4.91839 10.7598 4.94975L14.4154 5.46578C14.9747 5.54474 15.1981 6.21251 14.7933 6.59579L12.1481 9.10069C11.9874 9.25288 11.9141 9.47217 11.952 9.68708L12.5764 13.224C12.672 13.7652 12.0873 14.1779 11.587 13.9224L8.31734 12.2525C8.11867 12.151 7.88133 12.151 7.68266 12.2525L4.41302 13.9224C3.91273 14.1779 3.32801 13.7652 3.42356 13.224L4.048 9.68708C4.08595 9.47217 4.0126 9.25288 3.85188 9.10069L1.20668 6.59579C0.80194 6.21252 1.02528 5.54474 1.58462 5.46578L5.2402 4.94975C5.46231 4.91839 5.65432 4.78286 5.75366 4.58733L7.38848 1.3693Z" fill="#2D50E6"/>
</svg>
