<svg width="16" height="16" viewBox="0 0 16 16" fill="none" xmlns="http://www.w3.org/2000/svg">
<path fill-rule="evenodd" clip-rule="evenodd" d="M2.87914 6.67404C3.05917 6.88343 3.03536 7.19911 2.82597 7.37914C2.60346 7.57044 2.5 7.83197 2.5 8C2.5 8.11345 2.54965 8.25918 2.71583 8.4338C2.88446 8.61099 3.15211 8.79332 3.52109 8.95731C4.25779 9.28473 5.31057 9.5 6.5 9.5C7.18458 9.5 7.82738 9.42862 8.39216 9.30387C8.66181 9.24432 8.92868 9.41463 8.98823 9.68427C9.04779 9.95391 8.87748 10.2208 8.60784 10.2803C7.96766 10.4217 7.25227 10.5 6.5 10.5C5.20415 10.5 4.00693 10.2676 3.11495 9.87112C2.66959 9.67318 2.27823 9.42454 1.99143 9.12318C1.70219 8.81925 1.5 8.43883 1.5 8C1.5 7.50686 1.75747 6.979 2.17403 6.62086C2.38343 6.44083 2.69911 6.46464 2.87914 6.67404ZM8 1C11.866 1 15 1.74619 15 2.66667C15 3.06231 14.6869 3.3536 14.3085 3.70568C13.7305 4.24349 13 4.92317 13 6.33333C13 6.99983 13.1666 7.33317 13.3332 7.66642C13.4999 7.99975 13.6667 8.33333 13.6667 9C13.6667 10.1985 12.3199 10.7237 10.8371 11.3019C9.02074 12.0101 7 12.798 7 15C6.11111 14.6666 4.33333 13.6667 4.33333 12.3334C4.33333 11.4536 4.70477 10.7597 5.05554 10.1044C5.36933 9.51829 5.66666 8.96285 5.66666 8.33333C5.66666 7.43436 4.72381 6.80476 3.6857 6.11157C2.41429 5.26259 1 4.3182 1 2.66667C1 1.74619 4.13401 1 8 1ZM8 3.5C11.3137 3.5 14 3.05228 14 2.5C14 1.94771 11.3137 1.5 8 1.5C4.68629 1.5 2 1.94771 2 2.5C2 3.05228 4.68629 3.5 8 3.5ZM14.9382 6.2593C15.0712 6.50133 14.9827 6.80531 14.7407 6.93825C13.8846 7.40845 12.5358 8 11 8C10.0324 8 9.12394 7.87049 8.35742 7.64245C8.09275 7.56371 7.94202 7.28532 8.02076 7.02064C8.0995 6.75596 8.3779 6.60523 8.64258 6.68397C9.30616 6.88139 10.1175 7 11 7C12.2915 7 13.4654 6.49777 14.2593 6.06175C14.5013 5.92881 14.8053 6.01726 14.9382 6.2593Z" fill="#2D50E6"/>
</svg>
