<svg width="16" height="16" viewBox="0 0 16 16" fill="none" xmlns="http://www.w3.org/2000/svg">
<path d="M4.11111 2C3.83497 2 3.61111 2.22386 3.61111 2.5V3.33333C3.61111 3.60948 3.83497 3.83333 4.11111 3.83333H7.58333V6.27778H9.41667V3.83333H12.8889C13.165 3.83333 13.3889 3.60948 13.3889 3.33333V2.5C13.3889 2.22386 13.165 2 12.8889 2H4.11111Z" fill="#2D50E6"/>
<path d="M14 8.72222V7.5H3V8.72222H14Z" fill="#2D50E6"/>
<path d="M9.41667 9.94444V12.5C9.41667 12.7761 9.19281 13 8.91667 13H8.08333C7.80719 13 7.58333 12.7761 7.58333 12.5V9.94444H9.41667Z" fill="#2D50E6"/>
</svg>
