<svg width="16" height="16" viewBox="0 0 16 16" fill="none" xmlns="http://www.w3.org/2000/svg">
<g clip-path="url(#clip0_598_85)">
<path d="M8.00006 0C7.83683 0 7.69915 0.121543 7.6789 0.283508L7.49951 1.7187C7.46187 2.01978 7.69663 2.28571 8.00006 2.28571C8.30348 2.28571 8.53824 2.01978 8.50061 1.7187L8.32121 0.283508C8.30096 0.121543 8.16328 0 8.00006 0Z" fill="#2D50E6"/>
<path d="M8.00006 16C7.83683 16 7.69915 15.8785 7.6789 15.7165L7.49951 14.2813C7.46187 13.9802 7.69663 13.7143 8.00006 13.7143C8.30348 13.7143 8.53824 13.9802 8.50061 14.2813L8.32121 15.7165C8.30096 15.8785 8.16328 16 8.00006 16Z" fill="#2D50E6"/>
<path d="M2.31674 2.7707C2.21653 2.64186 2.22794 2.45856 2.34336 2.34314C2.45878 2.22773 2.64208 2.21631 2.77092 2.31653L3.9126 3.2045C4.15211 3.39079 4.17415 3.74484 3.9596 3.95939C3.74505 4.17394 3.391 4.1519 3.20472 3.91239L2.31674 2.7707Z" fill="#2D50E6"/>
<path d="M13.6571 13.6569C13.5416 13.7723 13.3583 13.7837 13.2295 13.6835L12.0878 12.7955C11.8483 12.6092 11.8263 12.2552 12.0408 12.0406C12.2554 11.8261 12.6094 11.8481 12.7957 12.0876L13.6837 13.2293C13.7839 13.3581 13.7725 13.5414 13.6571 13.6569Z" fill="#2D50E6"/>
<path d="M0 8C0 8.16323 0.121543 8.30091 0.283508 8.32115L1.7187 8.50055C2.01978 8.53819 2.28571 8.30342 2.28571 8C2.28571 7.69658 2.01978 7.46181 1.7187 7.49945L0.283508 7.67885C0.121543 7.69909 0 7.83677 0 8Z" fill="#2D50E6"/>
<path d="M15.7165 8.32115C15.8785 8.30091 16 8.16323 16 8C16 7.83677 15.8785 7.69909 15.7165 7.67885L14.2813 7.49945C13.9802 7.46181 13.7143 7.69658 13.7143 8C13.7143 8.30342 13.9802 8.53819 14.2813 8.50055L15.7165 8.32115Z" fill="#2D50E6"/>
<path d="M2.77059 13.6835C2.64174 13.7837 2.45844 13.7723 2.34303 13.6569C2.22761 13.5414 2.2162 13.3581 2.31641 13.2293L3.20439 12.0876C3.39067 11.8481 3.74472 11.8261 3.95927 12.0406C4.17382 12.2552 4.15178 12.6092 3.91227 12.7955L2.77059 13.6835Z" fill="#2D50E6"/>
<path d="M13.6567 2.34314C13.7722 2.45856 13.7836 2.64186 13.6834 2.7707L12.7954 3.91239C12.6091 4.1519 12.255 4.17394 12.0405 3.95939C11.8259 3.74483 11.848 3.39079 12.0875 3.2045L13.2292 2.31652C13.358 2.21631 13.5413 2.22773 13.6567 2.34314Z" fill="#2D50E6"/>
<path d="M8 12.5714C10.5247 12.5714 12.5714 10.5247 12.5714 8C12.5714 5.47527 10.5247 3.42857 8 3.42857C5.47527 3.42857 3.42857 5.47527 3.42857 8C3.42857 10.5247 5.47527 12.5714 8 12.5714Z" fill="#2D50E6"/>
</g>
<defs>
<clipPath id="clip0_598_85">
<rect width="16" height="16" fill="white"/>
</clipPath>
</defs>
</svg>
