<svg width="16" height="16" viewBox="0 0 16 16" fill="none" xmlns="http://www.w3.org/2000/svg">
<path d="M1 2C1 1.44772 1.44772 1 2 1H14C14.5523 1 15 1.44772 15 2V4C15 4.55228 14.5523 5 14 5C13.3871 5 12.8269 4.65374 12.5528 4.10557L12.4472 3.89443C12.1731 3.34626 11.6129 3 11 3C10.7672 3 10.3754 3 9.99993 3C9.44765 3 9 3.44772 9 4V10.75C9 11.5369 9.37049 12.2779 10 12.75L10.6 13.2C10.8518 13.3889 11 13.6852 11 14C11 14.5523 10.5523 15 10 15H6C5.44772 15 5 14.5523 5 14C5 13.6852 5.14819 13.3889 5.4 13.2L6 12.75C6.62951 12.2779 7 11.5369 7 10.75V4C7 3.44772 6.55235 3 6.00007 3C5.6246 3 5.23277 3 5 3C4.38713 3 3.82687 3.34626 3.55279 3.89443L3.375 4.25C3.14518 4.70965 2.67544 5 2.16154 5C2.10895 5 2.055 5 2 5C1.44772 5 1 4.55228 1 4V2Z" fill="#2D50E6"/>
</svg>
