<svg width="16" height="16" viewBox="0 0 16 16" fill="none" xmlns="http://www.w3.org/2000/svg">
<path d="M11 4.5V9C11 9.98186 10.5152 10.4789 9.91965 11.0896C9.55022 11.4684 9.13815 11.891 8.77273 12.5C8.29654 13.2936 8.37464 14.1665 8.5725 14.842C8.72543 15.364 8.3622 16 7.81818 16C7.09076 16 5.5 14.9091 5.5 13C5.5 12.3636 5.77287 11.6057 6 11C2.85086 11 1 10.5 1 7C1 2 5 2 6.5 2C8 2 11 2.59322 11 4.5Z" fill="#2D50E6"/>
<path d="M12.9117 11C13.8418 11 14.6628 10.3606 14.8064 9.44174C14.9435 8.56484 14.9996 7.78101 15 7C15.0004 6.21355 14.9439 5.42994 14.8072 4.55701C14.6633 3.63866 13.8424 3 12.9128 3H12.4999C12.2238 3 11.9999 3.22386 11.9999 3.5V10.5C11.9999 10.7761 12.2238 11 12.4999 11H12.9117Z" fill="#2D50E6"/>
</svg>
