<svg width="16" height="16" viewBox="0 0 16 16" fill="none" xmlns="http://www.w3.org/2000/svg">
<path d="M5 12.5V8C5 7.01814 5.48478 6.52106 6.08035 5.91038C6.44978 5.53157 6.86185 5.10905 7.22727 4.5C7.70346 3.70636 7.62536 2.83354 7.4275 2.15804C7.27457 1.63595 7.63779 1 8.18182 1C8.90924 1 10.5 2.09091 10.5 4C10.5 4.63636 10.2271 5.39432 10 6C13.1491 6 15 6.5 15 10C15 15 11 15 9.5 15C8 15 5 14.4068 5 12.5Z" fill="#2D50E6"/>
<path d="M3.08828 7C2.15823 7 1.33716 7.63936 1.19357 8.55826C1.05655 9.43516 1.0004 10.219 1 11C0.999601 11.7865 1.05606 12.5701 1.19283 13.443C1.33672 14.3613 2.15765 15 3.08721 15H3.50008C3.77622 15 4.00008 14.7761 4.00008 14.5V7.5C4.00008 7.22386 3.77622 7 3.50008 7H3.08828Z" fill="#2D50E6"/>
</svg>
