<svg width="16" height="16" viewBox="0 0 16 16" fill="none" xmlns="http://www.w3.org/2000/svg">
<path d="M3 1C1.89543 1 1 1.89543 1 3V5C1 6.10457 1.89543 7 3 7H5C6.10457 7 7 6.10457 7 5V3C7 1.89543 6.10457 1 5 1H3Z" fill="#2D50E6"/>
<path d="M3 9C1.89543 9 1 9.89543 1 11V13C1 14.1046 1.89543 15 3 15H5C6.10457 15 7 14.1046 7 13V11C7 9.89543 6.10457 9 5 9H3Z" fill="#2D50E6"/>
<path d="M9 3C9 1.89543 9.89543 1 11 1H13C14.1046 1 15 1.89543 15 3V5C15 6.10457 14.1046 7 13 7H11C9.89543 7 9 6.10457 9 5V3Z" fill="#2D50E6"/>
<path d="M11 9C9.89543 9 9 9.89543 9 11V13C9 14.1046 9.89543 15 11 15H13C14.1046 15 15 14.1046 15 13V11C15 9.89543 14.1046 9 13 9H11Z" fill="#2D50E6"/>
</svg>
