<svg width="16" height="16" viewBox="0 0 16 16" fill="none" xmlns="http://www.w3.org/2000/svg">
<path d="M4 5C4 2.79086 5.79086 1 8 1C10.2091 1 12 2.79086 12 5V10.6707C11.8501 10.6177 11.6948 10.5763 11.535 10.5476C11.0816 9.91337 10.3391 9.5 9.5 9.5C9.25685 9.5 9.02181 9.53471 8.79956 9.59945C8.29824 9.22304 7.67517 9 7 9C5.86186 9 4.87175 9.63379 4.36335 10.5677C4.2392 10.5945 4.11791 10.629 4 10.6707V5Z" fill="#2D50E6"/>
<path d="M6.99983 10C6.06756 10 5.28427 10.6379 5.06259 11.501C5.0418 11.5003 5.02094 11.5 5 11.5C3.89543 11.5 3 12.3954 3 13.5C2.9999 13.7761 3.22371 14 3.49983 14H12.5C12.7761 14 12.9999 13.7761 13 13.5C13 12.3954 12.1046 11.5 11 11.5C10.9716 11.5 10.9434 11.5006 10.9153 11.5018C10.7098 10.9182 10.1538 10.5 9.5 10.5C9.16228 10.5 8.85065 10.6116 8.59994 10.8C8.23505 10.3142 7.65413 10 6.99983 10Z" fill="#2D50E6"/>
</svg>
