<svg width="16" height="16" viewBox="0 0 16 16" fill="none" xmlns="http://www.w3.org/2000/svg">
<circle cx="8" cy="8" r="7" fill="white"/>
<path d="M6.00002 2.34131C5.63292 2.47106 5.28221 2.63552 4.95185 2.83075L6.00002 3.87892V2.34131Z" fill="#2D50E6"/>
<path d="M10 3.87868V2.34131C10.3671 2.47104 10.7177 2.63547 11.048 2.83066L10 3.87868Z" fill="#2D50E6"/>
<path d="M3.87835 5.9999L2.83062 4.95216C2.6355 5.2824 2.47113 5.63296 2.34143 5.9999H3.87835Z" fill="#2D50E6"/>
<path d="M2.34143 9.9999H3.8788L2.83079 11.0479C2.63559 10.7176 2.47116 10.3669 2.34143 9.9999Z" fill="#2D50E6"/>
<path d="M6.00002 12.1213V13.6585C5.63302 13.5288 5.28241 13.3644 4.95213 13.1692L6.00002 12.1213Z" fill="#2D50E6"/>
<path d="M10 13.6585V12.1216L11.0478 13.1693C10.7175 13.3644 10.367 13.5288 10 13.6585Z" fill="#2D50E6"/>
<path d="M12.121 9.9999H13.6586C13.5289 10.367 13.3644 10.7177 13.1692 11.0481L12.121 9.9999Z" fill="#2D50E6"/>
<path d="M13.6586 5.9999H12.1214L13.1693 4.95201C13.3645 5.28229 13.5289 5.6329 13.6586 5.9999Z" fill="#2D50E6"/>
<path d="M9 2.08296C8.67479 2.0284 8.34071 2 8 2C7.65929 2 7.32521 2.0284 7 2.08296V7H2.08296C2.0284 7.32521 2 7.65929 2 8C2 8.34071 2.0284 8.67479 2.08296 9H7V13.917C7.32521 13.9716 7.65929 14 8 14C8.34071 14 8.67479 13.9716 9 13.917V9H13.917C13.9716 8.67479 14 8.34071 14 8C14 7.65929 13.9716 7.32521 13.917 7H9V2.08296Z" fill="#D95762"/>
<path d="M10 6H10.2072L12.345 3.86225C12.1145 3.62032 11.864 3.39761 11.5962 3.19678L10 4.793V6Z" fill="#D95762"/>
<path d="M6 6V5.79303L3.86212 3.65514C3.62019 3.88561 3.39748 4.13608 3.19666 4.40389L4.79276 6H6Z" fill="#D95762"/>
<path d="M6 10H5.793L3.65508 12.1379C3.88555 12.3798 4.13602 12.6025 4.40384 12.8034L6 11.2072V10Z" fill="#D95762"/>
<path d="M10 10.2072L12.1378 12.345C12.3797 12.1146 12.6024 11.8641 12.8033 11.5963L11.207 10H10V10.2072Z" fill="#D95762"/>
</svg>
