<svg width="16" height="16" viewBox="0 0 16 16" fill="none" xmlns="http://www.w3.org/2000/svg">
<path d="M8.5 1.5C8.5 1.22386 8.27614 1 8 1C7.72386 1 7.5 1.22386 7.5 1.5V1.51758C3.86736 1.77396 1 4.80212 1 8.5C1 7.67157 1.89543 7 3 7C4.10457 7 5 7.67157 5 8.5C5 7.75675 6.08114 7.13976 7.5 7.02074V13C7.5 13.5523 7.05228 14 6.5 14C5.94772 14 5.5 13.5523 5.5 13C5.5 12.7239 5.27614 12.5 5 12.5C4.72386 12.5 4.5 12.7239 4.5 13C4.5 14.1046 5.39543 15 6.5 15C7.60457 15 8.5 14.1046 8.5 13V7.02074C9.91886 7.13976 11 7.75675 11 8.5C11 7.67157 11.8954 7 13 7C14.1046 7 15 7.67157 15 8.5C15 4.80212 12.1326 1.77396 8.5 1.51758V1.5Z" fill="#2D50E6"/>
</svg>
