<svg width="16" height="16" viewBox="0 0 16 16" fill="none" xmlns="http://www.w3.org/2000/svg">
<path d="M14.8536 1.85355C15.0488 1.65829 15.0488 1.34171 14.8536 1.14645C14.6583 0.951184 14.3417 0.951184 14.1464 1.14645L10.4604 4.83248C10.3707 4.76997 10.2966 4.68635 10.2463 4.58733L8.61152 1.3693C8.36138 0.876901 7.63862 0.876902 7.38848 1.3693L5.75366 4.58733C5.65432 4.78286 5.46231 4.91839 5.2402 4.94975L1.58462 5.46578C1.02528 5.54474 0.80194 6.21252 1.20668 6.59579L3.85188 9.10069C4.0126 9.25288 4.08595 9.47217 4.048 9.68708L3.71401 11.5789L1.14645 14.1464C0.951184 14.3417 0.951184 14.6583 1.14645 14.8536C1.34171 15.0488 1.65829 15.0488 1.85355 14.8536L14.8536 1.85355Z" fill="#2D50E6"/>
<path d="M12.8732 5.24808L4.12181 13.9995C4.2184 13.9958 4.31726 13.9713 4.41302 13.9224L7.68266 12.2525C7.88133 12.151 8.11867 12.151 8.31734 12.2525L11.587 13.9224C12.0873 14.1779 12.672 13.7652 12.5764 13.224L11.952 9.68708C11.9141 9.47217 11.9874 9.25288 12.1481 9.10069L14.7933 6.59579C15.1981 6.21251 14.9747 5.54474 14.4154 5.46578L12.8732 5.24808Z" fill="#2D50E6"/>
</svg>
