<svg width="16" height="16" viewBox="0 0 16 16" fill="none" xmlns="http://www.w3.org/2000/svg">
<circle cx="8" cy="8" r="7" fill="white"/>
<path fill-rule="evenodd" clip-rule="evenodd" d="M8 2C7.04106 2 6.13467 2.22496 5.33071 2.62498C5.43452 2.7166 5.5 2.85065 5.5 3C5.5 3.27614 5.27614 3.5 5 3.5C4.7639 3.5 4.56602 3.33635 4.5136 3.1163C4.2898 3.27634 4.07747 3.45139 3.87807 3.63997C3.91709 3.63019 3.95794 3.625 4 3.625C4.27614 3.625 4.5 3.84886 4.5 4.125C4.5 4.40114 4.27614 4.625 4 4.625C3.72386 4.625 3.5 4.40114 3.5 4.125C3.5 4.08842 3.50393 4.05275 3.51139 4.0184C3.30766 4.2479 3.12126 4.49314 2.95425 4.75207C2.96932 4.7507 2.98458 4.75 3 4.75C3.27614 4.75 3.5 4.97386 3.5 5.25C3.5 5.52614 3.27614 5.75 3 5.75C2.8057 5.75 2.63729 5.63917 2.55453 5.47728C2.19864 6.24419 2 7.0989 2 8C2 8.16838 2.00694 8.33513 2.02054 8.5H8V2ZM7 3.5C7.27614 3.5 7.5 3.27614 7.5 3C7.5 2.72386 7.27614 2.5 7 2.5C6.72386 2.5 6.5 2.72386 6.5 3C6.5 3.27614 6.72386 3.5 7 3.5ZM6 4.625C6.27614 4.625 6.5 4.40114 6.5 4.125C6.5 3.84886 6.27614 3.625 6 3.625C5.72386 3.625 5.5 3.84886 5.5 4.125C5.5 4.40114 5.72386 4.625 6 4.625ZM5 5.75C5.27614 5.75 5.5 5.52614 5.5 5.25C5.5 4.97386 5.27614 4.75 5 4.75C4.72386 4.75 4.5 4.97386 4.5 5.25C4.5 5.52614 4.72386 5.75 5 5.75ZM7 5.75C7.27614 5.75 7.5 5.52614 7.5 5.25C7.5 4.97386 7.27614 4.75 7 4.75C6.72386 4.75 6.5 4.97386 6.5 5.25C6.5 5.52614 6.72386 5.75 7 5.75ZM4 6.875C4.27614 6.875 4.5 6.65114 4.5 6.375C4.5 6.09886 4.27614 5.875 4 5.875C3.72386 5.875 3.5 6.09886 3.5 6.375C3.5 6.65114 3.72386 6.875 4 6.875ZM6 6.875C6.27614 6.875 6.5 6.65114 6.5 6.375C6.5 6.09886 6.27614 5.875 6 5.875C5.72386 5.875 5.5 6.09886 5.5 6.375C5.5 6.65114 5.72386 6.875 6 6.875ZM3 8C3.27614 8 3.5 7.77614 3.5 7.5C3.5 7.22386 3.27614 7 3 7C2.72386 7 2.5 7.22386 2.5 7.5C2.5 7.77614 2.72386 8 3 8ZM5 8C5.27614 8 5.5 7.77614 5.5 7.5C5.5 7.22386 5.27614 7 5 7C4.72386 7 4.5 7.22386 4.5 7.5C4.5 7.77614 4.72386 8 5 8ZM7 8C7.27614 8 7.5 7.77614 7.5 7.5C7.5 7.22386 7.27614 7 7 7C6.72386 7 6.5 7.22386 6.5 7.5C6.5 7.77614 6.72386 8 7 8Z" fill="#2D50E6"/>
<path d="M11.3178 3C10.3675 2.36815 9.22674 2 8 2V3H11.3178Z" fill="#D95762"/>
<path d="M8 4.83333V3.83333H12.3173C12.6109 4.13751 12.8727 4.47263 13.0973 4.83333H8Z" fill="#D95762"/>
<path d="M8 6.66667V5.66667H13.5294C13.6646 5.98677 13.7729 6.32105 13.8513 6.66667H8Z" fill="#D95762"/>
<path d="M8 8.5H13.9795C13.9931 8.33513 14 8.16838 14 8C14 7.83162 13.9931 7.66487 13.9795 7.5H8V8.5Z" fill="#D95762"/>
<path d="M2.14868 9.33333C2.22711 9.67895 2.33537 10.0132 2.47061 10.3333H13.5294C13.6646 10.0132 13.7729 9.67895 13.8513 9.33333H2.14868Z" fill="#D95762"/>
<path d="M3.68272 12.1667C3.38909 11.8625 3.12731 11.5274 2.90275 11.1667H13.0973C12.8727 11.5274 12.6109 11.8625 12.3173 12.1667H3.68272Z" fill="#D95762"/>
<path d="M8 14C9.22674 14 10.3675 13.6318 11.3178 13H4.68221C5.63252 13.6318 6.77327 14 8 14Z" fill="#D95762"/>
</svg>
