<svg width="16" height="16" viewBox="0 0 16 16" fill="none" xmlns="http://www.w3.org/2000/svg">
<path d="M13.2 5.73333C13.0702 5.90642 13 6.11696 13 6.33333V9.66666C13 9.88303 13.0702 10.0936 13.2 10.2667L15.1 12.8C15.3883 13.1844 16 12.9805 16 12.5V3.49999C16 3.01949 15.3883 2.81559 15.1 3.19999L13.2 5.73333Z" fill="#2D50E6"/>
<path d="M4 2.99999C2.89543 2.99999 2 3.89542 2 4.99999V11C2 12.1046 2.89543 13 4 13H10C11.1046 13 12 12.1046 12 11V4.99999C12 3.89542 11.1046 2.99999 10 2.99999H4Z" fill="#2D50E6"/>
</svg>
