<svg width="16" height="16" viewBox="0 0 16 16" fill="none" xmlns="http://www.w3.org/2000/svg">
<path d="M4 7.5C3.48722 8.78196 2.88071 10 1.5 10H1.42857C1.19188 10 1 10.1919 1 10.4286V12C1 12.5523 1.44772 13 2 13H14C14.5523 13 15 12.5523 15 12V11.5C15 11.2239 14.7761 11 14.5 11H11.2127C10.1563 11 9.10601 10.437 9.01626 9.38439C9.00553 9.25853 9 9.13024 9 9C9 7.34315 9.89543 6 11 6C11.2984 6 11.5816 6.09804 11.8359 6.27381C12.1977 6.5238 12.6607 6.66967 13.054 6.47302C13.4571 6.27144 13.6541 5.79426 13.4264 5.40526C12.5891 3.97505 10.9211 3 9 3C6.23858 3 5 5 4 7.5Z" fill="#2D50E6"/>
<path d="M14 7.5C14 7.77614 13.7761 8 13.5 8C13.2239 8 13 7.77614 13 7.5C13 7.22386 13.2239 7 13.5 7C13.7761 7 14 7.22386 14 7.5Z" fill="#2D50E6"/>
</svg>
