<svg width="16" height="16" viewBox="0 0 16 16" fill="none" xmlns="http://www.w3.org/2000/svg">
<path fill-rule="evenodd" clip-rule="evenodd" d="M10.5 3.5C10.5 4.06592 10.312 4.58793 9.99495 5.00694L11.7268 8.0857C11.5586 8.12362 11.395 8.17365 11.237 8.23481C10.922 8.35674 10.6291 8.52293 10.3658 8.72575C10.2303 8.83013 10.1027 8.9442 9.984 9.06693L8.25181 5.98748C8.16899 5.99576 8.08499 6 8 6C6.61929 6 5.5 4.88071 5.5 3.5C5.5 2.11929 6.61929 1 8 1C9.38071 1 10.5 2.11929 10.5 3.5ZM8.5 3.5C8.5 3.77614 8.27614 4 8 4C7.72386 4 7.5 3.77614 7.5 3.5C7.5 3.22386 7.72386 3 8 3C8.27614 3 8.5 3.22386 8.5 3.5Z" fill="#2D50E6"/>
<path fill-rule="evenodd" clip-rule="evenodd" d="M5.96591 6.34857C6.20265 6.51793 6.46139 6.6585 6.73701 6.76518C6.89507 6.82637 7.05869 6.8764 7.22689 6.91433L5.49504 9.99317C5.812 10.4122 6 10.9341 6 11.5C6 12.8807 4.88071 14 3.5 14C2.11929 14 1 12.8807 1 11.5C1 10.1193 2.11929 9 3.5 9C3.58504 9 3.6691 9.00424 3.75196 9.01254L5.4841 5.93317C5.60279 6.05586 5.73037 6.16991 5.86581 6.27425C5.89872 6.2996 5.93209 6.32438 5.96591 6.34857ZM3.5 12C3.77614 12 4 11.7761 4 11.5C4 11.2239 3.77614 11 3.5 11C3.22386 11 3 11.2239 3 11.5C3 11.7761 3.22386 12 3.5 12Z" fill="#2D50E6"/>
<path fill-rule="evenodd" clip-rule="evenodd" d="M6.96436 12C6.98771 11.8367 6.9998 11.6698 6.9998 11.5C6.9998 11.3302 6.98771 11.1633 6.96436 11C6.9399 10.829 6.90321 10.6621 6.85498 10.5H10.2078C10.5936 9.61705 11.4746 9 12.4998 9C13.8805 9 14.9998 10.1193 14.9998 11.5C14.9998 12.8807 13.8805 14 12.4998 14C11.4746 14 10.5936 13.383 10.2078 12.5H6.85498C6.90321 12.3379 6.9399 12.171 6.96436 12ZM13 11.5C13 11.7761 12.7761 12 12.5 12C12.2239 12 12 11.7761 12 11.5C12 11.2239 12.2239 11 12.5 11C12.7761 11 13 11.2239 13 11.5Z" fill="#2D50E6"/>
</svg>
