<svg width="16" height="16" viewBox="0 0 16 16" fill="none" xmlns="http://www.w3.org/2000/svg">
<path d="M8 2.5C8 3.32843 7.32843 4 6.5 4C5.67157 4 5 3.32843 5 2.5C5 1.67157 5.67157 1 6.5 1C7.32843 1 8 1.67157 8 2.5Z" fill="#2D50E6"/>
<path d="M10.7043 6.04352C10.6635 6.02523 10.6198 6.01225 10.5741 6.00546L9.16074 5.7699C8.83139 5.71501 8.51105 5.55227 8.19224 5.39031C7.74401 5.16261 7.29879 4.93644 6.83576 5.01361C6.29099 5.10441 5.92297 5.61964 6.01376 6.16441L6.51376 9.16441C6.59413 9.6466 7.01132 10 7.50016 10H10.2295C10.4739 10 10.6825 10.1767 10.7227 10.4178L11.0138 12.1644C11.0941 12.6466 11.5113 13 12.0002 13L13 13C13.5523 13 14 12.5523 14 12C14 11.4477 13.5523 11 13 11L12.8473 11L12.4865 8.83561C12.4062 8.35342 11.989 8.00001 11.5002 8.00001H8.77085C8.52643 8.00001 8.31783 7.8233 8.27765 7.58221L8.18062 7H10.4918C10.5391 7.00084 10.5853 6.99494 10.6295 6.98308C10.7018 6.96374 10.7676 6.92861 10.8231 6.88161C10.8794 6.83396 10.9255 6.77374 10.9565 6.70432C10.9791 6.65385 10.9936 6.59893 10.9983 6.54125C11.0033 6.4825 10.9977 6.42491 10.9831 6.37052C10.9637 6.29819 10.9286 6.23232 10.8815 6.17684C10.8339 6.12053 10.7737 6.07452 10.7043 6.04352Z" fill="#2D50E6"/>
<path d="M5.11399 6.68393C3.8443 7.47949 3 8.89114 3 10.5C3 12.9853 5.01472 15 7.5 15C8.79213 15 9.95706 14.4554 10.7778 13.5832C10.5074 13.3742 10.292 13.0974 10.1571 12.7782C9.51517 13.5262 8.56292 14 7.5 14C5.567 14 4 12.433 4 10.5C4 9.40198 4.50562 8.42206 5.29673 7.78036L5.11399 6.68393Z" fill="#2D50E6"/>
</svg>
