<svg width="16" height="16" viewBox="0 0 16 16" fill="none" xmlns="http://www.w3.org/2000/svg">
<path fill-rule="evenodd" clip-rule="evenodd" d="M11.021 4.26383C11.7656 3.81707 12 3.33917 12 3C12 2.66083 11.7656 2.18293 11.021 1.73617C10.2963 1.30135 9.23063 1 8 1C6.76937 1 5.70366 1.30135 4.97896 1.73617C4.23436 2.18293 4 2.66083 4 3C4 3.33917 4.23436 3.81707 4.97896 4.26383C5.70366 4.69865 6.76937 5 8 5C9.23063 5 10.2963 4.69865 11.021 4.26383ZM8 3.25C8.27614 3.25 8.5 3.13807 8.5 3C8.5 2.86193 8.27614 2.75 8 2.75C7.72386 2.75 7.5 2.86193 7.5 3C7.5 3.13807 7.72386 3.25 8 3.25ZM8 2C6.89543 2 6 2.44772 6 3C6 3.55228 6.89543 4 8 4C9.10457 4 10 3.55228 10 3C10 2.86193 10.2239 2.75 10.5 2.75C10.7761 2.75 11 2.86193 11 3C11 3.82843 9.65685 4.5 8 4.5C6.34315 4.5 5 3.82843 5 3C5 2.17157 6.34315 1.5 8 1.5C8.27614 1.5 8.5 1.61193 8.5 1.75C8.5 1.88807 8.27614 2 8 2Z" fill="#2D50E6"/>
<path d="M4 7.29289V4.80029C4.91223 5.52879 6.3644 6 8 6C8.71111 6 9.38754 5.91093 10 5.75037V7.5C10 7.77614 10.2239 8 10.5 8C10.7761 8 11 7.77614 11 7.5V5.5C11 5.46728 10.9969 5.4353 10.9909 5.40433C11.3732 5.23283 11.7133 5.02927 12 4.80029V7C12 8 14 8 14 7C14 6.86193 14.2239 6.75 14.5 6.75C14.7761 6.75 15 6.86193 15 7C15 8.40877 14.0474 9.02369 13.2157 9.5605C12.5716 9.97631 12 10.3453 12 11V13C12 14.1046 10.2091 15 8 15C7.6547 15 7.31962 14.9781 7 14.937V12.5C7 12.2239 6.77614 12 6.5 12C6.22386 12 6 12.2239 6 12.5V14.7324C4.8044 14.3866 4 13.7403 4 13V9.19008C3.87646 9.25804 3.7477 9.34215 3.62485 9.44043C3.24301 9.74591 3 10.1174 3 10.5C3 10.7761 2.77614 11 2.5 11C2.22386 11 2 10.7761 2 10.5C2 9.68256 2.50699 9.05409 3.00015 8.65956C3.18765 8.50956 3.38501 8.3832 3.57573 8.28284L3.2093 7.9164C2.73039 7.82629 2.13894 7.63906 1.74977 7.25C1 6.50045 1 5 1 5C1 5 2.5 5 3.25 5.75C3.63933 6.13933 3.8266 6.73077 3.91667 7.20957L4 7.29289Z" fill="#2D50E6"/>
</svg>
