<svg width="16" height="16" viewBox="0 0 16 16" fill="none" xmlns="http://www.w3.org/2000/svg">
<path d="M9.41446 8.54353L14.5945 3.36349C15.1352 2.82281 15.1352 1.94619 14.5945 1.40551C14.0538 0.86483 13.1772 0.86483 12.6365 1.40551L7.45647 6.58556C6.99364 7.04839 6.64674 7.61406 6.44407 8.23645L6.01758 9.54613C5.92995 9.81524 6.18476 10.0701 6.45386 9.98242L7.76355 9.55594C8.38594 9.35327 8.95162 9.00637 9.41446 8.54353Z" fill="#2D50E6"/>
<path d="M3.75 2C2.7835 2 2 2.7835 2 3.75V12.25C2 13.2165 2.7835 14 3.75 14H12.25C13.2165 14 14 13.2165 14 12.25V7.75C14 7.33579 13.6642 7 13.25 7C12.8358 7 12.5 7.33579 12.5 7.75V12.25C12.5 12.3881 12.3881 12.5 12.25 12.5H3.75C3.61193 12.5 3.5 12.3881 3.5 12.25V3.75C3.5 3.61193 3.61193 3.5 3.75 3.5H8.25C8.66421 3.5 9 3.16421 9 2.75C9 2.33579 8.66421 2 8.25 2H3.75Z" fill="#2D50E6"/>
</svg>
