<svg width="16" height="16" viewBox="0 0 16 16" fill="none" xmlns="http://www.w3.org/2000/svg">
<path fill-rule="evenodd" clip-rule="evenodd" d="M2 6C2 3.23858 4.23858 1 7 1C9.76142 1 12 3.23858 12 6V8.15842C12 8.30051 11.9361 8.43311 11.8454 8.54252L11.8287 8.56301C11.6566 8.77811 11.3274 8.77205 11.1175 8.59374C10.9036 8.41211 10.6588 8.26582 10.3921 8.16391C10.1699 8.07903 10 7.87916 10 7.64136V6C10 5.85203 9.98929 5.70657 9.9686 5.56433L7.62104 8.85091C7.51035 8.97693 7.41214 9.11417 7.32833 9.26071L5.12652 12.3432C5.63989 12.7542 6.29124 13 7 13C7.45285 13 7.88226 12.8997 8.26723 12.72C8.29443 12.7073 8.32594 12.708 8.35261 12.7218C8.4064 12.7496 8.4232 12.8199 8.38536 12.8672L7.8287 13.563C7.62977 13.8117 7.52281 14.1042 7.50324 14.3996C7.48359 14.6962 7.29733 15 7 15C4.23858 15 2 12.7614 2 10V6ZM8.87339 3.65669L4.03138 10.4355C4.0107 10.2933 4 10.1479 4 10V6C4 4.34315 5.34315 3 7 3C7.70872 3 8.36004 3.24575 8.87339 3.65669Z" fill="#2D50E6"/>
<path d="M13.3904 9.81237C13.5629 9.59674 13.528 9.28209 13.3123 9.10958C13.0967 8.93708 12.7821 8.97204 12.6096 9.18767L8.60957 14.1877C8.43706 14.4033 8.47202 14.7179 8.68765 14.8905C8.90328 15.063 9.21793 15.028 9.39043 14.8124L13.3904 9.81237Z" fill="#2D50E6"/>
<path fill-rule="evenodd" clip-rule="evenodd" d="M9.5 12C10.3284 12 11 11.3284 11 10.5C11 9.67159 10.3284 9.00002 9.5 9.00002C8.67157 9.00002 8 9.67159 8 10.5C8 11.3284 8.67157 12 9.5 12ZM9.5 11C9.77614 11 10 10.7762 10 10.5C10 10.2239 9.77614 10 9.5 10C9.22386 10 9 10.2239 9 10.5C9 10.7762 9.22386 11 9.5 11Z" fill="#2D50E6"/>
<path fill-rule="evenodd" clip-rule="evenodd" d="M14 13.5C14 14.3284 13.3284 15 12.5 15C11.6716 15 11 14.3284 11 13.5C11 12.6716 11.6716 12 12.5 12C13.3284 12 14 12.6716 14 13.5ZM13 13.5C13 13.7762 12.7761 14 12.5 14C12.2239 14 12 13.7762 12 13.5C12 13.2239 12.2239 13 12.5 13C12.7761 13 13 13.2239 13 13.5Z" fill="#2D50E6"/>
</svg>
