<svg width="24" height="24" viewBox="0 0 24 24" fill="none" xmlns="http://www.w3.org/2000/svg">
<path d="M14.9393 4.43934C14.3536 5.02513 14.3536 5.97487 14.9393 6.56066L18.8787 10.5H5.12132L9.06066 6.56066C9.64645 5.97487 9.64645 5.02513 9.06066 4.43934C8.47487 3.85355 7.52513 3.85355 6.93934 4.43934L0.439339 10.9393C-0.146446 11.5251 -0.146446 12.4749 0.439339 13.0607L6.93934 19.5607C7.52513 20.1464 8.47487 20.1464 9.06066 19.5607C9.64645 18.9749 9.64645 18.0251 9.06066 17.4393L5.12132 13.5H18.8787L14.9393 17.4393C14.3536 18.0251 14.3536 18.9749 14.9393 19.5607C15.5251 20.1464 16.4749 20.1464 17.0607 19.5607L23.5607 13.0607C24.1464 12.4749 24.1464 11.5251 23.5607 10.9393L17.0607 4.43934C16.4749 3.85355 15.5251 3.85355 14.9393 4.43934Z" fill="#2D50E6"/>
</svg>
