<svg width="24" height="24" viewBox="0 0 24 24" fill="none" xmlns="http://www.w3.org/2000/svg">
<path d="M13 4V4.15938C13 4.66914 13.3855 5.09132 13.8841 5.19752C17.4791 5.96326 20.2797 8.87556 20.8804 12.5289C20.9479 12.9395 21.1929 13.3069 21.4366 13.6724C21.7192 14.0963 22 14.5174 22 15C22 15.5523 21.5523 16 21 16H13V17H17.882C18.6172 17 19.3424 17.1712 20 17.5L20.2584 17.6292C20.7461 17.873 21.2839 18 21.8292 18H22C22.5523 18 23 18.4477 23 19C23 19.5523 22.5523 20 22 20H2C1.44772 20 1 19.5523 1 19C1 18.4477 1.44772 18 2 18H2.17082C2.71611 18 3.25392 17.873 3.74164 17.6292L4 17.5C4.65763 17.1712 5.38278 17 6.11803 17H11V16.5V16H3C2.44772 16 2 15.5523 2 15C2 14.5174 2.28082 14.0963 2.56343 13.6724C2.80712 13.3069 3.05213 12.9395 3.11964 12.5289C3.72031 8.87556 6.52092 5.96326 10.1159 5.19752C10.6145 5.09132 11 4.66914 11 4.15938V4C11 3.44772 11.4477 3 12 3C12.5523 3 13 3.44772 13 4Z" fill="#2D50E6"/>
</svg>
