<svg width="24" height="24" viewBox="0 0 24 24" fill="none" xmlns="http://www.w3.org/2000/svg">
<path d="M14 2C14 2.13659 13.9863 2.26998 13.9602 2.39887C15.4511 3.03483 16.57 4.37418 16.9 6H18C19.1046 6 20 6.89543 20 8C20 9.10457 19.1046 10 18 10V21C18 22.1046 17.1046 23 16 23H8C6.89543 23 6 22.1046 6 21V19H9.5C9.77614 19 10 18.7761 10 18.5C10 18.2239 9.77614 18 9.5 18H6V16H9.5C9.77614 16 10 15.7761 10 15.5C10 15.2239 9.77614 15 9.5 15H6V13H9.5C9.77614 13 10 12.7761 10 12.5C10 12.2239 9.77614 12 9.5 12H6V10C4.89543 10 4 9.10457 4 8C4 6.89543 4.89543 6 6 6H7.10002C7.43004 4.37418 8.54894 3.03483 10.0398 2.39887C10.0137 2.26998 10 2.13659 10 2C10 0.895431 10.8954 0 12 0C13.1046 0 14 0.895431 14 2Z" fill="#2D50E6"/>
</svg>
