<svg width="24" height="24" viewBox="0 0 24 24" fill="none" xmlns="http://www.w3.org/2000/svg">
<path fill-rule="evenodd" clip-rule="evenodd" d="M4.1709 21C4.58252 22.1652 5.69385 23 7 23H17C18.3062 23 19.4175 22.1652 19.8291 21H21C21.5522 21 22 20.5523 22 20V16C22 14.8954 21.1045 14 20 14V10C20 6.63091 17.9175 3.74825 14.9692 2.56916C14.9473 2.41535 14.9136 2.2653 14.8687 2.11996C14.4927 0.892532 13.3506 0 12 0C10.4893 0 9.23975 1.11642 9.03076 2.56916C6.08252 3.74825 4 6.63091 4 10V14C2.89551 14 2 14.8954 2 16V20C2 20.5523 2.44775 21 3 21H4.1709ZM13.7231 1.98434C13.7368 2.00702 13.75 2.02999 13.7622 2.05324L13.7954 2.11814L13.8149 2.15913L13.8389 2.21237C13.2485 2.07348 12.6328 2 12 2C11.3672 2 10.7515 2.07348 10.1611 2.21237C10.4668 1.4994 11.1753 1 12 1C12.7339 1 13.3755 1.39519 13.7231 1.98434ZM18 10C18 6.68629 15.3135 4 12 4C8.68652 4 6 6.68629 6 10C6 10.5523 6.44771 11 7 11H17C17.5523 11 18 10.5523 18 10ZM8 12H10V17C10 17.5523 9.55228 18 9 18C8.44772 18 8 17.5523 8 17V12ZM16 12H14V17C14 17.5523 14.4477 18 15 18C15.5523 18 16 17.5523 16 17V12Z" fill="#2D50E6"/>
</svg>
