<svg width="24" height="24" viewBox="0 0 24 24" fill="none" xmlns="http://www.w3.org/2000/svg">
<path fill-rule="evenodd" clip-rule="evenodd" d="M1.19647 9.10459L11.3879 1.21394C11.7483 0.934873 12.2518 0.934873 12.6123 1.21394L22.8036 9.10459C23.1805 9.39638 22.9742 9.99994 22.4975 9.99994H20V10.9999C20 11.5522 19.5523 11.9999 19 11.9999V15.9999C19.5523 15.9999 20 16.4477 20 16.9999V17.9999C20.5523 17.9999 21 18.4477 21 18.9999V19.9999C21.5523 19.9999 22 20.4477 22 20.9999V21.9999H2.00005V20.9999C2.00005 20.4477 2.44777 19.9999 3.00005 19.9999V18.9999C3.00005 18.4477 3.44777 17.9999 4.00005 17.9999V16.9999C4.00005 16.4477 4.44777 15.9999 5.00005 15.9999V11.9999C4.44777 11.9999 4.00005 11.5522 4.00005 10.9999L4.00005 9.99994H1.50257C1.02594 9.99994 0.819591 9.39639 1.19647 9.10459ZM17.0001 11.9999V15.9999C16.4478 15.9999 16.0001 16.4477 16.0001 16.9999V17.9999H14.0001V16.9999C14.0001 16.4477 13.5523 15.9999 13.0001 15.9999V11.9999C13.5523 11.9999 14.0001 11.5522 14.0001 10.9999V9.99994H16.0001V10.9999C16.0001 11.5522 16.4478 11.9999 17.0001 11.9999ZM10 9.99994V10.9999C10 11.5522 10.4477 11.9999 11 11.9999V15.9999C10.4477 15.9999 10 16.4477 10 16.9999V17.9999H8.00005V16.9999C8.00005 16.4477 7.55234 15.9999 7.00005 15.9999V11.9999C7.55234 11.9999 8.00005 11.5522 8.00005 10.9999V9.99994H10ZM14.0001 5.99994C14.0001 7.10451 13.1046 7.99994 12.0001 7.99994C10.8955 7.99994 10.0001 7.10451 10.0001 5.99994C10.0001 4.89537 10.8955 3.99994 12.0001 3.99994C13.1046 3.99994 14.0001 4.89537 14.0001 5.99994Z" fill="#2D50E6"/>
</svg>
