<svg width="24" height="24" viewBox="0 0 24 24" fill="none" xmlns="http://www.w3.org/2000/svg">
<path d="M1 7C1 6.44771 1.44772 6 2 6C2.55228 6 3 6.44772 3 7V17C3 17.5523 2.55228 18 2 18C1.44772 18 1 17.5523 1 17V7Z" fill="#2D50E6"/>
<path d="M5 7C5 6.44772 5.44772 6 6 6C6.55228 6 7 6.44772 7 7V13C7 13.5523 6.55228 14 6 14C5.44772 14 5 13.5523 5 13V7Z" fill="#2D50E6"/>
<path d="M10 6C9.44771 6 9 6.44771 9 7V17C9 17.5523 9.44771 18 10 18C10.5523 18 11 17.5523 11 17V7C11 6.44772 10.5523 6 10 6Z" fill="#2D50E6"/>
<path d="M13 11C13 10.4477 13.4477 10 14 10C14.5523 10 15 10.4477 15 11V17C15 17.5523 14.5523 18 14 18C13.4477 18 13 17.5523 13 17V11Z" fill="#2D50E6"/>
<path d="M18 6C17.4477 6 17 6.44772 17 7V13C17 13.5523 17.4477 14 18 14C18.5523 14 19 13.5523 19 13V7C19 6.44772 18.5523 6 18 6Z" fill="#2D50E6"/>
<path d="M21 7C21 6.44771 21.4477 6 22 6C22.5523 6 23 6.44772 23 7V17C23 17.5523 22.5523 18 22 18C21.4477 18 21 17.5523 21 17V7Z" fill="#2D50E6"/>
<path d="M6 18C6.55228 18 7 17.5523 7 17C7 16.4477 6.55228 16 6 16C5.44772 16 5 16.4477 5 17C5 17.5523 5.44772 18 6 18Z" fill="#2D50E6"/>
<path d="M15 7C15 7.55228 14.5523 8 14 8C13.4477 8 13 7.55228 13 7C13 6.44772 13.4477 6 14 6C14.5523 6 15 6.44772 15 7Z" fill="#2D50E6"/>
<path d="M18 18C18.5523 18 19 17.5523 19 17C19 16.4477 18.5523 16 18 16C17.4477 16 17 16.4477 17 17C17 17.5523 17.4477 18 18 18Z" fill="#2D50E6"/>
</svg>
