<svg width="24" height="24" viewBox="0 0 24 24" fill="none" xmlns="http://www.w3.org/2000/svg">
<path fill-rule="evenodd" clip-rule="evenodd" d="M0 9C0 7.34315 1.34315 6 3 6H18C19.6569 6 21 7.34315 21 9V15C21 16.6569 19.6569 18 18 18H3C1.34315 18 0 16.6569 0 15V9ZM3 7H18C19.1046 7 20 7.89543 20 9V15C20 16.1046 19.1046 17 18 17H3C1.89543 17 1 16.1046 1 15V9C1 7.89543 1.89543 7 3 7Z" fill="#C0BEB8"/>
<path d="M24 12C24 13.1046 23.1046 14 22 14V10C23.1046 10 24 10.8954 24 12Z" fill="#C0BEB8"/>
</svg>
