<svg width="24" height="24" viewBox="0 0 24 24" fill="none" xmlns="http://www.w3.org/2000/svg">
<path d="M12 18C13.1046 18 14 17.0523 14 16.5C14 15.9925 13.244 15.9955 12.2645 15.9993C12.1779 15.9997 12.0897 16 12 16C11.9103 16 11.8221 15.9997 11.7355 15.9993C10.756 15.9955 10 15.9925 10 16.5C10 17.0523 10.8954 18 12 18Z" fill="#2D50E6"/>
<path fill-rule="evenodd" clip-rule="evenodd" d="M6 2C7.11709 2 8.14862 2.36634 8.981 2.98544C9.25742 3.19103 9.60755 3.28186 9.94477 3.21141C10.6081 3.07285 11.2955 3 12 3C12.7045 3 13.3919 3.07285 14.0552 3.21141C14.3924 3.28186 14.7426 3.19103 15.019 2.98544C15.8514 2.36634 16.8829 2 18 2C20.7614 2 23 4.23858 23 7C23 8.11709 22.6337 9.14862 22.0146 9.981C21.809 10.2574 21.7181 10.6076 21.7886 10.9448C21.9272 11.6081 22 12.2955 22 13C22 18.5228 17.5228 23 12 23C6.47715 23 2 18.5228 2 13C2 12.2955 2.07285 11.6081 2.21141 10.9448C2.28186 10.6076 2.19103 10.2574 1.98544 9.981C1.36634 9.14862 1 8.11709 1 7C1 4.23858 3.23858 2 6 2ZM12 20C14.7614 20 17 19.6569 17 18C17 16.3431 14.7614 14 12 14C9.23858 14 7 16.3431 7 18C7 19.6569 9.23858 20 12 20ZM15.5 13C16.3284 13 17 12.1046 17 11C17 9.89543 16.3284 9 15.5 9C14.6716 9 14 9.89543 14 11C14 12.1046 14.6716 13 15.5 13ZM10 11C10 12.1046 9.32843 13 8.5 13C7.67157 13 7 12.1046 7 11C7 9.89543 7.67157 9 8.5 9C9.32843 9 10 9.89543 10 11ZM6 6C5.44772 6 5 6.44772 5 7C5 7.55228 4.55228 8 4 8C3.44772 8 3 7.55228 3 7C3 5.34315 4.34315 4 6 4C6.55228 4 7 4.44772 7 5C7 5.55228 6.55228 6 6 6ZM19 7C19 6.44772 18.5523 6 18 6C17.4477 6 17 5.55228 17 5C17 4.44772 17.4477 4 18 4C19.6569 4 21 5.34315 21 7C21 7.55228 20.5523 8 20 8C19.4477 8 19 7.55228 19 7Z" fill="#2D50E6"/>
</svg>
