<svg width="24" height="24" viewBox="0 0 24 24" fill="none" xmlns="http://www.w3.org/2000/svg">
<path fill-rule="evenodd" clip-rule="evenodd" d="M6 6C6 5.44772 6.44772 5 7 5H10C10.5523 5 11 5.44772 11 6C11 6.55228 10.5523 7 10 7H9.53876L9.98321 8H14.7946L14.3501 7H14C13.4477 7 13 6.55228 13 6C13 5.44772 13.4477 5 14 5H15C15.3952 5 15.7533 5.23273 15.9138 5.59386L18.3406 11.0541C18.5551 11.0185 18.7754 11 19 11C21.2091 11 23 12.7909 23 15C23 17.2091 21.2091 19 19 19C16.7909 19 15 17.2091 15 15C15 13.7308 15.5912 12.5996 16.5132 11.8668L16.0241 10.7666L12.8321 15.5547C12.6466 15.8329 12.3344 16 12 16H8.87398C8.42994 17.7252 6.86384 19 5 19C2.79086 19 1 17.2091 1 15C1 12.7909 2.79086 11 5 11C5.46139 11 5.90453 11.0781 6.31692 11.2218L8.06267 8.60322L7.35013 7H7C6.44772 7 6 6.55228 6 6ZM17.3827 13.8232C17.142 14.1534 17 14.5601 17 15C17 16.1046 17.8954 17 19 17C20.1046 17 21 16.1046 21 15C21 13.9664 20.216 13.116 19.2103 13.0109L19.9138 14.5939C20.1381 15.0985 19.9108 15.6895 19.4061 15.9138C18.9015 16.1381 18.3105 15.9108 18.0862 15.4061L17.3827 13.8232ZM9.02415 10.7666L7.98042 12.3322C8.40086 12.8015 8.71204 13.3708 8.87398 14H10.4612L9.02415 10.7666ZM12.1759 12.9334L10.8721 10H14.1315L12.1759 12.9334ZM4.16795 14.4453L5.12876 13.0041C5.08619 13.0014 5.04326 13 5 13C3.89543 13 3 13.8954 3 15C3 16.1046 3.89543 17 5 17C5.74028 17 6.38663 16.5978 6.73244 16H5C4.6312 16 4.29234 15.797 4.11833 15.4719C3.94431 15.1467 3.96338 14.7522 4.16795 14.4453Z" fill="#2D50E6"/>
</svg>
