<svg width="24" height="24" viewBox="0 0 24 24" fill="none" xmlns="http://www.w3.org/2000/svg">
<g clip-path="url(#clip0_356_25)">
<path fill-rule="evenodd" clip-rule="evenodd" d="M20.4052 0.251887C20.2395 -0.0839621 19.7605 -0.0839626 19.5948 0.251887L18.7088 2.04713C18.643 2.1805 18.5157 2.27294 18.3686 2.29432L16.3874 2.58221C16.0168 2.63606 15.8688 3.09153 16.137 3.35295L16.7694 3.96944C16.2895 4.08484 15.7894 4.30014 15.372 4.69852C14.7861 5.25778 14.5 6.04496 14.5 7C14.5 7.16687 14.4913 7.32493 14.4748 7.47478L13.3536 6.35355C13.1583 6.15829 12.8417 6.15829 12.6464 6.35355L11.5762 7.42384C10.7678 7.14905 9.9013 7 9 7C4.58172 7 1 10.5817 1 15C1 19.4183 4.58172 23 9 23C13.4183 23 17 19.4183 17 15C17 14.0987 16.851 13.2322 16.5762 12.4238L17.6464 11.3536C17.8417 11.1583 17.8417 10.8417 17.6464 10.6464L16.1128 9.11279C16.3551 8.50981 16.5 7.81001 16.5 7C16.5 6.45504 16.6514 6.24222 16.753 6.14523C16.8803 6.0237 17.1086 5.91609 17.499 5.86728C17.5255 5.86398 17.5521 5.861 17.5791 5.85834L17.3621 7.12349C17.2988 7.49262 17.6862 7.77412 18.0177 7.59984L19.7897 6.66824C19.9214 6.59903 20.0786 6.59903 20.2103 6.66824L21.9823 7.59984C22.3138 7.77412 22.7012 7.49262 22.6379 7.12349L22.2995 5.15032C22.2744 5.00374 22.323 4.85417 22.4295 4.75036L23.863 3.35296C24.1312 3.09153 23.9832 2.63606 23.6126 2.58221L21.6314 2.29432C21.4843 2.27294 21.357 2.1805 21.2912 2.04713L20.4052 0.251887ZM5 15C5 12.7909 6.79086 11 9 11C9.55228 11 10 10.5523 10 10C10 9.44771 9.55228 9 9 9C5.68629 9 3 11.6863 3 15C3 15.5523 3.44772 16 4 16C4.55228 16 5 15.5523 5 15Z" fill="#2D50E6"/>
</g>
<defs>
<clipPath id="clip0_356_25">
<rect width="24" height="24" fill="white"/>
</clipPath>
</defs>
</svg>
