<svg width="24" height="24" viewBox="0 0 24 24" fill="none" xmlns="http://www.w3.org/2000/svg">
<path fill-rule="evenodd" clip-rule="evenodd" d="M14.7073 15.9646C15.0887 15.6088 15.6864 15.6293 16.0424 16.0107C16.3984 16.3921 16.3777 16.9899 15.9963 17.3458C14.888 18.3803 13.5395 18.9033 12 18.9033C10.4605 18.9033 9.11206 18.3802 8.00367 17.3458C7.6223 16.9898 7.60176 16.3921 7.95761 16.0107C8.3136 15.6294 8.9113 15.6088 9.29269 15.9646C10.0462 16.6679 10.9321 17.0141 12 17.0141C13.0679 17.0141 13.9539 16.6679 14.7073 15.9646ZM2.86365 4.84311V7.20853C2.86365 7.72319 2.44649 8.14035 1.93183 8.14035C1.41716 8.14035 1 7.72319 1 7.20853V4.84311C1 2.69086 2.69086 1 4.84311 1H7.20853C7.72319 1 8.14035 1.41716 8.14035 1.93183C8.14035 2.44649 7.72319 2.86365 7.20853 2.86365H4.84311C3.72012 2.86365 2.86365 3.72012 2.86365 4.84311ZM21.1363 7.20853V4.84311C21.1363 3.72012 20.2799 2.86365 19.1569 2.86365H16.7915C16.2768 2.86365 15.8596 2.44649 15.8596 1.93183C15.8596 1.41716 16.2768 1 16.7915 1H19.1569C21.3091 1 23 2.69086 23 4.84311V7.20853C23 7.72319 22.5828 8.14035 22.0682 8.14035C21.5535 8.14035 21.1363 7.72319 21.1363 7.20853ZM2.86365 16.7915V19.1569C2.86365 20.2799 3.72012 21.1363 4.84311 21.1363H7.20853C7.72319 21.1363 8.14035 21.5535 8.14035 22.0682C8.14035 22.5828 7.72319 23 7.20853 23H4.84311C2.69086 23 1 21.3091 1 19.1569V16.7915C1 16.2768 1.41716 15.8596 1.93183 15.8596C2.44649 15.8596 2.86365 16.2768 2.86365 16.7915ZM21.1363 19.1569V16.7915C21.1363 16.2768 21.5535 15.8596 22.0682 15.8596C22.5828 15.8596 23 16.2768 23 16.7915V19.1569C23 21.3091 21.3091 23 19.1569 23H16.7915C16.2768 23 15.8596 22.5828 15.8596 22.0682C15.8596 21.5535 16.2768 21.1363 16.7915 21.1363H19.1569C20.2799 21.1363 21.1363 20.2799 21.1363 19.1569ZM6.77255 10.9201V9.40298C6.77255 8.90133 7.15833 8.44842 7.68921 8.44842C8.2201 8.44842 8.60588 8.90133 8.60588 9.40298V10.9201C8.60588 11.4219 8.22007 11.8747 7.68921 11.8747C7.15836 11.8747 6.77255 11.4219 6.77255 10.9201ZM15.5245 10.9201V9.40298C15.5245 8.90133 15.9102 8.44842 16.4411 8.44842C16.972 8.44842 17.3578 8.90133 17.3578 9.40298V10.9201C17.3578 11.4219 16.972 11.8747 16.4411 11.8747C15.9103 11.8747 15.5245 11.4219 15.5245 10.9201ZM11.614 13.2899V9.39301C11.614 8.87138 12.0369 8.44842 12.5586 8.44842C13.0803 8.44842 13.5032 8.87135 13.5032 9.39301V13.3034C13.5032 14.3846 12.7072 15.1791 11.6262 15.1791H11.2551C10.7335 15.1791 10.3105 14.7562 10.3105 14.2345C10.3105 13.7128 10.7335 13.2899 11.2551 13.2899H11.614Z" fill="#2D50E6"/>
</svg>
