<svg width="24" height="24" viewBox="0 0 24 24" fill="none" xmlns="http://www.w3.org/2000/svg">
<path d="M22.7847 12.2529C22.7847 11.5052 22.7241 10.7534 22.5948 10.0178H12.2196V14.2536H18.161C17.9144 15.6197 17.1223 16.8282 15.9623 17.5961V20.3445H19.5069C21.5884 18.4287 22.7847 15.5995 22.7847 12.2529Z" fill="#4285F4"/>
<path d="M12.2197 23C15.1863 23 17.6882 22.0259 19.511 20.3446L15.9664 17.5962C14.9802 18.2671 13.707 18.647 12.2237 18.647C9.35408 18.647 6.92094 16.711 6.04792 14.1082H2.39014V16.9414C4.25743 20.6558 8.06072 23 12.2197 23Z" fill="#34A853"/>
<path d="M6.0438 14.1083C5.58304 12.7421 5.58304 11.2629 6.0438 9.89675V7.06348H2.39006C0.829942 10.1716 0.829942 13.8334 2.39006 16.9415L6.0438 14.1083Z" fill="#FBBC04"/>
<path d="M12.2197 5.35371C13.7879 5.32946 15.3035 5.91955 16.4393 7.00274L19.5797 3.8623C17.5912 1.99501 14.9519 0.968407 12.2197 1.00074C8.06072 1.00074 4.25743 3.34496 2.39014 7.06337L6.04388 9.89664C6.91286 7.28971 9.35003 5.35371 12.2197 5.35371Z" fill="#EA4335"/>
</svg>
