<svg width="24" height="24" viewBox="0 0 24 24" fill="none" xmlns="http://www.w3.org/2000/svg">
<path d="M20 4C20 2.34315 18.6569 1 17 1C15.3431 1 14 2.34315 14 4C14 4.37745 14.0697 4.73862 14.197 5.07134C14.3769 5.54186 14.3607 6.10376 14.0045 6.45997L10.4645 10H12V12H14V13.5355L17.54 9.9955C17.8962 9.63929 18.4581 9.62311 18.9287 9.80305C19.2614 9.93029 19.6225 10 20 10C21.6569 10 23 8.65685 23 7C23 5.34315 21.6569 4 20 4Z" fill="#2D50E6"/>
<path d="M13 14.5355V13H11V11H9.46447L6.45997 14.0045C6.10376 14.3607 5.54186 14.3769 5.07134 14.197C4.73862 14.0697 4.37745 14 4 14C2.34315 14 1 15.3431 1 17C1 18.6569 2.34315 20 4 20C4 21.6569 5.34315 23 7 23C8.65685 23 10 21.6569 10 20C10 19.6225 9.93029 19.2614 9.80305 18.9287C9.62311 18.4581 9.63929 17.8962 9.9955 17.54L13 14.5355Z" fill="#2D50E6"/>
</svg>
