<svg width="24" height="24" viewBox="0 0 24 24" fill="none" xmlns="http://www.w3.org/2000/svg">
<path d="M8 4C8 3.44772 7.55228 3 7 3C6.44772 3 6 3.44772 6 4C6 4.55228 5.54777 4.98957 5.00638 5.09873C2.72096 5.55953 1 7.57879 1 10C1 12.4212 2.72096 14.4405 5.00638 14.9013C5.54777 15.0104 6 15.4477 6 16L6 17C6 17.5523 6.44772 18 7 18C7.55228 18 8 17.5523 8 17V16C8 15.4477 8.44771 15 9 15H11.3063L10.9279 13.865L11.8916 12.9013L11.6454 12.4088L10.7042 12.0951L9.91603 13.2774C9.76285 13.5071 9.45241 13.5692 9.22265 13.416C8.99289 13.2628 8.9308 12.9524 9.08397 12.7226L10.2958 10.9049L11.865 11.4279L13.1464 10.1464C13.3417 9.95118 13.6583 9.95118 13.8536 10.1464C14.0488 10.3417 14.0488 10.6583 13.8536 10.8536L12.6084 12.0987L13.1084 13.0987L12.0721 14.135L12.3604 15L15 15C15.5523 15 16 15.4477 16 16V17C16 17.5523 16.4477 18 17 18C17.5523 18 18 17.5523 18 17V16C18 15.4477 18.4522 15.0104 18.9936 14.9013C21.279 14.4405 23 12.4212 23 10C23 7.23858 20.7614 5 18 5H9C8.44772 5 8 4.55228 8 4Z" fill="#2D50E6"/>
<path d="M14 21C14 22.1046 13.1046 23 12 23C10.8954 23 10 22.1046 10 21C10 19 12 17 12 17C12 17 14 19 14 21Z" fill="#2D50E6"/>
</svg>
