<svg width="24" height="24" viewBox="0 0 24 24" fill="none" xmlns="http://www.w3.org/2000/svg">
<path fill-rule="evenodd" clip-rule="evenodd" d="M14 23H4C4 20.3355 4.00005 18.3311 4.0001 16.5071C4.00017 13.7978 4.00023 11.4865 4.00009 8.00117C4.00005 6.89656 4.8955 6 6.00011 6H11.0001C11.0001 5.00004 11.0001 4.00007 11.0001 3.00011C11 1.8955 11.8955 1 13.0001 1H18C19.1046 1 20 1.89543 20 3V23H17V18.5C17 18.2239 16.7762 18 16.5 18H14.5C14.2238 18 14 18.2239 14 18.5V23ZM13.0001 8.49476C13.0029 8.22103 13.2256 8 13.5 8H14.5C14.7762 8 15 8.22386 15 8.5V10.5C15 10.7761 14.7762 11 14.5 11H13.5C13.2255 11 13.0027 10.7788 13.0001 10.5049L13.0001 8.49476ZM13.0001 13.4955C13.0025 13.2214 13.2254 13 13.5 13H14.5C14.7762 13 15 13.2239 15 13.5V15.5C15 15.7761 14.7762 16 14.5 16H13.5C13.2253 16 13.0023 15.7784 13.0001 15.5041L13.0001 13.4955ZM11 18.4948C10.9972 18.221 10.7745 18 10.5001 18H9.50006C9.22392 18 9.00006 18.2239 9.00006 18.5V20.5C9.00006 20.7761 9.22392 21 9.50006 21H10.5001C10.7738 21 10.9961 20.7801 11 20.5073C11 19.8364 11 19.1656 11 18.4948ZM13 3.5C13 3.22386 13.2239 3 13.5 3H14.5C14.7762 3 15 3.22386 15 3.5V5.5C15 5.77614 14.7762 6 14.5 6H13.5C13.2239 6 13 5.77614 13 5.5V3.5ZM16 3.5C16 3.22386 16.2239 3 16.5 3H17.5C17.7762 3 18 3.22386 18 3.5V5.5C18 5.77614 17.7762 6 17.5 6H16.5C16.2239 6 16 5.77614 16 5.5V3.5ZM16 10.5C16 10.7761 16.2239 11 16.5 11H17.5C17.7762 11 18 10.7761 18 10.5V8.5C18 8.22386 17.7762 8 17.5 8H16.5C16.2239 8 16 8.22386 16 8.5V10.5ZM16 15.5C16 15.7761 16.2239 16 16.5 16H17.5C17.7762 16 18 15.7761 18 15.5V13.5C18 13.2239 17.7762 13 17.5 13H16.5C16.2239 13 16 13.2239 16 13.5V15.5ZM6.00006 8.5C6.00006 8.22386 6.22392 8 6.50006 8H7.50006C7.7762 8 8.00006 8.22386 8.00006 8.5V10.5C8.00006 10.7761 7.7762 11 7.50006 11H6.50006C6.22392 11 6.00006 10.7761 6.00006 10.5V8.5ZM9.00006 8.5C9.00006 8.22386 9.22392 8 9.50006 8H10.5001C10.7762 8 11.0001 8.22386 11.0001 8.5V10.5C11.0001 10.7761 10.7762 11 10.5001 11H9.50006C9.22392 11 9.00006 10.7761 9.00006 10.5V8.5ZM7.50006 13C7.7762 13 8.00006 13.2239 8.00006 13.5V15.5C8.00006 15.7761 7.7762 16 7.50006 16H6.50006C6.22392 16 6.00006 15.7761 6.00006 15.5V13.5C6.00006 13.2239 6.22392 13 6.50006 13H7.50006ZM9.00006 15.5C9.00006 15.7761 9.22392 16 9.50006 16H10.5001C10.7762 16 11.0001 15.7761 11.0001 15.5V13.5C11.0001 13.2239 10.7762 13 10.5001 13H9.50006C9.22392 13 9.00006 13.2239 9.00006 13.5V15.5ZM7.50006 18C7.7762 18 8.00006 18.2239 8.00006 18.5V20.5C8.00006 20.7761 7.7762 21 7.50006 21H6.50006C6.22392 21 6.00006 20.7761 6.00006 20.5V18.5C6.00006 18.2239 6.22392 18 6.50006 18H7.50006Z" fill="#2D50E6"/>
</svg>
