<svg width="24" height="24" viewBox="0 0 24 24" fill="none" xmlns="http://www.w3.org/2000/svg">
<path d="M13 4.5V19.5C13 20.3284 13.6716 21 14.5 21C15.3284 21 16 20.3284 16 19.5V8C15.4477 8 15 7.55229 15 7V3C15 2.44772 15.4477 2 16 2C16 1.44772 16.4477 1 17 1C17.5523 1 18 1.44772 18 2C18.5523 2 19 2.44772 19 3V7C19 7.55229 18.5523 8 18 8V19.5C18 21.433 16.433 23 14.5 23C12.567 23 11 21.433 11 19.5V4.5C11 3.67157 10.3284 3 9.5 3C8.67157 3 8 3.67157 8 4.5V16C8.55228 16 9 16.4477 9 17V21C9 21.5523 8.55228 22 8 22C8 22.5523 7.55228 23 7 23C6.44772 23 6 22.5523 6 22C5.44772 22 5 21.5523 5 21V17C5 16.4477 5.44772 16 6 16V4.5C6 2.567 7.567 1 9.5 1C11.433 1 13 2.567 13 4.5Z" fill="#2D50E6"/>
</svg>
