<svg width="24" height="24" viewBox="0 0 24 24" fill="none" xmlns="http://www.w3.org/2000/svg">
<path d="M1.00538 6.93377C0.960552 6.34208 1.19524 5.77117 1.73084 5.51522C2.96954 4.92329 5.88221 4 12.0002 4C18.1182 4 21.0307 4.92331 22.2693 5.51524C22.8048 5.77118 23.0394 6.34203 22.9946 6.93364L22.9839 7.07552C22.9444 7.59702 22.5097 8 21.9867 8H2.01327C1.49029 8 1.05563 7.59703 1.01612 7.07555L1.00538 6.93377Z" fill="#2D50E6"/>
<path d="M2.31632 10C1.73427 10 1.27521 10.4952 1.31918 11.0755L1.58869 14.6327C1.60466 14.8435 1.7886 15 2 15C4.59291 15 6.72484 16.9737 6.97538 19.5007C7.00263 19.7755 7.22386 20 7.5 20H16.5C16.7761 20 16.9974 19.7755 17.0246 19.5007C17.2752 16.9737 19.4071 15 22 15C22.2115 15 22.3955 14.8435 22.4115 14.6326L22.6809 11.0755C22.7249 10.4951 22.2658 10 21.6838 10H15C14.4477 10 14 10.4477 14 11C14 12.1046 13.1046 13 12 13C10.8954 13 10 12.1046 10 11C10 10.4477 9.55228 10 9 10H2.31632Z" fill="#2D50E6"/>
<path d="M21.7323 17.0134C22.0071 16.9873 22.2146 17.2318 22.1938 17.5071L22.145 18.151C22.066 19.194 21.1963 20 20.1498 20H19.5C19.2239 20 18.9956 19.7744 19.0426 19.5023C19.2717 18.1772 20.3961 17.1404 21.7323 17.0134Z" fill="#2D50E6"/>
<path d="M4.95737 19.5023C5.00442 19.7744 4.77614 20 4.5 20H3.8505C2.80401 20 1.93428 19.194 1.85525 18.151L1.80647 17.5071C1.78561 17.2319 1.99316 16.9873 2.26797 17.0134C3.60402 17.1405 4.72829 18.1773 4.95737 19.5023Z" fill="#2D50E6"/>
<path d="M11 10C11 9.44771 11.4477 9 12 9C12.5523 9 13 9.44772 13 10V11C13 11.5523 12.5523 12 12 12C11.4477 12 11 11.5523 11 11V10Z" fill="#2D50E6"/>
</svg>
