<svg width="24" height="24" viewBox="0 0 24 24" fill="none" xmlns="http://www.w3.org/2000/svg">
<path fill-rule="evenodd" clip-rule="evenodd" d="M7.5 1C7.77614 1 8 1.22386 8 1.5V4H10V1.5C10 1.22386 10.2239 1 10.5 1C10.7761 1 11 1.22386 11 1.5V4H13V1.5C13 1.22386 13.2239 1 13.5 1C13.7761 1 14 1.22386 14 1.5V4H16V1.5C16 1.22386 16.2239 1 16.5 1C16.7761 1 17 1.22386 17 1.5V4C18.6569 4 20 5.34315 20 7H22.5C22.7761 7 23 7.22386 23 7.5C23 7.77614 22.7761 8 22.5 8H20V10H22.5C22.7761 10 23 10.2239 23 10.5C23 10.7761 22.7761 11 22.5 11H20V13H22.5C22.7761 13 23 13.2239 23 13.5C23 13.7761 22.7761 14 22.5 14H20V16H22.5C22.7761 16 23 16.2239 23 16.5C23 16.7761 22.7761 17 22.5 17H20C20 18.6569 18.6569 20 17 20V22.5C17 22.7761 16.7761 23 16.5 23C16.2239 23 16 22.7761 16 22.5V20H14V22.5C14 22.7761 13.7761 23 13.5 23C13.2239 23 13 22.7761 13 22.5V20H11V22.5C11 22.7761 10.7761 23 10.5 23C10.2239 23 10 22.7761 10 22.5V20H8V22.5C8 22.7761 7.77614 23 7.5 23C7.22386 23 7 22.7761 7 22.5V20C5.34315 20 4 18.6569 4 17H1.5C1.22386 17 1 16.7761 1 16.5C1 16.2239 1.22386 16 1.5 16H4V14H1.5C1.22386 14 1 13.7761 1 13.5C1 13.2239 1.22386 13 1.5 13H4V11H1.5C1.22386 11 1 10.7761 1 10.5C1 10.2239 1.22386 10 1.5 10H4V8H1.5C1.22386 8 1 7.77614 1 7.5C1 7.22386 1.22386 7 1.5 7H4C4 5.34315 5.34315 4 7 4V1.5C7 1.22386 7.22386 1 7.5 1ZM9 8C8.44772 8 8 8.44772 8 9V15C8 15.5523 8.44772 16 9 16H15C15.5523 16 16 15.5523 16 15V9C16 8.44772 15.5523 8 15 8H9Z" fill="#2D50E6"/>
</svg>
