<svg width="24" height="24" viewBox="0 0 24 24" fill="none" xmlns="http://www.w3.org/2000/svg">
<path d="M21.7071 3.70711C22.0976 3.31658 22.0976 2.68342 21.7071 2.29289C21.3166 1.90237 20.6834 1.90237 20.2929 2.29289L12.5858 10H0.5C0.223858 10 0 10.2239 0 10.5V13.5C0 13.7761 0.223857 14 0.5 14H8.58579L2.29289 20.2929C1.90237 20.6834 1.90237 21.3166 2.29289 21.7071C2.68342 22.0976 3.31658 22.0976 3.70711 21.7071L21.7071 3.70711Z" fill="#2D50E6"/>
<path d="M18.2429 10L14.2429 14H19.5C19.7761 14 20 13.7761 20 13.5V10.5C20 10.2239 19.7761 10 19.5 10H18.2429Z" fill="#2D50E6"/>
<path d="M23.5 10C23.7761 10 24 10.2239 24 10.5V13.5C24 13.7761 23.7761 14 23.5 14C23.2239 14 23 13.7761 23 13.5V10.5C23 10.2239 23.2239 10 23.5 10Z" fill="#2D50E6"/>
<path d="M22 10.5C22 10.2239 21.7761 10 21.5 10C21.2239 10 21 10.2239 21 10.5V13.5C21 13.7761 21.2239 14 21.5 14C21.7761 14 22 13.7761 22 13.5V10.5Z" fill="#2D50E6"/>
</svg>
