<svg width="24" height="24" viewBox="0 0 24 24" fill="none" xmlns="http://www.w3.org/2000/svg">
<path d="M14.9707 4.79422C15.1331 3.98188 14.6063 3.19164 13.794 3.02917C12.9816 2.86671 12.1914 3.39353 12.0289 4.20587L9.02893 19.2059C8.86646 20.0182 9.39329 20.8084 10.2056 20.9709C11.018 21.1334 11.8082 20.6066 11.9707 19.7942L14.9707 4.79422Z" fill="#2D50E6"/>
<path d="M7.49655 6.37893C8.11572 6.92931 8.17149 7.87742 7.62111 8.49659L4.50693 12L7.62111 15.5035C8.17149 16.1227 8.11572 17.0708 7.49655 17.6212C6.87737 18.1715 5.92926 18.1158 5.37889 17.4966L1.37889 12.9966C0.873705 12.4283 0.873705 11.5718 1.37889 11.0035L5.37889 6.5035C5.92926 5.88433 6.87737 5.82855 7.49655 6.37893Z" fill="#2D50E6"/>
<path d="M16.5035 6.37893C17.1226 5.82855 18.0708 5.88433 18.6211 6.5035L22.6211 11.0035C23.1263 11.5718 23.1263 12.4283 22.6211 12.9966L18.6211 17.4966C18.0708 18.1158 17.1226 18.1715 16.5035 17.6212C15.8843 17.0708 15.8285 16.1227 16.3789 15.5035L19.4931 12L16.3789 8.49659C15.8285 7.87742 15.8843 6.92931 16.5035 6.37893Z" fill="#2D50E6"/>
</svg>
