<svg width="24" height="24" viewBox="0 0 24 24" fill="none" xmlns="http://www.w3.org/2000/svg">
<path d="M17.7678 8.35355L21.5607 4.56066C22.1464 3.97487 22.1464 3.02513 21.5607 2.43934C20.9749 1.85355 20.0251 1.85355 19.4393 2.43934L15.6464 6.23223L13.7071 4.29289C13.4211 4.00689 12.991 3.92134 12.6173 4.07612C12.2436 4.2309 12 4.59554 12 5V5.99241L12 6V11C12 11.5523 12.4477 12 13 12H19C19.4045 12 19.7691 11.7564 19.9239 11.3827C20.0787 11.009 19.9931 10.5789 19.7071 10.2929L17.7678 8.35355Z" fill="#2D50E6"/>
<path d="M6.23223 15.6464L2.43934 19.4393C1.85355 20.0251 1.85355 20.9749 2.43934 21.5607C3.02513 22.1464 3.97487 22.1464 4.56066 21.5607L8.35355 17.7678L10.2929 19.7071C10.5789 19.9931 11.009 20.0787 11.3827 19.9239C11.7564 19.7691 12 19.4045 12 19V18.0076L12 18V13C12 12.4477 11.5523 12 11 12H5C4.59554 12 4.2309 12.2436 4.07612 12.6173C3.92134 12.991 4.0069 13.4211 4.29289 13.7071L6.23223 15.6464Z" fill="#2D50E6"/>
</svg>
