<svg width="24" height="24" viewBox="0 0 24 24" fill="none" xmlns="http://www.w3.org/2000/svg">
<path fill-rule="evenodd" clip-rule="evenodd" d="M5.5 1C7.98528 1 10 3.01472 10 5.5V8H14V5.5C14 3.01472 16.0147 1 18.5 1C20.9853 1 23 3.01472 23 5.5C23 7.98528 20.9853 10 18.5 10H16V14H18.5C20.9853 14 23 16.0147 23 18.5C23 20.9853 20.9853 23 18.5 23C16.0147 23 14 20.9853 14 18.5V16H10V18.5C10 20.9853 7.98528 23 5.5 23C3.01472 23 1 20.9853 1 18.5C1 16.0147 3.01472 14 5.5 14H8V10H5.5C3.01472 10 1 7.98528 1 5.5C1 3.01472 3.01472 1 5.5 1ZM14 14V10H10V14H14ZM8 5.5C8 4.11929 6.88071 3 5.5 3C4.11929 3 3 4.11929 3 5.5C3 6.88071 4.11929 8 5.5 8H8V5.5ZM16 18.5C16 19.8807 17.1193 21 18.5 21C19.8807 21 21 19.8807 21 18.5C21 17.1193 19.8807 16 18.5 16H16V18.5ZM21 5.5C21 6.88071 19.8807 8 18.5 8H16V5.5C16 4.11929 17.1193 3 18.5 3C19.8807 3 21 4.11929 21 5.5ZM5.5 16C4.11929 16 3 17.1193 3 18.5C3 19.8807 4.11929 21 5.5 21C6.88071 21 8 19.8807 8 18.5V16H5.5Z" fill="#2D50E6"/>
</svg>
