<svg width="24" height="24" viewBox="0 0 24 24" fill="none" xmlns="http://www.w3.org/2000/svg">
<path fill-rule="evenodd" clip-rule="evenodd" d="M2 6C2 4.89543 2.89543 4 4 4H20C21.1046 4 22 4.89543 22 6V17C22 17.3643 21.9026 17.7058 21.7324 18H23C23 19.1046 22.1046 20 21 20H3C1.89543 20 1 19.1046 1 18H2.26756C2.09739 17.7058 2 17.3643 2 17V6ZM11 19H13C13.5523 19 14 18.5523 14 18H10C10 18.5523 10.4477 19 11 19ZM4 17V6H20V17H4ZM12 5.5C12.2761 5.5 12.5 5.27614 12.5 5C12.5 4.72386 12.2761 4.5 12 4.5C11.7239 4.5 11.5 4.72386 11.5 5C11.5 5.27614 11.7239 5.5 12 5.5Z" fill="#2D50E6"/>
</svg>
