<svg width="24" height="24" viewBox="0 0 24 24" fill="none" xmlns="http://www.w3.org/2000/svg">
<path d="M12.7026 12.7038C12.3121 13.0943 11.6789 13.0943 11.2884 12.7038C10.8978 12.3133 10.8979 11.6801 11.2884 11.2896C11.6789 10.8991 12.3121 10.8991 12.7026 11.2896C13.0931 11.6801 13.0931 12.3133 12.7026 12.7038Z" fill="#2D50E6"/>
<path fill-rule="evenodd" clip-rule="evenodd" d="M12 23C18.0751 23 23 18.0751 23 12C23 5.92487 18.0751 1 12 1C5.92487 1 1 5.92487 1 12C1 18.0751 5.92487 23 12 23ZM16.8504 6.20783C17.1188 6.07563 17.4415 6.12899 17.653 6.34051C17.8643 6.55182 17.9178 6.87413 17.786 7.14237L14.8816 13.0559C14.4915 13.8502 13.849 14.4927 13.0547 14.8828L7.14117 17.7873C6.87292 17.919 6.55061 17.8655 6.3393 17.6542C6.12778 17.4427 6.07442 17.12 6.20662 16.8516L9.11845 10.9404C9.50809 10.1494 10.1482 9.5093 10.9392 9.11966L16.8504 6.20783Z" fill="#2D50E6"/>
</svg>
