<svg width="24" height="24" viewBox="0 0 24 24" fill="none" xmlns="http://www.w3.org/2000/svg">
<path fill-rule="evenodd" clip-rule="evenodd" d="M4 2C2.89543 2 2 2.89543 2 4V20C2 21.1046 2.89543 22 4 22H20C21.1046 22 22 21.1046 22 20V4C22 2.89543 21.1046 2 20 2H4ZM5.70711 4.29289C5.31658 3.90237 4.68342 3.90237 4.29289 4.29289C3.90237 4.68342 3.90237 5.31658 4.29289 5.70711L6.58579 8L4.29289 10.2929C3.90237 10.6834 3.90237 11.3166 4.29289 11.7071C4.68342 12.0976 5.31658 12.0976 5.70711 11.7071L8.70711 8.70711C9.09763 8.31658 9.09763 7.68342 8.70711 7.29289L5.70711 4.29289Z" fill="#2D50E6"/>
</svg>
