<svg width="24" height="24" viewBox="0 0 24 24" fill="none" xmlns="http://www.w3.org/2000/svg">
<g clip-path="url(#clip0_3441_95)">
<path fill-rule="evenodd" clip-rule="evenodd" d="M8.22364 4H15.7764C18.421 4 20.7541 5.73144 21.5143 8.26443C21.9243 9.63048 22.3334 10.9968 22.7425 12.3631L22.7436 12.3669L22.7461 12.3754C23.1152 13.6081 23.4842 14.8407 23.8539 16.0731C23.923 16.2853 23.9672 16.5024 23.9874 16.7202C24.0298 17.1674 23.9698 17.6091 23.8227 18.0165C23.6762 18.4243 23.4408 18.803 23.1228 19.1206C22.8822 19.3619 22.598 19.5646 22.2774 19.7149C21.9569 19.8662 21.6193 19.9561 21.2796 19.9876C20.8325 20.0299 20.3909 19.9699 19.9835 19.8228C19.5758 19.6764 19.1972 19.441 18.8795 19.1231C18.7246 18.9687 18.5857 18.7962 18.4662 18.6078L16.7277 16H7.27231L5.5338 18.6078C5.41435 18.7962 5.27536 18.9687 5.12045 19.1231C4.80285 19.441 4.42424 19.6764 4.01649 19.8228C3.60912 19.9699 3.16755 20.0299 2.72035 19.9876C2.38074 19.9561 2.04307 19.8662 1.72259 19.7149C1.40203 19.5646 1.11777 19.3619 0.877159 19.1206C0.559189 18.803 0.323773 18.4243 0.177288 18.0165C0.0302223 17.6091 -0.02982 17.1674 0.0125582 16.7202C0.0327713 16.5024 0.0770012 16.2853 0.146053 16.0731C0.516936 14.8368 0.887134 13.6003 1.25733 12.3638L1.25772 12.3626C1.66673 10.9964 2.07575 9.63029 2.48569 8.26443C3.24592 5.73144 5.57901 4 8.22364 4ZM7 8C7 7.44772 7.44772 7 8 7C8.55229 7 9 7.44772 9 8V9H10C10.5523 9 11 9.44772 11 10C11 10.5523 10.5523 11 10 11H9V12C9 12.5523 8.55229 13 8 13C7.44772 13 7 12.5523 7 12V11H6C5.44772 11 5 10.5523 5 10C5 9.44772 5.44772 9 6 9H7V8ZM14 11C14.5523 11 15 10.5523 15 10C15 9.44772 14.5523 9 14 9C13.4477 9 13 9.44772 13 10C13 10.5523 13.4477 11 14 11ZM17 8C17 8.55228 16.5523 9 16 9C15.4477 9 15 8.55228 15 8C15 7.44772 15.4477 7 16 7C16.5523 7 17 7.44772 17 8ZM18 11C18.5523 11 19 10.5523 19 10C19 9.44772 18.5523 9 18 9C17.4477 9 17 9.44772 17 10C17 10.5523 17.4477 11 18 11ZM17 12C17 12.5523 16.5523 13 16 13C15.4477 13 15 12.5523 15 12C15 11.4477 15.4477 11 16 11C16.5523 11 17 11.4477 17 12Z" fill="#2D50E6"/>
</g>
<defs>
<clipPath id="clip0_3441_95">
<rect width="24" height="24" fill="white"/>
</clipPath>
</defs>
</svg>
