<svg width="24" height="24" viewBox="0 0 24 24" fill="none" xmlns="http://www.w3.org/2000/svg">
<path d="M12 16C14.2091 16 16 14.2091 16 12C16 9.79086 14.2091 8 12 8C9.79086 8 8 9.79086 8 12C8 14.2091 9.79086 16 12 16Z" fill="#2D50E6"/>
<path fill-rule="evenodd" clip-rule="evenodd" d="M11 1H13V3.05493C17.1716 3.51608 20.4839 6.82838 20.9451 11H23V13H20.9451C20.4839 17.1716 17.1716 20.4839 13 20.9451V23H11V20.9451C6.82838 20.4839 3.51608 17.1716 3.05493 13H1V11H3.05493C3.51608 6.82838 6.82838 3.51608 11 3.05493V1ZM19 12C19 15.866 15.866 19 12 19C8.13401 19 5 15.866 5 12C5 8.13401 8.13401 5 12 5C15.866 5 19 8.13401 19 12Z" fill="#2D50E6"/>
</svg>
