<svg width="24" height="24" viewBox="0 0 24 24" fill="none" xmlns="http://www.w3.org/2000/svg">
<path fill-rule="evenodd" clip-rule="evenodd" d="M5 19C3.34315 19 2 17.6569 2 16V6C2 4.34315 3.34315 3 5 3H19C20.6569 3 22 4.34315 22 6V16C22 17.6569 20.6569 19 19 19H13V21H15C15.5523 21 16 21.4477 16 22C16 22.5523 15.5523 23 15 23H9C8.44771 23 8 22.5523 8 22C8 21.4477 8.44771 21 9 21H11V19H5ZM5 5C4.44772 5 4 5.44772 4 6V14C4 14.5523 4.44772 15 5 15H19C19.5523 15 20 14.5523 20 14V6C20 5.44772 19.5523 5 19 5H5Z" fill="#2D50E6"/>
</svg>
