<svg width="24" height="24" viewBox="0 0 24 24" fill="none" xmlns="http://www.w3.org/2000/svg">
<path fill-rule="evenodd" clip-rule="evenodd" d="M4.1232 4.32667C2.58146 4.47735 1.40056 5.63367 1.23844 7.17425C1.11103 8.38504 1 10.0108 1 12C1 13.9892 1.11103 15.615 1.23844 16.8257C1.40056 18.3663 2.58146 19.5226 4.1232 19.6733C5.8055 19.8377 8.38218 20 12 20C15.6178 20 18.1945 19.8377 19.8768 19.6733C21.4185 19.5226 22.5994 18.3663 22.7616 16.8257C22.889 15.615 23 13.9892 23 12C23 10.0108 22.889 8.38504 22.7616 7.17425C22.5994 5.63367 21.4185 4.47735 19.8768 4.32667C18.1945 4.16226 15.6178 4 12 4C8.38218 4 5.8055 4.16226 4.1232 4.32667ZM11.4363 7.64888C11.3027 7.29255 10.9784 7.04295 10.5997 7.00499C10.2211 6.96703 9.8537 7.14729 9.652 7.47L7.44575 11H5C4.44772 11 4 11.4477 4 12C4 12.5523 4.44772 13 5 13H8C8.34479 13 8.66526 12.8224 8.848 12.53L10.2747 10.2472L12.5637 16.3511C12.6973 16.7075 13.0216 16.9571 13.4003 16.995C13.7789 17.033 14.1463 16.8527 14.348 16.53L16.5542 13H19C19.5523 13 20 12.5523 20 12C20 11.4477 19.5523 11 19 11H16C15.6552 11 15.3347 11.1776 15.152 11.47L13.7253 13.7528L11.4363 7.64888Z" fill="#2D50E6"/>
</svg>
