<svg width="24" height="24" viewBox="0 0 24 24" fill="none" xmlns="http://www.w3.org/2000/svg">
<path d="M10.9601 1.28686L2.23632 6.57014C1.9151 6.76469 1.91503 7.2309 2.23619 7.42554L10.9596 12.7122C11.5962 13.0981 12.3944 13.0981 13.031 12.7122L21.7545 7.42554C22.0757 7.2309 22.0756 6.76468 21.7544 6.57014L13.0305 1.28685C12.3941 0.901452 11.5965 0.901453 10.9601 1.28686Z" fill="#2D50E6"/>
<path d="M21.2385 9.58793L13.0048 14.4069C12.3813 14.7719 11.6095 14.7719 10.986 14.4069L2.75218 9.58793C2.41901 9.39293 2.00007 9.63333 2.00007 10.0195V17.9977C2.00007 19.1023 2.89508 19.9977 3.99913 19.9977H19.9916C21.0957 19.9977 21.9907 19.1023 21.9907 17.9977V10.0195C21.9907 9.63333 21.5717 9.39293 21.2385 9.58793Z" fill="#2D50E6"/>
</svg>
