<svg width="24" height="24" viewBox="0 0 24 24" fill="none" xmlns="http://www.w3.org/2000/svg">
<path d="M12.7324 5C12.5568 5.30363 12.3036 5.5568 12 5.73244V8C12.5523 8 13 8.44772 13 9V9.41604C13.7505 9.74397 14.405 10.2508 14.9095 10.8827C15.4055 11.5039 16.0977 12 16.8927 12H18C20.2091 12 22 13.7909 22 16V18C22.5523 18 23 18.4477 23 19V19.5C23 19.7761 22.7761 20 22.5 20H17.5C17.2239 20 17 19.7761 17 19.5V19C17 18.4477 17.4477 18 18 18V17C18 16.4477 17.5523 16 17 16H16.8927C16.0977 16 15.4055 16.4961 14.9095 17.1173C13.9934 18.2648 12.5825 19 11 19C9.41747 19 8.00665 18.2648 7.09048 17.1173C6.59448 16.4961 5.90227 16 5.10732 16H3C3 16.5523 2.55228 17 2 17H1.5C1.22386 17 1 16.7761 1 16.5V11.5C1 11.2239 1.22386 11 1.5 11H2C2.55228 11 3 11.4477 3 12H5.10732C5.90227 12 6.59448 11.5039 7.09048 10.8827C7.59497 10.2508 8.24945 9.74397 9 9.41604V9C9 8.44772 9.44771 8 10 8V5.73244C9.69637 5.5568 9.4432 5.30363 9.26756 5H6.73244C6.38663 5.5978 5.74028 6 5 6C3.89543 6 3 5.10457 3 4C3 2.89543 3.89543 2 5 2C5.74028 2 6.38663 2.4022 6.73244 3H9.26756C9.61337 2.4022 10.2597 2 11 2C11.7403 2 12.3866 2.4022 12.7324 3H15.2676C15.6134 2.4022 16.2597 2 17 2C18.1046 2 19 2.89543 19 4C19 5.10457 18.1046 6 17 6C16.2597 6 15.6134 5.5978 15.2676 5H12.7324Z" fill="#2D50E6"/>
</svg>
