<svg width="24" height="24" viewBox="0 0 24 24" fill="none" xmlns="http://www.w3.org/2000/svg">
<path fill-rule="evenodd" clip-rule="evenodd" d="M3.89443 4.55279C3.72504 4.214 3.37877 4 3 4C2.62123 4 2.27496 4.214 2.10557 4.55279L1.10557 6.55279C1.03615 6.69164 1 6.84476 1 7V19C1 19.5523 1.44772 20 2 20H4C4.55228 20 5 19.5523 5 19V17H7V19C7 19.5523 7.44772 20 8 20H10C10.5523 20 11 19.5523 11 19V17H13V19C13 19.5523 13.4477 20 14 20H16C16.5523 20 17 19.5523 17 19V17H19V19C19 19.5523 19.4477 20 20 20H22C22.5523 20 23 19.5523 23 19V7C23 6.84476 22.9639 6.69164 22.8944 6.55279L21.8944 4.55279C21.725 4.214 21.3788 4 21 4C20.6212 4 20.275 4.214 20.1056 4.55279L19.1056 6.55279C19.0361 6.69164 19 6.84476 19 7V9H17V7C17 6.84476 16.9639 6.69164 16.8944 6.55279L15.8944 4.55279C15.725 4.214 15.3788 4 15 4C14.6212 4 14.275 4.214 14.1056 4.55279L13.1056 6.55279C13.0361 6.69164 13 6.84476 13 7V9H11V7C11 6.84476 10.9639 6.69164 10.8944 6.55279L9.89443 4.55279C9.72504 4.214 9.37877 4 9 4C8.62123 4 8.27497 4.214 8.10557 4.55279L7.10557 6.55279C7.03615 6.69164 7 6.84476 7 7V9H5V7C5 6.84476 4.96385 6.69164 4.89443 6.55279L3.89443 4.55279ZM19 15V11H17V15H19ZM13 15V11H11V15H13ZM7 15V11H5V15H7Z" fill="#2D50E6"/>
</svg>
