<svg width="24" height="24" viewBox="0 0 24 24" fill="none" xmlns="http://www.w3.org/2000/svg">
<path d="M1.19634 9.10459L11.3877 1.21394C11.7482 0.934873 12.2517 0.934873 12.6121 1.21394L22.8035 9.10459C23.1804 9.39638 22.974 9.99994 22.4974 9.99994H21.9999C21.4476 9.99994 20.9999 10.4477 20.9999 10.9999V20.9999L19 20.9999V10.9997C19 9.89527 18.1047 8.99988 17.0003 8.99981C13.6668 8.99958 10.3334 8.99983 7 8.99991C5.89543 8.99994 5 9.89537 5 10.9999V20.9999L2.99993 20.9999V10.9999C2.99993 10.4477 2.55221 9.99994 1.99993 9.99994H1.50245C1.02581 9.99994 0.819469 9.39639 1.19634 9.10459Z" fill="#2D50E6"/>
<path fill-rule="evenodd" clip-rule="evenodd" d="M6 11C6 10.4477 6.44772 10 7 10H17C17.5523 10 18 10.4477 18 11V21H6V11ZM7.5 11C7.22386 11 7 11.2239 7 11.5C7 11.7761 7.22386 12 7.5 12H16.5C16.7761 12 17 11.7761 17 11.5C17 11.2239 16.7761 11 16.5 11H7.5ZM7 13.5C7 13.2239 7.22386 13 7.5 13H16.5C16.7761 13 17 13.2239 17 13.5C17 13.7761 16.7761 14 16.5 14H7.5C7.22386 14 7 13.7761 7 13.5ZM7.5 15C7.22386 15 7 15.2239 7 15.5C7 15.7761 7.22386 16 7.5 16H16.5C16.7761 16 17 15.7761 17 15.5C17 15.2239 16.7761 15 16.5 15H7.5ZM7 17.5C7 17.2239 7.22386 17 7.5 17H16.5C16.7761 17 17 17.2239 17 17.5C17 17.7761 16.7761 18 16.5 18H7.5C7.22386 18 7 17.7761 7 17.5ZM7.5 19C7.22386 19 7 19.2239 7 19.5C7 19.7761 7.22386 20 7.5 20H16.5C16.7761 20 17 19.7761 17 19.5C17 19.2239 16.7761 19 16.5 19H7.5Z" fill="#2D50E6"/>
</svg>
