<svg width="24" height="24" viewBox="0 0 24 24" fill="none" xmlns="http://www.w3.org/2000/svg">
<path d="M4 15C4 11.5371 5.70293 9.20955 7.29432 7.03442C8.69006 5.1267 10 3.33626 10 1C13.277 3.13004 19.7755 8.80381 19.9943 14.6958C19.9981 14.7972 20 14.8986 20 15C20 18.3586 17.9303 21.2338 14.9968 22.4198C19.289 17.0836 16.3773 11.4123 13 9C13.5 14 12 15.5 11 16.5C11 15.5 10.7 14.2 9.5 13C9.5 13.6412 9.13458 14.3387 8.71614 15.1375C8.15564 16.2075 7.5 17.4591 7.5 19C7.5 20.6904 7.85717 21.3092 8.87338 22.366C6.0088 21.1485 4 18.3088 4 15Z" fill="#2D50E6"/>
</svg>
