<svg width="24" height="24" viewBox="0 0 24 24" fill="none" xmlns="http://www.w3.org/2000/svg">
<path d="M19.9922 2.17383C19.9976 2.11655 20 2.05856 20 2C20 0.895416 19.1045 0 18 0C17.5493 0 17.1338 0.148926 16.7993 0.400238C16.4048 0.696777 16.0811 1.09811 15.7578 1.4989C15.3369 2.02078 14.9165 2.54175 14.3418 2.82919L12 4L14.3418 5.17081C14.9165 5.45825 15.3369 5.97922 15.7578 6.5011C16.0811 6.90189 16.4048 7.30322 16.7993 7.59976C17.1338 7.85107 17.5493 8 18 8C19.1045 8 20 7.10458 20 6C20 5.91254 19.9941 5.82635 19.9834 5.74185C20.5903 5.39844 21 4.74707 21 4C21 3.25293 20.5903 2.60156 19.9834 2.25815L19.9922 2.17383Z" fill="#2D50E6"/>
<path d="M8 3.5C8 3.22385 8.22363 3 8.5 3H9.5C9.77637 3 10 3.22385 10 3.5V5C11.1046 5 12 5.89543 12 7C12.5522 7 13 7.44772 13 8V20C13 21.1046 12.1045 22 11 22H7C5.89551 22 5 21.1046 5 20V8C5 7.44772 5.44775 7 6 7C6 5.89543 6.89543 5 8 5V3.5Z" fill="#2D50E6"/>
</svg>
