<svg width="24" height="24" viewBox="0 0 24 24" fill="none" xmlns="http://www.w3.org/2000/svg">
<path fill-rule="evenodd" clip-rule="evenodd" d="M11.96 3.84365C12.1497 3.03725 11.6498 2.22971 10.8434 2.03997C10.037 1.85023 9.22947 2.35013 9.03972 3.15653L8.13536 7.00009H5.5C4.67157 7.00009 4 7.67166 4 8.50009C4 9.32852 4.67157 10.0001 5.5 10.0001H7.42948L6.4883 14.0001H3.5C2.67157 14.0001 2 14.6717 2 15.5001C2 16.3285 2.67157 17.0001 3.5 17.0001H5.78242L5.03972 20.1565C4.84998 20.9629 5.34989 21.7705 6.15629 21.9602C6.9627 22.15 7.77023 21.6501 7.95998 20.8437L8.86434 17.0001H12.7824L12.0397 20.1565C11.85 20.9629 12.3499 21.7705 13.1563 21.9602C13.9627 22.15 14.7702 21.6501 14.96 20.8437L15.8643 17.0001H18.5C19.3284 17.0001 20 16.3285 20 15.5001C20 14.6717 19.3284 14.0001 18.5 14.0001H16.5702L17.5114 10.0001H20.5C21.3284 10.0001 22 9.32852 22 8.50009C22 7.67166 21.3284 7.00009 20.5 7.00009H18.2173L18.96 3.84365C19.1497 3.03725 18.6498 2.22971 17.8434 2.03997C17.037 1.85023 16.2295 2.35013 16.0397 3.15653L15.1354 7.00009H11.2173L11.96 3.84365ZM13.4883 14.0001L14.4295 10.0001H10.5114L9.57023 14.0001H13.4883Z" fill="#2D50E6"/>
</svg>
