<svg width="24" height="24" viewBox="0 0 24 24" fill="none" xmlns="http://www.w3.org/2000/svg">
<path fill-rule="evenodd" clip-rule="evenodd" d="M18 8.74394C19.7478 8.12619 21 6.45933 21 4.5C21 2.01472 18.9853 0 16.5 0C14.0147 0 12 2.01472 12 4.5C12 6.45933 13.2522 8.12619 15 8.74394V17C15 19.2091 13.2091 21 11 21C8.79086 21 7 19.2091 7 17V16H10L4 7V17C4 20.866 7.13401 24 11 24C14.866 24 18 20.866 18 17V8.74394ZM16.5 6C17.3284 6 18 5.32843 18 4.5C18 3.67157 17.3284 3 16.5 3C15.6716 3 15 3.67157 15 4.5C15 5.32843 15.6716 6 16.5 6Z" fill="#2D50E6"/>
</svg>
