<svg width="24" height="24" viewBox="0 0 24 24" fill="none" xmlns="http://www.w3.org/2000/svg">
<path fill-rule="evenodd" clip-rule="evenodd" d="M18 7C18 9.08697 16.9345 10.9251 15.3178 12C16.9345 13.0749 18 14.913 18 17V20C18 20.5523 18.4477 21 19 21C19.5523 21 20 21.4477 20 22C20 22.5523 19.5523 23 19 23H5C4.44772 23 4 22.5523 4 22C4 21.4477 4.44772 21 5 21C5.55228 21 6 20.5523 6 20V17C6 14.913 7.06551 13.0749 8.68221 12C7.06551 10.9251 6 9.08697 6 7V4C6 3.44772 5.55228 3 5 3C4.44772 3 4 2.55228 4 2C4 1.44772 4.44772 1 5 1H19C19.5523 1 20 1.44772 20 2C20 2.55228 19.5523 3 19 3C18.4477 3 18 3.44772 18 4V7ZM16 7C16 7.3453 15.9562 7.68038 15.874 8C15.7827 8.35477 15.6439 8.69049 15.4649 9H13.5C12.5 9 12 10 12 10C12 10 11.5 9 10.5 9H8.53513C8.35609 8.69049 8.21733 8.35477 8.12602 8C8.04375 7.68038 8 7.3453 8 7V3H16V7ZM15.4649 15C14.7733 13.8044 13.4806 13 12 13C10.5194 13 9.22675 13.8044 8.53513 15C8.35609 15.3095 8.21733 15.6452 8.12602 16C8.12602 16 9.5 16 10.5 16C11.5 16 12 15 12 15C12 15 12.5 16 13.5 16C14.5 16 15.874 16 15.874 16C15.7827 15.6452 15.6439 15.3095 15.4649 15Z" fill="#2D50E6"/>
</svg>
