<svg width="24" height="24" viewBox="0 0 24 24" fill="none" xmlns="http://www.w3.org/2000/svg">
<path fill-rule="evenodd" clip-rule="evenodd" d="M1 6C1 4.89543 1.89543 4 3 4H21C22.1046 4 23 4.89543 23 6V18C23 19.1046 22.1046 20 21 20H3C1.89543 20 1 19.1046 1 18V6ZM14 7C14 6.44772 14.4477 6 15 6H20C20.5523 6 21 6.44772 21 7C21 7.55228 20.5523 8 20 8H15C14.4477 8 14 7.55228 14 7ZM15 10C14.4477 10 14 10.4477 14 11C14 11.5523 14.4477 12 15 12H20C20.5523 12 21 11.5523 21 11C21 10.4477 20.5523 10 20 10H15ZM14 15C14 14.4477 14.4477 14 15 14H17C17.5523 14 18 14.4477 18 15C18 15.5523 17.5523 16 17 16H15C14.4477 16 14 15.5523 14 15ZM4 6C3.44772 6 3 6.44772 3 7V17C3 17.5523 3.44772 18 4 18H11C11.5523 18 12 17.5523 12 17V7C12 6.44772 11.5523 6 11 6H4Z" fill="#2D50E6"/>
</svg>
