<svg width="24" height="24" viewBox="0 0 24 24" fill="none" xmlns="http://www.w3.org/2000/svg">
<path d="M21.7338 12.7071C21.9938 12.4211 22.0716 11.991 21.9309 11.6173C21.7901 11.2436 21.4587 11 21.091 11H17.0001C17.0001 7.11666 14.6818 4.58026 11.8457 3.06765C9.03831 1.57039 5.61565 1 3.00008 1C2.50139 1 2.07892 1.36743 2.00975 1.8613C1.94058 2.35517 2.24585 2.82452 2.72536 2.96152C4.33371 3.42105 5.3158 4.05766 5.95165 5.13373C6.62396 6.27147 7.00008 8.04803 7.00008 11H2.9092C2.5415 11 2.21002 11.2436 2.06931 11.6173C1.9286 11.991 2.00638 12.4211 2.26637 12.7071L11.3573 22.7071C11.7123 23.0976 12.2879 23.0976 12.6429 22.7071L21.7338 12.7071Z" fill="#2D50E6"/>
</svg>
