<svg width="24" height="24" viewBox="0 0 24 24" fill="none" xmlns="http://www.w3.org/2000/svg">
<path d="M10 2C9.44774 2 9.00003 2.44771 9.00002 2.99999L9.00001 3.99997C9 4.55226 9.44772 4.99999 10 4.99999H12L8 16.9999H6.00001C5.44772 16.9999 5 17.4476 5.00001 17.9999L5.00002 19C5.00003 19.5523 5.44774 20 6.00002 20H13C13.5523 20 14 19.5523 14 19V17.9999C14 17.4476 13.5523 16.9999 13 16.9999H11L15 4.99999H17C17.5523 4.99999 18 4.55228 18 4L18 3.00001C18 2.44772 17.5523 2 17 2H10Z" fill="#2D50E6"/>
</svg>
