<svg width="24" height="24" viewBox="0 0 24 24" fill="none" xmlns="http://www.w3.org/2000/svg">
<path fill-rule="evenodd" clip-rule="evenodd" d="M20.4393 1.43934C21.0251 0.853553 21.9749 0.853553 22.5607 1.43934C23.1464 2.02513 23.1464 2.97487 22.5607 3.56066L21.1213 5L22.5607 6.43934C23.1464 7.02513 23.1464 7.97487 22.5607 8.56066C21.9758 9.14552 21.0281 9.14644 20.4421 8.56343C20.3276 8.42108 20.1519 8.33 19.955 8.33C19.6098 8.33 19.33 8.60982 19.33 8.955C19.33 9.15214 19.4212 9.32796 19.5638 9.44251C20.1464 10.0285 20.1454 10.9759 19.5607 11.5607C18.9749 12.1464 18.0251 12.1464 17.4393 11.5607L16 10.1213L13.1693 12.952C13.6971 13.8453 14 14.8873 14 16C14 19.3137 11.3137 22 8 22C4.68629 22 2 19.3137 2 16C2 12.6863 4.68629 10 8 10C9.11271 10 10.1547 10.3029 11.048 10.8307L20.4393 1.43934ZM8 19C9.65685 19 11 17.6569 11 16C11 14.3431 9.65685 13 8 13C6.34315 13 5 14.3431 5 16C5 17.6569 6.34315 19 8 19Z" fill="#2D50E6"/>
</svg>
