<svg width="24" height="24" viewBox="0 0 24 24" fill="none" xmlns="http://www.w3.org/2000/svg">
<path d="M2.21721 2.20183C2.35605 2.06699 2.54351 1.9943 2.73677 2.00035C6.54356 2.11955 9.7102 2.65059 12.3028 3.50386C12.6529 3.61908 12.9379 3.87464 13.1027 4.20488L14.5 7.5L15.7362 5.94712C15.758 5.91978 15.7763 5.88986 15.7941 5.8598C15.9942 5.52224 16.4342 5.40632 16.7649 5.62869C18.1717 6.57438 19.2729 7.67126 20.0976 8.88006C22.0818 11.7884 22.3793 15.2175 21.6074 18.4737C21.4588 19.1003 20.5903 19.1697 20.2517 18.6223C18.9365 16.4955 16.6196 12.8134 13 11C16.2663 14.8182 17.6311 19.4141 18.1994 21.2077C18.3357 21.638 18.0124 22.0287 17.5628 21.9983C14.8992 21.8187 12.5846 21.3031 10.6149 20.4446C10.1712 20.2513 10 20 10.423 19.3318L11 18.4737H8C7.66441 18.4737 7.23631 18.3492 6.98855 18.1224C6.71629 17.8732 6.45524 17.6114 6.20533 17.3368C3.9926 14.9051 2.73148 11.5517 2.24071 7.27413C2.18633 6.80013 2.6124 6.41799 3.07933 6.51156L6 7L2.53704 4.57812C2.21013 4.31607 2.01311 3.92357 2.00631 3.50415C2.00209 3.24411 2 2.98136 2 2.71588C2 2.52214 2.07837 2.33667 2.21721 2.20183Z" fill="#2D50E6"/>
</svg>
