<svg width="24" height="24" viewBox="0 0 24 24" fill="none" xmlns="http://www.w3.org/2000/svg">
<path d="M2.32284 7.46782C1.9015 7.30085 1.9015 6.70452 2.32284 6.53755L10.5322 3.28425C11.4795 2.90883 12.5344 2.90883 13.4817 3.28426L21.6908 6.53755C22.1122 6.70453 22.1122 7.30085 21.6908 7.46782L13.4817 10.7211C12.5344 11.0965 11.4795 11.0965 10.5322 10.7211L2.32284 7.46782Z" fill="#2D50E6"/>
<path d="M5.11504 15.5743C4.99671 15.5275 4.86495 15.5275 4.74662 15.5743L2.32284 16.5349C1.9015 16.7018 1.9015 17.2982 2.32284 17.4651L10.5322 20.7184C11.4795 21.0939 12.5344 21.0939 13.4817 20.7184L21.6908 17.4651C22.1122 17.2982 22.1122 16.7019 21.6908 16.5349L19.2671 15.5744C19.1488 15.5275 19.017 15.5275 18.8987 15.5744L13.4817 17.7211C12.5344 18.0965 11.4795 18.0965 10.5322 17.7211L5.11504 15.5743Z" fill="#2D50E6"/>
<path d="M5.11504 10.5743C4.99671 10.5275 4.86495 10.5275 4.74662 10.5743L2.32284 11.5349C1.9015 11.7018 1.9015 12.2982 2.32284 12.4651L10.5322 15.7184C11.4795 16.0939 12.5344 16.0939 13.4817 15.7184L21.6908 12.4651C22.1122 12.2982 22.1122 11.7019 21.6908 11.5349L19.2671 10.5744C19.1488 10.5275 19.017 10.5275 18.8987 10.5744L13.4817 12.7211C12.5344 13.0965 11.4795 13.0965 10.5322 12.7211L5.11504 10.5743Z" fill="#2D50E6"/>
</svg>
