<svg width="24" height="24" viewBox="0 0 24 24" fill="none" xmlns="http://www.w3.org/2000/svg">
<path fill-rule="evenodd" clip-rule="evenodd" d="M9 3C7.89543 3 7 3.89543 7 5V11H3C2.44772 11 2 11.4477 2 12C2 12.5523 2.44772 13 3 13H7V19C7 20.1046 7.89543 21 9 21H17C18.1046 21 19 20.1046 19 19V5C19 3.89543 18.1046 3 17 3H9ZM7 13H12.5858L10.2929 15.2929C9.90237 15.6834 9.90237 16.3166 10.2929 16.7071C10.6834 17.0976 11.3166 17.0976 11.7071 16.7071L15.7071 12.7071C16.0976 12.3166 16.0976 11.6834 15.7071 11.2929L11.7071 7.29289C11.3166 6.90237 10.6834 6.90237 10.2929 7.29289C9.90237 7.68342 9.90237 8.31658 10.2929 8.70711L12.5858 11H7V13Z" fill="#2D50E6"/>
</svg>
