<svg width="24" height="24" viewBox="0 0 24 24" fill="none" xmlns="http://www.w3.org/2000/svg">
<path fill-rule="evenodd" clip-rule="evenodd" d="M14 3.00001L6 3C4.89543 3 4 3.89543 4 5V19C4 20.1046 4.89543 21 6 21H14C15.1046 21 16 20.1046 16 19V13H20.5858L18.2929 15.2929C17.9024 15.6834 17.9024 16.3166 18.2929 16.7071C18.6834 17.0976 19.3166 17.0976 19.7071 16.7071L23.7071 12.7071C24.0976 12.3166 24.0976 11.6834 23.7071 11.2929L19.7071 7.29289C19.3166 6.90237 18.6834 6.90237 18.2929 7.29289C17.9024 7.68342 17.9024 8.31658 18.2929 8.70711L20.5858 11H16V5.00001C16 3.89544 15.1046 3.00001 14 3.00001ZM16 11H11C10.4477 11 10 11.4477 10 12C10 12.5523 10.4477 13 11 13H16V11Z" fill="#2D50E6"/>
</svg>
