<svg width="24" height="24" viewBox="0 0 24 24" fill="none" xmlns="http://www.w3.org/2000/svg">
<path d="M15 13C15 16 13.6568 19 12 19C10.3433 19 9.00003 16 9.00003 13C9.00003 9 11 4 12 4C13 4 15 9 15 13Z" fill="#2D50E6"/>
<path d="M13 21C13 21.5522 12.5523 22 12 22C11.4478 22 11 21.5522 11 21C11 20.4478 11.4478 20 12 20C12.5523 20 13 20.4478 13 21Z" fill="#2D50E6"/>
<path d="M9.19802 17.9802C9.16458 17.9211 9.13186 17.8616 9.10012 17.8013C9.05813 17.7217 9.01736 17.6409 8.97805 17.5596L8.9385 17.4766L8.9009 17.3945C8.87429 17.3359 8.84817 17.2766 8.82254 17.2166C8.09475 16.6016 7.43264 15.7874 6.88821 14.8442C5.87722 13.093 5.1763 10.9348 4.80764 9.09399C3.04226 8.19629 1.49099 7.76611 1.12844 8.12842C0.465602 8.7915 2.45462 13.4326 5.10672 16.0847C6.51565 17.4939 8.03884 18.1235 9.19802 17.9802Z" fill="#2D50E6"/>
<path d="M18.8933 16.0847C17.4844 17.4939 15.9612 18.1235 14.802 17.9802C14.8797 17.8433 14.9529 17.7026 15.022 17.5596C15.075 17.4497 15.1262 17.3372 15.1753 17.2219C15.9055 16.6062 16.5699 15.79 17.1157 14.8442C18.1272 13.0925 18.8282 10.9331 19.1968 9.0918C20.9602 8.19556 22.5095 7.76636 22.8716 8.12842C23.5345 8.7915 21.5454 13.4326 18.8933 16.0847Z" fill="#2D50E6"/>
<path d="M9.12258 6.83643C7.64846 5.55737 6.30007 4.7915 5.85208 5.05005C4.98611 5.55005 5.75418 10.8801 7.75418 14.3442C7.89089 14.5811 8.03323 14.8052 8.17971 15.0161C8.06253 14.3599 8.00003 13.6785 8.00003 13C8.00003 10.9233 8.49832 8.63794 9.12258 6.83643Z" fill="#2D50E6"/>
<path d="M15.9351 14.853C15.9749 14.793 16.0142 14.7319 16.0532 14.6699L16.1111 14.5767L16.158 14.4998L16.2044 14.4224L16.2498 14.3442C18.2498 10.8801 19.0178 5.55005 18.1519 5.05005C17.7036 4.79126 16.3538 5.55835 14.8784 6.83911C15.5022 8.64014 16 10.9243 16 13C16 13.6809 15.937 14.365 15.8189 15.0237C15.8579 14.9678 15.8968 14.9109 15.9351 14.853Z" fill="#2D50E6"/>
<path d="M10.4346 19.7551C10.3826 19.8206 10.3345 19.8892 10.2908 19.9607C10.1331 19.9768 9.97122 19.988 9.8052 19.9944C9.70486 19.998 9.60305 20 9.50003 20C6.16677 20 2.00003 18.3333 2.00003 17.5C2.00003 17.1497 2.73635 16.6523 3.83767 16.1931C3.92141 16.2876 4.00589 16.3806 4.09109 16.4719C4.13504 16.519 4.17922 16.5659 4.22366 16.6121C4.28201 16.6729 4.3406 16.7327 4.39968 16.7917C5.49099 17.8833 6.70047 18.6067 7.86477 18.8794C8.52273 19.0334 9.19924 19.0469 9.81912 18.8733C9.92654 18.9976 10.0393 19.1145 10.1575 19.2224C10.2949 19.3481 10.4441 19.4651 10.6035 19.5684C10.5435 19.627 10.4871 19.6895 10.4346 19.7551Z" fill="#2D50E6"/>
<path d="M14.5 20C14.2261 20 13.9622 19.9866 13.7093 19.9607C13.6216 19.8169 13.5164 19.6853 13.3965 19.5684C13.5559 19.4651 13.7051 19.3481 13.8426 19.2224C13.9607 19.1145 14.0735 18.9973 14.1809 18.873C14.8011 19.0466 15.4773 19.0334 16.1355 18.8794C17.2996 18.6067 18.5091 17.8833 19.6004 16.7917C19.7915 16.6006 19.979 16.4004 20.1624 16.1931C21.2637 16.6523 22 17.1497 22 17.5C22 18.3333 17.8333 20 14.5 20Z" fill="#2D50E6"/>
</svg>
