<svg width="24" height="24" viewBox="0 0 24 24" fill="none" xmlns="http://www.w3.org/2000/svg">
<path fill-rule="evenodd" clip-rule="evenodd" d="M3.31623 2.05132C3.01128 1.94967 2.67606 2.00081 2.41529 2.18877C2.15452 2.37672 2 2.67856 2 3.00001V19C2 19.2152 2.06886 19.4184 2.18876 19.5847C2.29267 19.7289 2.43493 19.8454 2.60393 19.9183C2.62992 19.9295 2.65655 19.9396 2.68377 19.9487L8.68377 21.9487C8.88904 22.0171 9.11096 22.0171 9.31623 21.9487L15 20.0541L20.6838 21.9487C20.9887 22.0503 21.3239 21.9992 21.5847 21.8112C21.8455 21.6233 22 21.3215 22 21V5.00001C22 4.97311 21.9989 4.94639 21.9968 4.91992C21.9651 4.52277 21.699 4.17893 21.3162 4.05132L15.3162 2.05132C15.111 1.98289 14.889 1.98289 14.6838 2.05132L9 3.94591L3.31623 2.05132ZM15 17.2252C15 17.6556 14.7246 18.0377 14.3162 18.1738L10.3162 19.5072C9.6687 19.723 9 19.241 9 18.5585V6.77485C9 6.34442 9.27543 5.96228 9.68377 5.82617L13.6838 4.49284C14.3313 4.277 15 4.75897 15 5.44152V17.2252Z" fill="#2D50E6"/>
</svg>
