<svg width="24" height="24" viewBox="0 0 24 24" fill="none" xmlns="http://www.w3.org/2000/svg">
<path d="M12 17.7453C13.8135 16.4803 15 14.3787 15 11.9999C15 9.6212 13.8135 7.51958 12 6.25464C10.1865 7.51958 9 9.6212 9 11.9999C9 14.3787 10.1865 16.4803 12 17.7453Z" fill="#FF5F00"/>
<path d="M12 6.25469C10.1865 7.51964 9 9.62125 9 12C9 14.3787 10.1865 16.4804 12 17.7453C10.8662 18.5362 9.48725 19 8 19C4.13401 19 1 15.866 1 12C1 8.13401 4.13401 5 8 5C9.48725 5 10.8662 5.46381 12 6.25469Z" fill="#EB001B"/>
<path d="M12 6.25469C13.8135 7.51964 15 9.62125 15 12C15 14.3787 13.8135 16.4804 12 17.7453C13.1338 18.5362 14.5128 19 16 19C19.866 19 23 15.866 23 12C23 8.13401 19.866 5 16 5C14.5128 5 13.1338 5.46381 12 6.25469Z" fill="#F79E1B"/>
</svg>
