<svg width="24" height="24" viewBox="0 0 24 24" fill="none" xmlns="http://www.w3.org/2000/svg">
<path d="M3 7.00135C1.34315 7.00135 0 8.3445 0 10.0014V14.004C0 15.1365 0.62748 16.1205 1.55373 16.63C2.33615 17.0603 3.16913 17.592 3.41445 18.4506L4.79278 23.2747C4.91544 23.704 5.30782 24 5.7543 24H5.84699C6.45554 24 6.923 23.461 6.83694 22.8586L6.16306 18.1414C6.077 17.539 6.54904 16.9981 7.14434 17.1243C10.6932 17.8771 13.788 21.7933 13.788 21.7933C14.2352 22.2406 15 21.9238 15 21.2911V2.7143C15 2.08159 14.2352 1.76472 13.788 2.21212C13.788 2.21212 9 7.00135 5 7.00135H3Z" fill="#2D50E6"/>
<path d="M17.1045 3.4905C17.3502 2.99592 17.9504 2.79424 18.445 3.04002C21.7353 4.67515 24 8.07219 24 12C24 15.9278 21.7353 19.3249 18.445 20.96C17.9504 21.2058 17.3502 21.0041 17.1045 20.5095C16.8587 20.0149 17.0604 19.4148 17.5549 19.169C20.1915 17.8587 22 15.1396 22 12C22 8.86039 20.1915 6.14132 17.5549 4.83105C17.0604 4.58526 16.8587 3.98508 17.1045 3.4905Z" fill="#2D50E6"/>
<path d="M18.1854 16.2991C17.7109 16.7612 17 16.3687 17 15.7063V8.29372C17 7.63137 17.7109 7.23883 18.1854 7.70091C19.3048 8.79085 20 10.3142 20 12C20 13.6858 19.3048 15.2092 18.1854 16.2991Z" fill="#2D50E6"/>
</svg>
