<svg width="24" height="24" viewBox="0 0 24 24" fill="none" xmlns="http://www.w3.org/2000/svg">
<path d="M11.5771 1.21939C11.7832 0.926869 12.2168 0.926869 12.4229 1.21939L13.9607 3.4023C14.1046 3.60663 14.374 3.67883 14.6009 3.57384L17.024 2.45226C17.3488 2.30196 17.7244 2.51881 17.7566 2.87518L17.9968 5.5345C18.0193 5.78343 18.2166 5.98068 18.4655 6.00317L21.1248 6.24344C21.4812 6.27564 21.698 6.65123 21.5477 6.97595L20.4262 9.39913C20.3212 9.62595 20.3934 9.8954 20.5977 10.0393L22.7806 11.5771C23.0731 11.7832 23.0731 12.2168 22.7806 12.4229L20.5977 13.9607C20.3934 14.1046 20.3212 14.374 20.4262 14.6009L21.5477 17.024C21.698 17.3488 21.4812 17.7244 21.1248 17.7566L18.4655 17.9968C18.2166 18.0193 18.0193 18.2166 17.9968 18.4655L17.7566 21.1248C17.7244 21.4812 17.3488 21.698 17.024 21.5477L14.6009 20.4262C14.374 20.3212 14.1046 20.3934 13.9607 20.5977L12.4229 22.7806C12.2168 23.0731 11.7832 23.0731 11.5771 22.7806L10.0393 20.5977C9.8954 20.3934 9.62595 20.3212 9.39913 20.4262L6.97595 21.5477C6.65123 21.698 6.27564 21.4812 6.24344 21.1248L6.00317 18.4655C5.98068 18.2166 5.78343 18.0193 5.5345 17.9968L2.87518 17.7566C2.51881 17.7244 2.30196 17.3488 2.45226 17.024L3.57384 14.6009C3.67883 14.374 3.60663 14.1046 3.4023 13.9607L1.21939 12.4229C0.926869 12.2168 0.926868 11.7832 1.21939 11.5771L3.4023 10.0393C3.60663 9.8954 3.67883 9.62595 3.57384 9.39913L2.45226 6.97595C2.30196 6.65123 2.51881 6.27564 2.87518 6.24344L5.5345 6.00317C5.78343 5.98068 5.98068 5.78343 6.00317 5.5345L6.24344 2.87518C6.27564 2.51881 6.65123 2.30196 6.97595 2.45226L9.39913 3.57384C9.62595 3.67883 9.8954 3.60663 10.0393 3.4023L11.5771 1.21939Z" fill="#2D50E6"/>
</svg>
