<svg width="24" height="24" viewBox="0 0 24 24" fill="none" xmlns="http://www.w3.org/2000/svg">
<path fill-rule="evenodd" clip-rule="evenodd" d="M1.19634 9.10459L11.3877 1.21394C11.7482 0.934873 12.2517 0.934873 12.6121 1.21394L22.8035 9.10459C23.1804 9.39638 22.974 9.99994 22.4974 9.99994H20.9999C20.4476 9.99994 19.9999 10.4477 19.9999 10.9999V20.9999L18 20.9999V11.9999C18 11.4477 17.5523 10.9999 17 10.9999H7C6.44772 10.9999 6 11.4477 6 11.9999V20.9999L3.99993 20.9999V10.9999C3.99993 10.4477 3.55221 9.99994 2.99993 9.99994H1.50245C1.02581 9.99994 0.819469 9.39639 1.19634 9.10459ZM14 5.99994C14 7.10451 13.1046 7.99994 12 7.99994C10.8954 7.99994 10 7.10451 10 5.99994C10 4.89537 10.8954 3.99994 12 3.99994C13.1046 3.99994 14 4.89537 14 5.99994Z" fill="#2D50E6"/>
</svg>
