<svg width="24" height="24" viewBox="0 0 24 24" fill="none" xmlns="http://www.w3.org/2000/svg">
<path fill-rule="evenodd" clip-rule="evenodd" d="M11.5528 1.10557C11.8343 0.964809 12.1657 0.964809 12.4472 1.10557L15.2236 2.49377C15.5921 2.67803 15.5921 3.20393 15.2236 3.3882L6.55279 7.72361C6.214 7.893 6 8.23926 6 8.61803V10.382C6 10.7607 6.214 11.107 6.55279 11.2764L7.27639 11.6382C7.60884 11.8044 8 11.5627 8 11.191V9.61803C8 9.23926 8.214 8.893 8.55279 8.72361L17.6708 4.16459C17.9523 4.02383 18.2837 4.02383 18.5652 4.16459L21.4472 5.60557C21.786 5.77496 22 6.12123 22 6.5V17.5C22 17.8788 21.786 18.225 21.4472 18.3944L12.4472 22.8944C12.1657 23.0352 11.8343 23.0352 11.5528 22.8944L8.55279 21.3944C8.214 21.225 8 20.8788 8 20.5V18.618C8 18.2393 7.786 17.893 7.44721 17.7236L6.72361 17.3618C6.39116 17.1956 6 17.4373 6 17.809V19.309C6 19.6807 5.60884 19.9225 5.27639 19.7562L2.55279 18.3944C2.214 18.225 2 17.8788 2 17.5V6.5C2 6.12123 2.214 5.77496 2.55279 5.60557L11.5528 1.10557ZM17.2764 10.8618L14.5528 12.2236C14.214 12.393 14 12.7393 14 13.118V17.691C14 18.0627 14.3912 18.3044 14.7236 18.1382L17.4472 16.7764C17.786 16.607 18 16.2607 18 15.882V11.309C18 10.9373 17.6088 10.6956 17.2764 10.8618Z" fill="#2D50E6"/>
</svg>
