<svg width="24" height="24" viewBox="0 0 24 24" fill="none" xmlns="http://www.w3.org/2000/svg">
<path fill-rule="evenodd" clip-rule="evenodd" d="M11.3753 1.21913C11.7405 0.926956 12.2595 0.926956 12.6247 1.21913L17.3508 5H21C22.1046 5 23 5.89543 23 7V19C23 20.1046 22.1046 21 21 21H3C1.89543 21 1 20.1046 1 19V7C1 5.89543 1.89543 5 3 5H6.64922L11.3753 1.21913ZM12 3.28062L14.1492 5H9.85078L12 3.28062ZM19 9.5C19 10.3284 18.3284 11 17.5 11C16.6716 11 16 10.3284 16 9.5C16 8.67157 16.6716 8 17.5 8C18.3284 8 19 8.67157 19 9.5ZM8.80017 9.39722L13.7609 16.0136L16.252 13.3191C16.6529 12.8855 17.3402 12.8918 17.733 13.3327L20.7467 16.7156C20.9098 16.8988 21 17.1355 21 17.3808V18C21 18.5523 20.5523 19 20 19H4C3.44772 19 3 18.5523 3 18V15.3332C3 15.1169 3.07012 14.9065 3.19986 14.7334L7.19993 9.39729C7.5999 8.86373 8.40015 8.8637 8.80017 9.39722Z" fill="#2D50E6"/>
</svg>
