<svg width="24" height="24" viewBox="0 0 24 24" fill="none" xmlns="http://www.w3.org/2000/svg">
<path fill-rule="evenodd" clip-rule="evenodd" d="M12.2929 2.29289C12.6834 1.90237 13.3166 1.90237 13.7071 2.29289L21.7071 10.2929C22.0976 10.6834 22.0976 11.3166 21.7071 11.7071L11.7071 21.7071C11.3166 22.0976 10.6834 22.0976 10.2929 21.7071L2.29289 13.7071C1.90237 13.3166 1.90237 12.6834 2.29289 12.2929L5.23698 9.34881C4.45989 9.16656 3.76985 8.94098 3.24216 8.66373C2.9589 8.51491 2.6734 8.32607 2.44722 8.08045C2.21611 7.82946 2 7.46407 2 6.99999C2 6.16734 2.66212 5.66969 3.08359 5.42396C3.57866 5.13531 4.23164 4.9052 4.95667 4.71982C6.40782 4.34877 8.37488 4.10091 10.561 4.02479L12.2929 2.29289ZM8.41613 6.16965C7.25682 6.28535 6.24705 6.45422 5.45211 6.65748C5.0096 6.77063 4.65981 6.88797 4.39844 6.99999C4.74251 7.14754 5.22776 7.29908 5.85297 7.43801C6.18755 7.51237 6.55218 7.58096 6.94301 7.64278L8.41613 6.16965ZM7.65507 9.75914C8.96272 9.91404 10.4418 9.99999 12 9.99999C12.5523 9.99999 13 9.55227 13 8.99999C13 8.4477 12.5523 7.99999 12 7.99999C11.1255 7.99999 10.2847 7.9716 9.49485 7.91936L13 4.41421L19.5858 11L17.7586 12.8271C17.4709 12.7355 17.2353 12.6178 16.9998 12.5C16.4998 12.25 15.9997 12 14.9998 12C13.9999 12 13.4999 12.25 12.9998 12.5C12.4998 12.75 11.9997 13 10.9998 13C9.99991 13 9.49986 12.75 8.99981 12.5C8.49977 12.25 7.99972 12 6.99981 12C5.99993 12 5.49993 12.25 4.99992 12.5C4.94351 12.5282 4.88711 12.5564 4.82999 12.5842L7.65507 9.75914ZM3.91322 7.27889C3.91322 7.27889 3.9163 7.27381 3.92687 7.26418C3.91924 7.27416 3.91322 7.27889 3.91322 7.27889Z" fill="#2D50E6"/>
<path d="M22 21C23.1046 21 24 20.1046 24 19C24 17.5841 22.9976 15.4113 22.4121 14.263C22.2361 13.9179 21.7639 13.9179 21.5879 14.263C21.0024 15.4113 20 17.5841 20 19C20 20.1046 20.8954 21 22 21Z" fill="#2D50E6"/>
</svg>
