<svg width="24" height="24" viewBox="0 0 24 24" fill="none" xmlns="http://www.w3.org/2000/svg">
<path d="M7.5 8C8.88071 8 10 6.88071 10 5.5C10 4.11929 8.88071 3 7.5 3C6.11929 3 5 4.11929 5 5.5C5 6.88071 6.11929 8 7.5 8Z" fill="#2D50E6"/>
<path d="M8.68238 9.84304C9.68806 9.5699 10.5538 8.95677 11.1485 8.1347L16.6105 16.0243L20.3477 11.5397C20.8781 10.9033 21.8239 10.8173 22.4603 11.3477C23.0967 11.878 23.1827 12.8238 22.6524 13.4603L17.6524 19.4603C17.3524 19.8203 16.9013 20.0194 16.4332 19.9985C15.965 19.9776 15.5335 19.7391 15.2667 19.3538L8.68238 9.84304Z" fill="#2D50E6"/>
<path d="M3.63114 7.79959C4.15354 8.67659 4.96566 9.36092 5.93546 9.72056L3.65237 12.4603C3.12202 13.0967 2.17618 13.1827 1.53976 12.6523C0.903346 12.122 0.81736 11.1761 1.34771 10.5397L3.63114 7.79959Z" fill="#2D50E6"/>
</svg>
