<svg width="24" height="24" viewBox="0 0 24 24" fill="none" xmlns="http://www.w3.org/2000/svg">
<path d="M14.6666 5.26959C14.837 5.29579 15.0001 5.17236 15.0001 5C15.0001 3.34314 13.6568 2 12.0001 2C10.3434 2 9.00011 3.34314 9.00011 5C9.00011 5.17245 9.16333 5.29595 9.33378 5.26974C9.92025 5.17955 11.1896 5 12.0006 5C12.8116 5 14.0804 5.17945 14.6666 5.26959Z" fill="#2D50E6"/>
<path d="M14.0616 7.17947C13.4939 7.0822 13 7.53766 13 8.11368V19.9846C13 20.7242 13.7725 21.1979 14.3764 20.7711C15.3947 20.0514 16.5133 18.9693 17.2344 17.4071C17.3372 17.6777 17.4396 17.9808 17.5514 18.3162L17.5731 18.3814C17.8068 19.0831 18.0928 19.9418 18.5431 20.6172C19.0486 21.3756 19.8276 22 21.0001 22C21.5524 22 22.0001 21.5523 22.0001 21C22.0001 20.4477 21.5524 20 21.0001 20C20.6726 20 20.4516 19.8744 20.2072 19.5078C19.9215 19.0793 19.7111 18.4706 19.4488 17.6838L19.4271 17.6186C19.1934 16.9169 18.9075 16.0583 18.4572 15.3828C18.3111 15.1637 18.1422 14.9557 17.9475 14.7708C17.972 14.5379 17.9883 14.2981 17.9956 14.0513C18.9452 14.1301 19.6913 14.3293 20.4454 14.8321C20.9049 15.1384 21.5258 15.0142 21.8322 14.5547C22.1385 14.0952 22.0143 13.4743 21.5548 13.1679C20.3884 12.3903 19.2132 12.1302 17.9948 12.0434C17.9947 11.7712 17.9948 11.4811 17.995 11.1831C18.1698 11.01 18.3231 10.8183 18.4572 10.6172C18.9075 9.94175 19.1934 9.08312 19.4271 8.38141L19.4488 8.31623C19.7111 7.52938 19.9215 6.92068 20.2072 6.4922C20.4516 6.12556 20.6726 6 21.0001 6C21.5524 6 22.0001 5.55228 22.0001 5C22.0001 4.44772 21.5524 4 21.0001 4C19.8276 4 19.0486 4.62444 18.5431 5.3828C18.0928 6.05825 17.8068 6.91689 17.5731 7.61859L17.5514 7.68377C17.4659 7.94045 17.3858 8.17817 17.3069 8.39686C17.0642 8.1352 16.7612 7.92794 16.4042 7.79947C15.7674 7.57028 14.9686 7.33493 14.0616 7.17947Z" fill="#2D50E6"/>
<path d="M11 19.9845C11 20.724 10.2275 21.1978 9.62354 20.7709C8.60533 20.0513 7.48689 18.9692 6.76584 17.4071C6.66301 17.6777 6.56061 17.9808 6.44879 18.3162L6.42708 18.3814C6.1934 19.0831 5.90746 19.9417 5.45716 20.6172C4.95158 21.3756 4.17259 22 3.00011 22C2.44782 22 2.00011 21.5523 2.00011 21C2.00011 20.4477 2.44782 20 3.00011 20C3.32762 20 3.54863 19.8744 3.79306 19.5078C4.07871 19.0793 4.28914 18.4706 4.55142 17.6838L4.57314 17.6186C4.80682 16.9169 5.09276 16.0583 5.54306 15.3828C5.68914 15.1637 5.85805 14.9557 6.05269 14.7708C6.02822 14.5379 6.01195 14.2981 6.0046 14.0513C5.05496 14.1301 4.30889 14.3293 3.55481 14.8321C3.09528 15.1384 2.47441 15.0142 2.16806 14.5547C1.8617 14.0952 1.98588 13.4743 2.44541 13.1679C3.61181 12.3903 4.78699 12.1302 6.00545 12.0434C6.00549 11.7713 6.0054 11.4811 6.0052 11.1831C5.83043 11.01 5.67713 10.8183 5.54306 10.6172C5.09276 9.94175 4.80682 9.08312 4.57314 8.38141L4.55142 8.31623C4.28914 7.52938 4.07871 6.92068 3.79306 6.4922C3.54863 6.12556 3.32762 6 3.00011 6C2.44782 6 2.00011 5.55228 2.00011 5C2.00011 4.44772 2.44782 4 3.00011 4C4.17259 4 4.95158 4.62444 5.45716 5.3828C5.90746 6.05825 6.1934 6.91688 6.42708 7.61859L6.44879 7.68377C6.53436 7.94047 6.6144 8.17821 6.69335 8.39692C6.93609 8.13523 7.23909 7.92796 7.59607 7.7995C8.2329 7.57034 9.03163 7.33502 9.93858 7.17957C10.5062 7.08226 11 7.53764 11 8.11354V19.9845Z" fill="#2D50E6"/>
</svg>
