<svg width="24" height="24" viewBox="0 0 24 24" fill="none" xmlns="http://www.w3.org/2000/svg">
<path d="M20.7605 20.7605C21.4695 20.0515 21.8938 19.1062 22 18C22 17.689 21.8395 17.4001 21.5755 17.2357L18.2775 15.1826C17.8195 14.8974 17.2282 14.9535 16.8048 15.2878C16.0247 15.9038 14.7807 16.7541 14.094 16.5363C14.0703 16.5273 14.0466 16.5182 14.0229 16.509C14.0166 16.5061 14.0104 16.5031 14.0042 16.5C13.915 16.4554 13.8417 16.4267 13.7822 16.4114C12.5583 15.8959 11.2737 15.0557 10.109 13.891C8.94194 12.7239 8.10067 11.4364 7.58542 10.2103C7.56951 10.153 7.54172 10.0834 7.5 10C7.48562 9.96334 7.47153 9.92675 7.45773 9.89022C7.26217 9.19906 8.10259 7.97036 8.71263 7.19733C9.0467 6.774 9.10278 6.18304 8.81788 5.72517L6.76415 2.42453C6.59987 2.16051 6.31095 2 6 2C4.89381 2.1062 3.94847 2.53047 3.23947 3.23947C0.578402 5.90054 2.3434 11.98 7.18171 16.8183C12.02 21.6566 18.0995 23.4216 20.7605 20.7605Z" fill="#2D50E6"/>
</svg>
