<svg width="24" height="24" viewBox="0 0 24 24" fill="none" xmlns="http://www.w3.org/2000/svg">
<path d="M16.5 7C16.7761 7 17 6.77614 17 6.5C17 6.22386 16.7761 6 16.5 6C16.2239 6 16 6.22386 16 6.5C16 6.77614 16.2239 7 16.5 7Z" fill="#2D50E6"/>
<path d="M21 6.5C21 6.77614 20.7761 7 20.5 7C20.2239 7 20 6.77614 20 6.5C20 6.22386 20.2239 6 20.5 6C20.7761 6 21 6.22386 21 6.5Z" fill="#2D50E6"/>
<path fill-rule="evenodd" clip-rule="evenodd" d="M3 4C1.89543 4 1 4.89543 1 6V18C1 19.1046 1.89543 20 3 20H21C22.1046 20 23 19.1046 23 18V6C23 4.89543 22.1046 4 21 4H3ZM3.5 6C3.22386 6 3 6.22386 3 6.5C3 6.77614 3.22386 7 3.5 7H8.5C8.77614 7 9 6.77614 9 6.5C9 6.22386 8.77614 6 8.5 6H3.5ZM18 6.5C18 7.32843 17.3284 8 16.5 8C15.6716 8 15 7.32843 15 6.5C15 5.67157 15.6716 5 16.5 5C17.3284 5 18 5.67157 18 6.5ZM20.5 8C21.3284 8 22 7.32843 22 6.5C22 5.67157 21.3284 5 20.5 5C19.6716 5 19 5.67157 19 6.5C19 7.32843 19.6716 8 20.5 8ZM3 10C3 9.44772 3.44772 9 4 9H5V18H4C3.44772 18 3 17.5523 3 17V10ZM6 18H8V14C7.72386 14 7.5 13.7761 7.5 13.5V9H6V18ZM9 18V14C9.27614 14 9.5 13.7761 9.5 13.5V9H11V13.5C11 13.7761 11.2239 14 11.5 14V18H9ZM12.5 18H15V14C14.7239 14 14.5 13.7761 14.5 13.5V9H13V13.5C13 13.7761 12.7761 14 12.5 14V18ZM20 18C20.5523 18 21 17.5523 21 17V10C21 9.44772 20.5523 9 20 9H19V18H20ZM16.5 9H18V18H16V14C16.2761 14 16.5 13.7761 16.5 13.5V9Z" fill="#2D50E6"/>
</svg>
