<svg width="24" height="24" viewBox="0 0 24 24" fill="none" xmlns="http://www.w3.org/2000/svg">
<path fill-rule="evenodd" clip-rule="evenodd" d="M9 3C8.44771 3 8 3.44772 8 4V6C8 6.55228 8.44772 7 9 7H13C13.5523 7 14 6.55228 14 6V4C14 2.34315 15.3431 1 17 1C18.6569 1 20 2.34315 20 4C20 4.55228 19.5523 5 19 5C18.4477 5 18 4.55228 18 4C18 3.44772 17.5523 3 17 3C16.4477 3 16 3.44772 16 4V16.469C16.0968 16.5287 16.1827 16.5862 16.2574 16.6363L16.3047 16.6679C16.712 16.9395 16.8456 17 17 17C17.1544 17 17.288 16.9395 17.6953 16.6679L17.7426 16.6363C18.0933 16.4013 18.692 16 19.5 16C20.308 16 20.9067 16.4013 21.2574 16.6363L21.3047 16.6679C21.712 16.9395 21.8456 17 22 17C22.5523 17 23 17.4477 23 18C23 18.5523 22.5523 19 22 19C21.192 19 20.5933 18.5987 20.2426 18.3637L20.1953 18.3321C19.788 18.0605 19.6544 18 19.5 18C19.3456 18 19.212 18.0605 18.8047 18.3321L18.7574 18.3637C18.4067 18.5987 17.808 19 17 19C16.192 19 15.5933 18.5987 15.2426 18.3637L15.1953 18.3321C14.788 18.0605 14.6544 18 14.5 18C14.3456 18 14.212 18.0605 13.8047 18.3321L13.7574 18.3637C13.4067 18.5987 12.808 19 12 19C11.192 19 10.5933 18.5987 10.2426 18.3637L10.1953 18.3321C9.78804 18.0605 9.65438 18 9.5 18C9.34562 18 9.21196 18.0605 8.8047 18.3321L8.75739 18.3637C8.40672 18.5987 7.80804 19 7 19C6.19196 19 5.59328 18.5987 5.24262 18.3637L5.1953 18.3321C4.78804 18.0605 4.65438 18 4.5 18C4.34562 18 4.21196 18.0605 3.8047 18.3321L3.75739 18.3637C3.40673 18.5987 2.80804 19 2 19C1.44771 19 1 18.5523 1 18C1 17.4477 1.44771 17 2 17C2.15438 17 2.28804 16.9395 2.6953 16.6679L2.74261 16.6363C3.09327 16.4013 3.69196 16 4.5 16C5.13597 16 5.64225 16.2486 6 16.469V4C6 2.34315 7.34315 1 9 1C10.6569 1 12 2.34315 12 4C12 4.55228 11.5523 5 11 5C10.4477 5 10 4.55228 10 4C10 3.44772 9.55228 3 9 3ZM13 15C13.5523 15 14 15.4477 14 16V16.0517C13.4418 16.1677 13.0165 16.4527 12.7426 16.6363L12.6953 16.6679C12.288 16.9395 12.1544 17 12 17C11.8456 17 11.712 16.9395 11.3047 16.6679L11.2574 16.6363C10.9067 16.4013 10.308 16 9.5 16C8.86403 16 8.35775 16.2486 8 16.469V16C8 15.4477 8.44772 15 9 15H13ZM13 13C13.5523 13 14 12.5523 14 12V10C14 9.44772 13.5523 9 13 9H9C8.44772 9 8 9.44772 8 10V12C8 12.5523 8.44772 13 9 13H13Z" fill="#2D50E6"/>
<path d="M10.2426 22.3637C10.5933 22.5987 11.192 23 12 23C12.808 23 13.4067 22.5987 13.7574 22.3637L13.8047 22.3321C14.212 22.0605 14.3456 22 14.5 22C14.6544 22 14.788 22.0605 15.1953 22.3321L15.2426 22.3637C15.5933 22.5987 16.192 23 17 23C17.808 23 18.4067 22.5987 18.7574 22.3637L18.8047 22.3321C19.212 22.0605 19.3456 22 19.5 22C19.6544 22 19.788 22.0605 20.1953 22.3321L20.2426 22.3637C20.5933 22.5987 21.192 23 22 23C22.5523 23 23 22.5523 23 22C23 21.4477 22.5523 21 22 21C21.8456 21 21.712 20.9395 21.3047 20.6679L21.2574 20.6363C20.9067 20.4013 20.308 20 19.5 20C18.692 20 18.0933 20.4013 17.7426 20.6363L17.6953 20.6679C17.288 20.9395 17.1544 21 17 21C16.8456 21 16.712 20.9395 16.3047 20.6679L16.2574 20.6363C15.9067 20.4013 15.308 20 14.5 20C13.692 20 13.0933 20.4013 12.7426 20.6363L12.6953 20.6679C12.288 20.9395 12.1544 21 12 21C11.8456 21 11.712 20.9395 11.3047 20.6679L11.2574 20.6363C10.9067 20.4013 10.308 20 9.5 20C8.69196 20 8.09328 20.4013 7.74262 20.6363L7.6953 20.6679C7.28804 20.9395 7.15438 21 7 21C6.84562 21 6.71196 20.9395 6.3047 20.6679L6.25738 20.6363C5.90672 20.4013 5.30804 20 4.5 20C3.69196 20 3.09327 20.4013 2.74261 20.6363L2.6953 20.6679C2.28804 20.9395 2.15438 21 2 21C1.44771 21 1 21.4477 1 22C1 22.5523 1.44771 23 2 23C2.80804 23 3.40673 22.5987 3.75739 22.3637L3.8047 22.3321C4.21196 22.0605 4.34562 22 4.5 22C4.65438 22 4.78804 22.0605 5.1953 22.3321L5.24262 22.3637C5.59328 22.5987 6.19196 23 7 23C7.80804 23 8.40672 22.5987 8.75739 22.3637L8.8047 22.3321C9.21196 22.0605 9.34562 22 9.5 22C9.65438 22 9.78804 22.0605 10.1953 22.3321L10.2426 22.3637Z" fill="#2D50E6"/>
</svg>
