<svg width="24" height="24" viewBox="0 0 24 24" fill="none" xmlns="http://www.w3.org/2000/svg">
<path fill-rule="evenodd" clip-rule="evenodd" d="M12 22C18.0751 22 23 17.299 23 11.5C23 5.70101 18.0751 1 12 1C5.92487 1 1 5.70101 1 11.5C1 13.5205 1.59789 15.4078 2.63402 17.0093C3.16273 18.2428 2.57398 20.4717 2.04252 22.0045C1.84442 22.5759 2.46123 23.1741 3.02142 22.9462C4.76452 22.2372 7.46936 21.2845 8.84025 21.5604C9.84104 21.8464 10.9017 22 12 22ZM12.5703 12.968C12.4835 13.4179 12.1708 13.6775 11.6671 13.6775C11.0765 13.6775 10.6944 13.2968 10.6944 12.7257V12.5239C10.6944 11.6471 11.2328 11.0703 12.0608 10.5454C12.9582 9.98007 13.3346 9.62244 13.3346 8.91295C13.3346 8.17462 12.6919 7.67855 11.8639 7.67855C11.1691 7.67855 10.6481 7.99004 10.3875 8.75144C10.2254 9.13791 9.86642 9.35711 9.43797 9.35711C8.85318 9.35711 8.5 8.99371 8.5 8.45726C8.5 8.18616 8.56948 7.90351 8.70844 7.62664C9.21216 6.62874 10.428 6 11.9682 6C14.0352 6 15.5 7.09019 15.5 8.87834C15.5 9.96854 14.95 10.7184 13.8846 11.376C12.9177 11.9759 12.6687 12.2412 12.5877 12.8296C12.5848 12.8498 12.5819 12.8743 12.579 12.8988C12.5761 12.9233 12.5732 12.9478 12.5703 12.968ZM12.8945 15.8521C12.8945 16.4924 12.3561 17 11.6902 17C11.0302 17 10.4859 16.4924 10.4859 15.8521C10.4859 15.2119 11.0302 14.6985 11.6902 14.6985C12.3561 14.6985 12.8945 15.2119 12.8945 15.8521Z" fill="#2D50E6"/>
</svg>
