<svg width="24" height="24" viewBox="0 0 24 24" fill="none" xmlns="http://www.w3.org/2000/svg">
<path d="M4 18.5858L1.29289 21.2929C0.902369 21.6834 0.902369 22.3166 1.29289 22.7071C1.68342 23.0976 2.31658 23.0976 2.70711 22.7071L22.7071 2.70711C23.0976 2.31658 23.0976 1.68342 22.7071 1.29289C22.3166 0.902369 21.6834 0.902369 21.2929 1.29289L17.5493 5.03651L12.6122 1.214C12.2518 0.934934 11.7482 0.934934 11.3878 1.214L1.19641 9.10465C0.81954 9.39645 1.02588 10 1.50252 10H3C3.55229 10 4 10.4477 4 11V18.5858Z" fill="#2D50E6"/>
<path d="M13.818 14.4246L20.7376 7.50505L22.8036 9.10465C23.1805 9.39645 22.9741 10 22.4975 10H21C20.4477 10 20 10.4477 20 11V21H14V15C14 14.7858 13.9327 14.5874 13.818 14.4246Z" fill="#2D50E6"/>
<path d="M7.24263 21L10 18.2426V21H7.24263Z" fill="#2D50E6"/>
</svg>
