<svg width="24" height="24" viewBox="0 0 24 24" fill="none" xmlns="http://www.w3.org/2000/svg">
<path d="M22.7071 2.70711C23.0976 2.31658 23.0976 1.68342 22.7071 1.29289C22.3166 0.902369 21.6834 0.902369 21.2929 1.29289L17.6394 4.94642C16.8008 2.64407 14.5924 1 12 1C8.68629 1 6 3.68629 6 7V16.5858L1.29289 21.2929C0.902369 21.6834 0.902369 22.3166 1.29289 22.7071C1.68342 23.0976 2.31658 23.0976 2.70711 22.7071L22.7071 2.70711Z" fill="#2D50E6"/>
<path d="M7.3955 20.8471L18 10.2426V17C18 20.3137 15.3137 23 12 23C10.1503 23 8.49613 22.163 7.3955 20.8471Z" fill="#2D50E6"/>
</svg>
