<svg width="24" height="24" viewBox="0 0 24 24" fill="none" xmlns="http://www.w3.org/2000/svg">
<path d="M19.5621 5.8521L19.5629 5.85292L18.4159 6.99999H18.4142L16.4142 8.99999H16.4159L4.03602 21.3798L4.03576 21.3784L2.70711 22.7071C2.31658 23.0976 1.68342 23.0976 1.29289 22.7071C0.902369 22.3166 0.902369 21.6834 1.29289 21.2929L4 18.5858V2.99999C4 1.89542 4.89543 0.99999 6 0.99999H11C11.5523 0.99999 12 1.4477 12 1.99999V5.99999C12 7.23973 12.752 8.30384 13.8247 8.76104L15.5858 6.99999H15C14.4477 6.99999 14 6.55227 14 5.99999V1.4971C14 1.05164 14.5386 0.828561 14.8536 1.14354L18.1479 4.43788L21.2929 1.29288C21.6834 0.902359 22.3166 0.902359 22.7071 1.29288C23.0976 1.68341 23.0976 2.31657 22.7071 2.7071L19.5621 5.8521Z" fill="#2D50E6"/>
<path d="M5.3517 22.8926L19.22 9.02427C19.6665 9.1245 20 9.52329 20 9.99999V21C20 22.1046 19.1046 23 18 23H6C5.77309 23 5.55501 22.9622 5.3517 22.8926Z" fill="#2D50E6"/>
</svg>
