<svg width="24" height="24" viewBox="0 0 24 24" fill="none" xmlns="http://www.w3.org/2000/svg">
<path d="M1 8C1 7.44772 1.44772 7 2 7H22C22.5523 7 23 7.44772 23 8C23 8.55228 22.5523 9 22 9H2C1.44772 9 1 8.55228 1 8Z" fill="#2D50E6"/>
<path d="M1 12C1 11.4477 1.44772 11 2 11H22C22.5523 11 23 11.4477 23 12C23 12.5523 22.5523 13 22 13H2C1.44772 13 1 12.5523 1 12Z" fill="#2D50E6"/>
<path d="M2 15C1.44772 15 1 15.4477 1 16C1 16.5523 1.44772 17 2 17H22C22.5523 17 23 16.5523 23 16C23 15.4477 22.5523 15 22 15H2Z" fill="#2D50E6"/>
</svg>
