<svg width="24" height="24" viewBox="0 0 24 24" fill="none" xmlns="http://www.w3.org/2000/svg">
<path d="M11.2929 2.26629C11.5789 2.00629 12.009 1.92852 12.3827 2.06923C12.7564 2.20994 13 2.54142 13 2.90912V7C16.8833 7 19.4197 9.31827 20.9324 12.1544C22.4296 14.9618 23 18.3844 23 21C23 21.4987 22.6326 21.9212 22.1387 21.9903C21.6448 22.0595 21.1755 21.7542 21.0385 21.2747C20.5789 19.6664 19.9423 18.6843 18.8663 18.0484C17.7285 17.3761 15.952 17 13 17V21.0909C13 21.4586 12.7564 21.7901 12.3827 21.9308C12.009 22.0715 11.5789 21.9937 11.2929 21.7337L1.29289 12.6428C0.902369 12.2878 0.902369 11.7122 1.29289 11.3572L11.2929 2.26629Z" fill="#2D50E6"/>
</svg>
