<svg width="24" height="24" viewBox="0 0 24 24" fill="none" xmlns="http://www.w3.org/2000/svg">
<path fill-rule="evenodd" clip-rule="evenodd" d="M9.49716 1C9.1839 1 8.88873 1.1468 8.69971 1.39662L7.20255 3.37533C6.92496 3.7422 6.93349 4.25112 7.22321 4.60848L8.98306 6.77917C8.37915 7.32796 8 8.1197 8 9V10.2547C6.18652 11.5196 5 13.6213 5 16C5 19.866 8.13401 23 12 23C15.866 23 19 19.866 19 16C19 13.6213 17.8135 11.5196 16 10.2547V9C16 8.11959 15.6207 7.32776 15.0167 6.77896L16.7765 4.60851C17.0663 4.25114 17.0748 3.74218 16.7972 3.37529L15.2999 1.39658C15.1109 1.14679 14.8157 1 14.5025 1H9.49716ZM10.2486 8.34015C10.0938 8.51623 10 8.74716 10 9V9.28988C10.2793 9.20676 10.5659 9.1406 10.8586 9.09259L10.2486 8.34015ZM13.1408 9.0925L13.7511 8.33983C13.906 8.51595 14 8.747 14 9V9.28988C13.7205 9.20671 13.4337 9.14051 13.1408 9.0925ZM12 21C14.7614 21 17 18.7614 17 16C17 13.2386 14.7614 11 12 11C9.23858 11 7 13.2386 7 16C7 18.7614 9.23858 21 12 21Z" fill="#2D50E6"/>
</svg>
