<svg width="24" height="24" viewBox="0 0 24 24" fill="none" xmlns="http://www.w3.org/2000/svg">
<path fill-rule="evenodd" clip-rule="evenodd" d="M8.5 3C8.77614 3 9 3.22386 9 3.5V6H15V3.5C15 3.22386 15.2239 3 15.5 3C15.7761 3 16 3.22386 16 3.5V6L17 6C18.6569 6 20 7.34314 20 9V10C21.6569 10 23 11.3431 23 13C23 14.6569 21.6569 16 20 16V17C20 18.6569 18.6569 20 17 20H7C5.34315 20 4 18.6569 4 17V16C2.34315 16 1 14.6569 1 13C1 11.3431 2.34315 10 4 10V9C4 7.34315 5.34315 6 7 6L8 6V3.5C8 3.22386 8.22386 3 8.5 3ZM10 10.5C10 11.3284 9.55228 12 9 12C8.44772 12 8 11.3284 8 10.5C8 9.67157 8.44772 9 9 9C9.55228 9 10 9.67157 10 10.5ZM15 12C15.5523 12 16 11.3284 16 10.5C16 9.67157 15.5523 9 15 9C14.4477 9 14 9.67157 14 10.5C14 11.3284 14.4477 12 15 12ZM8.56472 14.6099C8.78018 14.4371 9.09487 14.4718 9.26758 14.6873C9.90983 15.4884 10.8951 16 12.0001 16C13.1052 16 14.0905 15.4884 14.7327 14.6873C14.9054 14.4718 15.2201 14.4371 15.4356 14.6099C15.651 14.7826 15.6857 15.0973 15.513 15.3127C14.6891 16.3405 13.4215 17 12.0001 17C10.5788 17 9.31121 16.3405 8.48734 15.3127C8.31462 15.0973 8.34926 14.7826 8.56472 14.6099Z" fill="#2D50E6"/>
</svg>
