<svg width="24" height="24" viewBox="0 0 24 24" fill="none" xmlns="http://www.w3.org/2000/svg">
<path d="M14 12C14 13.1046 13.1055 14 12 14C10.8945 14 10 13.1046 10 12C10 10.8954 10.8945 10 12 10C13.1055 10 14 10.8954 14 12Z" fill="#2D50E6"/>
<path fill-rule="evenodd" clip-rule="evenodd" d="M5 2C3.34375 2 2 3.34314 2 5V19C2 20.6569 3.34375 22 5 22H19C20.6562 22 22 20.6569 22 19V5C22 3.34314 20.6562 2 19 2H5ZM14.668 14.9801C13.9609 15.6144 13.0234 16 12 16C10.9727 16 10.0391 15.614 9.33203 14.9795L6.55078 16.8323C6.08984 17.1384 5.46875 17.0139 5.16406 16.5543C4.85547 16.0946 4.98047 15.4738 5.44141 15.1676L8.22266 13.3156C8.13672 13.0667 8.07422 12.8065 8.03516 12.538C8.01172 12.3621 8 12.1825 8 12C8 10.1361 9.27344 8.57007 11 8.12598V4.99951C11 4.44727 11.4492 3.99951 12 3.99951C12.5508 3.99951 13 4.44727 13 4.99951V8.12598C14.7266 8.57007 16 10.1361 16 12C16 12.4612 15.9219 12.9043 15.7773 13.3165L18.5547 15.1675C19.0156 15.4738 19.1367 16.0947 18.832 16.5542C18.5273 17.0138 17.9062 17.1379 17.4453 16.8315L14.668 14.9801ZM10 18C9.44922 18 9 18.4478 9 19C9 19.5522 9.44922 20 10 20H14C14.5508 20 15 19.5522 15 19C15 18.6527 14.8242 18.3467 14.5547 18.1675C14.3945 18.0616 14.2031 18 14 18H10Z" fill="#2D50E6"/>
</svg>
