<svg width="24" height="24" viewBox="0 0 24 24" fill="none" xmlns="http://www.w3.org/2000/svg">
<path fill-rule="evenodd" clip-rule="evenodd" d="M15.2148 17.3361C13.7436 18.3838 11.9437 19 10 19C5.02944 19 1 14.9706 1 10C1 5.02944 5.02944 1 10 1C14.9706 1 19 5.02944 19 10C19 11.9437 18.3838 13.7436 17.3361 15.2148L22.5607 20.4393C23.1464 21.0251 23.1464 21.9749 22.5607 22.5607C21.9749 23.1464 21.0251 23.1464 20.4393 22.5607L15.2148 17.3361ZM14.8125 15.0833C13.558 16.2714 11.8641 17 10 17C6.13401 17 3 13.866 3 10C3 6.13401 6.13401 3 10 3C13.866 3 17 6.13401 17 10C17 11.8641 16.2714 13.558 15.0833 14.8125C15.0333 14.8512 14.9852 14.8935 14.9393 14.9393C14.8935 14.9852 14.8512 15.0333 14.8125 15.0833Z" fill="#2D50E6"/>
</svg>
