<svg width="24" height="24" viewBox="0 0 24 24" fill="none" xmlns="http://www.w3.org/2000/svg">
<path d="M21.7071 3.70711C22.0976 3.31658 22.0976 2.68342 21.7071 2.29289C21.3166 1.90237 20.6834 1.90237 20.2929 2.29289L13 9.58579V2.71428C13 2.08157 12.2352 1.76471 11.788 2.2121L7 7.00134H5C3.34315 7.00134 2 8.34448 2 10.0013V14.004C2 15.6609 3.34315 17.004 5 17.004H5.58178L2.29289 20.2929C1.90237 20.6834 1.90237 21.3166 2.29289 21.7071C2.68342 22.0976 3.31658 22.0976 3.70711 21.7071L21.7071 3.70711Z" fill="#2D50E6"/>
<path d="M11.788 21.7932L9.11896 19.1235L13 15.2425V21.2911C13 21.9238 12.2352 22.2406 11.788 21.7932Z" fill="#2D50E6"/>
<path d="M15 13.2425V15.7063C15 16.3687 15.7109 16.7612 16.1854 16.2991C17.3048 15.2092 18 13.6858 18 12C18 11.4625 17.9293 10.9415 17.7967 10.4458L15 13.2425Z" fill="#2D50E6"/>
<path d="M20 12C20 10.8916 19.7746 9.83564 19.3669 8.87556L20.8681 7.37443C21.591 8.75744 22 10.3308 22 12C22 15.9278 19.7353 19.3249 16.445 20.96C15.9504 21.2058 15.3502 21.0041 15.1045 20.5095C14.8587 20.0149 15.0604 19.4147 15.5549 19.169C18.1915 17.8587 20 15.1396 20 12Z" fill="#2D50E6"/>
</svg>
