<svg width="24" height="24" viewBox="0 0 24 24" fill="none" xmlns="http://www.w3.org/2000/svg">
<path fill-rule="evenodd" clip-rule="evenodd" d="M23 15C23 17.0751 18.0751 20 12 20C5.92487 20 1 17.0751 1 15C1 8.92487 5.92487 4 12 4C18.0751 4 23 8.92487 23 15ZM12 17C10.8954 17 10 16.1046 10 15C10 13.8954 10.8954 13 12 13C15.1046 13 21 13.8954 21 15C21 16.1046 15.1046 17 12 17ZM12.0047 6H11.9953C11.443 6.00029 10.9955 6.44823 10.9958 7.00052C10.9961 7.5528 11.444 8.00029 11.9963 8H12.0037C12.556 8.00029 13.0039 7.5528 13.0042 7.00052C13.0045 6.44823 12.557 6.00029 12.0047 6ZM8.50332 8.93436C8.9815 8.65802 9.14513 8.04636 8.86879 7.56818C8.59246 7.09 7.9808 6.92638 7.50262 7.20271L7.49448 7.20742C7.01659 7.48426 6.8536 8.09609 7.13044 8.57398C7.40728 9.05187 8.0191 9.21486 8.49699 8.93802L8.50332 8.93436ZM16.4974 7.20271C16.0192 6.92638 15.4075 7.09 15.1312 7.56818C14.8549 8.04636 15.0185 8.65802 15.4967 8.93436L15.503 8.93802C15.9809 9.21486 16.5927 9.05187 16.8695 8.57398C17.1464 8.09609 16.9834 7.48426 16.5055 7.20742L16.4974 7.20271ZM19.7926 10.4945C19.5157 10.0166 18.9039 9.85361 18.426 10.1304C17.9481 10.4073 17.7851 11.0191 18.062 11.497L18.0656 11.5033C18.342 11.9815 18.9536 12.1451 19.4318 11.8688C19.91 11.5925 20.0736 10.9808 19.7973 10.5026L19.7926 10.4945ZM5.93801 11.497C6.21485 11.0191 6.05186 10.4073 5.57397 10.1304C5.09608 9.85361 4.48425 10.0166 4.20742 10.4945L4.2027 10.5026C3.92637 10.9808 4.08999 11.5925 4.56817 11.8688C5.04635 12.1451 5.65801 11.9815 5.93435 11.5033L5.93801 11.497Z" fill="#2D50E6"/>
</svg>
