<svg width="24" height="24" viewBox="0 0 24 24" fill="none" xmlns="http://www.w3.org/2000/svg">
<path fill-rule="evenodd" clip-rule="evenodd" d="M7 3C7 2.44772 6.55228 2 6 2H4C2.89543 2 2 2.89543 2 4V12C2 14.6785 3.75511 16.9471 6.17801 17.7184C6.64343 17.8665 7 18.2748 7 18.7632V19C7 20.6569 8.34315 22 10 22H17C18.6569 22 20 20.6569 20 19V8.53647C20 8.11265 20.2774 7.74814 20.6328 7.51716C21.4558 6.98224 22 6.05468 22 5C22 3.34315 20.6569 2 19 2C17.3431 2 16 3.34315 16 5C16 6.05468 16.5442 6.98224 17.3672 7.51716C17.7226 7.74814 18 8.11265 18 8.53647V19C18 19.5523 17.5523 20 17 20H10C9.44772 20 9 19.5523 9 19V18.7632C9 18.2748 9.35657 17.8665 9.82199 17.7184C12.2449 16.9471 14 14.6785 14 12V4C14 2.89543 13.1046 2 12 2H10C9.44772 2 9 2.44772 9 3C9 3.55228 9.44772 4 10 4H12V12C12 14.2091 10.2091 16 8 16C5.79086 16 4 14.2091 4 12V4H6C6.55228 4 7 3.55228 7 3ZM19 6C19.5523 6 20 5.55228 20 5C20 4.44772 19.5523 4 19 4C18.4477 4 18 4.44772 18 5C18 5.55228 18.4477 6 19 6Z" fill="#2D50E6"/>
</svg>
