<svg width="24" height="24" viewBox="0 0 24 24" fill="none" xmlns="http://www.w3.org/2000/svg">
<path fill-rule="evenodd" clip-rule="evenodd" d="M11.5 2C17.299 2 22 3.11929 22 4.5C22 5.09347 21.5304 5.5304 20.9628 6.05852C20.0957 6.86525 19 7.88475 19 10C19 11 19.25 11.5 19.5 12C19.75 12.5 20 13 20 14C20 15.798 17.9796 16.5857 15.7551 17.453C13.0306 18.5153 10 19.6969 10 23C8.66667 22.5 6 21 6 19C6 17.6803 6.55728 16.6393 7.08351 15.6563C7.55418 14.7771 8 13.9443 8 13C8 11.6515 6.58571 10.7071 5.02855 9.66735C3.12143 8.39388 1 6.9773 1 4.5C1 3.11929 5.70101 2 11.5 2ZM11.5 6C16.1944 6 20 5.32843 20 4.5C20 3.67157 16.1944 3 11.5 3C6.80558 3 3 3.67157 3 4.5C3 5.32843 6.80558 6 11.5 6ZM3.84043 10.0823C4.13972 10.5465 4.00608 11.1654 3.54192 11.4647C3.28846 11.6281 3.14159 11.7707 3.06487 11.8746C3.02829 11.9242 3.01239 11.9585 3.00573 11.9768C2.9998 11.993 2.99998 11.9994 3 12C3 12.0009 2.99998 12.0052 3.00305 12.0153C3.00645 12.0264 3.01483 12.0485 3.03507 12.0814C3.07752 12.1506 3.16408 12.2545 3.32624 12.3823C3.65642 12.6425 4.19616 12.9206 4.95227 13.1726C6.45402 13.6732 8.59229 14 11 14C11.3258 14 11.6472 13.994 11.9632 13.9824C12.5151 13.962 12.979 14.393 12.9993 14.9449C13.0197 15.4968 12.5887 15.9607 12.0368 15.981C11.6962 15.9936 11.3502 16 11 16C8.43715 16 6.07541 15.6552 4.31981 15.07C3.44724 14.7791 2.66896 14.4108 2.08829 13.9531C1.51889 13.5044 1 12.8519 1 12C1 10.9832 1.72951 10.2536 2.45808 9.78384C2.92224 9.48454 3.54114 9.61819 3.84043 10.0823ZM22.8405 8.83381C23.1398 9.29797 23.0062 9.91687 22.542 10.2162C21.6474 10.793 20.3831 11.2315 18.948 11.5289C17.4961 11.8297 15.8016 12 14.0001 12C12.9106 12 11.8617 11.9377 10.8831 11.8224C10.3346 11.7578 9.94234 11.2608 10.007 10.7123C10.0716 10.1638 10.5686 9.77154 11.1171 9.83616C12.0151 9.94197 12.9858 10 14.0001 10C15.6815 10 17.2389 9.84054 18.5422 9.57047C19.8623 9.29691 20.8566 8.92322 21.4582 8.5353C21.9223 8.23601 22.5412 8.36966 22.8405 8.83381Z" fill="#2D50E6"/>
</svg>
