<svg width="24" height="24" viewBox="0 0 24 24" fill="none" xmlns="http://www.w3.org/2000/svg">
<path d="M21.7071 3.70711C22.0976 3.31658 22.0976 2.68342 21.7071 2.29289C21.3166 1.90237 20.6834 1.90237 20.2929 2.29289L17.7971 4.78865C17.1096 4.57504 16.2903 4.51297 15.2488 4.50049C13.1128 4.50051 10.9219 5.40157 9.59532 5.96039L9.5 6.00053C9.98266 6.28199 10.4197 6.66054 10.8145 7.10181C11.754 8.01555 12.2832 8.94605 12.6778 9.90795L11.9057 10.6801C11.4617 9.48641 10.9004 8.43797 9.63919 7.38957C8.12406 6.13005 7.3665 6.13005 5.59885 7.89339C3.83121 6.63387 2.31608 8.6491 3.32616 9.65671C3.4246 9.77673 3.51972 9.89108 3.61171 10H2.2505C2.02777 10 1.91623 10.2693 2.07372 10.4268L3.57517 11.9282C3.73266 12.0857 4.00195 11.9742 4.00195 11.7514V10.4508C5.64519 12.2966 6.17092 12.1631 7.00786 11.9506C7.04266 11.9418 7.078 11.9328 7.11398 11.9238C7.92205 11.7223 8.12407 12.5116 8.12407 12.9315C5.85138 12.9315 4.08372 13.9391 4.58877 16.9619C4.63796 17.2564 4.70391 17.5364 4.78361 17.8022L2.29289 20.2929C1.90237 20.6834 1.90237 21.3166 2.29289 21.7071C2.68342 22.0976 3.31658 22.0976 3.70711 21.7071L21.7071 3.70711Z" fill="#2D50E6"/>
<path d="M7.50194 4.5C7.50194 5.88071 6.38265 7 5.00194 7C3.62123 7 2.50194 5.88071 2.50194 4.5C2.50194 3.11929 3.62123 2 5.00194 2C6.38265 2 7.50194 3.11929 7.50194 4.5Z" fill="#2D50E6"/>
<path d="M7.14153 21.1011C7.54478 21.3645 7.90044 21.4962 8.12407 21.4962C8.88163 21.4962 10.6493 20.9924 9.63919 19.481C9.5216 19.305 9.40258 19.1305 9.284 18.9586L7.14153 21.1011Z" fill="#2D50E6"/>
<path d="M13.2829 14.9597L10.9031 17.3395C11.6474 19.4868 13.3623 22 14.6896 22C16.2047 22 16.9623 20.9924 16.2047 19.9848C16.1044 19.8513 16.0074 19.723 15.9132 19.5985C15.0024 18.394 14.3661 17.5525 13.6795 15.9543C13.5294 15.605 13.3992 15.2754 13.2829 14.9597Z" fill="#2D50E6"/>
<path d="M14.069 14.1736L20.5608 7.68179C21.7928 10.8132 20.2862 14.5269 17.8648 16.0006C16.3634 16.9144 15.3927 16.5184 14.7907 15.829C14.6729 15.6941 14.5869 15.5354 14.5183 15.37C14.3549 14.9757 14.2068 14.5765 14.069 14.1736Z" fill="#2D50E6"/>
</svg>
