<svg width="24" height="24" viewBox="0 0 24 24" fill="none" xmlns="http://www.w3.org/2000/svg">
<path d="M10.8607 1.44197C11.5879 1.72554 12.4121 1.72554 13.1393 1.44197C13.8711 1.1566 14.6672 1 15.5 1C19.0899 1 22 3.91015 22 7.5C22 8.42859 21.8053 9.31171 21.4544 10.1107C20.9999 11.1458 20.2568 12.0699 20.0698 13.1848C20.0247 13.454 20 13.726 20 14C20 18.4183 17.6569 23 16 23C14.4702 23 13.2078 18.9465 13.0232 15.0004C12.9974 14.4487 12.5523 14 12 14C11.4477 14 11.0026 14.4487 10.9768 15.0004C10.7922 18.9465 9.52981 23 8 23C6.34315 23 4 18.4183 4 14C4 13.726 3.97533 13.454 3.93018 13.1848C3.74316 12.0699 3.00005 11.1458 2.54556 10.1107C2.19472 9.3117 2 8.42859 2 7.5C2 3.91015 4.91015 1 8.5 1C9.33276 1 10.1289 1.1566 10.8607 1.44197Z" fill="#2D50E6"/>
</svg>
