<svg width="24" height="24" viewBox="0 0 24 24" fill="none" xmlns="http://www.w3.org/2000/svg">
<path fill-rule="evenodd" clip-rule="evenodd" d="M13.8944 1.55279C13.725 1.214 13.3788 1 13 1L11 1C10.6212 1 10.275 1.214 10.1056 1.55279L9.65836 2.44721C9.48897 2.786 9.1427 3 8.76393 3H4C3.44772 3 3 3.44772 3 4C3 4.55228 3.44772 5 4 5H4.11075C4.61784 5 5.04465 5.37955 5.1039 5.88316L6.7922 20.2337C6.9107 21.2409 7.76433 22 8.7785 22H15.2215C16.2357 22 17.0893 21.2409 17.2078 20.2337L18.8961 5.88316C18.9553 5.37955 19.3822 5 19.8892 5H20C20.5523 5 21 4.55228 21 4C21 3.44772 20.5523 3 20 3H15.2361C14.8573 3 14.511 2.786 14.3416 2.44721L13.8944 1.55279ZM8.08994 8.0793C8.04152 7.4983 8.50003 7 9.08305 7C9.60134 7 10.0331 7.39729 10.0761 7.91379L10.9101 17.9207C10.9585 18.5017 10.5 19 9.91695 19C9.39866 19 8.96689 18.6027 8.92385 18.0862L8.08994 8.0793ZM14.917 7C15.5 7 15.9585 7.4983 15.9101 8.0793L15.0761 18.0862C15.0331 18.6027 14.6013 19 14.083 19C13.5 19 13.0415 18.5017 13.0899 17.9207L13.9239 7.91379C13.9669 7.39729 14.3987 7 14.917 7Z" fill="#2D50E6"/>
</svg>
