<svg width="24" height="24" viewBox="0 0 24 24" fill="none" xmlns="http://www.w3.org/2000/svg">
<path d="M3.5 8C4.32843 8 5 7.32843 5 6.5C5 5.67157 4.32843 5 3.5 5C2.67157 5 2 5.67157 2 6.5C2 7.32843 2.67157 8 3.5 8Z" fill="#2D50E6"/>
<path d="M7.8 5C7.35817 5 7 5.44772 7 6V7C7 7.55228 7.35817 8 7.8 8H21.2C21.6418 8 22 7.55228 22 7V6C22 5.44772 21.6418 5 21.2 5H7.8Z" fill="#2D50E6"/>
<path d="M3.5 14C4.32843 14 5 13.3284 5 12.5C5 11.6716 4.32843 11 3.5 11C2.67157 11 2 11.6716 2 12.5C2 13.3284 2.67157 14 3.5 14Z" fill="#2D50E6"/>
<path d="M7.8 11C7.35817 11 7 11.4477 7 12V13C7 13.5523 7.35817 14 7.8 14H21.2C21.6418 14 22 13.5523 22 13V12C22 11.4477 21.6418 11 21.2 11H7.8Z" fill="#2D50E6"/>
<path d="M5 18.5C5 19.3284 4.32843 20 3.5 20C2.67157 20 2 19.3284 2 18.5C2 17.6716 2.67157 17 3.5 17C4.32843 17 5 17.6716 5 18.5Z" fill="#2D50E6"/>
<path d="M7 18C7 17.4477 7.35817 17 7.8 17H21.2C21.6418 17 22 17.4477 22 18V19C22 19.5523 21.6418 20 21.2 20H7.8C7.35817 20 7 19.5523 7 19V18Z" fill="#2D50E6"/>
</svg>
