<svg width="24" height="24" viewBox="0 0 24 24" fill="none" xmlns="http://www.w3.org/2000/svg">
<circle cx="12" cy="12" r="11" fill="white"/>
<path fill-rule="evenodd" clip-rule="evenodd" d="M3 12C3 12.2356 3.00905 12.469 3.02682 12.7H12V3C10.1497 3 8.4299 3.55833 6.99976 4.51571C6.99146 4.78458 6.77089 5 6.5 5C6.45336 5 6.40822 4.99361 6.36539 4.98167C6.20816 5.10807 6.05526 5.23963 5.90697 5.37612C5.96553 5.45801 6 5.55831 6 5.66667C6 5.94281 5.77614 6.16667 5.5 6.16667C5.39627 6.16667 5.29993 6.13508 5.22005 6.081C5.10064 6.21766 4.9853 6.35796 4.87422 6.50172C4.95248 6.58997 5 6.7061 5 6.83333C5 7.10948 4.77614 7.33333 4.5 7.33333C4.43754 7.33333 4.37775 7.32188 4.32263 7.30096C3.48369 8.66871 3 10.2779 3 12ZM8.5 5C8.77614 5 9 4.77614 9 4.5C9 4.22386 8.77614 4 8.5 4C8.22386 4 8 4.22386 8 4.5C8 4.77614 8.22386 5 8.5 5ZM11 4.5C11 4.77614 10.7761 5 10.5 5C10.2239 5 10 4.77614 10 4.5C10 4.22386 10.2239 4 10.5 4C10.7761 4 11 4.22386 11 4.5ZM7.5 6.16667C7.77614 6.16667 8 5.94281 8 5.66667C8 5.39052 7.77614 5.16667 7.5 5.16667C7.22386 5.16667 7 5.39052 7 5.66667C7 5.94281 7.22386 6.16667 7.5 6.16667ZM10 5.66667C10 5.94281 9.77614 6.16667 9.5 6.16667C9.22386 6.16667 9 5.94281 9 5.66667C9 5.39052 9.22386 5.16667 9.5 5.16667C9.77614 5.16667 10 5.39052 10 5.66667ZM6.5 7.33333C6.77614 7.33333 7 7.10948 7 6.83333C7 6.55719 6.77614 6.33333 6.5 6.33333C6.22386 6.33333 6 6.55719 6 6.83333C6 7.10948 6.22386 7.33333 6.5 7.33333ZM9 6.83333C9 7.10948 8.77614 7.33333 8.5 7.33333C8.22386 7.33333 8 7.10948 8 6.83333C8 6.55719 8.22386 6.33333 8.5 6.33333C8.77614 6.33333 9 6.55719 9 6.83333ZM10.5 7.33333C10.7761 7.33333 11 7.10948 11 6.83333C11 6.55719 10.7761 6.33333 10.5 6.33333C10.2239 6.33333 10 6.55719 10 6.83333C10 7.10948 10.2239 7.33333 10.5 7.33333ZM6 8C6 8.27614 5.77614 8.5 5.5 8.5C5.22386 8.5 5 8.27614 5 8C5 7.72386 5.22386 7.5 5.5 7.5C5.77614 7.5 6 7.72386 6 8ZM7.5 8.5C7.77614 8.5 8 8.27614 8 8C8 7.72386 7.77614 7.5 7.5 7.5C7.22386 7.5 7 7.72386 7 8C7 8.27614 7.22386 8.5 7.5 8.5ZM10 8C10 8.27614 9.77614 8.5 9.5 8.5C9.22386 8.5 9 8.27614 9 8C9 7.72386 9.22386 7.5 9.5 7.5C9.77614 7.5 10 7.72386 10 8ZM4.5 9.66667C4.77614 9.66667 5 9.44281 5 9.16667C5 8.89052 4.77614 8.66667 4.5 8.66667C4.22386 8.66667 4 8.89052 4 9.16667C4 9.44281 4.22386 9.66667 4.5 9.66667ZM7 9.16667C7 9.44281 6.77614 9.66667 6.5 9.66667C6.22386 9.66667 6 9.44281 6 9.16667C6 8.89052 6.22386 8.66667 6.5 8.66667C6.77614 8.66667 7 8.89052 7 9.16667ZM8.5 9.66667C8.77614 9.66667 9 9.44281 9 9.16667C9 8.89052 8.77614 8.66667 8.5 8.66667C8.22386 8.66667 8 8.89052 8 9.16667C8 9.44281 8.22386 9.66667 8.5 9.66667ZM11 9.16667C11 9.44281 10.7761 9.66667 10.5 9.66667C10.2239 9.66667 10 9.44281 10 9.16667C10 8.89052 10.2239 8.66667 10.5 8.66667C10.7761 8.66667 11 8.89052 11 9.16667ZM5.5 10.8333C5.77614 10.8333 6 10.6095 6 10.3333C6 10.0572 5.77614 9.83333 5.5 9.83333C5.22386 9.83333 5 10.0572 5 10.3333C5 10.6095 5.22386 10.8333 5.5 10.8333ZM8 10.3333C8 10.6095 7.77614 10.8333 7.5 10.8333C7.22386 10.8333 7 10.6095 7 10.3333C7 10.0572 7.22386 9.83333 7.5 9.83333C7.77614 9.83333 8 10.0572 8 10.3333ZM9.5 10.8333C9.77614 10.8333 10 10.6095 10 10.3333C10 10.0572 9.77614 9.83333 9.5 9.83333C9.22386 9.83333 9 10.0572 9 10.3333C9 10.6095 9.22386 10.8333 9.5 10.8333ZM5 11.5C5 11.7761 4.77614 12 4.5 12C4.22386 12 4 11.7761 4 11.5C4 11.2239 4.22386 11 4.5 11C4.77614 11 5 11.2239 5 11.5ZM6.5 12C6.77614 12 7 11.7761 7 11.5C7 11.2239 6.77614 11 6.5 11C6.22386 11 6 11.2239 6 11.5C6 11.7761 6.22386 12 6.5 12ZM9 11.5C9 11.7761 8.77614 12 8.5 12C8.22386 12 8 11.7761 8 11.5C8 11.2239 8.22386 11 8.5 11C8.77614 11 9 11.2239 9 11.5ZM10.5 12C10.7761 12 11 11.7761 11 11.5C11 11.2239 10.7761 11 10.5 11C10.2239 11 10 11.2239 10 11.5C10 11.7761 10.2239 12 10.5 12Z" fill="#2D50E6"/>
<path d="M12.0001 12.7H20.9733C20.9911 12.469 21.0001 12.2356 21.0001 12C21.0001 11.7644 20.9911 11.531 20.9733 11.3H12.0001V12.7Z" fill="#D95762"/>
<path d="M12.0001 9.93333H20.7617C20.6483 9.45052 20.4959 8.98269 20.3082 8.53333H12.0001V9.93333Z" fill="#D95762"/>
<path d="M12.0001 7.16667H19.5935C19.2727 6.6638 18.9034 6.19493 18.4921 5.76667H12.0001V7.16667Z" fill="#D95762"/>
<path d="M12.0001 4.4H16.823C15.429 3.5135 13.7745 3 12.0001 3V4.4Z" fill="#D95762"/>
<path d="M3.23853 14.0667C3.35197 14.5495 3.5043 15.0173 3.69202 15.4667H20.3082C20.4959 15.0173 20.6483 14.5495 20.7617 14.0667H3.23853Z" fill="#D95762"/>
<path d="M5.50814 18.2333C5.09683 17.8051 4.7275 17.3362 4.40674 16.8333H19.5935C19.2727 17.3362 18.9034 17.8051 18.4921 18.2333H5.50814Z" fill="#D95762"/>
<path d="M12.0001 21C13.7745 21 15.429 20.4865 16.823 19.6H7.17719C8.57124 20.4865 10.2257 21 12.0001 21Z" fill="#D95762"/>
</svg>
