<svg width="24" height="24" viewBox="0 0 24 24" fill="none" xmlns="http://www.w3.org/2000/svg">
<g clip-path="url(#clip0_3638_268)">
<path fill-rule="evenodd" clip-rule="evenodd" d="M2.19008 1.10764C2.31014 1.01281 2.46699 0.978168 2.61581 1.0136L23.6158 6.0136C23.8625 6.07234 24.0262 6.30645 23.9966 6.55831C23.967 6.81017 23.7536 7 23.5 7H22V21H2V1.5C2 1.34702 2.07003 1.20246 2.19008 1.10764ZM4 5.6933C4 5.04735 4.60325 4.57088 5.23162 4.72049L10.2316 5.91097C10.6821 6.01822 11 6.42071 11 6.88377V16.0002C11 16.5525 10.5523 17.0002 10 17.0002H5C4.44772 17.0002 4 16.5525 4 16.0002V5.6933ZM14.2316 6.86307C13.6032 6.71345 13 7.18993 13 7.83587V15.9999C13 16.5522 13.4477 16.9999 14 16.9999H19C19.5523 16.9999 20 16.5522 20 15.9999V9.02635C20 8.56329 19.6821 8.1608 19.2316 8.05354L14.2316 6.86307Z" fill="#2D50E6"/>
</g>
<defs>
<clipPath id="clip0_3638_268">
<rect width="24" height="24" fill="white"/>
</clipPath>
</defs>
</svg>
