<svg width="24" height="24" viewBox="0 0 24 24" fill="none" xmlns="http://www.w3.org/2000/svg">
<path fill-rule="evenodd" clip-rule="evenodd" d="M13.4876 1.60565C12.6582 0.798118 11.3418 0.798118 10.5124 1.60565L9.84268 2.25773C9.36838 2.71951 8.70889 2.93517 8.05548 2.84215L7.1328 2.71081C5.99016 2.54815 4.92525 3.32682 4.72587 4.47078L4.56486 5.39452C4.45084 6.04868 4.04325 6.61328 3.46031 6.92456L2.63714 7.36412C1.61773 7.90847 1.21097 9.16839 1.71777 10.2118L2.12701 11.0544C2.41683 11.6511 2.41683 12.3489 2.12701 12.9456L1.71777 13.7882C1.21097 14.8316 1.61773 16.0915 2.63714 16.6359L3.46031 17.0754C4.04325 17.3867 4.45084 17.9513 4.56486 18.6055L4.72587 19.5292C4.92525 20.6732 5.99016 21.4519 7.1328 21.2892L8.05548 21.1578C8.70889 21.0648 9.36838 21.2805 9.84268 21.7423L10.5124 22.3944C11.3418 23.2019 12.6582 23.2019 13.4876 22.3944L14.1573 21.7423C14.6316 21.2805 15.2911 21.0648 15.9445 21.1578L16.8672 21.2892C18.0098 21.4519 19.0748 20.6732 19.2741 19.5292L19.4351 18.6055C19.5492 17.9513 19.9567 17.3867 20.5397 17.0754L21.3629 16.6359C22.3823 16.0915 22.789 14.8316 22.2822 13.7882L21.873 12.9456C21.5832 12.3489 21.5832 11.6511 21.873 11.0544L22.2822 10.2118C22.789 9.16839 22.3823 7.90847 21.3629 7.36412L20.5397 6.92456C19.9567 6.61328 19.5492 6.04868 19.4351 5.39452L19.2741 4.47077C19.0748 3.32682 18.0098 2.54815 16.8672 2.71081L15.9445 2.84215C15.2911 2.93517 14.6316 2.71951 14.1573 2.25773L13.4876 1.60565ZM17.7682 8.64021C18.1218 8.21593 18.0645 7.58537 17.6402 7.2318C17.2159 6.87824 16.5854 6.93556 16.2318 7.35984L10.3334 14.438L7.76825 11.3598C7.41468 10.9356 6.78412 10.8782 6.35984 11.2318C5.93556 11.5854 5.87824 12.2159 6.2318 12.6402L9.56514 16.6402C9.75513 16.8682 10.0366 17 10.3334 17C10.6301 17 10.9116 16.8682 11.1016 16.6402L17.7682 8.64021Z" fill="#2D50E6"/>
</svg>
