<svg width="24" height="24" viewBox="0 0 24 24" fill="none" xmlns="http://www.w3.org/2000/svg">
<path d="M15.704 8C16.4561 8 17.0643 8.17301 17.4478 8.3297L17.1834 10.002L17.0075 9.91974C16.6557 9.76315 16.1913 9.60668 15.5593 9.62321C14.7917 9.62321 14.4475 9.9608 14.4395 10.2904C14.4395 10.6529 14.8559 10.8919 15.5359 11.2462C16.656 11.7982 17.1756 12.4737 17.1678 13.3553C17.1521 14.9618 15.824 16 13.7841 16C12.9119 15.9917 12.0718 15.8018 11.6158 15.5878L11.8878 13.8494L12.1438 13.9732C12.7759 14.2618 13.1918 14.3851 13.968 14.3851C14.5277 14.3851 15.1279 14.146 15.1355 13.6272C15.1355 13.2894 14.8798 13.042 14.1277 12.663C13.3918 12.2921 12.4078 11.6743 12.4238 10.5621C12.4321 9.05448 13.7841 8 15.704 8Z" fill="#00579F"/>
<path d="M8.4558 15.8846H10.4L11.6159 8.14038H9.67182L8.4558 15.8846Z" fill="#00579F"/>
<path fill-rule="evenodd" clip-rule="evenodd" d="M22.4315 8.14038H20.9277C20.464 8.14038 20.1117 8.28032 19.9116 8.78292L17.0238 15.8845H19.0637C19.0637 15.8845 19.3996 14.9287 19.4718 14.7228H21.9679C22.0237 14.9947 22.1999 15.8845 22.1999 15.8845H24L22.4315 8.14038ZM20.0317 13.1411C20.1918 12.6962 20.8079 10.9743 20.8079 10.9743C20.8047 10.981 20.8301 10.9083 20.8679 10.8003L20.8679 10.8003L20.868 10.8002C20.9238 10.6409 21.0065 10.4047 21.0637 10.2329L21.1996 10.9002C21.1996 10.9002 21.5677 12.7539 21.6477 13.1411H20.0317Z" fill="#00579F"/>
<path d="M4.92798 13.4212L6.83196 8.14038H8.88776L5.83186 15.8764H3.77596L2.03198 9.10408C3.26395 9.77169 4.36792 11.1144 4.71992 12.3502L4.92798 13.4212Z" fill="#00579F"/>
<path d="M3.15998 8.14038H0.0320004L0 8.29685C2.44002 8.9395 4.05599 10.4886 4.71992 12.3505L4.03994 8.79135C3.92799 8.29675 3.58396 8.1567 3.15998 8.14038Z" fill="#FAA61A"/>
</svg>
