<svg width="24" height="24" viewBox="0 0 24 24" fill="none" xmlns="http://www.w3.org/2000/svg">
<path fill-rule="evenodd" clip-rule="evenodd" d="M1.70257 10.3039C0.765811 11.2406 0.765811 12.7594 1.70257 13.6961L10.3039 22.2974C11.2406 23.2342 12.7594 23.2342 13.6961 22.2974L22.2974 13.6961C23.2342 12.7594 23.2342 11.2406 22.2974 10.3039L13.6961 1.70257C12.7594 0.765811 11.2406 0.765811 10.3039 1.70257L1.70257 10.3039ZM13.0272 13.2389C13.0022 13.8975 12.6509 14.2802 12.011 14.2802C11.3649 14.2802 11.0199 13.8975 11.0011 13.2389L10.8819 7.38003C10.8757 7.29221 10.8694 7.19812 10.8694 7.12912C10.8694 6.42028 11.321 6 12.011 6C12.7073 6 13.1464 6.42028 13.1464 7.12912C13.1464 7.16154 13.145 7.1995 13.1436 7.23975C13.1419 7.28516 13.1402 7.33348 13.1402 7.38003L13.0272 13.2389ZM13.3095 16.7517C13.3095 17.448 12.7261 18 12.011 18C11.2897 18 10.7 17.448 10.7 16.7517C10.7 16.0554 11.2897 15.4971 12.011 15.4971C12.7261 15.4971 13.3095 16.0554 13.3095 16.7517Z" fill="#2D50E6"/>
</svg>
