<svg width="24" height="24" viewBox="0 0 24 24" fill="none" xmlns="http://www.w3.org/2000/svg">
<path fill-rule="evenodd" clip-rule="evenodd" d="M12 23C15.866 23 19 19.866 19 16C19 14.2065 18.5224 12.2855 17.8166 10.426L7.17304 21.0696C8.42893 22.2658 10.1287 23 12 23ZM17 16C17 15.4477 16.5523 15 16 15C15.4477 15 15 15.4477 15 16C15 17.6569 13.6569 19 12 19C11.4477 19 11 19.4477 11 20C11 20.5523 11.4477 21 12 21C14.7614 21 17 18.7614 17 16Z" fill="#2D50E6"/>
<path d="M16.0234 6.56244C14.821 4.34152 13.5344 2.47011 12.7483 1.3912C12.3714 0.873832 11.6286 0.873833 11.2517 1.3912C9.44634 3.86924 5 10.5279 5 16C5 16.4929 5.05094 16.9739 5.14784 17.438L2.29289 20.2929C1.90237 20.6834 1.90237 21.3166 2.29289 21.7071C2.68342 22.0977 3.31658 22.0977 3.70711 21.7071L21.7071 3.70713C22.0976 3.31661 22.0976 2.68344 21.7071 2.29292C21.3166 1.9024 20.6834 1.9024 20.2929 2.29292L16.0234 6.56244Z" fill="#2D50E6"/>
</svg>
