<svg width="24" height="24" viewBox="0 0 24 24" fill="none" xmlns="http://www.w3.org/2000/svg">
<path d="M11.999 4C16.0996 4 19.9431 5.69002 22.7885 8.63302C22.8108 8.65616 22.8358 8.68228 22.8633 8.71136C23.03 8.88773 23.0436 9.15411 22.9074 9.34512L22.8493 9.41289L22.1642 10.0817C21.9605 10.2762 21.6441 10.2688 21.4536 10.0689C21.42 10.0337 21.3898 10.0024 21.363 9.97513C18.8803 7.44757 15.5517 6.00006 11.999 6.00006C8.5259 6.00006 5.26691 7.38351 2.80305 9.80708C2.73351 9.87548 2.64786 9.963 2.54611 10.0696L2.54233 10.0736C2.37098 10.2493 2.10192 10.2719 1.90552 10.1392L1.83561 10.0822L1.15072 9.41354C0.955311 9.22276 0.949124 8.91037 1.13677 8.71195C1.25027 8.592 1.34494 8.49426 1.4208 8.41873C4.24374 5.60812 7.99906 4 11.999 4Z" fill="#C0BEB8"/>
<path d="M19.7982 11.1824C17.6974 9.15645 14.9361 8.00012 11.999 8.00012C9.00313 8.00012 6.19002 9.20327 4.07429 11.3053C4.02891 11.3504 3.97524 11.4053 3.91328 11.4702C3.72355 11.6688 3.72955 11.9834 3.92673 12.1747L4.61433 12.8416L4.68442 12.8984C4.88122 13.0303 5.15015 13.0069 5.32092 12.8307C5.3746 12.7753 5.42161 12.7279 5.46196 12.6886C7.2179 10.9767 9.53253 10.0002 11.999 10.0002C14.4116 10.0002 16.6788 10.9345 18.4201 12.5773C18.49 12.6433 18.5757 12.7286 18.6771 12.833C18.8692 13.0309 19.1853 13.0357 19.3833 12.8437L20.071 12.1768L20.1297 12.1088C20.2674 11.9169 20.2532 11.6483 20.0841 11.4718C19.9704 11.3529 19.8751 11.2565 19.7982 11.1824Z" fill="#C0BEB8"/>
<path d="M14.4436 16.9195C13.7801 16.3454 12.9281 16.0004 11.9989 16.0004C11.0913 16.0004 10.2574 16.3296 9.60078 16.8799C9.56971 16.906 9.53525 16.9367 9.4974 16.9721C9.49294 16.9763 9.48856 16.9806 9.48426 16.9849C9.28975 17.1808 9.29082 17.4975 9.48667 17.6921L11.6702 19.8621C11.8552 20.046 12.146 20.046 12.331 19.8621L14.5135 17.6926C14.5184 17.6878 14.5231 17.6828 14.5278 17.6778C14.7154 17.4753 14.7035 17.1589 14.5011 16.9712C14.4806 16.9522 14.4615 16.935 14.4436 16.9195Z" fill="#2C2302"/>
<path d="M17.1309 14.0574C15.7395 12.7472 13.9258 12.0002 11.9989 12.0002C10.0356 12.0002 8.18973 12.7758 6.78841 14.1324C6.75996 14.16 6.72796 14.1919 6.69242 14.2282C6.49918 14.4254 6.5024 14.742 6.69955 14.9353L6.70403 14.9397L7.39807 15.6034L7.47631 15.6647C7.66916 15.7869 7.9268 15.7639 8.09508 15.5972C8.13281 15.5598 8.1667 15.5272 8.19675 15.4995C9.23441 14.5431 10.574 14.0003 11.9989 14.0003C13.3654 14.0003 14.6534 14.4995 15.6718 15.3838C15.7357 15.4393 15.8124 15.5114 15.9018 15.6001C16.0941 15.7907 16.4031 15.7935 16.5988 15.6065L17.2941 14.9419L17.3535 14.874C17.4928 14.6822 17.4797 14.4124 17.3102 14.2349L17.1834 14.1078C17.1649 14.0897 17.1474 14.0729 17.1309 14.0574Z" fill="#2C2302"/>
</svg>
