<svg width="24" height="24" viewBox="0 0 24 24" fill="none" xmlns="http://www.w3.org/2000/svg">
<path fill-rule="evenodd" clip-rule="evenodd" d="M15.8418 7.52566L15.1954 5.58632C15.0756 5.22698 15.1691 4.83082 15.437 4.56298L17.5628 2.43712C18.097 1.90295 17.8546 1.01307 17.0993 1.00081C17.0662 1.00027 17.0331 1 16.9999 1C13.6862 1 10.9999 3.68629 10.9999 7C10.9999 7.73516 11.1322 8.43944 11.3741 9.09036L1.73223 18.7322C0.755922 19.7085 0.755922 21.2915 1.73223 22.2678C2.70854 23.2441 4.29146 23.2441 5.26777 22.2678L14.9097 12.6259C15.5606 12.8678 16.2648 13 16.9999 13C20.3136 13 22.9999 10.3137 22.9999 7C22.9999 6.96683 22.9997 6.93371 22.9991 6.90067C22.9869 6.14534 22.097 5.90295 21.5628 6.43712L19.437 8.56298C19.1691 8.83082 18.773 8.92434 18.4136 8.80456L16.4743 8.15811C16.1757 8.05858 15.9414 7.82426 15.8418 7.52566ZM4 21C4.55228 21 5 20.5523 5 20C5 19.4477 4.55228 19 4 19C3.44772 19 3 19.4477 3 20C3 20.5523 3.44772 21 4 21Z" fill="#2D50E6"/>
</svg>
