<svg width="24" height="24" viewBox="0 0 24 24" fill="none" xmlns="http://www.w3.org/2000/svg">
<path fill-rule="evenodd" clip-rule="evenodd" d="M3 9C3 4.58172 6.58172 1 11 1C15.4183 1 19 4.58172 19 9V13.3912C19 13.4591 18.9676 13.5226 18.9151 13.5657C18.6995 13.7426 18.3844 13.776 18.1494 13.6259C17.6611 13.3142 17.1007 13.1056 16.4988 13.0307C16.2247 12.9967 16 12.7761 16 12.5V9C16 8.84909 15.9933 8.69975 15.9802 8.55225L8.25237 19.178C9.04084 19.6976 9.98511 20 11 20C11.4836 20 12.2418 19.8073 12.6596 19.6897C12.8446 19.6376 13.0441 19.6905 13.1799 19.8266C13.2795 19.9263 13.3937 20.0363 13.4786 20.1053C13.7038 20.2884 13.7732 20.6162 13.6046 20.8524L13.4657 21.0469C13.2323 21.3735 13.1122 21.9732 13.0557 22.3654C13.0235 22.5888 12.8584 22.7745 12.6359 22.8125C12.1932 22.8881 11.4602 23 11 23C6.58172 23 3 19.4183 3 15V9ZM13.7473 4.82175L6.01973 15.4472C6.00667 15.2999 6 15.1507 6 15V9C6 6.23858 8.23858 4 11 4C12.0148 4 12.9589 4.3023 13.7473 4.82175Z" fill="#2D50E6"/>
<path d="M20.9069 15.7907C21.0674 15.566 21.0153 15.2537 20.7906 15.0932C20.5659 14.9327 20.2536 14.9847 20.0931 15.2094L15.0931 22.2094C14.9326 22.4341 14.9847 22.7464 15.2094 22.9069C15.4341 23.0674 15.7464 23.0154 15.9069 22.7907L20.9069 15.7907Z" fill="#2D50E6"/>
<path fill-rule="evenodd" clip-rule="evenodd" d="M16 19C17.1046 19 18 18.1046 18 17C18 15.8955 17.1046 15 16 15C14.8954 15 14 15.8955 14 17C14 18.1046 14.8954 19 16 19ZM16 18C16.5523 18 17 17.5523 17 17C17 16.4478 16.5523 16 16 16C15.4477 16 15 16.4478 15 17C15 17.5523 15.4477 18 16 18Z" fill="#2D50E6"/>
<path fill-rule="evenodd" clip-rule="evenodd" d="M22 21C22 22.1046 21.1046 23 20 23C18.8954 23 18 22.1046 18 21C18 19.8955 18.8954 19 20 19C21.1046 19 22 19.8955 22 21ZM21 21C21 21.5523 20.5523 22 20 22C19.4477 22 19 21.5523 19 21C19 20.4478 19.4477 20 20 20C20.5523 20 21 20.4478 21 21Z" fill="#2D50E6"/>
</svg>
