<svg width="16" height="16" viewBox="0 0 16 16" fill="none" xmlns="http://www.w3.org/2000/svg">
<path d="M7 3.5C7 4.88071 6.10457 6 5 6C3.89543 6 3 4.88071 3 3.5C3 2.11929 3.89543 1 5 1C6.10457 1 7 2.11929 7 3.5Z" fill="#2D50E6"/>
<path d="M6.4108 8.40243C6.69946 7.9025 6.56682 7.20393 6 7.09451C5.68038 7.03281 5.3453 7 5 7C2.79086 7 1 8.34315 1 10C1 10.5523 1.44772 11 2 11H5.22741C5.72137 11 6 10.494 6 10C6 9.44623 6.13703 8.93224 6.37279 8.47196C6.38423 8.44964 6.39696 8.4264 6.4108 8.40243Z" fill="#2D50E6"/>
<path fill-rule="evenodd" clip-rule="evenodd" d="M11 15C13.2091 15 15 13.2091 15 11C15 8.79086 13.2091 7 11 7C8.79086 7 7 8.79086 7 11C7 13.2091 8.79086 15 11 15ZM11.5 9C11.5 8.72386 11.2761 8.5 11 8.5C10.7239 8.5 10.5 8.72386 10.5 9V10.5H9C8.72386 10.5 8.5 10.7239 8.5 11C8.5 11.2761 8.72386 11.5 9 11.5H10.5V13C10.5 13.2761 10.7239 13.5 11 13.5C11.2761 13.5 11.5 13.2761 11.5 13V11.5H13C13.2761 11.5 13.5 11.2761 13.5 11C13.5 10.7239 13.2761 10.5 13 10.5H11.5V9Z" fill="#2D50E6"/>
</svg>
