<svg width="16" height="16" viewBox="0 0 16 16" fill="none" xmlns="http://www.w3.org/2000/svg">
<path d="M9 3.99999V1.4971C9 1.05164 9.53857 0.82856 9.85355 1.14354L12.8564 4.14644C13.1714 4.46142 12.9483 4.99999 12.5029 4.99999H10C9.44772 4.99999 9 4.55227 9 3.99999Z" fill="#2D50E6"/>
<path fill-rule="evenodd" clip-rule="evenodd" d="M4 0.999989C3.44772 0.999989 3 1.4477 3 1.99999V14C3 14.5523 3.44772 15 4 15H12C12.5523 15 13 14.5523 13 14V6.99999C13 6.4477 12.5523 5.99999 12 5.99999H9.5C8.67157 5.99999 8 5.32842 8 4.49999V1.99999C8 1.4477 7.55228 0.999989 7 0.999989H4ZM8 6.99999C7.72386 6.99999 7.5 7.22385 7.5 7.49999V9.49999H5.5C5.22386 9.49999 5 9.72385 5 9.99999C5 10.2761 5.22386 10.5 5.5 10.5H7.5V12.5C7.5 12.7761 7.72386 13 8 13C8.27614 13 8.5 12.7761 8.5 12.5V10.5H10.5C10.7761 10.5 11 10.2761 11 9.99999C11 9.72385 10.7761 9.49999 10.5 9.49999H8.5V7.49999C8.5 7.22385 8.27614 6.99999 8 6.99999Z" fill="#2D50E6"/>
</svg>
