<svg width="16" height="16" viewBox="0 0 16 16" fill="none" xmlns="http://www.w3.org/2000/svg">
<path d="M9 4C9 5.65686 7.88071 7 6.5 7C5.11929 7 4 5.65686 4 4C4 2.34314 5.11929 1 6.5 1C7.88071 1 9 2.34314 9 4Z" fill="#2D50E6"/>
<path d="M2 12C2 11.0474 2.3746 10.1726 3 9.48563C3.82498 8.57941 5.08636 8 6.5 8C6.71227 8 6.8232 8.24231 6.71369 8.42415C6.26061 9.17646 6 10.0578 6 11C6 11.4421 6.05738 11.8708 6.1651 12.2791C6.25706 12.6276 6.01241 13 5.65194 13H3C2.44771 13 2 12.5523 2 12Z" fill="#2D50E6"/>
<path fill-rule="evenodd" clip-rule="evenodd" d="M15 11C15 13.2091 13.2091 15 11 15C8.79086 15 7 13.2091 7 11C7 8.79086 8.79086 7 11 7C13.2091 7 15 8.79086 15 11ZM11 8.5C11.2761 8.5 11.5 8.72386 11.5 9V10.5H13C13.2761 10.5 13.5 10.7239 13.5 11C13.5 11.2761 13.2761 11.5 13 11.5H11.5V13C11.5 13.2761 11.2761 13.5 11 13.5C10.7239 13.5 10.5 13.2761 10.5 13V11.5H9C8.72386 11.5 8.5 11.2761 8.5 11C8.5 10.7239 8.72386 10.5 9 10.5H10.5V9C10.5 8.72386 10.7239 8.5 11 8.5Z" fill="#2D50E6"/>
</svg>
