<svg width="16" height="16" viewBox="0 0 16 16" fill="none" xmlns="http://www.w3.org/2000/svg">
<path fill-rule="evenodd" clip-rule="evenodd" d="M8 15C11.866 15 15 11.866 15 8C15 4.13401 11.866 1 8 1C4.13401 1 1 4.13401 1 8C1 11.866 4.13401 15 8 15ZM6 11C6.55228 11 7 10.3284 7 9.5C7 8.67157 6.55228 8 6 8C5.44772 8 5 8.67157 5 9.5C5 10.3284 5.44772 11 6 11ZM11 9.5C11 10.3284 10.5523 11 10 11C9.44771 11 9 10.3284 9 9.5C9 8.67157 9.44771 8 10 8C10.5523 8 11 8.67157 11 9.5ZM9.129 11.4488C8.84478 11.2154 8.45831 11 7.99999 11C7.54165 11 7.1551 11.2155 6.87083 11.4489C6.82442 11.487 6.77493 11.5263 6.724 11.5666C6.34398 11.8681 5.88384 12.233 6.02554 12.6581C6.08112 12.8248 6.21603 12.9428 6.37431 12.984C6.54063 13.0274 6.70416 12.9461 6.86043 12.8684C6.87816 12.8596 6.89597 12.8508 6.9135 12.8422C7.20206 12.7019 7.6738 12.5 7.99999 12.5C8.32611 12.5 8.79762 12.7018 9.08613 12.8421L9.10061 12.8492L9.13923 12.8683C9.29559 12.9461 9.45922 13.0274 9.62562 12.984C9.78384 12.9427 9.91867 12.8248 9.97423 12.6581C10.1159 12.233 9.65608 11.8682 9.27607 11.5668C9.22506 11.5263 9.17549 11.487 9.129 11.4488ZM6.66704 5.51389L4.62929 5.01688C4.58805 5.00587 4.54471 5 4.5 5C4.22386 5 4 5.22386 4 5.5C4 5.65532 4.07082 5.79409 4.18192 5.8858L5.8275 7.24212L5.82869 7.24119C6.00616 7.40202 6.24164 7.5 6.5 7.5C7.05228 7.5 7.5 7.05228 7.5 6.5C7.5 6.00463 7.13981 5.59339 6.66704 5.51389ZM11.3707 5.01688L9.33296 5.51389C8.86019 5.59339 8.5 6.00463 8.5 6.5C8.5 7.05228 8.94772 7.5 9.5 7.5C9.75836 7.5 9.99384 7.40202 10.1713 7.24119L10.1725 7.24212L11.8181 5.8858C11.9292 5.79409 12 5.65532 12 5.5C12 5.22386 11.7761 5 11.5 5C11.4553 5 11.4119 5.00587 11.3707 5.01688Z" fill="#2D50E6"/>
</svg>
