<svg width="16" height="16" viewBox="0 0 16 16" fill="none" xmlns="http://www.w3.org/2000/svg">
<path fill-rule="evenodd" clip-rule="evenodd" d="M1 3C1 1.89543 1.89543 1 3 1H13C14.1046 1 15 1.89543 15 3V13C15 14.1046 14.1046 15 13 15H3C1.89543 15 1 14.1046 1 13V3ZM11.7071 2H13C13.0896 2 13.1764 2.01178 13.259 2.03387L2.03387 13.259C2.01178 13.1764 2 13.0896 2 13V11.7071L11.7071 2ZM10.2929 2H8.70711L2 8.70711V10.2929L10.2929 2ZM5.70711 2H7.29289L2 7.29289V5.70711L5.70711 2ZM4.29289 2H3C2.44772 2 2 2.44772 2 3V4.29289L4.29289 2ZM2.74098 13.9661C2.82359 13.9882 2.91042 14 3 14H4.29289L14 4.29289V3C14 2.91042 13.9882 2.82359 13.9661 2.74098L2.74098 13.9661ZM7.29289 14H5.70711L14 5.70711V7.29289L7.29289 14ZM8.70711 14H10.2929L14 10.2929V8.70711L8.70711 14ZM13 14H11.7071L14 11.7071V13C14 13.5523 13.5523 14 13 14Z" fill="#2D50E6"/>
</svg>
