<svg width="16" height="16" viewBox="0 0 16 16" fill="none" xmlns="http://www.w3.org/2000/svg">
<path d="M7.29289 13.7071C7.48043 13.8946 7.73478 14 8 14C8.26522 14 8.51957 13.8946 8.70711 13.7071L12.7071 9.70711C13.0976 9.31658 13.0976 8.68342 12.7071 8.29289C12.3166 7.90237 11.6834 7.90237 11.2929 8.29289L9 10.5858V3C9 2.44772 8.55228 2 8 2C7.44772 2 7 2.44771 7 3V10.5858L4.70711 8.29289C4.31658 7.90237 3.68342 7.90237 3.29289 8.29289C2.90237 8.68342 2.90237 9.31658 3.29289 9.70711L7.29289 13.7071Z" fill="#2D50E6"/>
</svg>
