<svg width="16" height="16" viewBox="0 0 16 16" fill="none" xmlns="http://www.w3.org/2000/svg">
<path d="M1.29289 7.29289C1.10536 7.48043 1 7.73478 1 8C1 8.26522 1.10536 8.51957 1.29289 8.70711L6.29289 13.7071C6.68342 14.0976 7.31658 14.0976 7.70711 13.7071C8.09763 13.3166 8.09763 12.6834 7.70711 12.2929L4.41421 9H14C14.5523 9 15 8.55228 15 8C15 7.44772 14.5523 7 14 7H4.41421L7.70711 3.70711C8.09763 3.31658 8.09763 2.68342 7.70711 2.29289C7.31658 1.90237 6.68342 1.90237 6.29289 2.29289L1.29289 7.29289Z" fill="#2D50E6"/>
</svg>
