<svg width="16" height="16" viewBox="0 0 16 16" fill="none" xmlns="http://www.w3.org/2000/svg">
<path d="M1 8C1 5.74147 2.14002 5.50866 3.34111 5.26338C3.5073 5.22945 3.67466 5.19527 3.84033 5.15545C5.00754 4.87494 6 4.61458 6 3H7.5V3.63378C7.2011 3.80669 7 4.12986 7 4.5C7 4.66584 7.19396 4.72389 7.343 4.65116C7.39379 4.62637 7.44619 4.60437 7.5 4.58535V5.13378C7.2011 5.30669 7 5.62986 7 6C7 6.16584 7.19396 6.22389 7.343 6.15116C7.39379 6.12637 7.44619 6.10437 7.5 6.08535V6.63378C7.2011 6.80669 7 7.12986 7 7.5C7 7.66584 7.19396 7.72389 7.343 7.65116C7.39379 7.62637 7.44619 7.60437 7.5 7.58535V8.13378C7.2011 8.30669 7 8.62986 7 9C7 9.16584 7.19396 9.22389 7.343 9.15116C7.39379 9.12637 7.44619 9.10437 7.5 9.08535V9.63378C7.2011 9.80669 7 10.1299 7 10.5C7 10.6658 7.19396 10.7239 7.343 10.6512C7.39379 10.6264 7.44619 10.6044 7.5 10.5854V11.1338C7.2011 11.3067 7 11.6299 7 12C7 12.1658 7.19396 12.2239 7.343 12.1512C7.39379 12.1264 7.44619 12.1044 7.5 12.0854V13H1V8Z" fill="#2D50E6"/>
<path d="M8.5 13H15V8C15 5.74147 13.86 5.50866 12.6589 5.26338C12.4927 5.22945 12.3253 5.19527 12.1597 5.15545C10.9925 4.87494 10 4.61458 10 3H8.5V3.63378C8.7989 3.80669 9 4.12986 9 4.5C9 4.66584 8.80604 4.72389 8.657 4.65116C8.60621 4.62637 8.55381 4.60437 8.5 4.58535V5.13378C8.7989 5.30669 9 5.62986 9 6C9 6.16584 8.80604 6.22389 8.657 6.15116C8.60621 6.12637 8.55381 6.10437 8.5 6.08535V6.63378C8.7989 6.80669 9 7.12986 9 7.5C9 7.66584 8.80604 7.72389 8.657 7.65116C8.60621 7.62637 8.55381 7.60437 8.5 7.58535V8.13378C8.7989 8.30669 9 8.62986 9 9C9 9.16584 8.80604 9.22389 8.657 9.15116C8.60621 9.12637 8.55381 9.10437 8.5 9.08535V9.63378C8.7989 9.80669 9 10.1299 9 10.5C9 10.6658 8.80604 10.7239 8.657 10.6512C8.60621 10.6264 8.55381 10.6044 8.5 10.5854V11.1338C8.7989 11.3067 9 11.6299 9 12C9 12.1658 8.80604 12.2239 8.657 12.1512C8.60621 12.1264 8.55381 12.1044 8.5 12.0854V13Z" fill="#2D50E6"/>
</svg>
