<svg width="16" height="16" viewBox="0 0 16 16" fill="none" xmlns="http://www.w3.org/2000/svg">
<path fill-rule="evenodd" clip-rule="evenodd" d="M12.6101 14.5899C12.0633 15.1367 11.1769 15.1367 10.6302 14.5899L8 11.9598L5.36985 14.5899C4.82311 15.1367 3.93668 15.1367 3.38995 14.5899L1.41005 12.61C0.863316 12.0633 0.863317 11.1769 1.41005 10.6302L4.0402 8L1.41005 5.36985C0.863317 4.82311 0.863317 3.93668 1.41005 3.38995L3.38995 1.41005C3.93668 0.863317 4.82311 0.863316 5.36985 1.41005L8 4.0402L10.6302 1.41005C11.1769 0.863317 12.0633 0.863317 12.6101 1.41005L14.5899 3.38995C15.1367 3.93668 15.1367 4.82312 14.5899 5.36985L11.9598 8L14.5899 10.6302C15.1367 11.1769 15.1367 12.0633 14.5899 12.61L12.6101 14.5899ZM5.29429 9.71524L6.28476 10.7057C6.67715 11.0981 7.31335 11.0981 7.70573 10.7057L10.7057 7.7057C11.0981 7.31332 11.0981 6.67715 10.7057 6.28477L9.71528 5.2943C9.32289 4.9019 8.68669 4.9019 8.2943 5.29429L5.29429 8.29429C4.9019 8.68668 4.9019 9.32285 5.29429 9.71524ZM3.17157 12C2.94281 11.7712 2.94281 11.4003 3.17157 11.1716C3.40034 10.9428 3.77124 10.9428 4 11.1716L4.82843 12C5.05719 12.2288 5.05719 12.5997 4.82843 12.8284C4.59966 13.0572 4.22876 13.0572 4 12.8284L3.17157 12ZM11.1716 12.8284C11.4003 13.0572 11.7712 13.0572 12 12.8284L12.8284 12C13.0572 11.7712 13.0572 11.4003 12.8284 11.1716C12.5997 10.9428 12.2288 10.9428 12 11.1716L11.1716 12C10.9428 12.2288 10.9428 12.5997 11.1716 12.8284ZM4 4.82843C3.77124 5.05719 3.40034 5.05719 3.17157 4.82843C2.94281 4.59966 2.94281 4.22876 3.17157 4L4 3.17157C4.22876 2.94281 4.59966 2.94281 4.82843 3.17157C5.05719 3.40034 5.05719 3.77124 4.82843 4L4 4.82843ZM11.1716 3.17157C10.9428 3.40034 10.9428 3.77124 11.1716 4L12 4.82843C12.2288 5.05719 12.5997 5.05719 12.8284 4.82843C13.0572 4.59966 13.0572 4.22876 12.8284 4L12 3.17157C11.7712 2.94281 11.4003 2.94281 11.1716 3.17157Z" fill="#2D50E6"/>
</svg>
