<svg width="16" height="16" viewBox="0 0 16 16" fill="none" xmlns="http://www.w3.org/2000/svg">
<path fill-rule="evenodd" clip-rule="evenodd" d="M8.29412 2.09563C8.11879 1.96812 7.88128 1.96812 7.70595 2.09563L2.20595 6.09563C2.03081 6.22301 1.95757 6.44867 2.02454 6.65462C2.09153 6.86057 2.28347 7 2.50003 7H4.00003V12C3.44774 12 3.00003 12.4477 3.00003 13C2.44774 13 2.00003 13.4477 2.00003 14H14C14 13.4477 13.5523 13 13 13C13 12.4477 12.5523 12 12 12V7H13.5C13.7166 7 13.9086 6.86057 13.9755 6.65462C14.0425 6.44867 13.9693 6.22301 13.7941 6.09563L8.29412 2.09563ZM10 12V7H9.00003V12H10ZM7.00003 12V7H6.00003V12H7.00003ZM8.00003 6C8.55233 6 9.00003 5.55228 9.00003 5C9.00003 4.44771 8.55233 4 8.00003 4C7.44774 4 7.00003 4.44771 7.00003 5C7.00003 5.55228 7.44774 6 8.00003 6Z" fill="#2D50E6"/>
</svg>
