<svg width="16" height="16" viewBox="0 0 16 16" fill="none" xmlns="http://www.w3.org/2000/svg">
<rect x="2" y="6" width="10" height="4" rx="0.5" fill="#2C2302"/>
<path fill-rule="evenodd" clip-rule="evenodd" d="M0 6C0 4.89543 0.895431 4 2 4H12C13.1046 4 14 4.89543 14 6V10C14 11.1046 13.1046 12 12 12H2C0.89543 12 0 11.1046 0 10V6ZM2 5H12C12.5523 5 13 5.44772 13 6V10C13 10.5523 12.5523 11 12 11H2C1.44772 11 1 10.5523 1 10V6C1 5.44772 1.44772 5 2 5Z" fill="#C0BEB8"/>
<path d="M16 8C16 8.55229 15.5523 9 15 9V7C15.5523 7 16 7.44771 16 8Z" fill="#C0BEB8"/>
</svg>
