<svg width="16" height="16" viewBox="0 0 16 16" fill="none" xmlns="http://www.w3.org/2000/svg">
<path d="M8.5 1.5C8.5 1.22386 8.27614 1 8 1C7.72386 1 7.5 1.22386 7.5 1.5V2.02469C4.9733 2.27555 3 4.40733 3 7C3 9.02449 2.46251 10.2305 2.17564 10.73C2.0738 10.9073 1.88114 11 1.67665 11C1.30295 11 1 11.3029 1 11.6767V12C1 12.5523 1.44772 13 2 13H14C14.5523 13 15 12.5523 15 12V11.6767C15 11.3029 14.6971 11 14.3233 11C14.1189 11 13.9262 10.9073 13.8244 10.73C13.5375 10.2305 13 9.0245 13 7C13 4.40733 11.0267 2.27555 8.5 2.02469V1.5Z" fill="#2D50E6"/>
<path d="M6.26758 14C6.61341 14.5978 7.25977 15 8 15C8.74023 15 9.38659 14.5978 9.73242 14H6.26758Z" fill="#2D50E6"/>
</svg>
