<svg width="16" height="16" viewBox="0 0 16 16" fill="none" xmlns="http://www.w3.org/2000/svg">
<path fill-rule="evenodd" clip-rule="evenodd" d="M3.30582 0.0761108C3.20764 -0.0542603 3 0.0151672 3 0.178375V14.5028C3 14.6113 3.03531 14.7169 3.10059 14.8036L3.85059 15.7996C4.0506 16.0652 4.4494 16.0652 4.64941 15.7996L5.10059 15.2004C5.3006 14.9348 5.6994 14.9348 5.89941 15.2004L6.35059 15.7996C6.5506 16.0652 6.9494 16.0652 7.14941 15.7996L7.60059 15.2004C7.8006 14.9348 8.1994 14.9348 8.39941 15.2004L8.85059 15.7996C9.0506 16.0652 9.4494 16.0652 9.64941 15.7996L10.1006 15.2004C10.3006 14.9348 10.6994 14.9348 10.8994 15.2004L11.3506 15.7996C11.5506 16.0652 11.9494 16.0652 12.1494 15.7996L12.8994 14.8036C12.9647 14.7169 13 14.6113 13 14.5028V0.178375C13 0.0151672 12.7924 -0.0542603 12.6942 0.0761108L12.1494 0.799591C11.9494 1.06522 11.5506 1.06522 11.3506 0.799591L10.8994 0.200439C10.6994 -0.0651855 10.3006 -0.0651855 10.1006 0.200439L9.64941 0.799591C9.4494 1.06522 9.0506 1.06522 8.85059 0.799591L8.39941 0.200439C8.1994 -0.0651855 7.8006 -0.0651855 7.60059 0.200439L7.14941 0.799591C6.9494 1.06522 6.5506 1.06522 6.35059 0.799591L5.89941 0.200439C5.6994 -0.0651855 5.3006 -0.0651855 5.10059 0.200439L4.64941 0.799591C4.4494 1.06522 4.0506 1.06522 3.85059 0.799591L3.30582 0.0761108ZM4.5 5C4.22385 5 4 5.22385 4 5.5C4 5.77615 4.22385 6 4.5 6H11.5C11.7762 6 12 5.77615 12 5.5C12 5.22385 11.7762 5 11.5 5H4.5ZM4 7.5C4 7.22385 4.22385 7 4.5 7H11.5C11.7762 7 12 7.22385 12 7.5C12 7.77615 11.7762 8 11.5 8H4.5C4.22385 8 4 7.77615 4 7.5ZM4.5 9C4.22385 9 4 9.22385 4 9.5C4 9.77615 4.22385 10 4.5 10H8.5C8.77615 10 9 9.77615 9 9.5C9 9.22385 8.77615 9 8.5 9H4.5Z" fill="#2D50E6"/>
</svg>
