<svg width="16" height="16" viewBox="0 0 16 16" fill="none" xmlns="http://www.w3.org/2000/svg">
<path d="M6.75 3C7.16421 3 7.5 3.96514 7.5 4.33333C7.5 4.70152 7.16421 5 6.75 5C6.33579 5 6 4.70152 6 4.33333C6 3.96514 6.33579 3 6.75 3Z" fill="#2D50E6"/>
<path d="M3 6.5C3 7.5 2.5 8.5 2.5 8.5C2.5 8.5 1 7.5 1 6.5C1 5.67157 1.44772 5 2 5C2.55228 5 3 5.67157 3 6.5Z" fill="#2D50E6"/>
<path d="M13.5 8.5C13.5 8.5 13 7.5 13 6.5C13 5.67157 13.4477 5 14 5C14.5523 5 15 5.67157 15 6.5C15 7.5 13.5 8.5 13.5 8.5Z" fill="#2D50E6"/>
<path d="M7.5 11.6667C7.5 12.0349 7.16421 13 6.75 13C6.33579 13 6 12.0349 6 11.6667C6 11.2985 6.33579 11 6.75 11C7.16421 11 7.5 11.2985 7.5 11.6667Z" fill="#2D50E6"/>
<path d="M5 4.66667C5 5.5 4.5 6 4.5 6C4.5 6 3.5 5.5 3.5 4.66667C3.5 4.29848 3.83579 4 4.25 4C4.66421 4 5 4.29848 5 4.66667Z" fill="#2D50E6"/>
<path d="M5 11.3333C5 10.5 4.5 10 4.5 10C4.5 10 3.5 10.5 3.5 11.3333C3.5 11.7015 3.83579 12 4.25 12C4.66421 12 5 11.7015 5 11.3333Z" fill="#2D50E6"/>
<path d="M11 4.66667C11 5.5 11.5 6 11.5 6C11.5 6 12.5 5.5 12.5 4.66667C12.5 4.29848 12.1642 4 11.75 4C11.3358 4 11 4.29848 11 4.66667Z" fill="#2D50E6"/>
<path d="M11 11.3333C11 10.5 11.5 10 11.5 10C11.5 10 12.5 10.5 12.5 11.3333C12.5 11.7015 12.1642 12 11.75 12C11.3358 12 11 11.7015 11 11.3333Z" fill="#2D50E6"/>
<path d="M10 4.33333C10 3.96514 9.66421 3 9.25 3C8.83579 3 8.5 3.96514 8.5 4.33333C8.5 4.70152 8.83579 5 9.25 5C9.66421 5 10 4.70152 10 4.33333Z" fill="#2D50E6"/>
<path d="M10 11.6667C10 12.0349 9.66421 13 9.25 13C8.83579 13 8.5 12.0349 8.5 11.6667C8.5 11.2985 8.83579 11 9.25 11C9.66421 11 10 11.2985 10 11.6667Z" fill="#2D50E6"/>
<path d="M11 8C11 9.10457 9.65685 10 8 10C6.34315 10 5 9.10457 5 8C5 7.009 6.08114 6.18635 7.5 6.02765V6.5C7.5 6.77614 7.72386 7 8 7C8.27614 7 8.5 6.77614 8.5 6.5V6.02765C9.91886 6.18635 11 7.009 11 8Z" fill="#2D50E6"/>
</svg>
