<svg width="16" height="16" viewBox="0 0 16 16" fill="none" xmlns="http://www.w3.org/2000/svg">
<path d="M10.4 7.335C11.1219 6.80857 11.6279 5.94429 11.6279 5.14286C11.6279 3.36714 10.3256 2 8.65116 2H4.5C4.22386 2 4 2.22386 4 2.5V12.5C4 12.7761 4.22386 13 4.5 13H9.23907C10.7944 13 12 11.6643 12 10.0221C12 8.82786 11.36 7.80643 10.4 7.335ZM6.23256 3.96429H8.46512C9.08279 3.96429 9.5814 4.49071 9.5814 5.14286C9.5814 5.795 9.08279 6.32143 8.46512 6.32143H6.23256V3.96429ZM8.83721 11.0357H6.23256V8.67857H8.83721C9.45488 8.67857 9.95349 9.205 9.95349 9.85714C9.95349 10.5093 9.45488 11.0357 8.83721 11.0357Z" fill="#2D50E6"/>
</svg>
