<svg width="16" height="16" viewBox="0 0 16 16" fill="none" xmlns="http://www.w3.org/2000/svg">
<path fill-rule="evenodd" clip-rule="evenodd" d="M1 2.57921C1 2.22494 1.32139 1.95107 1.69216 2.00736C2.98433 2.20353 5.7815 2.77382 7.42808 4.19229C7.74135 4.46216 8.25865 4.46216 8.57192 4.19229C10.2185 2.77382 13.0157 2.20353 14.3078 2.00736C14.6786 1.95107 15 2.22494 15 2.57921V11.042C15 11.3547 14.748 11.6167 14.4197 11.66C13.1843 11.8227 10.2688 12.3461 8.57283 13.7983C8.25869 14.0672 7.74131 14.0672 7.42717 13.7983C5.73121 12.3461 2.81571 11.8227 1.58029 11.66C1.25201 11.6167 1 11.3547 1 11.042V2.57921ZM7.36364 6.20042C7.36375 6.04672 7.30162 5.893 7.17725 5.77574C6.74985 5.37276 5.99453 5.03725 5.25805 4.80579C4.50025 4.56762 3.63448 4.4 2.90909 4.4C2.55764 4.4 2.27273 4.66863 2.27273 5V7.4C2.27273 7.73137 2.55764 8 2.90909 8C3.45643 8 4.18156 8.13238 4.85558 8.34421C5.55093 8.56275 6.06833 8.82724 6.2773 9.02426C6.52581 9.25858 6.92873 9.25858 7.17725 9.02426C7.30162 8.907 7.36375 8.75328 7.36364 8.59958V6.20042ZM11.1444 5.94421C10.4491 6.16275 9.93167 6.42724 9.7227 6.62426C9.47419 6.85858 9.07127 6.85858 8.82275 6.62426C8.57423 6.38995 8.57423 6.01005 8.82275 5.77574C9.25015 5.37276 10.0055 5.03725 10.7419 4.80579C11.4997 4.56762 12.3655 4.4 13.0909 4.4C13.4424 4.4 13.7273 4.66863 13.7273 5C13.7273 5.33137 13.4424 5.6 13.0909 5.6C12.5436 5.6 11.8184 5.73238 11.1444 5.94421ZM9.7227 9.02426C9.93167 8.82724 10.4491 8.56275 11.1444 8.34421C11.8184 8.13238 12.5436 8 13.0909 8C13.4424 8 13.7273 7.73137 13.7273 7.4C13.7273 7.06863 13.4424 6.8 13.0909 6.8C12.3655 6.8 11.4997 6.96762 10.7419 7.20579C10.0055 7.43725 9.25015 7.77276 8.82275 8.17574C8.57423 8.41005 8.57423 8.78995 8.82275 9.02426C9.07127 9.25858 9.47419 9.25858 9.7227 9.02426ZM4.85558 10.7442C5.55093 10.9627 6.06833 11.2272 6.2773 11.4243C6.52581 11.6586 6.92873 11.6586 7.17725 11.4243C7.42577 11.1899 7.42577 10.8101 7.17725 10.5757C6.74985 10.1728 5.99453 9.83725 5.25805 9.60579C4.50025 9.36762 3.63448 9.2 2.90909 9.2C2.55764 9.2 2.27273 9.46863 2.27273 9.8C2.27273 10.1314 2.55764 10.4 2.90909 10.4C3.45643 10.4 4.18156 10.5324 4.85558 10.7442ZM10.7781 10.8693C11.1053 10.7481 11.2663 10.3999 11.1378 10.0914C11.0092 9.78301 10.6399 9.63121 10.3128 9.75237C9.74129 9.96405 9.1751 10.2435 8.82275 10.5757C8.57423 10.8101 8.57423 11.1899 8.82275 11.4243C9.07127 11.6586 9.47419 11.6586 9.7227 11.4243C9.88583 11.2705 10.2527 11.0639 10.7781 10.8693Z" fill="#2D50E6"/>
</svg>
