<svg width="16" height="16" viewBox="0 0 16 16" fill="none" xmlns="http://www.w3.org/2000/svg">
<path fill-rule="evenodd" clip-rule="evenodd" d="M7.66667 2.4C7.66667 1.6268 7.06971 1 6.33333 1C5.89833 1 5.51197 1.21874 5.2686 1.55717C5.20504 1.64555 5.10547 1.7 5 1.7C4.11665 1.7 3.39381 2.42157 3.33694 3.33398C3.63911 3.18392 3.97689 3.1 4.33333 3.1C5.622 3.1 6.66667 4.1969 6.66667 5.55C6.66667 5.7433 6.51743 5.9 6.33333 5.9C6.14924 5.9 6 5.7433 6 5.55C6 4.5835 5.25381 3.8 4.33333 3.8C3.90768 3.8 3.5193 3.96754 3.22474 4.24324C2.88231 4.56375 2.66667 5.03043 2.66667 5.55C2.66667 5.66895 2.67797 5.78514 2.69951 5.89743C2.73076 6.06033 2.67621 6.23267 2.55808 6.34324C2.29464 6.58981 2.10624 6.92289 2.03334 7.3L2.03003 7.3176C2.01032 7.42522 2 7.53634 2 7.65C2 7.94985 2.07182 8.23208 2.19838 8.47877C2.47977 9.02724 3.03176 9.4 3.66667 9.4C3.85076 9.4 4 9.5567 4 9.75C4 9.9433 3.85076 10.1 3.66667 10.1C3.03076 10.1 2.45426 9.83289 2.0334 9.39971C2.0115 9.51289 2 9.63003 2 9.75C2 10.3198 2.25932 10.8259 2.6608 11.1455C2.84733 11.2939 2.91828 11.5928 2.81998 11.8159C2.72158 12.0391 2.66667 12.2878 2.66667 12.55C2.66667 13.5165 3.41286 14.3 4.33333 14.3C4.4761 14.3 4.61467 14.2812 4.74691 14.2457C4.93806 14.1945 5.15135 14.2806 5.27062 14.4456C5.51411 14.7825 5.89953 15 6.33333 15C7.06971 15 7.66667 14.3732 7.66667 13.6C7.66667 12.8268 7.06971 12.2 6.33333 12.2C6.14924 12.2 6 12.0433 6 11.85C6 11.6567 6.14924 11.5 6.33333 11.5C6.84557 11.5 7.31283 11.7022 7.66667 12.0347V4.50001C7.66667 3.72681 7.06971 3.10001 6.33333 3.10001C6.14924 3.10001 6 2.9433 6 2.75C6 2.55671 6.14924 2.40001 6.33333 2.40001C6.84557 2.40001 7.31283 2.6022 7.66667 2.93473V2.4ZM4 5.9C4 5.7067 3.85076 5.55 3.66667 5.55C3.48257 5.55 3.33333 5.7067 3.33333 5.9C3.33333 7.10852 4.16668 8.11267 5.26292 8.31346C5.15341 8.54268 4.92754 8.7 4.66667 8.7C4.48257 8.7 4.33333 8.8567 4.33333 9.05C4.33333 9.2433 4.48257 9.4 4.66667 9.4C5.29464 9.4 5.82121 8.94417 5.96264 8.33044C6.2764 8.28868 6.57114 8.18142 6.83358 8.02202C6.99293 7.92523 7.04738 7.71112 6.9552 7.5438C6.86302 7.37648 6.65911 7.3193 6.49976 7.4161C6.25495 7.56479 5.97079 7.65 5.66667 7.65C4.74619 7.65 4 6.8665 4 5.9ZM3.66895 12.2C3.77626 12.2 3.89415 12.2 4.0209 12.2044C4.18977 10.8382 5.34986 10.1 6.33333 10.1C6.51743 10.1 6.66667 10.2567 6.66667 10.45C6.66667 10.6433 6.51743 10.8 6.33333 10.8C5.62152 10.8 4.81617 11.3286 4.68512 12.2768C5.25672 12.3894 5.91632 12.6672 6.56904 13.3525C6.69921 13.4892 6.69921 13.7108 6.56904 13.8475C6.43886 13.9842 6.22781 13.9842 6.09763 13.8475C5.19649 12.9013 4.31487 12.9 3.66667 12.9C3.48257 12.9 3.33333 12.7433 3.33333 12.55C3.33333 12.3567 3.48257 12.2 3.66667 12.2H3.66895Z" fill="#2D50E6"/>
<path fill-rule="evenodd" clip-rule="evenodd" d="M8.33333 2.4C8.33333 1.6268 8.93029 1 9.66667 1C10.1017 1 10.488 1.21874 10.7314 1.55717C10.795 1.64555 10.8945 1.7 11 1.7C11.8833 1.7 12.6062 2.42157 12.6631 3.33398C12.3609 3.18392 12.0231 3.1 11.6667 3.1C10.378 3.1 9.33333 4.1969 9.33333 5.55C9.33333 5.7433 9.48257 5.9 9.66667 5.9C9.85076 5.9 10 5.7433 10 5.55C10 4.5835 10.7462 3.8 11.6667 3.8C12.0923 3.8 12.4807 3.96754 12.7753 4.24324C13.1177 4.56375 13.3333 5.03043 13.3333 5.55C13.3333 5.66895 13.322 5.78514 13.3005 5.89743C13.2692 6.06033 13.3238 6.23267 13.4419 6.34324C13.7054 6.58981 13.8938 6.92289 13.9667 7.3L13.97 7.3176C13.9897 7.42522 14 7.53634 14 7.65C14 7.94985 13.9282 8.23208 13.8016 8.47877C13.5202 9.02724 12.9682 9.4 12.3333 9.4C12.1492 9.4 12 9.5567 12 9.75C12 9.9433 12.1492 10.1 12.3333 10.1C12.9692 10.1 13.5457 9.83289 13.9666 9.39971C13.9885 9.51289 14 9.63003 14 9.75C14 10.3198 13.7407 10.8259 13.3392 11.1455C13.1527 11.2939 13.0817 11.5928 13.18 11.8159C13.2784 12.0391 13.3333 12.2878 13.3333 12.55C13.3333 13.5165 12.5871 14.3 11.6667 14.3C11.5239 14.3 11.3853 14.2812 11.2531 14.2457C11.0619 14.1945 10.8487 14.2806 10.7294 14.4456C10.4859 14.7825 10.1005 15 9.66667 15C8.93029 15 8.33333 14.3732 8.33333 13.6C8.33333 12.8268 8.93029 12.2 9.66667 12.2C9.85076 12.2 10 12.0433 10 11.85C10 11.6567 9.85076 11.5 9.66667 11.5C9.15443 11.5 8.68717 11.7022 8.33333 12.0347V4.50001C8.33333 3.72681 8.93029 3.10001 9.66667 3.10001C9.85076 3.10001 10 2.9433 10 2.75C10 2.55671 9.85076 2.40001 9.66667 2.40001C9.15443 2.40001 8.68717 2.6022 8.33333 2.93473V2.4ZM12 5.9C12 5.7067 12.1492 5.55 12.3333 5.55C12.5174 5.55 12.6667 5.7067 12.6667 5.9C12.6667 7.10852 11.8333 8.11267 10.7371 8.31346C10.8466 8.54268 11.0725 8.7 11.3333 8.7C11.5174 8.7 11.6667 8.8567 11.6667 9.05C11.6667 9.2433 11.5174 9.4 11.3333 9.4C10.7054 9.4 10.1788 8.94417 10.0374 8.33044C9.7236 8.28868 9.42886 8.18142 9.16643 8.02202C9.00707 7.92523 8.95262 7.71112 9.0448 7.5438C9.13698 7.37648 9.34089 7.3193 9.50024 7.4161C9.74505 7.56479 10.0292 7.65 10.3333 7.65C11.2538 7.65 12 6.8665 12 5.9ZM12.3311 12.2C12.2237 12.2 12.1058 12.2 11.9791 12.2044C11.8102 10.8382 10.6501 10.1 9.66667 10.1C9.48257 10.1 9.33333 10.2567 9.33333 10.45C9.33333 10.6433 9.48257 10.8 9.66667 10.8C10.3785 10.8 11.1838 11.3286 11.3149 12.2768C10.7433 12.3894 10.0837 12.6672 9.43096 13.3525C9.30079 13.4892 9.30079 13.7108 9.43096 13.8475C9.56114 13.9842 9.77219 13.9842 9.90237 13.8475C10.8035 12.9013 11.6851 12.9 12.3333 12.9C12.5174 12.9 12.6667 12.7433 12.6667 12.55C12.6667 12.3567 12.5174 12.2 12.3333 12.2H12.3311Z" fill="#2D50E6"/>
</svg>
