<svg width="16" height="16" viewBox="0 0 16 16" fill="none" xmlns="http://www.w3.org/2000/svg">
<path fill-rule="evenodd" clip-rule="evenodd" d="M9.72283 10.523C9.96552 10.2965 10.3459 10.3096 10.5724 10.5523C10.799 10.795 10.7858 11.1754 10.5431 11.4019C9.83782 12.0602 8.97967 12.393 8 12.393C7.02032 12.393 6.16222 12.0602 5.45688 11.4019C5.21419 11.1754 5.20112 10.795 5.42757 10.5523C5.65411 10.3097 6.03447 10.2965 6.27717 10.523C6.75665 10.9705 7.32044 11.1908 8 11.1908C8.6796 11.1908 9.2434 10.9705 9.72283 10.523ZM2.18596 3.44561V4.95088C2.18596 5.27839 1.92049 5.54386 1.59298 5.54386C1.26547 5.54386 1 5.27839 1 4.95088V3.44561C1 2.076 2.076 1 3.44561 1H4.95088C5.27839 1 5.54386 1.26547 5.54386 1.59298C5.54386 1.92049 5.27839 2.18596 4.95088 2.18596H3.44561C2.73099 2.18596 2.18596 2.73099 2.18596 3.44561ZM13.814 4.95088V3.44561C13.814 2.73099 13.269 2.18596 12.5544 2.18596H11.0491C10.7216 2.18596 10.4561 1.92049 10.4561 1.59298C10.4561 1.26547 10.7216 1 11.0491 1H12.5544C13.924 1 15 2.076 15 3.44561V4.95088C15 5.27839 14.7345 5.54386 14.407 5.54386C14.0795 5.54386 13.814 5.27839 13.814 4.95088ZM2.18596 11.0491V12.5544C2.18596 13.269 2.73099 13.814 3.44561 13.814H4.95088C5.27839 13.814 5.54386 14.0795 5.54386 14.407C5.54386 14.7345 5.27839 15 4.95088 15H3.44561C2.076 15 1 13.924 1 12.5544V11.0491C1 10.7216 1.26547 10.4561 1.59298 10.4561C1.92049 10.4561 2.18596 10.7216 2.18596 11.0491ZM13.814 12.5544V11.0491C13.814 10.7216 14.0795 10.4561 14.407 10.4561C14.7345 10.4561 15 10.7216 15 11.0491V12.5544C15 13.924 13.924 15 12.5544 15H11.0491C10.7216 15 10.4561 14.7345 10.4561 14.407C10.4561 14.0795 10.7216 13.814 11.0491 13.814H12.5544C13.269 13.814 13.814 13.269 13.814 12.5544ZM4.67344 7.31281V6.34735C4.67344 6.02812 4.91894 5.7399 5.25677 5.7399C5.59461 5.7399 5.84011 6.02812 5.84011 6.34735V7.31281C5.84011 7.63211 5.59459 7.92026 5.25677 7.92026C4.91895 7.92026 4.67344 7.63211 4.67344 7.31281ZM10.2428 7.31281V6.34735C10.2428 6.02812 10.4883 5.7399 10.8262 5.7399C11.164 5.7399 11.4095 6.02812 11.4095 6.34735V7.31281C11.4095 7.63211 11.164 7.92026 10.8262 7.92026C10.4884 7.92026 10.2428 7.63211 10.2428 7.31281ZM7.75439 8.82085V6.341C7.75439 6.00906 8.02346 5.7399 8.35549 5.7399C8.68745 5.7399 8.95659 6.00904 8.95659 6.341V8.82946C8.95659 9.51747 8.45005 10.0231 7.76213 10.0231H7.52599C7.19404 10.0231 6.92489 9.75397 6.92489 9.42195C6.92489 9.08999 7.19402 8.82085 7.52599 8.82085H7.75439Z" fill="#2D50E6"/>
</svg>
