<svg width="16" height="16" viewBox="0 0 16 16" fill="none" xmlns="http://www.w3.org/2000/svg">
<path fill-rule="evenodd" clip-rule="evenodd" d="M8.82171 1C9.99439 1.00265 10.2637 1.01298 10.8859 1.04137C11.631 1.07536 12.1399 1.19371 12.5851 1.36677C13.0455 1.54564 13.4359 1.78501 13.8251 2.17418C14.2142 2.56338 14.4536 2.95377 14.6325 3.41411C14.8055 3.85939 14.9239 4.36827 14.9579 5.11338C14.9919 5.86004 15 6.09843 15 7.99964C15 9.90081 14.9919 10.1392 14.9579 10.8859C14.9239 11.631 14.8055 12.1399 14.6325 12.5851C14.4536 13.0455 14.2142 13.4359 13.8251 13.8251C13.4359 14.2142 13.0455 14.4536 12.5851 14.6325C12.1399 14.8055 11.631 14.9239 10.8859 14.9579C10.1392 14.9919 9.90081 15 7.99964 15C6.09843 15 5.86004 14.9919 5.11337 14.9579C4.36827 14.9239 3.85939 14.8055 3.41411 14.6325C2.95377 14.4536 2.56338 14.2142 2.17418 13.8251C1.78501 13.4359 1.54564 13.0455 1.36677 12.5851C1.19371 12.1399 1.07536 11.631 1.04137 10.8859C1.01298 10.2636 1.00265 9.99439 1 8.82171V7.17755C1.00265 6.00485 1.01298 5.7356 1.04137 5.11338C1.07536 4.36827 1.19371 3.85939 1.36677 3.41411C1.54564 2.95377 1.78501 2.56338 2.17418 2.17418C2.56338 1.78501 2.95377 1.54564 3.41411 1.36677C3.85939 1.19371 4.36827 1.07536 5.11337 1.04137C5.73559 1.01298 6.00485 1.00265 7.17755 1H8.82171ZM8.62756 2.26094H7.3717C6.06702 2.26277 5.81676 2.27192 5.17087 2.30139C4.48834 2.33252 4.11768 2.44656 3.871 2.54243C3.54424 2.66942 3.31105 2.82111 3.06609 3.06609C2.82111 3.31104 2.66942 3.54424 2.54243 3.871C2.44656 4.11767 2.33252 4.48834 2.30139 5.17087C2.27193 5.81676 2.26277 6.06702 2.26094 7.3717V8.62756C2.26277 9.93223 2.27193 10.1825 2.30139 10.8284C2.33252 11.5109 2.44656 11.8816 2.54243 12.1282C2.66942 12.455 2.82114 12.6882 3.06609 12.9332C3.31105 13.1781 3.54424 13.3298 3.871 13.4568C4.11768 13.5527 4.48834 13.6667 5.17087 13.6979C5.81669 13.7273 6.06689 13.7365 7.37166 13.7383H8.62761C9.93236 13.7365 10.1826 13.7273 10.8284 13.6979C11.5109 13.6667 11.8816 13.5527 12.1282 13.4568C12.455 13.3298 12.6882 13.1781 12.9332 12.9332C13.1781 12.6882 13.3298 12.455 13.4568 12.1282C13.5527 11.8816 13.6667 11.5109 13.6979 10.8284C13.7273 10.1825 13.7365 9.93223 13.7383 8.62756V7.3717C13.7365 6.06702 13.7273 5.81676 13.6979 5.17087C13.6667 4.48834 13.5527 4.11767 13.4568 3.871C13.3298 3.54424 13.1781 3.31104 12.9332 3.06609C12.6882 2.82111 12.455 2.66942 12.1282 2.54243C11.8816 2.44656 11.5109 2.33252 10.8284 2.30139C10.1825 2.27192 9.93223 2.26277 8.62756 2.26094ZM7.99964 4.40484C9.98498 4.40484 11.5944 6.01426 11.5944 7.99964C11.5944 9.98498 9.98498 11.5944 7.99964 11.5944C6.01426 11.5944 4.40483 9.98498 4.40483 7.99964C4.40483 6.01426 6.01426 4.40484 7.99964 4.40484ZM7.99964 5.66616C6.71088 5.66616 5.66617 6.71088 5.66617 7.99964C5.66617 9.28836 6.71088 10.3331 7.99964 10.3331C9.28836 10.3331 10.3331 9.28836 10.3331 7.99964C10.3331 6.71088 9.28836 5.66616 7.99964 5.66616ZM11.7364 3.42275C12.2004 3.42275 12.5765 3.79886 12.5765 4.26281C12.5765 4.72676 12.2004 5.10284 11.7364 5.10284C11.2725 5.10284 10.8964 4.72676 10.8964 4.26281C10.8964 3.79886 11.2725 3.42275 11.7364 3.42275Z" fill="white"/>
</svg>
