<svg width="16" height="16" viewBox="0 0 16 16" fill="none" xmlns="http://www.w3.org/2000/svg">
<path fill-rule="evenodd" clip-rule="evenodd" d="M8 1C4.05634 1 1 3.88877 1 7.79023C1 9.8311 1.83662 11.5945 3.19859 12.8128C3.31268 12.9156 3.38169 13.0579 3.38732 13.2114L3.42535 14.4565C3.43803 14.8537 3.84789 15.1114 4.21127 14.9523L5.6 14.3396C5.71831 14.2875 5.8493 14.2776 5.97324 14.3114C6.61127 14.4875 7.29155 14.5805 8 14.5805C11.9437 14.5805 15 11.6917 15 7.79023C15 3.88877 11.9437 1 8 1ZM12.2028 6.22401L10.1465 9.48602C9.81972 10.0043 9.11831 10.1339 8.62817 9.76631L6.99296 8.53953C6.84225 8.42686 6.63662 8.42826 6.48732 8.54094L4.27887 10.217C3.98451 10.441 3.59859 10.0874 3.79718 9.77476L5.85352 6.51275C6.18028 5.99443 6.88169 5.86485 7.37183 6.23246L9.00704 7.45924C9.15775 7.57191 9.36338 7.57051 9.51268 7.45783L11.7211 5.78175C12.0155 5.5578 12.4014 5.91133 12.2028 6.22401Z" fill="white"/>
</svg>
