<svg width="16" height="16" viewBox="0 0 16 16" fill="none" xmlns="http://www.w3.org/2000/svg">
<path d="M5.2738 14.2499C10.8083 14.2499 13.8367 9.66388 13.8367 5.69361C13.8367 5.56459 13.8367 5.43557 13.8308 5.30655C14.4177 4.88431 14.9283 4.35064 15.3333 3.7466C14.7933 3.98704 14.2123 4.14538 13.6019 4.22162C14.224 3.85216 14.6994 3.25984 14.9283 2.5561C14.3473 2.90211 13.7017 3.14842 13.015 3.2833C12.4633 2.69685 11.6828 2.33325 10.82 2.33325C9.15909 2.33325 7.80922 3.68209 7.80922 5.34174C7.80922 5.57632 7.83856 5.80504 7.88551 6.02789C5.38531 5.90473 3.16683 4.70251 1.68197 2.88452C1.42373 3.33022 1.277 3.84629 1.277 4.39756C1.277 5.44144 1.81108 6.36216 2.61514 6.9017C2.12214 6.88411 1.65849 6.74922 1.25353 6.52637C1.25353 6.5381 1.25353 6.54983 1.25353 6.56742C1.25353 8.02182 2.29234 9.24163 3.66569 9.51727C3.41332 9.58764 3.14922 9.62283 2.87338 9.62283C2.6797 9.62283 2.49189 9.60523 2.30995 9.57005C2.69144 10.7664 3.80655 11.6344 5.12121 11.6578C4.08826 12.4671 2.79121 12.948 1.38265 12.948C1.14202 12.948 0.901387 12.9363 0.666626 12.9069C1.99302 13.7514 3.57766 14.2499 5.2738 14.2499Z" fill="#1DA1F2"/>
</svg>
