<svg width="16" height="16" viewBox="0 0 16 16" fill="none" xmlns="http://www.w3.org/2000/svg">
<path d="M5.5 4C5.22386 4 5 3.77614 5 3.5C5 3.22386 4.77614 3 4.5 3C4.22386 3 4 3.22386 4 3.5C4 3.77614 3.77446 3.99563 3.50209 4.04113C2.08221 4.2783 1 5.51277 1 7C1 8.48723 2.08221 9.72169 3.50209 9.95887C3.77446 10.0044 4 10.2239 4 10.5V11.5C4 11.7761 4.22386 12 4.5 12C4.77614 12 5 11.7761 5 11.5V10.5C5 10.2239 5.22386 10 5.5 10H7.60961L7.94627 8.65337L6.11027 6.81738L8.43177 5.88877L7.72265 5.41603C7.49289 5.26285 7.4308 4.95241 7.58397 4.72265C7.73715 4.49289 8.04759 4.4308 8.27735 4.58397L10.5682 6.11123L7.88973 7.18262L9.05373 8.34663L8.64039 10H10.5C10.7761 10 11 10.2239 11 10.5V11.5C11 11.7761 11.2239 12 11.5 12C11.7761 12 12 11.7761 12 11.5V10.5C12 10.2239 12.2255 10.0044 12.4979 9.95887C13.9178 9.72169 15 8.48723 15 7C15 5.34315 13.6569 4 12 4H5.5Z" fill="#2D50E6"/>
<path d="M8 14C8.55229 14 9 13.5523 9 13C9 12 8 11 8 11C8 11 7 12 7 13C7 13.5523 7.44772 14 8 14Z" fill="#2D50E6"/>
</svg>
