<svg width="16" height="16" viewBox="0 0 16 16" fill="none" xmlns="http://www.w3.org/2000/svg">
<path fill-rule="evenodd" clip-rule="evenodd" d="M7 2C7 1.44772 7.44772 1 8 1H12C12.5523 1 13 1.44772 13 2V15H11.5V11.5C11.5 11.2239 11.2761 11 11 11H9C8.72386 11 8.5 11.2239 8.5 11.5V15H3V6C3 5.44772 3.44772 5 4 5H7V2ZM9.5 3C9.22386 3 9 3.22386 9 3.5V4.5C9 4.77614 9.22386 5 9.5 5H10.5C10.7761 5 11 4.77614 11 4.5V3.5C11 3.22386 10.7761 3 10.5 3H9.5ZM9 7.5C9 7.22386 9.22386 7 9.5 7H10.5C10.7761 7 11 7.22386 11 7.5V8.5C11 8.77614 10.7761 9 10.5 9H9.5C9.22386 9 9 8.77614 9 8.5V7.5ZM5.5 7C5.22386 7 5 7.22386 5 7.5V8.5C5 8.77614 5.22386 9 5.5 9H6.5C6.77614 9 7 8.77614 7 8.5V7.5C7 7.22386 6.77614 7 6.5 7H5.5ZM5 11.5C5 11.2239 5.22386 11 5.5 11H6.5C6.77614 11 7 11.2239 7 11.5V12.5C7 12.7761 6.77614 13 6.5 13H5.5C5.22386 13 5 12.7761 5 12.5V11.5Z" fill="#2D50E6"/>
</svg>
