<svg width="16" height="16" viewBox="0 0 16 16" fill="none" xmlns="http://www.w3.org/2000/svg">
<path d="M11.047 7.56762C11.5307 6.80777 12 6.07047 12 5C12 2.79086 10.209 1 8 1C5.79102 1 4 2.79086 4 5C4 6.06989 4.46924 6.8071 4.95287 7.56691L4.95361 7.56808C5.46875 8.37683 6 9.21136 6 10.5C6 10.788 6.28218 10.9914 6.55544 10.9003L9.78706 9.82318C9.96023 9.76546 10.0858 9.61719 10.1315 9.44046C10.3209 8.70752 10.6875 8.13186 11.0464 7.56866L11.047 7.56762Z" fill="#2D50E6"/>
<path d="M6.67551 14.6759C6.43259 14.4384 6.52803 14.0718 6.85035 13.9643L9.36315 13.1268C9.67646 13.0223 10 13.2555 10 13.5858C10 13.851 9.89453 14.1053 9.70703 14.2929L9.29297 14.7071C9.10547 14.8947 8.85107 15 8.58594 15H7.41406C7.14893 15 6.89453 14.8947 6.70703 14.7071L6.67551 14.6759Z" fill="#2D50E6"/>
<path d="M9.97434 11.3419C10.0617 11.6039 9.92009 11.887 9.65811 11.9743L6.65811 12.9743C6.39614 13.0617 6.11298 12.9201 6.02566 12.6581C5.93833 12.3961 6.07991 12.113 6.34189 12.0257L9.34189 11.0257C9.60386 10.9383 9.88702 11.0799 9.97434 11.3419Z" fill="#2D50E6"/>
<path d="M2.20843 2.29904C1.90269 2.15622 1.76905 1.78956 1.93811 1.49751C2.10716 1.20545 2.48993 1.14111 2.76619 1.3349L3.54613 1.88202C3.74339 2.0204 3.78974 2.29093 3.66903 2.49946C3.54832 2.708 3.28992 2.80421 3.07161 2.70224L2.20843 2.29904Z" fill="#2D50E6"/>
<path d="M13.2338 1.3349C13.5101 1.14111 13.8928 1.20545 14.0619 1.49751C14.2309 1.78956 14.0973 2.15622 13.7916 2.29904L12.9284 2.70224C12.7101 2.80421 12.4517 2.70799 12.331 2.49946C12.2103 2.29093 12.2566 2.0204 12.4539 1.88202L13.2338 1.3349Z" fill="#2D50E6"/>
<path d="M1.63414 4.44309C1.2984 4.41408 1 4.663 1 4.99999C1 5.33699 1.2984 5.58591 1.63414 5.5569L2.58262 5.47495C2.82351 5.45413 3 5.24179 3 4.99999C3 4.7582 2.82351 4.54586 2.58262 4.52504L1.63414 4.44309Z" fill="#2D50E6"/>
<path d="M14.3659 4.44309C14.7016 4.41408 15 4.663 15 4.99999C15 5.33699 14.7016 5.58591 14.3659 5.5569L13.4174 5.47495C13.1765 5.45413 13 5.24179 13 4.99999C13 4.7582 13.1765 4.54586 13.4174 4.52504L14.3659 4.44309Z" fill="#2D50E6"/>
<path d="M1.93811 8.50248C2.10716 8.79454 2.48993 8.85888 2.76619 8.66509L3.54613 8.11797C3.74339 7.97959 3.78974 7.70906 3.66903 7.50053C3.54832 7.29199 3.28992 7.19578 3.07161 7.29775L2.20843 7.70095C1.90269 7.84377 1.76905 8.21043 1.93811 8.50248Z" fill="#2D50E6"/>
<path d="M13.7916 7.70095C14.0973 7.84377 14.2309 8.21043 14.0619 8.50248C13.8928 8.79453 13.5101 8.85888 13.2338 8.66509L12.4539 8.11797C12.2566 7.97959 12.2103 7.70906 12.331 7.50053C12.4517 7.29199 12.7101 7.19578 12.9284 7.29775L13.7916 7.70095Z" fill="#2D50E6"/>
</svg>
