<svg width="16" height="16" viewBox="0 0 16 16" fill="none" xmlns="http://www.w3.org/2000/svg">
<path fill-rule="evenodd" clip-rule="evenodd" d="M2.24561 3.88583C2.70117 2.74686 3.8042 2 5.03125 2H10.9688C12.1958 2 13.2988 2.74686 13.7544 3.88583L14.5708 5.92715L14.5996 6H15.5C15.7764 6 16 6.22385 16 6.5C16 6.77615 15.7764 7 15.5 7C15.1829 7 14.9458 7.28999 14.9748 7.6058C14.9916 7.78825 15 7.97167 15 8.15549V13.5C15 13.7762 14.7764 14 14.5 14H12.5C12.2236 14 12 13.7762 12 13.5V12H4V13.5C4 13.7762 3.77637 14 3.5 14H1.5C1.22363 14 1 13.7762 1 13.5V8.15549C1 7.97167 1.00841 7.78825 1.02517 7.6058C1.05418 7.28999 0.817139 7 0.5 7C0.223633 7 0 6.77615 0 6.5C0 6.22385 0.223633 6 0.5 6H1.40039L1.4292 5.92715L2.24561 3.88583ZM2.87191 7C2.49304 7 2.21663 6.65029 2.35742 6.29855L3.17432 4.25723C3.47803 3.49789 4.21338 3 5.03125 3H10.9688C11.7866 3 12.522 3.49789 12.8257 4.25723L13.6426 6.29855C13.7834 6.65029 13.507 7 13.1281 7H2.87191ZM5 10.5C5 10.2238 5.22363 10 5.5 10H10.5C10.7764 10 11 10.2238 11 10.5C11 10.7762 10.7764 11 10.5 11H5.5C5.22363 11 5 10.7762 5 10.5ZM3 11C3.55225 11 4 10.5523 4 10C4 9.44772 3.55225 9 3 9C2.44775 9 2 9.44772 2 10C2 10.5523 2.44775 11 3 11ZM14 10C14 10.5523 13.5522 11 13 11C12.4478 11 12 10.5523 12 10C12 9.44772 12.4478 9 13 9C13.5522 9 14 9.44772 14 10Z" fill="#2D50E6"/>
</svg>
