<svg width="16" height="16" viewBox="0 0 16 16" fill="none" xmlns="http://www.w3.org/2000/svg">
<path d="M2 3C1.44772 3 1 3.44772 1 4V4.5C1 4.77614 1.22386 5 1.5 5H14.5C14.7761 5 15 4.77614 15 4.5V4C15 3.44772 14.5523 3 14 3H2Z" fill="#2D50E6"/>
<path fill-rule="evenodd" clip-rule="evenodd" d="M1.5 6C1.22386 6 1 6.22386 1 6.5V12C1 12.5523 1.44772 13 2 13H14C14.5523 13 15 12.5523 15 12V6.5C15 6.22386 14.7761 6 14.5 6H1.5ZM10.5 10C10.2239 10 10 10.2239 10 10.5C10 10.7761 10.2239 11 10.5 11H12.5C12.7761 11 13 10.7761 13 10.5C13 10.2239 12.7761 10 12.5 10H10.5Z" fill="#2D50E6"/>
</svg>
