<svg width="16" height="16" viewBox="0 0 16 16" fill="none" xmlns="http://www.w3.org/2000/svg">
<path fill-rule="evenodd" clip-rule="evenodd" d="M1.5 1C1.22386 1 1 1.22386 1 1.5V2.58579C1 2.851 1.10536 3.10536 1.29289 3.29289L1.70711 3.70711C1.89464 3.89464 2 4.149 2 4.41421V15H6.5V12.5C6.5 11.6716 7.17157 11 8 11C8.82843 11 9.5 11.6716 9.5 12.5V15H14V4.41421C14 4.149 14.1054 3.89464 14.2929 3.70711L14.7071 3.29289C14.8946 3.10536 15 2.851 15 2.58579V1.5C15 1.22386 14.7761 1 14.5 1C14.2239 1 14 1.22386 14 1.5C14 1.77614 13.7761 2 13.5 2C13.2239 2 13 1.77614 13 1.5C13 1.22386 12.7761 1 12.5 1C12.2239 1 12 1.22386 12 1.5C12 1.77614 11.7761 2 11.5 2C11.2239 2 11 1.77614 11 1.5C11 1.22386 10.7761 1 10.5 1C10.2239 1 10 1.22386 10 1.5V2.58579C10 2.851 10.1054 3.10536 10.2929 3.29289L10.7071 3.70711C10.8946 3.89464 11 4.149 11 4.41421V6H10.5C10.2239 6 10 6.22386 10 6.5C10 6.77614 9.77614 7 9.5 7C9.22386 7 9 6.77614 9 6.5C9 6.22386 8.77614 6 8.5 6H7.5C7.22386 6 7 6.22386 7 6.5C7 6.77614 6.77614 7 6.5 7C6.22386 7 6 6.77614 6 6.5C6 6.22386 5.77614 6 5.5 6H5V4.41421C5 4.149 5.10536 3.89464 5.29289 3.70711L5.70711 3.29289C5.89464 3.10536 6 2.851 6 2.58579V1.5C6 1.22386 5.77614 1 5.5 1C5.22386 1 5 1.22386 5 1.5C5 1.77614 4.77614 2 4.5 2C4.22386 2 4 1.77614 4 1.5C4 1.22386 3.77614 1 3.5 1C3.22386 1 3 1.22386 3 1.5C3 1.77614 2.77614 2 2.5 2C2.22386 2 2 1.77614 2 1.5C2 1.22386 1.77614 1 1.5 1ZM3 5.5C3 5.22386 3.22386 5 3.5 5C3.77614 5 4 5.22386 4 5.5V7H3V5.5ZM12.5 5C12.2239 5 12 5.22386 12 5.5V7H13V5.5C13 5.22386 12.7761 5 12.5 5ZM3 8.5C3 8.22386 3.22386 8 3.5 8C3.77614 8 4 8.22386 4 8.5V10H3V8.5ZM6.5 8C6.22386 8 6 8.22386 6 8.5V10H7V8.5C7 8.22386 6.77614 8 6.5 8ZM9 8.5C9 8.22386 9.22386 8 9.5 8C9.77614 8 10 8.22386 10 8.5V10H9V8.5ZM12.5 8C12.2239 8 12 8.22386 12 8.5V10H13V8.5C13 8.22386 12.7761 8 12.5 8ZM3 11.5C3 11.2239 3.22386 11 3.5 11C3.77614 11 4 11.2239 4 11.5V13H3V11.5ZM12.5 11C12.2239 11 12 11.2239 12 11.5V13H13V11.5C13 11.2239 12.7761 11 12.5 11Z" fill="#2D50E6"/>
</svg>
