<svg width="16" height="16" viewBox="0 0 16 16" fill="none" xmlns="http://www.w3.org/2000/svg">
<path d="M6 1C7.10457 1 8 1.89543 8 3V6.19106L5.2493 7.56642L3 6.21684V4.86044L5.65825 3.97436C5.92022 3.88703 6.0618 3.60387 5.97448 3.3419C5.88715 3.07993 5.60399 2.93835 5.34202 3.02567L3 3.80635V3C3 1.89543 3.89543 1 5 1H6Z" fill="#2D50E6"/>
<path d="M3 7.38303V8.69106L4.18912 8.0965L3 7.38303Z" fill="#2D50E6"/>
<path d="M3 9.8091V11C3 11.9003 3.29745 12.7312 3.79945 13.3997L5.58411 10.7227L5.58939 10.7149L4.35712 9.13054L3 9.8091Z" fill="#2D50E6"/>
<path d="M4.51258 14.1327C5.19543 14.6756 6.05984 15 7 15H7.13976L7.67871 13.3831C7.65219 13.3608 7.62759 13.3354 7.60546 13.307L6.23649 11.5469L4.51258 14.1327Z" fill="#2D50E6"/>
<path d="M8.19385 15H10.6504L9.11505 12.2364L8.19385 15Z" fill="#2D50E6"/>
<path d="M11.7943 15H13C14.1046 15 15 14.1046 15 13V12C15 11.1564 14.4777 10.4347 13.7387 10.1409L12.9473 11.7236C12.8239 11.9706 12.5235 12.0707 12.2765 11.9472C12.0295 11.8237 11.9294 11.5234 12.0529 11.2764L12.6911 10H9.86052L9.54403 10.9495L11.7943 15Z" fill="#2D50E6"/>
<path d="M8.81229 9.98241C8.34973 9.89456 8 9.48812 8 9V7.3091L5.26926 8.67447L8.05457 12.2556L8.81229 9.98241Z" fill="#2D50E6"/>
</svg>
