<svg width="16" height="16" viewBox="0 0 16 16" fill="none" xmlns="http://www.w3.org/2000/svg">
<path d="M4 5.5C2.89543 5.5 2 6.39543 2 7.5V8.5C2 9.60457 2.89543 10.5 4 10.5H5.5C6.60457 10.5 7.5 9.60457 7.5 8.5H4.75V7.5H7.5C7.5 6.39543 6.60457 5.5 5.5 5.5H4Z" fill="#2D50E6"/>
<path d="M9 5.5H13C13.5523 5.5 14 5.94772 14 6.5C14 7.05228 13.5523 7.5 13 7.5H9V5.5Z" fill="#2D50E6"/>
<path d="M9 8.5H13C13.5523 8.5 14 8.94771 14 9.5C14 10.0523 13.5523 10.5 13 10.5H9V8.5Z" fill="#2D50E6"/>
<path fill-rule="evenodd" clip-rule="evenodd" d="M2 3C0.895431 3 0 3.89543 0 5V11C0 12.1046 0.895431 13 2 13H14C15.1046 13 16 12.1046 16 11V5C16 3.89543 15.1046 3 14 3H2ZM14 4H2C1.44772 4 1 4.44772 1 5V11C1 11.5523 1.44772 12 2 12H14C14.5523 12 15 11.5523 15 11V5C15 4.44772 14.5523 4 14 4Z" fill="#2D50E6"/>
</svg>
