<svg width="16" height="16" viewBox="0 0 16 16" fill="none" xmlns="http://www.w3.org/2000/svg">
<path d="M3 1.5C3 1.22386 3.22386 1 3.5 1H4.5C4.77614 1 5 1.22386 5 1.5V12.5C5 12.7761 4.77614 13 4.5 13H3.5C3.22386 13 3 12.7761 3 12.5V1.5Z" fill="#2D50E6"/>
<path d="M7.5 1C7.22386 1 7 1.22386 7 1.5V12.5C7 12.7761 7.22386 13 7.5 13H8.5C8.77614 13 9 12.7761 9 12.5V1.5C9 1.22386 8.77614 1 8.5 1H7.5Z" fill="#2D50E6"/>
<path d="M1.5 14C1.22386 14 1 14.2239 1 14.5C1 14.7761 1.22386 15 1.5 15H14.5C14.7761 15 15 14.7761 15 14.5C15 14.2239 14.7761 14 14.5 14H1.5Z" fill="#2D50E6"/>
<path d="M11.5 1C11.2239 1 11 1.22386 11 1.5V12.5C11 12.7761 11.2239 13 11.5 13H12.5C12.7761 13 13 12.7761 13 12.5V1.5C13 1.22386 12.7761 1 12.5 1H11.5Z" fill="#2D50E6"/>
</svg>
