<svg width="16" height="16" viewBox="0 0 16 16" fill="none" xmlns="http://www.w3.org/2000/svg">
<path d="M7 1.5C7 1.22386 7.22386 1 7.5 1H8.5C8.77614 1 9 1.22386 9 1.5V12.5C9 12.7761 8.77614 13 8.5 13H7.5C7.22386 13 7 12.7761 7 12.5V1.5Z" fill="#2D50E6"/>
<path d="M3.5 5C3.22386 5 3 5.22386 3 5.5V12.5C3 12.7761 3.22386 13 3.5 13H4.5C4.77614 13 5 12.7761 5 12.5V5.5C5 5.22386 4.77614 5 4.5 5H3.5Z" fill="#2D50E6"/>
<path d="M1.5 14C1.22386 14 1 14.2239 1 14.5C1 14.7761 1.22386 15 1.5 15H14.5C14.7761 15 15 14.7761 15 14.5C15 14.2239 14.7761 14 14.5 14H1.5Z" fill="#2D50E6"/>
<path d="M11.5 9C11.2239 9 11 9.22386 11 9.5V12.5C11 12.7761 11.2239 13 11.5 13H12.5C12.7761 13 13 12.7761 13 12.5V9.5C13 9.22386 12.7761 9 12.5 9H11.5Z" fill="#2D50E6"/>
</svg>
