<svg width="16" height="16" viewBox="0 0 16 16" fill="none" xmlns="http://www.w3.org/2000/svg">
<path d="M1.31433 4.03576C2.21074 3.6772 4.74088 3 8.00002 3C11.2592 3 13.7893 3.6772 14.6857 4.03576C14.8968 4.1202 15.0244 4.33642 14.9962 4.56202C14.9649 4.81223 14.7522 5 14.5 5H1.50002C1.24786 5 1.03516 4.81223 1.00388 4.56202C0.975685 4.33642 1.10324 4.1202 1.31433 4.03576Z" fill="#2D50E6"/>
<path d="M1.75002 6C1.44927 6 1.21658 6.26359 1.25388 6.56202L1.64661 9.70381C1.66831 9.87741 1.82505 10 2 10C3.48723 10 4.7217 11.0822 4.95887 12.5021C5.00437 12.7745 5.22386 13 5.5 13H10.5C10.7761 13 10.9956 12.7745 11.0411 12.5021C11.2783 11.0822 12.5128 10 14 10C14.175 10 14.3317 9.87739 14.3534 9.70376L14.7462 6.56202C14.7835 6.26359 14.5508 6 14.25 6H10C9.72386 6 9.5 6.22386 9.5 6.5V7.5C9.5 8.32843 8.82843 9 8 9C7.17157 9 6.5 8.32843 6.5 7.5V6.5C6.5 6.22386 6.27614 6 6 6H1.75002Z" fill="#2D50E6"/>
<path d="M8 8C8.27614 8 8.5 7.77614 8.5 7.5V6.5C8.5 6.22386 8.27614 6 8 6C7.72386 6 7.5 6.22386 7.5 6.5V7.5C7.5 7.77614 7.72386 8 8 8Z" fill="#2D50E6"/>
<path d="M3.93829 12.5051C4.00641 12.7727 3.77614 13 3.5 13H2.50002C2.24786 13 2.03516 12.8122 2.00388 12.562L1.83338 11.198C1.82045 11.0945 1.89572 11 2 11C2.93374 11 3.71803 11.6399 3.93829 12.5051Z" fill="#2D50E6"/>
<path d="M14.1667 11.198C14.1796 11.0945 14.1043 11 14 11C13.0663 11 12.282 11.6399 12.0617 12.5051C11.9936 12.7727 12.2239 13 12.5 13H13.5C13.7522 13 13.9649 12.8122 13.9962 12.562L14.1667 11.198Z" fill="#2D50E6"/>
</svg>
