<svg width="16" height="16" viewBox="0 0 16 16" fill="none" xmlns="http://www.w3.org/2000/svg">
<path d="M0.5 3C0.223858 3 0 3.22386 0 3.5C0 3.77614 0.223858 4 0.5 4H15.5C15.7761 4 16 3.77614 16 3.5C16 3.22386 15.7761 3 15.5 3H0.5Z" fill="#2D50E6"/>
<path d="M7 10C6.63433 8.37181 7.00712 6.34405 8.5 5.5C7.75721 6.68712 8.2306 7.4713 9.38279 8.33219C10.0561 8.78839 10.4998 9.56829 10.4998 10.4537C10.4998 11.86 9.38066 13 8.00016 13C7.04095 13 6.20794 12.4496 5.78884 11.642C5.627 11.3404 5.50054 10.7493 5.50054 10.4537C5.49993 9.84336 5.54249 8.95749 5.99974 8.5C6 9.5 7 10 7 10Z" fill="#2D50E6"/>
<path d="M1.5 8C1.22386 8 1 8.22386 1 8.5V9.5C1 9.77614 1.22386 10 1.5 10H3.5C3.77614 10 4 9.77614 4 9.5V8.5C4 8.22386 3.77614 8 3.5 8H1.5Z" fill="#2D50E6"/>
<path d="M1.5 11C1.22386 11 1 11.2239 1 11.5V12.5C1 12.7761 1.22386 13 1.5 13H3.5C3.77614 13 4 12.7761 4 12.5V11.5C4 11.2239 3.77614 11 3.5 11H1.5Z" fill="#2D50E6"/>
<path d="M1.5 5H5.35418C4.76377 5.5211 4.32838 6.21378 4.12602 7H1.5C1.22386 7 1 6.77614 1 6.5V5.5C1 5.22386 1.22386 5 1.5 5Z" fill="#2D50E6"/>
<path d="M11.874 7H14.5C14.7761 7 15 6.77614 15 6.5V5.5C15 5.22386 14.7761 5 14.5 5H10.6458C11.2362 5.5211 11.6716 6.21378 11.874 7Z" fill="#2D50E6"/>
<path d="M12 8.5C12 8.22386 12.2239 8 12.5 8H14.5C14.7761 8 15 8.22386 15 8.5V9.5C15 9.77614 14.7761 10 14.5 10H12.5C12.2239 10 12 9.77614 12 9.5V8.5Z" fill="#2D50E6"/>
<path d="M12 11.5C12 11.2239 12.2239 11 12.5 11H14.5C14.7761 11 15 11.2239 15 11.5V12.5C15 12.7761 14.7761 13 14.5 13H12.5C12.2239 13 12 12.7761 12 12.5V11.5Z" fill="#2D50E6"/>
</svg>
