<svg width="16" height="16" viewBox="0 0 16 16" fill="none" xmlns="http://www.w3.org/2000/svg">
<path d="M12.073 4.96369C10.8957 4.76109 10 3.73515 10 2.5C10 1.11929 11.1193 0 12.5 0C13.6002 0 14.5344 0.710644 14.8686 1.69794C15.5381 2.02124 16 2.70668 16 3.5C16 3.95025 15.8512 4.36576 15.6001 4.70003C15.8429 4.88247 16 5.17289 16 5.5C16 6.05228 15.5523 6.5 15 6.5C14.5842 6.5 14.2276 6.24621 14.0768 5.88508C13.8993 5.95911 13.7044 6 13.5 6C12.8334 6 12.2684 5.56517 12.073 4.96369Z" fill="#2D50E6"/>
<path d="M0 7.5C0 7.22386 0.223858 7 0.5 7H11.5C11.7761 7 12 7.22386 12 7.5V8.5C12 8.77614 11.7761 9 11.5 9H0.5C0.223858 9 0 8.77614 0 8.5V7.5Z" fill="#2D50E6"/>
<path d="M13 7.5C13 7.22386 13.2239 7 13.5 7C13.7761 7 14 7.22386 14 7.5V8.5C14 8.77614 13.7761 9 13.5 9C13.2239 9 13 8.77614 13 8.5V7.5Z" fill="#2D50E6"/>
<path d="M15 7.5C15 7.22386 15.2239 7 15.5 7C15.7761 7 16 7.22386 16 7.5V8.5C16 8.77614 15.7761 9 15.5 9C15.2239 9 15 8.77614 15 8.5V7.5Z" fill="#2D50E6"/>
</svg>
