<svg width="16" height="16" viewBox="0 0 16 16" fill="none" xmlns="http://www.w3.org/2000/svg">
<path d="M14.8536 1.85355C15.0488 1.65829 15.0488 1.34171 14.8536 1.14645C14.6583 0.951184 14.3417 0.951184 14.1464 1.14645L8.29289 7H0.5C0.223858 7 0 7.22386 0 7.5V8.5C0 8.77614 0.223858 9 0.5 9H6.29289L1.14645 14.1464C0.951184 14.3417 0.951184 14.6583 1.14645 14.8536C1.34171 15.0488 1.65829 15.0488 1.85355 14.8536L14.8536 1.85355Z" fill="#2D50E6"/>
<path d="M11.5 9H9.12155L11.1215 7H11.5C11.7761 7 12 7.22386 12 7.5V8.5C12 8.77614 11.7761 9 11.5 9Z" fill="#2D50E6"/>
<path d="M13 7.5C13 7.22386 13.2239 7 13.5 7C13.7761 7 14 7.22386 14 7.5V8.5C14 8.77614 13.7761 9 13.5 9C13.2239 9 13 8.77614 13 8.5V7.5Z" fill="#2D50E6"/>
<path d="M15 7.5C15 7.22386 15.2239 7 15.5 7C15.7761 7 16 7.22386 16 7.5V8.5C16 8.77614 15.7761 9 15.5 9C15.2239 9 15 8.77614 15 8.5V7.5Z" fill="#2D50E6"/>
</svg>
