<svg width="16" height="16" viewBox="0 0 16 16" fill="none" xmlns="http://www.w3.org/2000/svg">
<path d="M9.98058 3.19606C10.0889 2.65451 9.73768 2.12768 9.19612 2.01937C8.65456 1.91106 8.12773 2.26227 8.01942 2.80383L6.01942 12.8038C5.91111 13.3454 6.26232 13.8722 6.80388 13.9805C7.34544 14.0888 7.87227 13.7376 7.98058 13.1961L9.98058 3.19606Z" fill="#2D50E6"/>
<path d="M11.2929 11.7071C10.9024 11.3165 10.9024 10.6834 11.2929 10.2928L13.5858 7.99995L11.2929 5.70706C10.9024 5.31653 10.9024 4.68337 11.2929 4.29284C11.6834 3.90232 12.3166 3.90232 12.7071 4.29284L15.7071 7.29284C16.0976 7.68337 16.0976 8.31653 15.7071 8.70706L12.7071 11.7071C12.3166 12.0976 11.6834 12.0976 11.2929 11.7071Z" fill="#2D50E6"/>
<path d="M4.70711 4.29284C5.09763 4.68337 5.09763 5.31653 4.70711 5.70706L2.41421 7.99995L4.70711 10.2928C5.09763 10.6834 5.09763 11.3165 4.70711 11.7071C4.31658 12.0976 3.68342 12.0976 3.29289 11.7071L0.292893 8.70706C-0.0976311 8.31653 -0.0976311 7.68337 0.292893 7.29284L3.29289 4.29284C3.68342 3.90232 4.31658 3.90232 4.70711 4.29284Z" fill="#2D50E6"/>
</svg>
