<svg width="16" height="16" viewBox="0 0 16 16" fill="none" xmlns="http://www.w3.org/2000/svg">
<path fill-rule="evenodd" clip-rule="evenodd" d="M6.85251 1.58492C6.90877 1.24739 7.2008 1 7.54299 1H8.45701C8.7992 1 9.09123 1.24739 9.14749 1.58492L9.2327 2.09618C9.27893 2.37357 9.48806 2.59249 9.75513 2.68055C10.0193 2.76767 10.2748 2.87392 10.5199 2.99766C10.771 3.12438 11.0737 3.11746 11.3026 2.95399L11.7247 2.65246C12.0032 2.45357 12.3846 2.48513 12.6266 2.7271L13.2729 3.37341C13.5148 3.61537 13.5464 3.9968 13.3475 4.27525L13.046 4.69738C12.8825 4.92623 12.8756 5.22893 13.0023 5.48C13.1261 5.72517 13.2323 5.98067 13.3194 6.24487C13.4075 6.51194 13.6264 6.72107 13.9038 6.7673L14.4151 6.85251C14.7526 6.90877 15 7.2008 15 7.54299L15 8.45701C15 8.7992 14.7526 9.09123 14.4151 9.14749L13.9038 9.2327C13.6264 9.27893 13.4075 9.48806 13.3194 9.75513C13.2323 10.0193 13.1261 10.2748 13.0023 10.52C12.8756 10.7711 12.8825 11.0738 13.046 11.3026L13.3475 11.7247C13.5464 12.0032 13.5148 12.3846 13.2729 12.6266L12.6266 13.2729C12.3846 13.5149 12.0032 13.5464 11.7247 13.3475L11.3026 13.046C11.0737 12.8825 10.771 12.8756 10.5199 13.0023C10.2748 13.1261 10.0193 13.2323 9.75513 13.3194C9.48806 13.4075 9.27893 13.6264 9.2327 13.9038L9.14749 14.4151C9.09123 14.7526 8.7992 15 8.45701 15H7.54299C7.2008 15 6.90877 14.7526 6.85251 14.4151L6.7673 13.9038C6.72107 13.6264 6.51194 13.4075 6.24487 13.3194C5.98067 13.2323 5.72517 13.1261 5.48001 13.0023C5.22894 12.8756 4.92624 12.8825 4.69739 13.046L4.27521 13.3475C3.99676 13.5464 3.61533 13.5149 3.37337 13.2729L2.72706 12.6266C2.48509 12.3846 2.45352 12.0032 2.65242 11.7247L2.95399 11.3026C3.11745 11.0737 3.12438 10.771 2.99765 10.5199C2.87392 10.2748 2.76767 10.0193 2.68055 9.75513C2.59249 9.48806 2.37357 9.27893 2.09618 9.2327L1.58492 9.14749C1.24739 9.09123 1 8.7992 1 8.45701V7.54299C1 7.2008 1.24739 6.90877 1.58492 6.85251L2.09618 6.7673C2.37357 6.72107 2.59249 6.51194 2.68055 6.24487C2.76767 5.98069 2.87392 5.72521 2.99765 5.48006C3.12438 5.22899 3.11745 4.9263 2.95399 4.69745L2.65242 4.27525C2.45352 3.9968 2.48509 3.61537 2.72706 3.37341L3.37337 2.7271C3.61533 2.48513 3.99676 2.45357 4.27521 2.65246L4.69739 2.95402C4.92624 3.11748 5.22894 3.12441 5.48001 2.99768C5.72517 2.87393 5.98067 2.76768 6.24487 2.68055C6.51194 2.59249 6.72107 2.37357 6.7673 2.09618L6.85251 1.58492ZM8 11C9.65685 11 11 9.65685 11 8C11 6.34315 9.65685 5 8 5C6.34315 5 5 6.34315 5 8C5 9.65685 6.34315 11 8 11Z" fill="#2D50E6"/>
</svg>
