<svg width="16" height="16" viewBox="0 0 16 16" fill="none" xmlns="http://www.w3.org/2000/svg">
<path fill-rule="evenodd" clip-rule="evenodd" d="M4 7C2.34315 7 1 5.65685 1 4C1 2.34315 2.34315 1 4 1C5.65685 1 7 2.34315 7 4V5.5H9V4C9 2.34315 10.3431 1 12 1C13.6569 1 15 2.34315 15 4C15 5.65685 13.6569 7 12 7H10.5V9H12C13.6569 9 15 10.3431 15 12C15 13.6569 13.6569 15 12 15C10.3431 15 9 13.6569 9 12V10.5H7V12C7 13.6569 5.65685 15 4 15C2.34315 15 1 13.6569 1 12C1 10.3431 2.34315 9 4 9H5.5V7H4ZM2.5 4C2.5 4.82843 3.17157 5.5 4 5.5H5.5V4C5.5 3.17157 4.82843 2.5 4 2.5C3.17157 2.5 2.5 3.17157 2.5 4ZM9 9V7H7V9H9ZM13.5 4C13.5 4.82843 12.8284 5.5 12 5.5H10.5V4C10.5 3.17157 11.1716 2.5 12 2.5C12.8284 2.5 13.5 3.17157 13.5 4ZM12 10.5C12.8284 10.5 13.5 11.1716 13.5 12C13.5 12.8284 12.8284 13.5 12 13.5C11.1716 13.5 10.5 12.8284 10.5 12V10.5H12ZM2.5 12C2.5 11.1716 3.17157 10.5 4 10.5H5.5V12C5.5 12.8284 4.82843 13.5 4 13.5C3.17157 13.5 2.5 12.8284 2.5 12Z" fill="#2D50E6"/>
</svg>
