<svg width="16" height="16" viewBox="0 0 16 16" fill="none" xmlns="http://www.w3.org/2000/svg">
<path fill-rule="evenodd" clip-rule="evenodd" d="M9.08763 2.53299C9.34318 2.264 9.5 1.90032 9.5 1.5C9.5 0.671573 8.82843 0 8 0C7.17157 0 6.5 0.671573 6.5 1.5C6.5 1.90032 6.65682 2.264 6.91237 2.53299C7.20428 2.84025 7.5 3.19801 7.5 3.62182V5.69722C7.5 6.03158 7.3329 6.34381 7.0547 6.52927L5.0947 7.83594C4.93043 7.94546 4.73742 8.00389 4.54 8.00389H3.87418C2.82823 8.06882 2 8.93769 2 10V12.3782C2 12.802 1.70428 13.1598 1.41237 13.467C1.15682 13.736 1 14.0997 1 14.5C1 15.3284 1.67157 16 2.5 16C3.32843 16 4 15.3284 4 14.5C4 14.0997 3.84318 13.736 3.58763 13.467C3.29572 13.1598 3 12.802 3 12.3782V10C3 9.48378 3.39115 9.05892 3.89323 9.00563H4.55428C4.75171 9.00563 4.94472 9.06407 5.10898 9.17358L6.8906 10.3613C7.5624 10.8092 8.4376 10.8092 9.1094 10.3613L10.891 9.17358C11.0553 9.06407 11.2483 9.00563 11.4457 9.00563H12.1068C12.6089 9.05892 13 9.48378 13 10V12.3782C13 12.802 12.7043 13.1598 12.4124 13.467C12.1568 13.736 12 14.0997 12 14.5C12 15.3284 12.6716 16 13.5 16C14.3284 16 15 15.3284 15 14.5C15 14.0997 14.8432 13.736 14.5876 13.467C14.2957 13.1598 14 12.802 14 12.3782V10C14 8.93769 13.1718 8.06882 12.1258 8.00389H11.46C11.2626 8.00389 11.0696 7.94546 10.9053 7.83594L8.9453 6.52927C8.6671 6.34381 8.5 6.03158 8.5 5.69722V3.62182C8.5 3.19801 8.79572 2.84025 9.08763 2.53299ZM8.5547 9.52927C8.2188 9.75321 7.7812 9.75321 7.4453 9.52927L6.21341 8.70801C6.06497 8.60906 6.06497 8.39094 6.21341 8.29199L7.4453 7.47073C7.7812 7.24679 8.2188 7.24679 8.5547 7.47073L9.78659 8.29199C9.93503 8.39094 9.93503 8.60906 9.78659 8.70801L8.5547 9.52927Z" fill="#2D50E6"/>
</svg>
