<svg width="16" height="16" viewBox="0 0 16 16" fill="none" xmlns="http://www.w3.org/2000/svg">
<g clip-path="url(#clip0_3441_97)">
<path fill-rule="evenodd" clip-rule="evenodd" d="M5.26123 4C3.4868 4 1.92445 5.169 1.42376 6.87133L0.0924874 11.3977C0.0408429 11.5606 0.0111946 11.7271 0.00243487 11.8932C-0.0138954 12.1938 0.038622 12.4887 0.149297 12.7584C0.259608 13.0281 0.429077 13.275 0.651577 13.4777C0.817448 13.6293 1.01093 13.7546 1.22726 13.8449C1.44316 13.9356 1.66796 13.9856 1.89214 13.9976C2.1929 14.0141 2.48799 13.9617 2.75778 13.851C3.02768 13.7407 3.27479 13.5712 3.47763 13.3486C3.58988 13.2258 3.68772 13.0878 3.76761 12.9367L4.84353 11H11.156L12.2319 12.9367C12.3118 13.0878 12.4096 13.2258 12.5219 13.3486C12.7247 13.5712 12.9718 13.7407 13.2417 13.851C13.5115 13.9617 13.8066 14.0141 14.1074 13.9976C14.3315 13.9856 14.5563 13.9356 14.7722 13.8449C14.9886 13.7546 15.1821 13.6293 15.3479 13.4777C15.5704 13.275 15.7399 13.0281 15.8502 12.7584C15.9609 12.4887 16.0134 12.1938 15.9971 11.8932C15.9883 11.7271 15.9587 11.5606 15.907 11.3977L14.5757 6.87133C14.0751 5.169 12.5127 4 10.7383 4H5.26123ZM5.5 6C5.22386 6 5 6.22386 5 6.5V7H4.5C4.22386 7 4 7.22386 4 7.5C4 7.77614 4.22386 8 4.5 8H5V8.5C5 8.77614 5.22386 9 5.5 9C5.77614 9 6 8.77614 6 8.5V8H6.5C6.77614 8 7 7.77614 7 7.5C7 7.22386 6.77614 7 6.5 7H6V6.5C6 6.22386 5.77614 6 5.5 6ZM11 6.5C11 6.77614 10.7761 7 10.5 7C10.2239 7 10 6.77614 10 6.5C10 6.22386 10.2239 6 10.5 6C10.7761 6 11 6.22386 11 6.5ZM11 8.5C11 8.77614 10.7761 9 10.5 9C10.2239 9 10 8.77614 10 8.5C10 8.22386 10.2239 8 10.5 8C10.7761 8 11 8.22386 11 8.5ZM12 7.5C12 7.77614 11.7761 8 11.5 8C11.2239 8 11 7.77614 11 7.5C11 7.22386 11.2239 7 11.5 7C11.7761 7 12 7.22386 12 7.5ZM10 7.5C10 7.77614 9.77614 8 9.5 8C9.22386 8 9 7.77614 9 7.5C9 7.22386 9.22386 7 9.5 7C9.77614 7 10 7.22386 10 7.5Z" fill="#2D50E6"/>
</g>
<defs>
<clipPath id="clip0_3441_97">
<rect width="16" height="16" fill="white"/>
</clipPath>
</defs>
</svg>
