<svg width="16" height="16" viewBox="0 0 16 16" fill="none" xmlns="http://www.w3.org/2000/svg">
<path fill-rule="evenodd" clip-rule="evenodd" d="M6.93267 1.23305C7.61036 0.922316 8.38966 0.922316 9.06735 1.23305L9.33644 1.35642C9.59807 1.47634 9.87803 1.55133 10.1642 1.57825L10.4591 1.60593C11.2014 1.67568 11.8763 2.06541 12.3079 2.67337L12.4791 2.91474C12.6457 3.14936 12.8507 3.35423 13.0853 3.52077L13.3268 3.6921C13.9345 4.12364 14.3242 4.79868 14.3941 5.54096L14.4218 5.83565C14.4488 6.1221 14.5237 6.40198 14.6436 6.66351L14.767 6.93257C14.9988 7.43793 15.0575 7.9999 14.9438 8.53405C14.8937 8.51367 14.8428 8.49559 14.7906 8.47991C14.7651 8.47222 14.7393 8.4651 14.7132 8.45857C14.6271 8.43684 14.5389 8.42156 14.4494 8.41314L14.2484 8.39426C14.0532 8.37591 13.8621 8.32478 13.6841 8.24302L13.5005 8.1589C13.0384 7.94704 12.5071 7.94704 12.045 8.1589L11.8614 8.24302C11.683 8.32478 11.4922 8.37591 11.2971 8.39426L11.0961 8.41314C10.5899 8.46069 10.1297 8.72642 9.83546 9.14094L9.71863 9.30551C9.60521 9.46547 9.46539 9.60516 9.30536 9.71871L9.14099 9.83552C8.72648 10.1298 8.46081 10.59 8.41327 11.0961L8.39432 11.297C8.37599 11.4923 8.32471 11.6832 8.24299 11.8615L8.15879 12.0449C7.94718 12.507 7.94718 13.0384 8.15879 13.5005L8.24299 13.684C8.32471 13.8623 8.37599 14.0531 8.39432 14.2484L8.41327 14.4493C8.41762 14.496 8.42384 14.5423 8.43192 14.5881C8.43875 14.6267 8.44683 14.6649 8.45615 14.7027C8.47635 14.7851 8.50245 14.8657 8.53414 14.9437C8.00001 15.0576 7.43822 14.9987 6.93267 14.767L6.66358 14.6436C6.40195 14.5237 6.12199 14.4487 5.83581 14.4218L5.54093 14.3941C4.79861 14.3243 4.12372 13.9346 3.69212 13.3266L3.52091 13.0853C3.35436 12.8507 3.14928 12.6458 2.91469 12.4792L2.67325 12.3079C2.06548 11.8764 1.67583 11.2013 1.60591 10.4591L1.57826 10.1644C1.55123 9.87791 1.47634 9.59803 1.3564 9.3365L1.23304 9.06744C0.922319 8.38974 0.922319 7.61027 1.23304 6.93257L1.3564 6.66351C1.47634 6.40198 1.55123 6.1221 1.57826 5.83565L1.60591 5.54096C1.67583 4.79868 2.06548 4.12364 2.67325 3.6921L2.91469 3.52077C3.14928 3.35423 3.35436 3.14936 3.52091 2.91474L3.69212 2.67337C4.12372 2.06541 4.79861 1.67568 5.54093 1.60593L5.83581 1.57825C6.12199 1.55133 6.40195 1.47634 6.66358 1.35642L6.93267 1.23305ZM6 7C6 7.55228 5.55228 8 5 8C4.44772 8 4 7.55228 4 7C4 6.44772 4.44772 6 5 6C5.55228 6 6 6.44772 6 7ZM7 5C7.55228 5 8 4.55228 8 4C8 3.44772 7.55228 3 7 3C6.44772 3 6 3.44772 6 4C6 4.55228 6.44772 5 7 5ZM11 6C11 6.55228 10.5523 7 10 7C9.44771 7 9 6.55228 9 6C9 5.44772 9.44771 5 10 5C10.5523 5 11 5.44772 11 6ZM6 12C6.55228 12 7 11.5523 7 11C7 10.4477 6.55228 10 6 10C5.44772 10 5 10.4477 5 11C5 11.5523 5.44772 12 6 12Z" fill="#2D50E6"/>
<path d="M11.5 11C11.7761 11 12 10.7761 12 10.5C12 10.2239 11.7761 10 11.5 10C11.2239 10 11 10.2239 11 10.5C11 10.7761 11.2239 11 11.5 11Z" fill="#2D50E6"/>
<path d="M10.5 13C10.7761 13 11 12.7761 11 12.5C11 12.2239 10.7761 12 10.5 12C10.2239 12 10 12.2239 10 12.5C10 12.7761 10.2239 13 10.5 13Z" fill="#2D50E6"/>
<path d="M13.5 13C13.7761 13 14 12.7761 14 12.5C14 12.2239 13.7761 12 13.5 12C13.2239 12 13 12.2239 13 12.5C13 12.7761 13.2239 13 13.5 13Z" fill="#2D50E6"/>
</svg>
