<svg width="16" height="16" viewBox="0 0 16 16" fill="none" xmlns="http://www.w3.org/2000/svg">
<path d="M8 11C9.65685 11 11 9.65685 11 8C11 6.34315 9.65685 5 8 5C6.34315 5 5 6.34315 5 8C5 9.65685 6.34315 11 8 11Z" fill="#2D50E6"/>
<path fill-rule="evenodd" clip-rule="evenodd" d="M7.5 1H8.5V2.02054C11.4149 2.26101 13.739 4.5851 13.9795 7.5H15V8.5H13.9795C13.739 11.4149 11.4149 13.739 8.5 13.9795V15H7.5V13.9795C4.5851 13.739 2.26101 11.4149 2.02054 8.5H1V7.5H2.02054C2.26101 4.5851 4.5851 2.26101 7.5 2.02054V1ZM13 8C13 5.23858 10.7614 3 8 3C5.23858 3 3 5.23858 3 8C3 10.7614 5.23858 13 8 13C10.7614 13 13 10.7614 13 8Z" fill="#2D50E6"/>
</svg>
