<svg width="16" height="16" viewBox="0 0 16 16" fill="none" xmlns="http://www.w3.org/2000/svg">
<path fill-rule="evenodd" clip-rule="evenodd" d="M7.98119 3.00036C8.13185 2.99468 8.27703 3.05729 8.37631 3.17075L11.5875 6.84073L14.2227 5.08398C14.392 4.97111 14.6128 4.97209 14.7811 5.08647C14.9494 5.20085 15.0316 5.4058 14.9889 5.60477L13.4889 12.6048C13.4395 12.8353 13.2358 13 13 13H3.00002C2.76425 13 2.56052 12.8353 2.51112 12.6048L1.01112 5.60477C0.969795 5.41192 1.04569 5.2128 1.20489 5.09639C1.3641 4.97998 1.57685 4.96803 1.74809 5.06588L4.86485 6.84689L7.60002 3.2C7.69048 3.07939 7.83053 3.00603 7.98119 3.00036Z" fill="#2D50E6"/>
</svg>
