<svg width="16" height="16" viewBox="0 0 16 16" fill="none" xmlns="http://www.w3.org/2000/svg">
<path fill-rule="evenodd" clip-rule="evenodd" d="M3 3C1.89543 3 1 3.89543 1 5V11C1 12.1046 1.89543 13 3 13H7.5V14H5.5C5.22386 14 5 14.2239 5 14.5C5 14.7761 5.22386 15 5.5 15H10.5C10.7761 15 11 14.7761 11 14.5C11 14.2239 10.7761 14 10.5 14H8.5V13H13C14.1046 13 15 12.1046 15 11V5C15 3.89543 14.1046 3 13 3H3ZM3 4C2.44772 4 2 4.44772 2 5V10C2 10.5523 2.44772 11 3 11H13C13.5523 11 14 10.5523 14 10V5C14 4.44772 13.5523 4 13 4H3Z" fill="#2D50E6"/>
</svg>
