<svg width="16" height="16" viewBox="0 0 16 16" fill="none" xmlns="http://www.w3.org/2000/svg">
<path fill-rule="evenodd" clip-rule="evenodd" d="M2.27273 3.54545C2.09658 3.7216 1.92044 3.84293 1.75779 3.95497C1.33283 4.2477 1 4.47696 1 5.45455C1 6.86742 1 6.88636 1.63636 6.56818C2.27273 6.25 2.59091 7.04545 2.27273 7.68182C2.15853 7.91021 1.96237 8.05663 1.75778 8.20934C1.39233 8.48212 1 8.77496 1 9.59091C1 9.9886 2.27273 13.4091 6.09091 13.4091C8.11415 13.4091 9.07329 13.9364 9.88723 14.3838C10.4871 14.7136 11.0081 15 11.8182 15C13.0909 15 13.7273 13.7273 13.7273 13.0909C13.7273 12.7258 13.5193 12.5644 13.2278 12.4953L13.0769 12.0427C13.0704 12.0216 13.0618 12.0015 13.0514 11.9826C13.0282 11.9405 12.9963 11.9052 12.9588 11.8782C12.9213 11.8512 12.8777 11.8321 12.8305 11.8234C12.7952 11.8169 12.7584 11.8162 12.7217 11.8223C12.685 11.8282 12.6503 11.8404 12.619 11.8577C12.5769 11.8809 12.5416 11.9128 12.5146 11.9503C12.4875 11.9878 12.4684 12.0314 12.4598 12.0786C12.4558 12.0999 12.454 12.1217 12.4545 12.1437V12.4494L12.396 12.4507C12.3074 12.4526 12.2201 12.4545 12.1364 12.4545C12.0273 12.4545 11.9213 12.4514 11.8182 12.4452V11.5059C11.8187 11.4774 11.8155 11.4495 11.8087 11.4226C11.7971 11.3763 11.7754 11.334 11.7461 11.2983C11.6939 11.2347 11.6176 11.1917 11.5312 11.1833C11.494 11.1796 11.4574 11.1826 11.4226 11.1913C11.3763 11.2029 11.334 11.2246 11.2983 11.2539C11.241 11.3009 11.2005 11.3675 11.1868 11.4434L11.0101 12.3269C10.8469 12.2875 10.6922 12.2401 10.5455 12.1861V10.8689C10.546 10.8394 10.5424 10.8107 10.5352 10.7831C10.523 10.7364 10.5004 10.6938 10.4701 10.658C10.4402 10.6226 10.4025 10.5937 10.3591 10.574C10.3265 10.5591 10.2909 10.5496 10.2535 10.5465C10.2168 10.5434 10.1808 10.5468 10.1468 10.5557C10.1 10.5679 10.0574 10.5905 10.0216 10.6208C9.98627 10.6508 9.9573 10.6884 9.93759 10.7318C9.92552 10.7583 9.91698 10.7867 9.91256 10.8165L9.75004 11.7916C9.57887 11.6833 9.42059 11.567 9.27273 11.447V10.2347C9.27427 10.1682 9.25476 10.1033 9.21812 10.049C9.17164 9.9804 9.0991 9.93093 9.01473 9.91477C8.93048 9.89845 8.84484 9.91739 8.77625 9.9637C8.72198 10.0005 8.67966 10.0536 8.65637 10.116L8.43562 10.6679C7.10197 9.40046 6.13709 9.14819 5.54096 8.99233C5.05911 8.86634 4.81818 8.80335 4.81818 8.31818C4.81818 7.52972 5.93169 7.69717 7.03396 7.86294C7.49062 7.93161 7.94536 8 8.31818 8C8.3837 8 8.44863 7.99986 8.51295 7.99957L8.65037 8.41183C8.65684 8.43288 8.66544 8.453 8.67592 8.47194C8.69907 8.51402 8.73098 8.54933 8.76849 8.57632C8.80596 8.60338 8.84955 8.62247 8.89679 8.63114C8.93204 8.63768 8.96875 8.63831 9.00546 8.63231C9.04223 8.6264 9.07689 8.61418 9.1083 8.59681C9.15038 8.57365 9.1857 8.54175 9.21269 8.50424C9.23974 8.46677 9.25884 8.42318 9.2675 8.37594C9.27145 8.35466 9.27324 8.33286 9.27273 8.31085V7.98877C9.49265 7.98332 9.70469 7.97587 9.90909 7.96639V8.94933C9.90857 8.97873 9.91215 9.00752 9.91936 9.03504C9.93156 9.08183 9.95414 9.12442 9.98448 9.16021C10.0144 9.19555 10.0521 9.22451 10.0955 9.24423C10.1281 9.25909 10.1636 9.26861 10.201 9.27166C10.2377 9.27474 10.2737 9.27138 10.3078 9.26246C10.3546 9.25026 10.3971 9.22768 10.4329 9.19733C10.4683 9.16743 10.4972 9.12975 10.517 9.08636C10.529 9.05988 10.5376 9.03145 10.542 9.00168L10.7232 7.91458C10.8814 7.90146 11.0342 7.8868 11.1818 7.87058V8.94933C11.1813 8.97873 11.1849 9.00752 11.1921 9.03504C11.2043 9.08189 11.2269 9.12453 11.2573 9.16036C11.2872 9.19563 11.3249 9.22454 11.3682 9.24423C11.4008 9.25909 11.4364 9.26861 11.4738 9.27166C11.5105 9.27474 11.5464 9.27138 11.5805 9.26246C11.6273 9.25026 11.6699 9.22768 11.7057 9.19733C11.741 9.16743 11.77 9.12975 11.7897 9.08636C11.8017 9.05988 11.8103 9.03145 11.8147 9.00168L12.0231 7.75128C12.1738 7.72432 12.3175 7.6951 12.4545 7.66358V8.94932C12.4532 9.02824 12.4813 9.10269 12.53 9.16024C12.5599 9.19557 12.5975 9.22452 12.6409 9.24423C12.6735 9.25909 12.7091 9.26861 12.7465 9.27166C12.7832 9.27474 12.8192 9.27138 12.8532 9.26246C12.9 9.25026 12.9426 9.22768 12.9784 9.19733C13.0137 9.16743 13.0427 9.12975 13.0624 9.08636C13.0745 9.05988 13.083 9.03145 13.0874 9.00168L13.3568 7.38531C13.4898 7.33088 13.6131 7.27268 13.7273 7.21063V7.6766C13.7259 7.75551 13.754 7.82997 13.8027 7.88751C13.8326 7.92284 13.8703 7.95179 13.9136 7.9715C13.9463 7.98636 13.9818 7.99588 14.0192 7.99893C14.0559 8.00201 14.0919 7.99865 14.126 7.98973C14.1727 7.97753 14.2153 7.95496 14.2511 7.92461C14.2865 7.8947 14.3154 7.85702 14.3351 7.81363C14.3472 7.78715 14.3557 7.75872 14.3602 7.72895L14.5671 6.48763C14.8797 6.03995 15 5.48634 15 4.81818C15 2.25146 12.2558 2.58348 10.402 2.80778C9.95779 2.86153 9.56468 2.90909 9.27273 2.90909C7.85114 2.90909 7.12424 2.31364 6.48236 1.78784C5.97491 1.37216 5.5206 1 4.81818 1C3.48712 1 3.0841 1.92805 2.74639 2.70572C2.59974 3.04343 2.4654 3.35278 2.27273 3.54545ZM3.4416 3.60808C3.50793 3.56349 3.58706 3.54545 3.66699 3.54545C3.95132 3.54545 4.18182 3.77595 4.18182 4.06028V7.04545C4.18182 7.22118 4.03936 7.36364 3.86364 7.36364C3.68791 7.36364 3.54545 7.22131 3.54545 7.04558V6.09091C3.54545 5.77273 3.38636 5.53409 3.22727 5.29545C3.06818 5.05682 2.90909 4.81818 2.90909 4.5C2.90909 4.02663 3.26122 3.72932 3.4416 3.60808ZM5.77273 4.81818C5.24555 4.81818 4.81818 4.39082 4.81818 3.86364C4.81818 3.33646 5.24555 2.90909 5.77273 2.90909C6.03632 2.90909 6.27495 3.01593 6.44769 3.18867L6.68935 3.4507C7.12291 3.9208 7.36364 4.53689 7.36364 5.1764V6.40909C7.36364 6.49052 7.33257 6.57195 7.27044 6.63408C7.14618 6.75834 6.94472 6.75834 6.82047 6.63408L6.1841 5.99772C6.12197 5.93559 6.09091 5.85416 6.09091 5.77273V5.06511C6.09091 4.88938 5.94845 4.81818 5.77273 4.81818ZM8 6.09091V4.18182C8.0001 3.86376 8.0002 3.54545 8.63636 3.54545C9.35249 3.54545 10.546 4.82831 10.5455 5.45455C10.5455 5.77273 10.1475 5.77273 9.90909 5.77273C9.30393 5.77273 8.95455 6.15638 8.69878 6.43724C8.55111 6.59939 8.43464 6.72727 8.31818 6.72727C8 6.72727 8 6.40909 8 6.09091ZM11.3651 5.41365L11.7079 5.95769C11.9424 6.32987 12.6678 5.84888 12.3935 5.41365C12.1193 4.97841 10.6793 4.32555 11.3651 5.41365ZM12.464 3.78647C12.5067 3.61599 12.6794 3.51233 12.8499 3.55495C13.0905 3.6151 13.5739 3.79929 13.8638 4.19156C14.0168 4.3985 14.1142 4.66222 14.0892 4.97752C14.0648 5.286 13.9258 5.61412 13.6636 5.96364C13.5582 6.10422 13.3588 6.13271 13.2182 6.02727C13.0776 5.92184 13.0491 5.7224 13.1545 5.58182C13.3697 5.29498 13.4428 5.07953 13.4548 4.92731C13.4663 4.7819 13.4245 4.66778 13.3521 4.56981C13.1913 4.35222 12.8792 4.21823 12.6956 4.17232C12.5251 4.1297 12.4214 3.95695 12.464 3.78647Z" fill="#2D50E6"/>
</svg>
