<svg width="16" height="16" viewBox="0 0 16 16" fill="none" xmlns="http://www.w3.org/2000/svg">
<path fill-rule="evenodd" clip-rule="evenodd" d="M5.49944 12C4.67554 12 3.77783 11.6283 3.0956 10.9637L2.38194 11.8201C2.2355 11.9958 1.98848 12.0498 1.78212 11.9511C1.57575 11.8524 1.46268 11.6262 1.50754 11.4019C1.73974 10.2409 1.62384 9.57046 1.45304 8.94402C1.42209 8.83049 1.38794 8.71485 1.35267 8.59544C1.18757 8.03645 0.998047 7.39473 0.998047 6.5C0.998047 5.21612 1.19605 4.09206 1.75557 3.27904C2.34133 2.42789 3.26334 2 4.49805 2C5.01143 2 5.42974 2.16386 5.75036 2.4358C6.44495 2.15476 7.20414 2 7.99944 2C8.79409 2 9.55267 2.1545 10.2468 2.4351C10.5673 2.16358 10.9853 2 11.4983 2C12.733 2 13.655 2.42789 14.2408 3.27904C14.8003 4.09206 14.9983 5.21612 14.9983 6.5C14.9983 7.39473 14.8088 8.03638 14.6437 8.59537C14.6084 8.71477 14.5742 8.8305 14.5433 8.94402C14.3725 9.57046 14.2566 10.2409 14.4888 11.4019C14.5337 11.6262 14.4206 11.8524 14.2142 11.9511C14.0078 12.0498 13.7608 11.9958 13.6144 11.8201L12.9019 10.9651C12.2198 11.6288 11.3228 12 10.4994 12C9.49944 12 8.49944 11.5683 8.49944 10C8.49944 9.93121 8.51751 9.8652 8.54778 9.80441C8.5722 9.75583 8.60442 9.7106 8.64153 9.66995C8.86028 9.42938 8.99944 9.10648 8.99944 8.87573C8.99944 8.49541 8.62154 8.49762 8.13182 8.50049L7.99944 8.50101L7.86712 8.50049C7.3774 8.49762 6.99944 8.49541 6.99944 8.87573C6.99944 9.10648 7.1386 9.42938 7.35735 9.66995C7.44085 9.76147 7.49944 9.87628 7.49944 10C7.49944 11.5683 6.49944 12 5.49944 12ZM5.74944 7C6.16351 7 6.49944 6.55228 6.49944 6C6.49944 5.44772 6.16351 5 5.74944 5C5.33538 5 4.99944 5.44772 4.99944 6C4.99944 6.55228 5.33538 7 5.74944 7ZM10.9994 6C10.9994 6.55228 10.6635 7 10.2494 7C9.83538 7 9.49944 6.55228 9.49944 6C9.49944 5.44772 9.83538 5 10.2494 5C10.6635 5 10.9994 5.44772 10.9994 6Z" fill="#2D50E6"/>
<path d="M5.75677 12.9923C6.30608 13.6105 7.10735 14 7.99944 14C8.89153 14 9.6928 13.6105 10.2421 12.9923C9.67669 12.9582 9.03362 12.8017 8.49456 12.365C8.42327 12.3072 8.35589 12.2462 8.29241 12.1821C8.18353 12.0723 8.08587 11.9534 7.99944 11.8258C7.86224 12.028 7.6972 12.2085 7.50433 12.365C6.96526 12.8017 6.3222 12.9582 5.75677 12.9923Z" fill="#2D50E6"/>
</svg>
