<svg width="16" height="16" viewBox="0 0 16 16" fill="none" xmlns="http://www.w3.org/2000/svg">
<path fill-rule="evenodd" clip-rule="evenodd" d="M3 3C3 1.89543 3.89543 1 5 1H11C12.1046 1 13 1.89543 13 3V15H12V3C12 2.44772 11.5523 2 11 2H7.23635C6.9507 2 6.92105 2.41729 7.20382 2.45769L10.1414 2.87735C10.6341 2.94772 11 3.36965 11 3.8673V13.1327C11 13.6304 10.6341 14.0523 10.1414 14.1227L4 15H3V3ZM10 8.5C10 9.32843 9.77614 10 9.5 10C9.22386 10 9 9.32843 9 8.5C9 7.67157 9.22386 7 9.5 7C9.77614 7 10 7.67157 10 8.5Z" fill="#2D50E6"/>
</svg>
