<svg width="16" height="16" viewBox="0 0 16 16" fill="none" xmlns="http://www.w3.org/2000/svg">
<path fill-rule="evenodd" clip-rule="evenodd" d="M1 7C1 5.89543 1.89543 5 3 5H7.25V1.75C7.25 1.33579 7.58579 1 8 1C8.41421 1 8.75 1.33579 8.75 1.75V5L13 5C14.1046 5 15 5.89543 15 7V12C15 13.1046 14.1046 14 13 14H3C1.89543 14 1 13.1046 1 12L1 7ZM8.75 5V8.43934L9.96967 7.21967C10.2626 6.92678 10.7374 6.92678 11.0303 7.21967C11.3232 7.51256 11.3232 7.98744 11.0303 8.28033L8.53033 10.7803C8.23744 11.0732 7.76256 11.0732 7.46967 10.7803L4.96967 8.28033C4.67678 7.98744 4.67678 7.51256 4.96967 7.21967C5.26256 6.92678 5.73744 6.92678 6.03033 7.21967L7.25 8.43934L7.25 5H8.75Z" fill="#2D50E6"/>
</svg>
