<svg width="16" height="16" viewBox="0 0 16 16" fill="none" xmlns="http://www.w3.org/2000/svg">
<path fill-rule="evenodd" clip-rule="evenodd" d="M2.64611 3.32268C1.93439 3.41527 1.36645 3.92409 1.24882 4.6321C1.12421 5.38209 1 6.50473 1 8C1 9.49528 1.12421 10.6179 1.24882 11.3679C1.36645 12.0759 1.93439 12.5847 2.64611 12.6773C3.75133 12.8211 5.60731 13 8 13C10.3927 13 12.2487 12.8211 13.3539 12.6773C14.0656 12.5847 14.6336 12.0759 14.7512 11.3679C14.8758 10.6179 15 9.49527 15 8C15 6.50472 14.8758 5.38209 14.7512 4.6321C14.6336 3.92409 14.0656 3.41527 13.3539 3.32268C12.2487 3.17891 10.3927 3 8 3C5.60731 3 3.75133 3.17891 2.64611 3.32268ZM7.46424 5.3143C7.39369 5.13793 7.22929 5.01677 7.03994 5.0016C6.85058 4.98642 6.66899 5.07986 6.57125 5.24275L5.2169 7.5H3.5C3.22386 7.5 3 7.72386 3 8C3 8.27614 3.22386 8.5 3.5 8.5H5.5C5.67563 8.5 5.83838 8.40785 5.92875 8.25725L6.91013 6.62161L8.53576 10.6857C8.60631 10.8621 8.77071 10.9832 8.96006 10.9984C9.14942 11.0136 9.33101 10.9201 9.42875 10.7572L10.7831 8.5H12.5C12.7761 8.5 13 8.27614 13 8C13 7.72386 12.7761 7.5 12.5 7.5H10.5C10.3244 7.5 10.1616 7.59215 10.0713 7.74275L9.08987 9.37839L7.46424 5.3143Z" fill="#2D50E6"/>
</svg>
