<svg width="16" height="16" viewBox="0 0 16 16" fill="none" xmlns="http://www.w3.org/2000/svg">
<path d="M8.29289 6.29289L11.4393 3.14645L10.1464 1.85355C10.0034 1.71055 9.96067 1.4955 10.0381 1.30866C10.1155 1.12182 10.2978 1 10.5 1H14.5C14.7761 1 15 1.22386 15 1.5V5.5C15 5.70223 14.8782 5.88455 14.6913 5.96194C14.5045 6.03933 14.2894 5.99655 14.1464 5.85355L12.8536 4.56066L9.70711 7.70711C9.31658 8.09763 8.68342 8.09763 8.29289 7.70711C7.90237 7.31658 7.90237 6.68342 8.29289 6.29289Z" fill="#2D50E6"/>
<path d="M1 14.5C1 14.7761 1.22386 15 1.5 15H5.5C5.70223 15 5.88455 14.8782 5.96194 14.6913C6.03933 14.5045 5.99655 14.2894 5.85355 14.1464L4.56066 12.8536L7.70711 9.70711C8.09763 9.31658 8.09763 8.68342 7.70711 8.29289C7.31658 7.90237 6.68342 7.90237 6.29289 8.29289L3.14645 11.4393L1.85355 10.1464C1.71055 10.0034 1.4955 9.96067 1.30866 10.0381C1.12182 10.1155 1 10.2978 1 10.5V14.5Z" fill="#2D50E6"/>
</svg>
