<svg width="16" height="16" viewBox="0 0 16 16" fill="none" xmlns="http://www.w3.org/2000/svg">
<path d="M8.99999 8C8.99999 8.55228 8.55227 9 7.99999 9C7.4477 9 6.99999 8.55228 6.99999 8C6.99999 7.44772 7.4477 7 7.99999 7C8.55227 7 8.99999 7.44772 8.99999 8Z" fill="#2D50E6"/>
<path fill-rule="evenodd" clip-rule="evenodd" d="M7.99996 12.5C10.9976 12.5 13.7115 9.79443 14.7794 8.57906C15.0741 8.24369 15.0741 7.75631 14.7794 7.42094C13.7115 6.20557 10.9976 3.5 7.99996 3.5C5.00228 3.5 2.2884 6.20557 1.22052 7.42094C0.925843 7.75631 0.925843 8.24369 1.22052 8.57906C2.2884 9.79443 5.00228 12.5 7.99996 12.5ZM10.5 8C10.5 9.38071 9.3807 10.5 7.99999 10.5C6.61927 10.5 5.49999 9.38071 5.49999 8C5.49999 6.61929 6.61927 5.5 7.99999 5.5C9.3807 5.5 10.5 6.61929 10.5 8Z" fill="#2D50E6"/>
</svg>
