<svg width="16" height="16" viewBox="0 0 16 16" fill="none" xmlns="http://www.w3.org/2000/svg">
<path d="M8.99997 8C8.99997 8.55227 8.55227 8.99998 8 9C7.44772 9 7 8.55228 7 8C7 7.48224 7.39348 7.05639 7.89772 7.00516C7.93134 7.00175 7.96545 7 7.99997 7C8.55225 7 8.99997 7.44772 8.99997 8Z" fill="#2D50E6"/>
<path fill-rule="evenodd" clip-rule="evenodd" d="M8 4C6.4925 4 5.10067 4.59841 3.98551 5.26751C2.87138 5.93598 1.94409 6.73083 1.36241 7.22943L1.34921 7.24074C1.11891 7.43814 0.990656 7.7294 1.00053 8.03256C1.01041 8.33572 1.15735 8.61801 1.4 8.8C1.5496 8.9122 1.7226 9.04795 1.91477 9.19873C2.48956 9.64974 3.23583 10.2353 4.04035 10.7279C5.13333 11.397 6.48654 12 8 12C9.51346 12 10.8667 11.397 11.9597 10.7279C12.7642 10.2353 13.5104 9.64974 14.0852 9.19873C14.2774 9.04795 14.4504 8.9122 14.6 8.8C14.8427 8.61801 14.9896 8.33572 14.9995 8.03256C15.0093 7.7294 14.8811 7.43814 14.6508 7.24074C14.0578 6.7325 13.0993 5.9355 11.9648 5.26433C10.8453 4.60202 9.4524 4 8 4ZM11 8C11 9.65685 9.65685 11 8 11C6.34315 11 5 9.65685 5 8C5 6.34315 6.34315 5 8 5C9.65685 5 11 6.34315 11 8Z" fill="#2D50E6"/>
</svg>
