<svg width="16" height="16" viewBox="0 0 16 16" fill="none" xmlns="http://www.w3.org/2000/svg">
<path fill-rule="evenodd" clip-rule="evenodd" d="M5 3.54545C5 4.85568 5.47102 5.86616 6.41306 6.78262C6.15476 7.11883 6.0009 7.53947 6 7.99601C5.5826 7.73549 5.20139 7.34459 4.82018 6.9537C3.91963 6.03025 3.01907 5.10681 1.6413 5.90227C0.0982052 6.79318 0.450811 8.93118 1.43688 10.6391C2.42294 12.347 3.98798 13.785 5.6413 12.8305C6.77746 12.1745 7.41725 11.2598 7.7395 9.98319C7.82476 9.99428 7.91171 10 8 10C8.36082 10 8.69933 9.90444 8.9916 9.73726C8.97454 10.2288 8.82671 10.754 8.67887 11.2793C8.32943 12.5209 7.97998 13.7625 9.35775 14.558C10.9008 15.4489 12.5761 14.0745 13.5622 12.3666C14.5482 10.6587 15.0111 8.58434 13.3577 7.6298C12.2233 6.9748 11.1128 6.87739 9.84838 7.23478C9.68055 6.82984 9.38353 6.49199 9.00872 6.27264C9.44279 6.04184 9.9714 5.90728 10.5 5.77273C11.75 5.45455 13 5.13636 13 3.54545C13 1.76364 10.9721 1 9 1C7.02786 0.999997 5 1.63636 5 3.54545ZM8 9C8.55229 9 9 8.55229 9 8C9 7.44772 8.55229 7 8 7C7.44772 7 7 7.44772 7 8C7 8.55229 7.44772 9 8 9Z" fill="#2D50E6"/>
</svg>
