<svg width="16" height="16" viewBox="0 0 16 16" fill="none" xmlns="http://www.w3.org/2000/svg">
<path d="M4.91465 3C4.70873 3.5826 4.15311 4 3.5 4C2.67157 4 2 3.32843 2 2.5C2 1.67157 2.67157 1 3.5 1C4.15311 1 4.70873 1.4174 4.91465 2H6.08535C6.29127 1.4174 6.84689 1 7.5 1C8.15311 1 8.70873 1.4174 8.91465 2H10.0854C10.2913 1.4174 10.8469 1 11.5 1C12.3284 1 13 1.67157 13 2.5C13 3.32843 12.3284 4 11.5 4C10.8469 4 10.2913 3.5826 10.0854 3H8.91465C8.764 3.42621 8.42621 3.764 8 3.91465V5C8.55229 5 9 5.44772 9 6V6.33682C9.47427 6.56212 9.88983 6.89094 10.2175 7.29408C10.5398 7.69072 10.9889 8 11.5 8C13.433 8 15 9.567 15 11.5V12H15.5C15.7761 12 16 12.2239 16 12.5V13C16 13.5523 15.5523 14 15 14H12C11.4477 14 11 13.5523 11 13V12.5C11 12.2239 11.2239 12 11.5 12H12V11.5C12 11.2239 11.7761 11 11.5 11C10.9889 11 10.5398 11.3093 10.2175 11.7059C9.57573 12.4955 8.59678 13 7.5 13C6.55686 13 5.70086 12.627 5.07148 12.0204C4.51555 11.4846 3.8448 11 3.07271 11H2C2 11.5523 1.55228 12 1 12H0V7H1C1.55228 7 2 7.44772 2 8H3.07271C3.8448 8 4.51553 7.51544 5.07145 6.97965C5.34262 6.7183 5.65585 6.5003 6 6.33682V6C6 5.44772 6.44772 5 7 5V3.91465C6.57379 3.764 6.236 3.42621 6.08535 3H4.91465Z" fill="#2D50E6"/>
</svg>
