<svg width="16" height="16" viewBox="0 0 16 16" fill="none" xmlns="http://www.w3.org/2000/svg">
<path fill-rule="evenodd" clip-rule="evenodd" d="M2.47434 3.34189C2.40628 3.13772 2.21522 3 2 3C1.78478 3 1.59372 3.13772 1.52566 3.34189L1.02566 4.84189C1.00866 4.89287 1 4.94626 1 5V12.5C1 12.7761 1.22386 13 1.5 13H2.5C2.77614 13 3 12.7761 3 12.5V11H5V12.5C5 12.7761 5.22386 13 5.5 13H6.5C6.77614 13 7 12.7761 7 12.5V11H9V12.5C9 12.7761 9.22386 13 9.5 13H10.5C10.7761 13 11 12.7761 11 12.5V11H13V12.5C13 12.7761 13.2239 13 13.5 13H14.5C14.7761 13 15 12.7761 15 12.5V5C15 4.94626 14.9913 4.89287 14.9743 4.84189L14.4743 3.34189C14.4063 3.13772 14.2152 3 14 3C13.7848 3 13.5937 3.13772 13.5257 3.34189L13.0257 4.84189C13.0087 4.89287 13 4.94626 13 5V6H11V5C11 4.94626 10.9913 4.89287 10.9743 4.84189L10.4743 3.34189C10.4063 3.13772 10.2152 3 10 3C9.78478 3 9.59372 3.13772 9.52566 3.34189L9.02566 4.84189C9.00866 4.89287 9 4.94626 9 5V6H7V5C7 4.94626 6.99134 4.89287 6.97434 4.84189L6.47434 3.34189C6.40628 3.13772 6.21522 3 6 3C5.78478 3 5.59372 3.13772 5.52566 3.34189L5.02566 4.84189C5.00866 4.89287 5 4.94626 5 5V6H3V5C3 4.94626 2.99134 4.89287 2.97434 4.84189L2.47434 3.34189ZM13 10V7H11V10H13ZM9 10V7H7V10H9ZM5 10V7H3V10H5Z" fill="#2D50E6"/>
</svg>
