<svg width="16" height="16" viewBox="0 0 16 16" fill="none" xmlns="http://www.w3.org/2000/svg">
<path d="M8.6256 1C8.6256 1 7.26813 3.36671 10.3415 5.36855C10.4889 5.46451 10.6304 5.5631 10.766 5.66442C12.1126 6.57683 13 8.13663 13 9.90755C13 12.72 10.7618 15 8.00073 15C6.08231 15 4.41628 13.8993 3.57807 12.284H3.57597C3.2523 11.6809 3.00147 10.4986 3.00147 9.90755C3.00147 9.89306 3.00145 9.87769 3.00142 9.86148C3.00048 9.21659 2.91417 7.49601 4.2512 6.0925C4.21732 7.41999 4.56366 8.00219 5.50103 8.63875C4.76969 5.38236 5.63982 2.6881 8.6256 1Z" fill="#2D50E6"/>
</svg>
