<svg width="16" height="16" viewBox="0 0 16 16" fill="none" xmlns="http://www.w3.org/2000/svg">
<g clip-path="url(#clip0_1430_337)">
<path d="M12.7236 0.0527739C12.9706 0.176268 13.0707 0.476605 12.9472 0.723594L11.9472 2.72359C11.8237 2.97058 11.5234 3.0707 11.2764 2.9472C11.0294 2.82371 10.9293 2.52337 11.0528 2.27638L12.0528 0.276381C12.1763 0.0293914 12.4766 -0.0707208 12.7236 0.0527739Z" fill="#2D50E6"/>
<path d="M14.8536 1.14643C15.0488 1.3417 15.0488 1.65828 14.8536 1.85354L12.8536 3.85354C12.6583 4.0488 12.3417 4.0488 12.1464 3.85354C11.9512 3.65828 11.9512 3.3417 12.1464 3.14643L14.1464 1.14643C14.3417 0.951172 14.6583 0.951172 14.8536 1.14643Z" fill="#2D50E6"/>
<path d="M15.9472 3.27638C16.0707 3.52337 15.9706 3.82371 15.7236 3.9472L13.7236 4.9472C13.4766 5.0707 13.1763 4.97058 13.0528 4.72359C12.9293 4.4766 13.0294 4.17627 13.2764 4.05277L15.2764 3.05277C15.5234 2.92928 15.8237 3.02939 15.9472 3.27638Z" fill="#2D50E6"/>
<path fill-rule="evenodd" clip-rule="evenodd" d="M12 7.49999C12 9.43298 10.433 11 8.5 11C8.46692 11 8.43395 10.9995 8.40109 10.9986C8.0744 10.9896 7.74498 11.0834 7.51389 11.3145L3.41421 15.4142C2.63316 16.1952 1.36683 16.1952 0.585786 15.4142C-0.195262 14.6332 -0.195262 13.3668 0.585786 12.5858L4.68546 8.4861C4.91656 8.255 5.01044 7.92559 5.00137 7.5989C5.00046 7.56604 5 7.53307 5 7.49999C5 5.56699 6.567 3.99999 8.5 3.99999C10.433 3.99999 12 5.56699 12 7.49999ZM5.85355 10.8535C6.04882 10.6583 6.04882 10.3417 5.85355 10.1464C5.65829 9.95117 5.34171 9.95117 5.14645 10.1464L4.14645 11.1464C3.95118 11.3417 3.95118 11.6583 4.14645 11.8535C4.34171 12.0488 4.65829 12.0488 4.85355 11.8535L5.85355 10.8535ZM10.332 5.66803C11.0212 6.35725 11.2074 7.28845 10.7479 7.74793C10.2885 8.20741 9.35726 8.02117 8.66804 7.33195C7.97882 6.64273 7.79258 5.71152 8.25206 5.25204C8.71154 4.79256 9.64274 4.97881 10.332 5.66803Z" fill="#2D50E6"/>
</g>
<defs>
<clipPath id="clip0_1430_337">
<rect width="16" height="16" fill="white"/>
</clipPath>
</defs>
</svg>
