<svg width="16" height="16" viewBox="0 0 16 16" fill="none" xmlns="http://www.w3.org/2000/svg">
<path fill-rule="evenodd" clip-rule="evenodd" d="M4 2C2.89543 2 2 2.89543 2 4V12C2 13.1046 2.89543 14 4 14H12C13.1046 14 14 13.1046 14 12V4L12 2C11.4477 2 11 2.44772 11 3V5C11 5.55228 10.5523 6 10 6H6C5.44772 6 5 5.55228 5 5V3C5 2.44772 4.55228 2 4 2ZM8 13C9.65685 13 11 11.6569 11 10C11 8.34315 9.65685 7 8 7C6.34315 7 5 8.34315 5 10C5 11.6569 6.34315 13 8 13Z" fill="#2D50E6"/>
<path d="M9 2.5C9 2.22386 9.22386 2 9.5 2C9.77614 2 10 2.22386 10 2.5V4.5C10 4.77614 9.77614 5 9.5 5C9.22386 5 9 4.77614 9 4.5V2.5Z" fill="#2D50E6"/>
</svg>
