<svg width="16" height="16" viewBox="0 0 16 16" fill="none" xmlns="http://www.w3.org/2000/svg">
<path fill-rule="evenodd" clip-rule="evenodd" d="M5.9 3.1C5.9 1.9402 6.8402 1 8 1C9.1598 1 10.1 1.9402 10.1 3.1V3.19949L10.1146 3.18492C10.9347 2.36482 12.2643 2.36482 13.0844 3.18492C13.8344 3.93486 13.8985 5.11088 13.2769 5.93373C14.2568 6.11131 15 6.96887 15 8C15 9.1598 14.0598 10.1 12.9 10.1H12.8955C13.6342 10.9245 13.6074 12.1926 12.8151 12.9849C12.0694 13.7306 10.9025 13.7983 10.0804 13.188C9.94004 14.2115 9.0621 15 8 15C6.96887 15 6.11131 14.2568 5.93373 13.2769C5.11088 13.8985 3.93486 13.8344 3.18492 13.0844C2.36482 12.2643 2.36482 10.9347 3.18492 10.1146L3.1995 10.1H3.1C1.9402 10.1 1 9.1598 1 8C1 6.94436 1.77891 6.07065 2.79335 5.92223C2.09774 5.09715 2.13848 3.86253 2.91558 3.08543C3.73568 2.26533 5.06533 2.26533 5.88543 3.08543L5.9 3.1ZM8 10.8C9.5464 10.8 10.8 9.5464 10.8 8C10.8 6.4536 9.5464 5.2 8 5.2C6.4536 5.2 5.2 6.4536 5.2 8C5.2 9.5464 6.4536 10.8 8 10.8Z" fill="#2D50E6"/>
</svg>
