<svg width="16" height="16" viewBox="0 0 16 16" fill="none" xmlns="http://www.w3.org/2000/svg">
<path d="M6.58579 3C6.851 3 7.10536 3.10536 7.29289 3.29289L7.70711 3.70711C7.89464 3.89464 8.149 4 8.41421 4H12C12.5523 4 13 4.44772 13 5H4C3.44772 5 3 5.44772 3 6V12C3 12.5523 2.55228 13 2 13C1.44772 13 1 12.5523 1 12V4C1 3.44772 1.44772 3 2 3H6.58579Z" fill="#2D50E6"/>
<path d="M4 6.5C4 6.22386 4.22386 6 4.5 6H14.5C14.7761 6 15 6.22386 15 6.5V12C15 12.5523 14.5523 13 14 13H3.73242C3.90259 12.7058 4 12.3643 4 12V6.5Z" fill="#2D50E6"/>
</svg>
