<svg width="16" height="16" viewBox="0 0 16 16" fill="none" xmlns="http://www.w3.org/2000/svg">
<path d="M3 9.96C3 7.79571 4.06433 6.34097 5.05895 4.98151C5.93129 3.78919 6.5 2.46016 6.5 1C8.54811 2.33127 12.8597 6.08738 12.9965 9.7699C12.9988 9.83323 13 9.8966 13 9.96C13 12.0591 11.7064 13.8561 9.87297 14.5974C12.5556 11.2622 11.1108 7.50771 9 6C9.3125 9.125 8 10.2725 7.375 10.8975C7.375 10.2725 7.25 9.25 6.5 8.5C6 10 5 10.5 5 12C5 13.0565 5.41073 13.9033 6.04586 14.5637C4.2555 13.8028 3 12.028 3 9.96Z" fill="#2D50E6"/>
</svg>
