<svg width="16" height="16" viewBox="0 0 16 16" fill="none" xmlns="http://www.w3.org/2000/svg">
<path fill-rule="evenodd" clip-rule="evenodd" d="M10 0.75C10 0.335786 10.3358 0 10.75 0H14.25C14.6642 0 15 0.335786 15 0.75V4.25C15 4.66421 14.6642 5 14.25 5C13.8358 5 13.5 4.66421 13.5 4.25V2.56066L11.3089 4.75178C11.745 5.39249 12 6.16647 12 7C12 8.95391 10.599 10.5806 8.74681 10.9304C8.74892 10.9533 8.75 10.9765 8.75 11V12.25H10.25C10.6642 12.25 11 12.5858 11 13C11 13.4142 10.6642 13.75 10.25 13.75H8.75V15.25C8.75 15.6642 8.41421 16 8 16C7.58579 16 7.25 15.6642 7.25 15.25V13.75H5.75C5.33579 13.75 5 13.4142 5 13C5 12.5858 5.33579 12.25 5.75 12.25H7.25V11C7.25 10.9765 7.25108 10.9533 7.25319 10.9304C5.40096 10.5806 4 8.95391 4 7C4 4.79086 5.79086 3 8 3C8.83353 3 9.60751 3.25495 10.2482 3.69112L12.4393 1.5H10.75C10.3358 1.5 10 1.16421 10 0.75ZM10.5 7C10.5 8.38071 9.38071 9.5 8 9.5C6.61929 9.5 5.5 8.38071 5.5 7C5.5 5.61929 6.61929 4.5 8 4.5C9.38071 4.5 10.5 5.61929 10.5 7Z" fill="#2D50E6"/>
</svg>
