<svg width="16" height="16" viewBox="0 0 16 16" fill="none" xmlns="http://www.w3.org/2000/svg">
<circle cx="8" cy="8" r="7" fill="white"/>
<path d="M13.6586 6H2.34143C3.1651 3.66962 5.38758 2 8.00002 2C10.6125 2 12.8349 3.66962 13.6586 6Z" fill="#2C2302"/>
<path d="M13.6586 10C12.8349 12.3304 10.6125 14 8.00002 14C5.38758 14 3.1651 12.3304 2.34143 10H13.6586Z" fill="#E9B857"/>
<path d="M13.6586 10C13.8797 9.37444 14 8.70127 14 8C14 7.29873 13.8797 6.62556 13.6586 6H2.34141C2.12031 6.62556 2 7.29873 2 8C2 8.70127 2.12031 9.37444 2.34141 10H13.6586Z" fill="#D95762"/>
</svg>
