<svg width="16" height="16" viewBox="0 0 16 16" fill="none" xmlns="http://www.w3.org/2000/svg">
<path d="M12 4C12.5523 4 13 3.55228 13 3C13.5523 3 14 2.55228 14 2C14 1.44772 13.5523 1 13 1C13 0.447715 12.5523 0 12 0C11.4264 0 10.9883 0.451456 10.5457 0.90749C10.2454 1.21692 9.94307 1.52847 9.59498 1.70251L9 2L9.59498 2.29749C9.94307 2.47153 10.2454 2.78308 10.5457 3.09251C10.9883 3.54854 11.4264 4 12 4Z" fill="#2D50E6"/>
<path d="M6.5 1C6.22386 1 6 1.22386 6 1.5V3H5.5C4.94772 3 4.5 3.44772 4.5 4C4.22386 4 4 4.22386 4 4.5V14C4 14.5523 4.44772 15 5 15H8C8.55228 15 9 14.5523 9 14V4.5C9 4.22386 8.77614 4 8.5 4C8.5 3.44772 8.05228 3 7.5 3H7V1.5C7 1.22386 6.77614 1 6.5 1Z" fill="#2D50E6"/>
</svg>
