<svg width="16" height="16" viewBox="0 0 16 16" fill="none" xmlns="http://www.w3.org/2000/svg">
<path d="M4.5 8C5.88071 8 7 6.65686 7 5C7 3.34314 5.88071 2 4.5 2C3.11929 2 2 3.34314 2 5C2 6.65686 3.11929 8 4.5 8Z" fill="#2D50E6"/>
<path d="M6.57626 10.759C6.8691 10.2279 6.79485 9.51496 6.22593 9.30477C5.69444 9.1084 5.11146 9 4.5 9C2.01472 9 0 10.7909 0 13C0 13.5523 0.447708 14 1 14H5.22038C5.68558 14 6 13.4652 6 13C6 12.1823 6.20929 11.4246 6.57626 10.759Z" fill="#2D50E6"/>
<path d="M7 13C7 12.0474 7.3746 11.1726 8 10.4856C8.82498 9.57941 10.0864 9 11.5 9C13.9853 9 16 10.7909 16 13C16 13.5523 15.5523 14 15 14H8C7.44771 14 7 13.5523 7 13Z" fill="#2D50E6"/>
<path d="M14 5C14 6.65686 12.8807 8 11.5 8C10.1193 8 9 6.65686 9 5C9 3.34314 10.1193 2 11.5 2C12.8807 2 14 3.34314 14 5Z" fill="#2D50E6"/>
</svg>
