<svg width="16" height="16" viewBox="0 0 16 16" fill="none" xmlns="http://www.w3.org/2000/svg">
<rect opacity="0.5" x="4" y="2" width="8" height="8" fill="#2D50E6"/>
<path fill-rule="evenodd" clip-rule="evenodd" d="M3 2C3 1.44772 3.44772 1 4 1H12C12.5523 1 13 1.44772 13 2V15H3V2ZM5.5 3C5.22386 3 5 3.22386 5 3.5V4.5C5 4.77614 5.22386 5 5.5 5H6.5C6.77614 5 7 4.77614 7 4.5V3.5C7 3.22386 6.77614 3 6.5 3H5.5ZM9 3.5C9 3.22386 9.22386 3 9.5 3H10.5C10.7761 3 11 3.22386 11 3.5V4.5C11 4.77614 10.7761 5 10.5 5H9.5C9.22386 5 9 4.77614 9 4.5V3.5ZM5.5 7C5.22386 7 5 7.22386 5 7.5V8.5C5 8.77614 5.22386 9 5.5 9H6.5C6.77614 9 7 8.77614 7 8.5V7.5C7 7.22386 6.77614 7 6.5 7H5.5ZM9 7.5C9 7.22386 9.22386 7 9.5 7H10.5C10.7761 7 11 7.22386 11 7.5V8.5C11 8.77614 10.7761 9 10.5 9H9.5C9.22386 9 9 8.77614 9 8.5V7.5ZM5 11.5C5 11.2239 5.22386 11 5.5 11H6.5C6.77614 11 7 11.2239 7 11.5V12.5C7 12.7761 6.77614 13 6.5 13H5.5C5.22386 13 5 12.7761 5 12.5V11.5ZM9.5 11C9.22386 11 9 11.2239 9 11.5V12.5C9 12.7761 9.22386 13 9.5 13H10.5C10.7761 13 11 12.7761 11 12.5V11.5C11 11.2239 10.7761 11 10.5 11H9.5Z" fill="#2D50E6"/>
</svg>
