<svg width="16" height="16" viewBox="0 0 16 16" fill="none" xmlns="http://www.w3.org/2000/svg">
<path d="M5 8C6.10457 8 7 6.88071 7 5.5C7 4.11929 6.10457 3 5 3C3.89543 3 3 4.11929 3 5.5C3 6.88071 3.89543 8 5 8Z" fill="#2D50E6"/>
<path d="M11 8C12.1046 8 13 6.88071 13 5.5C13 4.11929 12.1046 3 11 3C9.89543 3 9 4.11929 9 5.5C9 6.88071 9.89543 8 11 8Z" fill="#2D50E6"/>
<path d="M11 9C8.79086 9 7 10.3431 7 12C7 12.5523 7.44772 13 8 13H14C14.5523 13 15 12.5523 15 12C15 10.3431 13.2091 9 11 9Z" fill="#2D50E6"/>
<path d="M6 9.09451C6.56682 9.20393 6.69946 9.9025 6.4108 10.4024C6.39696 10.4264 6.38423 10.4496 6.37279 10.472C6.13703 10.9322 6 11.4462 6 12C6 12.494 5.72137 13 5.22741 13H2C1.44772 13 1 12.5523 1 12C1 10.3431 2.79086 9 5 9C5.3453 9 5.68038 9.03281 6 9.09451Z" fill="#2D50E6"/>
</svg>
