<svg width="16" height="16" viewBox="0 0 16 16" fill="none" xmlns="http://www.w3.org/2000/svg">
<path d="M3.13575 3.94619C3.96126 3.03445 4.84952 2.0534 5.94076 1.489C7.16742 0.854561 8.62161 0.755149 10.485 1.6865C10.6222 1.75506 10.6935 1.90666 10.6574 2.05318C10.6214 2.1997 10.4874 2.30297 10.3333 2.30296C9.73428 2.30295 8.87263 2.30584 8.12468 2.56821C7.75602 2.69754 7.42935 2.88548 7.17862 3.15586C6.93051 3.42341 6.74181 3.78758 6.67117 4.29612C6.61346 4.7115 6.79815 5.13641 7.12627 5.49764L15.8935 13.4785C15.9598 13.5387 15.9983 13.6228 15.9999 13.7114C16.0016 13.7999 15.9664 13.8853 15.9024 13.948L13.9024 15.9045C13.8383 15.9671 13.751 16.0016 13.6605 15.9999C13.57 15.9983 13.484 15.9607 13.4224 15.8958L5.15136 7.1808C4.96214 6.98142 4.69661 6.86814 4.41851 6.86814H4.33333C4.14924 6.86814 4 7.01413 4 7.19422V7.30612C4 7.73854 3.82441 8.15324 3.51184 8.45901L2.56904 9.38132C2.43886 9.50867 2.22781 9.50867 2.09763 9.38132L0.0976305 7.4248C0.0351181 7.36365 0 7.28071 0 7.19422C0 7.10774 0.035121 7.0248 0.0976334 6.96364L1.23572 5.85032C1.42325 5.66687 1.6776 5.56381 1.9428 5.56381L2.33335 5.5638C2.51744 5.5638 2.66667 5.41781 2.66668 5.23772L2.66668 4.83582C2.66669 4.59394 2.75832 4.36165 2.92166 4.18222C2.99125 4.10578 3.06166 4.02802 3.13209 3.95023L3.13575 3.94619Z" fill="#2D50E6"/>
</svg>
