<svg width="16" height="16" viewBox="0 0 16 16" fill="none" xmlns="http://www.w3.org/2000/svg">
<path fill-rule="evenodd" clip-rule="evenodd" d="M7.24254 1.02985C7.77833 1.1638 8.10409 1.70673 7.97014 2.24253L7.40578 4.49999H10.3442L11.0299 1.75746C11.1638 1.22166 11.7067 0.895901 12.2425 1.02985C12.7783 1.1638 13.1041 1.70673 12.9701 2.24253L12.4058 4.49999H14C14.5523 4.49999 15 4.94771 15 5.49999C15 6.05228 14.5523 6.49999 14 6.49999H11.9058L11.1558 9.49999H12.5C13.0523 9.49999 13.5 9.94771 13.5 10.5C13.5 11.0523 13.0523 11.5 12.5 11.5H10.6558L9.97014 14.2425C9.83619 14.7783 9.29326 15.1041 8.75746 14.9701C8.22167 14.8362 7.89591 14.2933 8.02986 13.7575L8.59422 11.5H5.65578L4.97014 14.2425C4.83619 14.7783 4.29326 15.1041 3.75746 14.9701C3.22167 14.8362 2.89591 14.2933 3.02986 13.7575L3.59422 11.5H2C1.44772 11.5 1 11.0523 1 10.5C1 9.94771 1.44772 9.49999 2 9.49999H4.09422L4.84422 6.49999H3.5C2.94772 6.49999 2.5 6.05228 2.5 5.49999C2.5 4.94771 2.94772 4.49999 3.5 4.49999H5.34422L6.02986 1.75746C6.16381 1.22166 6.70674 0.895901 7.24254 1.02985ZM6.90578 6.49999L6.15578 9.49999H9.09422L9.84422 6.49999H6.90578Z" fill="#2D50E6"/>
</svg>
