<svg width="16" height="16" viewBox="0 0 16 16" fill="none" xmlns="http://www.w3.org/2000/svg">
<path d="M8.5 0.5C8.5 0.223858 8.27614 0 8 0C7.72386 0 7.5 0.223858 7.5 0.5V15.5C7.5 15.7761 7.72386 16 8 16C8.27614 16 8.5 15.7761 8.5 15.5V0.5Z" fill="#2D50E6"/>
<path d="M9.5 15H13V2C13 1.44772 12.5523 1 12 1H9.5V3H10.5C10.7761 3 11 3.22386 11 3.5V4.5C11 4.77614 10.7761 5 10.5 5H9.5V7H10.5C10.7761 7 11 7.22386 11 7.5V8.5C11 8.77614 10.7761 9 10.5 9H9.5V15Z" fill="#2D50E6"/>
<path d="M6.5 3.90971L1.21124 8.09579C0.814328 8.37796 1.01396 9.0033 1.50095 9.0033H2C2.55228 9.0033 3 9.45102 3 10.0033V15.0033H6.5V3.90971Z" fill="#2D50E6"/>
</svg>
