<svg width="16" height="16" viewBox="0 0 16 16" fill="none" xmlns="http://www.w3.org/2000/svg">
<path fill-rule="evenodd" clip-rule="evenodd" d="M7.41564 1.18155L1.21124 6.09237C0.814328 6.37454 1.01396 6.99989 1.50095 6.99989H2C2.55228 6.99989 3 7.4476 3 7.99989V12.9999H13V7.99989C13 7.4476 13.4477 6.99989 14 6.99989H14.4969C14.984 6.99989 15.1835 6.37423 14.7863 6.0922L8.574 1.18121C8.22712 0.934914 7.76238 0.93505 7.41564 1.18155ZM8 6.1005C7.19933 5.29983 5.90118 5.29983 5.1005 6.1005C4.29983 6.90118 4.29983 8.19933 5.1005 9L7.66062 11.3663C7.85222 11.5434 8.14778 11.5434 8.33938 11.3663L10.8995 9C11.7002 8.19933 11.7002 6.90118 10.8995 6.1005C10.0988 5.29983 8.80067 5.29983 8 6.1005Z" fill="#2D50E6"/>
</svg>
