<svg width="16" height="16" viewBox="0 0 16 16" fill="none" xmlns="http://www.w3.org/2000/svg">
<path d="M5 12.5C5 12.7761 4.77614 13 4.5 13C4.22386 13 4 12.7761 4 12.5C4 12.2239 4.22386 12 4.5 12C4.77614 12 5 12.2239 5 12.5Z" fill="#2D50E6"/>
<path fill-rule="evenodd" clip-rule="evenodd" d="M2 2C2 1.44772 2.44772 1 3 1H6C6.55228 1 7 1.44772 7 2V14C7 14.5523 6.55228 15 6 15H3C2.44772 15 2 14.5523 2 14V2ZM6 12.5C6 13.3284 5.32843 14 4.5 14C3.67157 14 3 13.3284 3 12.5C3 11.6716 3.67157 11 4.5 11C5.32843 11 6 11.6716 6 12.5ZM4.5 4C4.77614 4 5 3.77614 5 3.5C5 3.22386 4.77614 3 4.5 3C4.22386 3 4 3.22386 4 3.5C4 3.77614 4.22386 4 4.5 4ZM5.5 6C5.5 6.55228 5.05228 7 4.5 7C3.94772 7 3.5 6.55228 3.5 6C3.5 5.44772 3.94772 5 4.5 5C5.05228 5 5.5 5.44772 5.5 6ZM4.5 10C5.05228 10 5.5 9.55229 5.5 9C5.5 8.44771 5.05228 8 4.5 8C3.94772 8 3.5 8.44771 3.5 9C3.5 9.55229 3.94772 10 4.5 10Z" fill="#2D50E6"/>
<path d="M13 11C13 11.5523 12.5523 12 12 12C11.4477 12 11 11.5523 11 11C11 10.4477 11.4477 10 12 10C12.5523 10 13 10.4477 13 11Z" fill="#2D50E6"/>
<path fill-rule="evenodd" clip-rule="evenodd" d="M9 8C8.44771 8 8 8.44772 8 9V13C8 13.5523 8.44771 14 9 14V14.2929C9 14.6834 9.31658 15 9.70711 15C9.89464 15 10.0745 14.9255 10.2071 14.7929L11 14H13L13.7929 14.7929C13.9255 14.9255 14.1054 15 14.2929 15C14.6834 15 15 14.6834 15 14.2929V14C15.5523 14 16 13.5523 16 13V9C16 8.44772 15.5523 8 15 8H9ZM14 11C14 12.1046 13.1046 13 12 13C10.8954 13 10 12.1046 10 11C10 9.89543 10.8954 9 12 9C13.1046 9 14 9.89543 14 11ZM10 9.5C10 9.77614 9.77614 10 9.5 10C9.22386 10 9 9.77614 9 9.5C9 9.22386 9.22386 9 9.5 9C9.77614 9 10 9.22386 10 9.5Z" fill="#2D50E6"/>
</svg>
