<svg width="16" height="16" viewBox="0 0 16 16" fill="none" xmlns="http://www.w3.org/2000/svg">
<path d="M8 0C8.27614 0 8.5 0.223858 8.5 0.5V15.5C8.5 15.7761 8.27614 16 8 16C7.72386 16 7.5 15.7761 7.5 15.5V0.5C7.5 0.223858 7.72386 0 8 0Z" fill="#2D50E6"/>
<path fill-rule="evenodd" clip-rule="evenodd" d="M9.5 11H11.5C11.7761 11 12 11.2239 12 11.5V15H15V2C15 1.44772 14.5523 1 14 1H9.5V11ZM11 3.5C11 3.22386 11.2239 3 11.5 3H12.5C12.7761 3 13 3.22386 13 3.5V4.5C13 4.77614 12.7761 5 12.5 5H11.5C11.2239 5 11 4.77614 11 4.5V3.5ZM11 7.5C11 7.22386 11.2239 7 11.5 7H12.5C12.7761 7 13 7.22386 13 7.5V8.5C13 8.77614 12.7761 9 12.5 9H11.5C11.2239 9 11 8.77614 11 8.5V7.5Z" fill="#2D50E6"/>
<path d="M1.21124 8.09249L6.5 3.9064V15H3V10C3 9.44771 2.55228 9 2 9H1.50095C1.01396 9 0.814328 8.37466 1.21124 8.09249Z" fill="#2D50E6"/>
</svg>
