<svg width="16" height="16" viewBox="0 0 16 16" fill="none" xmlns="http://www.w3.org/2000/svg">
<path d="M1.21124 6.09249L7.41564 1.18167C7.76238 0.935172 8.22712 0.935036 8.574 1.18134L14.7863 6.09232C15.1835 6.37435 14.984 7.00001 14.4969 7.00001H14C13.4477 7.00001 13 7.44772 13 8.00001V13H9.5V9.00001C9.5 8.44772 9.05228 8.00001 8.5 8.00001L7.5 8.00001C6.94772 8.00001 6.5 8.44772 6.5 9.00001V13H3V8.00001C3 7.44772 2.55228 7.00001 2 7.00001H1.50095C1.01396 7.00001 0.814328 6.37467 1.21124 6.09249Z" fill="#2D50E6"/>
</svg>
