<svg width="16" height="16" viewBox="0 0 16 16" fill="none" xmlns="http://www.w3.org/2000/svg">
<path d="M13.8932 7.80891C14.0115 7.6584 14.0334 7.45359 13.9497 7.28143C13.8661 7.10928 13.6915 7 13.5 7H10.9836C10.9057 5.83431 10.5543 4.87142 10.0135 4.08535C9.40028 3.19397 8.56191 2.5565 7.66247 2.10345C5.87544 1.20331 3.78611 1 2.50005 1C2.25482 1 2.04578 1.17785 2.0065 1.41991C1.96722 1.66197 2.10929 1.89679 2.34193 1.97434C3.06851 2.21653 4.83224 3.5483 4.98888 7H2.50004C2.30863 7 2.13402 7.10928 2.05034 7.28143C1.96667 7.45359 1.98862 7.6584 2.10688 7.80891L7.60688 14.8089C7.70167 14.9296 7.84661 15 8.00004 15C8.15347 15 8.29841 14.9296 8.3932 14.8089L13.8932 7.80891Z" fill="#2D50E6"/>
</svg>
