<svg width="16" height="16" viewBox="0 0 16 16" fill="none" xmlns="http://www.w3.org/2000/svg">
<path d="M9 5C9 5.55228 8.55225 6 8 6C7.44775 6 7 5.55228 7 5C7 4.44772 7.44775 4 8 4C8.55225 4 9 4.44772 9 5Z" fill="#2D50E6"/>
<path d="M8 7C7.58569 7 7.25 7.33578 7.25 7.75V11.25C7.25 11.6642 7.58569 12 8 12C8.41431 12 8.75 11.6642 8.75 11.25V7.75C8.75 7.33578 8.41431 7 8 7Z" fill="#2D50E6"/>
<path fill-rule="evenodd" clip-rule="evenodd" d="M8 15C11.866 15 15 11.866 15 8C15 4.134 11.866 1 8 1C4.13403 1 1 4.134 1 8C1 11.866 4.13403 15 8 15ZM8 13.5C11.0376 13.5 13.5 11.0376 13.5 8C13.5 4.96243 11.0376 2.5 8 2.5C4.9624 2.5 2.5 4.96243 2.5 8C2.5 11.0376 4.9624 13.5 8 13.5Z" fill="#2D50E6"/>
</svg>
