<svg width="16" height="16" viewBox="0 0 16 16" fill="none" xmlns="http://www.w3.org/2000/svg">
<path d="M6.96155 2C6.68541 2 6.46156 2.22385 6.46155 2.49999L6.46154 3.33332C6.46154 3.60946 6.6854 3.83332 6.96154 3.83332H8.30767L5.84615 11.1666H4.50001C4.22386 11.1666 4 11.3905 4.00001 11.6666L4.00001 12.5C4.00002 12.7761 4.22387 13 4.50001 13H9.03846C9.3146 13 9.53846 12.7761 9.53846 12.5V11.6666C9.53846 11.3905 9.3146 11.1666 9.03846 11.1666H7.69231L10.1538 3.83332H11.5C11.7761 3.83332 12 3.60947 12 3.33333L12 2.50001C12 2.22386 11.7761 2 11.5 2H6.96155Z" fill="#2D50E6"/>
</svg>
