<svg width="16" height="16" viewBox="0 0 16 16" fill="none" xmlns="http://www.w3.org/2000/svg">
<path d="M8 9C9.65686 9 11 6.65674 11 5C11 3.34326 9.65686 2 8 2C6.34314 2 5 3.34326 5 5C5 6.65674 6.34314 9 8 9Z" fill="#2D50E6"/>
<path d="M13 13C13 11.3433 10.7615 10 8 10C5.23853 10 3 11.3433 3 13C3 13.5522 3.44775 14 4 14H12C12.5522 14 13 13.5522 13 13Z" fill="#2D50E6"/>
<path d="M11.5973 6.95703C11.4215 7.40088 11.5227 8 12 8C13.1046 8 14 6.10449 14 5C14 3.89551 13.1046 3 12 3C11.9015 3 11.8228 3.04199 11.7687 3.10693C11.7202 3.16504 11.6915 3.2417 11.6859 3.32373C11.684 3.35205 11.6848 3.38086 11.6885 3.40967C11.6931 3.4458 11.7025 3.48291 11.7168 3.51855C11.8995 3.97705 12 4.47656 12 5C12 5.6333 11.8521 6.31348 11.5973 6.95703Z" fill="#2D50E6"/>
<path d="M13.828 12.02C14.0159 12.5391 14.4478 13 15 13C15.5522 13 16 12.5522 16 12C16 10.3433 14.2092 9 12 9C11.4652 9 11.4377 9.6748 11.9043 9.93652C11.9535 9.96387 12.0021 9.99219 12.05 10.021C12.834 10.4917 13.5204 11.1694 13.828 12.02Z" fill="#2D50E6"/>
<path d="M4 3C4.25537 3 4.37793 3.28174 4.2832 3.51855C4.18567 3.76318 4.11157 4.01953 4.06372 4.28516C4.04358 4.39697 4.02808 4.50977 4.01733 4.62451C4.00586 4.74805 4 4.87354 4 5C4 5.6333 4.14795 6.31348 4.40271 6.95703C4.57849 7.40088 4.47729 8 4 8C2.89539 8 2 6.10449 2 5C2 3.89551 2.89539 3 4 3Z" fill="#2D50E6"/>
<path d="M4 9C4.53479 9 4.56226 9.6748 4.0957 9.93652L4.03149 9.97314L3.94995 10.021C3.16602 10.4917 2.47961 11.1694 2.172 12.02C1.98413 12.5391 1.55225 13 1 13C0.447754 13 0 12.5522 0 12C0 10.3433 1.79077 9 4 9Z" fill="#2D50E6"/>
</svg>
