<svg width="16" height="16" viewBox="0 0 16 16" fill="none" xmlns="http://www.w3.org/2000/svg">
<path d="M1.15201 1.14128C1.24918 1.04689 1.38037 0.996009 1.51562 1.00024C4.17972 1.08368 6.39584 1.45542 8.21023 2.0527C8.45523 2.13336 8.65466 2.31225 8.76999 2.54341L10 5.00891L10.6359 3.7342C10.7661 3.47323 11.0912 3.37752 11.333 3.54008C12.3175 4.20207 13.0881 4.96988 13.6653 5.81604C15.0538 7.85187 15.2621 10.2522 14.7218 12.5316C14.6179 12.9702 14.01 13.0188 13.7731 12.6356C12.8527 11.1468 11.0331 8.78386 8.5 7.51449C10.7858 10.1873 11.9391 13.1899 12.3368 14.4454C12.4322 14.7466 12.206 15.0201 11.8914 14.9988C10.0273 14.8731 8.4074 14.5122 7.02895 13.9112C6.71847 13.7759 6.65529 13.3722 6.89471 13.1323L7.5 12.5256H5.1283C4.89344 12.5256 4.66453 12.4445 4.49114 12.2857C4.30061 12.1113 4.11791 11.928 3.94302 11.7358C2.39448 10.0336 1.51192 7.68616 1.16846 4.69189C1.1304 4.36009 1.42858 4.09259 1.75535 4.15809L3.5 4.5078L1.37584 2.80468C1.14705 2.62125 1.00917 2.3465 1.00441 2.0529C1.00146 1.87088 1 1.68695 1 1.50111C1 1.3655 1.05485 1.23567 1.15201 1.14128Z" fill="#2D50E6"/>
</svg>
