<svg width="16" height="16" viewBox="0 0 16 16" fill="none" xmlns="http://www.w3.org/2000/svg">
<path d="M1.16033 5.2441C0.946557 5.15213 0.946556 4.84788 1.16033 4.7559L7.16635 2.17178C7.6987 1.94274 8.3013 1.94274 8.83365 2.17178L14.8397 4.7559C15.0534 4.84788 15.0534 5.15212 14.8397 5.2441L8.83365 7.82822C8.3013 8.05726 7.6987 8.05726 7.16635 7.82822L1.16033 5.2441Z" fill="#2D50E6"/>
<path d="M13.1858 10.0443L14.8397 10.7559C15.0534 10.8479 15.0534 11.1521 14.8397 11.2441L8.83365 13.8282C8.3013 14.0573 7.6987 14.0573 7.16635 13.8282L1.16033 11.2441C0.946557 11.1521 0.946556 10.8479 1.16033 10.7559L2.8142 10.0443L6.77113 11.7468C7.55578 12.0844 8.44422 12.0844 9.22887 11.7468L13.1858 10.0443Z" fill="#2D50E6"/>
<path d="M14.8397 7.7559L13.1858 7.04432L9.22887 8.7468C8.44422 9.0844 7.55578 9.0844 6.77113 8.7468L2.8142 7.04432L1.16033 7.7559C0.946556 7.84788 0.946557 8.15212 1.16033 8.2441L7.16635 10.8282C7.6987 11.0573 8.3013 11.0573 8.83365 10.8282L14.8397 8.2441C15.0534 8.15212 15.0534 7.84788 14.8397 7.7559Z" fill="#2D50E6"/>
</svg>
