<svg width="16" height="16" viewBox="0 0 16 16" fill="none" xmlns="http://www.w3.org/2000/svg">
<path d="M8.17147 2.17157C9.73356 0.609476 12.2662 0.609476 13.8283 2.17157C15.3904 3.73367 15.3906 6.26639 13.8285 7.82849L11.33 10.33C9.7679 11.8921 7.2321 11.8921 5.67 10.33C5.42584 10.0858 5.21784 9.81417 5.05 9.53L6.17 8.41C6.29193 8.72115 6.47859 9.01859 6.73 9.27C7.70631 10.2463 9.29369 10.2463 10.27 9.27L12.7678 6.76782C13.7441 5.79151 13.744 4.20854 12.7677 3.23223C11.9653 2.4299 10.7533 2.28692 9.80497 2.80332C9.17076 2.58354 8.50436 2.4832 7.84075 2.50229L8.17147 2.17157Z" fill="#2D50E6"/>
<path d="M7.82851 13.8285C6.26641 15.3906 3.73375 15.3906 2.17166 13.8285C0.609558 12.2664 0.609393 9.73364 2.17149 8.17154L4.67 5.67C6.2321 4.1079 8.7679 4.1079 10.33 5.67C10.5742 5.91416 10.7822 6.18582 10.95 6.47L9.83 7.59C9.70807 7.27885 9.52141 6.98141 9.27 6.73C8.29369 5.75369 6.70631 5.75369 5.73 6.73L3.23215 9.2322C2.25584 10.2085 2.25601 11.7915 3.23232 12.7678C4.03465 13.5701 5.24667 13.7131 6.19501 13.1967C6.82921 13.4165 7.49562 13.5168 8.15923 13.4977L7.82851 13.8285Z" fill="#2D50E6"/>
</svg>
