<svg width="16" height="16" viewBox="0 0 16 16" fill="none" xmlns="http://www.w3.org/2000/svg">
<path d="M5.5 3C5.22386 3 5 3.22386 5 3.5V4.5C5 4.77614 5.22386 5 5.5 5H14.5C14.7761 5 15 4.77614 15 4.5V3.5C15 3.22386 14.7761 3 14.5 3H5.5Z" fill="#2D50E6"/>
<path d="M5 7.5C5 7.22386 5.22386 7 5.5 7H14.5C14.7761 7 15 7.22386 15 7.5V8.5C15 8.77614 14.7761 9 14.5 9H5.5C5.22386 9 5 8.77614 5 8.5V7.5Z" fill="#2D50E6"/>
<path d="M5 11.5C5 11.2239 5.22386 11 5.5 11H14.5C14.7761 11 15 11.2239 15 11.5V12.5C15 12.7761 14.7761 13 14.5 13H5.5C5.22386 13 5 12.7761 5 12.5V11.5Z" fill="#2D50E6"/>
<path d="M1.5 3C1.22386 3 1 3.22386 1 3.5V4.5C1 4.77614 1.22386 5 1.5 5H2.5C2.77614 5 3 4.77614 3 4.5V3.5C3 3.22386 2.77614 3 2.5 3H1.5Z" fill="#2D50E6"/>
<path d="M1 7.5C1 7.22386 1.22386 7 1.5 7H2.5C2.77614 7 3 7.22386 3 7.5V8.5C3 8.77614 2.77614 9 2.5 9H1.5C1.22386 9 1 8.77614 1 8.5V7.5Z" fill="#2D50E6"/>
<path d="M1 11.5C1 11.2239 1.22386 11 1.5 11H2.5C2.77614 11 3 11.2239 3 11.5V12.5C3 12.7761 2.77614 13 2.5 13H1.5C1.22386 13 1 12.7761 1 12.5V11.5Z" fill="#2D50E6"/>
</svg>
