<svg width="16" height="16" viewBox="0 0 16 16" fill="none" xmlns="http://www.w3.org/2000/svg">
<path fill-rule="evenodd" clip-rule="evenodd" d="M7 1C5.89543 1 5 1.89543 5 3V7.25H1.75C1.33579 7.25 1 7.58579 1 8C1 8.41421 1.33579 8.75 1.75 8.75H5V13C5 14.1046 5.89543 15 7 15H12C13.1046 15 14 14.1046 14 13V3C14 1.89543 13.1046 1 12 1H7ZM5 8.75H8.43934L7.21967 9.96967C6.92678 10.2626 6.92678 10.7374 7.21967 11.0303C7.51256 11.3232 7.98744 11.3232 8.28033 11.0303L10.7803 8.53033C11.0732 8.23744 11.0732 7.76256 10.7803 7.46967L8.28033 4.96967C7.98744 4.67678 7.51256 4.67678 7.21967 4.96967C6.92678 5.26256 6.92678 5.73744 7.21967 6.03033L8.43934 7.25H5V8.75Z" fill="#2D50E6"/>
</svg>
