<svg width="16" height="16" viewBox="0 0 16 16" fill="none" xmlns="http://www.w3.org/2000/svg">
<path fill-rule="evenodd" clip-rule="evenodd" d="M15.7803 7.46967C16.0732 7.76256 16.0732 8.23744 15.7803 8.53033L13.2803 11.0303C12.9874 11.3232 12.5126 11.3232 12.2197 11.0303C11.9268 10.7374 11.9268 10.2626 12.2197 9.96967L13.4393 8.75H11V7.25H13.4393L12.2197 6.03033C11.9268 5.73744 11.9268 5.26256 12.2197 4.96967C12.5126 4.67678 12.9874 4.67678 13.2803 4.96967L15.7803 7.46967ZM11 7.25V3C11 1.89543 10.1046 1 9 1H4C2.89543 1 2 1.89543 2 3V13C2 14.1046 2.89543 15 4 15H9C10.1046 15 11 14.1046 11 13V8.75H6.75C6.33579 8.75 6 8.41421 6 8C6 7.58579 6.33579 7.25 6.75 7.25H11Z" fill="#2D50E6"/>
</svg>
