<svg width="16" height="16" viewBox="0 0 16 16" fill="none" xmlns="http://www.w3.org/2000/svg">
<path d="M7.79047 1.04602C7.92342 0.98466 8.07658 0.98466 8.20953 1.04602L14.7095 4.04602C14.8866 4.12775 15 4.30497 15 4.5C15 4.69503 14.8866 4.87225 14.7095 4.95398L8.91205 7.62974L10.4853 6C11.1716 5.31371 11.1716 4.20101 10.4853 3.51472C9.79899 2.82843 8.68629 2.82843 8 3.51472C7.31371 2.82843 6.20101 2.82843 5.51472 3.51472C4.82843 4.20101 4.82843 5.31371 5.51472 6L7.08795 7.62974L1.29047 4.95398C1.1134 4.87225 1 4.69503 1 4.5C1 4.30497 1.1134 4.12775 1.29047 4.04602L7.79047 1.04602Z" fill="#2D50E6"/>
<path d="M1.70953 6.29602C1.55471 6.22457 1.37415 6.23694 1.23052 6.32883C1.08689 6.42073 1 6.57949 1 6.75C1 7.3567 1 10.3958 1 12.0017C1 12.554 1.44771 13 2 13H14C14.5523 13 15 12.5523 15 12L15 6.75C15 6.57949 14.9131 6.42073 14.7695 6.32883C14.6258 6.23694 14.4453 6.22457 14.2905 6.29602L8.62859 8.9092C8.22974 9.09328 7.77025 9.09328 7.37141 8.9092L1.70953 6.29602Z" fill="#2D50E6"/>
</svg>
