<svg width="16" height="16" viewBox="0 0 16 16" fill="none" xmlns="http://www.w3.org/2000/svg">
<path d="M2.25582 4.0597L7.51251 1.12255C7.81545 0.95329 8.18455 0.95329 8.48749 1.12255L13.7442 4.0597C14.0853 4.25029 14.0853 4.74092 13.7442 4.93151L8.78012 7.70515L10.4853 5.99999C11.1716 5.3137 11.1716 4.201 10.4853 3.51471C9.79899 2.82842 8.68629 2.82842 8 3.51471C7.31371 2.82842 6.20101 2.82842 5.51472 3.51471C4.82843 4.201 4.82843 5.3137 5.51472 5.99999L7.21988 7.70515L2.25582 4.93151C1.91473 4.74092 1.91473 4.25029 2.25582 4.0597Z" fill="#2D50E6"/>
<path d="M2.75301 6.24175C2.41969 6.0462 2 6.28657 2 6.67301V12C2 12.5523 2.44772 13 3 13H13C13.5523 13 14 12.5523 14 12V6.67301C14 6.28657 13.5803 6.0462 13.247 6.24175L9.01203 8.72626C8.38714 9.09286 7.61286 9.09286 6.98797 8.72626L2.75301 6.24175Z" fill="#2D50E6"/>
</svg>
