<svg width="16" height="16" viewBox="0 0 16 16" fill="none" xmlns="http://www.w3.org/2000/svg">
<path d="M8.5 9C8.5 8.72386 8.27614 8.5 8 8.5C7.72386 8.5 7.5 8.72386 7.5 9V9.37818C7.5 9.80199 7.20428 10.1598 6.91237 10.467C6.65682 10.736 6.5 11.0997 6.5 11.5C6.5 12.3284 7.17157 13 8 13C8.82843 13 9.5 12.3284 9.5 11.5C9.5 11.0997 9.34318 10.736 9.08763 10.467C8.79572 10.1598 8.5 9.80199 8.5 9.37818V9Z" fill="#2D50E6"/>
<path fill-rule="evenodd" clip-rule="evenodd" d="M8 1C6.61929 1 5.5 2.11929 5.5 3.5V9.05051C4.88141 9.68178 4.5 10.5463 4.5 11.5C4.5 13.433 6.067 15 8 15C9.933 15 11.5 13.433 11.5 11.5C11.5 10.5463 11.1186 9.68178 10.5 9.05051V8H11.5C11.7761 8 12 7.77614 12 7.5C12 7.22386 11.7761 7 11.5 7H10.5V6H11.5C11.7761 6 12 5.77614 12 5.5C12 5.22386 11.7761 5 11.5 5H10.5V4H11.5C11.7761 4 12 3.77614 12 3.5C12 3.22386 11.7761 3 11.5 3H10.45C10.2184 1.85888 9.20948 1 8 1ZM9.5 9.00027C9.5 9.31477 9.65786 9.60264 9.86709 9.83744C10.2608 10.2792 10.5 10.8617 10.5 11.5C10.5 12.8807 9.38071 14 8 14C6.61929 14 5.5 12.8807 5.5 11.5C5.5 10.8617 5.73922 10.2792 6.13291 9.83744C6.34214 9.60264 6.5 9.31477 6.5 9.00027V3.5C6.5 2.67157 7.17157 2 8 2C8.82843 2 9.5 2.67157 9.5 3.5V9.00027Z" fill="#2D50E6"/>
</svg>
