<svg width="16" height="16" viewBox="0 0 16 16" fill="none" xmlns="http://www.w3.org/2000/svg">
<path fill-rule="evenodd" clip-rule="evenodd" d="M2.22475 2.08258C2.36507 1.99006 2.54248 1.97422 2.69696 2.04043L6.01242 3.46134L9.82444 2.03184C9.94508 1.9866 10.0785 1.98967 10.197 2.04043L13.697 3.54043C13.8808 3.61922 14 3.79999 14 4V13.5C14 13.6681 13.9156 13.8249 13.7752 13.9174C13.6349 14.0099 13.4575 14.0258 13.303 13.9596L9.98758 12.5387L6.17556 13.9682C6.05492 14.0134 5.92147 14.0103 5.80304 13.9596L2.30304 12.4596C2.1192 12.3808 2 12.2 2 12V2.5C2 2.33193 2.08444 2.1751 2.22475 2.08258ZM6.61161 4.29019C6.2388 4.43785 6 4.80031 6 5.2013V12.2427C6 12.592 6.34912 12.8336 6.67607 12.7106L9.35215 11.7038C9.74192 11.5571 10 11.1843 10 10.7678V3.74157C10 3.39663 9.6592 3.15576 9.33464 3.27256C8.62796 3.52686 7.49343 3.94091 6.61161 4.29019Z" fill="#2D50E6"/>
</svg>
