<svg width="16" height="16" viewBox="0 0 16 16" fill="none" xmlns="http://www.w3.org/2000/svg">
<path d="M8 12.0002C9.21445 11.088 10 9.6357 10 7.99988C10 6.36406 9.21445 4.91172 8 3.99951C6.78555 4.91172 6 6.36406 6 7.99988C6 9.6357 6.78555 11.088 8 12.0002Z" fill="#FF5F00"/>
<path d="M8 3.99963C6.78555 4.91184 6 6.36418 6 8C6 9.63582 6.78555 11.0882 8 12.0004C7.16434 12.6281 6.12561 13 5 13C2.23858 13 0 10.7614 0 8C0 5.23858 2.23858 3 5 3C6.12561 3 7.16434 3.37194 8 3.99963Z" fill="#EB001B"/>
<path d="M8 3.99963C9.21445 4.91184 10 6.36418 10 8C10 9.63582 9.21445 11.0882 8 12.0004C8.83566 12.6281 9.87439 13 11 13C13.7614 13 16 10.7614 16 8C16 5.23858 13.7614 3 11 3C9.87439 3 8.83566 3.37194 8 3.99963Z" fill="#F79E1B"/>
</svg>
