<svg width="16" height="16" viewBox="0 0 16 16" fill="none" xmlns="http://www.w3.org/2000/svg">
<path fill-rule="evenodd" clip-rule="evenodd" d="M3 3C3 1.89543 3.89543 1 5 1H11C12.1046 1 13 1.89543 13 3V13C13 14.1046 12.1046 15 11 15H5C3.89543 15 3 14.1046 3 13V3ZM4 3C4 2.44772 4.44772 2 5 2H5.5C5.77614 2 6 2.22386 6 2.5C6 2.77614 6.22386 3 6.5 3H9.5C9.77614 3 10 2.77614 10 2.5C10 2.22386 10.2239 2 10.5 2H11C11.5523 2 12 2.44772 12 3V13C12 13.5523 11.5523 14 11 14H5C4.44772 14 4 13.5523 4 13V3Z" fill="#2D50E6"/>
</svg>
