<svg width="16" height="16" viewBox="0 0 16 16" fill="none" xmlns="http://www.w3.org/2000/svg">
<path d="M9 3.99999V1.4971C9 1.05164 9.53857 0.82856 9.85355 1.14354L12.8564 4.14644C13.1714 4.46142 12.9483 4.99999 12.5029 4.99999H10C9.44772 4.99999 9 4.55227 9 3.99999Z" fill="#2D50E6"/>
<path fill-rule="evenodd" clip-rule="evenodd" d="M4 0.999989C3.44772 0.999989 3 1.4477 3 1.99999V14C3 14.5523 3.44772 15 4 15H12C12.5523 15 13 14.5523 13 14V6.99999C13 6.4477 12.5523 5.99999 12 5.99999H9.5C8.67157 5.99999 8 5.32842 8 4.49999V1.99999C8 1.4477 7.55228 0.999989 7 0.999989H4ZM7.66665 7.10787L4.12073 9.97173C3.89389 10.1363 4.00798 10.501 4.2863 10.501H4.5C4.77614 10.501 5 10.7248 5 11.001V14H7V11.6673C7 11.3452 7.2611 11.0841 7.58317 11.0841H8.41683C8.7389 11.0841 9 11.3452 9 11.6673V14H11V11.0009C11 10.7248 11.2239 10.501 11.5 10.501H11.7137C11.9921 10.501 12.1061 10.1361 11.8791 9.97163L8.32868 7.10767C8.13043 6.96404 7.86482 6.96412 7.66665 7.10787Z" fill="#2D50E6"/>
</svg>
