<svg width="16" height="16" viewBox="0 0 16 16" fill="none" xmlns="http://www.w3.org/2000/svg">
<path d="M7.73087 1.13961C7.86201 0.953462 8.13799 0.953462 8.26913 1.13961L9.24769 2.52874C9.33929 2.65877 9.51076 2.70471 9.6551 2.6379L11.1971 1.92417C11.4038 1.82852 11.6428 1.96652 11.6633 2.1933L11.8162 3.88559C11.8305 4.044 11.956 4.16952 12.1144 4.18384L13.8067 4.33673C14.0335 4.35722 14.1715 4.59624 14.0758 4.80288L13.3621 6.3449C13.2953 6.48924 13.3412 6.66071 13.4713 6.75231L14.8604 7.73087C15.0465 7.86201 15.0465 8.13799 14.8604 8.26913L13.4713 9.24769C13.3412 9.33929 13.2953 9.51076 13.3621 9.6551L14.0758 11.1971C14.1715 11.4038 14.0335 11.6428 13.8067 11.6633L12.1144 11.8162C11.956 11.8305 11.8305 11.956 11.8162 12.1144L11.6633 13.8067C11.6428 14.0335 11.4038 14.1715 11.1971 14.0758L9.6551 13.3621C9.51076 13.2953 9.33929 13.3412 9.24769 13.4713L8.26913 14.8604C8.13799 15.0465 7.86201 15.0465 7.73087 14.8604L6.75231 13.4713C6.66071 13.3412 6.48924 13.2953 6.3449 13.3621L4.80288 14.0758C4.59624 14.1715 4.35722 14.0335 4.33673 13.8067L4.18384 12.1144C4.16952 11.956 4.044 11.8305 3.88559 11.8162L2.1933 11.6633C1.96652 11.6428 1.82852 11.4038 1.92417 11.1971L2.6379 9.6551C2.70471 9.51076 2.65877 9.33929 2.52874 9.24769L1.13961 8.26913C0.953462 8.13799 0.953462 7.86201 1.13961 7.73087L2.52874 6.75231C2.65877 6.66071 2.70471 6.48924 2.6379 6.3449L1.92417 4.80288C1.82852 4.59624 1.96652 4.35722 2.1933 4.33673L3.88559 4.18384C4.044 4.16952 4.16952 4.044 4.18384 3.88559L4.33673 2.1933C4.35722 1.96652 4.59624 1.82852 4.80288 1.92417L6.3449 2.6379C6.48924 2.70471 6.66071 2.65877 6.75231 2.52874L7.73087 1.13961Z" fill="#2D50E6"/>
</svg>
