<svg width="16" height="16" viewBox="0 0 16 16" fill="none" xmlns="http://www.w3.org/2000/svg">
<path d="M5.00006 3C5.31482 3 5.6112 3.14819 5.80006 3.4L10.4249 9.56648C9.73989 9.72776 9.16358 10.1708 8.825 10.7666L5.00006 5.66667L2.80006 8.6C2.46869 9.04183 1.84189 9.13137 1.40006 8.8C0.958231 8.46863 0.868688 7.84183 1.20006 7.4L4.20006 3.4C4.38891 3.14819 4.6853 3 5.00006 3Z" fill="#2D50E6"/>
<path d="M13.1751 10.7666C12.8365 10.1708 12.2602 9.72776 11.5752 9.56648L13.2001 7.4C13.5314 6.95817 14.1582 6.86863 14.6001 7.2C15.0419 7.53137 15.1314 8.15817 14.8001 8.6L13.1751 10.7666Z" fill="#2D50E6"/>
<path d="M11 13.5C11.8284 13.5 12.5 12.8284 12.5 12C12.5 11.1716 11.8284 10.5 11 10.5C10.1716 10.5 9.5 11.1716 9.5 12C9.5 12.8284 10.1716 13.5 11 13.5Z" fill="#2D50E6"/>
</svg>
