<svg width="16" height="16" viewBox="0 0 16 16" fill="none" xmlns="http://www.w3.org/2000/svg">
<path fill-rule="evenodd" clip-rule="evenodd" d="M7.41564 1.18497L1.21124 6.09579C0.814328 6.37796 1.01396 7.0033 1.50095 7.0033H2C2.55228 7.0033 3 7.45102 3 8.0033V14.0033H4V14H5V8.0033C5 7.45102 5.44772 7.0033 6 7.0033L10 7.0033C10.5523 7.0033 11 7.45102 11 8.0033V14H12V14.0033H13V8.0033C13 7.45102 13.4477 7.0033 14 7.0033H14.4969C14.984 7.0033 15.1835 6.37765 14.7863 6.09562L8.574 1.18463C8.22712 0.938332 7.76238 0.938468 7.41564 1.18497ZM8 6C8.55228 6 9 5.55228 9 5C9 4.44772 8.55228 4 8 4C7.44772 4 7 4.44772 7 5C7 5.55228 7.44772 6 8 6Z" fill="#2D50E6"/>
</svg>
