<svg width="16" height="16" viewBox="0 0 16 16" fill="none" xmlns="http://www.w3.org/2000/svg">
<path d="M5 8.5C5 8.22386 5.22386 8 5.5 8H10.5C10.7761 8 11 8.22386 11 8.5C11 8.77614 10.7761 9 10.5 9H5.5C5.22386 9 5 8.77614 5 8.5Z" fill="#2D50E6"/>
<path fill-rule="evenodd" clip-rule="evenodd" d="M4 2C4 1.44772 4.44772 1 5 1H11C11.5523 1 12 1.44772 12 2V4C12.5523 4 13 4.44772 13 5V14C13 14.5523 12.5523 15 12 15H4C3.44772 15 3 14.5523 3 14V5C3 4.44772 3.44772 4 4 4V2ZM5 7C4.44772 7 4 7.44772 4 8V11C4 11.5523 4.44772 12 5 12H11C11.5523 12 12 11.5523 12 11V8C12 7.44772 11.5523 7 11 7H5ZM5.5 3C5.77614 3 6 2.77614 6 2.5C6 2.22386 5.77614 2 5.5 2C5.22386 2 5 2.22386 5 2.5C5 2.77614 5.22386 3 5.5 3ZM11 2.5C11 2.77614 10.7761 3 10.5 3C10.2239 3 10 2.77614 10 2.5C10 2.22386 10.2239 2 10.5 2C10.7761 2 11 2.22386 11 2.5ZM7.5 2C7.22386 2 7 2.22386 7 2.5C7 2.77614 7.22386 3 7.5 3H8.5C8.77614 3 9 2.77614 9 2.5C9 2.22386 8.77614 2 8.5 2H7.5Z" fill="#2D50E6"/>
</svg>
