<svg width="16" height="16" viewBox="0 0 16 16" fill="none" xmlns="http://www.w3.org/2000/svg">
<path fill-rule="evenodd" clip-rule="evenodd" d="M5.5 6.55902V7.84549C5.5 8.03134 5.30442 8.15221 5.1382 8.0691L4.27639 7.6382C4.107 7.5535 4 7.38037 4 7.19098V5.80902C4 5.61963 4.107 5.4465 4.27639 5.3618L10.1118 2.4441C10.2961 2.35197 10.2961 2.08902 10.1118 1.99688L8.22361 1.05279C8.08284 0.982405 7.91716 0.982405 7.77639 1.05279L1.77639 4.05279C1.607 4.13748 1.5 4.31061 1.5 4.5V11.5C1.5 11.6894 1.607 11.8625 1.77639 11.9472L3.6382 12.8781C3.80442 12.9612 4 12.8404 4 12.6545V11.4045C4 11.2187 4.19558 11.0978 4.3618 11.1809L5.22361 11.6118C5.393 11.6965 5.5 11.8696 5.5 12.059V13.5C5.5 13.6894 5.607 13.8625 5.77639 13.9472L7.77639 14.9472C7.91716 15.0176 8.08284 15.0176 8.22361 14.9472L14.2236 11.9472C14.393 11.8625 14.5 11.6894 14.5 11.5V4.5C14.5 4.31061 14.393 4.13748 14.2236 4.05279L12.2826 3.08229C12.1419 3.01191 11.9762 3.01191 11.8354 3.08229L5.77639 6.1118C5.607 6.1965 5.5 6.36963 5.5 6.55902ZM9.8618 11.5691L11.2236 10.8882C11.393 10.8035 11.5 10.6304 11.5 10.441V7.65451C11.5 7.46866 11.3044 7.34779 11.1382 7.4309L9.77639 8.1118C9.607 8.1965 9.5 8.36963 9.5 8.55902V11.3455C9.5 11.5313 9.69558 11.6522 9.8618 11.5691Z" fill="#2D50E6"/>
</svg>
