<svg width="16" height="16" viewBox="0 0 16 16" fill="none" xmlns="http://www.w3.org/2000/svg">
<path d="M2.5 2C2.22386 2 2 2.22386 2 2.5V3C2 3.27614 2.22386 3.5 2.5 3.5H13.5C13.7761 3.5 14 3.27614 14 3V2.5C14 2.22386 13.7761 2 13.5 2H2.5Z" fill="#2D50E6"/>
<path d="M2.5 5.5C2.22386 5.5 2 5.72386 2 6V6.5C2 6.77614 2.22386 7 2.5 7H11.5C11.7761 7 12 6.77614 12 6.5V6C12 5.72386 11.7761 5.5 11.5 5.5H2.5Z" fill="#2D50E6"/>
<path d="M2.5 12.5C2.22386 12.5 2 12.7239 2 13V13.5C2 13.7761 2.22386 14 2.5 14H8.5C8.77614 14 9 13.7761 9 13.5V13C9 12.7239 8.77614 12.5 8.5 12.5H2.5Z" fill="#2D50E6"/>
<path d="M2 9.5C2 9.22386 2.22386 9 2.5 9H13.5C13.7761 9 14 9.22386 14 9.5V10C14 10.2761 13.7761 10.5 13.5 10.5H2.5C2.22386 10.5 2 10.2761 2 10V9.5Z" fill="#2D50E6"/>
</svg>
