<svg width="16" height="16" viewBox="0 0 16 16" fill="none" xmlns="http://www.w3.org/2000/svg">
<path d="M5 5.5C5.82843 5.5 6.5 4.82843 6.5 4C6.5 3.17157 5.82843 2.5 5 2.5C4.17157 2.5 3.5 3.17157 3.5 4C3.5 4.82843 4.17157 5.5 5 5.5Z" fill="#2D50E6"/>
<path d="M5.5752 6.43351C6.26022 6.27223 6.83653 5.82919 7.17512 5.2334L11.0001 10.3333L13.2001 7.39999C13.5314 6.95816 14.1582 6.86862 14.6001 7.19999C15.0419 7.53136 15.1314 8.15816 14.8001 8.59999L11.8001 12.6C11.6112 12.8518 11.3148 13 11.0001 13C10.6853 13 10.3889 12.8518 10.2001 12.6L5.5752 6.43351Z" fill="#2D50E6"/>
<path d="M2.825 5.2334C3.16358 5.82919 3.73989 6.27223 4.42492 6.43351L2.80006 8.59999C2.46869 9.04182 1.84189 9.13136 1.40006 8.79999C0.958231 8.46862 0.868688 7.84182 1.20006 7.39999L2.825 5.2334Z" fill="#2D50E6"/>
</svg>
