<svg width="16" height="16" viewBox="0 0 16 16" fill="none" xmlns="http://www.w3.org/2000/svg">
<path d="M9.79532 3.16061C9.89981 3.17971 10 3.10623 10 3C10 1.89543 9.10457 1 8 1C6.89543 1 6 1.89543 6 3C6 3.10624 6.1002 3.17973 6.20471 3.16063C6.73661 3.06344 7.33756 3 8.00008 3C8.66256 3 9.26346 3.06343 9.79532 3.16061Z" fill="#2D50E6"/>
<path d="M7.5 4.54126C7.5 4.2545 7.25904 4.02511 6.9741 4.05734C6.75983 4.08158 6.55577 4.11255 6.36237 4.14841C5.51472 4.30558 4.8719 4.55659 4.47271 4.74546C4.17009 4.88863 4.00194 5.20102 4.00232 5.5358C4.00233 5.5435 4.00234 5.55123 4.00235 5.55898C3.81353 5.24008 3.65116 4.81243 3.46816 4.32444L3.45725 4.29532C3.27791 3.81696 3.0758 3.27788 2.81462 2.86C2.55002 2.43663 2.13762 2 1.5 2C1.22386 2 1 2.22386 1 2.5C1 2.77614 1.22386 3 1.5 3C1.61238 3 1.76248 3.06337 1.96663 3.39C2.16889 3.71362 2.33889 4.16105 2.53184 4.67556L2.54275 4.70468C2.72209 5.18304 2.9242 5.72212 3.18538 6.14C3.37379 6.44147 3.63715 6.74966 4.00339 6.90214C4.00356 7.2888 4.0036 7.67677 4.00346 8.02831C3.80203 8.0475 3.55104 8.07989 3.27694 8.13471C2.62259 8.26558 1.75272 8.54018 1.14645 9.14645C0.951185 9.34171 0.951185 9.65829 1.14645 9.85355C1.34171 10.0488 1.65829 10.0488 1.85355 9.85355C2.24728 9.45982 2.87741 9.23442 3.47306 9.11529C3.66635 9.07663 3.84723 9.05085 4.0022 9.0337C4.00166 9.22188 4.00094 9.35145 4 9.3985C4 9.63672 4.01186 9.86561 4.03428 10.0855C3.6519 10.2331 3.37905 10.5501 3.18538 10.86C2.9242 11.2779 2.72209 11.817 2.54275 12.2953L2.53184 12.3244C2.33889 12.8389 2.16889 13.2864 1.96663 13.61C1.76248 13.9366 1.61238 14 1.5 14C1.22386 14 1 14.2239 1 14.5C1 14.7761 1.22386 15 1.5 15C2.13762 15 2.55002 14.5634 2.81462 14.14C3.07579 13.7221 3.2779 13.1831 3.45723 12.7047L3.46816 12.6756C3.66111 12.1611 3.83111 11.7136 4.03337 11.39C4.10699 11.2722 4.17358 11.1887 4.23391 11.13C4.72743 12.8474 5.90447 13.8711 6.81242 14.43C7.1232 14.6213 7.5 14.3827 7.5 14.0178V4.54126Z" fill="#2D50E6"/>
<path d="M8.5 4.54125C8.5 4.25449 8.74095 4.02509 9.0259 4.05732C9.24017 4.08156 9.44424 4.11253 9.63764 4.14839C10.4853 4.30556 11.1281 4.55658 11.5273 4.74546C11.8299 4.88863 11.998 5.20099 11.9977 5.53574C11.9976 5.54348 11.9976 5.55124 11.9976 5.55903C12.1865 5.24012 12.3488 4.81245 12.5318 4.32444L12.5428 4.29532C12.7221 3.81696 12.9242 3.27788 13.1854 2.86C13.45 2.43663 13.8624 2 14.5 2C14.7761 2 15 2.22386 15 2.5C15 2.77614 14.7761 3 14.5 3C14.3876 3 14.2375 3.06337 14.0334 3.39C13.8311 3.71362 13.6611 4.16105 13.4682 4.67556L13.4572 4.70468C13.2779 5.18304 13.0758 5.72212 12.8146 6.14C12.6262 6.44147 12.3629 6.74966 11.9966 6.90214C11.9964 7.28876 11.9964 7.67673 11.9966 8.02831C12.198 8.0475 12.449 8.07989 12.7231 8.13471C13.3774 8.26558 14.2473 8.54018 14.8536 9.14645C15.0488 9.34171 15.0488 9.65829 14.8536 9.85355C14.6583 10.0488 14.3417 10.0488 14.1464 9.85355C13.7527 9.45982 13.1226 9.23442 12.5269 9.11529C12.3337 9.07663 12.1528 9.05086 11.9978 9.0337C11.9984 9.22116 11.9991 9.35061 12 9.3985C12 9.63672 11.9881 9.86561 11.9657 10.0855C12.3481 10.2331 12.6209 10.5501 12.8146 10.86C13.0758 11.2779 13.2779 11.817 13.4572 12.2953L13.4682 12.3244C13.6611 12.8389 13.8311 13.2864 14.0334 13.61C14.2375 13.9366 14.3876 14 14.5 14C14.7761 14 15 14.2239 15 14.5C15 14.7761 14.7761 15 14.5 15C13.8624 15 13.45 14.5634 13.1854 14.14C12.9242 13.7221 12.7221 13.183 12.5428 12.7047L12.5318 12.6756C12.3389 12.1611 12.1689 11.7136 11.9666 11.39C11.893 11.2722 11.8264 11.1887 11.7661 11.13C11.2726 12.8475 10.0955 13.8712 9.18758 14.4301C8.8768 14.6214 8.5 14.3828 8.5 14.0179V4.54125Z" fill="#2D50E6"/>
</svg>
