<svg width="16" height="16" viewBox="0 0 16 16" fill="none" xmlns="http://www.w3.org/2000/svg">
<path d="M14.1324 14.1324C14.6287 13.6361 14.9257 12.9743 15 12.2C15 11.9823 14.8877 11.7801 14.7029 11.665L12.3942 10.2278C12.0736 10.0282 11.6598 10.0675 11.3634 10.3015C10.8173 10.7326 9.9465 11.3279 9.4658 11.1754C9.44924 11.1691 9.43265 11.1627 9.41605 11.1563C9.41164 11.1543 9.40727 11.1522 9.40295 11.15C9.34049 11.1188 9.28919 11.0987 9.24754 11.088C8.39082 10.7271 7.49161 10.139 6.67632 9.32368C5.85935 8.50672 5.27047 7.6055 4.90979 6.7472C4.89866 6.70707 4.8792 6.65841 4.85 6.6C4.83994 6.57434 4.83007 6.54872 4.82041 6.52316C4.68352 6.03934 5.27181 5.17925 5.69884 4.63813C5.93269 4.3418 5.97195 3.92813 5.77252 3.60762L4.33491 1.29717C4.21991 1.11236 4.01767 1 3.8 1C3.02567 1.07434 2.36393 1.37133 1.86763 1.86763C0.00488138 3.73038 1.24038 7.98599 4.6272 11.3728C8.01401 14.7596 12.2696 15.9951 14.1324 14.1324Z" fill="#2D50E6"/>
</svg>
