<svg width="16" height="16" viewBox="0 0 16 16" fill="none" xmlns="http://www.w3.org/2000/svg">
<path d="M11 8C11 9.65685 9.65685 11 8 11C6.34315 11 5 9.65685 5 8C5 6.34315 6.34315 5 8 5C9.65685 5 11 6.34315 11 8Z" fill="#2D50E6"/>
<path fill-rule="evenodd" clip-rule="evenodd" d="M10.5 2C10.1936 1.38713 9.56717 1 8.88197 1H7.11803C6.43283 1 5.80643 1.38713 5.5 2C5.19357 2.61287 4.56717 3 3.88197 3H3C1.89543 3 1 3.89543 1 5V11C1 12.1046 1.89543 13 3 13H13C14.1046 13 15 12.1046 15 11V5C15 3.89543 14.1046 3 13 3H12.118C11.4328 3 10.8064 2.61287 10.5 2ZM8 12C10.2091 12 12 10.2091 12 8C12 5.79086 10.2091 4 8 4C5.79086 4 4 5.79086 4 8C4 10.2091 5.79086 12 8 12ZM14 5C14 5.55228 13.5523 6 13 6C12.4477 6 12 5.55228 12 5C12 4.44772 12.4477 4 13 4C13.5523 4 14 4.44772 14 5Z" fill="#2D50E6"/>
<path d="M3 1C3.55228 1 4 1.44772 4 2H2C2 1.44772 2.44772 1 3 1Z" fill="#2D50E6"/>
</svg>
