<svg width="16" height="16" viewBox="0 0 16 16" fill="none" xmlns="http://www.w3.org/2000/svg">
<path fill-rule="evenodd" clip-rule="evenodd" d="M2 3C1.44772 3 1 3.44772 1 4V12C1 12.5523 1.44772 13 2 13H14C14.5523 13 15 12.5523 15 12V4C15 3.44772 14.5523 3 14 3H2ZM2.5 6C2.22386 6 2 6.22386 2 6.5V11.5C2 11.7761 2.22386 12 2.5 12H3V6H2.5ZM5 12H4V6H5V12ZM6 12H7.5V10C7.22386 10 7 9.77614 7 9.5V6H6V12ZM8.5 10V12H10V6H9V9.5C9 9.77614 8.77614 10 8.5 10ZM13 12H13.5C13.7761 12 14 11.7761 14 11.5V6.5C14 6.22386 13.7761 6 13.5 6H13V12ZM11 12V6H12V12H11ZM2 4.5C2 4.22386 2.22386 4 2.5 4H5.5C5.77614 4 6 4.22386 6 4.5C6 4.77614 5.77614 5 5.5 5H2.5C2.22386 5 2 4.77614 2 4.5ZM9.5 5C9.77614 5 10 4.77614 10 4.5C10 4.22386 9.77614 4 9.5 4C9.22386 4 9 4.22386 9 4.5C9 4.77614 9.22386 5 9.5 5ZM12 4.5C12 4.77614 11.7761 5 11.5 5C11.2239 5 11 4.77614 11 4.5C11 4.22386 11.2239 4 11.5 4C11.7761 4 12 4.22386 12 4.5ZM13.5 5C13.7761 5 14 4.77614 14 4.5C14 4.22386 13.7761 4 13.5 4C13.2239 4 13 4.22386 13 4.5C13 4.77614 13.2239 5 13.5 5Z" fill="#2D50E6"/>
</svg>
