<svg width="16" height="16" viewBox="0 0 16 16" fill="none" xmlns="http://www.w3.org/2000/svg">
<path fill-rule="evenodd" clip-rule="evenodd" d="M8.32071 15.8836L8.31888 15.8851C8.23233 15.9569 8.1212 16 8 16C7.87878 16 7.76764 15.9569 7.68109 15.8851L7.67929 15.8836L7.66577 15.8725C7.6542 15.863 7.63757 15.8491 7.61621 15.8312C7.57351 15.7952 7.51188 15.7426 7.43404 15.6744C7.2784 15.5379 7.0577 15.3386 6.79361 15.084C6.26602 14.5754 5.56217 13.8433 4.85724 12.9485C3.46017 11.1752 2 8.68906 2 6C2 2.68629 4.68629 0 8 0C11.3137 0 14 2.68629 14 6C14 8.68906 12.5398 11.1752 11.1428 12.9485C10.4378 13.8433 9.73398 14.5754 9.20639 15.084C8.9423 15.3386 8.7216 15.5379 8.56596 15.6744C8.48812 15.7426 8.42649 15.7952 8.38379 15.8312C8.36243 15.8491 8.3458 15.863 8.33423 15.8725L8.32071 15.8836ZM8 9C9.65685 9 11 7.65685 11 6C11 4.34315 9.65685 3 8 3C6.34315 3 5 4.34315 5 6C5 7.65685 6.34315 9 8 9Z" fill="#2D50E6"/>
</svg>
