<svg width="16" height="16" viewBox="0 0 16 16" fill="none" xmlns="http://www.w3.org/2000/svg">
<path fill-rule="evenodd" clip-rule="evenodd" d="M2.5 1C1.67157 1 1 1.67157 1 2.5V13.5C1 14.3284 1.67157 15 2.5 15H3.5C3.77614 15 4 14.7761 4 14.5V11.0354C5.69615 11.2781 7 12.7368 7 14.5C7 14.7761 7.22386 15 7.5 15H13.5C14.3284 15 15 14.3284 15 13.5V2.5C15 1.67157 14.3284 1 13.5 1H2.5ZM9 2V7H7.5C7.22386 7 7 7.22386 7 7.5C7 7.77614 7.22386 8 7.5 8H11.5C11.7761 8 12 7.77614 12 7.5C12 7.22386 11.7761 7 11.5 7H10V2H13.5C13.7761 2 14 2.22386 14 2.5V10H9.5C9.22386 10 9 10.2239 9 10.5C9 10.7761 9.22386 11 9.5 11H14V13.5C14 13.7761 13.7761 14 13.5 14H7.97254C7.72381 11.75 5.81628 10 3.5 10C3.22386 10 3 10.2239 3 10.5V14H2.5C2.22386 14 2 13.7761 2 13.5V8H4.5C4.77614 8 5 7.77614 5 7.5C5 7.22386 4.77614 7 4.5 7H2V2.5C2 2.22386 2.22386 2 2.5 2H9Z" fill="#2D50E6"/>
</svg>
