<svg width="16" height="16" viewBox="0 0 16 16" fill="none" xmlns="http://www.w3.org/2000/svg">
<path fill-rule="evenodd" clip-rule="evenodd" d="M7 2C6.44772 2 6 2.44772 6 3V5.5C6 5.77614 6.22386 6 6.5 6H9.5C9.77614 6 10 5.77614 10 5.5V3C10 1.89543 10.8954 1 12 1C13.1046 1 14 1.89543 14 3C14 3.27614 13.7761 3.5 13.5 3.5C13.2239 3.5 13 3.27614 13 3C13 2.44772 12.5523 2 12 2C11.4477 2 11 2.44772 11 3V11.0364C11.1514 11.0132 11.317 11 11.5 11C12.3323 11 12.8053 11.2737 13.2158 11.5113C13.2477 11.5297 13.2793 11.548 13.3106 11.5659C13.6166 11.7407 13.9397 11.9105 14.5007 11.9739C14.7751 12.0049 15 12.2239 15 12.5C15 12.7761 14.7755 13.0033 14.5004 12.9788C13.7014 12.9075 13.2236 12.6679 12.8144 12.4341L12.7233 12.3818C12.3335 12.1572 12.0605 12 11.5 12C10.9395 12 10.6665 12.1572 10.2767 12.3818L10.1856 12.4341C9.69754 12.713 9.11189 13 8 13C6.88811 13 6.30246 12.713 5.81443 12.4341L5.72335 12.3818C5.33347 12.1572 5.06047 12 4.5 12C3.93953 12 3.66653 12.1572 3.27665 12.3818L3.18557 12.4341C2.77639 12.6679 2.2986 12.9075 1.49957 12.9788C1.22452 13.0033 1 12.7761 1 12.5C1 12.2239 1.22489 12.0049 1.49929 11.9739C2.06029 11.9105 2.38342 11.7407 2.68943 11.5659C2.72035 11.5482 2.7515 11.5302 2.78302 11.512L2.78404 11.5114C3.19455 11.2738 3.66774 11 4.5 11C4.68298 11 4.84859 11.0132 5 11.0364V3C5 1.89543 5.89543 1 7 1C8.10457 1 9 1.89543 9 3C9 3.27614 8.77614 3.5 8.5 3.5C8.22386 3.5 8 3.27614 8 3C8 2.44772 7.55228 2 7 2ZM10 10.5V11.3887C9.9253 11.4296 9.85385 11.471 9.78419 11.5113C9.75231 11.5297 9.7207 11.548 9.68943 11.5659C9.30246 11.787 8.88811 12 8 12C7.11189 12 6.69754 11.787 6.31057 11.5659C6.27928 11.548 6.24775 11.5298 6.21585 11.5113C6.14619 11.471 6.07471 11.4296 6 11.3887V10.5C6 10.2239 6.22386 10 6.5 10H9.5C9.77614 10 10 10.2239 10 10.5ZM6 8.5C6 8.77614 6.22386 9 6.5 9H9.5C9.77614 9 10 8.77614 10 8.5V7.5C10 7.22386 9.77614 7 9.5 7H6.5C6.22386 7 6 7.22386 6 7.5V8.5Z" fill="#2D50E6"/>
<path d="M1.49957 14.9788C2.2986 14.9075 2.77639 14.6679 3.18557 14.4341L3.27665 14.3818C3.66653 14.1572 3.93953 14 4.5 14C5.06047 14 5.33347 14.1572 5.72335 14.3818L5.81443 14.4341C6.30246 14.713 6.88811 15 8 15C9.11189 15 9.69754 14.713 10.1856 14.4341L10.2767 14.3818C10.6665 14.1572 10.9395 14 11.5 14C12.0605 14 12.3335 14.1572 12.7233 14.3818L12.8144 14.4341C13.2236 14.6679 13.7014 14.9075 14.5004 14.9788C14.7755 15.0033 15 14.7761 15 14.5C15 14.2239 14.7751 14.0049 14.5007 13.9739C13.9397 13.9105 13.6166 13.7407 13.3106 13.5659C13.2793 13.548 13.2478 13.5298 13.2159 13.5113C12.8054 13.2738 12.3323 13 11.5 13C10.6677 13 10.1947 13.2737 9.78415 13.5113C9.75225 13.5298 9.72072 13.548 9.68943 13.5659C9.30246 13.787 8.88811 14 8 14C7.11189 14 6.69754 13.787 6.31057 13.5659C6.27928 13.548 6.24775 13.5298 6.21585 13.5113C5.80533 13.2737 5.33226 13 4.5 13C3.66774 13 3.19467 13.2737 2.78415 13.5113C2.75229 13.5297 2.72068 13.548 2.68943 13.5659C2.38342 13.7407 2.06029 13.9105 1.49929 13.9739C1.22489 14.0049 1 14.2239 1 14.5C1 14.7761 1.22452 15.0033 1.49957 14.9788Z" fill="#2D50E6"/>
</svg>
