<svg width="16" height="16" viewBox="0 0 16 16" fill="none" xmlns="http://www.w3.org/2000/svg">
<path fill-rule="evenodd" clip-rule="evenodd" d="M2.99868 0.999756C1.89409 0.999751 1 1.8952 1 2.99979V12.9998C1 14.1044 1.89482 14.9998 2.99939 14.9998H7.2457C7.27545 14.9998 7.30496 14.9985 7.33417 14.996H9C9.55228 14.996 10 14.5482 10 13.996V11.496C10 10.6675 10.6716 9.99595 11.5 9.99595H14C14.5523 9.99595 15 9.54824 15 8.99595V2.99977C15 1.8952 14.1068 0.999763 13.0022 0.999764L2.99868 0.999756ZM3 3.49998C3 3.22384 3.22386 2.99998 3.5 2.99998H12.5C12.7761 2.99998 13 3.22384 13 3.49998C13 3.77612 12.7761 3.99998 12.5 3.99998H3.5C3.22386 3.99998 3 3.77612 3 3.49998ZM3.5 4.99998C3.22386 4.99998 3 5.22384 3 5.49998C3 5.77612 3.22386 5.99998 3.5 5.99998H12.5C12.7761 5.99998 13 5.77612 13 5.49998C13 5.22384 12.7761 4.99998 12.5 4.99998H3.5ZM3 7.49998C3 7.22384 3.22386 6.99998 3.5 6.99998H12.5C12.7761 6.99998 13 7.22384 13 7.49998C13 7.77612 12.7761 7.99998 12.5 7.99998H3.5C3.22386 7.99998 3 7.77612 3 7.49998ZM3.5 8.99998C3.22386 8.99998 3 9.22384 3 9.49998C3 9.77612 3.22386 9.99998 3.5 9.99998H7.5C7.77614 9.99998 8 9.77612 8 9.49998C8 9.22384 7.77614 8.99998 7.5 8.99998H3.5Z" fill="#2D50E6"/>
<path d="M11 11.996V14.4988C11 14.9443 11.5386 15.1674 11.8536 14.8524L14.8564 11.8495C15.1714 11.5345 14.9483 10.996 14.5029 10.996H12C11.4477 10.996 11 11.4437 11 11.996Z" fill="#2D50E6"/>
</svg>
