<svg width="16" height="16" viewBox="0 0 16 16" fill="none" xmlns="http://www.w3.org/2000/svg">
<path fill-rule="evenodd" clip-rule="evenodd" d="M8 15C11.866 15 15 11.866 15 8C15 4.13401 11.866 1 8 1C4.13401 1 1 4.13401 1 8C1 11.866 4.13401 15 8 15ZM4.08117 10.4595C3.93718 10.177 3.98808 9.84335 4.26074 9.6814C4.75358 9.38868 5.81909 9 8.00262 9C10.1861 9 11.2517 9.38867 11.7446 9.68138C12.0173 9.84334 12.0682 10.1771 11.9242 10.4595C11.1509 11.9763 9.68447 13 8.0027 13C6.3209 13 4.85444 11.9763 4.08117 10.4595ZM7 6.5C7 7.32843 6.55228 8 6 8C5.44772 8 5 7.32843 5 6.5C5 5.67157 5.44772 5 6 5C6.55228 5 7 5.67157 7 6.5ZM10 8C10.5523 8 11 7.32843 11 6.5C11 5.67157 10.5523 5 10 5C9.44771 5 9 5.67157 9 6.5C9 7.32843 9.44771 8 10 8Z" fill="#2D50E6"/>
</svg>
