<svg width="16" height="16" viewBox="0 0 16 16" fill="none" xmlns="http://www.w3.org/2000/svg">
<path d="M3 4C3 3.44772 3.44772 3 4 3C4.55228 3 5 3.44772 5 4C5 4.55228 4.55228 5 4 5C3.44772 5 3 4.55228 3 4Z" fill="#2D50E6"/>
<path fill-rule="evenodd" clip-rule="evenodd" d="M3 1C1.89543 1 1 1.89543 1 3V5C1 6.10457 1.89543 7 3 7H5C6.10457 7 7 6.10457 7 5V3C7 1.89543 6.10457 1 5 1H3ZM2 3.33333C2 2.59695 2.59695 2 3.33333 2H4.66667C5.40305 2 6 2.59695 6 3.33333V4.66667C6 5.40305 5.40305 6 4.66667 6H3.33333C2.59695 6 2 5.40305 2 4.66667V3.33333Z" fill="#2D50E6"/>
<path d="M4 11C3.44772 11 3 11.4477 3 12C3 12.5523 3.44772 13 4 13C4.55228 13 5 12.5523 5 12C5 11.4477 4.55228 11 4 11Z" fill="#2D50E6"/>
<path fill-rule="evenodd" clip-rule="evenodd" d="M3 9C1.89543 9 1 9.89543 1 11V13C1 14.1046 1.89543 15 3 15H5C6.10457 15 7 14.1046 7 13V11C7 9.89543 6.10457 9 5 9H3ZM3.33333 10C2.59695 10 2 10.597 2 11.3333V12.6667C2 13.403 2.59695 14 3.33333 14H4.66667C5.40305 14 6 13.403 6 12.6667V11.3333C6 10.597 5.40305 10 4.66667 10H3.33333Z" fill="#2D50E6"/>
<path d="M12 3C11.4477 3 11 3.44772 11 4C11 4.55228 11.4477 5 12 5C12.5523 5 13 4.55228 13 4C13 3.44772 12.5523 3 12 3Z" fill="#2D50E6"/>
<path fill-rule="evenodd" clip-rule="evenodd" d="M11 1C9.89543 1 9 1.89543 9 3V5C9 6.10457 9.89543 7 11 7H13C14.1046 7 15 6.10457 15 5V3C15 1.89543 14.1046 1 13 1H11ZM11.3333 2C10.597 2 10 2.59695 10 3.33333V4.66667C10 5.40305 10.597 6 11.3333 6H12.6667C13.403 6 14 5.40305 14 4.66667V3.33333C14 2.59695 13.403 2 12.6667 2H11.3333Z" fill="#2D50E6"/>
<path d="M9 10C9 9.44772 9.44772 9 10 9C10.5523 9 11 9.44772 11 10C11 10.5523 10.5523 11 10 11C9.44772 11 9 10.5523 9 10Z" fill="#2D50E6"/>
<path d="M12 11C11.4477 11 11 11.4477 11 12C11 12.5523 11.4477 13 12 13C12.5523 13 13 12.5523 13 12C13 11.4477 12.5523 11 12 11Z" fill="#2D50E6"/>
<path d="M9 14C9 13.4477 9.44772 13 10 13C10.5523 13 11 13.4477 11 14C11 14.5523 10.5523 15 10 15C9.44772 15 9 14.5523 9 14Z" fill="#2D50E6"/>
<path d="M14 9C13.4477 9 13 9.44772 13 10C13 10.5523 13.4477 11 14 11C14.5523 11 15 10.5523 15 10C15 9.44772 14.5523 9 14 9Z" fill="#2D50E6"/>
<path d="M13 14C13 13.4477 13.4477 13 14 13C14.5523 13 15 13.4477 15 14C15 14.5523 14.5523 15 14 15C13.4477 15 13 14.5523 13 14Z" fill="#2D50E6"/>
</svg>
