<svg width="16" height="16" viewBox="0 0 16 16" fill="none" xmlns="http://www.w3.org/2000/svg">
<path fill-rule="evenodd" clip-rule="evenodd" d="M15 7.5C15 11.0899 11.866 14 8 14C7.52876 14 7.0684 13.9568 6.62326 13.8743C5.16667 13.7512 3.07481 14.5143 1.97337 14.9724C1.71594 15.0795 1.43055 14.8057 1.52254 14.5425C1.88444 13.5071 2.38957 11.6572 1.84075 10.5913C1.3045 9.67191 1 8.61897 1 7.5C1 3.91015 4.13401 1 8 1C11.866 1 15 3.91015 15 7.5ZM8.36049 8.43419C8.30543 8.7205 8.10721 8.88568 7.78786 8.88568C7.41345 8.88568 7.17119 8.64342 7.17119 8.28002V8.15155C7.17119 7.5936 7.51256 7.22653 8.03747 6.8925C8.60643 6.53277 8.84502 6.30519 8.84502 5.8537C8.84502 5.38385 8.43758 5.06817 7.91267 5.06817C7.47219 5.06817 7.14182 5.26639 6.97664 5.75092C6.87386 5.99685 6.64628 6.13634 6.37465 6.13634C6.00391 6.13634 5.78 5.90509 5.78 5.56371C5.78 5.39119 5.82405 5.21133 5.91214 5.03513C6.23149 4.4001 7.00234 4 7.97874 4C9.28918 4 10.2179 4.69376 10.2179 5.83167C10.2179 6.52543 9.86914 7.00262 9.19374 7.42108C8.58073 7.80283 8.42289 7.97168 8.3715 8.34609C8.36967 8.35894 8.36783 8.37454 8.366 8.39014C8.36416 8.40574 8.36233 8.42134 8.36049 8.43419ZM8.56605 10.2695C8.56605 10.677 8.22468 11 7.80255 11C7.38409 11 7.03904 10.677 7.03904 10.2695C7.03904 9.86209 7.38409 9.5354 7.80255 9.5354C8.22468 9.5354 8.56605 9.86209 8.56605 10.2695Z" fill="#2D50E6"/>
</svg>
