<svg width="16" height="16" viewBox="0 0 16 16" fill="none" xmlns="http://www.w3.org/2000/svg">
<path d="M2.5 8C2.5 4.96243 4.96243 2.5 8 2.5C10.1366 2.5 11.99 3.71877 12.9005 5.5H9.75C9.33579 5.5 9 5.83579 9 6.25C9 6.66421 9.33579 7 9.75 7H14.25C14.6642 7 15 6.66421 15 6.25V1.75C15 1.33579 14.6642 1 14.25 1C13.8358 1 13.5 1.33579 13.5 1.75V3.66966C12.2184 2.04398 10.2316 1 8 1C4.13401 1 1 4.13401 1 8C1 11.866 4.13401 15 8 15C10.3535 15 12.5803 14.1152 13.8749 12.1648C14.1039 11.8197 14.0099 11.3542 13.6648 11.1251C13.3197 10.8961 12.8542 10.9901 12.6251 11.3352C11.681 12.7576 9.99795 13.5 8 13.5C4.96243 13.5 2.5 11.0376 2.5 8Z" fill="#2D50E6"/>
</svg>
