<svg width="16" height="16" viewBox="0 0 16 16" fill="none" xmlns="http://www.w3.org/2000/svg">
<path fill-rule="evenodd" clip-rule="evenodd" d="M14.8536 1.14645C15.0488 1.34171 15.0488 1.65829 14.8536 1.85355L1.85355 14.8536C1.65829 15.0488 1.34171 15.0488 1.14645 14.8536C0.951184 14.6583 0.951184 14.3417 1.14645 14.1464L2.29289 13H2C1.44772 13 1 12.5523 1 12V11.5C1 11.2239 1.22733 10.9936 1.49494 11.0617C2.1624 11.2316 2.69577 11.7372 2.90469 12.3882L3.66733 11.6256C3.24163 10.8011 2.44486 10.1993 1.49791 10.0411C1.22554 9.99563 1 9.77614 1 9.5V6.5C1 6.22386 1.22554 6.00437 1.49791 5.95887C2.75585 5.74875 3.74875 4.75585 3.95887 3.49791C4.00437 3.22554 4.22386 3 4.5 3H11.5C11.71 3 11.8873 3.13046 11.9801 3.31276L14.1464 1.14645C14.3417 0.951184 14.6583 0.951184 14.8536 1.14645ZM9.73827 5.55463C9.24786 5.2054 8.64791 5 8 5C6.34315 5 5 6.34315 5 8C5 8.64791 5.2054 9.24786 5.55463 9.73827L6.27691 9.01598C6.10096 8.71823 6 8.3709 6 8C6 6.89543 6.89543 6 8 6C8.3709 6 8.71823 6.10096 9.01598 6.27691L9.73827 5.55463Z" fill="#2D50E6"/>
<path d="M8 11C7.73133 11 7.4709 10.9647 7.22311 10.8984L5.12155 13H11.5C11.7761 13 11.9956 12.7745 12.0411 12.5021C12.2513 11.2442 13.2442 10.2513 14.5021 10.0411C14.7745 9.99563 15 9.77614 15 9.5V6.5C15 6.22386 14.7745 6.00437 14.5021 5.95887C13.9026 5.85874 13.3634 5.58085 12.9403 5.18123L10.8984 7.22311C10.9647 7.4709 11 7.73133 11 8C11 9.65685 9.65685 11 8 11Z" fill="#2D50E6"/>
<path d="M14.5051 4.93829C14.1803 4.8556 13.8872 4.69342 13.6479 4.47369L14.7653 3.35627C14.9117 3.53021 15 3.7548 15 4V4.5C15 4.77614 14.7727 5.00641 14.5051 4.93829Z" fill="#2D50E6"/>
<path d="M1 4.5C1 4.77614 1.22733 5.00641 1.49494 4.93829C2.20183 4.75833 2.75833 4.20183 2.93829 3.49494C3.00641 3.22733 2.77614 3 2.5 3H2C1.44772 3 1 3.44772 1 4V4.5Z" fill="#2D50E6"/>
<path d="M14.5051 11.0617C14.7727 10.9936 15 11.2239 15 11.5V12C15 12.5523 14.5523 13 14 13H13.5C13.2239 13 12.9936 12.7727 13.0617 12.5051C13.2417 11.7982 13.7982 11.2417 14.5051 11.0617Z" fill="#2D50E6"/>
<path d="M9.99622 8.12524C9.93416 9.13011 9.13011 9.93416 8.12524 9.99622L9.99622 8.12524Z" fill="#2D50E6"/>
</svg>
