<svg width="16" height="16" viewBox="0 0 16 16" fill="none" xmlns="http://www.w3.org/2000/svg">
<path d="M14.8536 1.85355C15.0488 1.65829 15.0488 1.34171 14.8536 1.14645C14.6583 0.951184 14.3417 0.951184 14.1464 1.14645L11.7329 3.55995C11.1548 2.06236 9.70148 1 8 1C5.79086 1 4 2.79086 4 5V11C4 11.0952 4.00332 11.1895 4.00986 11.283L1.14645 14.1464C0.951184 14.3417 0.951184 14.6583 1.14645 14.8536C1.34171 15.0488 1.65829 15.0488 1.85355 14.8536L14.8536 1.85355Z" fill="#2D50E6"/>
<path d="M4.76636 13.355L12 6.12131V11C12 13.2091 10.2091 15 8 15C6.67123 15 5.49378 14.3521 4.76636 13.355Z" fill="#2D50E6"/>
</svg>
