<svg width="16" height="16" viewBox="0 0 16 16" fill="none" xmlns="http://www.w3.org/2000/svg">
<path d="M11.2805 4.01244C11 2.29954 9.63797 1 8.00003 1C6.15908 1 4.66669 2.64162 4.66669 4.66667C4.66669 6.18093 5.50117 7.85357 6.69187 8.60102L4.5798 10.7131C3.35038 11.2827 2.45576 12.1511 2.13238 13.1605L1.14645 14.1464C0.951184 14.3417 0.951184 14.6583 1.14645 14.8536C1.34171 15.0488 1.65822 15.0488 1.85348 14.8536L14.8535 1.85355C15.0487 1.65829 15.0487 1.34171 14.8535 1.14645C14.6582 0.951184 14.3417 0.951184 14.1464 1.14645L11.2805 4.01244Z" fill="#2D50E6"/>
<path d="M3.12137 15H12.9774C13.5422 15 14 14.5422 13.9999 13.9774C13.9819 11.8055 11.3674 10.0435 8.12058 10.0008L3.12137 15Z" fill="#2D50E6"/>
</svg>
