<svg width="16" height="16" viewBox="0 0 16 16" fill="none" xmlns="http://www.w3.org/2000/svg">
<path d="M9 1.4971V3.99999C9 4.55227 9.44772 4.99999 10 4.99999H10.2929L9.3054 5.98748C8.56891 5.89207 8 5.26247 8 4.49999V1.99999C8 1.4477 7.55228 0.999989 7 0.999989H4C3.44772 0.999989 3 1.4477 3 1.99999V12.2929L1.14645 14.1464C0.951184 14.3417 0.951184 14.6583 1.14645 14.8535C1.34171 15.0488 1.65829 15.0488 1.85355 14.8535L14.8536 1.85354C15.0488 1.65828 15.0488 1.3417 14.8536 1.14644C14.6583 0.951173 14.3417 0.951173 14.1464 1.14644L12.0014 3.29144L9.85355 1.14354C9.53857 0.82856 9 1.05164 9 1.4971Z" fill="#2D50E6"/>
<path d="M3.35621 14.7652L12.1149 6.00652C12.6131 6.06351 13 6.48656 13 6.99999V14C13 14.5523 12.5523 15 12 15H4C3.75477 15 3.53016 14.9117 3.35621 14.7652Z" fill="#2D50E6"/>
</svg>
