<svg width="16" height="16" viewBox="0 0 16 16" fill="none" xmlns="http://www.w3.org/2000/svg">
<path fill-rule="evenodd" clip-rule="evenodd" d="M11.6667 3.62619L14.1464 1.14645C14.3417 0.951184 14.6583 0.951184 14.8536 1.14645C15.0488 1.34171 15.0488 1.65829 14.8536 1.85355L1.85355 14.8536C1.65829 15.0488 1.34171 15.0488 1.14645 14.8536C0.951184 14.6583 0.951184 14.3417 1.14645 14.1464L3 12.2929V8.00001C3 7.44772 2.55228 7.00001 2 7.00001H1.50095C1.01396 7.00001 0.814328 6.37467 1.21124 6.09249L7.41564 1.18167C7.76238 0.935172 8.22712 0.935036 8.574 1.18134L11.6667 3.62619Z" fill="#2D50E6"/>
<path d="M9.44608 8.67524L13.2464 4.87495L14.7863 6.09232C15.1835 6.37435 14.984 7.00001 14.4969 7.00001H14C13.4477 7.00001 13 7.44772 13 8.00001V13H9.5V9.00001C9.5 8.88632 9.48103 8.77707 9.44608 8.67524Z" fill="#2D50E6"/>
<path d="M5.12132 13L6.5 11.6213V13H5.12132Z" fill="#2D50E6"/>
</svg>
