<svg width="16" height="16" viewBox="0 0 16 16" fill="none" xmlns="http://www.w3.org/2000/svg">
<path d="M14.8536 1.85355C15.0488 1.65829 15.0488 1.34171 14.8536 1.14645C14.6583 0.951184 14.3417 0.951184 14.1464 1.14645L12.2929 3H2C1.44772 3 1 3.44772 1 4V4.5C1 4.77614 1.22386 5 1.5 5H10.2929L9.29289 6H1.5C1.22386 6 1 6.22386 1 6.5V12C1 12.5523 1.44772 13 2 13H2.29289L1.14645 14.1464C0.951184 14.3417 0.951184 14.6583 1.14645 14.8536C1.34171 15.0488 1.65829 15.0488 1.85355 14.8536L14.8536 1.85355Z" fill="#2D50E6"/>
<path fill-rule="evenodd" clip-rule="evenodd" d="M12.1216 6L5.12155 13H14C14.5523 13 15 12.5523 15 12V6.5C15 6.22386 14.7761 6 14.5 6H12.1216ZM10.5 10C10.2239 10 10 10.2239 10 10.5C10 10.7761 10.2239 11 10.5 11H12.5C12.7761 11 13 10.7761 13 10.5C13 10.2239 12.7761 10 12.5 10H10.5Z" fill="#2D50E6"/>
<path d="M14.5 5H13.1216L14.7653 3.35627C14.9117 3.53021 15 3.7548 15 4V4.5C15 4.77614 14.7761 5 14.5 5Z" fill="#2D50E6"/>
</svg>
