<svg width="16" height="16" viewBox="0 0 16 16" fill="none" xmlns="http://www.w3.org/2000/svg">
<g clip-path="url(#clip0_598_90)">
<path d="M11.5 2C12.6045 2 13.5 2.89543 13.5 4V7.58579L14.29 6.79C14.6805 6.39948 15.3194 6.39948 15.71 6.79C16.1005 7.18052 16.1005 7.81948 15.71 8.21L13.2071 10.7071C13.0195 10.8946 12.7652 11 12.5 11C12.2347 11 11.9804 10.8946 11.7929 10.7071L9.28996 8.21C8.89944 7.81948 8.89944 7.18052 9.28996 6.79C9.68049 6.39948 10.3194 6.39948 10.71 6.79L11.5 7.58579V4.5C11.5 4.22386 11.2761 4 11 4H6.99996C6.44768 4 5.99996 3.55228 5.99996 3C5.99996 2.44772 6.44768 2 6.99996 2H11.5Z" fill="#2D50E6"/>
<path d="M4.50289 14C3.39832 14 2.50289 13.1046 2.50289 12V8.41421L1.71289 9.21C1.32237 9.60052 0.683419 9.60052 0.292894 9.21C-0.0976312 8.81948 -0.0976312 8.18052 0.292894 7.79L2.79579 5.29289C2.98332 5.10536 3.23768 5 3.50289 5C3.76811 5 4.02246 5.10536 4.21 5.29289L6.71289 7.79C7.10342 8.18052 7.10342 8.81948 6.71289 9.21C6.32237 9.60052 5.68342 9.60052 5.29289 9.21L4.50289 8.41421V11.5C4.50289 11.7761 4.72675 12 5.00289 12H9.00289C9.55518 12 10.0029 12.4477 10.0029 13C10.0029 13.5523 9.55518 14 9.00289 14H4.50289Z" fill="#2D50E6"/>
</g>
<defs>
<clipPath id="clip0_598_90">
<rect width="16" height="16" fill="white"/>
</clipPath>
</defs>
</svg>
