<svg width="16" height="16" viewBox="0 0 16 16" fill="none" xmlns="http://www.w3.org/2000/svg">
<path d="M13.5 8C13.5 4.96243 11.0376 2.5 8 2.5C5.86339 2.5 4.01002 3.71877 3.09947 5.5H6.25C6.66421 5.5 7 5.83579 7 6.25C7 6.66421 6.66421 7 6.25 7H1.75C1.33579 7 1 6.66421 1 6.25V1.75C1 1.33579 1.33579 1 1.75 1C2.16421 1 2.5 1.33579 2.5 1.75V3.66966C3.78155 2.04398 5.76838 1 8 1C11.866 1 15 4.13401 15 8C15 11.866 11.866 15 8 15C5.64655 15 3.41969 14.1152 2.12512 12.1648C1.89606 11.8197 1.99013 11.3542 2.33524 11.1251C2.68035 10.8961 3.14581 10.9901 3.37488 11.3352C4.31896 12.7576 6.00205 13.5 8 13.5C11.0376 13.5 13.5 11.0376 13.5 8Z" fill="#2D50E6"/>
</svg>
