<svg width="16" height="16" viewBox="0 0 16 16" fill="none" xmlns="http://www.w3.org/2000/svg">
<path fill-rule="evenodd" clip-rule="evenodd" d="M6.73495 1H9.26534C9.41408 1 9.55511 1.06623 9.6501 1.18069L10.8835 2.6669C11.0422 2.85812 11.0364 3.13685 10.8699 3.32129L10.3852 3.85804C10.7681 4.29728 11 4.87156 11 5.5V5.99963C12.2144 6.91184 13 8.36418 13 10C13 12.7614 10.7614 15 8 15C5.23858 15 3 12.7614 3 10C3 8.36418 3.78555 6.91184 5 5.99963V5.5C5 4.87152 5.23191 4.29721 5.61482 3.85797L5.13033 3.32129C4.96382 3.13685 4.95803 2.85813 5.11671 2.66692L6.35019 1.18068C6.44518 1.06622 6.5862 1 6.73495 1ZM6.00237 5.41501C6.01917 5.11418 6.12462 4.83703 6.29301 4.60923L6.7809 5.14967C6.5121 5.21702 6.25193 5.30613 6.00237 5.41501ZM9.99763 5.41501C9.98083 5.11419 9.87539 4.83705 9.70701 4.60925L9.21908 5.14967C9.48789 5.21702 9.74806 5.30612 9.99763 5.41501ZM7.56923 6.02292C5.56267 6.23778 4 7.9364 4 10C4 12.2091 5.79086 14 8 14C10.2091 14 12 12.2091 12 10C12 7.93636 10.4373 6.23771 8.43066 6.02291C8.28918 6.00777 8.1455 6 8 6C7.85446 6 7.71074 6.00777 7.56923 6.02292Z" fill="#2D50E6"/>
</svg>
