<svg width="16" height="16" viewBox="0 0 16 16" fill="none" xmlns="http://www.w3.org/2000/svg">
<path fill-rule="evenodd" clip-rule="evenodd" d="M5.5 2C5.77614 2 6 2.22386 6 2.5V4H10V2.5C10 2.22386 10.2239 2 10.5 2C10.7761 2 11 2.22386 11 2.5V4C12.1046 4 13 4.89543 13 6C14.1046 6 15 6.89543 15 8C15 9.10457 14.1046 10 13 10V11C13 12.1046 12.1046 13 11 13H5C3.89543 13 3 12.1046 3 11V10C1.89543 10 1 9.10457 1 8C1 6.89543 1.89543 6 3 6C3 4.89543 3.89543 4 5 4V2.5C5 2.22386 5.22386 2 5.5 2ZM6.5 8C6.77614 8 7 7.55229 7 7C7 6.44772 6.77614 6 6.5 6C6.22386 6 6 6.44772 6 7C6 7.55229 6.22386 8 6.5 8ZM10 7C10 7.55229 9.77614 8 9.5 8C9.22386 8 9 7.55229 9 7C9 6.44772 9.22386 6 9.5 6C9.77614 6 10 6.44772 10 7ZM6.33346 9.36355C6.12769 9.17938 5.8116 9.19689 5.62743 9.40266C5.44327 9.60842 5.46078 9.92452 5.66654 10.1087C6.28543 10.6626 7.10391 11 8 11C8.89609 11 9.71457 10.6626 10.3335 10.1087C10.5392 9.92452 10.5567 9.60842 10.3726 9.40266C10.1884 9.19689 9.87231 9.17938 9.66654 9.36355C9.22391 9.75971 8.64062 10 8 10C7.35938 10 6.77609 9.75971 6.33346 9.36355Z" fill="#2D50E6"/>
</svg>
