<svg width="16" height="16" viewBox="0 0 16 16" fill="none" xmlns="http://www.w3.org/2000/svg">
<path d="M9 8C9 8.55228 8.55228 9 8 9C7.44772 9 7 8.55228 7 8C7 7.44772 7.44772 7 8 7C8.55228 7 9 7.44772 9 8Z" fill="#2D50E6"/>
<path fill-rule="evenodd" clip-rule="evenodd" d="M4 2C2.89543 2 2 2.89543 2 4V12C2 13.1046 2.89543 14 4 14H12C13.1046 14 14 13.1046 14 12V4C14 2.89543 13.1046 2 12 2H4ZM6 8C6 7.06808 6.63739 6.28503 7.5 6.06301V3.5C7.5 3.22386 7.72386 3 8 3C8.27614 3 8.5 3.22386 8.5 3.5V6.06301C9.36261 6.28503 10 7.06808 10 8C10 8.25342 9.95287 8.49583 9.86689 8.71894L11.7908 10.0931C12.0155 10.2536 12.0675 10.5659 11.907 10.7906C11.7465 11.0153 11.4342 11.0674 11.2095 10.9069L9.28528 9.5324C8.93769 9.82424 8.48937 10 8 10C7.51065 10 7.06235 9.82426 6.71477 9.53244L4.79062 10.9068C4.56591 11.0673 4.25364 11.0153 4.09313 10.7906C3.93263 10.5659 3.98467 10.2536 4.20938 10.0931L6.13313 8.71899C6.04714 8.49587 6 8.25344 6 8ZM6.5 12C6.22386 12 6 12.2239 6 12.5C6 12.7761 6.22386 13 6.5 13H9.5C9.77614 13 10 12.7761 10 12.5C10 12.2239 9.77614 12 9.5 12H6.5Z" fill="#2D50E6"/>
</svg>
