<svg width="16" height="16" viewBox="0 0 16 16" fill="none" xmlns="http://www.w3.org/2000/svg">
<path fill-rule="evenodd" clip-rule="evenodd" d="M9.61757 11.0317C8.73152 11.6424 7.65752 12 6.5 12C3.46243 12 1 9.53757 1 6.5C1 3.46243 3.46243 1 6.5 1C9.53757 1 12 3.46243 12 6.5C12 7.65748 11.6424 8.73145 11.0318 9.61748L14.7072 13.2929C15.0977 13.6834 15.0977 14.3166 14.7072 14.7071C14.3167 15.0976 13.6835 15.0976 13.293 14.7071L9.61757 11.0317ZM11 6.5C11 8.98528 8.98528 11 6.5 11C4.01472 11 2 8.98528 2 6.5C2 4.01472 4.01472 2 6.5 2C8.98528 2 11 4.01472 11 6.5Z" fill="#2D50E6"/>
</svg>
