<svg width="16" height="16" viewBox="0 0 16 16" fill="none" xmlns="http://www.w3.org/2000/svg">
<path d="M3.44721 1.10557C3.13723 0.95058 2.76909 0.967144 2.47427 1.14935C2.17945 1.33156 2 1.65342 2 2V6.07987C2 6.59996 2.39866 7.03322 2.91695 7.07641L14 8L2.91695 8.92359C2.39866 8.96678 2 9.40004 2 9.92013V14C2 14.3466 2.17945 14.6684 2.47427 14.8507C2.76909 15.0329 3.13723 15.0494 3.44721 14.8944L15.4472 8.89443C15.786 8.72504 16 8.37877 16 8C16 7.62123 15.786 7.27497 15.4472 7.10557L3.44721 1.10557Z" fill="#2D50E6"/>
</svg>
