<svg width="16" height="16" viewBox="0 0 16 16" fill="none" xmlns="http://www.w3.org/2000/svg">
<path fill-rule="evenodd" clip-rule="evenodd" d="M7.46967 0.21967C7.76256 -0.0732233 8.23744 -0.0732233 8.53033 0.21967L11.0303 2.71967C11.3232 3.01256 11.3232 3.48744 11.0303 3.78033C10.7374 4.07322 10.2626 4.07322 9.96967 3.78033L8.75 2.56066V5H7.25V2.56066L6.03033 3.78033C5.73744 4.07322 5.26256 4.07322 4.96967 3.78033C4.67678 3.48744 4.67678 3.01256 4.96967 2.71967L7.46967 0.21967ZM7.25 5H3C1.89543 5 1 5.89543 1 7V12C1 13.1046 1.89543 14 3 14H13C14.1046 14 15 13.1046 15 12V7C15 5.89543 14.1046 5 13 5H8.75V9.25C8.75 9.66421 8.41421 10 8 10C7.58579 10 7.25 9.66421 7.25 9.25V5Z" fill="#2D50E6"/>
</svg>
