<svg width="16" height="16" viewBox="0 0 16 16" fill="none" xmlns="http://www.w3.org/2000/svg">
<path fill-rule="evenodd" clip-rule="evenodd" d="M8 1C4.13379 1 1 4.13403 1 8V11.5C1 11.8148 1.14819 12.1111 1.4 12.3L2.86297 13.3972C2.95366 13.4652 3.03213 13.5482 3.09502 13.6425L3.70313 14.5547C3.8886 14.8329 4.20083 15 4.53518 15H5V13.5C5 13.2239 5.22386 13 5.5 13C5.77614 13 6 13.2239 6 13.5V15H7.5V13.5C7.5 13.2239 7.72386 13 8 13C8.27614 13 8.5 13.2239 8.5 13.5V15H10V13.5C10 13.2239 10.2239 13 10.5 13C10.7761 13 11 13.2239 11 13.5V15H11.4648C11.7992 15 12.1114 14.8329 12.2969 14.5547L12.905 13.6425C12.9679 13.5482 13.0463 13.4652 13.137 13.3972L14.6 12.3C14.8518 12.1111 15 11.8148 15 11.5V8C15 4.13403 11.8662 1 8 1ZM7.92356 9C7.67914 9 7.47055 9.17671 7.43037 9.4178L7.09703 11.4178C7.04624 11.7226 7.28126 12 7.59023 12H8.40977C8.71874 12 8.95376 11.7226 8.90297 11.4178L8.56963 9.4178C8.52945 9.17671 8.32086 9 8.07644 9H7.92356ZM7 8C7 9.10457 6.10457 10 5 10C3.89543 10 3 9.10457 3 8C3 6.89543 3.89543 6 5 6C6.10457 6 7 6.89543 7 8ZM11 10C12.1046 10 13 9.10457 13 8C13 6.89543 12.1046 6 11 6C9.89543 6 9 6.89543 9 8C9 9.10457 9.89543 10 11 10Z" fill="#2D50E6"/>
</svg>
