<svg width="16" height="16" viewBox="0 0 16 16" fill="none" xmlns="http://www.w3.org/2000/svg">
<path fill-rule="evenodd" clip-rule="evenodd" d="M8 1C8.27614 1 8.5 1.22386 8.5 1.5V2.02469C11.0267 2.27555 13 4.40733 13 7C13 9.0245 13.5375 10.2305 13.8244 10.73C13.9262 10.9073 14.1189 11 14.3233 11C14.6971 11 15 11.3029 15 11.6767V12C15 12.5523 14.5523 13 14 13H2C1.44772 13 1 12.5523 1 12V11.6767C1 11.3029 1.30295 11 1.67665 11C1.88114 11 2.0738 10.9073 2.17564 10.73C2.46251 10.2305 3 9.02449 3 7C3 4.40733 4.9733 2.27555 7.5 2.02469V1.5C7.5 1.22386 7.72386 1 8 1ZM6 6.5C6 6.77614 6.22386 7 6.5 7H8.29289L6.14645 9.14645C6.00345 9.28945 5.96067 9.5045 6.03806 9.69134C6.11545 9.87818 6.29777 10 6.5 10H9.5C9.77614 10 10 9.77614 10 9.5C10 9.22386 9.77614 9 9.5 9H7.70711L9.85355 6.85355C9.99655 6.71055 10.0393 6.4955 9.96194 6.30866C9.88455 6.12182 9.70223 6 9.5 6H6.5C6.22386 6 6 6.22386 6 6.5Z" fill="#2D50E6"/>
<path d="M8 15C7.25977 15 6.61341 14.5978 6.26758 14H9.73242C9.38659 14.5978 8.74023 15 8 15Z" fill="#2D50E6"/>
</svg>
