<svg width="16" height="16" viewBox="0 0 16 16" fill="none" xmlns="http://www.w3.org/2000/svg">
<path d="M10.9709 11.5316C10.9873 11.7953 11.2058 12 11.47 12H13.7192C14.3698 12 14.8471 11.3886 14.6894 10.7575L14.3447 9.37873C14.289 9.15615 14.089 9 13.8596 9H11.3457C11.0573 9 10.8287 9.24331 10.8466 9.53116C10.8882 10.1994 10.9395 11.0248 10.9709 11.5316Z" fill="#2D50E6"/>
<path d="M11.2207 8C10.9567 8 10.7381 7.79471 10.7217 7.53119L10.6592 6.53119C10.6412 6.24334 10.8698 6 11.1582 6H13.1096C13.339 6 13.539 6.15615 13.5947 6.37873L13.8447 7.37873C13.9236 7.69431 13.6849 8 13.3596 8H11.2207Z" fill="#2D50E6"/>
<path d="M9.71581 7.46881C9.7338 7.75666 9.5052 8 9.21679 8H6.78319C6.49478 8 6.26617 7.75666 6.28416 7.46881L6.34666 6.46881C6.36313 6.20529 6.58166 6 6.84569 6H9.15429C9.41832 6 9.63684 6.20529 9.65331 6.46881L9.71581 7.46881Z" fill="#2D50E6"/>
<path d="M6.15916 9.46881C6.17563 9.20529 6.39416 9 6.65819 9H9.34179C9.60582 9 9.82434 9.20529 9.84081 9.46881L9.96581 11.4688C9.9838 11.7567 9.7552 12 9.46679 12H6.53319C6.24478 12 6.01617 11.7567 6.03416 11.4688L6.15916 9.46881Z" fill="#2D50E6"/>
<path d="M4.77929 8C5.04332 8 5.26185 7.79471 5.27832 7.53119L5.34082 6.53119C5.35881 6.24334 5.1302 6 4.84179 6H2.89038C2.66094 6 2.46095 6.15615 2.40531 6.37873L2.15531 7.37873C2.07641 7.69431 2.31509 8 2.64038 8H4.77929Z" fill="#2D50E6"/>
<path d="M1.65531 9.37873C1.71095 9.15615 1.91094 9 2.14038 9H4.65429C4.9427 9 5.17131 9.24331 5.15338 9.53116C5.11175 10.1994 5.0605 11.0248 5.02904 11.5316C5.01267 11.7953 4.79415 12 4.53002 12H2.28077C1.6302 12 1.15284 11.3886 1.31062 10.7575L1.65531 9.37873Z" fill="#2D50E6"/>
<path d="M10.5342 4.53119C10.5506 4.79471 10.7692 5 11.0332 5H12.6096C12.9349 5 13.1736 4.69431 13.0947 4.37873C13.039 4.15615 12.839 4 12.6096 4H11.0332C10.7448 4 10.5162 4.24334 10.5342 4.53119Z" fill="#2D50E6"/>
<path d="M9.52064 4.33764C9.53828 4.6253 9.31788 5 9.02968 5H6.9703C6.6821 5 6.4617 4.62529 6.47934 4.33764C6.49551 4.07402 6.70595 4 6.97006 4H9.02992C9.29403 4 9.50447 4.07402 9.52064 4.33764Z" fill="#2D50E6"/>
<path d="M4.96679 4C5.2552 4 5.48381 4.24334 5.46582 4.53119C5.44935 4.79471 5.23082 5 4.96679 5H3.39038C3.06509 5 2.82641 4.69431 2.90531 4.37873C2.96095 4.15615 3.16094 4 3.39038 4H4.96679Z" fill="#2D50E6"/>
</svg>
