<svg width="16" height="16" viewBox="0 0 16 16" fill="none" xmlns="http://www.w3.org/2000/svg">
<path d="M9.52065 4.33764C9.50448 4.07402 9.29404 4 9.02993 4H6.97007C6.70596 4 6.49552 4.07402 6.47935 4.33764C6.46171 4.62529 6.68211 5 6.97031 5H9.02969C9.31789 5 9.53829 4.6253 9.52065 4.33764Z" fill="#2D50E6"/>
<path d="M11.0332 5C10.7692 5 10.5506 4.79471 10.5342 4.53119C10.5162 4.24334 10.7448 4 11.0332 4H12.5C12.7232 4 12.9194 4.14799 12.9808 4.36264C13.072 4.68205 12.8322 5 12.5 5H11.0332Z" fill="#2D50E6"/>
<path d="M9.65333 6.46881C9.63686 6.20529 9.41833 6 9.1543 6H6.8457C6.58167 6 6.36314 6.20529 6.34667 6.46881L6.28417 7.46881C6.26618 7.75666 6.49479 8 6.7832 8H9.2168C9.50521 8 9.73382 7.75666 9.71583 7.46881L9.65333 6.46881Z" fill="#2D50E6"/>
<path d="M11.2207 8C10.9567 8 10.7381 7.79471 10.7217 7.53119L10.6592 6.53119C10.6412 6.24334 10.8698 6 11.1582 6H13.0714C13.2947 6 13.4909 6.14799 13.5522 6.36264L13.8379 7.36264C13.9292 7.68205 13.6893 8 13.3571 8H11.2207Z" fill="#2D50E6"/>
<path d="M9.84083 9.46881C9.82436 9.20529 9.60583 9 9.3418 9H6.6582C6.39417 9 6.17564 9.20529 6.15917 9.46881L6.03417 11.4688C6.01618 11.7567 6.24479 12 6.5332 12H9.4668C9.75521 12 9.98382 11.7567 9.96583 11.4688L9.84083 9.46881Z" fill="#2D50E6"/>
<path d="M11.47 12C11.2058 12 10.9873 11.7953 10.971 11.5316C10.9395 11.0248 10.8882 10.1994 10.8466 9.53116C10.8287 9.24331 11.0573 9 11.3457 9H13.9286C14.1518 9 14.348 9.14799 14.4093 9.36264L14.9808 11.3626C15.0239 11.5135 14.9937 11.6758 14.8992 11.8011C14.8047 11.9264 14.6569 12 14.5 12H11.47Z" fill="#2D50E6"/>
<path d="M3.5 4H4.9668C5.25521 4 5.48382 4.24334 5.46583 4.53119C5.44936 4.79471 5.23083 5 4.9668 5H3.5C3.16781 5 2.92798 4.68205 3.01924 4.36264C3.08057 4.14799 3.27676 4 3.5 4Z" fill="#2D50E6"/>
<path d="M2.44781 6.36264C2.50914 6.14799 2.70534 6 2.92858 6H4.8418C5.13021 6 5.35882 6.24334 5.34083 6.53119L5.27833 7.53119C5.26186 7.79471 5.04333 8 4.7793 8H2.64286C2.31067 8 2.07084 7.68205 2.1621 7.36264L2.44781 6.36264Z" fill="#2D50E6"/>
<path d="M1.59067 9.36264C1.652 9.14799 1.84819 9 2.07143 9H4.6543C4.94271 9 5.17132 9.24331 5.15339 9.53116C5.11176 10.1994 5.06051 11.0248 5.02905 11.5316C5.01268 11.7953 4.79416 12 4.53003 12H1.5C1.34311 12 1.19531 11.9264 1.10083 11.8011C1.00635 11.6758 0.97614 11.5135 1.01924 11.3626L1.59067 9.36264Z" fill="#2D50E6"/>
</svg>
