<svg width="16" height="16" viewBox="0 0 16 16" fill="none" xmlns="http://www.w3.org/2000/svg">
<path d="M2 7C2 5.89543 2.89543 5 4 5H4.22919C4.72528 5 5.20366 4.81563 5.57144 4.48269L8.16444 2.13532C8.48587 1.84434 9 2.07242 9 2.50599V13.5042C9 13.9382 8.48501 14.1662 8.16378 13.8743L5.57203 11.5197C5.20394 11.1853 4.72447 11 4.22715 11H4C2.89543 11 2 10.1046 2 9V7Z" fill="#2D50E6"/>
<path d="M10.0548 2.87212C10.1805 2.62625 10.4817 2.52881 10.7276 2.65451C12.6691 3.64699 14 5.66763 14 8C14 10.3324 12.6691 12.353 10.7276 13.3455C10.4817 13.4712 10.1805 13.3738 10.0548 13.1279C9.92911 12.882 10.0265 12.5808 10.2724 12.4551C11.8926 11.6269 13 9.94232 13 8C13 6.05768 11.8926 4.37314 10.2724 3.54491C10.0265 3.41922 9.92911 3.118 10.0548 2.87212Z" fill="#2D50E6"/>
<path d="M10 5.52284C10 5.08427 10.4712 4.82426 10.7861 5.12977C11.5348 5.85596 12 6.87223 12 7.99705C12 9.12187 11.5348 10.1381 10.7861 10.8643C10.4712 11.1698 10 10.9098 10 10.4713V5.52284Z" fill="#2D50E6"/>
</svg>
