<svg width="16" height="16" viewBox="0 0 16 16" fill="none" xmlns="http://www.w3.org/2000/svg">
<path d="M12.3148 1.20048C12.1901 0.933172 11.8099 0.933172 11.6852 1.20048L11.4288 1.7499C11.0837 2.48933 10.4893 3.08368 9.7499 3.42877L9.20048 3.68519C8.93317 3.80995 8.93317 4.19005 9.20048 4.31481L9.7499 4.57122C10.4893 4.91631 11.0837 5.51067 11.4288 6.25009L11.6852 6.79952C11.8099 7.06683 12.1901 7.06683 12.3148 6.79952L12.5712 6.25009C12.9163 5.51067 13.5107 4.91631 14.2501 4.57122L14.7995 4.31481C15.0668 4.19005 15.0668 3.80995 14.7995 3.68519L14.2501 3.42877C13.5107 3.08368 12.9163 2.48933 12.5712 1.7499L12.3148 1.20048Z" fill="#2D50E6"/>
<path d="M6.52468 4.33414C6.31676 3.88862 5.68324 3.88862 5.47532 4.33414L5.04796 5.24984C4.47281 6.48221 3.48221 7.47281 2.24984 8.04796L1.33414 8.47532C0.88862 8.68324 0.88862 9.31676 1.33414 9.52468L2.24984 9.95204C3.48221 10.5272 4.47281 11.5178 5.04796 12.7502L5.47532 13.6659C5.68324 14.1114 6.31676 14.1114 6.52468 13.6659L6.95204 12.7502C7.52719 11.5178 8.51779 10.5272 9.75016 9.95204L10.6659 9.52468C11.1114 9.31676 11.1114 8.68324 10.6659 8.47532L9.75016 8.04796C8.51779 7.47281 7.52719 6.48221 6.95204 5.24984L6.52468 4.33414Z" fill="#2D50E6"/>
<path d="M11.7901 11.1337C11.8733 10.9554 12.1267 10.9554 12.2099 11.1337L12.3808 11.4999C12.6109 11.9929 13.0071 12.3891 13.5001 12.6192L13.8663 12.7901C14.0446 12.8733 14.0446 13.1267 13.8663 13.2099L13.5001 13.3808C13.0071 13.6109 12.6109 14.0071 12.3808 14.5001L12.2099 14.8663C12.1267 15.0446 11.8733 15.0446 11.7901 14.8663L11.6192 14.5001C11.3891 14.0071 10.9929 13.6109 10.4999 13.3808L10.1337 13.2099C9.95545 13.1267 9.95545 12.8733 10.1337 12.7901L10.4999 12.6192C10.9929 12.3891 11.3891 11.9929 11.6192 11.4999L11.7901 11.1337Z" fill="#2D50E6"/>
</svg>
