<svg width="16" height="16" viewBox="0 0 16 16" fill="none" xmlns="http://www.w3.org/2000/svg">
<path fill-rule="evenodd" clip-rule="evenodd" d="M8 2C12.4183 2 16 5.58172 16 10C16 12 13 14 8 14C3 14 0 12 0 10C0 5.58172 3.58172 2 8 2ZM2.5 8C2.77614 8 3 7.77614 3 7.5C3 7.22386 2.77614 7 2.5 7C2.22386 7 2 7.22386 2 7.5C2 7.77614 2.22386 8 2.5 8ZM13 7.5C13 7.77614 13.2239 8 13.5 8C13.7761 8 14 7.77614 14 7.5C14 7.22386 13.7761 7 13.5 7C13.2239 7 13 7.22386 13 7.5ZM4.5 5.5C4.77614 5.5 5 5.27614 5 5C5 4.72386 4.77614 4.5 4.5 4.5C4.22386 4.5 4 4.72386 4 5C4 5.27614 4.22386 5.5 4.5 5.5ZM11 5C11 5.27614 11.2239 5.5 11.5 5.5C11.7761 5.5 12 5.27614 12 5C12 4.72386 11.7761 4.5 11.5 4.5C11.2239 4.5 11 4.72386 11 5ZM8 11C8.55229 11 9 10.5523 9 10C9 7.44772 8.55229 4 8 4C7.44772 4 7 7.44772 7 10C7 10.5523 7.44772 11 8 11Z" fill="#2D50E6"/>
</svg>
