<svg width="16" height="16" viewBox="0 0 16 16" fill="none" xmlns="http://www.w3.org/2000/svg">
<path fill-rule="evenodd" clip-rule="evenodd" d="M1.99979 1.00004C1.44751 1.00006 1 1.44777 1 2.00004V8C1 9.85625 2.26442 11.4172 3.97895 11.8685C4.27226 11.9457 4.5 12.1967 4.5 12.5C4.5 13.8807 5.61929 15 7 15H11C12.3807 15 13.5 13.8807 13.5 12.5V4.93699C14.3626 4.71497 15 3.93192 15 3C15 1.89543 14.1046 1 13 1C11.8954 1 11 1.89543 11 3C11 3.93192 11.6374 4.71497 12.5 4.93699V12.5C12.5 13.3284 11.8284 14 11 14H7C6.17157 14 5.5 13.3284 5.5 12.5C5.5 12.1967 5.72774 11.9457 6.02105 11.8685C7.73558 11.4172 9 9.85625 9 8V2.00004C9 1.44777 8.55249 1.00006 8.00021 1.00004L6.5 1C6.22386 1 6 1.22386 6 1.5C6 1.77614 6.22386 2 6.5 2H8V8C8 9.65685 6.65685 11 5 11C3.34315 11 2 9.65685 2 8V2H3.5C3.77614 2 4 1.77614 4 1.5C4 1.22386 3.77614 1 3.5 1L1.99979 1.00004ZM13 4C13.5523 4 14 3.55228 14 3C14 2.44772 13.5523 2 13 2C12.4477 2 12 2.44772 12 3C12 3.55228 12.4477 4 13 4Z" fill="#2D50E6"/>
</svg>
