<svg width="16" height="16" viewBox="0 0 16 16" fill="none" xmlns="http://www.w3.org/2000/svg">
<path fill-rule="evenodd" clip-rule="evenodd" d="M9 1C8.73478 1 8.48043 1.10536 8.29289 1.29289L1.29289 8.29289C0.902369 8.68342 0.902369 9.31658 1.29289 9.70711L6.29289 14.7071C6.68342 15.0976 7.31658 15.0976 7.70711 14.7071L14.7071 7.70711C14.8946 7.51957 15 7.26522 15 7V2C15 1.44772 14.5523 1 14 1H9ZM12 5C12.5523 5 13 4.55228 13 4C13 3.44772 12.5523 3 12 3C11.4477 3 11 3.44772 11 4C11 4.55228 11.4477 5 12 5Z" fill="#2D50E6"/>
</svg>
