<svg width="16" height="16" viewBox="0 0 16 16" fill="none" xmlns="http://www.w3.org/2000/svg">
<path d="M11.9958 7.81406C11.9986 7.87569 12 7.93768 12 8C12 10.2091 10.2091 12 8 12C5.79086 12 4 10.2091 4 8C4 5.79086 5.79086 4 8 4C8.06237 4 8.1244 4.00143 8.18608 4.00425L8.02339 3.19082C8.0107 3.12737 8.00209 3.06365 7.99746 3C5.23721 3.00137 3 5.23942 3 8C3 10.7614 5.23858 13 8 13C10.7605 13 12.9985 10.7629 13 8.0027C12.9364 7.99806 12.8727 7.98946 12.8094 7.97678L11.9958 7.81406Z" fill="#2D50E6"/>
<path d="M9.91214 8.5881C9.66098 9.40566 8.8999 10 8 10C6.89543 10 6 9.10457 6 8C6 7.09992 6.59458 6.33871 7.4124 6.08771L8.39026 5.02515C8.26252 5.00856 8.13226 5 8 5C6.34315 5 5 6.34315 5 8C5 9.65685 6.34315 11 8 11C9.65685 11 11 9.65685 11 8C11 7.86779 10.9914 7.73758 10.9749 7.60989L9.91214 8.5881Z" fill="#2D50E6"/>
<path d="M13.994 7.72977C13.998 7.81935 14 7.90944 14 8C14 11.3137 11.3137 14 8 14C4.68629 14 2 11.3137 2 8C2 4.68629 4.68629 2 8 2C8.09066 2 8.18084 2.00201 8.27052 2.00599C8.32205 1.93205 8.38043 1.86213 8.44534 1.79722L9.14875 1.0938C8.77499 1.0321 8.39124 1 8 1C4.13401 1 1 4.13401 1 8C1 11.866 4.13401 15 8 15C11.866 15 15 11.866 15 8C15 7.60886 14.9679 7.22521 14.9062 6.85154L14.203 7.55483C14.138 7.61979 14.068 7.6782 13.994 7.72977Z" fill="#2D50E6"/>
<path d="M9.15246 2.50432C9.0241 2.63268 8.96839 2.8167 9.00399 2.99471L9.43295 5.13949C9.46855 5.31749 9.41283 5.50151 9.28447 5.62987L7.91038 7.00396C7.40008 7.04929 7 7.47792 7 8C7 8.55228 7.44772 9 8 9C8.52194 9 8.95048 8.60014 8.996 8.09004L10.3703 6.71572C10.4987 6.58736 10.6827 6.53165 10.8607 6.56725L13.0055 6.9962C13.1835 7.0318 13.3675 6.97609 13.4959 6.84773L14.8409 5.50266C15.1263 5.21727 15.0116 4.73132 14.6287 4.60369L12.4621 3.88148C12.3 3.82744 12.1728 3.70022 12.1187 3.5381L11.3965 1.37148C11.2689 0.988586 10.7829 0.873868 10.4975 1.15926L9.15246 2.50432Z" fill="#2D50E6"/>
</svg>
