<svg width="16" height="16" viewBox="0 0 16 16" fill="none" xmlns="http://www.w3.org/2000/svg">
<path d="M3.89596 4.75C4.76799 4.75 5.47491 4.02246 5.47491 3.125C5.47491 2.22754 4.76799 1.5 3.89596 1.5C3.02393 1.5 2.31701 2.22754 2.31701 3.125C2.31701 4.02246 3.02393 4.75 3.89596 4.75Z" fill="#2D50E6"/>
<path d="M2.15821 6.7C2.01754 6.7 1.94709 6.87504 2.04656 6.9774L2.99484 7.95334C3.09431 8.05571 3.26439 7.98321 3.26439 7.83844V6.99299C4.30223 8.1928 4.63426 8.10604 5.16286 7.96791L5.22988 7.9505C5.74024 7.81951 5.86783 8.33255 5.86783 8.60545C4.43245 8.60546 3.31604 9.26041 3.63501 11.2253C3.95398 13.1901 5.38937 14.1725 5.86783 14.1725C6.3463 14.1725 7.4627 13.8451 6.82475 12.8626C6.64396 12.5842 6.45783 12.3113 6.28338 12.0555C6.10852 11.7991 5.9452 11.5596 5.81096 11.3493C5.68198 11.1473 5.82535 10.8978 6.06024 10.8978H7.20994C7.35788 10.8978 7.4846 11.0034 7.52478 11.15C7.92301 12.6022 9.11094 14.5 10.0145 14.5C10.9714 14.5 11.4499 13.8451 10.9714 13.1901C10.908 13.1034 10.8468 13.0199 10.7873 12.939C10.2121 12.1561 9.8102 11.6091 9.37655 10.5703C9.05758 9.80621 8.88037 9.18765 8.70316 8.56909C8.61456 8.2598 8.52595 7.95051 8.41962 7.62303C8.10065 6.64062 7.78168 5.82191 6.82475 5.00322C5.86783 4.18453 5.38937 4.18453 4.27296 5.3307C3.15655 4.51201 2.19963 5.82191 2.83758 6.47686C2.89975 6.55487 2.95982 6.6292 3.01792 6.7H2.15821Z" fill="#2D50E6"/>
<path d="M13.095 4.10034C14.8372 6.27228 13.8359 9.46288 12.0199 10.6004C11.5823 10.8745 11.216 10.9673 10.9111 10.9437C10.515 10.4284 10.2567 9.82555 10.0408 9.15898C9.9316 8.82195 9.83555 8.47624 9.7364 8.1191L9.73509 8.11436C9.63728 7.76205 9.53634 7.39847 9.42046 7.04068C9.1875 6.32142 8.88506 5.59515 8.38611 4.95327C8.0764 4.55484 7.69701 4.19657 7.22411 3.89221C8.06328 3.54344 9.22787 3.12533 10.3676 3.12532C11.6884 3.1416 12.4433 3.28783 13.095 4.10034Z" fill="#2D50E6"/>
</svg>
