<svg width="16" height="16" viewBox="0 0 16 16" fill="none" xmlns="http://www.w3.org/2000/svg">
<path d="M1.85355 14.8536L14.8536 1.85355C15.0488 1.65829 15.0488 1.34171 14.8536 1.14645C14.6583 0.951184 14.3417 0.951184 14.1464 1.14645L11.9795 3.31338C11.5448 3.17392 11.0267 3.13344 10.3676 3.12532C9.22787 3.12533 8.06328 3.54344 7.22411 3.89221C7.69701 4.19657 8.0764 4.55484 8.38611 4.95327C8.68767 5.34121 8.91745 5.75999 9.10349 6.1894L8.22797 7.06492C7.95172 6.32081 7.59478 5.66201 6.82475 5.00322C5.86783 4.18453 5.38937 4.18453 4.27296 5.3307C3.15655 4.51201 2.19963 5.82191 2.83758 6.47686C2.89975 6.55487 2.95982 6.6292 3.01792 6.7H2.15821C2.01754 6.7 1.94709 6.87504 2.04656 6.9774L2.99484 7.95334C3.09431 8.05571 3.26439 7.98321 3.26439 7.83844V6.99299C4.30223 8.1928 4.63426 8.10604 5.16286 7.96791L5.22988 7.9505C5.74024 7.81951 5.86783 8.33255 5.86783 8.60545C4.43245 8.60546 3.31604 9.26041 3.63501 11.2253C3.6551 11.349 3.67962 11.4689 3.70805 11.5848L1.14645 14.1464C0.951184 14.3417 0.951184 14.6583 1.14645 14.8536C1.34171 15.0488 1.65829 15.0488 1.85355 14.8536Z" fill="#2D50E6"/>
<path d="M5.47491 3.125C5.47491 4.02246 4.76799 4.75 3.89596 4.75C3.02393 4.75 2.31701 4.02246 2.31701 3.125C2.31701 2.22754 3.02393 1.5 3.89596 1.5C4.76799 1.5 5.47491 2.22754 5.47491 3.125Z" fill="#2D50E6"/>
<path d="M4.68883 13.4327C5.1482 13.9259 5.62812 14.1725 5.86783 14.1725C6.3463 14.1725 7.4627 13.8451 6.82475 12.8626C6.64396 12.5842 6.45783 12.3113 6.28338 12.0555L6.1953 11.9262L4.68883 13.4327Z" fill="#2D50E6"/>
<path d="M8.89564 9.22591L7.22347 10.8981C7.36557 10.9043 7.48583 11.0079 7.52478 11.15C7.92301 12.6022 9.11094 14.5 10.0145 14.5C10.9714 14.5 11.4499 13.8451 10.9714 13.1901C10.9086 13.1042 10.8479 13.0215 10.789 12.9413L10.7873 12.939C10.2121 12.1561 9.8102 11.6091 9.37654 10.5703C9.1694 10.0741 9.02204 9.63923 8.89564 9.22591Z" fill="#2D50E6"/>
<path d="M9.79431 8.32724L13.4689 4.65269C14.6678 6.78104 13.6872 9.55603 12.0199 10.6004C11.5823 10.8745 11.216 10.9673 10.9111 10.9437C10.515 10.4284 10.2567 9.82555 10.0408 9.15898C9.95294 8.88783 9.8736 8.61106 9.79431 8.32724Z" fill="#2D50E6"/>
</svg>
