<svg width="16" height="16" viewBox="0 0 16 16" fill="none" xmlns="http://www.w3.org/2000/svg">
<path d="M5 11.5V7C5 6.01814 5.48478 5.52106 6.08035 4.91038C6.44978 4.53157 6.86185 4.10905 7.22727 3.5C7.70346 2.70636 7.62536 1.83354 7.4275 1.15804C7.27457 0.635955 7.63779 0 8.18182 0C8.90924 0 10.5 1.09091 10.5 3C10.5 3.63636 10.2271 4.39432 10 5C13.1491 5 15 5.5 15 9C15 14 11 14 9.5 14C8 14 5 13.4068 5 11.5Z" fill="#2D50E6"/>
<path d="M3.08828 6C2.15823 6 1.33716 6.63936 1.19357 7.55826C1.05655 8.43516 1.0004 9.21899 1 10C0.999601 10.7865 1.05606 11.5701 1.19283 12.443C1.33672 13.3613 2.15765 14 3.08721 14H3.50008C3.77622 14 4.00008 13.7761 4.00008 13.5V6.5C4.00008 6.22386 3.77622 6 3.50008 6H3.08828Z" fill="#2D50E6"/>
</svg>
