<svg width="16" height="16" viewBox="0 0 16 16" fill="none" xmlns="http://www.w3.org/2000/svg">
<path fill-rule="evenodd" clip-rule="evenodd" d="M12.937 3.5H14.5C14.7761 3.5 15 3.72386 15 4C15 4.27614 14.7761 4.5 14.5 4.5H12.937C12.715 5.36261 11.9319 6 11 6C10.0681 6 9.28503 5.36261 9.06301 4.5H1.5C1.22386 4.5 1 4.27614 1 4C1 3.72386 1.22386 3.5 1.5 3.5H9.06301C9.28503 2.63739 10.0681 2 11 2C11.9319 2 12.715 2.63739 12.937 3.5ZM11 5C11.5523 5 12 4.55228 12 4C12 3.44772 11.5523 3 11 3C10.4477 3 10 3.44772 10 4C10 4.55228 10.4477 5 11 5Z" fill="#2D50E6"/>
<path fill-rule="evenodd" clip-rule="evenodd" d="M1.5 7.5C1.22386 7.5 1 7.72386 1 8C1 8.27614 1.22386 8.5 1.5 8.5H3.06301C3.28503 9.36261 4.06808 10 5 10C5.93192 10 6.71497 9.36261 6.93699 8.5H14.5C14.7761 8.5 15 8.27614 15 8C15 7.72386 14.7761 7.5 14.5 7.5H6.93699C6.71497 6.63739 5.93192 6 5 6C4.06808 6 3.28503 6.63739 3.06301 7.5H1.5ZM6 8C6 8.55228 5.55228 9 5 9C4.44772 9 4 8.55228 4 8C4 7.44772 4.44772 7 5 7C5.55228 7 6 7.44772 6 8Z" fill="#2D50E6"/>
<path fill-rule="evenodd" clip-rule="evenodd" d="M1.5 11.5C1.22386 11.5 1 11.7239 1 12C1 12.2761 1.22386 12.5 1.5 12.5H9.06301C9.28503 13.3626 10.0681 14 11 14C11.9319 14 12.715 13.3626 12.937 12.5H14.5C14.7761 12.5 15 12.2761 15 12C15 11.7239 14.7761 11.5 14.5 11.5H12.937C12.715 10.6374 11.9319 10 11 10C10.0681 10 9.28503 10.6374 9.06301 11.5H1.5ZM11 13C11.5523 13 12 12.5523 12 12C12 11.4477 11.5523 11 11 11C10.4477 11 10 11.4477 10 12C10 12.5523 10.4477 13 11 13Z" fill="#2D50E6"/>
</svg>
