<svg width="16" height="16" viewBox="0 0 16 16" fill="none" xmlns="http://www.w3.org/2000/svg">
<path d="M8 9C7.44066 9 6.99357 9.46715 6.99821 10.0265C6.99951 10.1821 7 10.3401 7 10.5C7 12.9853 6.88071 15 5.5 15C4.11929 15 3 12.9853 3 10.5C3 10.1163 3.02668 9.74381 3.07688 9.38822C3.19344 8.56263 2.93844 7.70579 2.52472 6.9819C2.19082 6.39766 2 5.72111 2 5C2 2.79086 3.79086 1 6 1C6.52285 1 7.02226 1.10031 7.48005 1.28275C7.81249 1.41523 8.18751 1.41523 8.51995 1.28275C8.97774 1.10031 9.47715 1 10 1C12.2091 1 14 2.79086 14 5C14 5.72111 13.8092 6.39766 13.4753 6.9819C13.0616 7.70579 12.8066 8.56263 12.9231 9.38822C12.9733 9.74381 13 10.1163 13 10.5C13 12.9853 11.8807 15 10.5 15C9.11929 15 9 12.9853 9 10.5C9 10.3401 9.00049 10.1821 9.00179 10.0265C9.00643 9.46715 8.55934 9 8 9Z" fill="#2D50E6"/>
</svg>
