<svg width="16" height="16" viewBox="0 0 16 16" fill="none" xmlns="http://www.w3.org/2000/svg">
<path fill-rule="evenodd" clip-rule="evenodd" d="M7.5 0H8.5C8.84443 0 9.04722 0.25 9.25 0.5C9.45278 0.75 9.65557 1 10 1H13C13.5523 1 14 1.44772 14 2C14 2.55228 13.5523 3 13 3H12.9202C12.9201 3.02537 12.9192 3.05095 12.9172 3.0767L12.071 14.0767C12.0309 14.5977 11.5965 15 11.074 15H4.92603C4.40349 15 3.96905 14.5977 3.92898 14.0767L3.08282 3.0767C3.08084 3.05095 3.07985 3.02538 3.07982 3H3C2.44772 3 2 2.55228 2 2C2 1.44772 2.44772 1 3 1H6C6.34443 1 6.54722 0.75 6.75 0.5C6.95278 0.25 7.15557 0 7.5 0ZM5.06131 4.55182C5.02861 4.25745 5.25903 4 5.55522 4C5.80843 4 6.02116 4.1904 6.04912 4.44206L6.93869 12.4482C6.97139 12.7426 6.74097 13 6.44478 13C6.19157 13 5.97884 12.8096 5.95088 12.5579L5.06131 4.55182ZM10.4448 4C10.741 4 10.9714 4.25745 10.9387 4.55182L10.0491 12.5579C10.0212 12.8096 9.80843 13 9.55522 13C9.25903 13 9.02861 12.7426 9.06131 12.4482L9.95088 4.44206C9.97884 4.1904 10.1916 4 10.4448 4Z" fill="#2D50E6"/>
</svg>
