<svg width="16" height="16" viewBox="0 0 16 16" fill="none" xmlns="http://www.w3.org/2000/svg">
<path d="M9.24132 1.72717C8.65996 0.757609 7.34004 0.75761 6.75868 1.72717L6.30495 2.48388L5.59664 2.28915C4.42616 1.96737 3.41097 3.20938 3.85964 4.41425L3.9078 4.54357C2.6974 5.07938 2.6974 6.92062 3.9078 7.45643L3.85964 7.58575C3.41097 8.79062 4.42616 10.0326 5.59664 9.71085L6.0951 9.57381C6.03411 9.7031 6 9.84757 6 10C6 10.5523 6.44772 11 7 11V14C7 14.5523 6.55228 15 6 15H10C9.44772 15 9 14.5523 9 14V11C9.55229 11 10 10.5523 10 10C10 9.84757 9.96589 9.7031 9.9049 9.57381L10.4034 9.71085C11.5738 10.0326 12.589 8.79062 12.1404 7.58575L12.0922 7.45643C13.3026 6.92062 13.3026 5.07938 12.0922 4.54357L12.1404 4.41425C12.589 3.20938 11.5738 1.96737 10.4034 2.28915L9.69505 2.48388L9.24132 1.72717Z" fill="#2D50E6"/>
</svg>
