<svg width="16" height="16" viewBox="0 0 16 16" fill="none" xmlns="http://www.w3.org/2000/svg">
<path d="M8 12C11.4286 12 12 9.88643 12 7.28571V2.5C12 2.22386 11.7761 2 11.5 2H10.7857C10.5096 2 10.2857 2.22386 10.2857 2.5V7.28571C10.2857 8.80214 9.71429 10.1667 8 10.1667C6.28571 10.1667 5.71429 8.80214 5.71429 7.28571V2.5C5.71429 2.22386 5.49043 2 5.21429 2H4.5C4.22386 2 4 2.22386 4 2.5V7.28571C4 9.88643 5.14286 12 8 12Z" fill="#2D50E6"/>
<path d="M3.5 14C3.22386 14 3 14.2239 3 14.5C3 14.7761 3.22386 15 3.5 15H12.5C12.7761 15 13 14.7761 13 14.5C13 14.2239 12.7761 14 12.5 14H3.5Z" fill="#2D50E6"/>
</svg>
