<svg width="16" height="16" viewBox="0 0 16 16" fill="none" xmlns="http://www.w3.org/2000/svg">
<path d="M2.9 5.3C3.39706 5.3 3.8 4.89706 3.8 4.4C3.8 3.90294 3.39706 3.5 2.9 3.5C2.40294 3.5 2 3.90294 2 4.4C2 4.89706 2.40294 5.3 2.9 5.3Z" fill="#2D50E6"/>
<path d="M5.88 3.5C5.6149 3.5 5.4 3.76863 5.4 4.1V4.7C5.4 5.03137 5.6149 5.3 5.88 5.3H13.52C13.7851 5.3 14 5.03137 14 4.7V4.1C14 3.76863 13.7851 3.5 13.52 3.5H5.88Z" fill="#2D50E6"/>
<path d="M2.9 8.79981C3.39706 8.79981 3.8 8.39686 3.8 7.89981C3.8 7.40275 3.39706 6.99981 2.9 6.99981C2.40294 6.99981 2 7.40275 2 7.89981C2 8.39686 2.40294 8.79981 2.9 8.79981Z" fill="#2D50E6"/>
<path d="M5.88 6.99981C5.6149 6.99981 5.4 7.26844 5.4 7.59981V8.19981C5.4 8.53118 5.6149 8.79981 5.88 8.79981H13.52C13.7851 8.79981 14 8.53118 14 8.19981V7.59981C14 7.26844 13.7851 6.99981 13.52 6.99981H5.88Z" fill="#2D50E6"/>
<path d="M3.8 11.4C3.8 11.8971 3.39706 12.3 2.9 12.3C2.40294 12.3 2 11.8971 2 11.4C2 10.9029 2.40294 10.5 2.9 10.5C3.39706 10.5 3.8 10.9029 3.8 11.4Z" fill="#2D50E6"/>
<path d="M5.4 11.1C5.4 10.7686 5.6149 10.5 5.88 10.5H13.52C13.7851 10.5 14 10.7686 14 11.1V11.7C14 12.0314 13.7851 12.3 13.52 12.3H5.88C5.6149 12.3 5.4 12.0314 5.4 11.7V11.1Z" fill="#2D50E6"/>
</svg>
