<svg width="16" height="16" viewBox="0 0 16 16" fill="none" xmlns="http://www.w3.org/2000/svg">
<path d="M8.75 12C8.75 12.5523 9.19772 13 9.75 13H11C13.2091 13 15 11.2091 15 9C15 6.87389 13.3412 5.13521 11.2472 5.00752C10.4407 3.79732 9.06345 3 7.5 3C5.12691 3 3.18286 4.83692 3.01218 7.16643C1.84063 7.57481 1 8.68923 1 10C1 11.6569 2.34315 13 4 13H6.25C6.80228 13 7.25 12.5523 7.25 12V9.56066L6.03033 10.7803C5.73744 11.0732 5.26256 11.0732 4.96967 10.7803C4.67678 10.4874 4.67678 10.0126 4.96967 9.71967L7.46967 7.21967C7.76256 6.92678 8.23744 6.92678 8.53033 7.21967L11.0303 9.71967C11.3232 10.0126 11.3232 10.4874 11.0303 10.7803C10.7374 11.0732 10.2626 11.0732 9.96967 10.7803L8.75 9.56066V12Z" fill="#2D50E6"/>
</svg>
