<svg width="16" height="16" viewBox="0 0 16 16" fill="none" xmlns="http://www.w3.org/2000/svg">
<path d="M7.17512 5.2334L10.4249 9.56647C9.73989 9.72776 9.16358 10.1708 8.825 10.7666L5.5752 6.43351C6.26022 6.27223 6.83653 5.82919 7.17512 5.2334Z" fill="#2D50E6"/>
<path d="M6.5 4C6.5 4.82843 5.82843 5.5 5 5.5C4.17157 5.5 3.5 4.82843 3.5 4C3.5 3.17157 4.17157 2.5 5 2.5C5.82843 2.5 6.5 3.17157 6.5 4Z" fill="#2D50E6"/>
<path d="M2.825 5.2334C3.16358 5.82919 3.73989 6.27223 4.42492 6.43351L2.80006 8.59999C2.46869 9.04182 1.84189 9.13136 1.40006 8.79999C0.958231 8.46862 0.868688 7.84182 1.20006 7.39999L2.825 5.2334Z" fill="#2D50E6"/>
<path d="M11.5752 9.56647C12.2602 9.72776 12.8365 10.1708 13.1751 10.7666L14.8001 8.6C15.1314 8.15817 15.0419 7.53137 14.6001 7.2C14.1582 6.86863 13.5314 6.95817 13.2001 7.4L11.5752 9.56647Z" fill="#2D50E6"/>
<path d="M11 13.5C11.8284 13.5 12.5 12.8284 12.5 12C12.5 11.1716 11.8284 10.5 11 10.5C10.1716 10.5 9.5 11.1716 9.5 12C9.5 12.8284 10.1716 13.5 11 13.5Z" fill="#2D50E6"/>
</svg>
