<svg width="16" height="16" viewBox="0 0 16 16" fill="none" xmlns="http://www.w3.org/2000/svg">
<g clip-path="url(#clip0_3638_270)">
<path fill-rule="evenodd" clip-rule="evenodd" d="M1.60476 1.0111C1.45712 0.979465 1.30309 1.01624 1.18566 1.11117C1.06824 1.2061 1 1.34901 1 1.5V14H14V5H15.5C15.7558 5 15.9703 4.80701 15.9972 4.55268C16.0242 4.29835 15.8548 4.06469 15.6048 4.0111L1.60476 1.0111ZM8.60476 3.53389C8.29351 3.46719 8 3.70447 8 4.02279V10.5001C8 10.7762 8.22386 11.0001 8.5 11.0001H12.5C12.7761 11.0001 13 10.7762 13 10.5001V4.87993C13 4.64416 12.8353 4.44043 12.6048 4.39103L8.60476 3.53389ZM2.5 11.0002C2.22386 11.0002 2 10.7763 2 10.5002V2.73715C2 2.41882 2.29351 2.18155 2.60476 2.24824L6.60476 3.10539C6.8353 3.15479 7 3.35852 7 3.59429V10.5002C7 10.7763 6.77614 11.0002 6.5 11.0002H2.5Z" fill="#2D50E6"/>
</g>
<defs>
<clipPath id="clip0_3638_270">
<rect width="16" height="16" fill="white"/>
</clipPath>
</defs>
</svg>
