<svg width="16" height="16" viewBox="0 0 16 16" fill="none" xmlns="http://www.w3.org/2000/svg">
<path fill-rule="evenodd" clip-rule="evenodd" d="M8.68212 1.25878C8.32546 0.913742 7.75943 0.913741 7.40277 1.25878L6.54617 2.08745C6.34222 2.28476 6.05862 2.3769 5.77765 2.33716L4.59756 2.17024C4.10621 2.10074 3.64828 2.43345 3.56254 2.92223L3.35662 4.09614C3.30759 4.37564 3.13232 4.61688 2.88165 4.74988L1.82883 5.30848C1.39047 5.54106 1.21556 6.07939 1.43349 6.52521L1.9569 7.59596C2.08152 7.85091 2.08152 8.14909 1.9569 8.40404L1.43349 9.47479C1.21556 9.92061 1.39047 10.4589 1.82883 10.6915L2.88165 11.2501C3.13232 11.3831 3.30759 11.6244 3.35662 11.9039L3.56254 13.0778C3.64828 13.5666 4.10621 13.8993 4.59756 13.8298L5.77765 13.6628C6.05862 13.6231 6.34222 13.7152 6.54617 13.9125L7.40277 14.7412C7.75943 15.0863 8.32546 15.0863 8.68212 14.7412L9.53872 13.9125C9.74267 13.7152 10.0263 13.6231 10.3072 13.6628L11.4873 13.8298C11.9787 13.8993 12.4366 13.5666 12.5223 13.0778L12.7283 11.9039C12.7773 11.6244 12.9526 11.3831 13.2032 11.2501L14.2561 10.6915C14.6944 10.4589 14.8693 9.92061 14.6514 9.47479L14.128 8.40404C14.0034 8.14909 14.0034 7.85091 14.128 7.59596L14.6514 6.52521C14.8693 6.07939 14.6944 5.54106 14.2561 5.30848L13.2032 4.74988C12.9526 4.61688 12.7773 4.37564 12.7283 4.09614L12.5223 2.92223C12.4366 2.43345 11.9787 2.10074 11.4873 2.17024L10.3072 2.33716C10.0263 2.3769 9.74267 2.28476 9.53872 2.08745L8.68212 1.25878ZM11.5857 5.96852C11.8444 5.64507 11.792 5.17311 11.4685 4.91435C11.1451 4.65559 10.6731 4.70803 10.4143 5.03148L7 9.29941L5.58565 7.53148C5.32689 7.20803 4.85493 7.15559 4.53148 7.41435C4.20803 7.67311 4.15559 8.14507 4.41435 8.46852L6.41435 10.9685C6.55668 11.1464 6.77216 11.25 7 11.25C7.22784 11.25 7.44332 11.1464 7.58565 10.9685L11.5857 5.96852Z" fill="#2D50E6"/>
</svg>
