<svg width="16" height="16" viewBox="0 0 16 16" fill="none" xmlns="http://www.w3.org/2000/svg">
<path d="M10.4693 5.5C10.9707 5.5 11.3761 5.60813 11.6318 5.70606L11.4555 6.75123L11.3383 6.69984C11.1038 6.60197 10.7942 6.50417 10.3728 6.51451C9.8611 6.51451 9.6316 6.7255 9.62629 6.93149C9.62629 7.15809 9.90391 7.30742 10.3572 7.52888C11.104 7.87387 11.4504 8.29606 11.4452 8.84704C11.4347 9.85115 10.5493 10.5 9.18933 10.5C8.60787 10.4948 8.0478 10.3761 7.74381 10.2424L7.92519 9.1559L8.09586 9.23323C8.51722 9.41363 8.79448 9.49069 9.31195 9.49069C9.68511 9.49069 10.0852 9.34123 10.0903 9.01697C10.0903 8.80584 9.91985 8.65125 9.4184 8.41439C8.9278 8.18259 8.27184 7.79647 8.28247 7.10129C8.288 6.15905 9.18933 5.5 10.4693 5.5Z" fill="#00579F"/>
<path d="M5.63716 10.4279H6.93327L7.74388 5.58774H6.44784L5.63716 10.4279Z" fill="#00579F"/>
<path fill-rule="evenodd" clip-rule="evenodd" d="M14.9543 5.58774H13.9518C13.6426 5.58774 13.4077 5.6752 13.2743 5.98932L11.3491 10.4278H12.7091C12.7091 10.4278 12.933 9.83041 12.9811 9.70175H14.6452C14.6824 9.87168 14.7999 10.4278 14.7999 10.4278H16L14.9543 5.58774ZM13.3544 8.71318C13.4612 8.43512 13.8719 7.35895 13.8719 7.35895C13.8697 7.36313 13.8867 7.31771 13.9119 7.25021L13.9119 7.25019L13.9119 7.25014C13.9491 7.15055 14.0043 7.00294 14.0424 6.89556L14.133 7.31262C14.133 7.31262 14.3785 8.47119 14.4318 8.71318H13.3544Z" fill="#00579F"/>
<path d="M3.28528 8.88824L4.5546 5.58774H5.92513L3.88787 10.4227H2.51727L1.35461 6.19005C2.17593 6.60731 2.9119 7.44648 3.14658 8.21886L3.28528 8.88824Z" fill="#00579F"/>
<path d="M2.10665 5.58765H0.0213336L0 5.68544C1.62668 6.0871 2.70399 7.05528 3.14662 8.21898L2.69329 5.9945C2.61866 5.68537 2.3893 5.59784 2.10665 5.58765Z" fill="#FAA61A"/>
</svg>
