<svg width="16" height="16" viewBox="0 0 16 16" fill="none" xmlns="http://www.w3.org/2000/svg">
<path fill-rule="evenodd" clip-rule="evenodd" d="M1.70235 9.69563C0.765882 8.75916 0.765883 7.24084 1.70235 6.30437L6.30437 1.70235C7.24084 0.765882 8.75916 0.765883 9.69563 1.70235L14.2976 6.30437C15.2341 7.24084 15.2341 8.75916 14.2976 9.69563L9.69563 14.2976C8.75916 15.2341 7.24084 15.2341 6.30437 14.2976L1.70235 9.69563ZM8.68149 8.82593C8.66477 9.26503 8.43058 9.52013 8.00402 9.52013C7.57329 9.52013 7.34328 9.26503 7.33074 8.82593L7.25128 4.92002C7.2471 4.86147 7.24292 4.79875 7.24292 4.75274C7.24292 4.28019 7.54401 4 8.00402 4C8.46822 4 8.76095 4.28019 8.76095 4.75274C8.76095 4.77436 8.76003 4.79967 8.75905 4.8265C8.75794 4.85677 8.75677 4.88898 8.75677 4.92002L8.68149 8.82593ZM8.86968 11.1678C8.86968 11.632 8.48076 12 8.00402 12C7.5231 12 7.13 11.632 7.13 11.1678C7.13 10.7036 7.5231 10.3314 8.00402 10.3314C8.48076 10.3314 8.86968 10.7036 8.86968 11.1678Z" fill="#2D50E6"/>
</svg>
