<svg width="16" height="16" viewBox="0 0 16 16" fill="none" xmlns="http://www.w3.org/2000/svg">
<path fill-rule="evenodd" clip-rule="evenodd" d="M8 15C10.7614 15 13 12.7614 13 10C13 8.82034 12.5472 7.49034 11.9141 6.20733L4.5257 13.5957C5.42527 14.4651 6.65017 15 8 15ZM12 10C12 9.72386 11.7761 9.5 11.5 9.5C11.2239 9.5 11 9.72386 11 10C11 11.6569 9.65685 13 8 13C7.72386 13 7.5 13.2239 7.5 13.5C7.5 13.7761 7.72386 14 8 14C10.2091 14 12 12.2091 12 10Z" fill="#2D50E6"/>
<path d="M10.8968 4.39611C10.1184 3.14973 9.28728 2.0596 8.71584 1.35185C8.34172 0.888473 7.65828 0.888474 7.28415 1.35185C5.90182 3.06395 3 7.01368 3 10C3 10.6778 3.13488 11.3242 3.37927 11.9136L1.14645 14.1464C0.951184 14.3417 0.951184 14.6583 1.14645 14.8536C1.34171 15.0488 1.65829 15.0488 1.85355 14.8536L14.8536 1.85355C15.0488 1.65829 15.0488 1.34171 14.8536 1.14645C14.6583 0.951184 14.3417 0.951184 14.1464 1.14645L10.8968 4.39611Z" fill="#2D50E6"/>
</svg>
