<svg width="16" height="16" viewBox="0 0 16 16" fill="none" xmlns="http://www.w3.org/2000/svg">
<path fill-rule="evenodd" clip-rule="evenodd" d="M8 15.0001C10.7614 15.0001 13 12.7615 13 10.0001C13 7.01376 10.0982 3.06403 8.71584 1.35193C8.34172 0.888549 7.65828 0.88855 7.28415 1.35193C5.90182 3.06403 3 7.01376 3 10.0001C3 12.7615 5.23858 15.0001 8 15.0001ZM12 10.0001C12 9.72394 11.7761 9.50008 11.5 9.50008C11.2239 9.50008 11 9.72394 11 10.0001C11 11.6569 9.65685 13.0001 8 13.0001C7.72386 13.0001 7.5 13.2239 7.5 13.5001C7.5 13.7762 7.72386 14.0001 8 14.0001C10.2091 14.0001 12 12.2092 12 10.0001Z" fill="#2D50E6"/>
</svg>
