<svg width="16" height="16" viewBox="0 0 16 16" fill="none" xmlns="http://www.w3.org/2000/svg">
<path d="M13.782 6.84767C13.9812 7.04039 14.2966 7.05044 14.495 6.85692L14.8495 6.51126C15.0439 6.32172 15.0529 6.00791 14.8593 5.81758C13.0848 4.07349 10.666 3 7.99994 3C5.33396 3.00001 2.91519 4.07349 1.14071 5.81757C0.947069 6.00789 0.956092 6.3217 1.15048 6.51124L1.50503 6.85695C1.7035 7.05047 2.01882 7.04042 2.21805 6.8477C3.72181 5.3931 5.75811 4.5 8.00004 4.5C10.242 4.5 12.2782 5.39309 13.782 6.84767Z" fill="#C0BEB8"/>
<path d="M8.0002 7.5C9.40282 7.5 10.681 8.04024 11.6437 8.92678C11.8487 9.11564 12.166 9.12789 12.3657 8.93319L12.7192 8.58851C12.9128 8.39975 12.923 8.08706 12.7274 7.90044C11.4924 6.72202 9.82937 6 8.00007 6C6.17076 6.00004 4.50771 6.72209 3.27277 7.90054C3.07719 8.08717 3.0874 8.39985 3.28098 8.5886L3.63448 8.93328C3.83416 9.12799 4.15143 9.11573 4.3565 8.92687C5.31917 8.04028 6.59754 7.5 8.0002 7.5Z" fill="#2C2302"/>
<path d="M10.5961 9.98896C10.7961 10.1665 10.783 10.4765 10.5915 10.6633L8.34174 12.8569C8.15094 13.043 7.84936 13.043 7.65856 12.8569L5.40885 10.6633C5.21728 10.4765 5.20425 10.1665 5.4042 9.98899C6.09779 9.37319 7.00602 9 8.00018 9C8.99432 9 9.90254 9.37317 10.5961 9.98896Z" fill="#2C2302"/>
</svg>
