<svg width="16" height="16" viewBox="0 0 16 16" fill="none" xmlns="http://www.w3.org/2000/svg">
<path fill-rule="evenodd" clip-rule="evenodd" d="M4 1C3.44772 1 3 1.44772 3 2V14C3 14.5523 3.44772 15 4 15H12C12.5523 15 13 14.5523 13 14V2C13 1.44772 12.5523 1 12 1H4ZM4.5 2C4.22386 2 4 2.22386 4 2.5V7C4 7.27614 4.22386 7.5 4.5 7.5H7C7.27614 7.5 7.5 7.27614 7.5 7V2.5C7.5 2.22386 7.27614 2 7 2H4.5ZM8.5 2.5C8.5 2.22386 8.72386 2 9 2H11.5C11.7761 2 12 2.22386 12 2.5V7C12 7.27614 11.7761 7.5 11.5 7.5H9C8.72386 7.5 8.5 7.27614 8.5 7V2.5ZM4.5 8.5C4.22386 8.5 4 8.72386 4 9V13.5C4 13.7761 4.22386 14 4.5 14H7C7.27614 14 7.5 13.7761 7.5 13.5V9C7.5 8.72386 7.27614 8.5 7 8.5H4.5ZM8.53156 8.8248C8.51116 8.87932 8.5 8.93836 8.5 9V13.5C8.5 13.7761 8.72386 14 9 14H11.5C11.7761 14 12 13.7761 12 13.5V9C12 8.72386 11.7761 8.5 11.5 8.5H9C8.7855 8.5 8.60255 8.63507 8.53156 8.8248Z" fill="#2D50E6"/>
</svg>
