<svg width="16" height="16" viewBox="0 0 16 16" fill="none" xmlns="http://www.w3.org/2000/svg">
<path d="M1.5 3C1.22386 3 1 3.22386 1 3.5C1 3.77614 1.22386 4 1.5 4C2.04962 4 2.31892 4.30081 2.73694 4.8153L2.76312 4.84754C3.15551 5.33115 3.69821 6 4.75 6C5.80179 6 6.34449 5.33115 6.73688 4.84754L6.76306 4.8153C7.18108 4.30081 7.45038 4 8 4C8.54962 4 8.81892 4.30081 9.23694 4.8153L9.26312 4.84754C9.65551 5.33115 10.1982 6 11.25 6C12.3066 6 12.8491 5.32995 13.2416 4.84518L13.2662 4.81486C13.6835 4.30009 13.9509 4 14.5 4C14.7761 4 15 3.77614 15 3.5C15 3.22386 14.7761 3 14.5 3C13.4487 3 12.9077 3.66833 12.5165 4.15159L12.4894 4.18514C12.0732 4.69852 11.8036 5 11.25 5C10.7004 5 10.4311 4.69919 10.0131 4.1847L9.98688 4.15246C9.59449 3.66885 9.05179 3 8 3C6.94821 3 6.40551 3.66885 6.01312 4.15246L5.98694 4.1847C5.56892 4.69919 5.29962 5 4.75 5C4.20038 5 3.93108 4.69919 3.51306 4.1847L3.48688 4.15246C3.09449 3.66885 2.55179 3 1.5 3Z" fill="#2D50E6"/>
<path d="M1 7C1 6.72386 1.22386 6.5 1.5 6.5C2.55179 6.5 3.09449 7.16885 3.48688 7.65246L3.51306 7.6847C3.93108 8.19919 4.20038 8.5 4.75 8.5C5.29962 8.5 5.56892 8.19919 5.98694 7.6847L6.01312 7.65246C6.40551 7.16885 6.94821 6.5 8 6.5C9.05179 6.5 9.59449 7.16885 9.98688 7.65246L10.0131 7.6847C10.4311 8.19919 10.7004 8.5 11.25 8.5C11.8036 8.5 12.0732 8.19852 12.4894 7.68514L12.5165 7.65159C12.9077 7.16833 13.4487 6.5 14.5 6.5C14.7761 6.5 15 6.72386 15 7C15 7.27614 14.7761 7.5 14.5 7.5C13.9509 7.5 13.6835 7.80009 13.2662 8.31486L13.2416 8.34518C12.8491 8.82995 12.3066 9.5 11.25 9.5C10.1982 9.5 9.65551 8.83115 9.26312 8.34754L9.23694 8.3153C8.81892 7.80081 8.54962 7.5 8 7.5C7.45038 7.5 7.18108 7.80081 6.76306 8.3153L6.73688 8.34754C6.34449 8.83115 5.80179 9.5 4.75 9.5C3.69821 9.5 3.15551 8.83115 2.76312 8.34754L2.73694 8.3153C2.31892 7.80081 2.04962 7.5 1.5 7.5C1.22386 7.5 1 7.27614 1 7Z" fill="#2D50E6"/>
<path d="M1 10.5C1 10.2239 1.22386 10 1.5 10C2.55179 10 3.09449 10.6689 3.48688 11.1525L3.51306 11.1847C3.93108 11.6992 4.20038 12 4.75 12C5.29962 12 5.56892 11.6992 5.98694 11.1847L6.01312 11.1525C6.40551 10.6689 6.94821 10 8 10C9.05179 10 9.59449 10.6689 9.98688 11.1525L10.0131 11.1847C10.4311 11.6992 10.7004 12 11.25 12C11.8036 12 12.0732 11.6985 12.4894 11.1851L12.5165 11.1516C12.9077 10.6683 13.4487 10 14.5 10C14.7761 10 15 10.2239 15 10.5C15 10.7761 14.7761 11 14.5 11C13.9509 11 13.6835 11.3001 13.2662 11.8149L13.2416 11.8452C12.8491 12.3299 12.3066 13 11.25 13C10.1982 13 9.65551 12.3311 9.26312 11.8475L9.23694 11.8153C8.81892 11.3008 8.54962 11 8 11C7.45038 11 7.18108 11.3008 6.76306 11.8153L6.73688 11.8475C6.34449 12.3311 5.80179 13 4.75 13C3.69821 13 3.15551 12.3311 2.76312 11.8475L2.73694 11.8153C2.31892 11.3008 2.04962 11 1.5 11C1.22386 11 1 10.7761 1 10.5Z" fill="#2D50E6"/>
</svg>
