<svg width="16" height="16" viewBox="0 0 16 16" fill="none" xmlns="http://www.w3.org/2000/svg">
<path fill-rule="evenodd" clip-rule="evenodd" d="M10.4448 5.1527L10.0334 3.91858C9.95722 3.68991 10.0167 3.4378 10.1872 3.26736L11.54 1.91453C11.8799 1.57461 11.7257 1.00831 11.245 1.00051C11.224 1.00017 11.2029 1 11.1818 1C9.07308 1 7.36361 2.70946 7.36361 4.81819C7.36361 5.28602 7.44775 5.7342 7.60172 6.14843L1.46597 12.2842C0.844677 12.9055 0.844677 13.9128 1.46597 14.5341C2.08726 15.1554 3.09457 15.1554 3.71586 14.5341L9.85163 8.3983C10.2658 8.55225 10.714 8.63639 11.1818 8.63639C13.2905 8.63639 15 6.92692 15 4.81819C15 4.79708 14.9998 4.77601 14.9995 4.75498C14.9917 4.27432 14.4254 4.12007 14.0855 4.46L12.7326 5.81282C12.5622 5.98326 12.3101 6.04278 12.0814 5.96655L10.8473 5.55518C10.6573 5.49184 10.5082 5.34273 10.4448 5.1527ZM3 13.5C3.27614 13.5 3.5 13.2761 3.5 13C3.5 12.7239 3.27614 12.5 3 12.5C2.72386 12.5 2.5 12.7239 2.5 13C2.5 13.2761 2.72386 13.5 3 13.5Z" fill="#2D50E6"/>
</svg>
