<svg width="24" height="24" viewBox="0 0 24 24" fill="none" xmlns="http://www.w3.org/2000/svg">
<path d="M19.5029 6.99999H15C14.4477 6.99999 14 6.55227 14 5.99999V1.4971C14 1.05164 14.5386 0.828561 14.8536 1.14354L19.8564 6.14644C20.1714 6.46142 19.9483 6.99999 19.5029 6.99999Z" fill="#2D50E6"/>
<path fill-rule="evenodd" clip-rule="evenodd" d="M6 0.99999C4.89543 0.99999 4 1.89542 4 2.99999V21C4 22.1046 4.89543 23 6 23H18C19.1046 23 20 22.1046 20 21V9.99999C20 9.4477 19.5523 8.99999 19 8.99999H15C13.3431 8.99999 12 7.65684 12 5.99999V1.99999C12 1.4477 11.5523 0.99999 11 0.99999H6ZM11 11C11 10.4477 11.4477 9.99999 12 9.99999C12.5523 9.99999 13 10.4477 13 11V14H16C16.5523 14 17 14.4477 17 15C17 15.5523 16.5523 16 16 16H13V19C13 19.5523 12.5523 20 12 20C11.4477 20 11 19.5523 11 19V16H8C7.44772 16 7 15.5523 7 15C7 14.4477 7.44772 14 8 14H11V11Z" fill="#2D50E6"/>
</svg>
