<svg width="24" height="24" viewBox="0 0 24 24" fill="none" xmlns="http://www.w3.org/2000/svg">
<path d="M15 6.5C15 9.53757 12.7614 13 10 13C7.23858 13 5 9.53757 5 6.5C5 3.46243 7.23858 1 10 1C12.7614 1 15 3.46243 15 6.5Z" fill="#2D50E6"/>
<path d="M10 14C5.02944 14 1 16.4624 1 19.5C1 20.3284 1.67157 21 2.5 21H10.0915C10.8261 21 11.3198 20.2239 11.1625 19.5063C11.0561 19.0211 11 18.5171 11 18C11 17.1379 11.1558 16.3123 11.4409 15.5496C11.6965 14.8656 11.3206 14.0406 10.5909 14.0117C10.3956 14.0039 10.1985 14 10 14Z" fill="#2D50E6"/>
<path fill-rule="evenodd" clip-rule="evenodd" d="M23 18C23 20.7614 20.7614 23 18 23C15.2386 23 13 20.7614 13 18C13 15.2386 15.2386 13 18 13C20.7614 13 23 15.2386 23 18ZM18.5 15.5C18.5 15.2239 18.2761 15 18 15C17.7239 15 17.5 15.2239 17.5 15.5V17.5H15.5C15.2239 17.5 15 17.7239 15 18C15 18.2761 15.2239 18.5 15.5 18.5H17.5V20.5C17.5 20.7761 17.7239 21 18 21C18.2761 21 18.5 20.7761 18.5 20.5V18.5H20.5C20.7761 18.5 21 18.2761 21 18C21 17.7239 20.7761 17.5 20.5 17.5H18.5V15.5Z" fill="#2D50E6"/>
</svg>
