<svg width="24" height="24" viewBox="0 0 24 24" fill="none" xmlns="http://www.w3.org/2000/svg">
<path d="M6.97171 3.7774C7.40104 3.42999 7.46745 2.80032 7.12003 2.37099C6.77262 1.94166 6.14295 1.87525 5.71362 2.22266C3.45007 4.05432 2 6.85821 2 10C2 10.7624 2.08549 11.506 2.24781 12.2213C2.37002 12.7599 2.90571 13.0975 3.4443 12.9752C3.9829 12.853 4.32044 12.3173 4.19823 11.7787C4.06863 11.2076 4 10.6125 4 10C4 7.48733 5.15726 5.24565 6.97171 3.7774Z" fill="#2D50E6"/>
<path d="M18.2864 2.22266C17.8571 1.87525 17.2274 1.94166 16.88 2.37099C16.5326 2.80032 16.599 3.42999 17.0283 3.7774C18.8427 5.24565 20 7.48733 20 10C20 10.6125 19.9314 11.2076 19.8018 11.7787C19.6796 12.3173 20.0171 12.853 20.5557 12.9752C21.0943 13.0975 21.63 12.7599 21.7522 12.2213C21.9145 11.506 22 10.7624 22 10C22 6.85821 20.5499 4.05432 18.2864 2.22266Z" fill="#2D50E6"/>
<path fill-rule="evenodd" clip-rule="evenodd" d="M18 10V15C18 15.5523 17.5523 16 17 16H7.00003C6.44775 16 6.00003 15.5523 6.00003 15L6 10C6 6.68633 8.68633 4.00003 12 4.00003C15.3137 4.00003 18 6.68633 18 10ZM13 6.00003C12.4477 6.00003 12 6.44775 12 7.00003C12 7.55232 12.4477 8.00003 13 8.00003C13.5523 8.00003 14 8.44775 14 9.00003C14 9.55232 14.4477 10 15 10C15.5523 10 16 9.55232 16 9.00003C16 7.34318 14.6569 6.00003 13 6.00003Z" fill="#2D50E6"/>
<path d="M7 18C5.34315 18 4 19.3432 4 21C4 21.5523 4.44772 22 5 22H19C19.5523 22 20 21.5523 20 21C20 19.3432 18.6569 18 17 18H7Z" fill="#2D50E6"/>
</svg>
