<svg width="24" height="24" viewBox="0 0 24 24" fill="none" xmlns="http://www.w3.org/2000/svg">
<path d="M12 15C14.7614 15 17 12.7614 17 10C17 7.23858 14.7614 5 12 5C9.23858 5 7 7.23858 7 10C7 12.7614 9.23858 15 12 15Z" fill="#2D50E6"/>
<path fill-rule="evenodd" clip-rule="evenodd" d="M21 10C21 17.119 15.2589 21.0705 11.3519 22.9115C10.7119 23.213 10 22.7304 10 22.023V19.5755C10 19.1085 9.67449 18.7093 9.23009 18.5657C5.61485 17.3975 3 14.0041 3 10C3 5.02944 7.02944 1 12 1C16.9258 1 20.9274 4.95722 20.999 9.866C20.9997 9.91059 21 9.95526 21 10ZM19 10C19 13.866 15.866 17 12 17C8.13401 17 5 13.866 5 10C5 6.13401 8.13401 3 12 3C15.866 3 19 6.13401 19 10Z" fill="#2D50E6"/>
</svg>
