<svg width="24" height="24" viewBox="0 0 24 24" fill="none" xmlns="http://www.w3.org/2000/svg">
<path fill-rule="evenodd" clip-rule="evenodd" d="M23 12C23 18.0751 18.0751 23 12 23C5.92487 23 1 18.0751 1 12C1 5.92487 5.92487 1 12 1C18.0751 1 23 5.92487 23 12ZM12.0037 16C10.8674 16 9.79877 17.2398 9.08695 18.3123C8.80782 18.7328 9.28383 19.1763 9.72408 18.9289C10.5492 18.4651 11.5017 18 12.0037 18C12.5057 18 13.4582 18.4651 14.2832 18.9288C14.7235 19.1763 15.1995 18.7328 14.9204 18.3123C14.2086 17.2398 13.14 16 12.0037 16ZM6.5 7C6.55082 7 6.59986 7.00758 6.64607 7.02167L10.2355 8.02788C10.6741 8.13376 11 8.52883 11 9C11 9.55229 10.5523 10 10 10C9.80062 10 9.61488 9.94165 9.4589 9.8411L6.25257 7.93459C6.1017 7.8485 6 7.68613 6 7.5C6 7.22386 6.22386 7 6.5 7ZM17.3539 7.02167C17.4001 7.00758 17.4492 7 17.5 7C17.7761 7 18 7.22386 18 7.5C18 7.68613 17.8983 7.8485 17.7474 7.93459L14.5411 9.8411C14.3851 9.94165 14.1994 10 14 10C13.4477 10 13 9.55229 13 9C13 8.52883 13.3259 8.13376 13.7645 8.02788L17.3539 7.02167ZM10 12.5C10 13.3284 9.55229 14 9 14C8.44772 14 8 13.3284 8 12.5C8 11.6716 8.44772 11 9 11C9.55229 11 10 11.6716 10 12.5ZM15 14C15.5523 14 16 13.3284 16 12.5C16 11.6716 15.5523 11 15 11C14.4477 11 14 11.6716 14 12.5C14 13.3284 14.4477 14 15 14Z" fill="#2D50E6"/>
</svg>
