<svg width="24" height="24" viewBox="0 0 24 24" fill="none" xmlns="http://www.w3.org/2000/svg">
<path fill-rule="evenodd" clip-rule="evenodd" d="M2 5C2 3.34315 3.34315 2 5 2H19C20.6569 2 22 3.34315 22 5V19C22 20.6569 20.6569 22 19 22H5C3.34315 22 2 20.6569 2 19V5ZM18.5858 4H15.4142L4 15.4142V18.5858L18.5858 4ZM9.41421 4H12.5858L4 12.5858V9.41421L9.41421 4ZM6.58579 4H5C4.44771 4 4 4.44772 4 5V6.58579L6.58579 4ZM5.41421 20H8.58579L20 8.58579V5.41421L5.41421 20ZM14.5858 20H11.4142L20 11.4142V14.5858L14.5858 20ZM17.4142 20H19C19.5523 20 20 19.5523 20 19V17.4142L17.4142 20Z" fill="#2D50E6"/>
</svg>
