<svg width="24" height="24" viewBox="0 0 24 24" fill="none" xmlns="http://www.w3.org/2000/svg">
<path d="M19.6821 4.31802C17.9247 2.56066 15.0755 2.56066 13.3181 4.31802L13.3121 4.32405L3.73108 13.7431C3.70908 13.7647 3.68634 13.7851 3.66293 13.8043C2.7565 14.785 2.7796 16.3151 3.73223 17.2678C4.70854 18.2441 6.29146 18.2441 7.26777 17.2678C7.27434 17.2612 7.28101 17.2547 7.28777 17.2483L16.9901 8.0728C17.003 8.05835 17.0164 8.04419 17.0302 8.03033C17.3231 7.73744 17.3231 7.26256 17.0302 6.96967C16.7373 6.67678 16.2625 6.67678 15.9696 6.96967L15.9592 6.97998L6.68619 15.7274C6.28445 16.1064 5.65155 16.0879 5.27258 15.6862C4.89361 15.2844 4.91207 14.6516 5.31381 14.2726L14.5668 5.54404C15.6417 4.48153 17.3743 4.48533 18.4444 5.55546C19.4926 6.60362 19.5178 8.2874 18.5199 9.36608C18.4917 9.40116 18.4607 9.43474 18.4271 9.46655L8.67148 18.6924C6.91329 20.4393 4.07188 20.4358 2.31802 18.682C0.56066 16.9246 0.56066 14.0754 2.31802 12.318C2.34837 12.2877 2.38019 12.2597 2.41325 12.234L11.9071 2.90064C14.4458 0.365399 18.559 0.366455 21.0963 2.90381C23.6347 5.44221 23.6347 9.55779 21.0963 12.0962L10.4854 22.7071C10.0949 23.0976 9.46169 23.0976 9.07116 22.7071C8.68064 22.3166 8.68064 21.6834 9.07116 21.2929L19.6821 10.682C21.4395 8.92462 21.4395 6.07538 19.6821 4.31802Z" fill="#2D50E6"/>
</svg>
