<svg width="24" height="24" viewBox="0 0 24 24" fill="none" xmlns="http://www.w3.org/2000/svg">
<path d="M2 3.00201C2 2.1111 3.07714 1.66493 3.70711 2.2949L6.36947 4.95726C7 5.58779 7 6.60582 7 7.49773V7.5C7 8.19175 7.28357 8.82096 7.73591 9.27144L14.1339 15.6694C14.6434 16.179 14.9024 16.8731 15.1556 17.5518C15.1783 17.6127 15.2009 17.6735 15.2237 17.734C15.7227 19.0581 17.0014 20 18.5 20C18.9997 20 19.4744 19.8954 19.9037 19.7072C20.3678 19.5037 20.9333 19.5211 21.2916 19.8794L21.7029 20.2907C22.3329 20.9206 21.8867 21.9978 20.9958 21.9978H3C2.44772 21.9978 2 21.5501 2 20.9978V3.00201Z" fill="#2D50E6"/>
<path d="M15.7932 9.88504L9.72101 7.05137C9.65437 7.01848 9.57934 7 9.5 7C9.22386 7 9 7.22386 9 7.5C9 7.63891 9.05665 7.76459 9.1481 7.8552L16.6734 15.3805C16.9567 15.6638 17 16.0994 17 16.5C17 17.3284 17.6716 18 18.5 18C19.1538 18 19.7098 17.5818 19.9153 16.9982C19.9434 16.9994 19.9716 17 20 17C21.1046 17 22 16.1046 22 15C22 14.6357 21.9026 14.2942 21.7324 14C21.9026 13.7058 22 13.3643 22 13C22 11.8954 21.1046 11 20 11C19.4907 11 18.8646 10.6959 18.4788 10.3634C18.2161 10.1369 17.8741 10 17.5 10C17.354 10 17.2051 10.0083 17.0558 10.0166C16.6197 10.0408 16.1793 10.0653 15.7932 9.88504Z" fill="#2D50E6"/>
<path d="M17 7C17 7.55228 16.5523 8 16 8C15.4477 8 15 7.55228 15 7C15 6.44772 15.4477 6 16 6C16.5523 6 17 6.44772 17 7Z" fill="#2D50E6"/>
<path d="M12.5 7C12.7761 7 13 6.77614 13 6.5C13 6.22386 12.7761 6 12.5 6C12.2239 6 12 6.22386 12 6.5C12 6.77614 12.2239 7 12.5 7Z" fill="#2D50E6"/>
</svg>
