<svg width="24" height="24" viewBox="0 0 24 24" fill="none" xmlns="http://www.w3.org/2000/svg">
<path d="M1 12.5C1 8.45981 3.32151 7.90189 5.46338 7.38714C7.29756 6.94634 9 6.53719 9 4H11.5V4.56301C10.6374 4.78503 10 5.56808 10 6.5C10 6.83223 10.3887 6.9482 10.6872 6.80234C10.9401 6.67875 11.2131 6.58975 11.5 6.54154V7.56301C10.6374 7.78503 10 8.56808 10 9.5C10 9.83223 10.3887 9.9482 10.6872 9.80234C10.9401 9.67875 11.2131 9.58975 11.5 9.54154V10.563C10.6374 10.785 10 11.5681 10 12.5C10 12.8322 10.3887 12.9482 10.6872 12.8023C10.9401 12.6787 11.2131 12.5897 11.5 12.5415V13.563C10.6374 13.785 10 14.5681 10 15.5C10 15.8322 10.3887 15.9482 10.6872 15.8023C10.9401 15.6787 11.2131 15.5897 11.5 15.5415V16.563C10.6374 16.785 10 17.5681 10 18.5C10 18.8322 10.3887 18.9482 10.6872 18.8023C10.9401 18.6787 11.2131 18.5897 11.5 18.5415V20H1V12.5Z" fill="#2D50E6"/>
<path d="M12.5 20H23V12.5C23 8.45981 20.6785 7.90189 18.5366 7.38714C16.7024 6.94634 15 6.53719 15 4H12.5V4.56301C13.3626 4.78503 14 5.56808 14 6.5C14 6.83223 13.6113 6.9482 13.3128 6.80234C13.0599 6.67875 12.7869 6.58975 12.5 6.54154V7.56301C13.3626 7.78503 14 8.56808 14 9.5C14 9.83223 13.6113 9.9482 13.3128 9.80234C13.0599 9.67875 12.7869 9.58975 12.5 9.54154V10.563C13.3626 10.785 14 11.5681 14 12.5C14 12.8322 13.6113 12.9482 13.3128 12.8023C13.0599 12.6787 12.7869 12.5897 12.5 12.5415V13.563C13.3626 13.785 14 14.5681 14 15.5C14 15.8322 13.6113 15.9482 13.3128 15.8023C13.0599 15.6787 12.7869 15.5897 12.5 15.5415V16.563C13.3626 16.785 14 17.5681 14 18.5C14 18.8322 13.6113 18.9482 13.3128 18.8023C13.0599 18.6787 12.7869 18.5897 12.5 18.5415V20Z" fill="#2D50E6"/>
</svg>
