<svg width="24" height="24" viewBox="0 0 24 24" fill="none" xmlns="http://www.w3.org/2000/svg">
<path fill-rule="evenodd" clip-rule="evenodd" d="M14.8293 5H20C20.1888 5 20.3653 5.05231 20.516 5.14323C20.5688 5.17497 20.6179 5.21112 20.663 5.25099C20.745 5.32345 20.816 5.41024 20.8717 5.50954C20.8958 5.55236 20.9169 5.59714 20.9346 5.64358L23.655 12.3724C23.703 12.4801 23.7498 12.5907 23.7848 12.7022C23.9243 13.1092 24 13.5457 24 14C24 16.2091 22.2091 18 20 18C17.7909 18 16 16.2091 16 14C16 13.5447 16.0761 13.1072 16.2162 12.6995C16.2514 12.5882 16.2979 12.4779 16.3459 12.3705L18.5171 7H14.8293C14.6874 7.40141 14.4625 7.76361 14.1753 8.06598C13.5914 8.68049 13 9.39601 13 10.2436V17C13 17.5523 13.4477 18 14 18C15.1046 18 16 18.8954 16 20H8C8 18.8954 8.89543 18 10 18C10.5523 18 11 17.5523 11 17V10.2436C11 9.39601 10.4086 8.68049 9.82474 8.06598C9.53747 7.76361 9.31258 7.40141 9.17071 7H5.48292L7.65414 12.3705C7.70211 12.4779 7.74862 12.5882 7.78382 12.6995C7.92393 13.1072 8 13.5447 8 14C8 16.2091 6.20914 18 4 18C1.79086 18 0 16.2091 0 14C0 13.5457 0.0757233 13.1092 0.215236 12.7022C0.250166 12.5907 0.296986 12.4801 0.345026 12.3724L3.0654 5.64354C3.08297 5.59749 3.10386 5.55307 3.12775 5.51057C3.18356 5.41084 3.25474 5.3237 3.33703 5.25099C3.38204 5.21115 3.43109 5.17502 3.48389 5.1433C3.63456 5.05234 3.81117 5 4 5H9.17071C9.58254 3.83481 10.6938 3 12 3C13.3062 3 14.4175 3.83481 14.8293 5ZM2.5 12.5C2.5 12.4088 2.52356 12.3198 2.55772 12.2353L3.99996 8.66789L5.44239 12.2357C5.47649 12.3201 5.5 12.409 5.5 12.5C5.5 13.3284 4.82843 14 4 14C3.17157 14 2.5 13.3284 2.5 12.5ZM21.5 12.5C21.5 12.4088 21.4764 12.3198 21.4423 12.2353L20 8.66789L18.5576 12.2357C18.5235 12.3201 18.5 12.409 18.5 12.5C18.5 13.3284 19.1716 14 20 14C20.8284 14 21.5 13.3284 21.5 12.5Z" fill="#2D50E6"/>
</svg>
