<svg width="24" height="24" viewBox="0 0 24 24" fill="none" xmlns="http://www.w3.org/2000/svg">
<path fill-rule="evenodd" clip-rule="evenodd" d="M18.5858 21.4142C17.8047 22.1953 16.5384 22.1953 15.7574 21.4142L12 17.6569L8.24264 21.4142C7.46159 22.1953 6.19526 22.1953 5.41421 21.4142L2.58579 18.5858C1.80474 17.8047 1.80474 16.5384 2.58579 15.7574L6.34315 12L2.58579 8.24264C1.80474 7.46159 1.80474 6.19526 2.58579 5.41421L5.41421 2.58579C6.19526 1.80474 7.46159 1.80474 8.24264 2.58579L12 6.34315L15.7574 2.58579C16.5384 1.80474 17.8047 1.80474 18.5858 2.58579L21.4142 5.41421C22.1953 6.19526 22.1953 7.46159 21.4142 8.24264L17.6569 12L21.4142 15.7574C22.1953 16.5384 22.1953 17.8047 21.4142 18.5858L18.5858 21.4142ZM8 5C8 5.55229 7.55228 6 7 6C6.44772 6 6 5.55229 6 5C6 4.44772 6.44772 4 7 4C7.55228 4 8 4.44772 8 5ZM6 7C6 7.55229 5.55228 8 5 8C4.44772 8 4 7.55229 4 7C4 6.44772 4.44772 6 5 6C5.55228 6 6 6.44772 6 7ZM8 15C8 15.5523 7.55228 16 7 16C6.44772 16 6 15.5523 6 15C6 14.4477 6.44772 14 7 14C7.55228 14 8 14.4477 8 15ZM5 18C5.55228 18 6 17.5523 6 17C6 16.4477 5.55228 16 5 16C4.44772 16 4 16.4477 4 17C4 17.5523 4.44772 18 5 18ZM7 20C7.55228 20 8 19.5523 8 19C8 18.4477 7.55228 18 7 18C6.44772 18 6 18.4477 6 19C6 19.5523 6.44772 20 7 20ZM9 18C9.55228 18 10 17.5523 10 17C10 16.4477 9.55228 16 9 16C8.44772 16 8 16.4477 8 17C8 17.5523 8.44772 18 9 18ZM7 10C7.55228 10 8 9.55229 8 9C8 8.44772 7.55228 8 7 8C6.44772 8 6 8.44772 6 9C6 9.55229 6.44772 10 7 10ZM9 8C9.55228 8 10 7.55229 10 7C10 6.44772 9.55228 6 9 6C8.44772 6 8 6.44772 8 7C8 7.55229 8.44772 8 9 8ZM16 7C16 7.55229 15.5523 8 15 8C14.4477 8 14 7.55229 14 7C14 6.44772 14.4477 6 15 6C15.5523 6 16 6.44772 16 7ZM17 10C17.5523 10 18 9.55229 18 9C18 8.44772 17.5523 8 17 8C16.4477 8 16 8.44772 16 9C16 9.55229 16.4477 10 17 10ZM18 5C18 5.55229 17.5523 6 17 6C16.4477 6 16 5.55229 16 5C16 4.44772 16.4477 4 17 4C17.5523 4 18 4.44772 18 5ZM19 8C19.5523 8 20 7.55229 20 7C20 6.44772 19.5523 6 19 6C18.4477 6 18 6.44772 18 7C18 7.55229 18.4477 8 19 8ZM16 17C16 17.5523 15.5523 18 15 18C14.4477 18 14 17.5523 14 17C14 16.4477 14.4477 16 15 16C15.5523 16 16 16.4477 16 17ZM17 20C17.5523 20 18 19.5523 18 19C18 18.4477 17.5523 18 17 18C16.4477 18 16 18.4477 16 19C16 19.5523 16.4477 20 17 20ZM18 15C18 15.5523 17.5523 16 17 16C16.4477 16 16 15.5523 16 15C16 14.4477 16.4477 14 17 14C17.5523 14 18 14.4477 18 15ZM19 18C19.5523 18 20 17.5523 20 17C20 16.4477 19.5523 16 19 16C18.4477 16 18 16.4477 18 17C18 17.5523 18.4477 18 19 18ZM15.2073 10.2071C15.5978 10.5976 15.5978 11.2308 15.2073 11.6213L11.6215 15.2071C11.2309 15.5976 10.5978 15.5976 10.2073 15.2071L8.79304 13.7929C8.40252 13.4024 8.40252 12.7692 8.79304 12.3787L12.3788 8.79289C12.7694 8.40237 13.4025 8.40237 13.793 8.79289L15.2073 10.2071Z" fill="#2D50E6"/>
</svg>
