<svg width="24" height="24" viewBox="0 0 24 24" fill="none" xmlns="http://www.w3.org/2000/svg">
<path d="M1 5C1 4.44771 1.44772 4 2 4C2.55228 4 3 4.44772 3 5V19C3 19.5523 2.55228 20 2 20C1.44772 20 1 19.5523 1 19V5Z" fill="#2D50E6"/>
<path d="M5 5C5 4.44772 5.44772 4 6 4C6.55228 4 7 4.44772 7 5V15C7 15.5523 6.55228 16 6 16C5.44772 16 5 15.5523 5 15V5Z" fill="#2D50E6"/>
<path d="M10 4C9.44771 4 9 4.44771 9 5V19C9 19.5523 9.44771 20 10 20C10.5523 20 11 19.5523 11 19V5C11 4.44772 10.5523 4 10 4Z" fill="#2D50E6"/>
<path d="M13 9C13 8.44772 13.4477 8 14 8C14.5523 8 15 8.44772 15 9V19C15 19.5523 14.5523 20 14 20C13.4477 20 13 19.5523 13 19V9Z" fill="#2D50E6"/>
<path d="M18 4C17.4477 4 17 4.44772 17 5V15C17 15.5523 17.4477 16 18 16C18.5523 16 19 15.5523 19 15V5C19 4.44772 18.5523 4 18 4Z" fill="#2D50E6"/>
<path d="M21 5C21 4.44771 21.4477 4 22 4C22.5523 4 23 4.44772 23 5V19C23 19.5523 22.5523 20 22 20C21.4477 20 21 19.5523 21 19V5Z" fill="#2D50E6"/>
<path d="M6 20C6.55228 20 7 19.5523 7 19C7 18.4477 6.55228 18 6 18C5.44772 18 5 18.4477 5 19C5 19.5523 5.44772 20 6 20Z" fill="#2D50E6"/>
<path d="M15 5C15 5.55228 14.5523 6 14 6C13.4477 6 13 5.55228 13 5C13 4.44772 13.4477 4 14 4C14.5523 4 15 4.44772 15 5Z" fill="#2D50E6"/>
<path d="M18 20C18.5523 20 19 19.5523 19 19C19 18.4477 18.5523 18 18 18C17.4477 18 17 18.4477 17 19C17 19.5523 17.4477 20 18 20Z" fill="#2D50E6"/>
</svg>
