<svg width="24" height="24" viewBox="0 0 24 24" fill="none" xmlns="http://www.w3.org/2000/svg">
<path d="M17 17C16.1132 17 15.3065 17.1519 14.5993 17.3753L12.5745 9.83055C14.7761 9.45039 16.5861 9.78967 16.8324 10.7086C16.5465 9.64166 18.0951 8.2997 19.6955 7.87087C21.2959 7.44205 22.342 8.08875 22.6279 9.15568C21.1526 3.64978 15.7515 0.244161 10.2432 1.14348L10.1864 0.931901C10.0417 0.392473 9.48306 0.0762252 8.94603 0.229661C8.42111 0.37964 8.11352 0.922945 8.25502 1.45022L8.30641 1.64171C2.95685 3.54357 -0.117377 9.27057 1.37755 14.8497C1.09166 13.7828 1.67432 12.6996 3.27472 12.2708C4.87512 11.842 6.88722 12.2298 7.1731 13.2968C6.91849 12.3466 8.42189 11.097 10.6381 10.3301L12.7516 18.2058C12.3215 18.4608 11.9786 18.7115 11.7347 18.9066C11.6006 19.0138 11.4956 19.105 11.4215 19.1719C11.3844 19.2054 11.355 19.2329 11.3335 19.2534L11.3072 19.2787L11.2986 19.2872L11.2953 19.2904L11.2872 19.2983C11.2779 19.3071 11.2614 19.3226 11.2379 19.3438C11.1909 19.3862 11.1163 19.4513 11.0159 19.5316C10.8147 19.6926 10.5137 19.9118 10.1289 20.1317C10.0297 20.1884 9.9255 20.2448 9.81654 20.3001C9.07522 20.6761 8.11268 21 7 21C5.72378 21 4.64507 20.574 3.87114 20.1317C3.48625 19.9118 3.18534 19.6926 2.98407 19.5316C2.88374 19.4513 2.80909 19.3862 2.76208 19.3438C2.73861 19.3226 2.72211 19.3071 2.71285 19.2983L2.7044 19.2902C2.31367 18.9023 1.68252 18.9032 1.29289 19.2928C0.902369 19.6834 0.902369 20.3165 1.29289 20.7071L1.29534 20.7095L1.29855 20.7127L1.30722 20.7212L1.33354 20.7466C1.35504 20.767 1.38444 20.7945 1.42151 20.828C1.4956 20.8949 1.60064 20.9861 1.73468 21.0933C2.00216 21.3073 2.38875 21.5881 2.87886 21.8682C3.85493 22.426 5.27622 23 7 23C8.72378 23 10.1451 22.426 11.1211 21.8682C11.6113 21.5881 11.9978 21.3073 12.2653 21.0933C12.3994 20.9861 12.5044 20.8949 12.5785 20.828C12.6156 20.7945 12.645 20.767 12.6665 20.7466L12.6928 20.7212L12.7014 20.7127L12.7041 20.7101L12.7128 20.7016C12.7221 20.6928 12.7386 20.6773 12.7621 20.6561C12.8091 20.6137 12.8837 20.5486 12.9841 20.4683C13.1853 20.3073 13.4863 20.0881 13.8711 19.8682C14.6451 19.426 15.7238 19 17 19C18.2762 19 19.3549 19.426 20.1289 19.8682C20.5138 20.0881 20.8147 20.3073 21.0159 20.4683C21.1163 20.5486 21.1909 20.6137 21.2379 20.6561C21.2614 20.6773 21.2779 20.6928 21.2872 20.7016L21.2946 20.7087L21.2955 20.7097C21.6863 21.0976 22.3175 21.0967 22.7071 20.7071C23.0976 20.3165 23.0976 19.6834 22.7071 19.2928L22.706 19.2917L22.7047 19.2904C22.6637 19.2498 22.6213 19.2106 22.5785 19.1719C22.5044 19.105 22.3994 19.0138 22.2653 18.9066C21.9978 18.6926 21.6112 18.4118 21.1211 18.1317C20.1451 17.574 18.7238 17 17 17Z" fill="#2D50E6"/>
</svg>
