<svg width="24" height="24" viewBox="0 0 24 24" fill="none" xmlns="http://www.w3.org/2000/svg">
<path d="M17.6791 4.90669C16.5919 3.40102 14.9207 2.34493 12.9976 2.07054C12.9992 2.04724 13 2.02372 13 2C13 1.44772 12.5523 1 12 1C11.4477 1 11 1.44772 11 2C11 2.02372 11.0008 2.04724 11.0024 2.07054C9.02877 2.35214 7.32048 3.45701 6.2365 5.02621C5.04733 6.74768 4.81458 8.87881 4.58296 10.9995C4.50325 11.7293 4.42368 12.4579 4.30531 13.1681L4.16606 14.0036C4.06173 14.6296 3.66416 15.1679 3.09653 15.4517L2.68328 15.6584C2.26452 15.8677 2 16.2957 2 16.7639C2 17.4466 2.55341 18 3.23607 18H4.58579L1.29289 21.2929C0.902369 21.6834 0.902369 22.3166 1.29289 22.7071C1.68342 23.0976 2.31658 23.0976 2.70711 22.7071L22.7071 2.70711C23.0976 2.31658 23.0976 1.68342 22.7071 1.29289C22.3166 0.902369 21.6834 0.902369 21.2929 1.29289L17.6791 4.90669Z" fill="#2D50E6"/>
<path d="M10.2429 18L19.1773 9.06557C19.2755 9.70325 19.3463 10.3519 19.417 10.9996C19.4967 11.7293 19.5763 12.458 19.6947 13.1681L19.8339 14.0036C19.9383 14.6296 20.3358 15.1679 20.9035 15.4517L21.3167 15.6584C21.7355 15.8677 22 16.2957 22 16.7639C22 17.4466 21.4466 18 20.7639 18H10.2429Z" fill="#2D50E6"/>
<path d="M12 23C10.3431 23 9 21.6569 9 20H15C15 21.6569 13.6569 23 12 23Z" fill="#2D50E6"/>
</svg>
