<svg width="24" height="24" viewBox="0 0 24 24" fill="none" xmlns="http://www.w3.org/2000/svg">
<path d="M13 2C13 2.02372 12.9992 2.04724 12.9976 2.07054C14.9712 2.35214 16.6795 3.45701 17.7635 5.02621C18.9527 6.74768 19.1854 8.87893 19.4171 10.9996C19.4968 11.7294 19.5763 12.458 19.6947 13.1681L19.8339 14.0036C19.9383 14.6296 20.3358 15.1679 20.9035 15.4517L21.3167 15.6584C21.7355 15.8677 22 16.2957 22 16.7639C22 17.4466 21.4466 18 20.7639 18H3.23607C2.55341 18 2 17.4466 2 16.7639C2 16.2957 2.26452 15.8677 2.68328 15.6584L3.09653 15.4517C3.66416 15.1679 4.06173 14.6296 4.16606 14.0036L4.30531 13.1681C4.42368 12.4579 4.50325 11.7293 4.58296 10.9995C4.81458 8.87881 5.04733 6.74768 6.2365 5.02621C7.32048 3.45701 9.02877 2.35214 11.0024 2.07054C11.0008 2.04724 11 2.02372 11 2C11 1.44772 11.4477 1 12 1C12.5523 1 13 1.44772 13 2Z" fill="#2D50E6"/>
<path d="M12 23C10.3431 23 9 21.6569 9 20H15C15 21.6569 13.6569 23 12 23Z" fill="#2D50E6"/>
</svg>
