<svg width="24" height="24" viewBox="0 0 24 24" fill="none" xmlns="http://www.w3.org/2000/svg">
<g clip-path="url(#clip0_145_76)">
<path fill-rule="evenodd" clip-rule="evenodd" d="M4.48289 0.134096C4.34715 -0.0919923 4 0.00428051 4 0.268013L4.00004 20.2278C4.00004 20.9536 4.19739 21.6658 4.57097 22.288L5.39137 23.6545C5.66719 24.1139 6.33286 24.1139 6.60869 23.6545L7.39136 22.3508C7.66718 21.8914 8.33285 21.8914 8.60867 22.3508L9.39134 23.6545C9.66717 24.1139 10.3328 24.1139 10.6087 23.6545L11.3913 22.3508C11.6672 21.8914 12.3328 21.8914 12.6087 22.3508L13.3913 23.6545C13.6672 24.1139 14.3328 24.1139 14.6087 23.6545L15.3913 22.3508C15.6672 21.8914 16.3328 21.8914 16.6086 22.3508L17.3913 23.6545C17.6672 24.1139 18.3328 24.1139 18.6086 23.6545L19.4291 22.288C19.8026 21.6658 20 20.9524 20 20.2265C20 13.7584 20 6.76352 20 0.269278C20 0.0055455 19.6528 -0.0919843 19.5171 0.134105L18.6086 1.64722C18.3328 2.10664 17.6672 2.10664 17.3913 1.64723L16.6087 0.343588C16.3328 -0.115831 15.6672 -0.115831 15.3913 0.343587L14.6087 1.64723C14.3328 2.10664 13.6672 2.10664 13.3913 1.64723L12.6087 0.34359C12.3328 -0.115829 11.6672 -0.115828 11.3913 0.343592L10.6087 1.64722C10.3328 2.10664 9.66717 2.10664 9.39134 1.64722L8.60867 0.343595C8.33285 -0.115826 7.66718 -0.115826 7.39136 0.343594L6.60868 1.64723C6.33285 2.10665 5.66719 2.10665 5.39136 1.64723L4.48289 0.134096ZM5.99999 8.00258C5.99999 7.45009 6.44771 7.00222 6.99999 7.00222H17C17.5523 7.00222 18 7.45009 18 8.00258C18 8.55507 17.5523 9.00294 17 9.00294H6.99999C6.44771 9.00294 5.99999 8.55507 5.99999 8.00258ZM6.99999 11.0037C6.44771 11.0037 5.99999 11.4515 5.99999 12.004C5.99999 12.5565 6.44771 13.0044 6.99999 13.0044H17C17.5523 13.0044 18 12.5565 18 12.004C18 11.4515 17.5523 11.0037 17 11.0037H6.99999ZM5.99999 16.0055C5.99999 15.453 6.44771 15.0051 6.99999 15.0051H11C11.5523 15.0051 12 15.453 12 16.0055C12 16.558 11.5523 17.0058 11 17.0058H6.99999C6.44771 17.0058 5.99999 16.558 5.99999 16.0055Z" fill="#2D50E6"/>
</g>
<defs>
<clipPath id="clip0_145_76">
<rect width="24" height="24" fill="white"/>
</clipPath>
</defs>
</svg>
