<svg width="24" height="24" viewBox="0 0 24 24" fill="none" xmlns="http://www.w3.org/2000/svg">
<path fill-rule="evenodd" clip-rule="evenodd" d="M11 5.5C11 7 10.704 7 10 7C9.29597 7 9 7 9 5.5C9 4.67157 9.44771 4 10 4C10.5523 4 11 4.67157 11 5.5ZM11 18.5C11 17 10.704 17 10 17C9.29597 17 9 17 9 18.5C9 19.3284 9.44771 20 10 20C10.5523 20 11 19.3284 11 18.5ZM15 5.5C15 7 14.704 7 14 7C13.296 7 13 7 13 5.5C13 4.67157 13.4477 4 14 4C14.5523 4 15 4.67157 15 5.5ZM15 18.5C15 17 14.704 17 14 17C13.296 17 13 17 13 18.5C13 19.3284 13.4477 20 14 20C14.5523 20 15 19.3284 15 18.5ZM7 6.5C7 8.32843 6.5 9 6.5 9C6.5 9 5 8.32843 5 6.5C5 5.67157 5.44772 5 6 5C6.55228 5 7 5.67157 7 6.5ZM7 17.5C7 15.6716 6.5 15 6.5 15C6.5 15 5 15.6716 5 17.5C5 18.3284 5.44772 19 6 19C6.55228 19 7 18.3284 7 17.5ZM19 6.5C19 8.32843 17.5 9 17.5 9C17.5 9 17 8.32843 17 6.5C17 5.67157 17.4477 5 18 5C18.5523 5 19 5.67157 19 6.5ZM19 17.5C19 15.6716 17.5 15 17.5 15C17.5 15 17 15.6716 17 17.5C17 18.3284 17.4477 19 18 19C18.5523 19 19 18.3284 19 17.5ZM23 9C23 11 20.5 13 20.5 13C20.5 13 20 11 20 9C20 7.89543 20.6716 7 21.5 7C22.3284 7 23 7.89543 23 9ZM4 9C4 11 3.5 13 3.5 13C3.5 13 1 11 1 9C1 7.89543 1.67157 7 2.5 7C3.32843 7 4 7.89543 4 9ZM17 12C17 13.6569 14.7614 15 12 15C9.23858 15 7 13.6569 7 12C7 10.5391 8.74028 9.32216 11.0448 9.05468C11.0157 9.19537 11 9.34494 11 9.5C11 10.3284 11.4477 11 12 11C12.5523 11 13 10.3284 13 9.5C13 9.34494 12.9843 9.19537 12.9552 9.05468C15.2597 9.32216 17 10.5391 17 12Z" fill="#2D50E6"/>
</svg>
