<svg width="24" height="24" viewBox="0 0 24 24" fill="none" xmlns="http://www.w3.org/2000/svg">
<path d="M16.2 10.73C17.4633 9.86857 18.3488 8.45429 18.3488 7.14286C18.3488 4.23714 16.0698 2 13.1395 2H6C5.44771 2 5 2.44772 5 3V19C5 19.5523 5.44772 20 6 20H14.1684C16.8902 20 19 17.8143 19 15.1271C19 13.1729 17.88 11.5014 16.2 10.73ZM8.90698 5.21429H12.814C13.8949 5.21429 14.7674 6.07571 14.7674 7.14286C14.7674 8.21 13.8949 9.07143 12.814 9.07143H8.90698V5.21429ZM13.4651 16.7857H8.90698V12.9286H13.4651C14.546 12.9286 15.4186 13.79 15.4186 14.8571C15.4186 15.9243 14.546 16.7857 13.4651 16.7857Z" fill="#2D50E6"/>
</svg>
