<svg width="24" height="24" viewBox="0 0 24 24" fill="none" xmlns="http://www.w3.org/2000/svg">
<path fill-rule="evenodd" clip-rule="evenodd" d="M1 2.96535C1 2.3749 1.50503 1.91845 2.08768 2.01227C4.11823 2.33922 8.51379 3.2897 11.1013 5.65381C11.5936 6.1036 12.4064 6.1036 12.8987 5.65381C15.4862 3.2897 19.8818 2.33922 21.9123 2.01227C22.495 1.91845 23 2.3749 23 2.96536V17.07C23 17.5912 22.604 18.0279 22.0881 18.1C20.1467 18.3712 15.5652 19.2435 12.9002 21.6638C12.4065 22.1121 11.5935 22.1121 11.0998 21.6638C8.43476 19.2435 3.85326 18.3712 1.91189 18.1C1.39601 18.0279 1 17.5912 1 17.07V2.96535ZM11 9.00069C11.0002 8.74454 10.9025 8.48833 10.7071 8.29289C10.0355 7.62126 8.84854 7.06209 7.69123 6.67632C6.5004 6.27937 5.1399 6 4 6C3.44772 6 3 6.44772 3 7V11C3 11.5523 3.44772 12 4 12C4.8601 12 5.9996 12.2206 7.05877 12.5737C8.15146 12.9379 8.96452 13.3787 9.29289 13.7071C9.68342 14.0976 10.3166 14.0976 10.7071 13.7071C10.9025 13.5117 11.0002 13.2555 11 12.9993V9.00069ZM16.9412 8.57368C15.8485 8.93791 15.0355 9.37874 14.7071 9.70711C14.3166 10.0976 13.6834 10.0976 13.2929 9.70711C12.9024 9.31658 12.9024 8.68342 13.2929 8.29289C13.9645 7.62126 15.1515 7.06209 16.3088 6.67632C17.4996 6.27937 18.8601 6 20 6C20.5523 6 21 6.44772 21 7C21 7.55228 20.5523 8 20 8C19.1399 8 18.0004 8.22063 16.9412 8.57368ZM14.7071 13.7071C15.0355 13.3787 15.8485 12.9379 16.9412 12.5737C18.0004 12.2206 19.1399 12 20 12C20.5523 12 21 11.5523 21 11C21 10.4477 20.5523 10 20 10C18.8601 10 17.4996 10.2794 16.3088 10.6763C15.1515 11.0621 13.9645 11.6213 13.2929 12.2929C12.9024 12.6834 12.9024 13.3166 13.2929 13.7071C13.6834 14.0976 14.3166 14.0976 14.7071 13.7071ZM7.05877 16.5737C8.15146 16.9379 8.96452 17.3787 9.29289 17.7071C9.68342 18.0976 10.3166 18.0976 10.7071 17.7071C11.0976 17.3166 11.0976 16.6834 10.7071 16.2929C10.0355 15.6213 8.84854 15.0621 7.69123 14.6763C6.5004 14.2794 5.1399 14 4 14C3.44772 14 3 14.4477 3 15C3 15.5523 3.44772 16 4 16C4.8601 16 5.9996 16.2206 7.05877 16.5737ZM16.3656 16.7821C16.8797 16.5802 17.1327 15.9998 16.9308 15.4857C16.7288 14.9717 16.1484 14.7187 15.6344 14.9206C14.7363 15.2734 13.8466 15.7392 13.2929 16.2929C12.9024 16.6834 12.9024 17.3166 13.2929 17.7071C13.6834 18.0976 14.3166 18.0976 14.7071 17.7071C14.9635 17.4508 15.54 17.1065 16.3656 16.7821Z" fill="#2D50E6"/>
</svg>
