<svg width="24" height="24" viewBox="0 0 24 24" fill="none" xmlns="http://www.w3.org/2000/svg">
<path fill-rule="evenodd" clip-rule="evenodd" d="M11.5 4C11.5 2.89543 10.6046 2 9.5 2C8.84749 2 8.26796 2.31248 7.9029 2.79596C7.80756 2.92222 7.65821 3 7.5 3C6.17498 3 5.09072 4.03081 5.00541 5.33425C5.45866 5.11989 5.96533 5 6.5 5C8.433 5 10 6.567 10 8.5C10 8.77614 9.77614 9 9.5 9C9.22386 9 9 8.77614 9 8.5C9 7.11929 7.88071 6 6.5 6C5.86153 6 5.27896 6.23935 4.83711 6.6332C4.32346 7.09107 4 7.75776 4 8.5C4 8.66994 4.01696 8.83591 4.04927 8.99632C4.09614 9.22904 4.01432 9.47524 3.83711 9.6332C3.44196 9.98544 3.15937 10.4613 3.05001 11L3.04504 11.0251C3.01548 11.1789 3 11.3376 3 11.5C3 11.9284 3.10773 12.3315 3.29758 12.684C3.71966 13.4675 4.54764 14 5.5 14C5.77614 14 6 14.2239 6 14.5C6 14.7761 5.77614 15 5.5 15C4.54614 15 3.6814 14.6184 3.05009 13.9996C3.01724 14.1613 3 14.3286 3 14.5C3 15.314 3.38899 16.0371 3.99121 16.4935C4.27099 16.7056 4.37742 17.1326 4.22996 17.4512C4.08236 17.7702 4 18.1255 4 18.5C4 19.8807 5.11929 21 6.5 21C6.71415 21 6.922 20.9731 7.12037 20.9224C7.40709 20.8492 7.72702 20.9723 7.90592 21.208C8.27116 21.6892 8.84929 22 9.5 22C10.6046 22 11.5 21.1046 11.5 20C11.5 18.8954 10.6046 18 9.5 18C9.22386 18 9 17.7761 9 17.5C9 17.2239 9.22386 17 9.5 17C10.2684 17 10.9692 17.2889 11.5 17.7639V7.00001C11.5 5.89544 10.6046 5.00001 9.5 5.00001C9.22386 5.00001 9 4.77615 9 4.50001C9 4.22387 9.22386 4.00001 9.5 4.00001C10.2684 4.00001 10.9692 4.28886 11.5 4.7639V4ZM6 9C6 8.72386 5.77614 8.5 5.5 8.5C5.22386 8.5 5 8.72386 5 9C5 10.7265 6.25002 12.161 7.89438 12.4478C7.73011 12.7753 7.3913 13 7 13C6.72386 13 6.5 13.2239 6.5 13.5C6.5 13.7761 6.72386 14 7 14C7.94195 14 8.73181 13.3488 8.94396 12.4721C9.4146 12.4124 9.85672 12.2592 10.2504 12.0315C10.4894 11.8932 10.5711 11.5873 10.4328 11.3483C10.2945 11.1093 9.98867 11.0276 9.74964 11.1659C9.38243 11.3783 8.95619 11.5 8.5 11.5C7.11929 11.5 6 10.3807 6 9ZM5.50342 18C5.66439 18 5.84123 18 6.03136 18.0063C6.28466 16.0545 8.02479 15 9.5 15C9.77614 15 10 15.2239 10 15.5C10 15.7761 9.77614 16 9.5 16C8.43228 16 7.22425 16.7552 7.02768 18.1097C7.88508 18.2705 8.87448 18.6674 9.85355 19.6464C10.0488 19.8417 10.0488 20.1583 9.85355 20.3536C9.65829 20.5488 9.34171 20.5488 9.14645 20.3536C7.79473 19.0018 6.4723 19 5.5 19C5.22386 19 5 18.7761 5 18.5C5 18.2239 5.22386 18 5.5 18H5.50342Z" fill="#2D50E6"/>
<path fill-rule="evenodd" clip-rule="evenodd" d="M12.5 4C12.5 2.89543 13.3954 2 14.5 2C15.1525 2 15.732 2.31248 16.0971 2.79596C16.1924 2.92222 16.3418 3 16.5 3C17.825 3 18.9093 4.03081 18.9946 5.33425C18.5413 5.11989 18.0347 5 17.5 5C15.567 5 14 6.567 14 8.5C14 8.77614 14.2239 9 14.5 9C14.7761 9 15 8.77614 15 8.5C15 7.11929 16.1193 6 17.5 6C18.1385 6 18.721 6.23935 19.1629 6.6332C19.6765 7.09107 20 7.75776 20 8.5C20 8.66994 19.983 8.83591 19.9507 8.99632C19.9039 9.22904 19.9857 9.47524 20.1629 9.6332C20.558 9.98544 20.8406 10.4613 20.95 11L20.955 11.0251C20.9845 11.1789 21 11.3376 21 11.5C21 11.9284 20.8923 12.3315 20.7024 12.684C20.2803 13.4675 19.4524 14 18.5 14C18.2239 14 18 14.2239 18 14.5C18 14.7761 18.2239 15 18.5 15C19.4539 15 20.3186 14.6184 20.9499 13.9996C20.9828 14.1613 21 14.3286 21 14.5C21 15.314 20.611 16.0371 20.0088 16.4935C19.729 16.7056 19.6226 17.1326 19.77 17.4512C19.9176 17.7702 20 18.1255 20 18.5C20 19.8807 18.8807 21 17.5 21C17.2859 21 17.078 20.9731 16.8796 20.9224C16.5929 20.8492 16.273 20.9723 16.0941 21.208C15.7288 21.6892 15.1507 22 14.5 22C13.3954 22 12.5 21.1046 12.5 20C12.5 18.8954 13.3954 18 14.5 18C14.7761 18 15 17.7761 15 17.5C15 17.2239 14.7761 17 14.5 17C13.7316 17 13.0308 17.2889 12.5 17.7639V7.00001C12.5 5.89544 13.3954 5.00001 14.5 5.00001C14.7761 5.00001 15 4.77615 15 4.50001C15 4.22387 14.7761 4.00001 14.5 4.00001C13.7316 4.00001 13.0308 4.28886 12.5 4.7639V4ZM18 9C18 8.72386 18.2239 8.5 18.5 8.5C18.7761 8.5 19 8.72386 19 9C19 10.7265 17.75 12.161 16.1056 12.4478C16.2699 12.7753 16.6087 13 17 13C17.2761 13 17.5 13.2239 17.5 13.5C17.5 13.7761 17.2761 14 17 14C16.058 14 15.2682 13.3488 15.056 12.4721C14.5854 12.4124 14.1433 12.2592 13.7496 12.0315C13.5106 11.8932 13.4289 11.5873 13.5672 11.3483C13.7055 11.1093 14.0113 11.0276 14.2504 11.1659C14.6176 11.3783 15.0438 11.5 15.5 11.5C16.8807 11.5 18 10.3807 18 9ZM18.4966 18C18.3356 18 18.1588 18 17.9686 18.0063C17.7153 16.0545 15.9752 15 14.5 15C14.2239 15 14 15.2239 14 15.5C14 15.7761 14.2239 16 14.5 16C15.5677 16 16.7757 16.7552 16.9723 18.1097C16.1149 18.2705 15.1255 18.6674 14.1464 19.6464C13.9512 19.8417 13.9512 20.1583 14.1464 20.3536C14.3417 20.5488 14.6583 20.5488 14.8536 20.3536C16.2053 19.0018 17.5277 19 18.5 19C18.7761 19 19 18.7761 19 18.5C19 18.2239 18.7761 18 18.5 18H18.4966Z" fill="#2D50E6"/>
</svg>
