<svg width="24" height="24" viewBox="0 0 24 24" fill="none" xmlns="http://www.w3.org/2000/svg">
<path fill-rule="evenodd" clip-rule="evenodd" d="M17.5305 7.94044C22.1471 7.94044 23 10.983 23 14.9407V23H18.4415V15.8534C18.4415 14.1495 18.4125 11.9572 16.0731 11.9572C13.7004 11.9572 13.3383 13.8142 13.3383 15.732V23H8.78499V8.30482H13.1548V10.3141H13.2179C13.8259 9.15848 15.3132 7.94044 17.5305 7.94044ZM5.92561 8.30482V23H1.36201V8.30482H5.92561ZM3.64509 1C5.10338 1 6.28676 2.18639 6.28676 3.64821C6.28676 5.11089 5.10338 6.29728 3.64509 6.29728C2.18081 6.29728 1 5.11089 1 3.64821C1 2.18639 2.18081 1 3.64509 1Z" fill="white"/>
</svg>
