<svg width="24" height="24" viewBox="0 0 24 24" fill="none" xmlns="http://www.w3.org/2000/svg">
<path d="M20.6926 17.1447C20.3619 17.9133 19.9705 18.6208 19.517 19.2713C18.8988 20.158 18.3926 20.7719 18.0026 21.1127C17.3979 21.6722 16.75 21.9587 16.0562 21.975C15.5582 21.975 14.9576 21.8324 14.2584 21.5432C13.5569 21.2553 12.9123 21.1127 12.3229 21.1127C11.7047 21.1127 11.0417 21.2553 10.3325 21.5432C9.62228 21.8324 9.05013 21.9832 8.61267 21.9981C7.94739 22.0266 7.28426 21.7319 6.62234 21.1127C6.19987 20.742 5.67145 20.1064 5.03842 19.2061C4.35923 18.2446 3.80084 17.1297 3.36339 15.8587C2.89489 14.4857 2.66003 13.1563 2.66003 11.8692C2.66003 10.3948 2.97668 9.12321 3.61093 8.0576C4.10939 7.20166 4.77252 6.52647 5.60248 6.03081C6.43243 5.53514 7.3292 5.28256 8.29495 5.2664C8.82337 5.2664 9.51633 5.43085 10.3775 5.75405C11.2362 6.07834 11.7875 6.24279 12.0293 6.24279C12.21 6.24279 12.8225 6.0505 13.8609 5.66714C14.8428 5.31162 15.6716 5.16441 16.3505 5.2224C18.1902 5.37178 19.5723 6.10142 20.4915 7.41595C18.8462 8.41896 18.0323 9.82379 18.0485 11.626C18.0633 13.0297 18.5695 14.1979 19.5642 15.1254C20.015 15.5558 20.5185 15.8885 21.0786 16.1248C20.9572 16.4793 20.8289 16.8188 20.6926 17.1447ZM16.4733 0.440125C16.4733 1.54038 16.0738 2.56768 15.2774 3.51854C14.3164 4.64892 13.154 5.30211 11.8935 5.19904C11.8774 5.06705 11.8681 4.92812 11.8681 4.78214C11.8681 3.7259 12.3251 2.59552 13.1367 1.67127C13.5419 1.20331 14.0573 0.814209 14.6822 0.503814C15.3058 0.19805 15.8956 0.0289566 16.4504 0C16.4666 0.147086 16.4733 0.294182 16.4733 0.440111V0.440125Z" fill="black"/>
</svg>
