<svg width="24" height="24" viewBox="0 0 24 24" fill="none" xmlns="http://www.w3.org/2000/svg">
<path fill-rule="evenodd" clip-rule="evenodd" d="M17.04 14.1836C16.7663 14.0473 15.4207 13.3884 15.1698 13.2974C14.9189 13.2065 14.7365 13.1611 14.554 13.4337C14.3715 13.7064 13.847 14.32 13.6873 14.5018C13.5277 14.6835 13.368 14.7064 13.0944 14.57C12.8206 14.4336 11.9387 14.146 10.8933 13.2179C10.0796 12.4957 9.5303 11.6037 9.37063 11.3309C9.21101 11.0583 9.35367 10.9109 9.4907 10.775C9.61382 10.653 9.7644 10.4569 9.90122 10.2978C10.0381 10.1388 10.0837 10.0251 10.1749 9.84344C10.2662 9.66158 10.2206 9.50252 10.1521 9.36619C10.0837 9.22987 9.53629 7.88904 9.30824 7.34358C9.08606 6.81255 8.86042 6.88447 8.6924 6.87601C8.53294 6.86811 8.35026 6.86644 8.16785 6.86644C7.98538 6.86644 7.68884 6.9346 7.43799 7.20725C7.18708 7.48001 6.48001 8.139 6.48001 9.47973C6.48001 10.8205 7.46078 12.1157 7.59766 12.2975C7.73448 12.4794 9.52762 15.2306 12.2733 16.4106C12.9263 16.6912 13.4361 16.8589 13.8336 16.9843C14.4893 17.1917 15.086 17.1625 15.5575 17.0923C16.0834 17.0141 17.1768 16.4334 17.405 15.7971C17.633 15.1608 17.633 14.6154 17.5646 14.5018C17.4962 14.3882 17.3137 14.32 17.04 14.1836ZM12.046 20.9698H12.0423C10.4086 20.9692 8.80627 20.5324 7.40836 19.7068L7.07594 19.5104L3.63005 20.41L4.54978 17.0664L4.33334 16.7236C3.42195 15.2809 2.94063 13.6136 2.94131 11.9015C2.94331 6.90564 7.02762 2.84118 12.0496 2.84118C14.4815 2.84202 16.7674 3.78579 18.4864 5.49848C20.2053 7.21112 21.1514 9.48773 21.1506 11.9088C21.1485 16.905 17.0642 20.9698 12.046 20.9698ZM19.7947 4.19706C17.7266 2.13645 14.9762 1.00115 12.0459 1C6.0082 1 1.09423 5.8901 1.09181 11.9008C1.09102 13.8222 1.5954 15.6976 2.55401 17.3509L1 23L6.80687 21.484C8.40683 22.3525 10.2082 22.8103 12.0415 22.8109H12.046H12.0461C18.0831 22.8109 22.9976 17.9203 23 11.9095C23.0011 8.99663 21.8628 6.25763 19.7947 4.19706Z" fill="white"/>
</svg>
