<svg width="24" height="24" viewBox="0 0 24 24" fill="none" xmlns="http://www.w3.org/2000/svg">
<path fill-rule="evenodd" clip-rule="evenodd" d="M12 1C5.80282 1 1 5.53949 1 11.6704C1 14.8774 2.31469 17.6485 4.45493 19.563C4.63421 19.7246 4.74266 19.9481 4.75151 20.1894L4.81127 22.1459C4.83119 22.7701 5.47525 23.1751 6.04628 22.925L8.22857 21.9622C8.41449 21.8803 8.62032 21.8649 8.81509 21.918C9.81771 22.1946 10.8867 22.3407 12 22.3407C18.1972 22.3407 23 17.8012 23 11.6704C23 5.53949 18.1972 1 12 1ZM18.6044 9.20916L15.373 14.3352C14.8596 15.1497 13.7573 15.3533 12.9871 14.7756L10.4175 12.8478C10.1807 12.6708 9.85755 12.673 9.62294 12.8501L6.15252 15.4839C5.68994 15.8358 5.0835 15.2803 5.39557 14.7889L8.62696 9.66289C9.14044 8.84839 10.2427 8.64477 11.0129 9.22244L13.5825 11.1502C13.8193 11.3273 14.1425 11.3251 14.3771 11.148L17.8475 8.51418C18.3101 8.16226 18.9165 8.7178 18.6044 9.20916Z" fill="white"/>
</svg>
