<svg width="24" height="24" viewBox="0 0 24 24" fill="none" xmlns="http://www.w3.org/2000/svg">
<path d="M7.91076 21.375C16.2125 21.375 20.7551 14.4959 20.7551 8.54054C20.7551 8.34701 20.7551 8.15348 20.7463 7.95995C21.6267 7.32659 22.3926 6.52608 23 5.62002C22.1901 5.98068 21.3185 6.2182 20.403 6.33255C21.3361 5.77836 22.0492 4.88989 22.3926 3.83428C21.521 4.35328 20.5526 4.72275 19.5226 4.92507C18.6951 4.0454 17.5242 3.5 16.2301 3.5C13.7387 3.5 11.7139 5.52325 11.7139 8.01273C11.7139 8.3646 11.7579 8.70768 11.8283 9.04195C8.07803 8.85722 4.7503 7.05389 2.52301 4.32689C2.13565 4.99545 1.91557 5.76956 1.91557 6.59646C1.91557 8.16228 2.71669 9.54337 3.92277 10.3527C3.18327 10.3263 2.4878 10.124 1.88035 9.78968C1.88035 9.80727 1.88035 9.82486 1.88035 9.85125C1.88035 12.0328 3.43858 13.8626 5.4986 14.276C5.12005 14.3816 4.72389 14.4344 4.31012 14.4344C4.01961 14.4344 3.7379 14.408 3.46499 14.3552C4.03721 16.1497 5.70988 17.4516 7.68187 17.4868C6.13245 18.7008 4.18687 19.4221 2.07403 19.4221C1.71309 19.4221 1.35214 19.4045 1 19.3605C2.9896 20.6273 5.36655 21.375 7.91076 21.375Z" fill="#1DA1F2"/>
</svg>
