<svg width="24" height="24" viewBox="0 0 24 24" fill="none" xmlns="http://www.w3.org/2000/svg">
<path fill-rule="evenodd" clip-rule="evenodd" d="M13.2913 1C15.134 1.00417 15.5572 1.0204 16.5349 1.06501C17.7058 1.11842 18.5055 1.3044 19.2052 1.57635C19.9286 1.85744 20.5421 2.23358 21.1537 2.84514C21.7652 3.45674 22.1414 4.07021 22.4225 4.7936C22.6944 5.49332 22.8804 6.29299 22.9338 7.46388C22.9873 8.63721 23 9.01183 23 11.9994C23 14.987 22.9873 15.3616 22.9338 16.5349C22.8804 17.7058 22.6944 18.5055 22.4225 19.2052C22.1414 19.9286 21.7652 20.5421 21.1537 21.1537C20.5421 21.7652 19.9286 22.1414 19.2052 22.4225C18.5055 22.6944 17.7058 22.8804 16.5349 22.9338C15.3616 22.9873 14.987 23 11.9994 23C9.01182 23 8.6372 22.9873 7.46387 22.9338C6.29299 22.8804 5.49332 22.6944 4.7936 22.4225C4.07022 22.1414 3.45674 21.7652 2.84514 21.1537C2.23359 20.5421 1.85744 19.9286 1.57635 19.2052C1.3044 18.5055 1.11842 17.7058 1.06501 16.5349C1.0204 15.5572 1.00417 15.134 1 13.2913V10.7076C1.00417 8.86477 1.0204 8.44165 1.06501 7.46388C1.11842 6.29299 1.3044 5.49332 1.57635 4.7936C1.85744 4.07021 2.23359 3.45674 2.84514 2.84514C3.45674 2.23358 4.07022 1.85744 4.7936 1.57635C5.49332 1.3044 6.29299 1.11842 7.46387 1.06501C8.44165 1.0204 8.86476 1.00417 10.7076 1H13.2913ZM12.9862 2.98149H11.0127C8.96246 2.98436 8.56919 2.99874 7.55422 3.04505C6.48167 3.09395 5.8992 3.27316 5.51157 3.42381C4.9981 3.62337 4.63164 3.86175 4.24672 4.24672C3.86175 4.63164 3.62337 4.99809 3.42382 5.51157C3.27317 5.8992 3.09396 6.48168 3.04505 7.55422C2.99874 8.5692 2.98436 8.96246 2.98148 11.0127V12.9862C2.98436 15.0364 2.99874 15.4296 3.04505 16.4446C3.09396 17.5171 3.27317 18.0996 3.42382 18.4872C3.62337 19.0007 3.86179 19.3672 4.24672 19.7521C4.63164 20.1371 4.9981 20.3754 5.51157 20.575C5.8992 20.7257 6.48167 20.9049 7.55422 20.9538C8.56908 21.0001 8.96226 21.0145 11.0126 21.0173H12.9862C15.0366 21.0145 15.4298 21.0001 16.4446 20.9538C17.5171 20.9049 18.0996 20.7257 18.4872 20.575C19.0007 20.3754 19.3672 20.1371 19.7521 19.7521C20.1371 19.3672 20.3754 19.0007 20.575 18.4872C20.7257 18.0996 20.9049 17.5171 20.9538 16.4446C21.0001 15.4296 21.0145 15.0364 21.0173 12.9862V11.0127C21.0145 8.96246 21.0001 8.5692 20.9538 7.55422C20.9049 6.48168 20.7257 5.8992 20.575 5.51157C20.3754 4.99809 20.1371 4.63164 19.7521 4.24672C19.3672 3.86175 19.0007 3.62337 18.4872 3.42381C18.0996 3.27316 17.5171 3.09395 16.4446 3.04505C15.4296 2.99874 15.0364 2.98436 12.9862 2.98149ZM11.9994 6.35046C15.1193 6.35046 17.6484 8.87956 17.6484 11.9994C17.6484 15.1193 15.1193 17.6484 11.9994 17.6484C8.87956 17.6484 6.35045 15.1193 6.35045 11.9994C6.35045 8.87956 8.87956 6.35046 11.9994 6.35046ZM11.9994 8.33254C9.97424 8.33254 8.33255 9.97425 8.33255 11.9994C8.33255 14.0246 9.97424 15.6663 11.9994 15.6663C14.0246 15.6663 15.6663 14.0246 15.6663 11.9994C15.6663 9.97425 14.0246 8.33254 11.9994 8.33254ZM17.8715 4.80718C18.6006 4.80718 19.1916 5.39821 19.1916 6.12728C19.1916 6.85634 18.6006 7.44733 17.8715 7.44733C17.1425 7.44733 16.5515 6.85634 16.5515 6.12728C16.5515 5.39821 17.1425 4.80718 17.8715 4.80718Z" fill="white"/>
</svg>
