<svg width="24" height="24" viewBox="0 0 24 24" fill="none" xmlns="http://www.w3.org/2000/svg">
<path fill-rule="evenodd" clip-rule="evenodd" d="M4 3C4 1.89543 4.89543 1 6 1H18C19.1046 1 20 1.89543 20 3V21C20 22.1046 19.1046 23 18 23H6C4.89543 23 4 22.1046 4 21V3ZM13 4C13 3.44772 13.4477 3 14 3H17C17.5523 3 18 3.44772 18 4V10C18 10.5523 17.5523 11 17 11H14C13.4477 11 13 10.5523 13 10V4ZM14.4014 13H17C17.3511 13 17.6599 13.1809 17.8383 13.4546L16.5 14.7929V15.691L15.2236 16.3292L14.6084 15.0987L15.7848 13.9223L14.4014 13ZM17.5 15.2071L18 14.7071V19.882L17.309 18.5H16.309L15.6708 17.2236L17.5 16.309V15.2071ZM15 18.118L14.6084 18.9013L15.7071 20L14.7071 21H17C17.142 21 17.2771 20.9704 17.3995 20.917L16.691 19.5H15.691L15 18.118ZM13 14V20C13 20.3511 13.1809 20.6599 13.4546 20.8383L14.2929 20L13.3916 19.0987L14.441 17L13.3916 14.9013L14.2152 14.0777L13.1995 13.4006C13.0742 13.5676 13 13.7751 13 14ZM10 3C10.5523 3 11 3.44772 11 4V10C11 10.5523 10.5523 11 10 11H7C6.44772 11 6 10.5523 6 10V4C6 3.44772 6.44772 3 7 3H10ZM7 21C6.44772 21 6 20.5523 6 20V14C6 13.4477 6.44772 13 7 13H10C10.5523 13 11 13.4477 11 14V20C11 20.5523 10.5523 21 10 21H7Z" fill="#2D50E6"/>
</svg>
