<svg width="24" height="24" viewBox="0 0 24 24" fill="none" xmlns="http://www.w3.org/2000/svg">
<path fill-rule="evenodd" clip-rule="evenodd" d="M19.4645 14.2179L17.5984 3.63485C17.4089 2.56012 16.3837 1.84079 15.3089 2.03029L3.63294 4.08905C2.55815 4.27856 1.84082 5.3052 2.03038 6.37997C2.608 9.65497 2.94705 11.5781 3.36643 13.9569L4.0751 17.9763C4.5712 17.4996 5.20818 17.1671 5.91795 17.0482L5.77745 16.2514C5.73007 15.9827 5.90948 15.7265 6.17817 15.6791L7.15117 15.5076C7.41986 15.4602 7.67608 15.6396 7.72346 15.9083L7.75929 16.1115C7.99326 16.039 8.24201 16 8.5 16C8.58267 16 8.66439 16.004 8.74497 16.0118L8.69646 15.7367C8.64909 15.468 8.82849 15.2118 9.09718 15.1644L10.0702 14.9929C10.3389 14.9455 10.5951 15.1249 10.6425 15.3936L10.9323 17.0374C10.9551 17.0414 10.9778 17.0457 11.0004 17.0503C11.4727 16.5685 12.0837 16.2221 12.7694 16.0764L12.5885 15.0505C12.5411 14.7818 12.7205 14.5256 12.9892 14.4782L13.9622 14.3066C14.2309 14.2592 14.4871 14.4387 14.5345 14.7073L14.6387 15.2986C14.9097 15.0524 15.2078 14.8355 15.5281 14.6529L15.5075 14.5358C15.4601 14.2671 15.6395 14.0109 15.9082 13.9635L16.8812 13.7919C17.0933 13.7545 17.2976 13.8584 17.3975 14.0359C17.595 14.0122 17.7961 14 18 14C18.5096 14 19.0013 14.0762 19.4645 14.2179ZM4.06178 6.52153C4.0144 6.25285 4.19381 5.99663 4.4625 5.94926L5.4355 5.77769C5.70419 5.73032 5.96041 5.90972 6.00779 6.17841L6.35092 8.12438C6.3983 8.39306 6.21889 8.64928 5.9502 8.69666L4.9772 8.86822C4.70851 8.9156 4.45229 8.73619 4.40491 8.46751L4.06178 6.52153ZM6.98079 6.00684C6.93342 5.73816 7.11282 5.48194 7.38151 5.43457L8.35452 5.263C8.6232 5.21563 8.87943 5.39503 8.9268 5.66371L9.26994 7.60969C9.31731 7.87837 9.13791 8.13459 8.86922 8.18196L7.89621 8.35353C7.62752 8.40091 7.3713 8.2215 7.32393 7.95282L6.98079 6.00684ZM6.29334 10.6426C6.56203 10.5953 6.81825 10.7747 6.86562 11.0433L7.20876 12.9893C7.25613 13.258 7.07673 13.5142 6.80804 13.5616L5.83503 13.7332C5.56635 13.7805 5.31012 13.6011 5.26275 13.3324L4.91961 11.3865C4.87224 11.1178 5.05165 10.8616 5.32033 10.8142L6.29334 10.6426ZM8.18176 12.8178C8.22914 13.0864 8.48536 13.2658 8.75405 13.2185L9.72705 13.0469C9.99574 12.9995 10.1751 12.7433 10.1278 12.4746L9.78464 10.5287C9.73726 10.26 9.48104 10.0806 9.21235 10.1279L8.23935 10.2995C7.97066 10.3469 7.79125 10.6031 7.83863 10.8718L8.18176 12.8178ZM10.8728 5.32059C10.8254 5.0519 11.0048 4.79569 11.2735 4.74831L12.2465 4.57675C12.5152 4.52937 12.7714 4.70877 12.8188 4.97746L13.162 6.92343C13.2093 7.19212 13.0299 7.44833 12.7612 7.49571L11.7882 7.66727C11.5195 7.71465 11.2633 7.53524 11.2159 7.26656L10.8728 5.32059ZM13.7918 4.80589C13.7444 4.53721 13.9239 4.28099 14.1925 4.23362L15.1655 4.06205C15.4342 4.01468 15.6905 4.19408 15.7378 4.46277L16.081 6.40874C16.1283 6.67742 15.9489 6.93364 15.6803 6.98102L14.7072 7.15258C14.4386 7.19996 14.1823 7.02055 14.135 6.75187L13.7918 4.80589ZM13.1044 9.44169C13.3731 9.39431 13.6293 9.57371 13.6767 9.8424L14.0198 11.7884C14.0672 12.0571 13.8878 12.3133 13.6191 12.3606L12.6461 12.5322C12.3774 12.5796 12.1212 12.4002 12.0738 12.1315L11.7306 10.1855C11.6833 9.91684 11.8627 9.66063 12.1314 9.61325L13.1044 9.44169ZM14.9928 11.6168C15.0402 11.8855 15.2964 12.0649 15.5651 12.0175L16.5381 11.846C16.8068 11.7986 16.9862 11.5424 16.9388 11.2737L16.5957 9.32771C16.5483 9.05902 16.2921 8.87962 16.0234 8.92699L15.0504 9.09856C14.7817 9.14593 14.6023 9.40215 14.6497 9.67083L14.9928 11.6168Z" fill="#2D50E6"/>
<path d="M20.8881 21C21.245 21 21.5843 20.8132 21.7166 20.4816C21.8995 20.0234 22 19.5234 22 19C22 16.7909 20.2091 15 18 15C16.4458 15 15.0986 15.8864 14.4364 17.1813C14.1472 17.0644 13.8311 17 13.5 17C12.5737 17 11.765 17.5038 11.3331 18.2524C11.0948 18.093 10.8082 18 10.5 18C10.3049 18 10.1185 18.0373 9.94746 18.1051C9.77411 17.4682 9.19174 17 8.5 17C7.82323 17 7.25114 17.4482 7.06436 18.064C6.88299 18.0221 6.69408 18 6.5 18C5.57365 18 4.76498 18.5038 4.33307 19.2524C4.09477 19.093 3.80824 19 3.5 19C2.67157 19 2 19.6716 2 20.5C2 20.8055 2.28958 21 2.59504 21H20.8881Z" fill="#2D50E6"/>
</svg>
