<svg width="24" height="24" viewBox="0 0 24 24" fill="none" xmlns="http://www.w3.org/2000/svg">
<path d="M16.5312 11.8807C17.271 10.7485 18 9.6319 18 8C18 4.68628 15.3135 2 12 2C8.68652 2 6 4.68628 6 8C6 9.63422 6.72949 10.751 7.46924 11.8831C8.19285 12.9904 8.83635 14.2262 9.00039 15.5193C9.00143 15.5453 9.00451 15.5715 9.00976 15.5978L9.01028 15.6004C9.06549 15.8699 9.32816 16.0443 9.59815 15.9903L14.5907 14.9918L14.6 14.99L14.6027 14.9894C14.6197 14.9858 14.6364 14.9814 14.6526 14.9762C14.9278 14.8963 15.1437 14.7076 15.1931 14.5255C15.4694 13.5068 16.0029 12.6897 16.5312 11.8807Z" fill="#2D50E6"/>
<path d="M14.9903 20.4019C14.9362 20.1312 14.6728 19.9556 14.402 20.0097L9.99921 20.8903C9.72843 20.9444 9.55282 21.2078 9.60697 21.4786C9.62687 21.5781 9.675 21.6647 9.74136 21.7318L10.4141 22.4142C10.7891 22.7893 11.2979 23 11.8286 23H12.1714C12.7021 23 13.2109 22.7893 13.5859 22.4142L14.4141 21.5858C14.6582 21.3416 15.0658 20.7791 14.9903 20.4019Z" fill="#2D50E6"/>
<path d="M14.9903 16.4019C15.0444 16.6727 14.8688 16.9361 14.5981 16.9903L9.59806 17.9903C9.32728 18.0444 9.06387 17.8688 9.00971 17.5981C8.95555 17.3273 9.13116 17.0639 9.40194 17.0097L14.4019 16.0097C14.6727 15.9556 14.9361 16.1312 14.9903 16.4019Z" fill="#2D50E6"/>
<path d="M14.9903 18.4019C15.0444 18.6727 14.8688 18.9361 14.5981 18.9903L9.59806 19.9903C9.32728 20.0444 9.06387 19.8688 9.00971 19.5981C8.95555 19.3273 9.13116 19.0639 9.40194 19.0097L14.4019 18.0097C14.6727 17.9556 14.9361 18.1312 14.9903 18.4019Z" fill="#2D50E6"/>
<path d="M20.6607 2.99784C20.5159 2.74751 20.1906 2.68019 19.9482 2.83794L19.0619 3.4147C18.868 3.54087 18.8138 3.79936 18.9297 3.99958C19.0456 4.1998 19.2971 4.28263 19.5032 4.17744L20.445 3.6966C20.7026 3.56509 20.8056 3.24817 20.6607 2.99784Z" fill="#2D50E6"/>
<path d="M3.33926 2.99784C3.19439 3.24817 3.29743 3.56509 3.55502 3.6966L4.49684 4.17744C4.70287 4.28263 4.95444 4.1998 5.0703 3.99958C5.18617 3.79936 5.13203 3.54087 4.93814 3.4147L4.05181 2.83794C3.80939 2.68019 3.48412 2.74751 3.33926 2.99784Z" fill="#2D50E6"/>
<path d="M2.53563 7.50428C2.24724 7.4894 2 7.71122 2 7.99999C2 8.28877 2.24724 8.51058 2.53563 8.49571L3.59153 8.44125C3.82308 8.42931 4 8.23185 4 7.99999C4 7.76813 3.82308 7.57067 3.59153 7.55873L2.53563 7.50428Z" fill="#2D50E6"/>
<path d="M22 7.99999C22 7.71122 21.7528 7.4894 21.4644 7.50428L20.4085 7.55873C20.1769 7.57067 20 7.76813 20 7.99999C20 8.23185 20.1769 8.42931 20.4085 8.44125L21.4644 8.49571C21.7528 8.51058 22 8.28877 22 7.99999Z" fill="#2D50E6"/>
<path d="M3.33926 13.0021C3.48412 13.2525 3.80939 13.3198 4.05181 13.162L4.93814 12.5853C5.13203 12.4591 5.18617 12.2006 5.0703 12.0004C4.95444 11.8002 4.70287 11.7174 4.49684 11.8225L3.55502 12.3034C3.29743 12.4349 3.19439 12.7518 3.33926 13.0021Z" fill="#2D50E6"/>
<path d="M20.6607 13.0021C20.8056 12.7518 20.7026 12.4349 20.445 12.3034L19.5032 11.8225C19.2971 11.7174 19.0456 11.8002 18.9297 12.0004C18.8138 12.2006 18.868 12.4591 19.0619 12.5853L19.9482 13.162C20.1906 13.3198 20.5159 13.2525 20.6607 13.0021Z" fill="#2D50E6"/>
</svg>
