<svg width="24" height="24" viewBox="0 0 24 24" fill="none" xmlns="http://www.w3.org/2000/svg">
<path fill-rule="evenodd" clip-rule="evenodd" d="M12 23C18.0751 23 23 18.0751 23 12C23 5.92487 18.0751 1 12 1C5.92487 1 1 5.92487 1 12C1 18.0751 5.92487 23 12 23ZM19.069 15.4331C19.5655 15.7877 20.2655 15.6191 20.4719 15.0449C20.8137 14.0939 21 13.0687 21 12C21 10.9313 20.8137 9.9061 20.4719 8.9551C20.2655 8.38095 19.5655 8.21232 19.069 8.56694L18.1809 9.2013C17.8001 9.47332 17.6679 9.97127 17.7906 10.4229C17.9271 10.9255 18 11.4542 18 12C18 12.5458 17.9271 13.0745 17.7906 13.5771C17.6679 14.0287 17.8001 14.5267 18.1809 14.7987L19.069 15.4331ZM15.0449 20.4719C15.6191 20.2655 15.7877 19.5655 15.4331 19.069L14.7987 18.1809C14.5267 17.8001 14.0287 17.6679 13.5771 17.7906C13.0745 17.9271 12.5458 18 12 18C11.4542 18 10.9255 17.9271 10.4229 17.7906C9.97127 17.6679 9.47332 17.8001 9.2013 18.1809L8.56694 19.069C8.21232 19.5655 8.38095 20.2655 8.9551 20.4719C9.9061 20.8137 10.9313 21 12 21C13.0687 21 14.0939 20.8137 15.0449 20.4719ZM4.93098 15.4331C4.4345 15.7877 3.73451 15.6191 3.52812 15.0449C3.18627 14.0939 3 13.0687 3 12C3 10.9313 3.18627 9.90609 3.52812 8.9551C3.73451 8.38094 4.4345 8.21231 4.93098 8.56694L5.81907 9.20129C6.19991 9.47332 6.33213 9.97127 6.20942 10.4229C6.07287 10.9255 6 11.4542 6 12C6 12.5458 6.07287 13.0745 6.20942 13.5771C6.33213 14.0287 6.19991 14.5267 5.81907 14.7987L4.93098 15.4331ZM9.2013 5.81907C9.47333 6.19991 9.97127 6.33213 10.4229 6.20942C10.9255 6.07287 11.4542 6 12 6C12.5458 6 13.0745 6.07287 13.5771 6.20942C14.0287 6.33214 14.5267 6.19991 14.7987 5.81907L15.4331 4.93098C15.7877 4.4345 15.6191 3.73451 15.0449 3.52812C14.0939 3.18627 13.0687 3 12 3C10.9313 3 9.9061 3.18627 8.9551 3.52812C8.38095 3.73451 8.21232 4.43449 8.56695 4.93097L9.2013 5.81907ZM12 16C14.2091 16 16 14.2091 16 12C16 9.79086 14.2091 8 12 8C9.79086 8 8 9.79086 8 12C8 14.2091 9.79086 16 12 16Z" fill="#2D50E6"/>
</svg>
