<svg width="24" height="24" viewBox="0 0 24 24" fill="none" xmlns="http://www.w3.org/2000/svg">
<path fill-rule="evenodd" clip-rule="evenodd" d="M6 1C4.89543 1 4 1.89543 4 3V21C4 22.1046 4.89543 23 6 23H18C19.1046 23 20 22.1046 20 21V3C20 1.89543 19.1046 1 18 1H6ZM7 3C6.44772 3 6 3.44772 6 4V10C6 10.5523 6.44772 11 7 11H17C17.5523 11 18 10.5523 18 10V4C18 3.44772 17.5523 3 17 3H7ZM8 13C7.44772 13 7 13.4477 7 14C7 14.5523 7.44772 15 8 15C8.55228 15 9 14.5523 9 14C9 13.4477 8.55228 13 8 13ZM7 17C7 16.4477 7.44772 16 8 16C8.55228 16 9 16.4477 9 17C9 17.5523 8.55228 18 8 18C7.44772 18 7 17.5523 7 17ZM8 19C7.44772 19 7 19.4477 7 20C7 20.5523 7.44772 21 8 21C8.55228 21 9 20.5523 9 20C9 19.4477 8.55228 19 8 19ZM11 14C11 13.4477 11.4477 13 12 13C12.5523 13 13 13.4477 13 14C13 14.5523 12.5523 15 12 15C11.4477 15 11 14.5523 11 14ZM12 16C11.4477 16 11 16.4477 11 17C11 17.5523 11.4477 18 12 18C12.5523 18 13 17.5523 13 17C13 16.4477 12.5523 16 12 16ZM11 20C11 19.4477 11.4477 19 12 19C12.5523 19 13 19.4477 13 20C13 20.5523 12.5523 21 12 21C11.4477 21 11 20.5523 11 20ZM16 13C15.4477 13 15 13.4477 15 14C15 14.5523 15.4477 15 16 15C16.5523 15 17 14.5523 17 14C17 13.4477 16.5523 13 16 13ZM15 17C15 16.4477 15.4477 16 16 16C16.5523 16 17 16.4477 17 17V20C17 20.5523 16.5523 21 16 21C15.4477 21 15 20.5523 15 20V17Z" fill="#2D50E6"/>
</svg>
