<svg width="24" height="24" viewBox="0 0 24 24" fill="none" xmlns="http://www.w3.org/2000/svg">
<path d="M8 0C7.44772 0 7 0.447715 7 1V5C7 5.55228 7.44772 6 8 6C8.55228 6 9 5.55228 9 5V1C9 0.447715 8.55228 0 8 0Z" fill="#2D50E6"/>
<path d="M8 16C9.10457 16 10 15.1046 10 14C10 12.8954 9.10457 12 8 12C6.89543 12 6 12.8954 6 14C6 15.1046 6.89543 16 8 16Z" fill="#2D50E6"/>
<path fill-rule="evenodd" clip-rule="evenodd" d="M11 3H13V5C13 6.65685 14.3431 8 16 8C17.6569 8 19 6.65685 19 5V3C20.6569 3 22 4.34315 22 6V20C22 21.6569 20.6569 23 19 23H5C3.34315 23 2 21.6569 2 20V6C2 4.34315 3.34315 3 5 3L5 5C5 6.65685 6.34315 8 8 8C9.65685 8 11 6.65685 11 5V3ZM4 10H20V20C20 20.5523 19.5523 21 19 21H5C4.44772 21 4 20.5523 4 20V10Z" fill="#2D50E6"/>
<path d="M15 1C15 0.447715 15.4477 0 16 0C16.5523 0 17 0.447715 17 1V5C17 5.55228 16.5523 6 16 6C15.4477 6 15 5.55228 15 5V1Z" fill="#2D50E6"/>
</svg>
