<svg width="24" height="24" viewBox="0 0 24 24" fill="none" xmlns="http://www.w3.org/2000/svg">
<path fill-rule="evenodd" clip-rule="evenodd" d="M3.85969 5.59551C4.44515 4.03429 5.93763 3 7.60501 3H16.061C17.7284 3 19.2209 4.03429 19.8063 5.59551L21.083 9H21.833C22.3853 9 22.833 9.44771 22.833 10C22.833 10.5523 22.3853 11 21.833 11H21.6672C21.7773 11.597 21.833 12.2039 21.833 12.8133V20C21.833 20.5523 21.3853 21 20.833 21H18.833C18.2807 21 17.833 20.5523 17.833 20V18H5.83301V20C5.83301 20.5523 5.38529 21 4.83301 21H2.83301C2.28072 21 1.83301 20.5523 1.83301 20V12.8133C1.83301 12.2039 1.88872 11.597 1.99879 11H1.83301C1.28072 11 0.833008 10.5523 0.833008 10C0.833008 9.44771 1.28072 9 1.83301 9H2.58301L3.85969 5.59551ZM6.83301 14.5C6.83301 15.3284 6.16144 16 5.33301 16C4.50458 16 3.83301 15.3284 3.83301 14.5C3.83301 13.6716 4.50458 13 5.33301 13C6.16144 13 6.83301 13.6716 6.83301 14.5ZM18.333 16C19.1614 16 19.833 15.3284 19.833 14.5C19.833 13.6716 19.1614 13 18.333 13C17.5046 13 16.833 13.6716 16.833 14.5C16.833 15.3284 17.5046 16 18.333 16ZM18.5839 11C19.116 11 19.5105 10.5026 19.3237 10.0044L17.9337 6.29775C17.641 5.51715 16.8947 5 16.061 5H7.60504C6.77135 5 6.02511 5.51715 5.73238 6.29775L4.3424 10.0044C4.15556 10.5026 4.55005 11 5.08218 11H18.5839ZM9.33301 15C9.05687 15 8.83301 15.2239 8.83301 15.5C8.83301 15.7761 9.05687 16 9.33301 16H14.333C14.6091 16 14.833 15.7761 14.833 15.5C14.833 15.2239 14.6091 15 14.333 15H9.33301Z" fill="#2D50E6"/>
</svg>
