<svg width="24" height="24" viewBox="0 0 24 24" fill="none" xmlns="http://www.w3.org/2000/svg">
<path d="M1 6C1 4.89543 1.89543 4 3 4H21C22.1046 4 23 4.89543 23 6C23 6.55228 22.5523 7 22 7H2C1.44772 7 1 6.55228 1 6Z" fill="#2D50E6"/>
<path fill-rule="evenodd" clip-rule="evenodd" d="M22 9C22.5523 9 23 9.44772 23 10V18C23 19.1046 22.1046 20 21 20H3C1.89543 20 1 19.1046 1 18V10C1 9.44771 1.44772 9 2 9H22ZM18 16C17.4477 16 17 16.4477 17 17C17 17.5523 17.4477 18 18 18H20C20.5523 18 21 17.5523 21 17C21 16.4477 20.5523 16 20 16H18Z" fill="#2D50E6"/>
</svg>
