<svg width="24" height="24" viewBox="0 0 24 24" fill="none" xmlns="http://www.w3.org/2000/svg">
<path d="M1 2C1 1.44772 1.44772 1 2 1H4.5C4.9669 1 5.37166 1.32309 5.47513 1.77838L5.75277 3H22C22.3543 3 22.6822 3.18749 22.8619 3.49287C23.0416 3.79825 23.0462 4.17591 22.8742 4.48564L17.8742 13.4856C17.6978 13.8031 17.3632 14 17 14H7.00001C7.00001 14 7.00001 14 7.00001 14C6.44776 14 6 14.4478 6 15C6 15.5522 6.44775 16 7 16H18.5C19.0522 16 19.5 16.4478 19.5 17C19.5 17.5522 19.0522 18 18.5 18H7C5.34326 18 4 16.6567 4 15C4 13.7685 4.74218 12.7102 5.80361 12.2481L3.70177 3H2C1.44772 3 1 2.55228 1 2Z" fill="#2D50E6"/>
<path d="M9 21C9 22.1045 8.10449 23 7 23C5.89551 23 5 22.1045 5 21C5 19.8955 5.89551 19 7 19C8.10449 19 9 19.8955 9 21Z" fill="#2D50E6"/>
<path d="M19 21C19 22.1045 18.1045 23 17 23C15.8955 23 15 22.1045 15 21C15 19.8955 15.8955 19 17 19C18.1045 19 19 19.8955 19 21Z" fill="#2D50E6"/>
</svg>
