<svg width="24" height="24" viewBox="0 0 24 24" fill="none" xmlns="http://www.w3.org/2000/svg">
<path d="M3 4C3.55228 4 4.01632 4.46 3.83563 4.98189C3.53546 5.84889 2.84889 6.53546 1.98189 6.83563C1.46 7.01632 1 6.55228 1 6C1 4.89543 1.89543 4 3 4Z" fill="#2D50E6"/>
<path d="M12 14C13.1046 14 14 13.1046 14 12C14 10.8954 13.1046 10 12 10C10.8954 10 10 10.8954 10 12C10 13.1046 10.8954 14 12 14Z" fill="#2D50E6"/>
<path fill-rule="evenodd" clip-rule="evenodd" d="M6.5 4C6.22386 4 6.00263 4.2245 5.97538 4.4993C5.74113 6.86207 3.86207 8.74113 1.4993 8.97538C1.2245 9.00263 1 9.22386 1 9.5V14.5C1 14.7761 1.2245 14.9974 1.4993 15.0246C3.86207 15.2589 5.74113 17.1379 5.97538 19.5007C6.00263 19.7755 6.22386 20 6.5 20H17.5C17.7761 20 17.9974 19.7755 18.0246 19.5007C18.2589 17.1379 20.1379 15.2589 22.5007 15.0246C22.7755 14.9974 23 14.7761 23 14.5V9.5C23 9.22386 22.7755 9.00263 22.5007 8.97538C20.1379 8.74113 18.2589 6.86207 18.0246 4.4993C17.9974 4.2245 17.7761 4 17.5 4H6.5ZM12 16C14.2091 16 16 14.2091 16 12C16 9.79086 14.2091 8 12 8C9.79086 8 8 9.79086 8 12C8 14.2091 9.79086 16 12 16Z" fill="#2D50E6"/>
<path d="M20.1644 4.98189C19.9837 4.46 20.4477 4 21 4C22.1046 4 23 4.89543 23 6C23 6.55228 22.54 7.01632 22.0181 6.83563C21.1511 6.53546 20.4645 5.84889 20.1644 4.98189Z" fill="#2D50E6"/>
<path d="M1 18C1 17.4477 1.46 16.9837 1.98189 17.1644C2.84889 17.4645 3.53546 18.1511 3.83563 19.0181C4.01632 19.54 3.55228 20 3 20C1.89543 20 1 19.1046 1 18Z" fill="#2D50E6"/>
<path d="M22.0181 17.1644C22.54 16.9837 23 17.4477 23 18C23 19.1046 22.1046 20 21 20C20.4477 20 19.9837 19.54 20.1644 19.0181C20.4645 18.1511 21.1511 17.4645 22.0181 17.1644Z" fill="#2D50E6"/>
</svg>
