<svg width="24" height="24" viewBox="0 0 24 24" fill="none" xmlns="http://www.w3.org/2000/svg">
<path fill-rule="evenodd" clip-rule="evenodd" d="M2.5 2C2.77614 2 3 2.22386 3 2.5C3 2.77614 3.22386 3 3.5 3C3.77614 3 4 2.77614 4 2.5C4 2.22386 4.22386 2 4.5 2H5.5C5.77614 2 6 2.22386 6 2.5C6 2.77614 6.22386 3 6.5 3C6.77614 3 7 2.77614 7 2.5C7 2.22386 7.22386 2 7.5 2C7.83336 2 8.16672 2 8.50008 2.00002C8.77619 2.00003 9 2.22388 9 2.49999V4.58579C9 4.851 8.89464 5.10536 8.70711 5.29289L8.29289 5.70711C8.10536 5.89464 8 6.149 8 6.41421V8H9.5C9.77614 8 10 8.22386 10 8.5C10 8.77614 10.2239 9 10.5 9C10.7761 9 11 8.77614 11 8.5C11 8.22386 11.2239 8 11.5 8H12.5C12.7761 8 13 8.22386 13 8.5C13 8.77614 13.2239 9 13.5 9C13.7761 9 14 8.77614 14 8.5C14 8.22386 14.2239 8 14.5 8H16V6.41421C16 6.149 15.8946 5.89464 15.7071 5.70711L15.2929 5.29289C15.1054 5.10536 15 4.851 15 4.58579C15 4.30836 15 2.85193 15 2.4998C15 2.22366 15.2239 2 15.5 2H16.5C16.7761 2 17 2.22386 17 2.5C17 2.77614 17.2239 3 17.5 3C17.7761 3 18 2.77614 18 2.5C18 2.22386 18.2239 2 18.5 2H19.5C19.7761 2 20 2.22386 20 2.5C20 2.77614 20.2239 3 20.5 3C20.7761 3 21 2.77614 21 2.5C21 2.22386 21.2239 2 21.5 2C21.8334 2 22.1667 2 22.5001 2.00002C22.7762 2.00003 23 2.22388 23 2.49999V4.58579C23 4.851 22.8946 5.10536 22.7071 5.29289L22.2929 5.70711C22.1054 5.89464 22 6.149 22 6.41421V22H14V18C14 16.8954 13.1046 16 12 16C10.8954 16 10 16.8954 10 18V22H2V6.41421C2 6.149 1.89464 5.89464 1.70711 5.70711L1.29289 5.29289C1.10536 5.10536 1 4.851 1 4.58579V2.49999C1 2.22388 1.22381 2.00003 1.49992 2.00002C1.83328 2 2.16664 2 2.5 2ZM5 6C4.44772 6 4 6.44772 4 7V9H6V7C6 6.44772 5.55228 6 5 6ZM4 12C4 11.4477 4.44772 11 5 11C5.55228 11 6 11.4477 6 12V14H4V12ZM5 16C4.44772 16 4 16.4477 4 17V19H6V17C6 16.4477 5.55228 16 5 16ZM18 7C18 6.44772 18.4477 6 19 6C19.5523 6 20 6.44772 20 7V9H18V7ZM19 11C18.4477 11 18 11.4477 18 12V14H20V12C20 11.4477 19.5523 11 19 11ZM18 17C18 16.4477 18.4477 16 19 16C19.5523 16 20 16.4477 20 17V19H18V17ZM13 12C13 11.4477 13.4477 11 14 11C14.5523 11 15 11.4477 15 12V14H13V12ZM10 11C9.44771 11 9 11.4477 9 12V14H11V12C11 11.4477 10.5523 11 10 11Z" fill="#2D50E6"/>
</svg>
