<svg width="24" height="24" viewBox="0 0 24 24" fill="none" xmlns="http://www.w3.org/2000/svg">
<path d="M9 1C10.6569 1 12 2.34315 12 4V8.38185L7.76117 10.5013L4 8.41174V6.76374L8.76288 5.46477C9.2957 5.31946 9.60984 4.76971 9.46453 4.23689C9.31921 3.70406 8.76947 3.38993 8.23665 3.53524L4 4.69069V4C4 2.34315 5.34315 1 7 1H9Z" fill="#2D50E6"/>
<path d="M4 10.6997V12.3819L5.59366 11.585L4 10.6997Z" fill="#2D50E6"/>
<path d="M4 14.6179V17C4 18.4345 4.50341 19.7514 5.34322 20.7837L7.74756 16.662L5.13564 14.0501L4 14.6179Z" fill="#2D50E6"/>
<path d="M6.87678 22.124C7.78656 22.6798 8.85588 23 10 23H10.2557L11.1395 20.054L9.20992 18.1244L6.87678 22.124Z" fill="#2D50E6"/>
<path d="M12.3438 23H16.1681L13.5606 18.9439L12.3438 23Z" fill="#2D50E6"/>
<path d="M18.5457 23H19C20.6569 23 22 21.6569 22 20V18C22 17.191 21.6798 16.4568 21.1592 15.9172L19.8942 18.4472C19.6472 18.9412 19.0465 19.1414 18.5525 18.8944C18.0586 18.6474 17.8583 18.0468 18.1053 17.5528L19.3704 15.0226C19.249 15.0077 19.1254 15 19 15H14.7438L14.3168 16.4234C14.3251 16.4351 14.3331 16.4471 14.3409 16.4592L18.5457 23Z" fill="#2D50E6"/>
<path d="M12.7802 14.5851C12.3057 14.2194 12 13.6454 12 13V10.6179L7.02126 13.1073L9.69172 15.7778C9.70239 15.788 9.7128 15.7984 9.72295 15.809L11.7922 17.8783L12.7802 14.5851Z" fill="#2D50E6"/>
</svg>
