<svg width="24" height="24" viewBox="0 0 24 24" fill="none" xmlns="http://www.w3.org/2000/svg">
<path fill-rule="evenodd" clip-rule="evenodd" d="M4.24272 0.0300038C3.75759 -0.0912787 3.25745 0.164449 3.07173 0.628743C2.71235 1.52719 2.00023 3.82609 2.00023 6.00002C2.00023 6.98374 2.20998 8.13458 2.43165 9.08528C2.15111 10.0074 2.00023 10.986 2.00023 11.9999C2.00023 12.0937 2.00152 12.1872 2.00409 12.2804L1.31647 12.0512C0.79254 11.8766 0.226231 12.1597 0.051587 12.6837C-0.123057 13.2076 0.160097 13.7739 0.684029 13.9486L2.31314 14.4916C2.63886 15.7616 3.20775 16.9342 3.96725 17.9567L0.684029 19.0511C0.160097 19.2257 -0.123057 19.792 0.051587 20.316C0.226231 20.8399 0.79254 21.1231 1.31647 20.9484L5.46205 19.5665C7.21509 21.0826 9.50046 21.9997 12 21.9997C14.4996 21.9997 16.785 21.0826 18.538 19.5665L22.6836 20.9484C23.2075 21.1231 23.7738 20.8399 23.9485 20.316C24.1231 19.792 23.84 19.2257 23.316 19.0511L20.0328 17.9567C20.7923 16.9342 21.3612 15.7616 21.6869 14.4916L23.316 13.9486C23.84 13.7739 24.1231 13.2076 23.9485 12.6837C23.7738 12.1597 23.2075 11.8766 22.6836 12.0512L21.996 12.2804C21.9985 12.1872 21.9998 12.0937 21.9998 11.9999C21.9998 10.986 21.8489 10.0074 21.5684 9.08528C21.7901 8.13458 21.9998 6.98374 21.9998 6.00002C21.9998 3.82609 21.2877 1.52719 20.9283 0.628743C20.7426 0.164449 20.2425 -0.0912787 19.7573 0.0300038C18.9712 0.226547 17.1423 0.971388 15.1476 2.50556C14.158 2.17762 13.0997 2.00011 12 2.00011C10.9003 2.00011 9.8421 2.17763 8.85241 2.50556C6.8578 0.971388 5.02889 0.226547 4.24272 0.0300038ZM21.996 12.2804L16.6837 14.0512C16.1598 14.2258 15.8766 14.7921 16.0513 15.3161C16.2259 15.84 16.7922 16.1232 17.3161 15.9485L21.6869 14.4916C21.8689 13.7819 21.975 13.0418 21.996 12.2804ZM20.0328 17.9567L17.3161 17.0511C16.7922 16.8765 16.2259 17.1596 16.0513 17.6836C15.8766 18.2075 16.1598 18.7738 16.6837 18.9484L18.538 19.5665C19.093 19.0866 19.5946 18.5466 20.0328 17.9567ZM5.46205 19.5665L7.31635 18.9484C7.84028 18.7738 8.12344 18.2075 7.94879 17.6836C7.77415 17.1596 7.20784 16.8765 6.68391 17.0511L3.96725 17.9567C4.40544 18.5466 4.90707 19.0866 5.46205 19.5665ZM2.31314 14.4916L6.68391 15.9485C7.20784 16.1232 7.77415 15.84 7.94879 15.3161C8.12344 14.7921 7.84028 14.2258 7.31635 14.0512L2.00409 12.2804C2.02506 13.0418 2.13114 13.7819 2.31314 14.4916ZM4.00019 5.99906C4.75601 4.99306 5.69717 4.13427 6.77296 3.47336C6.16531 3.06722 5.60339 2.75324 5.12666 2.5186C4.85827 2.38651 4.54098 2.5338 4.46477 2.82307C4.22127 3.7473 4.00032 4.91017 4.00019 5.99906ZM19.5353 2.82307C19.7788 3.7473 19.9997 4.91018 19.9999 5.99906C19.244 4.99307 18.3029 4.13427 17.2271 3.47336C17.8347 3.06722 18.3967 2.75324 18.8734 2.5186C19.1418 2.38651 19.4591 2.5338 19.5353 2.82307ZM14 14.7513C14 15.5792 13.1046 16.9998 12 16.9998C10.8955 16.9998 10.0001 15.5792 10.0001 14.7513C10.0001 13.9907 10.756 13.9951 11.7356 14.0008C11.8221 14.0013 11.9104 14.0019 12 14.0019C12.0897 14.0019 12.178 14.0013 12.2645 14.0008C13.244 13.9951 14 13.9907 14 14.7513ZM9.19974 9.79987C10.0833 10.6835 10.2624 11.937 9.59971 12.5996C8.93702 13.2623 7.68352 13.0833 6.79993 12.1997C5.91635 11.3161 5.73727 10.0626 6.39996 9.3999C7.06265 8.73721 8.31616 8.91629 9.19974 9.79987ZM14.3998 12.5996C13.7371 11.937 13.9162 10.6835 14.7998 9.79987C15.6834 8.91629 16.9369 8.73721 17.5995 9.3999C18.2622 10.0626 18.0832 11.3161 17.1996 12.1997C16.316 13.0833 15.0625 13.2623 14.3998 12.5996Z" fill="#2D50E6"/>
</svg>
