<svg width="24" height="24" viewBox="0 0 24 24" fill="none" xmlns="http://www.w3.org/2000/svg">
<path d="M3 11.5C3 9.567 4.567 8 6.5 8H8.5C10.433 8 12 9.567 12 11.5H7.5V12.5H12C12 14.433 10.433 16 8.5 16H6.5C4.567 16 3 14.433 3 12.5V11.5Z" fill="#2D50E6"/>
<path d="M13 8H19.25C20.2165 8 21 8.7835 21 9.75C21 10.7165 20.2165 11.5 19.25 11.5H13V8Z" fill="#2D50E6"/>
<path d="M19.25 12.5H13V16H19.25C20.2165 16 21 15.2165 21 14.25C21 13.2835 20.2165 12.5 19.25 12.5Z" fill="#2D50E6"/>
<path fill-rule="evenodd" clip-rule="evenodd" d="M1 6C1 4.89543 1.89543 4 3 4H21C22.1046 4 23 4.89543 23 6V18C23 19.1046 22.1046 20 21 20H3C1.89543 20 1 19.1046 1 18V6ZM3 5H21C21.5523 5 22 5.44771 22 6V18C22 18.5523 21.5523 19 21 19H3C2.44772 19 2 18.5523 2 18V6C2 5.44772 2.44772 5 3 5Z" fill="#2D50E6"/>
</svg>
