<svg width="24" height="24" viewBox="0 0 24 24" fill="none" xmlns="http://www.w3.org/2000/svg">
<path d="M12.4265 4.51392C12.4087 4.78944 12.6181 5.02508 12.8912 5.06574C13.3448 5.13329 13.7818 5.2516 14.1963 5.41473C14.4533 5.51584 14.7524 5.41642 14.8747 5.16888L15.761 3.37506C15.8833 3.12751 15.7823 2.8263 15.5284 2.71796C14.7628 2.39138 13.9427 2.16785 13.0855 2.06481C12.8114 2.03185 12.5733 2.24224 12.5555 2.51777L12.4265 4.51392Z" fill="#2D50E6"/>
<path d="M11.5735 4.51392C11.5913 4.78944 11.3819 5.02508 11.1088 5.06575C10.6552 5.13329 10.2182 5.2516 9.80368 5.41473C9.54675 5.51584 9.24757 5.41642 9.12527 5.16888L8.23897 3.37506C8.11666 3.12751 8.21767 2.8263 8.47164 2.71796C9.23724 2.39138 10.0573 2.16785 10.9145 2.06481C11.1886 2.03185 11.4267 2.24224 11.4445 2.51777L11.5735 4.51392Z" fill="#2D50E6"/>
<path d="M8.26383 6.30493C8.47983 6.13282 8.54287 5.82378 8.38923 5.59428L7.27652 3.93224C7.12288 3.70275 6.81133 3.64018 6.59073 3.80633C5.91577 4.31466 5.31465 4.91578 4.80632 5.59074C4.64017 5.81134 4.70273 6.12289 4.93222 6.27653L6.59426 7.38924C6.82377 7.54289 7.1328 7.47984 7.30492 7.26384C7.58744 6.90929 7.90927 6.58745 8.26383 6.30493Z" fill="#2D50E6"/>
<path d="M6.41471 8.80369C6.51582 8.54676 6.41641 8.24759 6.16887 8.12528L4.37505 7.23899C4.1275 7.11667 3.82629 7.21768 3.71795 7.47165C3.39137 8.23725 3.16784 9.05735 3.06479 9.91451C3.03184 10.1886 3.24223 10.4267 3.51776 10.4445L5.51391 10.5735C5.78943 10.5913 6.02507 10.3819 6.06573 10.1088C6.13328 9.65521 6.25159 9.21818 6.41471 8.80369Z" fill="#2D50E6"/>
<path d="M6 11.9583C6 11.6822 5.77614 11.4583 5.5 11.4583H3.5C3.22386 11.4583 3 11.6822 3 11.9583V13.7083C3 13.9845 3.22386 14.2083 3.5 14.2083H5.5C5.77614 14.2083 6 13.9845 6 13.7083V11.9583Z" fill="#2D50E6"/>
<path d="M6 15.625C6 15.3489 5.77614 15.125 5.5 15.125H3.5C3.22386 15.125 3 15.3489 3 15.625V17.375C3 17.6512 3.22386 17.875 3.5 17.875H5.5C5.77614 17.875 6 17.6512 6 17.375V15.625Z" fill="#2D50E6"/>
<path d="M6 19.2917C6 19.0155 5.77614 18.7917 5.5 18.7917H3.5C3.22386 18.7917 3 19.0155 3 19.2917V21C3 21.5523 3.44772 22 4 22H5.5C5.77614 22 6 21.7762 6 21.5V19.2917Z" fill="#2D50E6"/>
<path d="M16.7235 3.93224C16.8771 3.70275 17.1887 3.64018 17.4093 3.80633C18.0842 4.31466 18.6853 4.91578 19.1937 5.59074C19.3598 5.81134 19.2973 6.12289 19.0678 6.27653L17.4057 7.38924C17.1762 7.54289 16.8672 7.47984 16.6951 7.26384C16.4126 6.90929 16.0907 6.58745 15.7362 6.30493C15.5202 6.13282 15.4571 5.82378 15.6108 5.59428L16.7235 3.93224Z" fill="#2D50E6"/>
<path d="M19.625 7.23899C19.8725 7.11668 20.1737 7.21768 20.2821 7.47165C20.6086 8.23725 20.8322 9.05735 20.9352 9.91451C20.9682 10.1886 20.7578 10.4267 20.4822 10.4445L18.4861 10.5735C18.2106 10.5913 17.9749 10.3819 17.9343 10.1088C17.8667 9.65521 17.7484 9.21818 17.5853 8.80369C17.4842 8.54676 17.5836 8.24759 17.8311 8.12528L19.625 7.23899Z" fill="#2D50E6"/>
<path d="M20.5 11.4583C20.7761 11.4583 21 11.6822 21 11.9583V13.7083C21 13.9845 20.7761 14.2083 20.5 14.2083H18.5C18.2239 14.2083 18 13.9845 18 13.7083V11.9583C18 11.6822 18.2239 11.4583 18.5 11.4583H20.5Z" fill="#2D50E6"/>
<path d="M20.5 15.125C20.7761 15.125 21 15.3489 21 15.625V17.375C21 17.6512 20.7761 17.875 20.5 17.875H18.5C18.2239 17.875 18 17.6512 18 17.375V15.625C18 15.3489 18.2239 15.125 18.5 15.125H20.5Z" fill="#2D50E6"/>
<path d="M20.5 18.7917C20.7761 18.7917 21 19.0155 21 19.2917V21C21 21.5523 20.5523 22 20 22H18.5C18.2239 22 18 21.7762 18 21.5V19.2917C18 19.0155 18.2239 18.7917 18.5 18.7917H20.5Z" fill="#2D50E6"/>
<path fill-rule="evenodd" clip-rule="evenodd" d="M17 11C17 8.23859 14.7614 6.00001 12 6.00001C9.23858 6.00001 7 8.23859 7 11V21.5C7 21.7762 7.22386 22 7.5 22H16.5C16.7761 22 17 21.7762 17 21.5V11ZM15 15C15.5523 15 16 14.5523 16 14C16 13.4477 15.5523 13 15 13C14.4477 13 14 13.4477 14 14C14 14.5523 14.4477 15 15 15Z" fill="#2D50E6"/>
</svg>
