<svg width="24" height="24" viewBox="0 0 24 24" fill="none" xmlns="http://www.w3.org/2000/svg">
<path d="M11 2C10.4477 2 10 2.44772 10 3V17C10 17.5523 10.4477 18 11 18H13C13.5523 18 14 17.5523 14 17V3C14 2.44772 13.5523 2 13 2H11Z" fill="#2D50E6"/>
<path d="M1 21C1 20.4477 1.44772 20 2 20H22C22.5523 20 23 20.4477 23 21C23 21.5523 22.5523 22 22 22H2C1.44772 22 1 21.5523 1 21Z" fill="#2D50E6"/>
<path d="M3.5 9C3.5 8.44771 3.94771 8 4.5 8H6.5C7.05229 8 7.5 8.44771 7.5 9V17C7.5 17.5523 7.05229 18 6.5 18H4.5C3.94771 18 3.5 17.5523 3.5 17V9Z" fill="#2D50E6"/>
<path d="M18 14C17.4477 14 17 14.4477 17 15V17C17 17.5523 17.4477 18 18 18H20C20.5523 18 21 17.5523 21 17V15C21 14.4477 20.5523 14 20 14H18Z" fill="#2D50E6"/>
</svg>
