<svg width="24" height="24" viewBox="0 0 24 24" fill="none" xmlns="http://www.w3.org/2000/svg">
<path d="M4 2C3.44772 2 3 2.44772 3 3V17C3 17.5523 3.44772 18 4 18H6C6.55228 18 7 17.5523 7 17V3C7 2.44772 6.55228 2 6 2H4Z" fill="#2D50E6"/>
<path d="M1 21C1 20.4477 1.44772 20 2 20H22C22.5523 20 23 20.4477 23 21C23 21.5523 22.5523 22 22 22H2C1.44772 22 1 21.5523 1 21Z" fill="#2D50E6"/>
<path d="M10 9C10 8.44771 10.4477 8 11 8H13C13.5523 8 14 8.44771 14 9V17C14 17.5523 13.5523 18 13 18H11C10.4477 18 10 17.5523 10 17V9Z" fill="#2D50E6"/>
<path d="M18 14C17.4477 14 17 14.4477 17 15V17C17 17.5523 17.4477 18 18 18H20C20.5523 18 21 17.5523 21 17V15C21 14.4477 20.5523 14 20 14H18Z" fill="#2D50E6"/>
</svg>
