<svg width="24" height="24" viewBox="0 0 24 24" fill="none" xmlns="http://www.w3.org/2000/svg">
<path d="M24 5C24 4.44772 23.5523 4 23 4H1C0.447715 4 0 4.44772 0 5V6H1C1 6 1 6.22386 1 6.5V7C1 7.55229 1.44772 8 2 8H22C22.5523 8 23 7.55229 23 7V6H24C24 6 24 5.77614 24 5.5V5Z" fill="#2D50E6"/>
<path d="M12.0006 9C9.61201 10.3505 9.41494 12.3949 10 15C9.49915 15 8.97291 14.062 9.00001 13C8.21452 13.8246 8.00013 14.8287 8.00122 15.926C8.00122 16.3989 8.20189 17.3447 8.46083 17.8272H8.46251C9.13307 19.1194 10.4659 20 12.0006 20C14.2095 20 16 18.176 16 15.926C16 14.5093 15.2901 13.2615 14.2129 12.5315C14.0374 12.4005 13.8522 12.2706 13.6655 12.1397C12.5 11.3228 11.2758 10.4647 12.0006 9Z" fill="#2D50E6"/>
<path d="M3 17C2.44772 17 2 17.4477 2 18V19C2 19.5523 2.44772 20 3 20H5C5.55228 20 6 19.5523 6 19V18C6 17.4477 5.55228 17 5 17H3Z" fill="#2D50E6"/>
<path d="M19 17C18.4477 17 18 17.4477 18 18V19C18 19.5523 18.4477 20 19 20H21C21.5523 20 22 19.5523 22 19V18C22 17.4477 21.5523 17 21 17H19Z" fill="#2D50E6"/>
<path d="M3 13C2.44772 13 2 13.4477 2 14V15C2 15.5523 2.44772 16 3 16H5C5.55228 16 6 15.5523 6 15V14C6 13.4477 5.55228 13 5 13H3Z" fill="#2D50E6"/>
<path d="M19 13C18.4477 13 18 13.4477 18 14V15C18 15.5523 18.4477 16 19 16H21C21.5523 16 22 15.5523 22 15V14C22 13.4477 21.5523 13 21 13H19Z" fill="#2D50E6"/>
<path d="M3 9C2.44772 9 2 9.44771 2 10V11C2 11.5523 2.44772 12 3 12H5.63424C6.05805 12 6.42853 11.7288 6.61605 11.3488C6.84003 10.8948 7.11975 10.4732 7.44626 10.093C7.76877 9.71744 7.52216 9 7.02714 9H3Z" fill="#2D50E6"/>
<path d="M18.3658 12C17.9419 12 17.5715 11.7288 17.384 11.3488C17.16 10.8948 16.8803 10.4732 16.5537 10.093C16.2312 9.71744 16.4778 9 16.9729 9H21C21.5523 9 22 9.44772 22 10V11C22 11.5523 21.5523 12 21 12H18.3658Z" fill="#2D50E6"/>
</svg>
