<svg width="24" height="24" viewBox="0 0 24 24" fill="none" xmlns="http://www.w3.org/2000/svg">
<path d="M19 0C20.6569 0 22 1.34315 22 3C23.1046 3 24 3.89543 24 5C24 5.15268 23.9829 5.30137 23.9505 5.44424C23.8247 5.99869 23.8809 6.68205 23.9779 7.24224C23.9924 7.32599 24 7.41211 24 7.5C24 8.32843 23.3284 9 22.5 9C22.1259 9 21.7839 8.86309 21.5212 8.63664C21.1354 8.3041 20.5093 8 20 8C18.8954 8 18 7.10457 18 6C18 5.94333 18.0024 5.88722 18.007 5.83175C16.8381 5.42189 16 4.30883 16 3C16 1.34315 17.3431 0 19 0Z" fill="#2D50E6"/>
<path d="M0.5 10C0.223858 10 0 10.2239 0 10.5V13.5C0 13.7761 0.223857 14 0.5 14H19.5C19.7761 14 20 13.7761 20 13.5V10.5C20 10.2239 19.7761 10 19.5 10H0.5Z" fill="#2D50E6"/>
<path d="M23.5 10C23.7761 10 24 10.2239 24 10.5V13.5C24 13.7761 23.7761 14 23.5 14C23.2239 14 23 13.7761 23 13.5V10.5C23 10.2239 23.2239 10 23.5 10Z" fill="#2D50E6"/>
<path d="M22 10.5C22 10.2239 21.7761 10 21.5 10C21.2239 10 21 10.2239 21 10.5V13.5C21 13.7761 21.2239 14 21.5 14C21.7761 14 22 13.7761 22 13.5V10.5Z" fill="#2D50E6"/>
</svg>
