<svg width="24" height="24" viewBox="0 0 24 24" fill="none" xmlns="http://www.w3.org/2000/svg">
<path fill-rule="evenodd" clip-rule="evenodd" d="M11.3471 2C10.8583 2 10.4411 2.35341 10.3607 2.8356L10.239 3.56598C10.173 3.96225 9.8742 4.27498 9.49267 4.40079C9.11525 4.52525 8.75025 4.67704 8.40001 4.85383C8.04134 5.03487 7.60892 5.02498 7.28199 4.79145L6.67887 4.36065C6.28108 4.07652 5.73619 4.12162 5.39052 4.46728L4.46722 5.39058C4.12156 5.73624 4.07646 6.28114 4.3606 6.67893L4.79141 7.28207C5.02493 7.609 5.03483 8.04142 4.85379 8.40008C4.67702 8.7503 4.52524 9.11527 4.40079 9.49267C4.27498 9.8742 3.96225 10.173 3.56598 10.239L2.8356 10.3607C2.35341 10.4411 2 10.8583 2 11.3471V12.6529C2 13.1417 2.35341 13.5589 2.8356 13.6393L3.56598 13.761C3.96225 13.827 4.27498 14.1258 4.40079 14.5073C4.52524 14.8847 4.67702 15.2497 4.85379 15.5999C5.03483 15.9586 5.02493 16.391 4.79141 16.7179L4.3606 17.3211C4.07646 17.7189 4.12156 18.2638 4.46722 18.6094L5.39052 19.5327C5.73619 19.8784 6.28108 19.9235 6.67887 19.6393L7.28199 19.2085C7.60892 18.975 8.04134 18.9651 8.40001 19.1462C8.75025 19.323 9.11525 19.4747 9.49267 19.5992C9.8742 19.725 10.173 20.0378 10.239 20.434L10.3607 21.1644C10.4411 21.6466 10.8583 22 11.3471 22H12.6529C13.1417 22 13.5589 21.6466 13.6393 21.1644L13.761 20.434C13.827 20.0378 14.1258 19.725 14.5073 19.5992C14.8847 19.4748 15.2497 19.323 15.5999 19.1462C15.9586 18.9652 16.391 18.9751 16.7179 19.2086L17.321 19.6393C17.7188 19.9235 18.2637 19.8784 18.6094 19.5327L19.5327 18.6094C19.8783 18.2638 19.9234 17.7189 19.6393 17.3211L19.2085 16.718C18.975 16.3911 18.9651 15.9587 19.1462 15.6C19.323 15.2498 19.4747 14.8848 19.5992 14.5073C19.725 14.1258 20.0378 13.827 20.434 13.761L21.1644 13.6393C21.6466 13.5589 22 13.1417 22 12.6529L22 11.3471C22 10.8583 21.6466 10.4411 21.1644 10.3607L20.434 10.239C20.0378 10.173 19.725 9.8742 19.5992 9.49267C19.4747 9.11524 19.323 8.75024 19.1462 8.4C18.9651 8.04133 18.975 7.60891 19.2085 7.28197L19.6393 6.67893C19.9234 6.28114 19.8783 5.73625 19.5327 5.39058L18.6094 4.46728C18.2637 4.12162 17.7188 4.07652 17.321 4.36066L16.7179 4.79142C16.391 5.02494 15.9586 5.03483 15.5999 4.8538C15.2497 4.67703 14.8847 4.52524 14.5073 4.40079C14.1258 4.27498 13.827 3.96225 13.761 3.56598L13.6393 2.8356C13.5589 2.35341 13.1417 2 12.6529 2H11.3471ZM12 16C14.2091 16 16 14.2091 16 12C16 9.79086 14.2091 8 12 8C9.79086 8 8 9.79086 8 12C8 14.2091 9.79086 16 12 16Z" fill="#2D50E6"/>
</svg>
