<svg width="24" height="24" viewBox="0 0 24 24" fill="none" xmlns="http://www.w3.org/2000/svg">
<path fill-rule="evenodd" clip-rule="evenodd" d="M13.5612 5.31706C13.2828 5.81738 13 6.32556 13 6.88602V8.57143L17.25 11H19C20.1046 11 21 11.8954 21 13V17.114C21 17.6744 21.2828 18.1826 21.5612 18.6829C21.6374 18.8199 21.7134 18.9564 21.783 19.0931C21.9218 19.3653 22 19.6735 22 20C22 21.1046 21.1046 22 20 22C18.8954 22 18 21.1046 18 20C18 19.6735 18.0782 19.3653 18.217 19.0931C18.2866 18.9564 18.3626 18.8199 18.4388 18.6829C18.7172 18.1826 19 17.6744 19 17.114V14C19 13.4477 18.5523 13 18 13H17.25L12.9923 15.433C12.3774 15.7843 11.6226 15.7843 11.0077 15.433L6.75 13H6C5.44772 13 5 13.4477 5 14V17.114C5 17.6744 5.28279 18.1826 5.5612 18.6829C5.63744 18.8199 5.71335 18.9564 5.78304 19.0931C5.92177 19.3653 6 19.6735 6 20C6 21.1046 5.10457 22 4 22C2.89543 22 2 21.1046 2 20C2 19.6735 2.07823 19.3653 2.21696 19.0931C2.28665 18.9564 2.36256 18.8199 2.4388 18.6829C2.71721 18.1826 3 17.6744 3 17.114V13C3 11.8954 3.89543 11 5 11H6.75L11 8.57143V6.88602C11 6.32556 10.7172 5.81738 10.4388 5.31706C10.3626 5.18005 10.2866 5.04364 10.217 4.9069C10.0782 4.63468 10 4.32648 10 4C10 2.89543 10.8954 2 12 2C13.1046 2 14 2.89543 14 4C14 4.32648 13.9218 4.63468 13.783 4.9069C13.7134 5.04364 13.6374 5.18005 13.5612 5.31706ZM9.79096 11.5659C9.45506 11.7578 9.45505 12.2422 9.79096 12.4341L11.504 13.413C11.8114 13.5887 12.1888 13.5887 12.4963 13.413L14.2093 12.4341C14.5452 12.2422 14.5452 11.7578 14.2093 11.5659L12.4963 10.587C12.1888 10.4113 11.8114 10.4113 11.504 10.587L9.79096 11.5659Z" fill="#2D50E6"/>
</svg>
