<svg width="24" height="24" viewBox="0 0 24 24" fill="none" xmlns="http://www.w3.org/2000/svg">
<path fill-rule="evenodd" clip-rule="evenodd" d="M13.6772 1.36622C12.6123 0.877926 11.3877 0.877926 10.3228 1.36622L9.8999 1.56009C9.48877 1.74853 9.04883 1.86637 8.59912 1.90867L8.13574 1.95218C6.96924 2.06178 5.90869 2.67422 5.23047 3.62957L4.96143 4.00888C4.69971 4.37756 4.37744 4.6995 4.00879 4.96121L3.62939 5.23043C2.67432 5.90857 2.06201 6.96934 1.95215 8.13578L1.90869 8.59887C1.86621 9.04901 1.74854 9.48881 1.56006 9.89979L1.36621 10.3226C0.87793 11.3876 0.87793 12.6124 1.36621 13.6774L1.56006 14.1002C1.74854 14.5112 1.86621 14.951 1.90869 15.4011L1.95215 15.8642C2.06201 17.0307 2.67432 18.0914 3.62939 18.7696L4.00879 19.0388C4.37744 19.3005 4.69971 19.6224 4.96143 19.9911L5.23047 20.3704C5.90869 21.3258 6.96924 21.9382 8.13574 22.0478L8.59912 22.0913C9.04883 22.1336 9.48877 22.2515 9.8999 22.4399L10.3228 22.6338C11.1172 22.9979 12 23.0905 12.8394 22.9115C12.7896 22.7889 12.7485 22.6623 12.7168 22.5329C12.7021 22.4734 12.6895 22.4133 12.6787 22.3527C12.666 22.2807 12.6562 22.208 12.6494 22.1346L12.6196 21.8189C12.5908 21.512 12.5103 21.2121 12.3818 20.9319L12.2495 20.6436C11.917 19.9175 11.917 19.0824 12.2495 18.3563L12.3818 18.068C12.5103 17.7878 12.5908 17.4879 12.6196 17.181L12.6494 16.8653C12.7241 16.07 13.1416 15.3467 13.793 14.8844L14.0513 14.7008C14.3027 14.5224 14.5225 14.3029 14.7007 14.0515L14.8843 13.7929C15.3467 13.1415 16.0698 12.7239 16.8652 12.6492L17.1812 12.6195C17.4878 12.5907 17.7876 12.5104 18.0679 12.3819L18.3564 12.2497C19.0825 11.9168 19.9175 11.9168 20.6436 12.2497L20.9321 12.3819C21.2119 12.5104 21.5122 12.5907 21.8188 12.6195L22.1348 12.6492C22.2754 12.6624 22.4141 12.6864 22.5493 12.7206C22.5903 12.7309 22.6309 12.742 22.6709 12.7541C22.7529 12.7788 22.833 12.8072 22.9116 12.8392C23.0903 11.9998 22.998 11.1167 22.6338 10.3226L22.4399 9.89979C22.2515 9.48881 22.1338 9.04901 22.0913 8.59887L22.0479 8.13578C21.938 6.96934 21.3257 5.90857 20.3706 5.23043L19.9912 4.96121C19.6226 4.6995 19.3003 4.37756 19.0386 4.00888L18.7695 3.62957C18.0913 2.67422 17.0308 2.06178 15.8643 1.95218L15.4009 1.90867C14.9512 1.86637 14.5112 1.74853 14.1001 1.56009L13.6772 1.36622ZM7.5 11C8.32843 11 9 10.3284 9 9.5C9 8.67157 8.32843 8 7.5 8C6.67157 8 6 8.67157 6 9.5C6 10.3284 6.67157 11 7.5 11ZM14 5.5C14 6.32843 13.3284 7 12.5 7C11.6716 7 11 6.32843 11 5.5C11 4.67157 11.6716 4 12.5 4C13.3284 4 14 4.67157 14 5.5ZM17.5 11C18.3284 11 19 10.3284 19 9.5C19 8.67158 18.3284 8 17.5 8C16.6716 8 16 8.67158 16 9.5C16 10.3284 16.6716 11 17.5 11ZM14 13.5C14 14.3284 13.3284 15 12.5 15C11.6716 15 11 14.3284 11 13.5C11 12.6716 11.6716 12 12.5 12C13.3284 12 14 12.6716 14 13.5ZM8.5 18C9.32843 18 10 17.3284 10 16.5C10 15.6716 9.32843 15 8.5 15C7.67157 15 7 15.6716 7 16.5C7 17.3284 7.67157 18 8.5 18Z" fill="#2D50E6"/>
<path d="M19 16C19 16.5523 18.5522 17 18 17C17.4478 17 17 16.5523 17 16C17 15.4477 17.4478 15 18 15C18.5522 15 19 15.4477 19 16Z" fill="#2D50E6"/>
<path d="M17 19C17 19.5523 16.5522 20 16 20C15.4478 20 15 19.5523 15 19C15 18.4477 15.4478 18 16 18C16.5522 18 17 18.4477 17 19Z" fill="#2D50E6"/>
<path d="M22 21C22 21.5523 21.5522 22 21 22C20.4478 22 20 21.5523 20 21C20 20.4477 20.4478 20 21 20C21.5522 20 22 20.4477 22 21Z" fill="#2D50E6"/>
</svg>
