<svg width="24" height="24" viewBox="0 0 24 24" fill="none" xmlns="http://www.w3.org/2000/svg">
<path d="M11 2C9.34315 2 8 3.34315 8 5C8 5.55228 8.44772 6 9 6C9.55228 6 10 5.55228 10 5C10 4.44772 10.4477 4 11 4H19C19.5523 4 20 4.44772 20 5V13C20 13.5523 19.5523 14 19 14C18.4477 14 18 14.4477 18 15C18 15.5523 18.4477 16 19 16C20.6569 16 22 14.6569 22 13V5C22 3.34315 20.6569 2 19 2H11Z" fill="#2D50E6"/>
<path d="M2 10C2 8.89543 2.89543 8 4 8H14C15.1046 8 16 8.89543 16 10V20C16 21.1046 15.1046 22 14 22H4C2.89543 22 2 21.1046 2 20V10Z" fill="#2D50E6"/>
</svg>
