<svg width="24" height="24" viewBox="0 0 24 24" fill="none" xmlns="http://www.w3.org/2000/svg">
<path d="M4.47819 5.39177C4.77839 3.44044 6.45739 2 8.43168 2H15.5683C17.5426 2 19.2216 3.44044 19.5218 5.39177L20.0816 9.03039C19.8905 9.0103 19.6964 9 19.5 9C17.3619 9 15.5105 10.2189 14.6002 12H9.39975C8.48946 10.2189 6.6381 9 4.5 9C4.30356 9 4.10952 9.0103 3.9184 9.03039L4.47819 5.39177Z" fill="#2D50E6"/>
<path d="M19.5 11C19.8121 11 20.1147 11.0409 20.4027 11.1175C21.8982 11.5156 23 12.8791 23 14.5C23 15.6703 22.4256 16.7065 21.5434 17.3419C21.2301 17.5675 21 17.9092 21 18.2952V20C21 21.1046 20.1046 22 19 22V23.382C19 23.7233 18.7233 24 18.382 24C18.1479 24 17.9339 23.8677 17.8292 23.6584L17 22H7L6.17082 23.6584C6.06613 23.8677 5.85213 24 5.61803 24C5.2767 24 5 23.7233 5 23.382V22C3.89543 22 3 21.1046 3 20V18.2952C3 17.9092 2.76988 17.5675 2.45664 17.3419C1.57439 16.7065 1 15.6703 1 14.5C1 12.8791 2.1018 11.5156 3.59731 11.1175C3.88529 11.0409 4.18787 11 4.5 11C5.96045 11 7.21198 11.8945 7.73661 13.1655C7.92645 13.6255 8.33411 14 8.8317 14H15.1683C15.6659 14 16.0735 13.6255 16.2634 13.1655C16.788 11.8945 18.0395 11 19.5 11Z" fill="#2D50E6"/>
</svg>
