<svg width="24" height="24" viewBox="0 0 24 24" fill="none" xmlns="http://www.w3.org/2000/svg">
<g clip-path="url(#clip0_4502_95)">
<circle cx="12" cy="12" r="12" fill="#2D50E6"/>
<path d="M3.53738 16.648C4.06538 17 5.08938 17.24 5.93738 17.24C9.45738 17.24 11.2494 15 11.2494 11.24C11.2494 7.928 9.31338 6.392 7.15338 6.392C4.97738 6.392 3.24938 7.864 3.24938 10.008C3.24938 12.216 4.96137 13.496 6.83337 13.496C8.06538 13.496 8.97738 12.968 9.36138 12.296C9.26538 14.248 8.09738 15.56 5.92138 15.56C5.23338 15.56 4.46538 15.336 4.06538 15.08L3.53738 16.648ZM9.10538 9.944C9.10538 11.128 8.16138 11.88 7.12138 11.88C6.04938 11.88 5.13738 11.16 5.13738 9.944C5.13738 8.776 6.06538 8.024 7.12138 8.024C8.16138 8.024 9.10538 8.792 9.10538 9.944ZM12.928 16.648C13.456 17 14.48 17.24 15.328 17.24C18.848 17.24 20.64 15 20.64 11.24C20.64 7.928 18.704 6.392 16.544 6.392C14.368 6.392 12.64 7.864 12.64 10.008C12.64 12.216 14.352 13.496 16.224 13.496C17.456 13.496 18.368 12.968 18.752 12.296C18.656 14.248 17.488 15.56 15.312 15.56C14.624 15.56 13.856 15.336 13.456 15.08L12.928 16.648ZM18.496 9.944C18.496 11.128 17.552 11.88 16.512 11.88C15.44 11.88 14.528 11.16 14.528 9.944C14.528 8.776 15.456 8.024 16.512 8.024C17.552 8.024 18.496 8.792 18.496 9.944Z" fill="white"/>
</g>
<defs>
<clipPath id="clip0_4502_95">
<rect width="24" height="24" fill="white"/>
</clipPath>
</defs>
</svg>
