<svg width="24" height="24" viewBox="0 0 24 24" fill="none" xmlns="http://www.w3.org/2000/svg">
<path d="M21.5607 4.56066C22.1464 3.97487 22.1464 3.02513 21.5607 2.43934C20.9749 1.85355 20.0251 1.85355 19.4393 2.43934L12 9.87868L4.56066 2.43934C3.97487 1.85355 3.02513 1.85355 2.43934 2.43934C1.85355 3.02513 1.85355 3.97487 2.43934 4.56066L9.87868 12L2.43934 19.4393C1.85355 20.0251 1.85355 20.9749 2.43934 21.5607C3.02513 22.1464 3.97487 22.1464 4.56066 21.5607L12 14.1213L19.4393 21.5607C20.0251 22.1464 20.9749 22.1464 21.5607 21.5607C22.1464 20.9749 22.1464 20.0251 21.5607 19.4393L14.1213 12L21.5607 4.56066Z" fill="#2D50E6"/>
</svg>
