<svg width="24" height="24" viewBox="0 0 24 24" fill="none" xmlns="http://www.w3.org/2000/svg">
<path d="M12.8138 4.41876C12.6261 4.15597 12.323 4 12.0001 4C11.6771 4 11.374 4.15597 11.1863 4.41876L6.80013 10.5594L2.62476 7.21913C2.29282 6.95358 1.82928 6.92691 1.46907 7.15262C1.10886 7.37834 0.930721 7.80711 1.02493 8.22162L3.52493 19.2216C3.6284 19.6769 4.03316 20 4.50006 20H19.5001C19.967 20 20.3717 19.6769 20.4752 19.2216L22.9752 8.22162C23.0694 7.80711 22.8913 7.37834 22.531 7.15262C22.1708 6.92691 21.7073 6.95358 21.3754 7.21913L17.2 10.5594L12.8138 4.41876Z" fill="#2D50E6"/>
</svg>
