<svg width="24" height="24" viewBox="0 0 24 24" fill="none" xmlns="http://www.w3.org/2000/svg">
<path fill-rule="evenodd" clip-rule="evenodd" d="M17.5607 1.43934C16.9749 0.853553 16.0251 0.853553 15.4393 1.43934C14.8536 2.02513 14.8536 2.97487 15.4393 3.56066L15.7322 3.85355L11.8735 7.71234C11.3946 8.19114 11.0181 8.76221 10.7666 9.39092L9.52891 12.4851C9.27743 13.1138 8.90087 13.6849 8.42206 14.1637L2.75 19.8358L2.70711 19.7929C2.31658 19.4024 1.68342 19.4024 1.29289 19.7929C0.902369 20.1834 0.902369 20.8166 1.29289 21.2071L2.79289 22.7071C3.18342 23.0976 3.81658 23.0976 4.20711 22.7071C4.59763 22.3166 4.59763 21.6834 4.20711 21.2929L4.16421 21.25L9.83627 15.5779C10.3151 15.0991 10.8862 14.7226 11.5149 14.4711L14.6091 13.2334C15.2378 12.9819 15.8089 12.6054 16.2877 12.1265L20.1464 8.26777L20.4393 8.56066C21.0251 9.14645 21.9749 9.14645 22.5607 8.56066C23.1464 7.97487 23.1464 7.02513 22.5607 6.43934L17.5607 1.43934ZM18.7322 6.85355L17.1464 5.26777L13.5607 8.85355L15.1464 10.4393L18.7322 6.85355ZM14.4393 11.1464L12.8536 9.56066L12.8522 9.56197L12.055 11.555C11.9571 11.7999 12.2001 12.0429 12.445 11.945L14.438 11.1478L14.4393 11.1464Z" fill="#2D50E6"/>
</svg>
