<svg width="24" height="24" viewBox="0 0 24 24" fill="none" xmlns="http://www.w3.org/2000/svg">
<path d="M19.2301 6C19.7238 5.54537 20 5.0368 20 4.5C20 2.567 16.4183 1 12 1C7.58172 1 4 2.567 4 4.5C4 5.0368 4.27622 5.54537 4.76986 6L4.78889 6.0174C6.08089 7.19048 8.82436 8 12 8C15.1913 8 17.9462 7.18247 19.2301 6Z" fill="#2D50E6"/>
<path d="M18.4585 8.80719C16.7032 9.57511 14.4183 10 12 10C9.58173 10 7.29676 9.57511 5.54151 8.80719C5.00004 8.5703 4.47438 8.28564 4 7.94544V9.5C4 10.0368 4.27622 10.5454 4.76986 11C6.05382 12.1825 8.80869 13 12 13C15.1756 13 17.9191 12.1905 19.2111 11.0174L19.2301 11C19.7238 10.5454 20 10.0368 20 9.5V7.94544C19.5256 8.28564 19 8.5703 18.4585 8.80719Z" fill="#2D50E6"/>
<path d="M12 15C14.4183 15 16.7032 14.5751 18.4585 13.8072C19 13.5703 19.5256 13.2856 20 12.9454V14.5C20 15.0368 19.7238 15.5454 19.2301 16C19.2238 16.0058 19.2175 16.0116 19.2111 16.0174C17.9191 17.1905 15.1756 18 12 18C8.80869 18 6.05382 17.1825 4.76986 16C4.27622 15.5454 4 15.0368 4 14.5V12.9454C4.47438 13.2856 5.00004 13.5703 5.54151 13.8072C7.29676 14.5751 9.58173 15 12 15Z" fill="#2D50E6"/>
<path d="M18.4585 18.8072C16.7032 19.5751 14.4183 20 12 20C9.58173 20 7.29676 19.5751 5.54151 18.8072C5.00004 18.5703 4.47438 18.2856 4 17.9454V19.5C4 21.433 7.58172 23 12 23C16.4183 23 20 21.433 20 19.5V17.9454C19.5256 18.2856 19 18.5703 18.4585 18.8072Z" fill="#2D50E6"/>
</svg>
