<svg width="24" height="24" viewBox="0 0 24 24" fill="none" xmlns="http://www.w3.org/2000/svg">
<path fill-rule="evenodd" clip-rule="evenodd" d="M3 5C2.7232 5.2768 2.44641 5.46746 2.19082 5.64352C1.52302 6.10352 1 6.4638 1 8C1 10.2202 1 10.25 2 9.75C3 9.25 3.5 10.5 3 11.5C2.82055 11.8589 2.51229 12.089 2.1908 12.329C1.61652 12.7576 1 13.2178 1 14.5C1 15.125 3 20.5 9 20.5C12.1794 20.5 13.6866 21.3286 14.9656 22.0317C15.9083 22.5499 16.7271 23 18 23C20 23 21 21 21 20C21 19.4263 20.6731 19.1726 20.2151 19.0641L19.978 18.3528C19.9678 18.3197 19.9543 18.2881 19.9378 18.2584C19.9015 18.1923 19.8513 18.1368 19.7924 18.0943C19.7335 18.0518 19.665 18.0218 19.5908 18.0082C19.5353 17.9979 19.4776 17.9969 19.4198 18.0064C19.3621 18.0157 19.3077 18.0349 19.2584 18.0622C19.1923 18.0985 19.1368 18.1487 19.0943 18.2076C19.0518 18.2665 19.0218 18.335 19.0082 18.4092C19.002 18.4427 18.9992 18.4769 19 18.5115V18.9919L18.908 18.9939C18.7688 18.997 18.6317 19 18.5 19C18.3287 19 18.1621 18.995 18 18.9853V17.5092C18.0009 17.4645 17.9957 17.4206 17.9851 17.3784C17.9669 17.3057 17.9328 17.2392 17.8867 17.183C17.8047 17.0831 17.6848 17.0156 17.5491 17.0024C17.4906 16.9965 17.433 17.0012 17.3784 17.0149C17.3057 17.0331 17.2392 17.0672 17.183 17.1133C17.093 17.1871 17.0293 17.2918 17.0079 17.411L16.7302 18.7994C16.4736 18.7376 16.2307 18.6631 16 18.5781V16.5082C16.0008 16.462 15.9952 16.4168 15.9839 16.3735C15.9647 16.3 15.9292 16.2331 15.8815 16.1768C15.8345 16.1213 15.7753 16.0758 15.7071 16.0448C15.6559 16.0214 15.6 16.0065 15.5412 16.0017C15.4836 15.9968 15.427 16.0021 15.3735 16.0161C15.3 16.0353 15.2331 16.0708 15.1768 16.1185C15.1213 16.1655 15.0758 16.2247 15.0448 16.2929C15.0258 16.3345 15.0124 16.3792 15.0054 16.4259L14.7501 17.9583C14.4811 17.788 14.2324 17.6053 14 17.4167V15.5116C14.0024 15.4072 13.9718 15.3051 13.9142 15.2198C13.8412 15.1121 13.7272 15.0343 13.5946 15.0089C13.4622 14.9833 13.3276 15.013 13.2198 15.0858C13.1345 15.1436 13.068 15.2271 13.0314 15.3251L12.6845 16.1924C10.5888 14.2007 9.07257 13.8043 8.13579 13.5594C7.3786 13.3614 7 13.2624 7 12.5C7 11.261 8.7498 11.5241 10.4819 11.7846C11.1995 11.8925 11.9141 12 12.5 12C12.603 12 12.705 11.9998 12.8061 11.9993L13.022 12.6472C13.0322 12.6802 13.0457 12.7119 13.0622 12.7416C13.0985 12.8077 13.1487 12.8632 13.2076 12.9057C13.2665 12.9482 13.335 12.9782 13.4092 12.9918C13.4646 13.0021 13.5223 13.0031 13.58 12.9936C13.6378 12.9843 13.6923 12.9651 13.7416 12.9378C13.8077 12.9015 13.8632 12.8513 13.9057 12.7924C13.9482 12.7335 13.9782 12.665 13.9918 12.5908C13.998 12.5573 14.0008 12.5231 14 12.4885V11.9824C14.3456 11.9738 14.6788 11.9621 15 11.9472V13.4918C14.9992 13.538 15.0048 13.5832 15.0161 13.6265C15.0353 13.7 15.0708 13.7669 15.1185 13.8232C15.1655 13.8787 15.2247 13.9242 15.2929 13.9552C15.3441 13.9786 15.4 13.9935 15.4588 13.9983C15.5164 14.0032 15.573 13.9979 15.6265 13.9839C15.7 13.9647 15.7669 13.9292 15.8232 13.8815C15.8787 13.8345 15.9242 13.7753 15.9552 13.7071C15.9742 13.6655 15.9876 13.6208 15.9946 13.5741L16.2793 11.8658C16.5279 11.8452 16.7681 11.8221 17 11.7966V13.4918C16.9992 13.538 17.0048 13.5832 17.0161 13.6265C17.0353 13.7001 17.0709 13.7671 17.1187 13.8234C17.1656 13.8788 17.2248 13.9243 17.2929 13.9552C17.3441 13.9786 17.4 13.9935 17.4588 13.9983C17.5164 14.0032 17.573 13.9979 17.6265 13.9839C17.7 13.9647 17.7669 13.9292 17.8232 13.8815C17.8787 13.8345 17.9242 13.7753 17.9552 13.7071C17.9742 13.6655 17.9876 13.6208 17.9946 13.5741L18.322 11.6092C18.5588 11.5668 18.7847 11.5209 19 11.4713V13.4918C18.9978 13.6158 19.042 13.7328 19.1185 13.8232C19.1655 13.8787 19.2247 13.9242 19.2929 13.9552C19.3441 13.9786 19.4 13.9935 19.4588 13.9983C19.5164 14.0032 19.573 13.9979 19.6265 13.9839C19.7 13.9647 19.7669 13.9292 19.8232 13.8815C19.8787 13.8345 19.9242 13.7753 19.9552 13.7071C19.9742 13.6655 19.9876 13.6208 19.9946 13.5741L20.4179 11.0341C20.6268 10.9485 20.8205 10.8571 21 10.7596V11.4918C20.9978 11.6158 21.042 11.7328 21.1185 11.8232C21.1655 11.8787 21.2247 11.9242 21.2929 11.9552C21.3441 11.9786 21.4 11.9935 21.4588 11.9983C21.5164 12.0032 21.573 11.9979 21.6265 11.9839C21.7 11.9647 21.7669 11.9292 21.8232 11.8815C21.8787 11.8345 21.9242 11.7753 21.9552 11.7071C21.9742 11.6655 21.9876 11.6208 21.9946 11.5741L22.3197 9.62341C22.811 8.91993 23 8.04996 23 7C23 2.96658 18.6877 3.48833 15.7746 3.84079C15.0765 3.92526 14.4588 4 14 4C11.7661 4 10.6238 3.0643 9.61514 2.23803C8.81772 1.58482 8.1038 1 7 1C4.90833 1 4.27502 2.45837 3.74433 3.68042C3.51388 4.2111 3.30278 4.69722 3 5ZM4.83679 5.09841C4.94103 5.02834 5.06539 5 5.19098 5C5.63779 5 6 5.36221 6 5.80902V10.5C6 10.7761 5.77614 11 5.5 11C5.22386 11 5 10.7763 5 10.5002V9C5 8.5 4.75 8.125 4.5 7.75C4.25 7.375 4 7 4 6.5C4 5.75613 4.55334 5.28893 4.83679 5.09841ZM8.5 7C7.67157 7 7 6.32843 7 5.5C7 4.67157 7.67157 4 8.5 4C8.91421 4 9.28921 4.16789 9.56066 4.43934L9.94041 4.85109C10.6217 5.58984 11 6.55797 11 7.56292V9.5C11 9.62796 10.9512 9.75592 10.8536 9.85355C10.6583 10.0488 10.3417 10.0488 10.1464 9.85355L9.14645 8.85355C9.04882 8.75592 9 8.62796 9 8.5V7.38803C9 7.11189 8.77614 7 8.5 7ZM12 9V6C12.0002 5.5002 12.0003 5 13 5C14.1253 5 16.0008 7.01592 16 8C16 8.5 15.3747 8.5 15 8.5C14.049 8.5 13.5 9.10289 13.0981 9.54423C12.866 9.79904 12.683 10 12.5 10C12 10 12 9.5 12 9ZM17.288 7.93573L17.8267 8.79066C18.1952 9.37552 19.3351 8.61968 18.9041 7.93573C18.4731 7.25179 16.2103 6.22587 17.288 7.93573ZM19.0149 5.37873C19.0819 5.11083 19.3534 4.94795 19.6213 5.01493C19.9993 5.10945 20.759 5.39889 21.2146 6.0153C21.455 6.34051 21.608 6.75492 21.5688 7.25038C21.5304 7.73514 21.3119 8.25075 20.9 8.8C20.7343 9.02091 20.4209 9.06569 20.2 8.9C19.9791 8.73431 19.9343 8.42091 20.1 8.2C20.4381 7.74925 20.5529 7.41069 20.5719 7.17149C20.59 6.94299 20.5242 6.76366 20.4104 6.6097C20.1577 6.26778 19.6673 6.05722 19.3787 5.98507C19.1108 5.9181 18.948 5.64663 19.0149 5.37873Z" fill="#2D50E6"/>
</svg>
