<svg width="24" height="24" viewBox="0 0 24 24" fill="none" xmlns="http://www.w3.org/2000/svg">
<path d="M19.5029 6.99999H15C14.4477 6.99999 14 6.55227 14 5.99999V1.49709C14 1.05164 14.5386 0.828561 14.8536 1.14354L19.8564 6.14644C20.1714 6.46142 19.9483 6.99999 19.5029 6.99999Z" fill="#2D50E6"/>
<path fill-rule="evenodd" clip-rule="evenodd" d="M6 0.99999C4.89543 0.99999 4 1.89542 4 2.99999V21C4 22.1046 4.89543 23 6 23H18C19.1046 23 20 22.1046 20 21V9.99999C20 9.4477 19.5523 8.99999 19 8.99999H15C13.3431 8.99999 12 7.65684 12 5.99999V1.99999C12 1.4477 11.5523 0.99999 11 0.99999H6ZM6 9.99999C6 9.4477 6.44772 8.99999 7 8.99999H10C10.5523 8.99999 11 9.4477 11 9.99999C11 10.5523 10.5523 11 10 11H7C6.44772 11 6 10.5523 6 9.99999ZM7 13C6.44772 13 6 13.4477 6 14C6 14.5523 6.44772 15 7 15H17C17.5523 15 18 14.5523 18 14C18 13.4477 17.5523 13 17 13H7ZM6 18C6 17.4477 6.44772 17 7 17H17C17.5523 17 18 17.4477 18 18C18 18.5523 17.5523 19 17 19H7C6.44772 19 6 18.5523 6 18Z" fill="#2D50E6"/>
</svg>
