<svg width="24" height="24" viewBox="0 0 24 24" fill="none" xmlns="http://www.w3.org/2000/svg">
<path fill-rule="evenodd" clip-rule="evenodd" d="M1.20166 4.58139C0.378906 5.89969 0 7.45767 0 8.5C0 8.58694 0.000976562 8.67279 0.00292969 8.75748C0.0214844 9.91559 0.160645 10.4208 0.330078 11.0336C0.594705 11.99 0.93214 13.2096 0.991699 17.5812C1.00244 18.3621 1.63428 18.9999 2.41504 18.9999C2.79004 18.9999 3.14941 18.8503 3.36133 18.5405C3.54688 18.2684 3.7832 17.8706 4.01855 17.334C5.12598 18.4263 6.56299 19 8 19C11 19 11.5 17 11.5 16C11.5 15.9653 11.4873 15.933 11.4658 15.9074C11.4512 15.8901 11.4326 15.8759 11.4111 15.8661C10.5938 15.4933 10 14.4258 10 13.7515C10 12.9908 10.7559 12.9952 11.7354 13.001L12 13.002L12.2646 13.001C13.2441 12.9952 14 12.9908 14 13.7515C14 14.4258 13.4062 15.4933 12.5889 15.8661C12.5361 15.8903 12.5 15.9419 12.5 16C12.5 17 13 19 16 19C17.4375 19 18.8745 18.4261 19.9819 17.3333C20.2173 17.8702 20.4541 18.2683 20.6396 18.5405C20.8516 18.8503 21.2109 18.9999 21.5859 18.9999C22.3667 18.9999 22.9985 18.3621 23.0093 17.5812C23.0688 13.2096 23.4061 11.9906 23.6707 11.0342C23.8524 10.3777 24 9.84424 24 8.5C24 7.45767 23.6211 5.89969 22.7983 4.58139C21.9624 3.24197 20.562 2 18.5 2C17.6597 2 17.0518 2.53186 16.6753 2.99054L16.6221 3.05692L16.5815 3.10898C15.209 2.40024 13.6514 2 12 2C10.3486 2 8.79102 2.40024 7.41846 3.10898L7.36914 3.04596L7.32471 2.99054C6.94824 2.53186 6.34033 2 5.5 2C3.43799 2 2.0376 3.24197 1.20166 4.58139ZM7.5 11C8.32861 11 9 10.1046 9 9C9 7.89542 8.32861 7 7.5 7C6.67139 7 6 7.89542 6 9C6 10.1046 6.67139 11 7.5 11ZM18 9C18 10.1046 17.3286 11 16.5 11C15.6714 11 15 10.1046 15 9C15 7.89542 15.6714 7 16.5 7C17.3286 7 18 7.89542 18 9Z" fill="#2D50E6"/>
<path d="M12 22C10.1448 22 8.52555 21.1916 7.6626 19.9912C7.77486 19.997 7.88742 20 8.00018 20C9.74375 20 10.9316 19.4052 11.656 18.4996C11.79 18.3322 11.9038 18.1595 12.0002 17.9852C12.0966 18.1595 12.2103 18.3322 12.3443 18.4996C13.0688 19.4052 14.2566 20 16.0002 20C16.1128 20 16.2253 19.997 16.3374 19.9912C15.4745 21.1916 13.8552 22 12 22Z" fill="#2D50E6"/>
</svg>
