<svg width="24" height="24" viewBox="0 0 24 24" fill="none" xmlns="http://www.w3.org/2000/svg">
<path fill-rule="evenodd" clip-rule="evenodd" d="M4.00008 15.8225L4 23H5.0098C5.66832 23 6.32523 22.935 6.97097 22.8058L15.1961 21.1608C15.6635 21.0673 16 20.6569 16 20.1802V5.8198C16 5.34312 15.6635 4.93271 15.1961 4.83922L8.17864 3.43573C7.91808 3.38362 7.95606 3 8.22178 3H17.5C17.7761 3 18 3.22386 18 3.5V23H20V3C20 1.89543 19.1046 1 18 1H6.00008C4.89547 1 4.00003 1.8955 4.00007 3.00011C4.00022 7.27425 4.00015 11.5484 4.00008 15.8225ZM15 13C15 14.1046 14.5523 15 14 15C13.4477 15 13 14.1046 13 13C13 11.8954 13.4477 11 14 11C14.5523 11 15 11.8954 15 13Z" fill="#2D50E6"/>
</svg>
