<svg width="24" height="24" viewBox="0 0 24 24" fill="none" xmlns="http://www.w3.org/2000/svg">
<path fill-rule="evenodd" clip-rule="evenodd" d="M8 1C6.89543 1 6 1.89543 6 3V23H18V3C18 1.89543 17.1046 1 16 1H8ZM15 13C15.5523 13 16 12.5523 16 12C16 11.4477 15.5523 11 15 11C14.4477 11 14 11.4477 14 12C14 12.5523 14.4477 13 15 13Z" fill="#2D50E6"/>
<path d="M3.44721 5.10557C3.94119 5.35256 4.14142 5.95324 3.89443 6.44721L3.11803 8L3.89443 9.55279C4.03519 9.83431 4.03519 10.1657 3.89443 10.4472L3.11803 12L3.89443 13.5528C4.03519 13.8343 4.03519 14.1657 3.89443 14.4472L3.11803 16L3.89443 17.5528C4.14142 18.0468 3.94119 18.6474 3.44721 18.8944C2.95324 19.1414 2.35256 18.9412 2.10557 18.4472L1.10557 16.4472C0.964809 16.1657 0.964809 15.8343 1.10557 15.5528L1.88197 14L1.10557 12.4472C0.964809 12.1657 0.964809 11.8343 1.10557 11.5528L1.88197 10L1.10557 8.44721C0.964809 8.16569 0.964809 7.83431 1.10557 7.55279L2.10557 5.55279C2.35256 5.05881 2.95324 4.85858 3.44721 5.10557Z" fill="#2D50E6"/>
<path d="M20.1056 6.44721C19.8586 5.95324 20.0588 5.35256 20.5528 5.10557C21.0468 4.85858 21.6474 5.05881 21.8944 5.55279L22.8944 7.55279C23.0352 7.83431 23.0352 8.16569 22.8944 8.44721L22.118 10L22.8944 11.5528C23.0352 11.8343 23.0352 12.1657 22.8944 12.4472L22.118 14L22.8944 15.5528C23.0352 15.8343 23.0352 16.1657 22.8944 16.4472L21.8944 18.4472C21.6474 18.9412 21.0468 19.1414 20.5528 18.8944C20.0588 18.6474 19.8586 18.0468 20.1056 17.5528L20.882 16L20.1056 14.4472C19.9648 14.1657 19.9648 13.8343 20.1056 13.5528L20.882 12L20.1056 10.4472C19.9648 10.1657 19.9648 9.83431 20.1056 9.55279L20.882 8L20.1056 6.44721Z" fill="#2D50E6"/>
</svg>
