<svg width="24" height="24" viewBox="0 0 24 24" fill="none" xmlns="http://www.w3.org/2000/svg">
<path fill-rule="evenodd" clip-rule="evenodd" d="M11 2C11 1.44772 11.4477 1 12 1C12.5523 1 13 1.44772 13 2V9H11V2ZM11 9H6C4.34315 9 3 10.3431 3 12V18C3 19.6569 4.34315 21 6 21H18C19.6569 21 21 19.6569 21 18V12C21 10.3431 19.6569 9 18 9H13V14.5858L15.2929 12.2929C15.4882 12.0976 15.7441 12 16 12C16.2559 12 16.5118 12.0976 16.7071 12.2929C17.0976 12.6834 17.0976 13.3166 16.7071 13.7071L12.7071 17.7071C12.3166 18.0976 11.6834 18.0976 11.2929 17.7071L7.29289 13.7071C6.90237 13.3166 6.90237 12.6834 7.29289 12.2929C7.48816 12.0976 7.74408 12 8 12C8.25592 12 8.51184 12.0976 8.70711 12.2929L11 14.5858V9Z" fill="#2D50E6"/>
</svg>
