<svg width="24" height="24" viewBox="0 0 24 24" fill="none" xmlns="http://www.w3.org/2000/svg">
<path fill-rule="evenodd" clip-rule="evenodd" d="M23 12C23 18.0751 18.0751 23 12 23C5.92487 23 1 18.0751 1 12C1 5.92487 5.92487 1 12 1C18.0751 1 23 5.92487 23 12ZM8.49969 7.26611C7.95123 7.05726 7.4121 7 7.0002 7H6.0002C5.9296 7 5.86071 6.99268 5.79424 6.97877C5.14041 6.84187 5.28692 5.96869 5.76886 5.50612C7.386 3.95396 9.5817 3 12.0002 3C16.4687 3 20.1766 6.25652 20.88 10.5258C21.013 11.3324 20.0894 12.1784 19.7238 11.4472L19.171 10.3416C19.0663 10.1323 18.8523 10 18.6182 10C18.2769 10 18.0002 10.2767 18.0002 10.618V11.382C18.0002 11.7233 17.7235 12 17.3822 12C17.1481 12 16.9341 11.8677 16.8294 11.6584L16.2766 10.5528C16.1072 10.214 15.7609 10 15.3822 10H14.6182C14.2395 10 13.8932 10.214 13.7238 10.5528L13.2766 11.4472C13.1217 11.757 12.819 11.9624 12.4787 11.9953C12.1274 11.9866 11.7828 11.9616 11.4963 11.8899C11.098 11.7904 11.0084 11.2724 10.9746 10.8633C10.9018 9.98478 10.6754 9.26956 10.3235 8.70155C9.88705 7.99705 9.2783 7.55277 8.6113 7.3055C8.57426 7.29177 8.53705 7.27864 8.49969 7.26611ZM6.52751 8.70096C6.20205 8.4228 5.76384 8.24646 5.38304 8.44212C5.24898 8.51099 5.11847 8.58762 4.99221 8.6718L4.72057 8.85289C3.65302 9.56459 3.00885 10.7594 3 12.0412C3.00023 12.0922 3.00088 12.1431 3.00195 12.1939C3.03999 13.3629 3.60618 14.4547 4.54553 15.1592L5.86378 16.1479C6.59872 16.6991 7.12153 17.4865 7.34435 18.3778L7.68089 19.2239C7.80099 19.7043 8.12066 20.0929 8.53812 20.3101C8.64573 20.355 8.75439 20.3979 8.86406 20.4386C9.00834 20.4787 9.15979 20.5 9.31525 20.5C10.2457 20.5 10.9999 20.2458 10.9999 19.3153V17.118C10.9999 16.7393 11.2139 16.393 11.5527 16.2236L12.1055 15.9472C12.6536 15.6731 12.9999 15.1129 12.9999 14.5C12.9999 14.1003 12.8526 13.7229 12.5981 13.4328C12.4233 13.2335 12.1941 13.0891 11.9365 13.0269C11.7062 12.9712 11.428 12.9036 11.2537 12.8601C10.9654 12.788 10.6576 12.6676 10.4155 12.4498C10.1556 12.2158 10 11.8939 10 11.5C10 10.8578 9.91819 10.335 9.78246 9.91063C9.64689 9.48679 9.17869 9.32417 8.7351 9.35946C8.02242 9.41615 7.20329 9.27854 6.52751 8.70096Z" fill="#2D50E6"/>
</svg>
