<svg width="24" height="24" viewBox="0 0 24 24" fill="none" xmlns="http://www.w3.org/2000/svg">
<path fill-rule="evenodd" clip-rule="evenodd" d="M22.1214 6.12132C23.293 4.94975 23.293 3.05025 22.1214 1.87868C20.9498 0.707107 19.0503 0.707107 17.8787 1.87868L3.9554 15.8284C3.18643 16.5989 2.60786 17.5373 2.26622 18.5708C1.87074 19.7672 1.34203 21.3697 1.02429 22.3454C0.897705 22.7342 1.2658 23.1023 1.65454 22.9757C2.63001 22.658 4.23282 22.1292 5.42937 21.7336C6.4628 21.392 7.40112 20.8135 8.1715 20.0446L22.1214 6.12132ZM19.2935 3.29238C19.684 2.90237 20.3168 2.90254 20.7072 3.29289C21.0975 3.68324 21.0977 4.31601 20.7077 4.70658L18.7052 6.70523L17.2948 5.29482L19.2935 3.29238Z" fill="#2D50E6"/>
</svg>
