<svg width="24" height="24" viewBox="0 0 24 24" fill="none" xmlns="http://www.w3.org/2000/svg">
<path fill-rule="evenodd" clip-rule="evenodd" d="M17.6356 1.77205C17.8581 1.58864 18 1.31089 18 1C18 0.447715 17.5523 0 17 0C16.4477 0 16 0.447715 16 1C16 1.42888 16.27 1.79469 16.6493 1.93676L18.0068 10.0822C17.7344 10.1276 17.5504 10.3852 17.5958 10.6576L17.9713 12.9103C18.0114 13.151 17.8709 13.3834 17.6465 13.4792C15.7973 14.2685 14.4253 15.9597 14.083 18H6.82929C6.41746 16.8348 5.30622 16 4 16C2.34315 16 1 17.3431 1 19C1 20.6569 2.34315 22 4 22C4.8885 22 5.68679 21.6137 6.23611 21H14C15.1046 21 16 20.1046 16 19C16 17.5992 16.7201 16.3665 17.8103 15.652C18.0838 15.4728 18.4292 15.6576 18.4829 15.9801L18.5485 16.3739C17.6251 16.8853 17 17.8697 17 19C17 20.6569 18.3431 22 20 22C21.6569 22 23 20.6569 23 19C23 17.521 21.9297 16.2919 20.5214 16.0451L20.4061 15.3536C20.3663 15.1151 20.5152 14.8906 20.6902 14.7237C20.8811 14.5415 21 14.2847 21 14C21 13.5971 20.7617 13.2499 20.4184 13.0915C20.1988 12.9902 19.9849 12.8266 19.9452 12.588L19.5686 10.3288C19.5455 10.1901 19.4673 10.0742 19.3602 10H20.5C20.7761 10 21 9.77614 21 9.5V8.5C21 8.22386 20.7761 8 20.5 8H19.618C19.2619 8 18.9345 8.18919 18.7558 8.49342L17.6356 1.77205ZM4 18C3.44772 18 3 18.4477 3 19C3 19.5523 3.44772 20 4 20C4.55228 20 5 19.5523 5 19C5 18.4477 4.55228 18 4 18ZM20 18C19.4477 18 19 18.4477 19 19C19 19.5523 19.4477 20 20 20C20.5523 20 21 19.5523 21 19C21 18.4477 20.5523 18 20 18Z" fill="#2D50E6"/>
</svg>
