<svg width="24" height="24" viewBox="0 0 24 24" fill="none" xmlns="http://www.w3.org/2000/svg">
<path d="M16.2323 5.64645L12.4394 9.43934C11.8536 10.0251 11.8536 10.9749 12.4394 11.5607C13.0252 12.1464 13.9749 12.1464 14.5607 11.5607L18.3536 7.76777L20.2929 9.70711C20.5789 9.9931 21.009 10.0787 21.3827 9.92388C21.7564 9.7691 22 9.40446 22 9V8.00759L22.0001 8V3C22.0001 2.44772 21.5523 2 21 2H15C14.5956 2 14.2309 2.24364 14.0761 2.61732C13.9214 2.99099 14.0069 3.42111 14.2929 3.70711L16.2323 5.64645Z" fill="#2D50E6"/>
<path d="M7.7678 18.3536L11.5607 14.5607C12.1465 13.9749 12.1465 13.0251 11.5607 12.4393C10.9749 11.8536 10.0252 11.8536 9.43937 12.4393L5.64648 16.2322L3.70714 14.2929C3.42114 14.0069 2.99102 13.9213 2.61735 14.0761C2.24367 14.2309 2.00003 14.5955 2.00003 15V15.9924L2 16V21C2 21.5523 2.44774 22 3.00003 22H9.00003C9.40449 22 9.76913 21.7564 9.92391 21.3827C10.0787 21.009 9.99313 20.5789 9.70714 20.2929L7.7678 18.3536Z" fill="#2D50E6"/>
</svg>
