<svg width="24" height="24" viewBox="0 0 24 24" fill="none" xmlns="http://www.w3.org/2000/svg">
<path d="M12.7071 2.26629C12.4211 2.00629 11.991 1.92852 11.6173 2.06923C11.2436 2.20994 11 2.54142 11 2.90912V7C7.11666 7 4.58026 9.31827 3.06765 12.1544C1.57039 14.9618 1 18.3844 1 21C1 21.4987 1.36743 21.9212 1.8613 21.9903C2.35517 22.0595 2.82452 21.7542 2.96152 21.2747C3.42105 19.6664 4.05766 18.6843 5.13373 18.0484C6.27147 17.3761 8.04803 17 11 17V21.0909C11 21.4586 11.2436 21.7901 11.6173 21.9308C11.991 22.0715 12.4211 21.9937 12.7071 21.7337L22.7071 12.6428C23.0976 12.2878 23.0976 11.7122 22.7071 11.3572L12.7071 2.26629Z" fill="#2D50E6"/>
</svg>
