<svg width="24" height="24" viewBox="0 0 24 24" fill="none" xmlns="http://www.w3.org/2000/svg">
<path fill-rule="evenodd" clip-rule="evenodd" d="M22.7071 2.70711C23.0976 2.31658 23.0976 1.68342 22.7071 1.29289C22.3166 0.902369 21.6834 0.902369 21.2929 1.29289L16.4522 6.13357C15.0611 5.45526 13.5501 5 12 5C7.50345 5 3.33562 8.83079 1.47091 10.8246C0.84303 11.4959 0.843031 12.5041 1.47091 13.1754C2.40346 14.1725 3.91202 15.6291 5.74965 16.8361L1.29289 21.2929C0.902369 21.6834 0.902369 22.3166 1.29289 22.7071C1.68342 23.0976 2.31658 23.0976 2.70711 22.7071L22.7071 2.70711ZM8.55382 14.032L14.032 8.55382C13.4365 8.20193 12.7418 8 12 8C9.79086 8 8 9.79086 8 12C8 12.7418 8.20193 13.4365 8.55382 14.032Z" fill="#2D50E6"/>
<path d="M15.9923 12.2503C15.8682 14.2601 14.2601 15.8682 12.2503 15.9923L9.5892 18.6534C10.374 18.8731 11.1815 19 12 19C16.4965 19 20.6644 15.1692 22.5291 13.1754C23.157 12.5041 23.157 11.4959 22.5291 10.8246C21.8908 10.1421 20.9827 9.2444 19.8838 8.35878L15.9923 12.2503Z" fill="#2D50E6"/>
</svg>
