<svg width="24" height="24" viewBox="0 0 24 24" fill="none" xmlns="http://www.w3.org/2000/svg">
<path d="M12 14C13.1046 14 14 13.1046 14 12C14 10.8954 13.1046 10 12 10C10.8954 10 10 10.8954 10 12C10 13.1046 10.8954 14 12 14Z" fill="#2D50E6"/>
<path fill-rule="evenodd" clip-rule="evenodd" d="M22.5291 10.8246C23.157 11.4959 23.157 12.5041 22.5291 13.1754C20.6644 15.1692 16.4965 19 12 19C7.50345 19 3.33562 15.1692 1.47091 13.1754C0.843031 12.5041 0.84303 11.4959 1.47091 10.8246C3.33562 8.83079 7.50345 5 12 5C16.4965 5 20.6644 8.83078 22.5291 10.8246ZM16 12C16 14.2091 14.2091 16 12 16C9.79086 16 8 14.2091 8 12C8 9.79086 9.79086 8 12 8C14.2091 8 16 9.79086 16 12Z" fill="#2D50E6"/>
</svg>
