<svg width="24" height="24" viewBox="0 0 24 24" fill="none" xmlns="http://www.w3.org/2000/svg">
<path fill-rule="evenodd" clip-rule="evenodd" d="M7 5C7 6.77463 7.69985 8.19934 8.89255 9.48112C8.43826 10.0409 8.13216 10.7258 8.03401 11.4761C7.75679 11.2372 7.48709 10.9763 7.2174 10.7153C5.90938 9.44977 4.60134 8.1842 2.43628 9.4342C0.0114102 10.8342 0.493081 14.0685 1.97218 16.6303C3.45128 19.1922 5.8382 21.3265 8.43628 19.8265C9.97204 18.9398 10.8558 17.6227 11.3696 15.9506C11.575 15.9831 11.7855 16 12 16C12.5422 16 13.0592 15.8921 13.5307 15.6967C13.4625 16.0546 13.3718 16.4169 13.2811 16.7792C12.8391 18.5448 12.3971 20.3103 14.5622 21.5603C16.987 22.9603 19.5472 20.9261 21.0263 18.3642C22.5054 15.8023 23.1603 12.668 20.5622 11.168C19.0254 10.2808 17.4417 10.1745 15.7354 10.5664C15.4689 9.87247 15.0146 9.27164 14.4348 8.82614C14.7797 8.7058 15.1398 8.6029 15.5 8.5C17.25 8 19 7.5 19 5C19 2.2 15.9582 1 13 1C10.0418 0.999996 7 2 7 5ZM12 14C13.1046 14 14 13.1046 14 12C14 10.8954 13.1046 10 12 10C10.8954 10 10 10.8954 10 12C10 13.1046 10.8954 14 12 14Z" fill="#2D50E6"/>
</svg>
