<svg width="24" height="24" viewBox="0 0 24 24" fill="none" xmlns="http://www.w3.org/2000/svg">
<path d="M13 1C13 1 10.8277 4.71795 15.7459 7.86272C15.9817 8.01347 16.2081 8.16835 16.4251 8.32752C18.5799 9.76086 20 12.2112 20 14.9932C20 19.4114 16.4183 22.9931 12.0001 22.9931C8.93018 22.9931 6.26416 21.264 4.92285 18.7265H4.91949C4.40153 17.779 4.00015 15.9218 4.00015 14.9932C4.00015 14.9704 4.00012 14.9463 4.00008 14.9208C3.99856 13.9078 3.86045 11.2048 6 9C5.94579 11.0854 6.5 12 8 13C6.82969 7.88441 8.22209 3.65191 13 1Z" fill="#2D50E6"/>
</svg>
