<svg width="24" height="24" viewBox="0 0 24 24" fill="none" xmlns="http://www.w3.org/2000/svg">
<path d="M4.59747 17.9883L2.29289 20.2929C1.90237 20.6834 1.90237 21.3166 2.29289 21.7071C2.68342 22.0976 3.31658 22.0976 3.70711 21.7071L21.7071 3.70711C22.0976 3.31658 22.0976 2.68342 21.7071 2.29289C21.3166 1.90237 20.6834 1.90237 20.2929 2.29289L15.1394 7.44637C11.0139 4.39925 13 1 13 1C8.22209 3.65191 6.82969 7.88441 8 13C6.5 12 5.94579 11.0854 6 9C3.97065 11.0913 3.99038 13.6307 3.99909 14.7512C3.99956 14.812 4 14.8687 4.00008 14.9208L4.00015 14.9932C4.00015 15.7174 4.24429 17.0065 4.59747 17.9883Z" fill="#2D50E6"/>
<path d="M7.00232 21.2403L18.2471 9.99546C19.344 11.3647 20 13.1024 20 14.9932C20 19.4114 16.4183 22.9931 12.0001 22.9931C10.1092 22.9931 8.37156 22.3371 7.00232 21.2403Z" fill="#2D50E6"/>
</svg>
