<svg width="24" height="24" viewBox="0 0 24 24" fill="none" xmlns="http://www.w3.org/2000/svg">
<g clip-path="url(#clip0_942_30)">
<path d="M18.697 0.0405556C18.9508 0.149334 19.0683 0.443273 18.9596 0.697088L17.4596 4.19709C17.3508 4.4509 17.0569 4.56848 16.803 4.4597C16.5492 4.35092 16.4317 4.05698 16.5404 3.80317L18.0404 0.303169C18.1492 0.0493536 18.4431 -0.068222 18.697 0.0405556Z" fill="#2D50E6"/>
<path d="M21.8536 2.14657C22.0488 2.34184 22.0488 2.65842 21.8536 2.85368L19.3536 5.35368C19.1583 5.54894 18.8417 5.54894 18.6464 5.35368C18.4512 5.15842 18.4512 4.84184 18.6464 4.64657L21.1464 2.14657C21.3417 1.95131 21.6583 1.95131 21.8536 2.14657Z" fill="#2D50E6"/>
<path d="M23.697 5.9597C23.9508 5.85092 24.0683 5.55698 23.9596 5.30317C23.8508 5.04935 23.5569 4.93178 23.303 5.04056L19.803 6.54056C19.5492 6.64933 19.4317 6.94327 19.5404 7.19709C19.6492 7.4509 19.9431 7.56848 20.197 7.4597L23.697 5.9597Z" fill="#2D50E6"/>
<path fill-rule="evenodd" clip-rule="evenodd" d="M1.87868 17.8787L8.50084 11.2565C8.79356 10.9638 8.97623 10.5792 9.00768 10.1664C9.06433 9.42283 9.12134 8.67451 9.41604 8C10.1876 6.2341 11.9497 5 14 5C16.7614 5 19 7.23858 19 10C19 12.0503 17.7659 13.8124 16 14.584C15.3255 14.8786 14.5773 14.9357 13.8337 14.9923C13.4209 15.0238 13.0362 15.2065 12.7434 15.4993L6.12132 22.1213C4.94975 23.2929 3.05025 23.2929 1.87868 22.1213C0.707107 20.9497 0.707107 19.0503 1.87868 17.8787ZM16.8942 7.10577C17.882 8.09351 18.2823 9.29459 17.7885 9.78846C17.2946 10.2823 16.0935 9.88197 15.1058 8.89423C14.118 7.90649 13.7177 6.70541 14.2115 6.21154C14.7054 5.71767 15.9065 6.11803 16.8942 7.10577ZM10.2071 15.2071C10.5976 14.8166 10.5976 14.1834 10.2071 13.7929C9.81658 13.4024 9.18342 13.4024 8.79289 13.7929L6.79289 15.7929C6.40237 16.1834 6.40237 16.8166 6.79289 17.2071C7.18342 17.5976 7.81658 17.5976 8.20711 17.2071L10.2071 15.2071Z" fill="#2D50E6"/>
</g>
<defs>
<clipPath id="clip0_942_30">
<rect width="24" height="24" fill="white"/>
</clipPath>
</defs>
</svg>
