<svg width="24" height="24" viewBox="0 0 24 24" fill="none" xmlns="http://www.w3.org/2000/svg">
<path d="M1.19634 9.10459L11.3877 1.21394C11.7482 0.934873 12.2517 0.934873 12.6121 1.21394L22.8035 9.10459C23.1804 9.39638 22.974 9.99994 22.4974 9.99994H20.9999C20.4476 9.99994 19.9999 10.4477 19.9999 10.9999V15.6582C19.9999 16.0317 19.6007 16.2783 19.242 16.174C18.8612 16.0633 18.4468 15.9999 17.9999 15.9999C16.8616 15.9999 15.9337 16.4111 15.2352 16.9698C15.0982 17.0795 14.9017 17.0795 14.7646 16.9698C14.6101 16.8462 14.4443 16.7298 14.2675 16.6235C14.1065 16.5266 13.9999 16.3566 13.9999 16.1688V14.9999C13.9999 14.4477 13.5522 13.9999 12.9999 13.9999H10.9999C10.4476 13.9999 9.99993 14.4477 9.99993 14.9999V16.1688C9.99993 16.3567 9.89336 16.5266 9.73236 16.6235C9.55555 16.7298 9.38977 16.8462 9.23523 16.9698C9.09821 17.0794 8.90167 17.0794 8.76465 16.9698C8.0662 16.4111 7.13826 15.9999 5.99994 15.9999C5.55312 15.9999 5.13871 16.0633 4.75788 16.174C4.3992 16.2784 3.99993 16.0317 3.99993 15.6582V10.9999C3.99993 10.4477 3.55221 9.99994 2.99993 9.99994H1.50245C1.02581 9.99994 0.819469 9.39639 1.19634 9.10459Z" fill="#2D50E6"/>
<path d="M2.99994 21.9999C4.25727 21.9999 4.90876 21.1251 5.25703 20.6574L5.29994 20.5999C5.7132 20.0489 5.81086 19.9999 5.99994 19.9999C6.18901 19.9999 6.28668 20.0489 6.69994 20.5999L6.74285 20.6574C7.09112 21.1251 7.74261 21.9999 8.99994 21.9999C10.2573 21.9999 10.9088 21.1251 11.257 20.6574L11.2999 20.5999C11.7132 20.0489 11.8109 19.9999 11.9999 19.9999C12.189 19.9999 12.2867 20.0489 12.6999 20.5999L12.7428 20.6574C13.0911 21.1251 13.7426 21.9999 14.9999 21.9999C16.2573 21.9999 16.9088 21.1251 17.257 20.6574L17.2999 20.5999C17.7132 20.0489 17.8109 19.9999 17.9999 19.9999C18.189 19.9999 18.2867 20.0489 18.6999 20.5999L18.7428 20.6574C19.0911 21.1251 19.7426 21.9999 20.9999 21.9999C21.5522 21.9999 21.9999 21.5522 21.9999 20.9999C21.9999 20.4477 21.5522 19.9999 20.9999 19.9999C20.8109 19.9999 20.7132 19.951 20.2999 19.3999L20.257 19.3425C19.9088 18.8748 19.2573 17.9999 17.9999 17.9999C16.7426 17.9999 16.0911 18.8748 15.7428 19.3425L15.6999 19.3999C15.2867 19.951 15.189 19.9999 14.9999 19.9999C14.8109 19.9999 14.7132 19.951 14.2999 19.3999L14.257 19.3425C13.9088 18.8748 13.2573 17.9999 11.9999 17.9999C10.7426 17.9999 10.0911 18.8748 9.74285 19.3425L9.69994 19.3999C9.28668 19.951 9.18901 19.9999 8.99994 19.9999C8.81086 19.9999 8.7132 19.951 8.29994 19.3999L8.25703 19.3425C7.90876 18.8748 7.25727 17.9999 5.99994 17.9999C4.74261 17.9999 4.09112 18.8748 3.74285 19.3425L3.69994 19.3999C3.28668 19.951 3.18901 19.9999 2.99994 19.9999C2.44765 19.9999 1.99994 20.4477 1.99994 20.9999C1.99994 21.5522 2.44765 21.9999 2.99994 21.9999Z" fill="#2D50E6"/>
</svg>
