<svg width="24" height="24" viewBox="0 0 24 24" fill="none" xmlns="http://www.w3.org/2000/svg">
<path fill-rule="evenodd" clip-rule="evenodd" d="M5 2C3.34315 2 2 3.34315 2 5V19C2 20.6569 3.34315 22 5 22H19C20.6569 22 22 20.6569 22 19V5L19 2C18.4477 2 18 2.44772 18 3V6C18 7.10457 17.1046 8 16 8H8C6.89543 8 6 7.10457 6 6V3C6 2.44772 5.55228 2 5 2ZM16 15C16 17.2091 14.2091 19 12 19C9.79086 19 8 17.2091 8 15C8 12.7909 9.79086 11 12 11C14.2091 11 16 12.7909 16 15Z" fill="#2D50E6"/>
<path d="M15 2C14.4477 2 14 2.44772 14 3V5C14 5.55228 14.4477 6 15 6C15.5523 6 16 5.55228 16 5V3C16 2.44772 15.5523 2 15 2Z" fill="#2D50E6"/>
</svg>
