<svg width="24" height="24" viewBox="0 0 24 24" fill="none" xmlns="http://www.w3.org/2000/svg">
<path fill-rule="evenodd" clip-rule="evenodd" d="M12 1C13.5932 1 14.9689 1.93148 15.6121 3.27956C17.0202 2.78114 18.6516 3.09523 19.7782 4.22182C20.9048 5.34841 21.2189 6.97981 20.7205 8.38788C22.0685 9.03113 23 10.4068 23 12C23 13.5932 22.0686 14.9688 20.7206 15.6121C21.219 17.0202 20.9049 18.6516 19.7783 19.7782C18.6517 20.9048 17.0203 21.2189 15.6122 20.7204C14.9689 22.0685 13.5932 23 12 23C10.4068 23 9.03111 22.0685 8.38787 20.7205C6.97981 21.2188 5.34844 20.9047 4.22187 19.7782C3.09529 18.6516 2.7812 17.0202 3.27958 15.6121C1.93149 14.9689 1 13.5932 1 12C1 10.4067 1.93153 9.03102 3.27968 8.38781C2.78132 6.97976 3.09542 5.3484 4.22198 4.22184C5.34853 3.09529 6.97985 2.78118 8.38789 3.27951C9.03113 1.93146 10.4068 1 12 1ZM12 16C14.2091 16 16 14.2091 16 12C16 9.79086 14.2091 8 12 8C9.79086 8 8 9.79086 8 12C8 14.2091 9.79086 16 12 16Z" fill="#2D50E6"/>
</svg>
