<svg width="24" height="24" viewBox="0 0 24 24" fill="none" xmlns="http://www.w3.org/2000/svg">
<path d="M3 4C1.89543 4 1 4.89543 1 6V18.5C1 19.3284 1.67157 20 2.5 20C3.32843 20 4 19.3284 4 18.5V11C4 9.34315 5.34315 8 7 8H19.5C19.7761 8 20.0064 7.77267 19.9383 7.50506C19.718 6.63988 18.9337 6 18 6H13.118C12.4328 6 11.8064 5.61287 11.5 5C11.1936 4.38713 10.5672 4 9.88197 4H3Z" fill="#2D50E6"/>
<path d="M23 10.5C23 10.2239 22.7761 10 22.5 10H7C6.44772 10 6 10.4477 6 11V18C6 18.4212 5.93489 18.8272 5.8142 19.2085C5.69798 19.5756 5.94665 20 6.33174 20H21C22.1046 20 23 19.1046 23 18V10.5Z" fill="#2D50E6"/>
</svg>
