<svg width="24" height="24" viewBox="0 0 24 24" fill="none" xmlns="http://www.w3.org/2000/svg">
<path fill-rule="evenodd" clip-rule="evenodd" d="M17 0C16.4477 0 16 0.447715 16 1C16 1.55228 16.4477 2 17 2H18.5858L16.2929 4.29289C16.259 4.32674 16.2281 4.36242 16.2001 4.3996C15.0302 3.52077 13.5759 3 12 3C8.13401 3 5 6.13401 5 10C5 13.5265 7.60771 16.4439 11 16.9291V19H9C8.44772 19 8 19.4477 8 20C8 20.5523 8.44772 21 9 21H11V23C11 23.5523 11.4477 24 12 24C12.5523 24 13 23.5523 13 23V21H15C15.5523 21 16 20.5523 16 20C16 19.4477 15.5523 19 15 19H13V16.9291C16.3923 16.4439 19 13.5265 19 10C19 8.42409 18.4792 6.96981 17.6004 5.79986C17.6376 5.77187 17.6733 5.74096 17.7071 5.70711L20 3.41421V5C20 5.55228 20.4477 6 21 6C21.5523 6 22 5.55228 22 5V1C22 0.447715 21.5523 0 21 0H17ZM12 15C14.7614 15 17 12.7614 17 10C17 7.23858 14.7614 5 12 5C9.23858 5 7 7.23858 7 10C7 12.7614 9.23858 15 12 15Z" fill="#2D50E6"/>
</svg>
