<svg width="24" height="24" viewBox="0 0 24 24" fill="none" xmlns="http://www.w3.org/2000/svg">
<circle cx="12" cy="12" r="11" fill="white"/>
<path d="M20.4879 15C20.8195 14.0617 21 13.0519 21 12C21 10.9481 20.8195 9.93834 20.4879 9H3.51212C3.18046 9.93834 3 10.9481 3 12C3 13.0519 3.18046 14.0617 3.51212 15H20.4879Z" fill="#D95762"/>
<path d="M20.4879 15C19.2523 18.4956 15.9186 21 12 21C8.08131 21 4.74759 18.4956 3.51208 15H20.4879Z" fill="#E9B857"/>
<path d="M20.4879 9H3.51208C4.74759 5.50442 8.08131 3 12 3C15.9186 3 19.2523 5.50442 20.4879 9Z" fill="#2C2302"/>
</svg>
