<svg width="24" height="24" viewBox="0 0 24 24" fill="none" xmlns="http://www.w3.org/2000/svg">
<path d="M11 2.5V4.00021C11 4.55249 10.5524 5 10.0001 5H8.5C7.11929 5 6 3.88071 6 2.5C6 1.11929 7.11929 0 8.5 0C9.88071 0 11 1.11929 11 2.5Z" fill="#2D50E6"/>
<path d="M15.5 5H13.9998C13.4475 5 13 4.55239 13 4.00011V2.5C13 1.11929 14.1193 0 15.5 0C16.8807 0 18 1.11929 18 2.5C18 3.88071 16.8807 5 15.5 5Z" fill="#2D50E6"/>
<path d="M10 21C10.5523 21 11 20.5523 11 20V8C11 7.44772 10.5523 7 10 7H2.5C1.67157 7 1 7.67157 1 8.5C1 9.32843 1.67157 10 2.5 10H3L3 19C3 20.1046 3.89543 21 5 21H10Z" fill="#2D50E6"/>
<path d="M21 10V19C21 20.1046 20.1046 21 19 21H14C13.4477 21 13 20.5523 13 20V8C13 7.44772 13.4477 7 14 7H21.5C22.3284 7 23 7.67157 23 8.5C23 9.32843 22.3284 10 21.5 10H21Z" fill="#2D50E6"/>
</svg>
