<svg width="24" height="24" viewBox="0 0 24 24" fill="none" xmlns="http://www.w3.org/2000/svg">
<path d="M11 8.25C11 10.5972 9.433 13 7.5 13C5.567 13 4 10.5972 4 8.25C4 5.90279 5.567 4 7.5 4C9.433 4 11 5.90279 11 8.25Z" fill="#2D50E6"/>
<path d="M9.04165 14.1499C9.51591 14.2509 9.68358 14.8311 9.37861 15.2081C9.15947 15.479 8.94021 15.7706 8.8089 16C8.30184 16.886 8 17.8979 8 19C8 19.5138 7.66807 20 7.15424 20H2C1.44772 20 1 19.5523 1 19C1 16.2386 3.91015 14 7.5 14C7.88762 14 8.26731 14.0261 8.63627 14.0761C8.75343 14.092 8.89443 14.1186 9.04165 14.1499Z" fill="#2D50E6"/>
<path d="M10 19C10 16.2386 12.9101 14 16.5 14C20.0899 14 23 16.2386 23 19C23 19.5523 22.5523 20 22 20H11C10.4477 20 10 19.5523 10 19Z" fill="#2D50E6"/>
<path d="M16.5 13C18.433 13 20 10.5972 20 8.25C20 5.90279 18.433 4 16.5 4C14.567 4 13 5.90279 13 8.25C13 10.5972 14.567 13 16.5 13Z" fill="#2D50E6"/>
</svg>
