<svg width="24" height="24" viewBox="0 0 24 24" fill="none" xmlns="http://www.w3.org/2000/svg">
<g clip-path="url(#clip0_356_24)">
<path d="M4.70292 5.5183L4.70362 5.5175C5.94188 4.1195 7.27429 2.61521 8.91114 1.7498C10.7511 0.776993 12.9324 0.624561 15.7275 2.05263C15.9333 2.15776 16.0402 2.39021 15.9861 2.61488C15.9321 2.83954 15.7311 2.99789 15.5 2.99788C14.6014 2.99785 13.309 3.00229 12.187 3.4046C11.634 3.60289 11.144 3.89108 10.7679 4.30565C10.3958 4.7159 10.1127 5.27429 10.0068 6.05406C9.9202 6.69098 10.1972 7.3425 10.6894 7.89638L7.91072 10.6751L7.72704 10.4772C7.44322 10.1715 7.04491 9.99782 6.62777 9.99782H6.5C6.22386 9.99782 6 10.2217 6 10.4978V10.6694C6 11.3324 5.73661 11.9683 5.26777 12.4372L3.85355 13.8514C3.65829 14.0466 3.34171 14.0466 3.14645 13.8514L0.146446 10.8514C0.0526772 10.7576 0 10.6304 0 10.4978C0 10.3652 0.052681 10.238 0.14645 10.1443L1.85358 8.43717C2.13488 8.15588 2.5164 7.99785 2.91421 7.99784L3.50002 7.99783C3.77616 7.99783 4.00001 7.77398 4.00002 7.49784L4.00002 6.8816C4.00003 6.51072 4.13748 6.15454 4.38249 5.87941C4.48868 5.76016 4.59544 5.63963 4.70292 5.5183Z" fill="#2D50E6"/>
<path d="M9.27244 12.1418L12.1436 9.27064L23.8403 20.1336C23.9398 20.2261 23.9974 20.355 23.9999 20.4908C24.0024 20.6266 23.9496 20.7575 23.8536 20.8536L20.8536 23.8536C20.7575 23.9496 20.6265 24.0024 20.4907 23.9999C20.3549 23.9974 20.226 23.9398 20.1336 23.8402L9.27244 12.1418Z" fill="#2D50E6"/>
</g>
<defs>
<clipPath id="clip0_356_24">
<rect width="24" height="24" fill="white"/>
</clipPath>
</defs>
</svg>
