<svg width="24" height="24" viewBox="0 0 24 24" fill="none" xmlns="http://www.w3.org/2000/svg">
<path fill-rule="evenodd" clip-rule="evenodd" d="M12 23C18.0751 23 23 18.0751 23 12C23 5.92487 18.0751 1 12 1C5.92487 1 1 5.92487 1 12C1 18.0751 5.92487 23 12 23ZM8.5 12C9.32843 12 10 11.1046 10 10C10 8.89543 9.32843 8 8.5 8C7.67157 8 7 8.89543 7 10C7 11.1046 7.67157 12 8.5 12ZM17 10C17 11.1046 16.3284 12 15.5 12C14.6716 12 14 11.1046 14 10C14 8.89543 14.6716 8 15.5 8C16.3284 8 17 8.89543 17 10ZM7.71424 15.1991C7.3277 14.8046 6.69456 14.7982 6.3001 15.1847C5.90564 15.5713 5.89921 16.2044 6.28576 16.5989C7.73661 18.0795 9.76171 19 12 19C14.2383 19 16.2634 18.0795 17.7142 16.5989C18.1008 16.2044 18.0944 15.5713 17.6999 15.1847C17.3054 14.7982 16.6723 14.8046 16.2858 15.1991C15.1956 16.3116 13.6791 17 12 17C10.3209 17 8.80442 16.3116 7.71424 15.1991Z" fill="#2D50E6"/>
</svg>
