<svg width="24" height="24" viewBox="0 0 24 24" fill="none" xmlns="http://www.w3.org/2000/svg">
<path fill-rule="evenodd" clip-rule="evenodd" d="M11.3877 1.21418L1.19634 9.10484C0.819469 9.39663 1.02581 10.0002 1.50245 10.0002H2.99993C3.55221 10.0002 3.99993 10.4479 3.99993 11.0002V21.0002H19.9999V11.0002C19.9999 10.4479 20.4476 10.0002 20.9999 10.0002H22.4974C22.974 10.0002 23.1804 9.39663 22.8035 9.10483L12.6121 1.21418C12.2517 0.935117 11.7482 0.935117 11.3877 1.21418ZM11.9999 9.94365C10.7417 8.68545 8.70179 8.68545 7.44359 9.94365C6.18539 11.2019 6.18539 13.2418 7.44359 14.5L11.6402 18.8473C11.8368 19.051 12.1631 19.051 12.3597 18.8473L16.5563 14.5C17.8145 13.2418 17.8145 11.2019 16.5563 9.94365C15.2981 8.68545 13.2581 8.68545 11.9999 9.94365Z" fill="#2D50E6"/>
</svg>
