<svg width="24" height="24" viewBox="0 0 24 24" fill="none" xmlns="http://www.w3.org/2000/svg">
<path d="M11 1C11 0.447716 11.4477 0 12 0C12.5523 0 13 0.447715 13 1V23C13 23.5523 12.5523 24 12 24C11.4477 24 11 23.5523 11 23V1Z" fill="#2D50E6"/>
<path fill-rule="evenodd" clip-rule="evenodd" d="M15 18.4951L15 18.5V23H21V3C21 1.89543 20.1046 1 19 1H15V3H15.5C15.7762 3 16 3.22386 16 3.5V5.5C16 5.77614 15.7762 6 15.5 6H15V8H15.5C15.7762 8 16 8.22386 16 8.5V10.5C16 10.7761 15.7762 11 15.5 11H15V13H15.5C15.7762 13 16 13.2239 16 13.5V15.5C16 15.7761 15.7762 16 15.5 16H15V18.4951ZM17 3.5C17 3.22386 17.2239 3 17.5 3H18.5C18.7762 3 19 3.22386 19 3.5V5.5C19 5.77614 18.7762 6 18.5 6H17.5C17.2239 6 17 5.77614 17 5.5V3.5ZM17 10.5C17 10.7761 17.2239 11 17.5 11H18.5C18.7762 11 19 10.7761 19 10.5V8.5C19 8.22386 18.7762 8 18.5 8H17.5C17.2239 8 17 8.22386 17 8.5V10.5ZM17 15.5C17 15.7761 17.2239 16 17.5 16H18.5C18.7762 16 19 15.7761 19 15.5V13.5C19 13.2239 18.7762 13 18.5 13H17.5C17.2239 13 17 13.2239 17 13.5V15.5Z" fill="#2D50E6"/>
<path d="M1.19634 11.1046L9 5.06269V23H3.99993V13C3.99993 12.4477 3.55221 12 2.99993 12H1.50245C1.02581 12 0.819469 11.3964 1.19634 11.1046Z" fill="#2D50E6"/>
</svg>
