<svg width="24" height="24" viewBox="0 0 24 24" fill="none" xmlns="http://www.w3.org/2000/svg">
<path d="M6.5 13C6.77614 13 7 12.7761 7 12.5C7 12.2239 6.77614 12 6.5 12C6.22386 12 6 12.2239 6 12.5C6 12.7761 6.22386 13 6.5 13Z" fill="#2D50E6"/>
<path d="M7 8.5C7 8.77614 6.77614 9 6.5 9C6.22386 9 6 8.77614 6 8.5C6 8.22386 6.22386 8 6.5 8C6.77614 8 7 8.22386 7 8.5Z" fill="#2D50E6"/>
<path d="M6.5 19C7.32843 19 8 18.3284 8 17.5C8 16.6716 7.32843 16 6.5 16C5.67157 16 5 16.6716 5 17.5C5 18.3284 5.67157 19 6.5 19Z" fill="#2D50E6"/>
<path fill-rule="evenodd" clip-rule="evenodd" d="M4 2C3.44772 2 3 2.44772 3 3V21C3 21.5523 3.44772 22 4 22H9C9.55228 22 10 21.5523 10 21V3C10 2.44772 9.55228 2 9 2H4ZM6.5 14C7.32843 14 8 13.3284 8 12.5C8 11.6716 7.32843 11 6.5 11C5.67157 11 5 11.6716 5 12.5C5 13.3284 5.67157 14 6.5 14ZM8 8.5C8 9.32843 7.32843 10 6.5 10C5.67157 10 5 9.32843 5 8.5C5 7.67157 5.67157 7 6.5 7C7.32843 7 8 7.67157 8 8.5ZM6.5 20C7.88071 20 9 18.8807 9 17.5C9 16.1193 7.88071 15 6.5 15C5.11929 15 4 16.1193 4 17.5C4 18.8807 5.11929 20 6.5 20ZM6.5 5C6.77614 5 7 4.77614 7 4.5C7 4.22386 6.77614 4 6.5 4C6.22386 4 6 4.22386 6 4.5C6 4.77614 6.22386 5 6.5 5Z" fill="#2D50E6"/>
<path d="M17.5 19C18.8807 19 20 17.8807 20 16.5C20 15.1193 18.8807 14 17.5 14C16.1193 14 15 15.1193 15 16.5C15 17.8807 16.1193 19 17.5 19Z" fill="#2D50E6"/>
<path fill-rule="evenodd" clip-rule="evenodd" d="M12 13C12 12.4477 12.4477 12 13 12H22C22.5523 12 23 12.4477 23 13V20C23 20.5523 22.5523 21 22 21V21.2929C22 21.6834 21.6834 22 21.2929 22C21.1054 22 20.9255 21.9255 20.7929 21.7929L20 21H15L14.2071 21.7929C14.0745 21.9255 13.8946 22 13.7071 22C13.3166 22 13 21.6834 13 21.2929V21C12.4477 21 12 20.5523 12 20V13ZM21 16.5C21 18.433 19.433 20 17.5 20C15.567 20 14 18.433 14 16.5C14 14.567 15.567 13 17.5 13C19.433 13 21 14.567 21 16.5ZM13.5 14C13.7761 14 14 13.7761 14 13.5C14 13.2239 13.7761 13 13.5 13C13.2239 13 13 13.2239 13 13.5C13 13.7761 13.2239 14 13.5 14Z" fill="#2D50E6"/>
</svg>
