<svg width="24" height="24" viewBox="0 0 24 24" fill="none" xmlns="http://www.w3.org/2000/svg">
<path d="M2 3C1.44772 3 1 3.44772 1 4V13C1 13.5778 1.245 14.0983 1.63677 14.4634L4.79993 17.3999C4.31419 17.7648 4 18.3457 4 19C4 20.1046 4.89543 21 6 21C7.10457 21 8 20.1046 8 19C8 18.5895 7.87635 18.208 7.66428 17.8905L9.2265 16.849C10.906 15.7293 13.094 15.7293 14.7735 16.849L16.3357 17.8905C16.1236 18.208 16 18.5895 16 19C16 20.1046 16.8954 21 18 21C19.1046 21 20 20.1046 20 19C20 18.3457 19.6858 17.7648 19.2001 17.3999L22.3632 14.4634C22.755 14.0983 23 13.5778 23 13V7C23 6.44772 22.5523 6 22 6C21.4477 6 21 6.44772 21 7V9H9.8613C9.28458 9 8.73593 8.75104 8.35615 8.31701L5.75258 5.3415C5.38889 4.92586 4.75713 4.88374 4.3415 5.24742C3.92586 5.61111 3.88374 6.24287 4.24742 6.6585L6.851 9.63402C7.61055 10.5021 8.70785 11 9.8613 11H4C3.44772 11 3 10.5523 3 10V4C3 3.44772 2.55228 3 2 3Z" fill="#2D50E6"/>
</svg>
