<svg width="24" height="24" viewBox="0 0 24 24" fill="none" xmlns="http://www.w3.org/2000/svg">
<path fill-rule="evenodd" clip-rule="evenodd" d="M3 4C1.89543 4 1 4.89543 1 6V18C1 19.1046 1.89543 20 3 20H21C22.1046 20 23 19.1046 23 18V6C23 4.89543 22.1046 4 21 4H3ZM17.5 10C18.3284 10 19 9.32843 19 8.5C19 7.67157 18.3284 7 17.5 7C16.6716 7 16 7.67157 16 8.5C16 9.32843 16.6716 10 17.5 10ZM13.7609 15.0136L8.80017 8.39722C8.40015 7.8637 7.5999 7.86373 7.19993 8.39729L3.19986 13.7334C3.07012 13.9065 3 14.1169 3 14.3332V17C3 17.5523 3.44772 18 4 18H20C20.5523 18 21 17.5523 21 17V16.3808C21 16.1355 20.9098 15.8988 20.7467 15.7156L17.733 12.3327C17.3402 11.8918 16.6529 11.8855 16.252 12.3191L13.7609 15.0136Z" fill="#2D50E6"/>
</svg>
