<svg width="24" height="24" viewBox="0 0 24 24" fill="none" xmlns="http://www.w3.org/2000/svg">
<path fill-rule="evenodd" clip-rule="evenodd" d="M6 1C4.89543 1 4 1.89543 4 3V21C4 22.1046 4.89543 23 6 23H18C19.1046 23 20 22.1046 20 21V3C20 1.89543 19.1057 1 18.0011 1H6ZM6 3.9961C6 3.44382 6.44772 2.9961 7 2.9961H17C17.5523 2.9961 18 3.44382 18 3.9961C18 4.54839 17.5523 4.9961 17 4.9961H7C6.44772 4.9961 6 4.54839 6 3.9961ZM7 14.9961C6.44772 14.9961 6 15.4438 6 15.9961C6 16.5484 6.44772 16.9961 7 16.9961H17C17.5523 16.9961 18 16.5484 18 15.9961C18 15.4438 17.5523 14.9961 17 14.9961H7ZM6 19.9961C6 19.4438 6.44772 18.9961 7 18.9961H11C11.5523 18.9961 12 19.4438 12 19.9961C12 20.5484 11.5523 20.9961 11 20.9961H7C6.44772 20.9961 6 20.5484 6 19.9961ZM14 6.9961C13.4477 6.9961 13 7.44382 13 7.9961C13 8.54839 13.4477 8.9961 14 8.9961H17C17.5523 8.9961 18 8.54839 18 7.9961C18 7.44382 17.5523 6.9961 17 6.9961H14ZM13 11.9961C13 11.4438 13.4477 10.9961 14 10.9961C14.5523 10.9961 15 11.4438 15 11.9961C15 12.5484 14.5523 12.9961 14 12.9961C13.4477 12.9961 13 12.5484 13 11.9961ZM7 6.9961C6.44772 6.9961 6 7.44382 6 7.9961V11.9961C6 12.5484 6.44772 12.9961 7 12.9961H10C10.5523 12.9961 11 12.5484 11 11.9961V7.9961C11 7.44382 10.5523 6.9961 10 6.9961H7Z" fill="#2D50E6"/>
</svg>
