<svg width="24" height="24" viewBox="0 0 24 24" fill="none" xmlns="http://www.w3.org/2000/svg">
<path d="M12 8C12.5523 8 13 7.55228 13 7C13 6.44772 12.5523 6 12 6C11.4477 6 11 6.44772 11 7C11 7.55228 11.4477 8 12 8Z" fill="#2D50E6"/>
<path d="M12 20C13.6569 20 15 18.6569 15 17C15 15.3431 13.6569 14 12 14C10.3431 14 9 15.3431 9 17C9 18.6569 10.3431 20 12 20Z" fill="#2D50E6"/>
<path fill-rule="evenodd" clip-rule="evenodd" d="M6 7C6 3.68629 8.68629 1 12 1C15.3137 1 18 3.68629 18 7V17C18 20.3137 15.3137 23 12 23C8.68629 23 6 20.3137 6 17V7ZM10 6.5C10 5.67157 10.6716 5 11.5 5H12.5C13.3284 5 14 5.67157 14 6.5V7.5C14 8.32843 13.3284 9 12.5 9H11.5C10.6716 9 10 8.32843 10 7.5V6.5ZM8 16C8 14.3431 9.34315 13 11 13H13C14.6569 13 16 14.3431 16 16V18C16 19.6569 14.6569 21 13 21H11C9.34315 21 8 19.6569 8 18V16Z" fill="#2D50E6"/>
</svg>
