<svg width="24" height="24" viewBox="0 0 24 24" fill="none" xmlns="http://www.w3.org/2000/svg">
<path d="M12 14C14.2091 14 16 10.9853 16 8.5C16 6.01472 14.2091 4 12 4C9.79086 4 8 6.01472 8 8.5C8 10.9853 9.79086 14 12 14Z" fill="#2D50E6"/>
<path d="M19 19C19 16.7909 15.866 15 12 15C8.13401 15 5 16.7909 5 19C5 19.5523 5.44772 20 6 20H18C18.5523 20 19 19.5523 19 19Z" fill="#2D50E6"/>
<path d="M17.6356 10.8722C17.4948 11.3387 17.6573 11.885 18.1374 11.9687C18.2558 11.9893 18.3768 12 18.5 12C19.8807 12 21 10.6569 21 9C21 7.34314 19.8807 6 18.5 6L18.4887 6.00003C17.9724 6.00276 17.7451 6.56899 17.8513 7.07428C17.949 7.53916 18 8.01727 18 8.5C18 9.28798 17.8701 10.0954 17.6356 10.8722Z" fill="#2D50E6"/>
<path d="M20.637 17.2474C20.8215 17.674 21.2148 18 21.6796 18H22C22.5522 18 23 17.5523 23 17C23 14.7909 20.9852 13 18.5 13C17.7388 13 17.0219 13.168 16.3934 13.4645C16.372 13.4745 16.3538 13.4898 16.3399 13.5089C16.2828 13.5874 16.3166 13.7 16.408 13.7329C16.9544 13.9299 17.4689 14.1647 17.942 14.4351C19.038 15.0614 20.0999 16.0049 20.637 17.2474Z" fill="#2D50E6"/>
<path d="M6.14867 7.07429C6.25489 6.56899 6.02757 6.00276 5.51124 6.00003L5.5 6C4.11929 6 3 7.34314 3 9C3 10.6569 4.11929 12 5.5 12C5.62312 12 5.74416 11.9893 5.86252 11.9687C6.34262 11.885 6.50516 11.3387 6.36432 10.8722C6.12982 10.0954 6 9.28798 6 8.5C6 8.01727 6.05095 7.53916 6.14867 7.07429Z" fill="#2D50E6"/>
<path d="M7.66006 13.5089C7.64615 13.4898 7.62796 13.4745 7.60657 13.4645C6.97808 13.168 6.26111 13 5.5 13C4.08636 13 2.82498 13.5794 2 14.4856C1.3746 15.1726 1 16.0474 1 17C1 17.5523 1.44771 18 2 18H2.32037C2.78519 18 3.17846 17.674 3.36292 17.2474C3.90008 16.0049 4.96192 15.0614 6.05797 14.4351C6.53109 14.1647 7.04553 13.9299 7.59199 13.7329C7.68332 13.7 7.71719 13.5874 7.66006 13.5089Z" fill="#2D50E6"/>
</svg>
