<svg width="24" height="24" viewBox="0 0 24 24" fill="none" xmlns="http://www.w3.org/2000/svg">
<path d="M11.9037 2.90381C14.4421 0.365398 18.5577 0.365398 21.0961 2.90381C23.6345 5.44221 23.6346 9.55779 21.0962 12.0962L17.0962 16.0962C14.5578 18.6346 10.4421 18.6346 7.90374 16.0962C7.53868 15.7311 7.22612 15.3335 6.96606 14.9125L9.20256 12.676C9.37132 13.1502 9.64548 13.5953 10.0251 13.9749C11.3919 15.3417 13.608 15.3417 14.9749 13.9749L18.9749 9.97488C20.3417 8.60804 20.3416 6.39196 18.9748 5.02513C17.7798 3.83013 15.9357 3.6799 14.5775 4.57441C13.3617 4.10306 12.0593 3.9218 10.7769 4.03062L11.9037 2.90381Z" fill="#2D50E6"/>
<path d="M12.0962 21.0962C9.55782 23.6346 5.44225 23.6346 2.90384 21.0962C0.365434 18.5578 0.365361 14.4422 2.90377 11.9038L6.90377 7.9038C9.44218 5.36539 13.5578 5.3654 16.0962 7.90381C16.4613 8.26886 16.7738 8.66654 17.0339 9.08745L14.7974 11.324C14.6286 10.8498 14.3545 10.4047 13.9749 10.0251C12.6081 8.65829 10.3919 8.65829 9.02509 10.0251L5.02509 14.0251C3.65826 15.392 3.65833 17.608 5.02516 18.9749C6.22016 20.1699 8.06427 20.3201 9.42249 19.4256C10.6383 19.8969 11.9407 20.0782 13.223 19.9694L12.0962 21.0962Z" fill="#2D50E6"/>
</svg>
