<svg width="24" height="24" viewBox="0 0 24 24" fill="none" xmlns="http://www.w3.org/2000/svg">
<path fill-rule="evenodd" clip-rule="evenodd" d="M20.9321 4.36248C21.0758 3.9929 20.9875 3.57332 20.7072 3.29292C20.4268 3.01253 20.0072 2.9243 19.6376 3.06802L1.6376 10.068C1.21056 10.2341 0.951013 10.6692 1.00774 11.1238C1.06447 11.5785 1.42296 11.9365 1.87772 11.9925L10.1213 13.0086C10.5767 13.0647 10.9354 13.4234 10.9915 13.8787L12.005 22.1017C12.0097 22.1474 12.0176 22.1925 12.0284 22.2368C12.0614 22.3728 12.1215 22.4966 12.2022 22.6031C12.2929 22.7234 12.4117 22.8244 12.5537 22.895C12.6455 22.9408 12.7448 22.9729 12.8486 22.9887C12.9856 23.0098 13.123 23.0016 13.2527 22.9677C13.38 22.9346 13.4964 22.8775 13.5975 22.8021C13.7171 22.7132 13.818 22.5967 13.8894 22.4574C13.9083 22.4208 13.9249 22.3829 13.9392 22.344L20.9321 4.36248Z" fill="#2D50E6"/>
</svg>
