<svg width="24" height="24" viewBox="0 0 24 24" fill="none" xmlns="http://www.w3.org/2000/svg">
<path d="M2.23608 6.57014L10.9599 1.28686C11.5963 0.901453 12.3939 0.901452 13.0303 1.28685L21.7542 6.57014C22.0754 6.76468 22.0755 7.2309 21.7543 7.42554L14.0433 12.0986L16.142 9.99992C17.2858 8.8561 17.2858 7.0016 16.142 5.85778C14.9982 4.71396 13.1437 4.71396 11.9999 5.85778C10.8561 4.71396 9.00156 4.71396 7.85774 5.85778C6.71392 7.0016 6.71392 8.8561 7.85774 9.99992L9.9712 12.1134L2.23595 7.42554C1.91478 7.2309 1.91485 6.76469 2.23608 6.57014Z" fill="#2D50E6"/>
<path d="M13.0045 14.4069L21.2383 9.58793C21.5715 9.39293 21.9904 9.63333 21.9904 10.0195V17.9977C21.9904 19.1023 21.0954 19.9977 19.9914 19.9977H3.99888C2.89483 19.9977 1.99982 19.1023 1.99982 17.9977V10.0195C1.99982 9.63333 2.41877 9.39293 2.75194 9.58793L10.9857 14.4069C11.6092 14.7719 12.381 14.7719 13.0045 14.4069Z" fill="#2D50E6"/>
</svg>
