<svg width="24" height="24" viewBox="0 0 24 24" fill="none" xmlns="http://www.w3.org/2000/svg">
<path d="M2.2362 6.57024L10.96 1.28695C11.5964 0.901545 12.394 0.901543 13.0304 1.28694L21.7543 6.57024C22.0755 6.76478 22.0756 7.23099 21.7544 7.42563L14.0434 12.0987L16.1421 10C17.286 8.85619 17.286 7.00169 16.1421 5.85787C14.9983 4.71406 13.1438 4.71406 12 5.85787C10.8562 4.71406 9.00168 4.71406 7.85786 5.85787C6.71405 7.00169 6.71405 8.85619 7.85786 10L9.97132 12.1135L2.23607 7.42563C1.9149 7.23099 1.91498 6.76478 2.2362 6.57024Z" fill="#2D50E6"/>
<path d="M13.0047 14.407L21.2384 9.58802C21.5716 9.39303 21.9905 9.63342 21.9905 10.0196V17.9978C21.9905 19.1024 21.0955 19.9978 19.9915 19.9978H3.999C2.89495 19.9978 1.99994 19.1024 1.99994 17.9978V10.0196C1.99994 9.63343 2.41889 9.39303 2.75206 9.58802L10.9858 14.407C11.6093 14.772 12.3811 14.772 13.0047 14.407Z" fill="#2D50E6"/>
</svg>
