<svg width="24" height="24" viewBox="0 0 24 24" fill="none" xmlns="http://www.w3.org/2000/svg">
<path d="M12 13C11.4477 13 11 13.4477 11 14V14.6908C11 15.0477 10.7945 15.3648 10.5488 15.6237C10.2087 15.9823 10 16.4668 10 17C10 18.1046 10.8954 19 12 19C13.1046 19 14 18.1046 14 17C14 16.4668 13.7913 15.9823 13.4512 15.6237C13.2055 15.3648 13 15.0477 13 14.6908V14C13 13.4477 12.5523 13 12 13Z" fill="#2D50E6"/>
<path fill-rule="evenodd" clip-rule="evenodd" d="M12 1C9.23858 1 7 3.23858 7 6V13.6822C6.36815 14.6325 6 15.7733 6 17C6 20.3137 8.68629 23 12 23C15.3137 23 18 20.3137 18 17C18 15.9071 17.7078 14.8825 17.1973 14H18C18.5523 14 19 13.5523 19 13C19 12.4477 18.5523 12 18 12H17V10H18C18.5523 10 19 9.55229 19 9C19 8.44771 18.5523 8 18 8H17V6H18C18.5523 6 19 5.55228 19 5C19 4.44772 18.5523 4 18 4H16.584C15.8124 2.2341 14.0503 1 12 1ZM15 6C15 4.34315 13.6569 3 12 3C10.3431 3 9 4.34315 9 6V13.5978C9 14.0852 8.80401 14.5455 8.55567 14.9649C8.20264 15.5611 8 16.2569 8 17C8 19.2091 9.79086 21 12 21C14.2091 21 16 19.2091 16 17C16 16.2569 15.7974 15.5611 15.4443 14.9649C15.196 14.5455 15 14.0852 15 13.5978V6Z" fill="#2D50E6"/>
</svg>
