<svg width="24" height="24" viewBox="0 0 24 24" fill="none" xmlns="http://www.w3.org/2000/svg">
<path d="M2 6C2 5.44772 2.44772 5 3 5H21C21.5523 5 22 5.44772 22 6V7C22 7.55228 21.5523 8 21 8H3C2.44772 8 2 7.55228 2 7V6Z" fill="#2D50E6"/>
<path d="M2 11.5C2 10.9477 2.44772 10.5 3 10.5H21C21.5523 10.5 22 10.9477 22 11.5V12.5C22 13.0523 21.5523 13.5 21 13.5H3C2.44772 13.5 2 13.0523 2 12.5V11.5Z" fill="#2D50E6"/>
<path d="M3 16C2.44772 16 2 16.4477 2 17V18C2 18.5523 2.44772 19 3 19H21C21.5523 19 22 18.5523 22 18V17C22 16.4477 21.5523 16 21 16H3Z" fill="#2D50E6"/>
</svg>
