<svg width="24" height="24" viewBox="0 0 24 24" fill="none" xmlns="http://www.w3.org/2000/svg">
<path d="M12 1C9.79464 1 7.92276 2.42779 7.25831 4.40942C7.15781 4.70913 7.3956 5 7.71171 5H9C9.55229 5 10 5.44772 10 6C10 6.55228 9.55228 7 9 7H7.5C7.22386 7 7 7.22386 7 7.5V8.5C7 8.77614 7.22386 9 7.5 9H9C9.55229 9 10 9.44771 10 10C10 10.5523 9.55228 11 9 11H7.71171C7.3956 11 7.15781 11.2909 7.25831 11.5906C7.92276 13.5722 9.79464 15 12 15C14.2054 15 16.0772 13.5722 16.7417 11.5906C16.8422 11.2909 16.6044 11 16.2883 11H15C14.4477 11 14 10.5523 14 10C14 9.44771 14.4477 9 15 9H16.5C16.7761 9 17 8.77614 17 8.5V7.5C17 7.22386 16.7761 7 16.5 7H15C14.4477 7 14 6.55228 14 6C14 5.44772 14.4477 5 15 5H16.2883C16.6044 5 16.8422 4.70913 16.7417 4.40942C16.0772 2.42779 14.2054 1 12 1Z" fill="#2D50E6"/>
<path d="M5 10C5 9.44771 4.55228 9 4 9C3.44772 9 3 9.44771 3 10C3 14.4791 6.27202 18.194 10.5562 18.8848C10.8078 18.9254 11 19.138 11 19.3928V20.5C11 20.7761 10.7761 21 10.5 21H8C7.44772 21 7 21.4477 7 22C7 22.5523 7.44772 23 8 23H16C16.5523 23 17 22.5523 17 22C17 21.4477 16.5523 21 16 21H13.5C13.2239 21 13 20.7761 13 20.5V19.3928C13 19.138 13.1922 18.9254 13.4438 18.8848C17.728 18.194 21 14.4791 21 10C21 9.44771 20.5523 9 20 9C19.4477 9 19 9.44771 19 10C19 13.866 15.866 17 12 17C8.13401 17 5 13.866 5 10Z" fill="#2D50E6"/>
</svg>
