<svg width="24" height="24" viewBox="0 0 24 24" fill="none" xmlns="http://www.w3.org/2000/svg">
<g opacity="0.5">
<path d="M19 2H5V7H19V2Z" fill="#2D50E6"/>
<path d="M19 12H5V17H19V12Z" fill="#2D50E6"/>
</g>
<path fill-rule="evenodd" clip-rule="evenodd" d="M4.00002 23H10V18.5C10 18.2239 10.2239 18 10.5 18H13.5C13.7762 18 14 18.2239 14 18.5V23H20C20 16.3333 20 9.66667 20 3C20 1.89543 19.1046 1 18 1L6.00011 1C4.8955 1 4.00005 1.8955 4.00009 3.00011C4.00033 9.66674 4.00002 16.3334 4.00002 23ZM6.50002 3C6.22388 3 6.00002 3.22386 6.00002 3.5V5.5C6.00002 5.77614 6.22388 6 6.50002 6H7.50002C7.77617 6 8.00002 5.77614 8.00002 5.5V3.5C8.00002 3.22386 7.77617 3 7.50002 3H6.50002ZM9.50002 3C9.22388 3 9.00002 3.22386 9.00002 3.5V5.5C9.00002 5.77614 9.22388 6 9.50002 6H10.5C10.7762 6 11 5.77614 11 5.5V3.5C11 3.22386 10.7762 3 10.5 3H9.50002ZM8.00002 8.5C8.00002 8.22386 7.77617 8 7.50002 8H6.50002C6.22388 8 6.00002 8.22386 6.00002 8.5V10.5C6.00002 10.7761 6.22388 11 6.50002 11H7.50002C7.77617 11 8.00002 10.7761 8.00002 10.5V8.5ZM9.50002 11C9.22388 11 9.00002 10.7761 9.00002 10.5V8.5C9.00002 8.22386 9.22388 8 9.50002 8H10.5C10.7762 8 11 8.22386 11 8.5V10.5C11 10.7761 10.7762 11 10.5 11H9.50002ZM8.00002 13.5C8.00002 13.2239 7.77617 13 7.50002 13H6.50002C6.22388 13 6.00002 13.2239 6.00002 13.5V15.5C6.00002 15.7761 6.22388 16 6.50002 16H7.50002C7.77617 16 8.00002 15.7761 8.00002 15.5V13.5ZM9.50002 16C9.22388 16 9.00002 15.7761 9.00002 15.5V13.5C9.00002 13.2239 9.22388 13 9.50002 13H10.5C10.7762 13 11 13.2239 11 13.5V15.5C11 15.7761 10.7762 16 10.5 16H9.50002ZM13.5 3C13.2239 3 13 3.22386 13 3.5V5.5C13 5.77614 13.2239 6 13.5 6H14.5C14.7762 6 15 5.77614 15 5.5V3.5C15 3.22386 14.7762 3 14.5 3H13.5ZM16.5 3C16.2239 3 16 3.22386 16 3.5V5.5C16 5.77614 16.2239 6 16.5 6H17.5C17.7762 6 18 5.77614 18 5.5V3.5C18 3.22386 17.7762 3 17.5 3H16.5ZM15 8.5C15 8.22386 14.7762 8 14.5 8H13.5C13.2239 8 13 8.22386 13 8.5V10.5C13 10.7761 13.2239 11 13.5 11H14.5C14.7762 11 15 10.7761 15 10.5V8.5ZM16.5 11C16.2239 11 16 10.7761 16 10.5V8.5C16 8.22386 16.2239 8 16.5 8H17.5C17.7762 8 18 8.22386 18 8.5V10.5C18 10.7761 17.7762 11 17.5 11H16.5ZM15 13.5C15 13.2239 14.7762 13 14.5 13H13.5C13.2239 13 13 13.2239 13 13.5V15.5C13 15.7761 13.2239 16 13.5 16H14.5C14.7762 16 15 15.7761 15 15.5V13.5ZM16.5 16C16.2239 16 16 15.7761 16 15.5V13.5C16 13.2239 16.2239 13 16.5 13H17.5C17.7762 13 18 13.2239 18 13.5V15.5C18 15.7761 17.7762 16 17.5 16H16.5Z" fill="#2D50E6"/>
</svg>
