<svg width="24" height="24" viewBox="0 0 24 24" fill="none" xmlns="http://www.w3.org/2000/svg">
<path fill-rule="evenodd" clip-rule="evenodd" d="M7 1C5.34326 1 4 2.34326 4 4V20C4 21.6567 5.34326 23 7 23H17C18.6567 23 20 21.6567 20 20V4C20 2.34326 18.6567 1 17 1H7ZM7 3C6.44775 3 6 3.44775 6 4V20C6 20.5522 6.44775 21 7 21H17C17.5522 21 18 20.5522 18 20V4C18 3.44775 17.5522 3 17 3H16C15.4477 3 15 3.44772 15 4C15 4.55228 14.5523 5 14 5H10C9.44772 5 9 4.55228 9 4C9 3.44772 8.55228 3 8 3H7ZM12 4C12.5523 4 13 3.55228 13 3C13 2.44772 12.5523 2 12 2C11.4477 2 11 2.44772 11 3C11 3.55228 11.4477 4 12 4Z" fill="#2D50E6"/>
</svg>
