<svg width="24" height="24" viewBox="0 0 24 24" fill="none" xmlns="http://www.w3.org/2000/svg">
<path d="M15 6.99999H19.5029C19.9483 6.99999 20.1714 6.46142 19.8564 6.14644L14.8536 1.14354C14.5386 0.828561 14 1.05164 14 1.49709V5.99999C14 6.55227 14.4477 6.99999 15 6.99999Z" fill="#2D50E6"/>
<path fill-rule="evenodd" clip-rule="evenodd" d="M4 2.99999C4 1.89542 4.89543 0.99999 6 0.99999H11C11.5523 0.99999 12 1.4477 12 1.99999V5.99999C12 7.65684 13.3431 8.99999 15 8.99999H19C19.5523 8.99999 20 9.4477 20 9.99999V21C20 22.1046 19.1046 23 18 23H6C4.89543 23 4 22.1046 4 21V2.99999ZM11.5 11.1541L6.18109 15.2453C5.84083 15.4804 6.01197 16.0014 6.42945 16.0014H7C7.27614 16.0014 7.5 16.2252 7.5 16.5014V21H10.5V17.6676C10.5 17.2075 10.873 16.8345 11.3331 16.8345H12.6669C13.127 16.8345 13.5 17.2075 13.5 17.6676V21H16.5V16.5013C16.5 16.2251 16.7239 16.0014 17 16.0014H17.5705C17.9882 16.0014 18.1592 15.4801 17.8187 15.2452L12.493 11.1538C12.1956 10.9486 11.7972 10.9487 11.5 11.1541Z" fill="#2D50E6"/>
</svg>
