<svg width="24" height="24" viewBox="0 0 24 24" fill="none" xmlns="http://www.w3.org/2000/svg">
<path fill-rule="evenodd" clip-rule="evenodd" d="M4.40702 12.7261C4.22105 12.0631 3.74885 11.5186 3.18047 11.1298C1.86394 10.2292 1 8.7155 1 7C1 4.23858 3.23858 2 6 2C7.24144 2 8.3772 2.45243 9.25141 3.20141C9.86179 3.72436 10.6455 4.06325 11.4478 4.01619C11.8157 3.99461 12.1844 3.9946 12.5523 4.01617C13.3546 4.0632 14.1382 3.72432 14.7486 3.2014C15.6228 2.45243 16.7586 2 18 2C20.7614 2 23 4.23858 23 7C23 8.7155 22.1361 10.2292 20.8195 11.1298C20.2511 11.5186 19.7789 12.0631 19.593 12.7261C19.246 13.9633 18.6984 15.2343 18.0338 16.4233C18.3972 16.388 18.7747 16.4082 19.1653 16.4968C20.042 16.6956 20.9344 17.2273 21.8536 18.1464C22.0488 18.3417 22.0488 18.6583 21.8536 18.8536C21.6583 19.0488 21.3417 19.0488 21.1464 18.8536C20.3156 18.0227 19.583 17.6169 18.9441 17.472C18.3663 17.341 17.8238 17.4138 17.2963 17.6368C17.1872 17.8024 17.0761 17.9653 16.9634 18.1252L17 18.125C18.4278 18.125 19.813 18.8409 20.8904 20.1877C21.0629 20.4033 21.028 20.7179 20.8123 20.8904C20.5967 21.0629 20.2821 21.028 20.1096 20.8123C19.187 19.6591 18.0722 19.125 17 19.125C16.7013 19.125 16.3993 19.1665 16.099 19.2512C16.0466 19.3137 15.9941 19.3755 15.9413 19.4364C16.2938 19.4905 16.6344 19.5912 16.9504 19.7294C18.0657 20.2173 19 21.2375 19 22.5C19 22.7761 18.7761 23 18.5 23C18.2239 23 18 22.7761 18 22.5C18 21.7625 17.4343 21.0327 16.5496 20.6456C16.0689 20.4353 15.5322 20.3454 15.0082 20.4122C13.9615 21.3928 12.9026 22 12.0001 22C11.0976 22 10.0386 21.3928 8.99191 20.4122C8.46791 20.3454 7.93109 20.4353 7.45041 20.6456C6.56567 21.0327 6 21.7625 6 22.5C6 22.7761 5.77614 23 5.5 23C5.22386 23 5 22.7761 5 22.5C5 21.2375 5.93433 20.2173 7.04959 19.7294C7.36558 19.5912 7.70627 19.4905 8.05875 19.4364C8.00601 19.3755 7.95344 19.3137 7.90106 19.2512C7.60079 19.1665 7.29874 19.125 7 19.125C5.92782 19.125 4.81303 19.6591 3.89044 20.8123C3.71793 21.028 3.40328 21.0629 3.18765 20.8904C2.97202 20.7179 2.93706 20.4033 3.10956 20.1877C4.18697 18.8409 5.57218 18.125 7 18.125L7.03664 18.1252C6.92391 17.9653 6.81285 17.8024 6.70371 17.6368C6.17626 17.4138 5.63375 17.3409 5.0559 17.472C4.41696 17.6169 3.68443 18.0227 2.85355 18.8536C2.65829 19.0488 2.34171 19.0488 2.14645 18.8536C1.95118 18.6583 1.95118 18.3417 2.14645 18.1464C3.06557 17.2273 3.95804 16.6956 4.83472 16.4968C5.22532 16.4082 5.6028 16.388 5.96626 16.4233C5.30161 15.2343 4.75402 13.9633 4.40702 12.7261ZM6.569 5.62965C7.25736 5.24594 7.52831 4.29952 6.76624 4.09875C6.52167 4.03432 6.26486 4 6 4C4.34326 4 3 5.34314 3 7C3 7.26502 3.03435 7.52202 3.09886 7.76678C3.29968 8.52876 4.24582 8.25787 4.6294 7.56953C5.08252 6.7564 5.75595 6.08286 6.569 5.62965ZM10 12C10 13.1046 9.32843 14 8.5 14C7.67157 14 7 13.1046 7 12C7 10.8954 7.67157 10 8.5 10C9.32843 10 10 10.8954 10 12ZM15.5 14C16.3284 14 17 13.1046 17 12C17 10.8954 16.3284 10 15.5 10C14.6716 10 14 10.8954 14 12C14 13.1046 14.6716 14 15.5 14ZM17.2338 4.09875C16.4717 4.29952 16.7426 5.24594 17.431 5.62965C18.2441 6.08286 18.9175 6.7564 19.3706 7.56953C19.7542 8.25787 20.7003 8.52876 20.9011 7.76678C20.9656 7.52202 21 7.26502 21 7C21 5.34314 19.6567 4 18 4C17.7351 4 17.4783 4.03432 17.2338 4.09875ZM14 19.5013C14 20.0536 13.1046 21.0013 12 21.0013C10.8954 21.0013 10 20.0536 10 19.5013C10 18.9939 10.756 18.9968 11.7355 19.0006C11.8219 19.001 11.9105 19.0013 12 19.0013C12.0895 19.0013 12.1775 19.001 12.2639 19.0006C13.2434 18.9968 14 18.9939 14 19.5013Z" fill="#2D50E6"/>
</svg>
