<svg width="24" height="24" viewBox="0 0 24 24" fill="none" xmlns="http://www.w3.org/2000/svg">
<path fill-rule="evenodd" clip-rule="evenodd" d="M23 12C23 18.0751 18.0751 23 12 23C5.92487 23 1 18.0751 1 12C1 5.92487 5.92487 1 12 1C18.0751 1 23 5.92487 23 12ZM10 10C10 11.1046 9.32843 12 8.5 12C7.67157 12 7 11.1046 7 10C7 8.89543 7.67157 8 8.5 8C9.32843 8 10 8.89543 10 10ZM15.5 12C16.3284 12 17 11.1046 17 10C17 8.89543 16.3284 8 15.5 8C14.6716 8 14 8.89543 14 10C14 11.1046 14.6716 12 15.5 12ZM7 15C6.44772 15 6 15.4477 6 16C6 16.5523 6.44771 17 7 17H17C17.5523 17 18 16.5523 18 16C18 15.4477 17.5523 15 17 15H7Z" fill="#2D50E6"/>
</svg>
