<svg width="24" height="24" viewBox="0 0 24 24" fill="none" xmlns="http://www.w3.org/2000/svg">
<path d="M7.56691 4.00149C8.03508 4.02239 8.46658 4.26088 8.73333 4.64619L15.3177 14.1569C14.312 14.4301 13.4463 15.0432 12.8516 15.8652L7.38956 7.97565L3.65237 12.4603C3.12202 13.0967 2.17618 13.1827 1.53976 12.6523C0.903346 12.122 0.81736 11.1761 1.34771 10.5397L6.34771 4.53973C6.64772 4.17971 7.09874 3.9806 7.56691 4.00149Z" fill="#2D50E6"/>
<path d="M20.3689 16.2005C19.8465 15.3234 19.0344 14.6391 18.0646 14.2795L20.3477 11.5397C20.8781 10.9033 21.8239 10.8173 22.4603 11.3477C23.0967 11.878 23.1827 12.8239 22.6524 13.4603L20.3689 16.2005Z" fill="#2D50E6"/>
<path d="M16.5 21C17.8807 21 19 19.8807 19 18.5C19 17.1193 17.8807 16 16.5 16C15.1193 16 14 17.1193 14 18.5C14 19.8807 15.1193 21 16.5 21Z" fill="#2D50E6"/>
</svg>
