<svg width="24" height="24" viewBox="0 0 24 24" fill="none" xmlns="http://www.w3.org/2000/svg">
<path d="M8 10.5C8 10.2239 8.22386 10 8.5 10H15.5C15.7761 10 16 10.2239 16 10.5C16 10.7761 15.7761 11 15.5 11H8.5C8.22386 11 8 10.7761 8 10.5Z" fill="#2D50E6"/>
<path fill-rule="evenodd" clip-rule="evenodd" d="M6 3C6 1.89543 6.89543 1 8 1H16C17.1046 1 18 1.89543 18 3V4C19.1046 4 20 4.89543 20 6V21C20 22.1046 19.1046 23 18 23H6C4.89543 23 4 22.1046 4 21V6C4 4.89543 4.89543 4 6 4V3ZM9 2.5C9 2.77614 8.77614 3 8.5 3C8.22386 3 8 2.77614 8 2.5C8 2.22386 8.22386 2 8.5 2C8.77614 2 9 2.22386 9 2.5ZM15.5 3C15.7761 3 16 2.77614 16 2.5C16 2.22386 15.7761 2 15.5 2C15.2239 2 15 2.22386 15 2.5C15 2.77614 15.2239 3 15.5 3ZM10 2.5C10 2.22386 10.2239 2 10.5 2H13.5C13.7761 2 14 2.22386 14 2.5C14 2.77614 13.7761 3 13.5 3H10.5C10.2239 3 10 2.77614 10 2.5ZM7 8C6.44772 8 6 8.44771 6 9V18C6 18.5523 6.44771 19 7 19H17C17.5523 19 18 18.5523 18 18V9C18 8.44772 17.5523 8 17 8H7Z" fill="#2D50E6"/>
</svg>
