<svg width="24" height="24" viewBox="0 0 24 24" fill="none" xmlns="http://www.w3.org/2000/svg">
<path d="M2 4C2 3.44772 2.44772 3 3 3H21C21.5523 3 22 3.44772 22 4V5C22 5.55228 21.5523 6 21 6H3C2.44772 6 2 5.55228 2 5V4Z" fill="#2D50E6"/>
<path d="M2 9.5C2 8.94771 2.44772 8.5 3 8.5H17C17.5523 8.5 18 8.94772 18 9.5V10.5C18 11.0523 17.5523 11.5 17 11.5H3C2.44772 11.5 2 11.0523 2 10.5V9.5Z" fill="#2D50E6"/>
<path d="M2 15C2 14.4477 2.44772 14 3 14H21C21.5523 14 22 14.4477 22 15V16C22 16.5523 21.5523 17 21 17H3C2.44772 17 2 16.5523 2 16V15Z" fill="#2D50E6"/>
<path d="M3 19C2.44772 19 2 19.4477 2 20V21C2 21.5523 2.44772 22 3 22H11C11.5523 22 12 21.5523 12 21V20C12 19.4477 11.5523 19 11 19H3Z" fill="#2D50E6"/>
</svg>
