<svg width="24" height="24" viewBox="0 0 24 24" fill="none" xmlns="http://www.w3.org/2000/svg">
<path d="M18 3C18 4.10457 17.1046 6 16 6C14.8954 6 14 4.10457 14 3C14 1.89543 14.8954 1 16 1C17.1046 1 18 1.89543 18 3Z" fill="#2D50E6"/>
<path d="M17.3521 12.5867C17.1363 12.4714 17 12.2447 17 12C17 9.23858 14.7614 7 12 7C9.23858 7 7 9.23858 7 12C7 12.2447 6.86372 12.4714 6.64785 12.5867C5.07219 13.4282 4 15.0889 4 17C4 19.7614 6.23858 22 9 22C9.59024 22 10.1566 21.8977 10.6823 21.7099C11.5204 21.4106 12.4796 21.4106 13.3177 21.7099C13.8434 21.8977 14.4098 22 15 22C17.7614 22 20 19.7614 20 17C20 15.0889 18.9278 13.4282 17.3521 12.5867Z" fill="#2D50E6"/>
<path d="M8 6C9.10457 6 10 4.10457 10 3C10 1.89543 9.10457 1 8 1C6.89543 1 6 1.89543 6 3C6 4.10457 6.89543 6 8 6Z" fill="#2D50E6"/>
<path d="M5 9C5 10.1046 4.10457 12 3 12C1.89543 12 1 10.1046 1 9C1 7.89543 1.89543 7 3 7C4.10457 7 5 7.89543 5 9Z" fill="#2D50E6"/>
<path d="M21 12C22.1046 12 23 10.1046 23 9C23 7.89543 22.1046 7 21 7C19.8954 7 19 7.89543 19 9C19 10.1046 19.8954 12 21 12Z" fill="#2D50E6"/>
</svg>
