<svg width="24" height="24" viewBox="0 0 24 24" fill="none" xmlns="http://www.w3.org/2000/svg">
<path d="M12 16C14.2091 16 16 14.2091 16 12C16 9.79086 14.2091 8 12 8C9.79086 8 8 9.79086 8 12C8 14.2091 9.79086 16 12 16Z" fill="#2D50E6"/>
<path fill-rule="evenodd" clip-rule="evenodd" d="M14.5858 3.58579C14.2107 3.21071 13.702 3 13.1716 3H10.8284C10.298 3 9.78929 3.21071 9.41421 3.58579L8.58579 4.41421C8.21071 4.78929 7.70201 5 7.17157 5H3C1.89543 5 1 5.89543 1 7V17C1 18.1046 1.89543 19 3 19H21C22.1046 19 23 18.1046 23 17V7C23 5.89543 22.1046 5 21 5H16.8284C16.298 5 15.7893 4.78929 15.4142 4.41421L14.5858 3.58579ZM18 12C18 15.3137 15.3137 18 12 18C8.68629 18 6 15.3137 6 12C6 8.68629 8.68629 6 12 6C15.3137 6 18 8.68629 18 12ZM20 7C20 7.55228 19.5523 8 19 8C18.4477 8 18 7.55228 18 7C18 6.44772 18.4477 6 19 6C19.5523 6 20 6.44772 20 7Z" fill="#2D50E6"/>
<path d="M5 3C5.55228 3 6 3.44772 6 4H4C4 3.44772 4.44772 3 5 3Z" fill="#2D50E6"/>
</svg>
