<svg width="24" height="24" viewBox="0 0 24 24" fill="none" xmlns="http://www.w3.org/2000/svg">
<path d="M19.3147 5.4443C20.2277 6.81071 20.787 8.37657 20.95 10.0016C21.0052 10.5512 20.5523 11 20 11H12C11.4477 11 11 11.4477 11 12V20C11 20.5523 10.5512 21.0052 10.0016 20.95C8.37657 20.787 6.81071 20.2277 5.4443 19.3147C3.79981 18.2159 2.51809 16.6541 1.76121 14.8268C1.00433 12.9996 0.806299 10.9889 1.19215 9.0491C1.578 7.10929 2.53041 5.32746 3.92894 3.92894C5.32746 2.53041 7.10929 1.578 9.0491 1.19215C10.9889 0.806299 12.9996 1.00433 14.8268 1.76121C16.6541 2.51809 18.2159 3.79981 19.3147 5.4443Z" fill="#2D50E6"/>
<path d="M16.8268 22.2388C15.9222 22.6135 14.9691 22.8526 13.9983 22.95C13.4488 23.0052 13 22.5523 13 22L13 14C13 13.4477 13.4477 13 14 13H22C22.5523 13 23.0052 13.4488 22.95 13.9983C22.8526 14.9691 22.6135 15.9222 22.2388 16.8268C21.7363 18.0401 20.9997 19.1425 20.0711 20.0711C19.1425 20.9997 18.0401 21.7363 16.8268 22.2388Z" fill="#2D50E6"/>
</svg>
