<svg width="24" height="24" viewBox="0 0 24 24" fill="none" xmlns="http://www.w3.org/2000/svg">
<path fill-rule="evenodd" clip-rule="evenodd" d="M5 1C2.79086 1 1 2.79086 1 5V19C1 21.2091 2.79086 23 5 23H6C6.55228 23 7 22.5523 7 22V17.1C9.28224 17.5633 11 19.581 11 22C11 22.5523 11.4477 23 12 23H19C21.2091 23 23 21.2091 23 19V5C23 2.79086 21.2091 1 19 1H5ZM12.9291 21H19C20.1046 21 21 20.1046 21 19V17H15C14.4477 17 14 16.5523 14 16C14 15.4477 14.4477 15 15 15H21V5C21 3.89543 20.1046 3 19 3H15V10H17C17.5523 10 18 10.4477 18 11C18 11.5523 17.5523 12 17 12H11C10.4477 12 10 11.5523 10 11C10 10.4477 10.4477 10 11 10H13V3H5C3.89543 3 3 3.89543 3 5V10H6C6.55228 10 7 10.4477 7 11C7 11.5523 6.55228 12 6 12H3V19C3 20.1046 3.89543 21 5 21V16C5 15.4477 5.44772 15 6 15C9.52647 15 12.4439 17.6077 12.9291 21Z" fill="#2D50E6"/>
</svg>
