<svg width="24" height="24" viewBox="0 0 24 24" fill="none" xmlns="http://www.w3.org/2000/svg">
<path d="M12.5242 1.32384C12.3098 0.892052 11.6902 0.892052 11.4758 1.32384L10.0746 4.14582C9.98942 4.31728 9.82484 4.43613 9.63445 4.46362L6.50111 4.91615C6.02167 4.98539 5.83023 5.57098 6.17716 5.90708L8.44447 8.10368C8.58223 8.23714 8.6451 8.42944 8.61258 8.6179L8.07734 11.7195C7.99544 12.1941 8.49663 12.556 8.92545 12.332L11.728 10.8676C11.8983 10.7786 12.1017 10.7786 12.272 10.8676L15.0746 12.332C15.5034 12.556 16.0046 12.1941 15.9227 11.7195L15.3874 8.6179C15.3549 8.42944 15.4178 8.23714 15.5555 8.10368L17.8228 5.90708C18.1698 5.57097 17.9783 4.98539 17.4989 4.91615L14.3655 4.46362C14.1752 4.43613 14.0106 4.31728 13.9254 4.14582L12.5242 1.32384Z" fill="#2D50E6"/>
<path fill-rule="evenodd" clip-rule="evenodd" d="M15 15C15 14.4477 14.5523 14 14 14H10C9.44772 14 9 14.4477 9 15V17H4C3.44772 17 3 17.4477 3 18V23H21V20C21 19.4477 20.5523 19 20 19H15V15ZM5 20C5 19.4477 5.44772 19 6 19C6.55228 19 7 19.4477 7 20C7 20.5523 6.55228 21 6 21C5.44772 21 5 20.5523 5 20ZM12 18C11.4477 18 11 18.4477 11 19C11 19.5523 11.4477 20 12 20C12.5523 20 13 19.5523 13 19C13 18.4477 12.5523 18 12 18ZM17 21C17 20.4477 17.4477 20 18 20C18.5523 20 19 20.4477 19 21C19 21.5523 18.5523 22 18 22C17.4477 22 17 21.5523 17 21Z" fill="#2D50E6"/>
</svg>
