<svg width="24" height="24" viewBox="0 0 24 24" fill="none" xmlns="http://www.w3.org/2000/svg">
<path fill-rule="evenodd" clip-rule="evenodd" d="M13 22L13.0005 21.9961C13.5525 21.9958 14 21.5482 14 20.9961V16.9961C14 15.3392 15.3431 13.9961 17 13.9961H21C21.5523 13.9961 22 13.5484 22 12.9961V3.99609C22 2.89152 21.1046 1.99609 20 1.99609H8C7.95772 1.99609 7.91575 1.99741 7.87413 1.99999H5L4.99235 2H4C2.89543 2 2 2.89543 2 4V20C2 21.1046 2.89543 22 4 22L13 22ZM5 4C4.44772 4 4 4.44772 4 5C4 5.55228 4.44772 6 5 6H19C19.5523 6 20 5.55228 20 5C20 4.44772 19.5523 4 19 4H5ZM4 9C4 8.44772 4.44772 8 5 8H19C19.5523 8 20 8.44772 20 9C20 9.55228 19.5523 10 19 10H5C4.44772 10 4 9.55228 4 9ZM5 12C4.44772 12 4 12.4477 4 13C4 13.5523 4.44772 14 5 14H11C11.5523 14 12 13.5523 12 13C12 12.4477 11.5523 12 11 12H5Z" fill="#2D50E6"/>
<path d="M21.5029 15.9961H17C16.4477 15.9961 16 16.4438 16 16.9961V21.499C16 21.9444 16.5386 22.1675 16.8536 21.8525L21.8564 16.8496C22.1714 16.5347 21.9483 15.9961 21.5029 15.9961Z" fill="#2D50E6"/>
</svg>
