<svg width="24" height="24" viewBox="0 0 24 24" fill="none" xmlns="http://www.w3.org/2000/svg">
<path fill-rule="evenodd" clip-rule="evenodd" d="M12 23C18.0751 23 23 18.0751 23 12C23 5.92487 18.0751 1 12 1C5.92487 1 1 5.92487 1 12C1 18.0751 5.92487 23 12 23ZM8.5 12C9.32843 12 10 11.1046 10 10C10 8.89543 9.32843 8 8.5 8C7.67157 8 7 8.89543 7 10C7 11.1046 7.67157 12 8.5 12ZM17 10C17 11.1046 16.3284 12 15.5 12C14.6716 12 14 11.1046 14 10C14 8.89543 14.6716 8 15.5 8C16.3284 8 17 8.89543 17 10ZM6.3001 15.1847C5.90564 15.5713 5.90325 16 6.28576 16.5989C7.5 18.5 9.76171 20 12 20C14.2383 20 16.5 18.5 17.7142 16.5989C18.0965 16.0005 18.0944 15.5713 17.6999 15.1847C16.6881 14.1933 13.5206 14 12 14C10.4794 14 7.31186 14.1933 6.3001 15.1847Z" fill="#2D50E6"/>
</svg>
