<svg width="24" height="24" viewBox="0 0 24 24" fill="none" xmlns="http://www.w3.org/2000/svg">
<path d="M5.5 6.5C5.5 5.94772 5.94772 5.5 6.5 5.5C7.05228 5.5 7.5 5.94772 7.5 6.5C7.5 7.05228 7.05228 7.5 6.5 7.5C5.94772 7.5 5.5 7.05228 5.5 6.5Z" fill="#2D50E6"/>
<path fill-rule="evenodd" clip-rule="evenodd" d="M4 2C2.89543 2 2 2.89543 2 4V9C2 10.1046 2.89543 11 4 11H9C10.1046 11 11 10.1046 11 9V4C11 2.89543 10.1046 2 9 2H4ZM5.11111 4C4.49746 4 4 4.49746 4 5.11111V7.88889C4 8.50254 4.49746 9 5.11111 9H7.88889C8.50254 9 9 8.50254 9 7.88889V5.11111C9 4.49746 8.50254 4 7.88889 4H5.11111Z" fill="#2D50E6"/>
<path d="M5.5 17.5C5.5 16.9477 5.94772 16.5 6.5 16.5C7.05228 16.5 7.5 16.9477 7.5 17.5C7.5 18.0523 7.05228 18.5 6.5 18.5C5.94772 18.5 5.5 18.0523 5.5 17.5Z" fill="#2D50E6"/>
<path fill-rule="evenodd" clip-rule="evenodd" d="M4 13C2.89543 13 2 13.8954 2 15V20C2 21.1046 2.89543 22 4 22H9C10.1046 22 11 21.1046 11 20V15C11 13.8954 10.1046 13 9 13H4ZM5.11111 15C4.49746 15 4 15.4975 4 16.1111V18.8889C4 19.5025 4.49746 20 5.11111 20H7.88889C8.50254 20 9 19.5025 9 18.8889V16.1111C9 15.4975 8.50254 15 7.88889 15H5.11111Z" fill="#2D50E6"/>
<path d="M17.5 5.5C16.9477 5.5 16.5 5.94772 16.5 6.5C16.5 7.05228 16.9477 7.5 17.5 7.5C18.0523 7.5 18.5 7.05228 18.5 6.5C18.5 5.94772 18.0523 5.5 17.5 5.5Z" fill="#2D50E6"/>
<path fill-rule="evenodd" clip-rule="evenodd" d="M13 4C13 2.89543 13.8954 2 15 2H20C21.1046 2 22 2.89543 22 4V9C22 10.1046 21.1046 11 20 11H15C13.8954 11 13 10.1046 13 9V4ZM15 5.11111C15 4.49746 15.4975 4 16.1111 4H18.8889C19.5025 4 20 4.49746 20 5.11111V7.88889C20 8.50254 19.5025 9 18.8889 9H16.1111C15.4975 9 15 8.50254 15 7.88889V5.11111Z" fill="#2D50E6"/>
<path d="M14 15C14 14.4477 14.4477 14 15 14C15.5523 14 16 14.4477 16 15C16 15.5523 15.5523 16 15 16C14.4477 16 14 15.5523 14 15Z" fill="#2D50E6"/>
<path d="M15 19C14.4477 19 14 19.4477 14 20C14 20.5523 14.4477 21 15 21C15.5523 21 16 20.5523 16 20C16 19.4477 15.5523 19 15 19Z" fill="#2D50E6"/>
<path d="M19 15C19 14.4477 19.4477 14 20 14C20.5523 14 21 14.4477 21 15C21 15.5523 20.5523 16 20 16C19.4477 16 19 15.5523 19 15Z" fill="#2D50E6"/>
<path d="M20 19C19.4477 19 19 19.4477 19 20C19 20.5523 19.4477 21 20 21C20.5523 21 21 20.5523 21 20C21 19.4477 20.5523 19 20 19Z" fill="#2D50E6"/>
<path d="M16.5 17.5C16.5 16.9477 16.9477 16.5 17.5 16.5C18.0523 16.5 18.5 16.9477 18.5 17.5C18.5 18.0523 18.0523 18.5 17.5 18.5C16.9477 18.5 16.5 18.0523 16.5 17.5Z" fill="#2D50E6"/>
</svg>
