<svg width="24" height="24" viewBox="0 0 24 24" fill="none" xmlns="http://www.w3.org/2000/svg">
<path d="M21 2C21 1.44772 20.5523 1 20 1C19.4477 1 19 1.44772 19 2V4.8587C17.197 3.09134 14.7261 2 12 2C6.47715 2 2 6.47715 2 12C2 17.5228 6.47715 22 12 22C17.5228 22 22 17.5228 22 12C22 11.4477 21.5523 11 21 11C20.4477 11 20 11.4477 20 12C20 16.4183 16.4183 20 12 20C7.58172 20 4 16.4183 4 12C4 7.58172 7.58172 4 12 4C14.5255 4 16.7781 5.16951 18.2455 7H14C13.4477 7 13 7.44772 13 8C13 8.55228 13.4477 9 14 9H20C20.5523 9 21 8.55228 21 8V2Z" fill="#2D50E6"/>
</svg>
