<svg width="24" height="24" viewBox="0 0 24 24" fill="none" xmlns="http://www.w3.org/2000/svg">
<path fill-rule="evenodd" clip-rule="evenodd" d="M22.7071 1.29289C23.0976 1.68342 23.0976 2.31658 22.7071 2.70711L2.70711 22.7071C2.31658 23.0976 1.68342 23.0976 1.29289 22.7071C0.902369 22.3166 0.902369 21.6834 1.29289 21.2929L2.62154 19.9642C1.69794 19.7873 1 18.9752 1 18C1 17.4477 1.46 16.9837 1.98189 17.1644C2.78337 17.4419 3.43067 18.0496 3.76105 18.8247L5.23885 17.3469C4.43806 16.0702 3.07644 15.181 1.4993 15.0246C1.2245 14.9974 1 14.7761 1 14.5V9.5C1 9.22386 1.2245 9.00263 1.4993 8.97538C3.86207 8.74113 5.74113 6.86207 5.97538 4.4993C6.00263 4.2245 6.22386 4 6.5 4H17.5C17.7761 4 17.9974 4.2245 18.0246 4.4993C18.0265 4.518 18.0284 4.53666 18.0305 4.5553L21.2929 1.29289C21.6834 0.902369 22.3166 0.902369 22.7071 1.29289ZM14.032 8.55382C13.4365 8.20193 12.7418 8 12 8C9.79086 8 8 9.79086 8 12C8 12.7418 8.20193 13.4365 8.55382 14.032L10.0677 12.518C10.0236 12.3528 10 12.1792 10 12C10 10.8954 10.8954 10 12 10C12.1792 10 12.3528 10.0236 12.518 10.0677L14.032 8.55382Z" fill="#2D50E6"/>
<path d="M12.2503 15.9923C14.2601 15.8682 15.8682 14.2601 15.9923 12.2503L20.1405 8.10213C20.8224 8.57837 21.6286 8.88892 22.5007 8.97538C22.7755 9.00263 23 9.22386 23 9.5V14.5C23 14.7761 22.7755 14.9974 22.5007 15.0246C20.1379 15.2589 18.2589 17.1379 18.0246 19.5007C17.9974 19.7755 17.7761 20 17.5 20H8.24261L12.2503 15.9923Z" fill="#2D50E6"/>
<path d="M22.0181 6.83563C21.8707 6.7846 21.7285 6.7224 21.5926 6.65004L22.8922 5.35045C22.9621 5.55411 23 5.77263 23 6C23 6.55228 22.54 7.01632 22.0181 6.83563Z" fill="#2D50E6"/>
<path d="M3 4C3.55228 4 4.01632 4.46 3.83563 4.98189C3.53546 5.84889 2.84889 6.53546 1.98189 6.83563C1.46 7.01632 1 6.55228 1 6C1 4.89543 1.89543 4 3 4Z" fill="#2D50E6"/>
<path d="M22.0181 17.1644C22.54 16.9837 23 17.4477 23 18C23 19.1046 22.1046 20 21 20C20.4477 20 19.9837 19.54 20.1644 19.0181C20.4645 18.1511 21.1511 17.4645 22.0181 17.1644Z" fill="#2D50E6"/>
</svg>
