<svg width="24" height="24" viewBox="0 0 24 24" fill="none" xmlns="http://www.w3.org/2000/svg">
<path d="M1.29289 22.7071C0.902369 22.3166 0.902369 21.6834 1.29289 21.2929L3.00228 19.5835C3.00077 19.5559 3 19.528 3 19.5C3 17.3356 5.04582 15.4632 8.02019 14.5656L10.1287 12.4571C8.29433 11.3651 7 8.80974 7 6.5C7 3.46243 9.23858 1 12 1C14.4973 1 16.5669 3.01386 16.9401 5.64574L21.2929 1.29289C21.6834 0.902369 22.3166 0.902369 22.7071 1.29289C23.0976 1.68342 23.0976 2.31658 22.7071 2.70711L2.70711 22.7071C2.31658 23.0976 1.68342 23.0976 1.29289 22.7071Z" fill="#2D50E6"/>
<path d="M14.0931 14.1495L7.24261 21H19.5C20.3284 21 21 20.3284 21 19.5C21 16.9028 18.0542 14.7261 14.0931 14.1495Z" fill="#2D50E6"/>
</svg>
