<svg width="24" height="24" viewBox="0 0 24 24" fill="none" xmlns="http://www.w3.org/2000/svg">
<path d="M22.7071 2.70711C23.0976 2.31658 23.0976 1.68342 22.7071 1.29289C22.3166 0.902369 21.6834 0.902369 21.2929 1.29289L18.5858 4H3C1.89543 4 1 4.89543 1 6C1 6.55228 1.44772 7 2 7H15.5858L13.5858 9H2C1.44772 9 1 9.44771 1 10V18C1 18.9752 1.69794 19.7873 2.62154 19.9642L1.29289 21.2929C0.902369 21.6834 0.902369 22.3166 1.29289 22.7071C1.68342 23.0976 2.31658 23.0976 2.70711 22.7071L22.7071 2.70711Z" fill="#2D50E6"/>
<path fill-rule="evenodd" clip-rule="evenodd" d="M19.2426 9L8.24263 20H21C22.1046 20 23 19.1046 23 18V10C23 9.44772 22.5523 9 22 9H19.2426ZM18 16C17.4477 16 17 16.4477 17 17C17 17.5523 17.4477 18 18 18H20C20.5523 18 21 17.5523 21 17C21 16.4477 20.5523 16 20 16H18Z" fill="#2D50E6"/>
<path d="M22 7H21.2426L22.8922 5.35046C22.9621 5.55412 23 5.77263 23 6C23 6.55228 22.5523 7 22 7Z" fill="#2D50E6"/>
</svg>
