<svg width="24" height="24" viewBox="0 0 24 24" fill="none" xmlns="http://www.w3.org/2000/svg">
<path fill-rule="evenodd" clip-rule="evenodd" d="M3 19.5858V19C3 18.45 3.45 18 4.00001 18V17C4.00001 16.4477 4.44772 16 5.00001 16V12C4.44772 12 4.00001 11.5523 4.00001 11L4.00001 10H1.50252C1.02589 10 0.819546 9.39644 1.19642 9.10465L11.3878 1.214C11.7482 0.934934 12.2518 0.934934 12.6122 1.214L17.5493 5.03651L21.2929 1.29289C21.6834 0.902369 22.3166 0.902369 22.7071 1.29289C23.0976 1.68342 23.0976 2.31658 22.7071 2.70711L2.70711 22.7071C2.31658 23.0976 1.68342 23.0976 1.29289 22.7071C0.902369 22.3166 0.902369 21.6834 1.29289 21.2929L3 19.5858ZM10.5858 12L11 12C10.4477 12 10 11.5523 10 11V10L8.00001 10V11C8.00001 11.5523 7.55229 12 7.00001 12V15.5858L10.5858 12ZM12 8C13.1046 8 14 7.10457 14 6C14 4.89543 13.1046 4 12 4C10.8954 4 10 4.89543 10 6C10 7.10457 10.8954 8 12 8Z" fill="#2D50E6"/>
<path d="M5.24264 22L22 22V21C22 20.4477 21.5523 20 21 20V19C21 18.4477 20.5523 18 20 18V17C20 16.4477 19.5523 16 19 16V12C19.5523 12 20 11.5523 20 11V10L22.4975 10C22.9741 10 23.1805 9.39644 22.8036 9.10465L20.7376 7.50506L16.4246 11.818C16.5874 11.9327 16.7858 12 17 12V16C16.4477 16 16 16.4477 16 17V18L14 18V17C14 16.4477 13.5523 16 13 16V14.2426L5.24264 22Z" fill="#2D50E6"/>
</svg>
