<svg width="24" height="24" viewBox="0 0 24 24" fill="none" xmlns="http://www.w3.org/2000/svg">
<path d="M9 4.5C9 3.67157 9.67157 3 10.5 3H16C18.2091 3 20 4.79086 20 7V10.8787L21.4393 9.43934C22.0251 8.85355 22.9749 8.85355 23.5607 9.43934C24.1464 10.0251 24.1464 10.9749 23.5607 11.5607L19.5607 15.5607C18.9749 16.1464 18.0251 16.1464 17.4393 15.5607L13.4393 11.5607C12.8536 10.9749 12.8536 10.0251 13.4393 9.43934C14.0251 8.85355 14.9749 8.85355 15.5607 9.43934L17 10.8787V7C17 6.44772 16.5523 6 16 6H10.5C9.67157 6 9 5.32843 9 4.5Z" fill="#2D50E6"/>
<path d="M6.56066 8.43934C5.97487 7.85355 5.02513 7.85355 4.43934 8.43934L0.43934 12.4393C-0.146447 13.0251 -0.146447 13.9749 0.43934 14.5607C1.02513 15.1464 1.97487 15.1464 2.56066 14.5607L4 13.1213V17C4 19.2091 5.79086 21 8 21H13.5C14.3284 21 15 20.3284 15 19.5C15 18.6716 14.3284 18 13.5 18H8C7.44772 18 7 17.5523 7 17V13.1213L8.43934 14.5607C9.02513 15.1464 9.97487 15.1464 10.5607 14.5607C11.1464 13.9749 11.1464 13.0251 10.5607 12.4393L6.56066 8.43934Z" fill="#2D50E6"/>
</svg>
