<svg width="24" height="24" viewBox="0 0 24 24" fill="none" xmlns="http://www.w3.org/2000/svg">
<path d="M3 2C3 1.44772 3.44772 1 4 1C4.55228 1 5 1.44772 5 2V4.8587C6.80298 3.09134 9.27392 2 12 2C17.5228 2 22 6.47715 22 12C22 17.5228 17.5228 22 12 22C6.47715 22 2 17.5228 2 12C2 11.4477 2.44772 11 3 11C3.55228 11 4 11.4477 4 12C4 16.4183 7.58172 20 12 20C16.4183 20 20 16.4183 20 12C20 7.58172 16.4183 4 12 4C9.47454 4 7.22191 5.16951 5.75454 7H10C10.5523 7 11 7.44772 11 8C11 8.55228 10.5523 9 10 9H4C3.44772 9 3 8.55228 3 8V2Z" fill="#2D50E6"/>
</svg>
