<svg width="24" height="24" viewBox="0 0 24 24" fill="none" xmlns="http://www.w3.org/2000/svg">
<path d="M3 1C3 0.447715 2.55228 0 2 0C1.44772 0 1 0.447715 1 1V7C1 7.55228 1.44772 8 2 8C2.55228 8 3 7.55228 3 7V5H21V7C21 7.55228 21.4477 8 22 8C22.5523 8 23 7.55228 23 7V1C23 0.447715 22.5523 0 22 0C21.4477 0 21 0.447715 21 1V3H3V1Z" fill="#2D50E6"/>
<path d="M1 12C1 10.8954 1.89543 10 3 10V12C3 12.5523 3.44772 13 4 13C4.55228 13 5 12.5523 5 12V10H7V15C7 15.5523 7.44772 16 8 16C8.55228 16 9 15.5523 9 15V10H11V12C11 12.5523 11.4477 13 12 13C12.5523 13 13 12.5523 13 12V10H15V15C15 15.5523 15.4477 16 16 16C16.5523 16 17 15.5523 17 15V10H19V12C19 12.5523 19.4477 13 20 13C20.5523 13 21 12.5523 21 12V10C22.1046 10 23 10.8954 23 12V20C23 21.1046 22.1046 22 21 22H3C1.89543 22 1 21.1046 1 20V12Z" fill="#2D50E6"/>
</svg>
