<svg width="24" height="24" viewBox="0 0 24 24" fill="none" xmlns="http://www.w3.org/2000/svg">
<path fill-rule="evenodd" clip-rule="evenodd" d="M12 23C18.0751 23 23 18.0751 23 12C23 5.92487 18.0751 1 12 1C5.92487 1 1 5.92487 1 12C1 18.0751 5.92487 23 12 23ZM8.5 12C9.32843 12 10 11.1046 10 10C10 8.89543 9.32843 8 8.5 8C7.67157 8 7 8.89543 7 10C7 11.1046 7.67157 12 8.5 12ZM17 10C17 11.1046 16.3284 12 15.5 12C14.6716 12 14 11.1046 14 10C14 8.89543 14.6716 8 15.5 8C16.3284 8 17 8.89543 17 10ZM7.62547 17.5349C8.82406 16.5741 10.3436 16 12 16C13.6564 16 15.1759 16.5741 16.3745 17.5349C16.8054 17.8803 17.4348 17.811 17.7802 17.3801C18.1257 16.9492 18.0564 16.3198 17.6255 15.9744C16.0849 14.7394 14.1274 14 12 14C9.87259 14 7.91514 14.7394 6.37453 15.9744C5.94361 16.3198 5.87431 16.9492 6.21975 17.3801C6.56519 17.811 7.19455 17.8803 7.62547 17.5349Z" fill="#2D50E6"/>
</svg>
