<svg width="24" height="24" viewBox="0 0 24 24" fill="none" xmlns="http://www.w3.org/2000/svg">
<path fill-rule="evenodd" clip-rule="evenodd" d="M22.2677 5.26777C23.244 4.29146 23.244 2.70854 22.2677 1.73223C21.2914 0.755922 19.7085 0.755922 18.7322 1.73223L0.464355 20C0.875273 20.4109 1.32969 20.7457 1.80929 21H1.49994C1.2238 21 0.999945 21.2239 0.999945 21.5C0.999945 21.7761 1.2238 22 1.49994 22H10.4999C10.7761 22 10.9999 21.7761 10.9999 21.5C10.9999 21.2239 10.7761 21 10.4999 21H6.3079C6.65914 20.7986 6.99353 20.544 7.30324 20.2345L10.77 16.77C9.79245 15.7925 9.79245 14.2075 10.77 13.23L12 12L13.0679 13.0592C13.4589 13.4469 14.0898 13.4456 14.4792 13.0562L22.2677 5.26777ZM7.85354 16.8536C8.04881 16.6583 8.04881 16.3417 7.85354 16.1464C7.65828 15.9512 7.3417 15.9512 7.14644 16.1464L4.14644 19.1464C3.95117 19.3417 3.95117 19.6583 4.14644 19.8536C4.3417 20.0488 4.65828 20.0488 4.85354 19.8536L7.85354 16.8536Z" fill="#2D50E6"/>
<path d="M13.4999 21C13.2238 21 12.9999 21.2239 12.9999 21.5C12.9999 21.7761 13.2238 22 13.4999 22H14.4999C14.7761 22 14.9999 21.7761 14.9999 21.5C14.9999 21.2239 14.7761 21 14.4999 21H13.4999Z" fill="#2D50E6"/>
<path d="M16.9999 21.5C16.9999 21.2239 17.2238 21 17.4999 21H18.4999C18.7761 21 18.9999 21.2239 18.9999 21.5C18.9999 21.7761 18.7761 22 18.4999 22H17.4999C17.2238 22 16.9999 21.7761 16.9999 21.5Z" fill="#2D50E6"/>
<path d="M21.4999 21C21.2238 21 20.9999 21.2239 20.9999 21.5C20.9999 21.7761 21.2238 22 21.4999 22H22.4999C22.7761 22 22.9999 21.7761 22.9999 21.5C22.9999 21.2239 22.7761 21 22.4999 21H21.4999Z" fill="#2D50E6"/>
</svg>
