<svg width="24" height="24" viewBox="0 0 24 24" fill="none" xmlns="http://www.w3.org/2000/svg">
<path d="M4.74589 5.06824C6.59672 3.19788 9.16232 2.04101 12 2.04101C14.8377 2.04101 17.4033 3.19788 19.2541 5.06824C19.6505 5.46886 20.2967 5.47225 20.6973 5.07582C21.0979 4.67938 21.1013 4.03324 20.7049 3.63262C18.4864 1.39075 15.4047 0 12 0C8.59532 0 5.51358 1.39075 3.29512 3.63262C2.89869 4.03324 2.90208 4.67938 3.3027 5.07582C3.70332 5.47225 4.34946 5.46886 4.74589 5.06824Z" fill="#2D50E6"/>
<path d="M12 6.03425C10.3368 6.03425 8.83076 6.69822 7.72901 7.77785C7.32779 8.17101 6.68382 8.16448 6.29065 7.76326C5.89749 7.36204 5.90402 6.71806 6.30524 6.3249C7.77181 4.88778 9.78325 4 12 4C14.2168 4 16.2282 4.88778 17.6948 6.3249C18.096 6.71806 18.1025 7.36204 17.7093 7.76326C17.3162 8.16448 16.6722 8.17101 16.271 7.77785C15.1692 6.69822 13.6632 6.03425 12 6.03425Z" fill="#2D50E6"/>
<path d="M8 12C8 9.79086 9.79086 8 12 8C14.2091 8 16 9.79086 16 12V19C16 21.2091 14.2091 23 12 23C9.79086 23 8 21.2091 8 19V12Z" fill="#2D50E6"/>
</svg>
