<svg width="24" height="24" viewBox="0 0 24 24" fill="none" xmlns="http://www.w3.org/2000/svg">
<path fill-rule="evenodd" clip-rule="evenodd" d="M11.2929 1.29289C11.6834 0.902369 12.3166 0.902369 12.7071 1.29289L16.7071 5.29289C17.0976 5.68342 17.0976 6.31658 16.7071 6.70711C16.3166 7.09763 15.6834 7.09763 15.2929 6.70711L13 4.41421V9H11V4.41421L8.70711 6.70711C8.31658 7.09763 7.68342 7.09763 7.29289 6.70711C6.90237 6.31658 6.90237 5.68342 7.29289 5.29289L11.2929 1.29289ZM11 9H6C4.34315 9 3 10.3431 3 12V18C3 19.6569 4.34315 21 6 21H18C19.6569 21 21 19.6569 21 18V12C21 10.3431 19.6569 9 18 9H13V14C13 14.5523 12.5523 15 12 15C11.4477 15 11 14.5523 11 14V9Z" fill="#2D50E6"/>
</svg>
