<svg width="24" height="24" viewBox="0 0 24 24" fill="none" xmlns="http://www.w3.org/2000/svg">
<path d="M0 3C0 2.44772 0.447715 2 1 2H4.25676C4.71563 2 5.11561 2.3123 5.2269 2.75746L5.78754 5H21.0002C21.6493 5 22.1265 5.60848 21.9716 6.23865L19.7005 15.4773C19.4807 16.3714 18.6787 17 17.7577 17H8.28353C7.36552 17 6.56532 16.3754 6.34267 15.4851L4.03134 6.24253C4.02292 6.20887 4.01631 6.17526 4.01143 6.1418L3.47598 4H1C0.447715 4 0 3.55228 0 3Z" fill="#2D50E6"/>
<path d="M8 23C9.10457 23 10 22.1046 10 21C10 19.8954 9.10457 19 8 19C6.89543 19 6 19.8954 6 21C6 22.1046 6.89543 23 8 23Z" fill="#2D50E6"/>
<path d="M18 23C19.1046 23 20 22.1046 20 21C20 19.8954 19.1046 19 18 19C16.8954 19 16 19.8954 16 21C16 22.1046 16.8954 23 18 23Z" fill="#2D50E6"/>
</svg>
