<svg width="24" height="24" viewBox="0 0 24 24" fill="none" xmlns="http://www.w3.org/2000/svg">
<rect x="3" y="14" width="3" height="5" rx="1" fill="#2C2302"/>
<path d="M19 5C18.4477 5 18 5.44772 18 6V18C18 18.5523 18.4477 19 19 19H20C20.5523 19 21 18.5523 21 18V6C21 5.44772 20.5523 5 20 5H19Z" fill="#C0BEB8"/>
<path d="M13 9C13 8.44771 13.4477 8 14 8H15C15.5523 8 16 8.44772 16 9V18C16 18.5523 15.5523 19 15 19H14C13.4477 19 13 18.5523 13 18V9Z" fill="#C0BEB8"/>
<path d="M8 12C8 11.4477 8.44772 11 9 11H10C10.5523 11 11 11.4477 11 12V18C11 18.5523 10.5523 19 10 19H9C8.44771 19 8 18.5523 8 18V12Z" fill="#C0BEB8"/>
</svg>
