<svg width="24" height="24" viewBox="0 0 24 24" fill="none" xmlns="http://www.w3.org/2000/svg">
<path d="M9 11C8.44772 11 8 11.4477 8 12V18C8 18.5523 8.44771 19 9 19H10C10.5523 19 11 18.5523 11 18V12C11 11.4477 10.5523 11 10 11H9Z" fill="#2C2302"/>
<path d="M4 14C3.44772 14 3 14.4477 3 15V18C3 18.5523 3.44772 19 4 19H5C5.55228 19 6 18.5523 6 18V15C6 14.4477 5.55228 14 5 14H4Z" fill="#2C2302"/>
<path d="M19 5C18.4477 5 18 5.44772 18 6V18C18 18.5523 18.4477 19 19 19H20C20.5523 19 21 18.5523 21 18V6C21 5.44772 20.5523 5 20 5H19Z" fill="#C0BEB8"/>
<path d="M14 8C13.4477 8 13 8.44771 13 9V18C13 18.5523 13.4477 19 14 19H15C15.5523 19 16 18.5523 16 18V9C16 8.44772 15.5523 8 15 8H14Z" fill="#C0BEB8"/>
</svg>
