<svg width="24" height="24" viewBox="0 0 24 24" fill="none" xmlns="http://www.w3.org/2000/svg">
<path d="M14 8C13.4477 8 13 8.44771 13 9V18C13 18.5523 13.4477 19 14 19H15C15.5523 19 16 18.5523 16 18V9C16 8.44772 15.5523 8 15 8H14Z" fill="#2C2302"/>
<path d="M8 12C8 11.4477 8.44772 11 9 11H10C10.5523 11 11 11.4477 11 12V18C11 18.5523 10.5523 19 10 19H9C8.44771 19 8 18.5523 8 18V12Z" fill="#2C2302"/>
<path d="M3 15C3 14.4477 3.44772 14 4 14H5C5.55228 14 6 14.4477 6 15V18C6 18.5523 5.55228 19 5 19H4C3.44772 19 3 18.5523 3 18V15Z" fill="#2C2302"/>
<rect x="18" y="5" width="3" height="14" rx="1" fill="#C0BEB8"/>
</svg>
