<svg width="24" height="24" viewBox="0 0 24 24" fill="none" xmlns="http://www.w3.org/2000/svg">
<path d="M12.5016 1.13469C12.3541 1.04904 12.1828 1 12 1C11.8172 1 11.6459 1.04903 11.4985 1.13465L9.01436 2.51473C8.53157 2.78294 8.35763 3.39175 8.62584 3.87453C8.89406 4.35732 9.50286 4.53126 9.98564 4.26305L11 3.69951V5C11 5.55228 11.4477 6 12 6C12.5523 6 13 5.55228 13 5V3.69951L14.0144 4.26305C14.4971 4.53126 15.1059 4.35732 15.3742 3.87453C15.6424 3.39175 15.4684 2.78295 14.9856 2.51473L12.5016 1.13469Z" fill="#2D50E6"/>
<path d="M13 19C13 18.4477 12.5523 18 12 18C11.4477 18 11 18.4477 11 19V20.3005L9.98564 19.737C9.50286 19.4687 8.89406 19.6427 8.62584 20.1255C8.35763 20.6083 8.53157 21.2171 9.01436 21.4853L11.4985 22.8653C11.644 22.9499 11.8128 22.9987 11.9928 23L12 23C12.1828 23 12.3541 22.951 12.5016 22.8653L14.9856 21.4853C15.4684 21.2171 15.6424 20.6083 15.3742 20.1255C15.1059 19.6427 14.4971 19.4687 14.0144 19.737L13 20.3005V19Z" fill="#2D50E6"/>
<path d="M2.21555 6.37979C2.14066 6.47454 2.08334 6.58233 2.04671 6.69788C2.01537 6.79642 2.00013 6.89755 2 6.99785V9.75C2 10.3023 2.44772 10.75 3 10.75C3.55228 10.75 4 10.3023 4 9.75V8.69941L5.01454 9.26305C5.49732 9.53126 6.10613 9.35732 6.37434 8.87453C6.64255 8.39175 6.46861 7.78294 5.98583 7.51473L5.05922 6.99995L5.98564 6.48527C6.46843 6.21705 6.64237 5.60825 6.37416 5.12547C6.10594 4.64268 5.49714 4.46874 5.01436 4.73695L2.52215 6.12151C2.40574 6.18471 2.30088 6.27157 2.21555 6.37979Z" fill="#2D50E6"/>
<path d="M18.9408 6.99996L18.0142 7.51473C17.5314 7.78294 17.3575 8.39175 17.6257 8.87453C17.8939 9.35732 18.5027 9.53126 18.9855 9.26305L20 8.69943V9.75C20 10.3023 20.4477 10.75 21 10.75C21.5523 10.75 22 10.3023 22 9.75V7C22 6.63683 21.8031 6.30221 21.4856 6.12584L18.9856 4.73695C18.5029 4.46874 17.8941 4.64268 17.6258 5.12547C17.3576 5.60825 17.5316 6.21706 18.0144 6.48527L18.9408 6.99996Z" fill="#2D50E6"/>
<path d="M6.374 15.1255C6.64221 15.6083 6.46827 16.2171 5.98549 16.4853L5.05905 17L5.98564 17.5147C6.46843 17.7829 6.64237 18.3917 6.37416 18.8745C6.10594 19.3573 5.49714 19.5313 5.01436 19.263L2.51436 17.8742C2.19689 17.6978 2 17.3632 2 17V14.25C2 13.6977 2.44772 13.25 3 13.25C3.55228 13.25 4 13.6977 4 14.25V15.3004L5.0142 14.737C5.49698 14.4687 6.10579 14.6427 6.374 15.1255Z" fill="#2D50E6"/>
<path d="M8.62602 10.1255C8.89424 9.64268 9.50304 9.46874 9.98583 9.73695L12.0002 10.856L14.0145 9.73695C14.4973 9.46874 15.1061 9.64268 15.3743 10.1255C15.6426 10.6083 15.4686 11.2171 14.9858 11.4853L13 12.5885V14.5C13 15.0523 12.5523 15.5 12 15.5C11.4477 15.5 11 15.0523 11 14.5V12.5883L9.01454 11.4853C8.53176 11.2171 8.35781 10.6083 8.62602 10.1255Z" fill="#2D50E6"/>
<path d="M21 13.25C21.5523 13.25 22 13.6977 22 14.25V16.9739C22.0047 17.1469 21.9645 17.3234 21.8743 17.4856C21.7766 17.6616 21.6337 17.7965 21.4681 17.8839L18.9856 19.263C18.5029 19.5313 17.8941 19.3573 17.6258 18.8745C17.3576 18.3917 17.5316 17.7829 18.0144 17.5147L18.941 16.9999L18.0145 16.4853C17.5318 16.2171 17.3578 15.6083 17.626 15.1255C17.8942 14.6427 18.503 14.4687 18.9858 14.737L20 15.3004V14.25C20 13.6977 20.4477 13.25 21 13.25Z" fill="#2D50E6"/>
</svg>
