<svg width="24" height="24" viewBox="0 0 24 24" fill="none" xmlns="http://www.w3.org/2000/svg">
<path fill-rule="evenodd" clip-rule="evenodd" d="M12 2C6.47715 2 2 6.47715 2 12V17.382C2 17.7607 2.214 18.107 2.55279 18.2764L5.70186 19.8509C5.89539 19.9477 6.05231 20.1046 6.14907 20.2981L6.72361 21.4472C6.893 21.786 7.23926 22 7.61803 22H8V20C8 19.4477 8.44772 19 9 19C9.55228 19 10 19.4477 10 20V22H11V20C11 19.4477 11.4477 19 12 19C12.5523 19 13 19.4477 13 20V22H14V20C14 19.4477 14.4477 19 15 19C15.5523 19 16 19.4477 16 20V22H16.382C16.7607 22 17.107 21.786 17.2764 21.4472L17.8509 20.2981C17.9477 20.1046 18.1046 19.9477 18.2981 19.8509L21.4472 18.2764C21.786 18.107 22 17.7607 22 17.382V12C22 6.47715 17.5228 2 12 2ZM10.8106 14.7575C10.9219 14.3123 11.3219 14 11.7808 14H12.2192C12.6781 14 13.0781 14.3123 13.1894 14.7575L13.6894 16.7575C13.8472 17.3886 13.3698 18 12.7192 18H11.2808C10.6302 18 10.1528 17.3886 10.3106 16.7575L10.8106 14.7575ZM10 12.5C10 13.8807 8.88071 15 7.5 15C6.11929 15 5 13.8807 5 12.5C5 11.1193 6.11929 10 7.5 10C8.88071 10 10 11.1193 10 12.5ZM16.5 15C17.8807 15 19 13.8807 19 12.5C19 11.1193 17.8807 10 16.5 10C15.1193 10 14 11.1193 14 12.5C14 13.8807 15.1193 15 16.5 15Z" fill="#2D50E6"/>
</svg>
