<svg width="24" height="24" viewBox="0 0 24 24" fill="none" xmlns="http://www.w3.org/2000/svg">
<path fill-rule="evenodd" clip-rule="evenodd" d="M4 4C4 2.34315 5.34315 1 7 1H17C18.6569 1 20 2.34315 20 4V20C20 21.6569 18.6569 23 17 23H7C5.34315 23 4 21.6569 4 20V4ZM7 5C7 4.44772 7.44772 4 8 4H16C16.5523 4 17 4.44772 17 5V14C17 14.5523 16.5523 15 16 15H8C7.44772 15 7 14.5523 7 14V5ZM11 18C10.4477 18 10 18.4477 10 19C10 19.5523 10.4477 20 11 20H13C13.5523 20 14 19.5523 14 19C14 18.4477 13.5523 18 13 18H11Z" fill="#2D50E6"/>
</svg>
