<svg width="24" height="24" viewBox="0 0 24 24" fill="none" xmlns="http://www.w3.org/2000/svg">
<path fill-rule="evenodd" clip-rule="evenodd" d="M12.9976 2.07054C12.9992 2.04724 13 2.02372 13 2C13 1.44772 12.5523 1 12 1C11.4477 1 11 1.44772 11 2C11 2.02372 11.0008 2.04724 11.0024 2.07054C9.02877 2.35214 7.32048 3.45701 6.2365 5.02621C5.04733 6.74768 4.81458 8.87881 4.58296 10.9995C4.50325 11.7293 4.42368 12.4579 4.30531 13.1681L4.16606 14.0036C4.06173 14.6296 3.66416 15.1679 3.09653 15.4517L2.68328 15.6584C2.26452 15.8677 2 16.2957 2 16.7639C2 17.4466 2.55341 18 3.23607 18H20.7639C21.4466 18 22 17.4466 22 16.7639C22 16.2957 21.7355 15.8677 21.3167 15.6584L20.9035 15.4517C20.3358 15.1679 19.9383 14.6296 19.8339 14.0036L19.6947 13.1681C19.5763 12.458 19.4968 11.7294 19.4171 10.9996C19.1854 8.87893 18.9527 6.74768 17.7635 5.02621C16.6795 3.45701 14.9712 2.35214 12.9976 2.07054ZM10 7C9.44772 7 9.00001 7.44772 9.00001 8C9.00001 8.55228 9.44772 9 10 9H11.9194L9.21914 12.3753C8.979 12.6755 8.93219 13.0867 9.09871 13.4332C9.26523 13.7797 9.6156 14 10 14H14C14.5523 14 15 13.5523 15 13C15 12.4477 14.5523 12 14 12H12.0806L14.7809 8.62469C15.021 8.32452 15.0678 7.91328 14.9013 7.56681C14.7348 7.22035 14.3844 7 14 7H10Z" fill="#2D50E6"/>
<path d="M9 20C9 21.6569 10.3431 23 12 23C13.6569 23 15 21.6569 15 20H9Z" fill="#2D50E6"/>
</svg>
