<svg width="24" height="24" viewBox="0 0 24 24" fill="none" xmlns="http://www.w3.org/2000/svg">
<path d="M14.5329 5.46458C14.5143 5.20284 14.2966 5 14.0342 5H9.96571C9.70331 5 9.48555 5.20284 9.46697 5.46458L9.32494 7.46458C9.30439 7.75394 9.5336 8 9.82369 8H14.1762C14.4663 8 14.6955 7.75394 14.6749 7.46458L14.5329 5.46458Z" fill="#2D50E6"/>
<path d="M14.8175 9.46438C14.7989 9.20272 14.5811 9 14.3188 9H9.68105C9.41873 9 9.20101 9.20272 9.18232 9.46438L8.96804 12.4644C8.94736 12.7538 9.1766 13 9.46677 13H14.5331C14.8233 13 15.0525 12.7538 15.0318 12.4644L14.8175 9.46438Z" fill="#2D50E6"/>
<path d="M16.5382 13C16.2759 13 16.0582 12.7973 16.0395 12.5356L15.8252 9.53562C15.8045 9.24619 16.0337 9 16.3239 9H20.4529C20.6886 9 20.8924 9.1647 20.9418 9.39524L21.5846 12.3952C21.6513 12.7065 21.414 13 21.0957 13H16.5382Z" fill="#2D50E6"/>
<path d="M15.1747 14.4644C15.156 14.2027 14.9383 14 14.676 14H9.32391C9.06159 14 8.84387 14.2027 8.82518 14.4644L8.53947 18.4644C8.51879 18.7538 8.74802 19 9.0382 19H14.9617C15.2518 19 15.4811 18.7538 15.4604 18.4644L15.1747 14.4644Z" fill="#2D50E6"/>
<path d="M16.9656 19C16.7033 19 16.4855 18.7972 16.4669 18.5355L16.1822 14.5355C16.1616 14.2461 16.3908 14 16.6809 14H21.5243C21.7601 14 21.9638 14.1647 22.0132 14.3952L22.4816 16.5809C22.7484 17.826 21.7992 19 20.526 19H16.9656Z" fill="#2D50E6"/>
<path d="M16.1811 8C15.9187 8 15.701 7.79728 15.6823 7.53562L15.5395 5.53562C15.5188 5.24619 15.748 5 16.0382 5H19.1915C19.6631 5 20.0705 5.3294 20.1693 5.79047L20.5132 7.39524C20.5799 7.70649 20.3426 8 20.0243 8H16.1811Z" fill="#2D50E6"/>
<path d="M4.80835 5H7.96167C8.25184 5 8.48107 5.24619 8.4604 5.53562L8.31754 7.53562C8.29885 7.79728 8.08113 8 7.81881 8H3.97557C3.65725 8 3.41997 7.70649 3.48667 7.39524L3.83055 5.79047C3.92935 5.3294 4.33681 5 4.80835 5Z" fill="#2D50E6"/>
<path d="M3.0581 9.39524C3.1075 9.1647 3.31123 9 3.547 9H7.67596C7.96613 9 8.19536 9.24619 8.17469 9.53562L7.9604 12.5356C7.94171 12.7973 7.72399 13 7.46167 13H2.90414C2.58582 13 2.34854 12.7065 2.41524 12.3952L3.0581 9.39524Z" fill="#2D50E6"/>
<path d="M1.98667 14.3952C2.03607 14.1647 2.2398 14 2.47557 14H7.31895C7.60907 14 7.83828 14.2461 7.81769 14.5355L7.53298 18.5355C7.51435 18.7972 7.2966 19 7.03424 19H3.47391C2.20062 19 1.25151 17.826 1.5183 16.5809L1.98667 14.3952Z" fill="#2D50E6"/>
</svg>
