<svg width="24" height="24" viewBox="0 0 24 24" fill="none" xmlns="http://www.w3.org/2000/svg">
<path d="M5 7.00134C3.34315 7.00134 2 8.34448 2 10.0013V14.004C2 15.6609 3.34315 17.004 5 17.004H7L11.788 21.7932C12.2352 22.2406 13 21.9238 13 21.2911V2.71428C13 2.08157 12.2352 1.76471 11.788 2.2121L7 7.00134H5Z" fill="#2D50E6"/>
<path d="M15 15.7063C15 16.3687 15.7109 16.7612 16.1854 16.2991C17.3048 15.2092 18 13.6858 18 12C18 10.3142 17.3048 8.79084 16.1854 7.70089C15.7109 7.23882 15 7.63135 15 8.2937V15.7063Z" fill="#2D50E6"/>
<path d="M16.445 3.04001C15.9504 2.79422 15.3502 2.99591 15.1045 3.49049C14.8587 3.98507 15.0604 4.58525 15.5549 4.83103C18.1915 6.14131 20 8.86038 20 12C20 15.1396 18.1915 17.8587 15.5549 19.169C15.0604 19.4147 14.8587 20.0149 15.1045 20.5095C15.3502 21.0041 15.9504 21.2058 16.445 20.96C19.7353 19.3249 22 15.9278 22 12C22 8.07218 19.7353 4.67514 16.445 3.04001Z" fill="#2D50E6"/>
</svg>
