<svg width="24" height="24" viewBox="0 0 24 24" fill="none" xmlns="http://www.w3.org/2000/svg">
<path d="M5 7.00135C3.34315 7.00135 2 8.3445 2 10.0014V14.004C2 15.6609 3.34315 17.004 5 17.004H7L11.788 21.7933C12.2352 22.2406 13 21.9238 13 21.2911V2.7143C13 2.08159 12.2352 1.76472 11.788 2.21212L7 7.00135H5Z" fill="#2D50E6"/>
<path d="M15 15.7063C15 16.3687 15.7109 16.7612 16.1854 16.2991C17.3048 15.2092 18 13.6858 18 12C18 10.3142 17.3048 8.79085 16.1854 7.70091C15.7109 7.23883 15 7.63137 15 8.29372V15.7063Z" fill="#2D50E6"/>
<path d="M16.445 3.04002C15.9504 2.79424 15.3502 2.99592 15.1045 3.4905C14.8587 3.98508 15.0604 4.58526 15.5549 4.83105C18.1915 6.14132 20 8.86039 20 12C20 15.1396 18.1915 17.8587 15.5549 19.169C15.0604 19.4148 14.8587 20.0149 15.1045 20.5095C15.3502 21.0041 15.9504 21.2058 16.445 20.96C19.7353 19.3249 22 15.9278 22 12C22 8.07219 19.7353 4.67515 16.445 3.04002Z" fill="#2D50E6"/>
</svg>
