<svg width="24" height="24" viewBox="0 0 24 24" fill="none" xmlns="http://www.w3.org/2000/svg">
<path d="M17.0278 1.30073C17.2149 0.899758 17.7851 0.899758 17.9722 1.30073L18.3568 2.12486C18.8745 3.23399 19.766 4.12553 20.8751 4.64316L21.6993 5.02779C22.1002 5.21492 22.1002 5.78508 21.6993 5.97221L20.8751 6.35684C19.766 6.87447 18.8745 7.76601 18.3568 8.87514L17.9722 9.69927C17.7851 10.1002 17.2149 10.1002 17.0278 9.69927L16.6432 8.87514C16.1255 7.76601 15.234 6.87447 14.1249 6.35684L13.3007 5.97221C12.8998 5.78508 12.8998 5.21492 13.3007 5.02779L14.1249 4.64316C15.234 4.12553 16.1255 3.23399 16.6432 2.12486L17.0278 1.30073Z" fill="#2D50E6"/>
<path d="M17.6852 16.2005C17.8099 15.9332 18.1901 15.9332 18.3148 16.2005L18.5712 16.7499C18.9163 17.4893 19.5107 18.0837 20.2501 18.4288L20.7995 18.6852C21.0668 18.8099 21.0668 19.1901 20.7995 19.3148L20.2501 19.5712C19.5107 19.9163 18.9163 20.5107 18.5712 21.2501L18.3148 21.7995C18.1901 22.0668 17.8099 22.0668 17.6852 21.7995L17.4288 21.2501C17.0837 20.5107 16.4893 19.9163 15.7499 19.5712L15.2005 19.3148C14.9332 19.1901 14.9332 18.8099 15.2005 18.6852L15.7499 18.4288C16.4893 18.0837 17.0837 17.4893 17.4288 16.7499L17.6852 16.2005Z" fill="#2D50E6"/>
<path d="M9.83949 5.53462C9.50681 4.82179 8.49319 4.82179 8.16051 5.53462L7.47673 6.99974C6.55649 8.97154 4.97154 10.5565 2.99974 11.4767L1.53462 12.1605C0.821792 12.4932 0.821792 13.5068 1.53462 13.8395L2.99974 14.5233C4.97154 15.4435 6.55649 17.0285 7.47673 19.0003L8.16051 20.4654C8.49319 21.1782 9.50681 21.1782 9.83949 20.4654L10.5233 19.0003C11.4435 17.0285 13.0285 15.4435 15.0003 14.5233L16.4654 13.8395C17.1782 13.5068 17.1782 12.4932 16.4654 12.1605L15.0003 11.4767C13.0285 10.5565 11.4435 8.97154 10.5233 6.99974L9.83949 5.53462Z" fill="#2D50E6"/>
</svg>
