<svg width="24" height="24" viewBox="0 0 24 24" fill="none" xmlns="http://www.w3.org/2000/svg">
<path fill-rule="evenodd" clip-rule="evenodd" d="M23 15C23 17.0751 18.0751 20 12 20C5.92487 20 1 17.0751 1 15C1 8.92487 5.92487 4 12 4C18.0751 4 23 8.92487 23 15ZM14 15C14 16.1046 13.1046 17 12 17C10.8954 17 10 16.1046 10 15C10 11.8954 10.8954 6 12 6C13.1046 6 14 11.8954 14 15ZM8.50333 8.93436C8.98151 8.65802 9.14514 8.04636 8.8688 7.56818C8.59246 7.09 7.98081 6.92638 7.50263 7.20271L7.49448 7.20742C7.01659 7.48426 6.85361 8.09609 7.13045 8.57398C7.40728 9.05187 8.01911 9.21486 8.497 8.93802L8.50333 8.93436ZM16.4974 7.20271C16.0192 6.92638 15.4075 7.09 15.1312 7.56818C14.8549 8.04636 15.0185 8.65802 15.4967 8.93436L15.503 8.93802C15.9809 9.21486 16.5927 9.05187 16.8696 8.57398C17.1464 8.09609 16.9834 7.48426 16.5055 7.20742L16.4974 7.20271ZM19.7926 10.4945C19.5157 10.0166 18.9039 9.85361 18.426 10.1304C17.9481 10.4073 17.7851 11.0191 18.062 11.497L18.0656 11.5033C18.342 11.9815 18.9536 12.1451 19.4318 11.8688C19.91 11.5925 20.0736 10.9808 19.7973 10.5026L19.7926 10.4945ZM5.93802 11.497C6.21486 11.0191 6.05187 10.4073 5.57398 10.1304C5.09609 9.85361 4.48426 10.0166 4.20742 10.4945L4.20271 10.5026C3.92637 10.9808 4.09 11.5925 4.56818 11.8688C5.04636 12.1451 5.65802 11.9815 5.93435 11.5033L5.93802 11.497Z" fill="#2D50E6"/>
</svg>
