<svg width="24" height="24" viewBox="0 0 24 24" fill="none" xmlns="http://www.w3.org/2000/svg">
<path d="M11.039 1.59656C11.4321 0.801149 12.5679 0.801148 12.961 1.59655L15.53 6.79493C15.6861 7.11078 15.9878 7.32971 16.3368 7.38036L22.0813 8.21396C22.9603 8.3415 23.3112 9.42022 22.6752 10.0394L18.5185 14.0857C18.2659 14.3316 18.1507 14.6858 18.2103 15.033L19.1916 20.7465C19.3417 21.6208 18.4229 22.2875 17.6367 21.8747L12.4987 19.1771C12.1865 19.0132 11.8135 19.0132 11.5013 19.1771L6.36332 21.8747C5.57715 22.2875 4.6583 21.6208 4.80845 20.7465L5.78972 15.033C5.84934 14.6858 5.73409 14.3316 5.48153 14.0857L1.32479 10.0394C0.688763 9.42022 1.03973 8.3415 1.9187 8.21396L7.66317 7.38036C8.0122 7.32971 8.31394 7.11078 8.47003 6.79493L11.039 1.59656Z" fill="#2D50E6"/>
</svg>
