<svg width="24" height="24" viewBox="0 0 24 24" fill="none" xmlns="http://www.w3.org/2000/svg">
<g clip-path="url(#clip0_517_7)">
<path d="M13 3.00004C13 3.55232 12.5523 4.00004 12 4.00004C11.4477 4.00004 11 3.55232 11 3.00004C11 2.46505 11.2862 1.31184 11.5524 0.35501C11.6833 -0.115407 12.3167 -0.115407 12.4476 0.35501C12.7138 1.31184 13 2.46505 13 3.00004Z" fill="#2D50E6"/>
<path d="M13 21.0006C13 20.448 12.5523 20 12 20C11.4477 20 11 20.448 11 21.0006C11 21.5359 11.2862 22.6897 11.5524 23.647C11.6833 24.1177 12.3167 24.1177 12.4476 23.647C12.7138 22.6897 13 21.5359 13 21.0006Z" fill="#2D50E6"/>
<path d="M6.3426 6.3435C6.73312 5.95297 6.73312 5.31981 6.3426 4.92929C5.96431 4.55099 4.94648 3.93793 4.08168 3.44957C3.65651 3.20948 3.20858 3.65741 3.44867 4.08258C3.93703 4.94738 4.55009 5.9652 4.92839 6.3435C5.31891 6.73402 5.95208 6.73402 6.3426 6.3435Z" fill="#2D50E6"/>
<path d="M19.0709 17.6576C18.6802 17.2669 18.0468 17.2667 17.6563 17.6572C17.2658 18.0477 17.266 18.6811 17.6567 19.0718C18.0352 19.4503 19.0535 20.0638 19.9186 20.5525C20.344 20.7928 20.7919 20.3449 20.5516 19.9195C20.0629 19.0544 19.4494 18.0361 19.0709 17.6576Z" fill="#2D50E6"/>
<path d="M2.9993 11.0011C3.55159 11.0011 3.9993 11.4488 3.9993 12.0011C3.9993 12.5534 3.55159 13.0011 2.9993 13.0011C2.46432 13.0011 1.3111 12.7149 0.354278 12.4487C-0.116139 12.3179 -0.11614 11.6844 0.354277 11.5535C1.3111 11.2873 2.46432 11.0011 2.9993 11.0011Z" fill="#2D50E6"/>
<path d="M19.9993 12.0011C19.9993 11.4488 20.4473 11.0011 20.9998 11.0011C21.5351 11.0011 22.689 11.2873 23.6463 11.5535C24.117 11.6844 24.117 12.3179 23.6463 12.4487C22.689 12.7149 21.5351 13.0011 20.9998 13.0011C20.4473 13.0011 19.9993 12.5534 19.9993 12.0011Z" fill="#2D50E6"/>
<path d="M17.6566 6.34503C17.2661 5.9545 17.2663 5.32117 17.657 4.93043C18.0355 4.55193 19.0538 3.93843 19.919 3.44971C20.3443 3.20943 20.7922 3.65736 20.552 4.08271C20.0632 4.94788 19.4497 5.96614 19.0712 6.34464C18.6805 6.73538 18.0472 6.73555 17.6566 6.34503Z" fill="#2D50E6"/>
<path d="M4.92872 17.6587C5.31925 17.2682 5.95241 17.2682 6.34294 17.6587C6.73346 18.0493 6.73346 18.6824 6.34294 19.0729C5.96464 19.4512 4.94682 20.0643 4.08202 20.5527C3.65684 20.7928 3.20891 20.3448 3.44901 19.9197C3.93737 19.0549 4.55043 18.037 4.92872 17.6587Z" fill="#2D50E6"/>
<path d="M12 19C15.866 19 19 15.866 19 12C19 8.13404 15.866 5.00004 12 5.00004C8.13401 5.00004 5 8.13404 5 12C5 15.866 8.13401 19 12 19Z" fill="#2D50E6"/>
</g>
<defs>
<clipPath id="clip0_517_7">
<rect width="24" height="24" fill="white"/>
</clipPath>
</defs>
</svg>
