<svg width="24" height="24" viewBox="0 0 24 24" fill="none" xmlns="http://www.w3.org/2000/svg">
<path fill-rule="evenodd" clip-rule="evenodd" d="M23 3C23 1.89543 22.1046 1 21 1H15C14.4996 1 14.0174 1.18757 13.6486 1.52569L1.64855 12.5257C1.24643 12.8943 1.01232 13.4112 1.00047 13.9566C0.988622 14.5019 1.20006 15.0285 1.58579 15.4142L8.58579 22.4142C9.36684 23.1953 10.6332 23.1953 11.4142 22.4142L22.4142 11.4142C22.7893 11.0391 23 10.5304 23 10V3ZM18 8C19.1046 8 20 7.10457 20 6C20 4.89543 19.1046 4 18 4C16.8954 4 16 4.89543 16 6C16 7.10457 16.8954 8 18 8Z" fill="#2D50E6"/>
</svg>
