<svg width="24" height="24" viewBox="0 0 24 24" fill="none" xmlns="http://www.w3.org/2000/svg">
<path d="M12.1923 5.15944C12.1738 5.06731 12.094 5 12 5C8.13401 5 5 8.13401 5 12C5 15.866 8.13401 19 12 19C15.866 19 19 15.866 19 12C19 11.9061 18.9327 11.8262 18.8406 11.8078L17.5251 11.5447C17.2497 11.4896 17 11.7192 17 12C17 14.7614 14.7614 17 12 17C9.23858 17 7 14.7614 7 12C7 9.23858 9.23858 7 12 7C12.2809 7 12.5104 6.75028 12.4554 6.47488L12.1923 5.15944Z" fill="#2D50E6"/>
<path d="M21.1186 11.7099C21.0418 11.7867 21 11.8914 21 12C21 16.9706 16.9706 21 12 21C7.02944 21 3 16.9706 3 12C3 7.02944 7.02944 3 12 3C12.1087 3 12.2135 2.95816 12.2903 2.88132L13.3178 1.85379C13.6029 1.56876 13.4493 1.0872 13.048 1.04927C12.7031 1.01667 12.3535 1 12 1C5.92487 1 1 5.92487 1 12C1 18.0751 5.92487 23 12 23C18.0751 23 23 18.0751 23 12C23 11.6466 22.9833 11.297 22.9507 10.9521C22.9128 10.5508 22.4313 10.3972 22.1462 10.6823L21.1186 11.7099Z" fill="#2D50E6"/>
<path d="M17.2558 1.7675C17.1383 1.41488 16.6908 1.30924 16.4279 1.57206L14.1892 3.81078C14.071 3.929 14.0197 4.09847 14.0525 4.2624L14.6975 7.4876C14.7303 7.65153 14.679 7.821 14.5608 7.93922L13.4794 9.02062C13.3323 9.16775 13.1105 9.20442 12.9123 9.14122C12.6246 9.0495 12.3181 9 12 9C10.3431 9 9 10.3431 9 12C9 13.6569 10.3431 15 12 15C13.6569 15 15 13.6569 15 12C15 11.6819 14.9505 11.3754 14.8588 11.0877C14.7956 10.8895 14.8323 10.6677 14.9794 10.5206L16.0608 9.43922C16.179 9.321 16.3485 9.26969 16.5124 9.30248L19.7376 9.94752C19.9015 9.98031 20.071 9.929 20.1892 9.81078L22.4279 7.57206C22.6908 7.30924 22.5851 6.86171 22.2325 6.74417L18.7372 5.57906C18.5879 5.52929 18.4707 5.41213 18.4209 5.26283L17.2558 1.7675Z" fill="#2D50E6"/>
</svg>
