<svg width="24" height="24" viewBox="0 0 24 24" fill="none" xmlns="http://www.w3.org/2000/svg">
<path d="M22 2C22 1.44772 21.5523 1 21 1H3C2.44772 1 2 1.44772 2 2V7C2 7.55228 2.44772 8 3 8H3.27924C3.70967 8 4.09277 7.72395 4.29993 7.34665C4.78453 6.46407 5.90424 4 8 4H9C9.55229 4 10 4.44772 10 5L10 17.9992C10 19.3908 8.54749 20.2991 7.66385 20.7224C7.27566 20.9084 7 21.2903 7 21.7208V22C7 22.5523 7.44772 23 8 23H16C16.5523 23 17 22.5523 17 22V21.7208C17 21.2903 16.7243 20.9084 16.3362 20.7224C15.4525 20.2991 14 19.3917 14 18V5C14 4.44772 14.4477 4 15 4H16C18.0958 4 19.2155 6.46407 19.7001 7.34665C19.9072 7.72395 20.2903 8 20.7208 8H21C21.5523 8 22 7.55228 22 7V2Z" fill="#2D50E6"/>
</svg>
