<svg width="24" height="24" viewBox="0 0 24 24" fill="none" xmlns="http://www.w3.org/2000/svg">
<path d="M5.00194 7C6.38265 7 7.50194 5.88071 7.50194 4.5C7.50194 3.11929 6.38265 2 5.00194 2C3.62123 2 2.50194 3.11929 2.50194 4.5C2.50194 5.88071 3.62123 7 5.00194 7Z" fill="#2D50E6"/>
<path d="M2.2505 10C2.02777 10 1.91623 10.2693 2.07372 10.4268L3.57517 11.9282C3.73266 12.0857 4.00195 11.9742 4.00195 11.7514V10.4508C5.64519 12.2966 6.17092 12.1631 7.00786 11.9506C7.04266 11.9418 7.078 11.9328 7.11398 11.9238C7.92205 11.7223 8.12407 12.5116 8.12407 12.9315C5.85138 12.9315 4.08372 13.9391 4.58877 16.9619C5.09381 19.9848 7.3665 21.4962 8.12407 21.4962C8.88163 21.4962 10.6493 20.9924 9.63919 19.481C9.35293 19.0526 9.05823 18.6327 8.78201 18.2392C8.50503 17.8445 8.24665 17.4764 8.03402 17.1528C7.8298 16.842 8.0568 16.4581 8.42871 16.4581H10.2491C10.4833 16.4581 10.6839 16.6207 10.7476 16.8461C11.3781 19.0804 13.259 22 14.6896 22C16.2047 22 16.9623 20.9924 16.2047 19.9848C16.1044 19.8513 16.0074 19.723 15.9132 19.5985C15.0024 18.394 14.3661 17.5525 13.6795 15.9543C13.1745 14.7788 12.8939 13.8272 12.6133 12.8755C12.473 12.3997 12.3328 11.9239 12.1644 11.4201C11.6594 9.90865 11.1543 8.64909 9.63919 7.38957C8.12406 6.13005 7.3665 6.13005 5.59885 7.89339C3.83121 6.63387 2.31608 8.6491 3.32616 9.65671C3.4246 9.77673 3.51972 9.89108 3.61171 10H2.2505Z" fill="#2D50E6"/>
<path d="M17.8648 16.0006C20.7402 14.2506 22.3256 9.34197 19.5671 6.00053C18.5352 4.7505 17.34 4.52554 15.2488 4.50049C13.1128 4.50051 10.9219 5.40157 9.59532 5.96039L9.5 6.00053C9.98266 6.28199 10.4197 6.66054 10.8145 7.10181C12.1377 8.3887 12.6469 9.70883 13.1128 11.1031C13.3032 11.6726 13.4512 12.1761 13.5942 12.6628C13.8638 13.5798 14.1524 14.4873 14.5183 15.37C14.5869 15.5354 14.6729 15.6941 14.7907 15.829C15.3927 16.5184 16.3634 16.9144 17.8648 16.0006Z" fill="#2D50E6"/>
</svg>
