<svg width="24" height="24" viewBox="0 0 24 24" fill="none" xmlns="http://www.w3.org/2000/svg">
<path d="M8 12V18.3944C8 19.3975 8.49882 20.3462 9.41443 20.7558C10.7815 21.3674 12.7959 22 15 22C20 22 21.1427 21.572 21.5 20.5C21.8333 19.5 21 19 21 19C21 19 22.5 19 22.5 17C22.5 16.25 22 16 22 16C22 16 23 16 23 14.5C23 13 22 13 22 13C22 13 22.5 12.6971 22.5 11.5C22.5 10.3029 21.1372 9 15.5 9C15.8569 8.04822 16 7 16 6C16 3 14.1431 1 13 1C12.1451 1 11.5743 1.99936 11.8146 2.81978C12.1256 3.88128 12.2483 5.25285 11.5 6.5C10.9258 7.45708 10.2782 8.12104 9.69769 8.7163C8.7618 9.67595 8 10.4571 8 12Z" fill="#2D50E6"/>
<path d="M3.44152 11C2.58066 11 1.81751 11.5508 1.61364 12.3872C1.33219 13.5419 1 15.2709 1 17C1 18.7291 1.33219 20.4581 1.61364 21.6128C1.81751 22.4492 2.58066 23 3.44152 23H5C5.55228 23 6 22.5523 6 22V12C6 11.4477 5.55228 11 5 11H3.44152Z" fill="#2D50E6"/>
</svg>
