<svg width="24" height="24" viewBox="0 0 24 24" fill="none" xmlns="http://www.w3.org/2000/svg">
<path d="M16 13V6.60555C16 5.60249 15.5012 4.65377 14.5856 4.24416C13.2185 3.63257 11.2041 3 9 3C4 3 2.85733 3.42801 2.5 4.5C2.16667 5.5 3 6 3 6C3 6 1.5 6 1.5 8C1.5 8.75 2 9 2 9C2 9 1 9 1 10.5C1 12 2 12 2 12C2 12 1.5 12.3029 1.5 13.5C1.5 14.6971 2.86283 16 8.5 16C8.14308 16.9518 8 18 8 19C8 22 9.85692 24 11 24C11.8549 24 12.4257 23.0006 12.1854 22.1802C11.8744 21.1187 11.7517 19.7471 12.5 18.5C13.0742 17.5429 13.7218 16.879 14.3023 16.2837C15.2382 15.3241 16 14.5429 16 13Z" fill="#2D50E6"/>
<path d="M20.5585 16C21.4193 16 22.1825 15.4492 22.3864 14.6128C22.6678 13.4581 23 11.7291 23 10C23 8.27093 22.6678 6.54187 22.3864 5.38717C22.1825 4.5508 21.4193 4 20.5585 4H19C18.4477 4 18 4.44772 18 5V15C18 15.5523 18.4477 16 19 16H20.5585Z" fill="#2D50E6"/>
</svg>
