<svg width="24" height="24" viewBox="0 0 24 24" fill="none" xmlns="http://www.w3.org/2000/svg">
<path d="M8 11V17.3944C8 18.3975 8.49882 19.3462 9.41443 19.7558C10.7815 20.3674 12.7959 21 15 21C20 21 21.1427 20.572 21.5 19.5C21.8333 18.5 21 18 21 18C21 18 22.5 18 22.5 16C22.5 15.25 22 15 22 15C22 15 23 15 23 13.5C23 12 22 12 22 12C22 12 22.5 11.6971 22.5 10.5C22.5 9.30286 21.1372 8 15.5 8C15.8569 7.04822 16 6 16 5C16 2 14.1431 0 13 0C12.1451 0 11.5743 0.999357 11.8146 1.81978C12.1256 2.88128 12.2483 4.25285 11.5 5.5C10.9258 6.45708 10.2782 7.12104 9.69769 7.7163C8.7618 8.67595 8 9.45708 8 11Z" fill="#2D50E6"/>
<path d="M3.44152 10C2.58066 10 1.81751 10.5508 1.61364 11.3872C1.33219 12.5419 1 14.2709 1 16C1 17.7291 1.33219 19.4581 1.61364 20.6128C1.81751 21.4492 2.58066 22 3.44152 22H5C5.55228 22 6 21.5523 6 21V11C6 10.4477 5.55228 10 5 10H3.44152Z" fill="#2D50E6"/>
</svg>
