<svg width="24" height="24" viewBox="0 0 24 24" fill="none" xmlns="http://www.w3.org/2000/svg">
<path fill-rule="evenodd" clip-rule="evenodd" d="M22 5H18.8293C18.4175 3.83481 17.3062 3 16 3C14.6938 3 13.5825 3.83481 13.1707 5H2C1.44772 5 1 5.44772 1 6C1 6.55228 1.44772 7 2 7H13.1707C13.5825 8.16519 14.6938 9 16 9C17.3062 9 18.4175 8.16519 18.8293 7H22C22.5523 7 23 6.55228 23 6C23 5.44772 22.5523 5 22 5ZM16 7C16.5523 7 17 6.55228 17 6C17 5.44772 16.5523 5 16 5C15.4477 5 15 5.44772 15 6C15 6.55228 15.4477 7 16 7Z" fill="#2D50E6"/>
<path fill-rule="evenodd" clip-rule="evenodd" d="M2 11C1.44772 11 1 11.4477 1 12C1 12.5523 1.44772 13 2 13H5.17071C5.58254 14.1652 6.69378 15 8 15C9.30622 15 10.4175 14.1652 10.8293 13H22C22.5523 13 23 12.5523 23 12C23 11.4477 22.5523 11 22 11H10.8293C10.4175 9.83481 9.30622 9 8 9C6.69378 9 5.58254 9.83481 5.17071 11H2ZM9 12C9 12.5523 8.55229 13 8 13C7.44772 13 7 12.5523 7 12C7 11.4477 7.44772 11 8 11C8.55229 11 9 11.4477 9 12Z" fill="#2D50E6"/>
<path fill-rule="evenodd" clip-rule="evenodd" d="M2 17C1.44772 17 1 17.4477 1 18C1 18.5523 1.44772 19 2 19H13.1707C13.5825 20.1652 14.6938 21 16 21C17.3062 21 18.4175 20.1652 18.8293 19H22C22.5523 19 23 18.5523 23 18C23 17.4477 22.5523 17 22 17H18.8293C18.4175 15.8348 17.3062 15 16 15C14.6938 15 13.5825 15.8348 13.1707 17H2ZM16 19C16.5523 19 17 18.5523 17 18C17 17.4477 16.5523 17 16 17C15.4477 17 15 17.4477 15 18C15 18.5523 15.4477 19 16 19Z" fill="#2D50E6"/>
</svg>
