<svg width="24" height="24" viewBox="0 0 24 24" fill="none" xmlns="http://www.w3.org/2000/svg">
<path d="M5 8C5 4.13401 8.13401 1 12 1C15.866 1 19 4.13401 19 8V16.207C18.5232 16.0722 18.02 16 17.5 16C17.4436 16 17.3874 16.0009 17.3314 16.0026C16.5591 15.3769 15.5738 15 14.5 15C13.8235 15 13.181 15.15 12.605 15.4178C11.956 15.1487 11.2445 15 10.5 15C9.29022 15 8.17101 15.3918 7.26367 16.0528C7.01358 16.018 6.75858 16 6.5 16C5.97999 16 5.47683 16.0722 5 16.207V8Z" fill="#2D50E6"/>
<path d="M17.5 18C18.0368 18 18.5454 18.1208 19 18.3368C20.1825 18.8985 21 20.1038 21 21.5C21 21.7879 20.7507 22 20.4628 22H3.5372C3.24933 22 3 21.7879 3 21.5C3 20.1038 3.81753 18.8985 5 18.3368C5.45463 18.1208 5.9632 18 6.5 18C6.96493 18 7.40868 18.0907 7.81455 18.2552C8.45658 17.488 9.4213 17 10.5 17C11.3303 17 12.0931 17.2891 12.6932 17.7722C13.1483 17.2964 13.7895 17 14.5 17C15.3709 17 16.1378 17.4453 16.5854 18.1207C16.877 18.042 17.1836 18 17.5 18Z" fill="#2D50E6"/>
</svg>
