<svg width="24" height="24" viewBox="0 0 24 24" fill="none" xmlns="http://www.w3.org/2000/svg">
<path d="M13.8701 2.0052C12.9971 0.664932 11.0029 0.664932 10.1299 2.0052L9.8113 1.8422C8.46939 1.15575 6.86749 2.12625 6.89091 3.61151L6.54395 3.60747C5.07561 3.59039 4.19461 5.20202 5.02085 6.3937C3.65972 7.04776 3.65972 8.95224 5.02085 9.6063C4.19461 10.798 5.07561 12.4096 6.54395 12.3925L6.89091 12.3885C6.8717 13.6064 7.94533 14.4782 9.07233 14.3741C9.22045 14.7411 9.57998 15 10 15V21C10 22.1046 9.10457 23 8 23H16C14.8954 23 14 22.1046 14 21V15C14.42 15 14.7796 14.7411 14.9277 14.3741C16.0547 14.4782 17.1283 13.6064 17.1091 12.3885L17.4561 12.3925C18.9244 12.4096 19.8054 10.798 18.9792 9.6063C20.3403 8.95224 20.3403 7.04776 18.9792 6.3937C19.8054 5.20202 18.9244 3.59039 17.4561 3.60747L17.1091 3.61151C17.1325 2.12625 15.5306 1.15575 14.1887 1.8422L13.8701 2.0052Z" fill="#2D50E6"/>
</svg>
