<svg width="24" height="24" viewBox="0 0 24 24" fill="none" xmlns="http://www.w3.org/2000/svg">
<circle cx="12" cy="12" r="11" fill="white"/>
<path d="M15 6.87887L17.2148 4.66401C16.5398 4.18328 15.7955 3.7934 15 3.51221V6.87887Z" fill="#2D50E6"/>
<path d="M8.99997 6.87912V3.51221C8.20434 3.79342 7.46005 4.18334 6.78496 4.66411L8.99997 6.87912Z" fill="#2D50E6"/>
<path d="M6.8783 9.00009L3.51209 9.00009C3.79324 8.20462 4.18306 7.46047 4.6637 6.78549L6.8783 9.00009Z" fill="#2D50E6"/>
<path d="M3.51208 15.0001C3.79328 15.7957 4.18316 16.5399 4.66389 17.215L6.87875 15.0001H3.51208Z" fill="#2D50E6"/>
<path d="M8.99997 17.1215V20.488C8.20444 20.2068 7.46025 19.8169 6.78523 19.3363L8.99997 17.1215Z" fill="#2D50E6"/>
<path d="M15 20.488C15.7954 20.2068 16.5396 19.817 17.2146 19.3364L15 17.1218V20.488Z" fill="#2D50E6"/>
<path d="M17.1209 15.0001H20.4879C20.2066 15.7957 19.8167 16.54 19.3359 17.2151L17.1209 15.0001Z" fill="#2D50E6"/>
<path d="M20.4879 9.00009C20.2067 8.20456 19.8168 7.46037 19.3361 6.78535L17.1214 9.00009H20.4879Z" fill="#2D50E6"/>
<path d="M12 3C12.6874 3 13.3568 3.07706 14 3.22302V10H20.777C20.9229 10.6432 21 11.3126 21 12C21 12.6874 20.9229 13.3568 20.777 14H14V20.777C13.3568 20.9229 12.6874 21 12 21C11.3126 21 10.6432 20.9229 10 20.777V14H3.22302C3.07706 13.3568 3 12.6874 3 12C3 11.3126 3.07706 10.6432 3.22302 10L10 10V3.22302C10.6432 3.07706 11.3126 3 12 3Z" fill="#D95762"/>
<path d="M18.4667 5.74047C18.2346 5.50073 17.9892 5.27386 17.7319 5.06104L15 7.79297V9H15.2071L18.4667 5.74047Z" fill="#D95762"/>
<path d="M5.74034 5.53337C5.50061 5.76547 5.27374 6.01079 5.06091 6.26815L7.79277 9H8.99995V8.79297L5.74034 5.53337Z" fill="#D95762"/>
<path d="M18.2595 18.4667C18.4992 18.2346 18.7261 17.9893 18.9389 17.7319L16.207 15H15V15.2072L18.2595 18.4667Z" fill="#D95762"/>
<path d="M8.99995 16.2072L6.2681 18.939C6.01074 18.7262 5.76542 18.4994 5.53331 18.2596L8.79292 15H8.99995V16.2072Z" fill="#D95762"/>
</svg>
