<svg width="24" height="24" viewBox="0 0 24 24" fill="none" xmlns="http://www.w3.org/2000/svg">
<path d="M6 18.5C6 20.433 7.567 22 9.5 22C11.2505 22 12.7417 20.6782 13 19V11.04C15.2822 11.2253 17 12.0324 17 13C17.5 11.5 19 11 20 11C22.5 11 23 11.8954 23 13C23 7.26196 18.6065 2.55007 13 2.04484V2C13 1.44772 12.5523 1 12 1C11.4477 1 11 1.44772 11 2V2.04484C5.3935 2.55007 1 7.26196 1 13C1 12 1.5 11 4 11C5 11 6.5 11.5 7 13C7 12.0324 8.71776 11.2253 11 11.04V18.5C11 19.3284 10.3284 20 9.5 20C8.67157 20 8 19.3284 8 18.5C8 17.9477 7.55229 17.5 7 17.5C6.44772 17.5 6 17.9477 6 18.5Z" fill="#2D50E6"/>
</svg>
