<svg width="24" height="24" viewBox="0 0 24 24" fill="none" xmlns="http://www.w3.org/2000/svg">
<path d="M2.70711 22.7071C2.31658 23.0976 1.68342 23.0976 1.29289 22.7071C0.902369 22.3166 0.902369 21.6834 1.29289 21.2929L5.42413 17.1617L5.78972 15.033C5.84934 14.6858 5.73409 14.3316 5.48153 14.0857L1.32479 10.0394C0.688763 9.42022 1.03973 8.3415 1.9187 8.21396L7.66317 7.38036C8.0122 7.32971 8.31394 7.11078 8.47003 6.79493L11.039 1.59656C11.4321 0.801149 12.5679 0.801148 12.961 1.59655L15.53 6.79493C15.5583 6.85228 15.5915 6.90644 15.6288 6.95697L21.2929 1.29289C21.6834 0.902369 22.3166 0.902369 22.7071 1.29289C23.0976 1.68342 23.0976 2.31658 22.7071 2.70711L2.70711 22.7071Z" fill="#2D50E6"/>
<path d="M20.2888 7.95384L6.373 21.8696L11.5013 19.1771C11.8135 19.0132 12.1865 19.0132 12.4987 19.1771L17.6367 21.8747C18.4229 22.2875 19.3417 21.6208 19.1916 20.7465L18.2103 15.033C18.1507 14.6858 18.2659 14.3316 18.5185 14.0857L22.6752 10.0394C23.3112 9.42022 22.9603 8.3415 22.0813 8.21396L20.2888 7.95384Z" fill="#2D50E6"/>
</svg>
