<svg width="24" height="24" viewBox="0 0 24 24" fill="none" xmlns="http://www.w3.org/2000/svg">
<path d="M4 19C2.34315 19 1 17.6569 1 16C1 14.3431 2.34315 13 4 13C4.28621 13 4.52961 12.6911 4.43056 12.4226C4.15208 11.6677 4 10.8516 4 10C4 6.13401 7.13401 3 11 3C14.3749 3 17.192 5.3884 17.8532 8.56717C17.9044 8.81334 18.1181 8.99503 18.3688 9.01418C20.9233 9.20929 23 11.3953 23 14C23 16.7614 20.7614 19 18 19H14C13.4477 19 13 18.5523 13 18V12.4142L15.2929 14.7071C15.6834 15.0976 16.3166 15.0976 16.7071 14.7071C17.0976 14.3166 17.0976 13.6834 16.7071 13.2929L12.7071 9.29289C12.3166 8.90237 11.6834 8.90237 11.2929 9.29289L7.29289 13.2929C6.90237 13.6834 6.90237 14.3166 7.29289 14.7071C7.68342 15.0976 8.31658 15.0976 8.70711 14.7071L11 12.4142V18C11 18.5523 10.5523 19 10 19H4Z" fill="#2D50E6"/>
</svg>
