<svg width="24" height="24" viewBox="0 0 24 24" fill="none" xmlns="http://www.w3.org/2000/svg">
<path d="M11.1485 8.1347L15.3177 14.1569C14.312 14.4301 13.4463 15.0432 12.8516 15.8652L8.68238 9.84304C9.68806 9.5699 10.5538 8.95677 11.1485 8.1347Z" fill="#2D50E6"/>
<path d="M10 5.5C10 6.88071 8.88071 8 7.5 8C6.11929 8 5 6.88071 5 5.5C5 4.11929 6.11929 3 7.5 3C8.88071 3 10 4.11929 10 5.5Z" fill="#2D50E6"/>
<path d="M3.63114 7.79959C4.15354 8.67659 4.96566 9.36092 5.93546 9.72056L3.65237 12.4603C3.12202 13.0967 2.17618 13.1827 1.53976 12.6523C0.903346 12.122 0.81736 11.1761 1.34771 10.5397L3.63114 7.79959Z" fill="#2D50E6"/>
<path d="M18.0646 14.2795C19.0344 14.6391 19.8465 15.3234 20.3689 16.2004L22.6524 13.4603C23.1827 12.8239 23.0967 11.878 22.4603 11.3477C21.8239 10.8173 20.8781 10.9033 20.3477 11.5397L18.0646 14.2795Z" fill="#2D50E6"/>
<path d="M16.5 21C17.8807 21 19 19.8807 19 18.5C19 17.1193 17.8807 16 16.5 16C15.1193 16 14 17.1193 14 18.5C14 19.8807 15.1193 21 16.5 21Z" fill="#2D50E6"/>
</svg>
