<svg width="24" height="24" viewBox="0 0 24 24" fill="none" xmlns="http://www.w3.org/2000/svg">
<path fill-rule="evenodd" clip-rule="evenodd" d="M12 23C15.866 23 19 19.866 19 16C19 10.5279 14.5537 3.86924 12.7483 1.3912C12.3714 0.873832 11.6286 0.873833 11.2517 1.3912C9.44634 3.86924 5 10.5279 5 16C5 19.866 8.13401 23 12 23ZM17 16C17 15.4477 16.5523 15 16 15C15.4477 15 15 15.4477 15 16C15 17.6569 13.6569 19 12 19C11.4477 19 11 19.4477 11 20C11 20.5523 11.4477 21 12 21C14.7614 21 17 18.7614 17 16Z" fill="#2D50E6"/>
</svg>
