<svg width="24" height="24" viewBox="0 0 24 24" fill="none" xmlns="http://www.w3.org/2000/svg">
<path d="M17 17C14.7909 17 13 14.9853 13 12.5C13 10.0147 14.7909 8 17 8C17.6556 8 18.2743 8.17742 18.8203 8.4919C19.1645 8.69012 19.5978 8.71585 19.921 8.48501C20.2565 8.24534 20.3845 7.80024 20.179 7.44278C19.0009 5.39411 16.6758 4 14 4C10.134 4 7.5 7 6.5 10.5C5.81724 12.8897 4.98528 15 2.5 15H2C1.44772 15 1 15.4477 1 16V18C1 19.1046 1.89543 20 3 20H21C22.1046 20 23 19.1046 23 18C23 17.4477 22.5523 17 22 17H17Z" fill="#2D50E6"/>
<path d="M21 9.5C21 9.77614 20.7761 10 20.5 10C20.2239 10 20 9.77614 20 9.5C20 9.22386 20.2239 9 20.5 9C20.7761 9 21 9.22386 21 9.5Z" fill="#2D50E6"/>
<path d="M20 12C20 12.5523 19.5523 13 19 13C18.4477 13 18 12.5523 18 12C18 11.4477 18.4477 11 19 11C19.5523 11 20 11.4477 20 12Z" fill="#2D50E6"/>
</svg>
