<svg width="24" height="24" viewBox="0 0 24 24" fill="none" xmlns="http://www.w3.org/2000/svg">
<path fill-rule="evenodd" clip-rule="evenodd" d="M15.1642 7.44735C15.6881 6.7709 16 5.92187 16 5C16 2.79086 14.2091 1 12 1C9.79086 1 8 2.79086 8 5C8 7.20914 9.79086 9 12 9C12.1946 9 12.3859 8.98611 12.573 8.95926L14.7771 12.7377C15.4888 12.0326 16.3761 11.5044 17.3676 11.2247L15.1642 7.44735ZM12 6C12.5523 6 13 5.55228 13 5C13 4.44772 12.5523 4 12 4C11.4477 4 11 4.44772 11 5C11 5.55228 11.4477 6 12 6Z" fill="#2D50E6"/>
<path fill-rule="evenodd" clip-rule="evenodd" d="M5.57302 13.0407L7.77711 9.2623C8.48878 9.96743 9.37612 10.4956 10.3676 10.7753L8.16418 14.5527C8.68814 15.2291 9 16.0781 9 17C9 19.2091 7.20914 21 5 21C2.79086 21 1 19.2091 1 17C1 14.7909 2.79086 13 5 13C5.19456 13 5.38588 13.0139 5.57302 13.0407ZM5 18C5.55228 18 6 17.5523 6 17C6 16.4477 5.55228 16 5 16C4.44772 16 4 16.4477 4 17C4 17.5523 4.44772 18 5 18Z" fill="#2D50E6"/>
<path fill-rule="evenodd" clip-rule="evenodd" d="M10.811 18.5C10.9344 18.0206 11.0001 17.518 11.0001 17C11.0001 16.4821 10.9344 15.9794 10.811 15.5H15.2908C15.8842 14.0341 17.3214 13 19.0001 13C21.2092 13 23.0001 14.7909 23.0001 17C23.0001 19.2091 21.2092 21 19.0001 21C17.3214 21 15.8842 19.9659 15.2908 18.5H10.811ZM20 17C20 17.5523 19.5523 18 19 18C18.4477 18 18 17.5523 18 17C18 16.4477 18.4477 16 19 16C19.5523 16 20 16.4477 20 17Z" fill="#2D50E6"/>
</svg>
