<svg width="24" height="24" viewBox="0 0 24 24" fill="none" xmlns="http://www.w3.org/2000/svg">
<path d="M9.5 6C10.8807 6 12 4.88071 12 3.5C12 2.11929 10.8807 1 9.5 1C8.11929 1 7 2.11929 7 3.5C7 4.88071 8.11929 6 9.5 6Z" fill="#2D50E6"/>
<path d="M12.6627 8.4562C11.5982 8.21966 10.7404 7.12084 9.65586 7.00775C9.50922 6.99246 9.35781 6.99871 9.20563 7.02914C8.39329 7.19161 7.86646 7.98185 8.02893 8.79419L8.86815 12.9903C9.10186 14.1589 10.1279 15 11.3196 15H14.382C14.5831 15 14.772 15.0598 14.9304 15.1638C14.9405 15.1704 14.9504 15.1772 14.9602 15.1841C15.1714 15.3339 15.3232 15.5644 15.3684 15.8356L15.8809 18.911C15.9159 19.1208 15.9764 19.3208 16.0588 19.5081C16.4503 20.3972 17.3375 21 18.3469 21H19.4998C20.3282 21 20.9998 20.3284 20.9998 19.5C20.9998 18.6716 20.3282 18 19.4998 18H18.7705L18.1187 14.089C17.9229 12.9145 16.9278 12.0456 15.7465 12.0018C15.7224 12.0009 15.6982 12.0003 15.6739 12.0001L15.6527 12H12.5493C12.0931 12 11.6976 11.6918 11.5825 11.2556L11.5807 11.2487C11.5763 11.2314 11.5723 11.2139 11.5687 11.1961L11.5295 11H15C15.5523 11 16 10.5523 16 10C16 9.51539 15.6553 9.1113 15.1977 9.01954L12.6627 8.4562Z" fill="#2D50E6"/>
<path d="M7.57551 11.6261L7.16947 9.59589C4.71352 10.683 3 13.1414 3 16C3 19.866 6.13401 23 10 23C12.1872 23 14.1401 21.9969 15.4238 20.4256C15.1614 20.0277 14.9771 19.571 14.8945 19.0754L14.6772 17.7713C13.9621 19.6584 12.1377 21 10 21C7.23858 21 5 18.7614 5 16C5 14.1183 6.03946 12.4794 7.57551 11.6261Z" fill="#2D50E6"/>
</svg>
