<svg width="24" height="24" viewBox="0 0 24 24" fill="none" xmlns="http://www.w3.org/2000/svg">
<path d="M11.999 4C16.0996 4 19.9431 5.69002 22.7885 8.63302C22.8108 8.65616 22.8358 8.68228 22.8633 8.71136C23.03 8.88773 23.0436 9.15411 22.9074 9.34512L22.8493 9.41289L22.1642 10.0817C21.9605 10.2762 21.6441 10.2688 21.4536 10.0689C21.42 10.0337 21.3898 10.0024 21.363 9.97513C18.8803 7.44757 15.5517 6.00006 11.999 6.00006C8.5259 6.00006 5.26691 7.38351 2.80305 9.80708C2.73351 9.87548 2.64786 9.963 2.54611 10.0696L2.54233 10.0736C2.37098 10.2493 2.10192 10.2719 1.90552 10.1392L1.83561 10.0822L1.15072 9.41354C0.955311 9.22276 0.949124 8.91037 1.13677 8.71195C1.25027 8.592 1.34494 8.49426 1.4208 8.41873C4.24374 5.60812 7.99906 4 11.999 4Z" fill="#C0BEB8"/>
<path d="M14.4437 16.9194C13.7803 16.3453 12.9283 16.0002 11.9991 16.0002C11.0915 16.0002 10.2575 16.3295 9.60096 16.8798C9.56988 16.9058 9.53542 16.9366 9.49758 16.972C9.49312 16.9762 9.48874 16.9804 9.48443 16.9848C9.28993 17.1807 9.291 17.4973 9.48685 17.6919L11.6704 19.862C11.8554 20.0459 12.1462 20.0459 12.3312 19.8619L14.5137 17.6925C14.5185 17.6876 14.5233 17.6827 14.5279 17.6777C14.7156 17.4752 14.7036 17.1588 14.5012 16.9711C14.4808 16.9521 14.4616 16.9349 14.4437 16.9194Z" fill="#2C2302"/>
<path d="M17.1311 14.0573C15.7397 12.7471 13.926 12.0001 11.9991 12.0001C10.0357 12.0001 8.18991 12.7756 6.78859 14.1323C6.76013 14.1598 6.72814 14.1918 6.69259 14.2281C6.49935 14.4253 6.50257 14.7419 6.69973 14.9352L6.7042 14.9395L7.39825 15.6032L7.47648 15.6645C7.66933 15.7868 7.92697 15.7638 8.09525 15.597C8.13299 15.5596 8.16688 15.5271 8.19693 15.4994C9.23458 14.543 10.5742 14.0002 11.9991 14.0002C13.3655 14.0002 14.6535 14.4994 15.672 15.3837C15.7359 15.4392 15.8126 15.5113 15.902 15.6C16.0943 15.7906 16.4032 15.7934 16.5989 15.6063L17.2942 14.9418L17.3536 14.8738C17.493 14.6821 17.4799 14.4123 17.3104 14.2348L17.1836 14.1076C17.1651 14.0896 17.1476 14.0728 17.1311 14.0573Z" fill="#2C2302"/>
<path d="M19.7983 11.1823C17.6975 9.15633 14.9361 8 11.9991 8C9.00321 8 6.1901 9.20314 4.07437 11.3051C4.02899 11.3502 3.97532 11.4052 3.91336 11.4701C3.72363 11.6687 3.72963 11.9833 3.92681 12.1746L4.61441 12.8415L4.6845 12.8982C4.8813 13.0302 5.15023 13.0068 5.32101 12.8306C5.37468 12.7752 5.42169 12.7278 5.46204 12.6885C7.21798 10.9766 9.53261 10.0001 11.9991 10.0001C14.4117 10.0001 16.6789 10.9344 18.4202 12.5772C18.4901 12.6432 18.5758 12.7284 18.6772 12.8329C18.8693 13.0308 19.1853 13.0356 19.3834 12.8435L20.0711 12.1767L20.1298 12.1086C20.2675 11.9167 20.2533 11.6482 20.0842 11.4716C19.9704 11.3528 19.8751 11.2564 19.7983 11.1823Z" fill="#2C2302"/>
</svg>
