<svg width="24" height="24" viewBox="0 0 24 24" fill="none" xmlns="http://www.w3.org/2000/svg">
<path d="M11.999 4C16.0996 4 19.9431 5.69002 22.7885 8.63302C22.8108 8.65616 22.8358 8.68228 22.8633 8.71136C23.03 8.88773 23.0436 9.15411 22.9074 9.34512L22.8493 9.41289L22.1642 10.0817C21.9605 10.2762 21.6441 10.2688 21.4536 10.0689C21.42 10.0337 21.3898 10.0024 21.363 9.97513C18.8803 7.44757 15.5517 6.00006 11.999 6.00006C8.5259 6.00006 5.26691 7.38351 2.80305 9.80708C2.73351 9.87548 2.64786 9.963 2.54611 10.0696L2.54233 10.0736C2.37098 10.2493 2.10192 10.2719 1.90552 10.1392L1.83561 10.0822L1.15072 9.41354C0.955311 9.22276 0.949124 8.91037 1.13677 8.71195C1.25027 8.592 1.34494 8.49426 1.4208 8.41873C4.24374 5.60812 7.99906 4 11.999 4Z" fill="#C0BEB8"/>
<path d="M14.4437 16.9195C13.7802 16.3454 12.9282 16.0004 11.999 16.0004C11.0914 16.0004 10.2575 16.3296 9.60088 16.8799C9.5698 16.906 9.53534 16.9367 9.4975 16.9721C9.49304 16.9763 9.48866 16.9806 9.48435 16.9849C9.28985 17.1808 9.29092 17.4974 9.48676 17.692L11.6703 19.8621C11.8553 20.046 12.1461 20.046 12.3311 19.8621L14.5136 17.6926C14.5184 17.6878 14.5232 17.6828 14.5278 17.6778C14.7155 17.4753 14.7036 17.1589 14.5012 16.9712C14.4807 16.9522 14.4616 16.935 14.4437 16.9195Z" fill="#C0BEB8"/>
<path d="M17.131 14.0574C15.7396 12.7472 13.9259 12.0002 11.999 12.0002C10.0357 12.0002 8.18983 12.7758 6.78851 14.1324C6.76005 14.16 6.72805 14.1919 6.69251 14.2282C6.49927 14.4254 6.50249 14.742 6.69965 14.9353L6.70412 14.9397L7.39816 15.6033L7.4764 15.6646C7.66925 15.7869 7.92689 15.7639 8.09517 15.5971C8.13291 15.5597 8.1668 15.5272 8.19685 15.4995C9.2345 14.5431 10.5741 14.0003 11.999 14.0003C13.3654 14.0003 14.6534 14.4995 15.6719 15.3838C15.7358 15.4393 15.8125 15.5114 15.9019 15.6001C16.0942 15.7907 16.4031 15.7935 16.5989 15.6065L17.2942 14.9419L17.3536 14.874C17.4929 14.6822 17.4798 14.4124 17.3103 14.2349L17.1835 14.1078C17.165 14.0897 17.1475 14.0729 17.131 14.0574Z" fill="#C0BEB8"/>
<path d="M19.7982 11.1824C17.6974 9.15645 14.9361 8.00012 11.999 8.00012C9.00313 8.00012 6.19002 9.20327 4.07429 11.3053C4.02891 11.3504 3.97524 11.4053 3.91328 11.4702C3.72355 11.6688 3.72955 11.9834 3.92673 12.1747L4.61433 12.8416L4.68442 12.8984C4.88122 13.0303 5.15015 13.0069 5.32092 12.8307C5.3746 12.7753 5.42161 12.7279 5.46196 12.6886C7.2179 10.9767 9.53253 10.0002 11.999 10.0002C14.4116 10.0002 16.6788 10.9345 18.4201 12.5773C18.49 12.6433 18.5757 12.7286 18.6771 12.833C18.8692 13.0309 19.1853 13.0357 19.3833 12.8437L20.071 12.1768L20.1297 12.1088C20.2674 11.9169 20.2532 11.6483 20.0841 11.4718C19.9704 11.3529 19.8751 11.2565 19.7982 11.1824Z" fill="#C0BEB8"/>
</svg>
