<svg width="24" height="24" viewBox="0 0 24 24" fill="none" xmlns="http://www.w3.org/2000/svg">
<path d="M1 5C1 4.44772 1.44772 4 2 4C3.72124 4 4.61738 5.07738 5.22278 5.80521L5.26822 5.85982C5.91224 6.63264 6.26483 7 7 7C7.73517 7 8.08776 6.63264 8.73178 5.85982L8.77722 5.80521C9.38262 5.07738 10.2788 4 12 4C13.7212 4 14.6174 5.07738 15.2228 5.80521L15.2682 5.85982C15.9122 6.63264 16.2648 7 17 7C17.7414 7 18.0946 6.63134 18.7353 5.86068L18.7822 5.80422C19.3858 5.07684 20.2793 4 22 4C22.5523 4 23 4.44772 23 5C23 5.55228 22.5523 6 22 6C21.2658 6 20.9162 6.36596 20.2732 7.13932L20.2303 7.19097C19.6245 7.92081 18.7288 9 17 9C15.2788 9 14.3826 7.92263 13.7772 7.19479L13.7318 7.14018C13.0878 6.36736 12.7352 6 12 6C11.2648 6 10.9122 6.36736 10.2682 7.14018L10.2228 7.19479C9.61738 7.92262 8.72124 9 7 9C5.27876 9 4.38262 7.92263 3.77722 7.19479L3.73178 7.14018C3.08776 6.36736 2.73517 6 2 6C1.44772 6 1 5.55228 1 5Z" fill="#2D50E6"/>
<path d="M1 16C1 15.4477 1.44772 15 2 15C3.72124 15 4.61738 16.0774 5.22278 16.8052L5.26822 16.8598C5.91224 17.6326 6.26483 18 7 18C7.73517 18 8.08776 17.6326 8.73178 16.8598L8.77722 16.8052C9.38262 16.0774 10.2788 15 12 15C13.7212 15 14.6174 16.0774 15.2228 16.8052L15.2682 16.8598C15.9122 17.6326 16.2648 18 17 18C17.7414 18 18.0946 17.6313 18.7353 16.8607L18.7822 16.8042C19.3858 16.0768 20.2793 15 22 15C22.5523 15 23 15.4477 23 16C23 16.5523 22.5523 17 22 17C21.2658 17 20.9162 17.366 20.2732 18.1393L20.2303 18.191C19.6245 18.9208 18.7288 20 17 20C15.2788 20 14.3826 18.9226 13.7772 18.1948L13.7318 18.1402C13.0878 17.3674 12.7352 17 12 17C11.2648 17 10.9122 17.3674 10.2682 18.1402L10.2228 18.1948C9.61738 18.9226 8.72124 20 7 20C5.27876 20 4.38262 18.9226 3.77722 18.1948L3.73178 18.1402C3.08776 17.3674 2.73517 17 2 17C1.44772 17 1 16.5523 1 16Z" fill="#2D50E6"/>
<path d="M2 9.5C1.44772 9.5 1 9.94772 1 10.5C1 11.0523 1.44772 11.5 2 11.5C2.73517 11.5 3.08776 11.8674 3.73178 12.6402L3.77722 12.6948C4.38262 13.4226 5.27876 14.5 7 14.5C8.72124 14.5 9.61738 13.4226 10.2228 12.6948L10.2682 12.6402C10.9122 11.8674 11.2648 11.5 12 11.5C12.7352 11.5 13.0878 11.8674 13.7318 12.6402L13.7772 12.6948C14.3826 13.4226 15.2788 14.5 17 14.5C18.7288 14.5 19.6245 13.4208 20.2303 12.691L20.2732 12.6393C20.9162 11.866 21.2658 11.5 22 11.5C22.5523 11.5 23 11.0523 23 10.5C23 9.94772 22.5523 9.5 22 9.5C20.2793 9.5 19.3858 10.5768 18.7822 11.3042L18.7353 11.3607C18.0946 12.1313 17.7414 12.5 17 12.5C16.2648 12.5 15.9122 12.1326 15.2682 11.3598L15.2228 11.3052C14.6174 10.5774 13.7212 9.5 12 9.5C10.2788 9.5 9.38262 10.5774 8.77722 11.3052L8.73178 11.3598C8.08776 12.1326 7.73517 12.5 7 12.5C6.26483 12.5 5.91224 12.1326 5.26822 11.3598L5.22278 11.3052C4.61738 10.5774 3.72124 9.5 2 9.5Z" fill="#2D50E6"/>
</svg>
