<svg width="24" height="24" viewBox="0 0 24 24" fill="none" xmlns="http://www.w3.org/2000/svg">
<path fill-rule="evenodd" clip-rule="evenodd" d="M6 1C4.89543 1 4 1.89543 4 3V21C4 22.1046 4.89543 23 6 23H18C19.1046 23 20 22.1046 20 21V3C20 1.89543 19.1046 1 18 1H6ZM14 3C13.4477 3 13 3.44772 13 4V10C13 10.5523 13.4477 11 14 11H17C17.5523 11 18 10.5523 18 10V4C18 3.44772 17.5523 3 17 3H14ZM17.8383 13.4546C17.6599 13.1809 17.3511 13 17 13H14C13.6726 13 13.3819 13.1574 13.1995 13.4006C13.0742 13.5676 13 13.7751 13 14V20C13 20.3511 13.1809 20.6599 13.4546 20.8383C13.6114 20.9406 13.7988 21 14 21H17C17.142 21 17.2771 20.9704 17.3995 20.917C17.7529 20.7628 18 20.4103 18 20V14C18 13.7988 17.9406 13.6114 17.8383 13.4546ZM11 4C11 3.44772 10.5523 3 10 3H7C6.44772 3 6 3.44772 6 4V10C6 10.5523 6.44772 11 7 11H10C10.5523 11 11 10.5523 11 10V4ZM6 20C6 20.5523 6.44772 21 7 21H10C10.5523 21 11 20.5523 11 20V14C11 13.4477 10.5523 13 10 13H7C6.44772 13 6 13.4477 6 14V20Z" fill="#2D50E6"/>
</svg>
