<svg width="24" height="24" viewBox="0 0 24 24" fill="none" xmlns="http://www.w3.org/2000/svg">
<path fill-rule="evenodd" clip-rule="evenodd" d="M6 4.00705C6.00761 5.66066 8.69098 7 12 7C15.3137 7 18 5.65685 18 4C18 3.89665 17.9895 3.79452 17.9691 3.69386C17.9078 3.39109 17.7563 3.10163 17.5285 2.83226C16.6176 1.75552 14.4853 1 12 1C8.68628 1 6 2.34315 6 4V4.00705ZM12 4.5C12.5523 4.5 13 4.27614 13 4C13 3.72386 12.5523 3.5 12 3.5C11.4477 3.5 11 3.72386 11 4C11 4.27614 11.4477 4.5 12 4.5ZM12 2.5C10.3431 2.5 8.99998 3.17157 8.99998 4C8.99998 4.82843 10.3431 5.5 12 5.5C13.6568 5.5 15 4.82843 15 4C15 3.86193 15.2238 3.75 15.5 3.75C15.7761 3.75 16 3.86193 16 4C16 5.10457 14.2091 6 12 6C9.79084 6 7.99998 5.10457 7.99998 4C7.99998 2.89543 9.79084 2 12 2C12.2761 2 12.5 2.11193 12.5 2.25C12.5 2.38807 12.2761 2.5 12 2.5Z" fill="#2D50E6"/>
<path d="M6 6.18932V12.2929L4.98507 11.278C4.92156 10.639 4.98521 9.98521 4 9C3.01479 8.01479 1 8 1 8C1 8 1 10 2 11C3 12 3.63898 11.9216 4.27796 11.9851L5.38142 13.0885C5.18313 13.1334 4.97998 13.201 4.77639 13.3028C4.14597 13.618 3.58109 14.2198 3.05279 15.2764C2.92929 15.5234 3.0294 15.8237 3.27639 15.9472C3.52338 16.0707 3.82372 15.9706 3.94721 15.7236C4.41891 14.7802 4.85403 14.382 5.22361 14.1972C5.46942 14.0743 5.71697 14.0279 6 14.0104V20C6 21.1104 7.20659 22.0799 8.99998 22.5986V20.5C8.99998 20.2239 9.22384 20 9.49998 20C9.77613 20 9.99998 20.2239 9.99998 20.5V22.8293C10.6255 22.9398 11.2987 23 12 23C15.3137 23 18 21.6569 18 20V16C18 14.8069 19.1387 14.1832 20.3293 13.5311C21.6335 12.8168 23 12.0683 23 10.5C23 10.2239 22.5523 10 22 10C21.4477 10 21 10.2239 21 10.5C21 11.5 18 11.5 18 10.5V6.18929C17.5021 6.6678 16.8253 7.07503 15.9858 7.38139C15.9951 7.41941 16 7.45913 16 7.5V11.5C16 11.7761 15.7761 12 15.5 12C15.2238 12 15 11.7761 15 11.5V7.67565C14.1267 7.88438 13.1226 8 12 8C9.198 8 7.13466 7.27975 6 6.18932Z" fill="#2D50E6"/>
</svg>
