<svg width="24" height="24" viewBox="0 0 24 24" fill="none" xmlns="http://www.w3.org/2000/svg">
<path d="M22.4142 4.41421L12.9313 13.8971C12.2627 14.5657 11.4455 15.0668 10.5465 15.3596L8.65454 15.9757C8.2658 16.1023 7.8977 15.7342 8.02429 15.3454L8.64038 13.4535C8.93316 12.5544 9.43427 11.7373 10.1029 11.0687L19.5858 1.58579C20.3668 0.804738 21.6331 0.804738 22.4142 1.58579C23.1952 2.36684 23.1952 3.63317 22.4142 4.41421Z" fill="#2D50E6"/>
<path d="M4 5C4 4.44772 4.44772 4 5 4H12.5C13.0523 4 13.5 3.55228 13.5 3C13.5 2.44772 13.0523 2 12.5 2H5C3.34315 2 2 3.34315 2 5V19C2 20.6569 3.34315 22 5 22H19C20.6569 22 22 20.6569 22 19V11.5C22 10.9477 21.5523 10.5 21 10.5C20.4477 10.5 20 10.9477 20 11.5V19C20 19.5523 19.5523 20 19 20H5C4.44772 20 4 19.5523 4 19V5Z" fill="#2D50E6"/>
</svg>
